%TF.GenerationSoftware,KiCad,Pcbnew,9.0.4*%
%TF.CreationDate,2025-10-12T12:12:34+13:00*%
%TF.ProjectId,Main_PCB,4d61696e-5f50-4434-922e-6b696361645f,rev?*%
%TF.SameCoordinates,Original*%
%TF.FileFunction,Soldermask,Top*%
%TF.FilePolarity,Negative*%
%FSLAX46Y46*%
G04 Gerber Fmt 4.6, Leading zero omitted, Abs format (unit mm)*
G04 Created by KiCad (PCBNEW 9.0.4) date 2025-10-12 12:12:34*
%MOMM*%
%LPD*%
G01*
G04 APERTURE LIST*
G04 Aperture macros list*
%AMRoundRect*
0 Rectangle with rounded corners*
0 $1 Rounding radius*
0 $2 $3 $4 $5 $6 $7 $8 $9 X,Y pos of 4 corners*
0 Add a 4 corners polygon primitive as box body*
4,1,4,$2,$3,$4,$5,$6,$7,$8,$9,$2,$3,0*
0 Add four circle primitives for the rounded corners*
1,1,$1+$1,$2,$3*
1,1,$1+$1,$4,$5*
1,1,$1+$1,$6,$7*
1,1,$1+$1,$8,$9*
0 Add four rect primitives between the rounded corners*
20,1,$1+$1,$2,$3,$4,$5,0*
20,1,$1+$1,$4,$5,$6,$7,0*
20,1,$1+$1,$6,$7,$8,$9,0*
20,1,$1+$1,$8,$9,$2,$3,0*%
G04 Aperture macros list end*
%ADD10C,0.800000*%
%ADD11R,2.460000X2.310000*%
%ADD12RoundRect,0.100000X-0.687500X-0.100000X0.687500X-0.100000X0.687500X0.100000X-0.687500X0.100000X0*%
%ADD13RoundRect,0.053000X-0.479000X-0.159000X0.479000X-0.159000X0.479000X0.159000X-0.479000X0.159000X0*%
%ADD14RoundRect,0.053000X-0.159000X-0.479000X0.159000X-0.479000X0.159000X0.479000X-0.159000X0.479000X0*%
%ADD15RoundRect,0.102000X-2.850000X-2.850000X2.850000X-2.850000X2.850000X2.850000X-2.850000X2.850000X0*%
%ADD16R,0.500000X0.300000*%
%ADD17R,2.500000X12.500000*%
G04 APERTURE END LIST*
D10*
%TO.C,U5*%
X196410000Y-111320000D03*
X196410000Y-112590000D03*
X196410000Y-113860000D03*
X196410000Y-115130000D03*
X196410000Y-116400000D03*
X196410000Y-117670000D03*
X196410000Y-118940000D03*
X196410000Y-120210000D03*
X196410000Y-121480000D03*
X196410000Y-122750000D03*
X197930000Y-122750000D03*
X199200000Y-122750000D03*
X200470000Y-122750000D03*
X201740000Y-122750000D03*
X203010000Y-122750000D03*
X204280000Y-122750000D03*
X205800000Y-122750000D03*
X205800000Y-121480000D03*
X205800000Y-120210000D03*
X205800000Y-118940000D03*
X205800000Y-117670000D03*
X205800000Y-116400000D03*
X205800000Y-115130000D03*
X205800000Y-113860000D03*
X205800000Y-112590000D03*
X205800000Y-111320000D03*
X201450000Y-108210000D03*
X198500000Y-108210000D03*
X196410000Y-106610000D03*
X205800000Y-106610000D03*
%TD*%
D11*
%TO.C,U3*%
X155350000Y-121600000D03*
D12*
X152487500Y-119325000D03*
X152487500Y-119975000D03*
X152487500Y-120625000D03*
X152487500Y-121275000D03*
X152487500Y-121925000D03*
X152487500Y-122575000D03*
X152487500Y-123225000D03*
X152487500Y-123875000D03*
X158212500Y-123875000D03*
X158212500Y-123225000D03*
X158212500Y-122575000D03*
X158212500Y-121925000D03*
X158212500Y-121275000D03*
X158212500Y-120625000D03*
X158212500Y-119975000D03*
X158212500Y-119325000D03*
%TD*%
D13*
%TO.C,U1*%
X113980000Y-110700000D03*
X113980000Y-111100000D03*
X113980000Y-111500000D03*
X113980000Y-111900000D03*
X113980000Y-112300000D03*
X113980000Y-112700000D03*
X113980000Y-113100000D03*
X113980000Y-113500000D03*
X113980000Y-113900000D03*
X113980000Y-114300000D03*
X113980000Y-114700000D03*
X113980000Y-115100000D03*
X113980000Y-115500000D03*
X113980000Y-115900000D03*
X113980000Y-116300000D03*
X113980000Y-116700000D03*
X113980000Y-117100000D03*
D14*
X114715000Y-117835000D03*
X115115000Y-117835000D03*
X115515000Y-117835000D03*
X115915000Y-117835000D03*
X116315000Y-117835000D03*
X116715000Y-117835000D03*
X117115000Y-117835000D03*
X117515000Y-117835000D03*
X117915000Y-117835000D03*
X118315000Y-117835000D03*
X118715000Y-117835000D03*
X119115000Y-117835000D03*
X119515000Y-117835000D03*
X119915000Y-117835000D03*
X120315000Y-117835000D03*
X120715000Y-117835000D03*
X121115000Y-117835000D03*
D13*
X121850000Y-117100000D03*
X121850000Y-116700000D03*
X121850000Y-116300000D03*
X121850000Y-115900000D03*
X121850000Y-115500000D03*
X121850000Y-115100000D03*
X121850000Y-114700000D03*
X121850000Y-114300000D03*
X121850000Y-113900000D03*
X121850000Y-113500000D03*
X121850000Y-113100000D03*
X121850000Y-112700000D03*
X121850000Y-112300000D03*
X121850000Y-111900000D03*
X121850000Y-111500000D03*
X121850000Y-111100000D03*
X121850000Y-110700000D03*
D14*
X121115000Y-109965000D03*
X120715000Y-109965000D03*
X120315000Y-109965000D03*
X119915000Y-109965000D03*
X119515000Y-109965000D03*
X119115000Y-109965000D03*
X118715000Y-109965000D03*
X118315000Y-109965000D03*
X117915000Y-109965000D03*
X117515000Y-109965000D03*
X117115000Y-109965000D03*
X116715000Y-109965000D03*
X116315000Y-109965000D03*
X115915000Y-109965000D03*
X115515000Y-109965000D03*
X115115000Y-109965000D03*
X114715000Y-109965000D03*
D15*
X117915000Y-113900000D03*
%TD*%
D16*
%TO.C,U4*%
X159050000Y-109850000D03*
X159050000Y-110650000D03*
X160450000Y-110650000D03*
X160450000Y-109850000D03*
%TD*%
D17*
%TO.C,J2*%
X179005000Y-114000000D03*
%TD*%
%TO.C,J1*%
X141000000Y-114000000D03*
%TD*%
M02*
