G04 #@! TF.GenerationSoftware,KiCad,Pcbnew,9.0.5*
G04 #@! TF.CreationDate,2025-10-23T20:31:54+13:00*
G04 #@! TF.ProjectId,Gateway_PCB,47617465-7761-4795-9f50-43422e6b6963,rev?*
G04 #@! TF.SameCoordinates,Original*
G04 #@! TF.FileFunction,Copper,L1,Top*
G04 #@! TF.FilePolarity,Positive*
%FSLAX46Y46*%
G04 Gerber Fmt 4.6, Leading zero omitted, Abs format (unit mm)*
G04 Created by KiCad (PCBNEW 9.0.5) date 2025-10-23 20:31:54*
%MOMM*%
%LPD*%
G01*
G04 APERTURE LIST*
G04 Aperture macros list*
%AMRoundRect*
0 Rectangle with rounded corners*
0 $1 Rounding radius*
0 $2 $3 $4 $5 $6 $7 $8 $9 X,Y pos of 4 corners*
0 Add a 4 corners polygon primitive as box body*
4,1,4,$2,$3,$4,$5,$6,$7,$8,$9,$2,$3,0*
0 Add four circle primitives for the rounded corners*
1,1,$1+$1,$2,$3*
1,1,$1+$1,$4,$5*
1,1,$1+$1,$6,$7*
1,1,$1+$1,$8,$9*
0 Add four rect primitives between the rounded corners*
20,1,$1+$1,$2,$3,$4,$5,0*
20,1,$1+$1,$4,$5,$6,$7,0*
20,1,$1+$1,$6,$7,$8,$9,0*
20,1,$1+$1,$8,$9,$2,$3,0*%
%AMFreePoly0*
4,1,13,0.099990,0.100010,0.099980,0.100000,0.099990,0.080110,0.084770,0.043360,0.056640,0.015230,0.019890,0.000000,-0.869910,0.000000,-0.906660,0.015220,-0.934790,0.043350,-0.950010,0.080110,-0.950010,0.750000,0.099990,0.750000,0.099990,0.100010,0.099990,0.100010,$1*%
G04 Aperture macros list end*
G04 #@! TA.AperFunction,SMDPad,CuDef*
%ADD10C,0.800000*%
G04 #@! TD*
G04 #@! TA.AperFunction,ComponentPad*
%ADD11C,1.045000*%
G04 #@! TD*
G04 #@! TA.AperFunction,SMDPad,CuDef*
%ADD12FreePoly0,270.000000*%
G04 #@! TD*
G04 #@! TA.AperFunction,SMDPad,CuDef*
%ADD13RoundRect,0.225000X-0.250000X0.225000X-0.250000X-0.225000X0.250000X-0.225000X0.250000X0.225000X0*%
G04 #@! TD*
G04 #@! TA.AperFunction,SMDPad,CuDef*
%ADD14RoundRect,0.200000X0.200000X0.275000X-0.200000X0.275000X-0.200000X-0.275000X0.200000X-0.275000X0*%
G04 #@! TD*
G04 #@! TA.AperFunction,ComponentPad*
%ADD15R,1.700000X1.700000*%
G04 #@! TD*
G04 #@! TA.AperFunction,ComponentPad*
%ADD16C,1.700000*%
G04 #@! TD*
G04 #@! TA.AperFunction,SMDPad,CuDef*
%ADD17RoundRect,0.218750X-0.218750X-0.256250X0.218750X-0.256250X0.218750X0.256250X-0.218750X0.256250X0*%
G04 #@! TD*
G04 #@! TA.AperFunction,SMDPad,CuDef*
%ADD18RoundRect,0.200000X0.275000X-0.200000X0.275000X0.200000X-0.275000X0.200000X-0.275000X-0.200000X0*%
G04 #@! TD*
G04 #@! TA.AperFunction,ViaPad*
%ADD19C,0.800000*%
G04 #@! TD*
G04 #@! TA.AperFunction,ViaPad*
%ADD20C,0.600000*%
G04 #@! TD*
G04 #@! TA.AperFunction,Conductor*
%ADD21C,0.500000*%
G04 #@! TD*
G04 #@! TA.AperFunction,Conductor*
%ADD22C,0.200000*%
G04 #@! TD*
G04 APERTURE END LIST*
D10*
G04 #@! TO.P,U1,1,GND*
G04 #@! TO.N,GND*
X63500000Y-69500000D03*
G04 #@! TO.P,U1,2,nRESET*
G04 #@! TO.N,Net-(J2-Pin_12)*
X63500000Y-68230000D03*
G04 #@! TO.P,U1,3,SAPI_RX*
G04 #@! TO.N,Net-(J1-Pin_5)*
X63500000Y-66960000D03*
G04 #@! TO.P,U1,4,SAPI_CTS*
G04 #@! TO.N,Net-(J1-Pin_4)*
X63500000Y-65690000D03*
G04 #@! TO.P,U1,5,SAPI_TX*
G04 #@! TO.N,Net-(J1-Pin_3)*
X63500000Y-64420000D03*
G04 #@! TO.P,U1,6,GND*
G04 #@! TO.N,GND*
X63500000Y-63150000D03*
G04 #@! TO.P,U1,7,nWES*
G04 #@! TO.N,unconnected-(U1-nWES-Pad7)*
X63500000Y-61880000D03*
G04 #@! TO.P,U1,8,RESERVED*
G04 #@! TO.N,unconnected-(U1-RESERVED-Pad8)*
X63500000Y-60610000D03*
G04 #@! TO.P,U1,9,GND*
G04 #@! TO.N,GND*
X63500000Y-59340000D03*
G04 #@! TO.P,U1,10,RESERVED*
G04 #@! TO.N,unconnected-(U1-RESERVED-Pad10)*
X63500000Y-58070000D03*
G04 #@! TO.P,U1,11,RESERVED*
G04 #@! TO.N,unconnected-(U1-RESERVED-Pad11)*
X61980000Y-58070000D03*
G04 #@! TO.P,U1,12,RESERVED*
G04 #@! TO.N,unconnected-(U1-RESERVED-Pad12)*
X60710000Y-58070000D03*
G04 #@! TO.P,U1,13,nWU/P0*
G04 #@! TO.N,unconnected-(U1-nWU{slash}P0-Pad13)*
X59440000Y-58070000D03*
G04 #@! TO.P,U1,14,P1*
G04 #@! TO.N,unconnected-(U1-P1-Pad14)*
X58170000Y-58070000D03*
G04 #@! TO.P,U1,15,GND*
G04 #@! TO.N,GND*
X56900000Y-58070000D03*
G04 #@! TO.P,U1,16,AAPI_RX/P2*
G04 #@! TO.N,Net-(J2-Pin_8)*
X55630000Y-58070000D03*
G04 #@! TO.P,U1,17,AAPI_TX/P3*
G04 #@! TO.N,Net-(J2-Pin_10)*
X54110000Y-58070000D03*
G04 #@! TO.P,U1,18,P4*
G04 #@! TO.N,unconnected-(U1-P4-Pad18)*
X54110000Y-59340000D03*
G04 #@! TO.P,U1,19,AAPI_CTS/P5*
G04 #@! TO.N,Net-(J2-Pin_11)*
X54110000Y-60610000D03*
G04 #@! TO.P,U1,20,P6*
G04 #@! TO.N,unconnected-(U1-P6-Pad20)*
X54110000Y-61880000D03*
G04 #@! TO.P,U1,21,P7*
G04 #@! TO.N,unconnected-(U1-P7-Pad21)*
X54110000Y-63150000D03*
G04 #@! TO.P,U1,22,RESERVED*
G04 #@! TO.N,unconnected-(U1-RESERVED-Pad22)*
X54110000Y-64420000D03*
G04 #@! TO.P,U1,23,nAPP*
G04 #@! TO.N,unconnected-(U1-nAPP-Pad23)*
X54110000Y-65690000D03*
G04 #@! TO.P,U1,24,RESERVED*
G04 #@! TO.N,unconnected-(U1-RESERVED-Pad24)*
X54110000Y-66960000D03*
G04 #@! TO.P,U1,25,VDD*
G04 #@! TO.N,+3V3*
X54110000Y-68230000D03*
G04 #@! TO.P,U1,26,GND*
G04 #@! TO.N,GND*
X54110000Y-69500000D03*
G04 #@! TO.P,U1,27,GND*
X58460000Y-72610000D03*
G04 #@! TO.P,U1,28,GND*
X61410000Y-72610000D03*
G04 #@! TO.P,U1,29*
G04 #@! TO.N,N/C*
X63500000Y-74210000D03*
G04 #@! TO.P,U1,30*
X54110000Y-74210000D03*
G04 #@! TD*
D11*
G04 #@! TO.P,J1,1,Pin_1*
G04 #@! TO.N,+3V3*
X67813750Y-61897500D03*
D12*
X67063750Y-62322510D03*
D11*
G04 #@! TO.P,J1,2,Pin_2*
G04 #@! TO.N,GND*
X67813750Y-63167500D03*
D12*
X67063750Y-63592510D03*
D11*
G04 #@! TO.P,J1,3,Pin_3*
G04 #@! TO.N,Net-(J1-Pin_3)*
X67813750Y-64437500D03*
D12*
X67063750Y-64862510D03*
D11*
G04 #@! TO.P,J1,4,Pin_4*
G04 #@! TO.N,Net-(J1-Pin_4)*
X67813750Y-66977500D03*
D12*
X67063750Y-67402510D03*
D11*
G04 #@! TO.P,J1,5,Pin_5*
G04 #@! TO.N,Net-(J1-Pin_5)*
X67813750Y-68247500D03*
D12*
X67063750Y-68672510D03*
D11*
G04 #@! TO.P,J1,6,Pin_6*
G04 #@! TO.N,unconnected-(J1-Pin_6-Pad6)_1*
X67813750Y-69517500D03*
D12*
G04 #@! TO.N,unconnected-(J1-Pin_6-Pad6)_2*
X67063750Y-69942510D03*
G04 #@! TD*
D13*
G04 #@! TO.P,C1,1*
G04 #@! TO.N,+3V3*
X52500000Y-68975000D03*
G04 #@! TO.P,C1,2*
G04 #@! TO.N,GND*
X52500000Y-70525000D03*
G04 #@! TD*
D14*
G04 #@! TO.P,R1,1*
G04 #@! TO.N,Net-(D1-K)*
X60575000Y-51000000D03*
G04 #@! TO.P,R1,2*
G04 #@! TO.N,GND*
X58925000Y-51000000D03*
G04 #@! TD*
D15*
G04 #@! TO.P,J2,1,Pin_1*
G04 #@! TO.N,+3V3*
X102500000Y-57400000D03*
D16*
G04 #@! TO.P,J2,2,Pin_2*
G04 #@! TO.N,unconnected-(J2-Pin_2-Pad2)*
X105040000Y-57400000D03*
G04 #@! TO.P,J2,3,Pin_3*
G04 #@! TO.N,unconnected-(J2-Pin_3-Pad3)*
X102500000Y-59940000D03*
G04 #@! TO.P,J2,4,Pin_4*
G04 #@! TO.N,unconnected-(J2-Pin_4-Pad4)*
X105040000Y-59940000D03*
G04 #@! TO.P,J2,5,Pin_5*
G04 #@! TO.N,unconnected-(J2-Pin_5-Pad5)*
X102500000Y-62480000D03*
G04 #@! TO.P,J2,6,Pin_6*
G04 #@! TO.N,GND*
X105040000Y-62480000D03*
G04 #@! TO.P,J2,7,Pin_7*
G04 #@! TO.N,unconnected-(J2-Pin_7-Pad7)*
X102500000Y-65020000D03*
G04 #@! TO.P,J2,8,Pin_8*
G04 #@! TO.N,Net-(J2-Pin_8)*
X105040000Y-65020000D03*
G04 #@! TO.P,J2,9,Pin_9*
G04 #@! TO.N,GND*
X102500000Y-67560000D03*
G04 #@! TO.P,J2,10,Pin_10*
G04 #@! TO.N,Net-(J2-Pin_10)*
X105040000Y-67560000D03*
G04 #@! TO.P,J2,11,Pin_11*
G04 #@! TO.N,Net-(J2-Pin_11)*
X102500000Y-70100000D03*
G04 #@! TO.P,J2,12,Pin_12*
G04 #@! TO.N,Net-(J2-Pin_12)*
X105040000Y-70100000D03*
G04 #@! TD*
D17*
G04 #@! TO.P,D1,1,K*
G04 #@! TO.N,Net-(D1-K)*
X62212500Y-51000000D03*
G04 #@! TO.P,D1,2,A*
G04 #@! TO.N,+3V3*
X63787500Y-51000000D03*
G04 #@! TD*
D18*
G04 #@! TO.P,R2,1*
G04 #@! TO.N,+3V3*
X65750000Y-71825000D03*
G04 #@! TO.P,R2,2*
G04 #@! TO.N,Net-(J2-Pin_12)*
X65750000Y-70175000D03*
G04 #@! TD*
D19*
G04 #@! TO.N,+3V3*
X67000000Y-52300000D03*
X64500000Y-54900000D03*
D20*
G04 #@! TO.N,GND*
X66800000Y-56000000D03*
X109250000Y-48750000D03*
X87250000Y-49700000D03*
X92700000Y-50250000D03*
X109500000Y-69750000D03*
X52500000Y-49000000D03*
X92700000Y-48750000D03*
X73000000Y-50250000D03*
X73000000Y-48750000D03*
X99900000Y-55300000D03*
X61700000Y-54300000D03*
X66250000Y-63150000D03*
X52500000Y-73250000D03*
X66000000Y-73250000D03*
G04 #@! TO.N,Net-(J2-Pin_10)*
X108750000Y-65750000D03*
X60200000Y-55700000D03*
G04 #@! TO.N,Net-(J2-Pin_12)*
X103750000Y-54400000D03*
X64875000Y-68875000D03*
G04 #@! TO.N,Net-(J2-Pin_8)*
X58400000Y-56300000D03*
X108000000Y-64000000D03*
G04 #@! TD*
D21*
G04 #@! TO.N,+3V3*
X53480000Y-68230000D02*
X53125000Y-67875000D01*
X54500000Y-55250000D02*
X56500000Y-55250000D01*
X54110000Y-68230000D02*
X53480000Y-68230000D01*
X99300000Y-52300000D02*
X102500000Y-55500000D01*
X52500000Y-67250000D02*
X52500000Y-57250000D01*
X67000000Y-52300000D02*
X63950000Y-52300000D01*
X66000000Y-60250000D02*
X67647500Y-61897500D01*
X102500000Y-55500000D02*
X102500000Y-57400000D01*
X57730000Y-68230000D02*
X54110000Y-68230000D01*
X64500000Y-55000000D02*
X66000000Y-56500000D01*
X56500000Y-55250000D02*
X59450000Y-52300000D01*
X64500000Y-54900000D02*
X64500000Y-55000000D01*
X63787500Y-52137500D02*
X63950000Y-52300000D01*
X60500000Y-71000000D02*
X57730000Y-68230000D01*
X53125000Y-67875000D02*
X52500000Y-67250000D01*
X64675000Y-71825000D02*
X63850000Y-71000000D01*
X65750000Y-71825000D02*
X64675000Y-71825000D01*
X63850000Y-71000000D02*
X60500000Y-71000000D01*
X63787500Y-51000000D02*
X63787500Y-52137500D01*
X67000000Y-52300000D02*
X99300000Y-52300000D01*
X59450000Y-52300000D02*
X67000000Y-52300000D01*
X66000000Y-60250000D02*
X66000000Y-56500000D01*
X52500000Y-68500000D02*
X53125000Y-67875000D01*
X52500000Y-57250000D02*
X54500000Y-55250000D01*
X52500000Y-68975000D02*
X52500000Y-68500000D01*
D22*
G04 #@! TO.N,GND*
X63500000Y-63150000D02*
X66250000Y-63150000D01*
G04 #@! TO.N,Net-(D1-K)*
X60575000Y-51000000D02*
X62212500Y-51000000D01*
G04 #@! TO.N,Net-(J1-Pin_5)*
X65603033Y-68247500D02*
X67813750Y-68247500D01*
X63500000Y-66960000D02*
X64315533Y-66960000D01*
X64315533Y-66960000D02*
X65603033Y-68247500D01*
G04 #@! TO.N,Net-(J1-Pin_4)*
X65477500Y-66977500D02*
X67813750Y-66977500D01*
X63500000Y-65690000D02*
X64190000Y-65690000D01*
X64190000Y-65690000D02*
X65477500Y-66977500D01*
G04 #@! TO.N,Net-(J1-Pin_3)*
X63500000Y-64420000D02*
X67796250Y-64420000D01*
G04 #@! TO.N,Net-(J2-Pin_10)*
X55680000Y-56500000D02*
X54110000Y-58070000D01*
X106940000Y-67560000D02*
X105040000Y-67560000D01*
X57800000Y-55700000D02*
X57000000Y-56500000D01*
X57000000Y-56500000D02*
X55680000Y-56500000D01*
X108750000Y-65750000D02*
X106940000Y-67560000D01*
X60200000Y-55700000D02*
X57800000Y-55700000D01*
G04 #@! TO.N,Net-(J2-Pin_11)*
X54763909Y-56000000D02*
X53263909Y-57500000D01*
X102500000Y-70100000D02*
X101000000Y-68600000D01*
X56750000Y-56000000D02*
X54763909Y-56000000D01*
X101000000Y-55000000D02*
X99000000Y-53000000D01*
X53263909Y-59763909D02*
X54110000Y-60610000D01*
X59750000Y-53000000D02*
X56750000Y-56000000D01*
X99000000Y-53000000D02*
X59750000Y-53000000D01*
X53263909Y-57500000D02*
X53263909Y-59763909D01*
X101000000Y-68600000D02*
X101000000Y-55000000D01*
G04 #@! TO.N,Net-(J2-Pin_12)*
X64230000Y-68230000D02*
X64875000Y-68875000D01*
X103750000Y-54400000D02*
X103750000Y-68810000D01*
X103750000Y-68810000D02*
X105040000Y-70100000D01*
X65750000Y-70175000D02*
X65750000Y-69750000D01*
X65750000Y-69750000D02*
X64875000Y-68875000D01*
X63500000Y-68230000D02*
X64230000Y-68230000D01*
G04 #@! TO.N,Net-(J2-Pin_8)*
X58400000Y-56300000D02*
X58200000Y-56300000D01*
X56153292Y-57000000D02*
X55630000Y-57523292D01*
X57500000Y-57000000D02*
X56153292Y-57000000D01*
X58200000Y-56300000D02*
X57500000Y-57000000D01*
X108000000Y-64000000D02*
X106980000Y-65020000D01*
X55630000Y-57523292D02*
X55630000Y-58070000D01*
X106980000Y-65020000D02*
X105040000Y-65020000D01*
G04 #@! TD*
G04 #@! TA.AperFunction,Conductor*
G04 #@! TO.N,GND*
G36*
X57434809Y-69000185D02*
G01*
X57455451Y-69016819D01*
X58750749Y-70312116D01*
X60021585Y-71582952D01*
X60045429Y-71598883D01*
X60058342Y-71607512D01*
X60058345Y-71607513D01*
X60062373Y-71610205D01*
X60144505Y-71665084D01*
X60201080Y-71688518D01*
X60281088Y-71721659D01*
X60397241Y-71744763D01*
X60416468Y-71748587D01*
X60426081Y-71750500D01*
X60426082Y-71750500D01*
X60426083Y-71750500D01*
X60573918Y-71750500D01*
X60852692Y-71750500D01*
X60919731Y-71770185D01*
X60940373Y-71786819D01*
X61410000Y-72256446D01*
X61410001Y-72256446D01*
X61879626Y-71786819D01*
X61940949Y-71753334D01*
X61967307Y-71750500D01*
X63487770Y-71750500D01*
X63554809Y-71770185D01*
X63575451Y-71786819D01*
X64092049Y-72303416D01*
X64196584Y-72407951D01*
X64196585Y-72407952D01*
X64319498Y-72490080D01*
X64319511Y-72490087D01*
X64456082Y-72546656D01*
X64456087Y-72546658D01*
X64456091Y-72546658D01*
X64456092Y-72546659D01*
X64601079Y-72575500D01*
X64601082Y-72575500D01*
X64997023Y-72575500D01*
X65061171Y-72593382D01*
X65185394Y-72668478D01*
X65347804Y-72719086D01*
X65418384Y-72725500D01*
X65418387Y-72725500D01*
X66081613Y-72725500D01*
X66081616Y-72725500D01*
X66152196Y-72719086D01*
X66314606Y-72668478D01*
X66460185Y-72580472D01*
X66580472Y-72460185D01*
X66668478Y-72314606D01*
X66719086Y-72152196D01*
X66725500Y-72081616D01*
X66725500Y-71568384D01*
X66719086Y-71497804D01*
X66668478Y-71335394D01*
X66580472Y-71189815D01*
X66580470Y-71189813D01*
X66580469Y-71189811D01*
X66478339Y-71087681D01*
X66444854Y-71026358D01*
X66449838Y-70956666D01*
X66478339Y-70912319D01*
X66580468Y-70810189D01*
X66580469Y-70810188D01*
X66580472Y-70810185D01*
X66668478Y-70664606D01*
X66704835Y-70547929D01*
X66743572Y-70489783D01*
X66807597Y-70461808D01*
X66876582Y-70472889D01*
X66886488Y-70478175D01*
X66913687Y-70494311D01*
X66950416Y-70509523D01*
X66950425Y-70509526D01*
X66950439Y-70509532D01*
X66980513Y-70520131D01*
X67001684Y-70527594D01*
X67001685Y-70527594D01*
X67001688Y-70527595D01*
X67143086Y-70547852D01*
X67206656Y-70576845D01*
X67244460Y-70635604D01*
X67249500Y-70670599D01*
X67249500Y-74375500D01*
X67229815Y-74442539D01*
X67177011Y-74488294D01*
X67125500Y-74499500D01*
X64511651Y-74499500D01*
X64444612Y-74479815D01*
X64398857Y-74427011D01*
X64388913Y-74357853D01*
X64390034Y-74351308D01*
X64400500Y-74298693D01*
X64400500Y-74121306D01*
X64400499Y-74121304D01*
X64365896Y-73947341D01*
X64365893Y-73947332D01*
X64298016Y-73783459D01*
X64298009Y-73783446D01*
X64199464Y-73635965D01*
X64199461Y-73635961D01*
X64074038Y-73510538D01*
X64074034Y-73510535D01*
X63926553Y-73411990D01*
X63926540Y-73411983D01*
X63762667Y-73344106D01*
X63762658Y-73344103D01*
X63588694Y-73309500D01*
X63588691Y-73309500D01*
X63411309Y-73309500D01*
X63411306Y-73309500D01*
X63237341Y-73344103D01*
X63237332Y-73344106D01*
X63073459Y-73411983D01*
X63073446Y-73411990D01*
X62925965Y-73510535D01*
X62925961Y-73510538D01*
X62800538Y-73635961D01*
X62800535Y-73635965D01*
X62701990Y-73783446D01*
X62701983Y-73783459D01*
X62634106Y-73947332D01*
X62634103Y-73947341D01*
X62599500Y-74121304D01*
X62599500Y-74121309D01*
X62599500Y-74298691D01*
X62599500Y-74298693D01*
X62599499Y-74298693D01*
X62609966Y-74351308D01*
X62603739Y-74420900D01*
X62560876Y-74476077D01*
X62494987Y-74499322D01*
X62488349Y-74499500D01*
X55121651Y-74499500D01*
X55054612Y-74479815D01*
X55008857Y-74427011D01*
X54998913Y-74357853D01*
X55000034Y-74351308D01*
X55010500Y-74298693D01*
X55010500Y-74121306D01*
X55010499Y-74121304D01*
X54975896Y-73947341D01*
X54975893Y-73947332D01*
X54908016Y-73783459D01*
X54908009Y-73783446D01*
X54809464Y-73635965D01*
X54809461Y-73635961D01*
X54684038Y-73510538D01*
X54684034Y-73510535D01*
X54604462Y-73457366D01*
X54536553Y-73411990D01*
X54536540Y-73411983D01*
X54508759Y-73400476D01*
X58023075Y-73400476D01*
X58023075Y-73400477D01*
X58033684Y-73407567D01*
X58033689Y-73407569D01*
X58197479Y-73475413D01*
X58197487Y-73475415D01*
X58371353Y-73509999D01*
X58371357Y-73510000D01*
X58548643Y-73510000D01*
X58548646Y-73509999D01*
X58722512Y-73475415D01*
X58722524Y-73475412D01*
X58886306Y-73407572D01*
X58896923Y-73400476D01*
X60973075Y-73400476D01*
X60973075Y-73400477D01*
X60983684Y-73407567D01*
X60983689Y-73407569D01*
X61147479Y-73475413D01*
X61147487Y-73475415D01*
X61321353Y-73509999D01*
X61321357Y-73510000D01*
X61498643Y-73510000D01*
X61498646Y-73509999D01*
X61672512Y-73475415D01*
X61672524Y-73475412D01*
X61836306Y-73407572D01*
X61846922Y-73400476D01*
X61846923Y-73400476D01*
X61410001Y-72963554D01*
X61410000Y-72963554D01*
X60973075Y-73400476D01*
X58896923Y-73400476D01*
X58460001Y-72963554D01*
X58460000Y-72963554D01*
X58023075Y-73400476D01*
X54508759Y-73400476D01*
X54372667Y-73344106D01*
X54372658Y-73344103D01*
X54198694Y-73309500D01*
X54198691Y-73309500D01*
X54021309Y-73309500D01*
X54021306Y-73309500D01*
X53847341Y-73344103D01*
X53847332Y-73344106D01*
X53683459Y-73411983D01*
X53683446Y-73411990D01*
X53535965Y-73510535D01*
X53535961Y-73510538D01*
X53410538Y-73635961D01*
X53410535Y-73635965D01*
X53311990Y-73783446D01*
X53311983Y-73783459D01*
X53244106Y-73947332D01*
X53244103Y-73947341D01*
X53209500Y-74121304D01*
X53209500Y-74121309D01*
X53209500Y-74298691D01*
X53209500Y-74298693D01*
X53209499Y-74298693D01*
X53219966Y-74351308D01*
X53213739Y-74420900D01*
X53170876Y-74476077D01*
X53104987Y-74499322D01*
X53098349Y-74499500D01*
X52124500Y-74499500D01*
X52057461Y-74479815D01*
X52011706Y-74427011D01*
X52000500Y-74375500D01*
X52000500Y-72521353D01*
X57560000Y-72521353D01*
X57560000Y-72698646D01*
X57594584Y-72872512D01*
X57594586Y-72872520D01*
X57662430Y-73036311D01*
X57669522Y-73046923D01*
X58106446Y-72610000D01*
X58106445Y-72609999D01*
X58813554Y-72609999D01*
X58813554Y-72610001D01*
X59250476Y-73046923D01*
X59250476Y-73046922D01*
X59257572Y-73036306D01*
X59325412Y-72872524D01*
X59325415Y-72872512D01*
X59359999Y-72698646D01*
X59360000Y-72698643D01*
X59360000Y-72521357D01*
X59359999Y-72521353D01*
X60510000Y-72521353D01*
X60510000Y-72698646D01*
X60544584Y-72872512D01*
X60544586Y-72872520D01*
X60612430Y-73036311D01*
X60619522Y-73046923D01*
X61056446Y-72610000D01*
X61056445Y-72609999D01*
X61763554Y-72609999D01*
X61763554Y-72610001D01*
X62200476Y-73046923D01*
X62200476Y-73046922D01*
X62207572Y-73036306D01*
X62275412Y-72872524D01*
X62275415Y-72872512D01*
X62309999Y-72698646D01*
X62310000Y-72698643D01*
X62310000Y-72521357D01*
X62309999Y-72521353D01*
X62275415Y-72347487D01*
X62275413Y-72347479D01*
X62207569Y-72183689D01*
X62207567Y-72183684D01*
X62200477Y-72173075D01*
X61763554Y-72609999D01*
X61056445Y-72609999D01*
X60619522Y-72173076D01*
X60619521Y-72173076D01*
X60612429Y-72183691D01*
X60544586Y-72347479D01*
X60544584Y-72347487D01*
X60510000Y-72521353D01*
X59359999Y-72521353D01*
X59325415Y-72347487D01*
X59325413Y-72347479D01*
X59257569Y-72183689D01*
X59257567Y-72183684D01*
X59250477Y-72173075D01*
X58813554Y-72609999D01*
X58106445Y-72609999D01*
X57669522Y-72173076D01*
X57669521Y-72173076D01*
X57662429Y-72183691D01*
X57594586Y-72347479D01*
X57594584Y-72347487D01*
X57560000Y-72521353D01*
X52000500Y-72521353D01*
X52000500Y-71819521D01*
X58023076Y-71819521D01*
X58023076Y-71819522D01*
X58460000Y-72256446D01*
X58460001Y-72256446D01*
X58896923Y-71819522D01*
X58886311Y-71812430D01*
X58722520Y-71744586D01*
X58722512Y-71744584D01*
X58548646Y-71710000D01*
X58371353Y-71710000D01*
X58197487Y-71744584D01*
X58197479Y-71744586D01*
X58033691Y-71812429D01*
X58023076Y-71819521D01*
X52000500Y-71819521D01*
X52000500Y-71591760D01*
X52020185Y-71524721D01*
X52072989Y-71478966D01*
X52137103Y-71468402D01*
X52201683Y-71474999D01*
X52750000Y-71474999D01*
X52798308Y-71474999D01*
X52798322Y-71474998D01*
X52897607Y-71464855D01*
X53058481Y-71411547D01*
X53058492Y-71411542D01*
X53202728Y-71322575D01*
X53202732Y-71322572D01*
X53322572Y-71202732D01*
X53322575Y-71202728D01*
X53411542Y-71058492D01*
X53411547Y-71058481D01*
X53464855Y-70897606D01*
X53474999Y-70798322D01*
X53475000Y-70798309D01*
X53475000Y-70775000D01*
X52750000Y-70775000D01*
X52750000Y-71474999D01*
X52201683Y-71474999D01*
X52249999Y-71474998D01*
X52250000Y-71474998D01*
X52250000Y-70649000D01*
X52269685Y-70581961D01*
X52322489Y-70536206D01*
X52374000Y-70525000D01*
X52500000Y-70525000D01*
X52500000Y-70399000D01*
X52519685Y-70331961D01*
X52572489Y-70286206D01*
X52624000Y-70275000D01*
X53476576Y-70275000D01*
X53534421Y-70243413D01*
X53604113Y-70248397D01*
X53629672Y-70261477D01*
X53683683Y-70297566D01*
X53683692Y-70297571D01*
X53847479Y-70365413D01*
X53847487Y-70365415D01*
X54021353Y-70399999D01*
X54021357Y-70400000D01*
X54198643Y-70400000D01*
X54198646Y-70399999D01*
X54372512Y-70365415D01*
X54372524Y-70365412D01*
X54536306Y-70297572D01*
X54546922Y-70290476D01*
X54546923Y-70290476D01*
X54020904Y-69764457D01*
X53987419Y-69703134D01*
X53992403Y-69633442D01*
X54020904Y-69589095D01*
X54199095Y-69410904D01*
X54260418Y-69377419D01*
X54330110Y-69382403D01*
X54374457Y-69410904D01*
X54900476Y-69936923D01*
X54900476Y-69936922D01*
X54907572Y-69926306D01*
X54975412Y-69762524D01*
X54975415Y-69762512D01*
X55009999Y-69588646D01*
X55010000Y-69588643D01*
X55010000Y-69411357D01*
X55009999Y-69411353D01*
X54975415Y-69237487D01*
X54975412Y-69237475D01*
X54939988Y-69151952D01*
X54932519Y-69082483D01*
X54963795Y-69020004D01*
X55023884Y-68984352D01*
X55054549Y-68980500D01*
X57367770Y-68980500D01*
X57434809Y-69000185D01*
G37*
G04 #@! TD.AperFunction*
G04 #@! TA.AperFunction,Conductor*
G36*
X98766942Y-53620185D02*
G01*
X98787584Y-53636819D01*
X100363181Y-55212416D01*
X100396666Y-55273739D01*
X100399500Y-55300097D01*
X100399500Y-68513330D01*
X100399499Y-68513348D01*
X100399499Y-68679054D01*
X100399498Y-68679054D01*
X100399499Y-68679057D01*
X100440423Y-68831785D01*
X100466670Y-68877246D01*
X100466670Y-68877247D01*
X100519475Y-68968709D01*
X100519481Y-68968717D01*
X100638349Y-69087585D01*
X100638355Y-69087590D01*
X101166241Y-69615476D01*
X101199726Y-69676799D01*
X101196492Y-69741473D01*
X101182753Y-69783757D01*
X101149500Y-69993713D01*
X101149500Y-70206287D01*
X101156170Y-70248397D01*
X101177761Y-70384722D01*
X101182754Y-70416243D01*
X101248443Y-70618412D01*
X101344949Y-70807816D01*
X101344955Y-70807825D01*
X101346723Y-70810710D01*
X101347061Y-70811962D01*
X101347161Y-70812157D01*
X101347120Y-70812177D01*
X101364967Y-70878156D01*
X101343850Y-70944759D01*
X101290079Y-70989372D01*
X101240995Y-70999500D01*
X99624500Y-70999500D01*
X99557461Y-70979815D01*
X99511706Y-70927011D01*
X99500500Y-70875500D01*
X99500500Y-55934110D01*
X99500500Y-55934108D01*
X99466392Y-55806814D01*
X99400500Y-55692686D01*
X99307314Y-55599500D01*
X99250250Y-55566554D01*
X99193187Y-55533608D01*
X99129539Y-55516554D01*
X99065892Y-55499500D01*
X67815892Y-55499500D01*
X67684108Y-55499500D01*
X67556812Y-55533608D01*
X67442686Y-55599500D01*
X67442683Y-55599502D01*
X67349502Y-55692683D01*
X67349500Y-55692686D01*
X67283608Y-55806812D01*
X67249500Y-55934108D01*
X67249500Y-60083480D01*
X67244172Y-60101623D01*
X67243835Y-60120533D01*
X67230335Y-60148747D01*
X67229815Y-60150519D01*
X67228602Y-60152370D01*
X67206456Y-60185514D01*
X67152844Y-60230320D01*
X67083519Y-60239027D01*
X67020492Y-60208873D01*
X67015673Y-60204305D01*
X66786819Y-59975451D01*
X66753334Y-59914128D01*
X66750500Y-59887770D01*
X66750500Y-56426079D01*
X66721659Y-56281092D01*
X66721658Y-56281091D01*
X66721658Y-56281087D01*
X66706689Y-56244949D01*
X66665087Y-56144511D01*
X66665080Y-56144498D01*
X66582952Y-56021585D01*
X66582951Y-56021584D01*
X66478416Y-55917049D01*
X65434007Y-54872639D01*
X65400522Y-54811316D01*
X65400071Y-54809149D01*
X65365896Y-54637341D01*
X65365893Y-54637332D01*
X65298016Y-54473459D01*
X65298009Y-54473446D01*
X65199464Y-54325965D01*
X65199461Y-54325961D01*
X65074038Y-54200538D01*
X65074034Y-54200535D01*
X64926553Y-54101990D01*
X64926540Y-54101983D01*
X64762667Y-54034106D01*
X64762658Y-54034103D01*
X64588694Y-53999500D01*
X64588691Y-53999500D01*
X64411309Y-53999500D01*
X64411306Y-53999500D01*
X64237341Y-54034103D01*
X64237332Y-54034106D01*
X64073459Y-54101983D01*
X64073446Y-54101990D01*
X63925965Y-54200535D01*
X63925961Y-54200538D01*
X63800538Y-54325961D01*
X63800535Y-54325965D01*
X63701990Y-54473446D01*
X63701983Y-54473459D01*
X63634106Y-54637332D01*
X63634103Y-54637341D01*
X63599500Y-54811304D01*
X63599500Y-54988695D01*
X63634103Y-55162658D01*
X63634106Y-55162667D01*
X63701983Y-55326540D01*
X63701990Y-55326553D01*
X63800535Y-55474034D01*
X63800538Y-55474038D01*
X63925961Y-55599461D01*
X63925965Y-55599464D01*
X64073449Y-55698011D01*
X64073451Y-55698011D01*
X64073453Y-55698013D01*
X64158539Y-55733256D01*
X64198768Y-55760136D01*
X65213181Y-56774548D01*
X65246666Y-56835871D01*
X65249500Y-56862229D01*
X65249500Y-60323918D01*
X65249500Y-60323920D01*
X65249499Y-60323920D01*
X65278340Y-60468907D01*
X65278343Y-60468917D01*
X65334912Y-60605488D01*
X65334918Y-60605499D01*
X65344635Y-60620040D01*
X65344637Y-60620045D01*
X65417046Y-60728414D01*
X65417052Y-60728421D01*
X66521931Y-61833299D01*
X66555416Y-61894622D01*
X66558250Y-61920980D01*
X66558250Y-62342406D01*
X66561156Y-62396524D01*
X66561156Y-62396525D01*
X66586655Y-62496356D01*
X66584173Y-62566182D01*
X66583452Y-62568286D01*
X66579207Y-62580322D01*
X66579206Y-62580325D01*
X66558750Y-62722601D01*
X66558750Y-63612405D01*
X66561653Y-63666471D01*
X66562575Y-63672494D01*
X66560946Y-63672743D01*
X66558750Y-63734633D01*
X66518915Y-63792034D01*
X66454370Y-63818787D01*
X66441087Y-63819500D01*
X64367064Y-63819500D01*
X64300025Y-63799815D01*
X64254270Y-63747011D01*
X64244326Y-63677853D01*
X64263962Y-63626609D01*
X64297566Y-63576316D01*
X64297571Y-63576307D01*
X64365413Y-63412520D01*
X64365415Y-63412512D01*
X64399999Y-63238646D01*
X64400000Y-63238643D01*
X64400000Y-63061357D01*
X64399999Y-63061353D01*
X64365415Y-62887487D01*
X64365413Y-62887479D01*
X64297569Y-62723689D01*
X64297567Y-62723684D01*
X64290622Y-62713292D01*
X64241154Y-62762396D01*
X63676777Y-63326777D01*
X63520373Y-63483181D01*
X63459050Y-63516666D01*
X63432692Y-63519500D01*
X63411306Y-63519500D01*
X63237341Y-63554103D01*
X63237332Y-63554106D01*
X63073459Y-63621983D01*
X63073446Y-63621990D01*
X62927844Y-63719280D01*
X62927842Y-63719281D01*
X62925965Y-63720536D01*
X62843026Y-63803474D01*
X62842618Y-63803880D01*
X62800539Y-63845960D01*
X62800535Y-63845965D01*
X62701990Y-63993446D01*
X62701983Y-63993459D01*
X62634106Y-64157332D01*
X62634103Y-64157341D01*
X62599500Y-64331304D01*
X62599500Y-64508695D01*
X62634103Y-64682658D01*
X62634106Y-64682667D01*
X62701983Y-64846540D01*
X62701990Y-64846553D01*
X62795239Y-64986109D01*
X62816117Y-65052787D01*
X62797633Y-65120167D01*
X62795239Y-65123891D01*
X62701990Y-65263446D01*
X62701983Y-65263459D01*
X62634106Y-65427332D01*
X62634103Y-65427341D01*
X62599500Y-65601304D01*
X62599500Y-65778695D01*
X62634103Y-65952658D01*
X62634106Y-65952667D01*
X62701983Y-66116540D01*
X62701990Y-66116553D01*
X62795239Y-66256109D01*
X62816117Y-66322787D01*
X62797633Y-66390167D01*
X62795239Y-66393891D01*
X62701990Y-66533446D01*
X62701983Y-66533459D01*
X62634106Y-66697332D01*
X62634103Y-66697341D01*
X62599500Y-66871304D01*
X62599500Y-67048695D01*
X62634103Y-67222658D01*
X62634106Y-67222667D01*
X62701983Y-67386540D01*
X62701990Y-67386553D01*
X62795239Y-67526109D01*
X62816117Y-67592787D01*
X62797633Y-67660167D01*
X62795239Y-67663891D01*
X62701990Y-67803446D01*
X62701983Y-67803459D01*
X62634106Y-67967332D01*
X62634103Y-67967341D01*
X62599500Y-68141304D01*
X62599500Y-68318695D01*
X62634103Y-68492658D01*
X62634106Y-68492667D01*
X62701983Y-68656540D01*
X62701990Y-68656553D01*
X62800535Y-68804034D01*
X62800538Y-68804038D01*
X62842616Y-68846116D01*
X62842751Y-68846250D01*
X62925965Y-68929464D01*
X62949140Y-68944949D01*
X63073446Y-69028009D01*
X63073459Y-69028016D01*
X63181097Y-69072600D01*
X63237334Y-69095894D01*
X63237336Y-69095894D01*
X63237341Y-69095896D01*
X63411304Y-69130499D01*
X63411307Y-69130500D01*
X63432692Y-69130500D01*
X63462132Y-69139144D01*
X63492119Y-69145668D01*
X63497134Y-69149422D01*
X63499731Y-69150185D01*
X63520373Y-69166819D01*
X63676777Y-69323223D01*
X64290476Y-69936923D01*
X64290476Y-69936922D01*
X64297572Y-69926306D01*
X64365412Y-69762524D01*
X64365413Y-69762520D01*
X64378597Y-69696240D01*
X64386284Y-69681543D01*
X64389186Y-69665216D01*
X64402143Y-69651225D01*
X64410982Y-69634328D01*
X64425392Y-69626121D01*
X64436662Y-69613954D01*
X64455127Y-69609189D01*
X64471697Y-69599754D01*
X64488821Y-69600495D01*
X64504316Y-69596498D01*
X64531332Y-69602337D01*
X64539066Y-69602673D01*
X64543413Y-69604107D01*
X64641503Y-69644737D01*
X64704609Y-69657289D01*
X64711815Y-69659667D01*
X64734566Y-69675375D01*
X64759066Y-69688191D01*
X64762913Y-69694947D01*
X64769311Y-69699365D01*
X64779957Y-69724879D01*
X64793640Y-69748907D01*
X64793357Y-69756989D01*
X64796218Y-69763846D01*
X64792356Y-69785577D01*
X64791350Y-69814312D01*
X64780914Y-69847804D01*
X64774500Y-69918384D01*
X64774500Y-70431616D01*
X64776423Y-70452778D01*
X64780913Y-70502192D01*
X64780913Y-70502194D01*
X64780914Y-70502196D01*
X64797533Y-70555529D01*
X64798683Y-70625386D01*
X64761882Y-70684779D01*
X64698813Y-70714847D01*
X64629501Y-70706044D01*
X64591466Y-70680097D01*
X64328421Y-70417052D01*
X64328414Y-70417046D01*
X64254729Y-70367812D01*
X64254729Y-70367813D01*
X64205491Y-70334913D01*
X64068917Y-70278343D01*
X64068907Y-70278340D01*
X63925891Y-70249892D01*
X63863980Y-70217507D01*
X63862402Y-70215956D01*
X63500000Y-69853554D01*
X63140373Y-70213181D01*
X63079050Y-70246666D01*
X63052692Y-70249500D01*
X60862229Y-70249500D01*
X60795190Y-70229815D01*
X60774548Y-70213181D01*
X59972721Y-69411353D01*
X62600000Y-69411353D01*
X62600000Y-69588646D01*
X62634584Y-69762512D01*
X62634586Y-69762520D01*
X62702430Y-69926311D01*
X62709522Y-69936923D01*
X63146446Y-69500000D01*
X62758832Y-69112386D01*
X62709376Y-69063293D01*
X62702429Y-69073691D01*
X62634586Y-69237479D01*
X62634584Y-69237487D01*
X62600000Y-69411353D01*
X59972721Y-69411353D01*
X58208421Y-67647052D01*
X58208414Y-67647046D01*
X58105078Y-67578000D01*
X58105076Y-67577999D01*
X58085503Y-67564920D01*
X58085488Y-67564912D01*
X57948917Y-67508343D01*
X57948907Y-67508340D01*
X57803920Y-67479500D01*
X57803918Y-67479500D01*
X55055089Y-67479500D01*
X54988050Y-67459815D01*
X54942295Y-67407011D01*
X54932351Y-67337853D01*
X54940528Y-67308048D01*
X54960461Y-67259925D01*
X54975894Y-67222666D01*
X54983387Y-67185000D01*
X55010499Y-67048695D01*
X55010500Y-67048693D01*
X55010500Y-66871306D01*
X55010499Y-66871304D01*
X54975896Y-66697341D01*
X54975893Y-66697332D01*
X54908016Y-66533459D01*
X54908014Y-66533455D01*
X54908013Y-66533453D01*
X54814759Y-66393890D01*
X54793882Y-66327214D01*
X54812366Y-66259834D01*
X54814760Y-66256109D01*
X54862686Y-66184383D01*
X54908013Y-66116547D01*
X54975894Y-65952666D01*
X54986412Y-65899792D01*
X55010499Y-65778695D01*
X55010500Y-65778693D01*
X55010500Y-65601306D01*
X55010499Y-65601304D01*
X54975896Y-65427341D01*
X54975893Y-65427332D01*
X54908016Y-65263459D01*
X54908014Y-65263455D01*
X54908013Y-65263453D01*
X54814759Y-65123890D01*
X54793882Y-65057214D01*
X54812366Y-64989834D01*
X54814760Y-64986109D01*
X54818668Y-64980261D01*
X54908013Y-64846547D01*
X54975894Y-64682666D01*
X55010500Y-64508691D01*
X55010500Y-64331309D01*
X55010500Y-64331306D01*
X55010499Y-64331304D01*
X54975896Y-64157341D01*
X54975893Y-64157332D01*
X54908016Y-63993459D01*
X54908014Y-63993455D01*
X54908013Y-63993453D01*
X54814759Y-63853890D01*
X54793882Y-63787214D01*
X54812366Y-63719834D01*
X54814760Y-63716109D01*
X54849068Y-63664764D01*
X54908013Y-63576547D01*
X54908113Y-63576307D01*
X54935534Y-63510104D01*
X54975894Y-63412666D01*
X54992979Y-63326777D01*
X55010499Y-63238695D01*
X55010500Y-63238693D01*
X55010500Y-63061353D01*
X62600000Y-63061353D01*
X62600000Y-63238646D01*
X62634584Y-63412512D01*
X62634586Y-63412520D01*
X62702430Y-63576311D01*
X62709376Y-63586704D01*
X62758692Y-63537750D01*
X63146445Y-63149999D01*
X62758832Y-62762386D01*
X62709376Y-62713293D01*
X62702429Y-62723691D01*
X62634586Y-62887479D01*
X62634584Y-62887487D01*
X62600000Y-63061353D01*
X55010500Y-63061353D01*
X55010500Y-63061306D01*
X55010499Y-63061304D01*
X54975896Y-62887341D01*
X54975893Y-62887332D01*
X54908016Y-62723459D01*
X54908014Y-62723455D01*
X54908013Y-62723453D01*
X54814759Y-62583890D01*
X54793882Y-62517214D01*
X54812366Y-62449834D01*
X54814760Y-62446109D01*
X54847892Y-62396524D01*
X54908013Y-62306547D01*
X54975894Y-62142666D01*
X54983387Y-62105000D01*
X55010499Y-61968695D01*
X55010500Y-61968693D01*
X55010500Y-61791306D01*
X55010499Y-61791304D01*
X54975896Y-61617341D01*
X54975893Y-61617332D01*
X54908016Y-61453459D01*
X54908014Y-61453455D01*
X54908013Y-61453453D01*
X54814759Y-61313890D01*
X54793882Y-61247214D01*
X54812366Y-61179834D01*
X54814760Y-61176109D01*
X54862686Y-61104383D01*
X54908013Y-61036547D01*
X54975894Y-60872666D01*
X54986412Y-60819792D01*
X55004588Y-60728414D01*
X55010500Y-60698691D01*
X55010500Y-60521309D01*
X55010500Y-60521306D01*
X55010499Y-60521304D01*
X62599500Y-60521304D01*
X62599500Y-60698695D01*
X62634103Y-60872658D01*
X62634106Y-60872667D01*
X62701983Y-61036540D01*
X62701990Y-61036553D01*
X62795239Y-61176109D01*
X62816117Y-61242787D01*
X62797633Y-61310167D01*
X62795239Y-61313891D01*
X62701990Y-61453446D01*
X62701983Y-61453459D01*
X62634106Y-61617332D01*
X62634103Y-61617341D01*
X62599500Y-61791304D01*
X62599500Y-61968695D01*
X62634103Y-62142658D01*
X62634106Y-62142667D01*
X62701983Y-62306540D01*
X62701990Y-62306553D01*
X62800535Y-62454034D01*
X62800538Y-62454038D01*
X62842616Y-62496116D01*
X62842751Y-62496250D01*
X62925965Y-62579464D01*
X62988741Y-62621410D01*
X63073446Y-62678009D01*
X63073459Y-62678016D01*
X63183714Y-62723684D01*
X63237334Y-62745894D01*
X63237336Y-62745894D01*
X63237341Y-62745896D01*
X63411304Y-62780499D01*
X63411307Y-62780500D01*
X63411309Y-62780500D01*
X63588693Y-62780500D01*
X63588694Y-62780499D01*
X63668012Y-62764722D01*
X63762658Y-62745896D01*
X63762661Y-62745894D01*
X63762666Y-62745894D01*
X63926547Y-62678013D01*
X64074035Y-62579464D01*
X64199464Y-62454035D01*
X64298013Y-62306547D01*
X64365894Y-62142666D01*
X64373387Y-62105000D01*
X64400499Y-61968695D01*
X64400500Y-61968693D01*
X64400500Y-61791306D01*
X64400499Y-61791304D01*
X64365896Y-61617341D01*
X64365893Y-61617332D01*
X64298016Y-61453459D01*
X64298014Y-61453455D01*
X64298013Y-61453453D01*
X64204759Y-61313890D01*
X64183882Y-61247214D01*
X64202366Y-61179834D01*
X64204760Y-61176109D01*
X64252686Y-61104383D01*
X64298013Y-61036547D01*
X64365894Y-60872666D01*
X64376412Y-60819792D01*
X64394588Y-60728414D01*
X64400500Y-60698691D01*
X64400500Y-60521309D01*
X64400500Y-60521306D01*
X64400499Y-60521304D01*
X64365896Y-60347341D01*
X64365893Y-60347332D01*
X64298016Y-60183459D01*
X64298009Y-60183446D01*
X64199464Y-60035965D01*
X64199461Y-60035961D01*
X64157380Y-59993880D01*
X64157244Y-59993745D01*
X64074035Y-59910536D01*
X64072148Y-59909275D01*
X64072147Y-59909274D01*
X63926553Y-59811990D01*
X63926540Y-59811983D01*
X63762667Y-59744106D01*
X63762658Y-59744103D01*
X63588694Y-59709500D01*
X63588691Y-59709500D01*
X63411309Y-59709500D01*
X63411306Y-59709500D01*
X63237341Y-59744103D01*
X63237332Y-59744106D01*
X63073459Y-59811983D01*
X63073446Y-59811990D01*
X62927844Y-59909279D01*
X62927839Y-59909283D01*
X62925965Y-59910536D01*
X62843027Y-59993473D01*
X62842618Y-59993880D01*
X62800539Y-60035960D01*
X62800535Y-60035965D01*
X62701990Y-60183446D01*
X62701983Y-60183459D01*
X62634106Y-60347332D01*
X62634103Y-60347341D01*
X62599500Y-60521304D01*
X55010499Y-60521304D01*
X54975896Y-60347341D01*
X54975893Y-60347332D01*
X54908016Y-60183459D01*
X54908014Y-60183455D01*
X54908013Y-60183453D01*
X54814759Y-60043890D01*
X54793882Y-59977214D01*
X54812366Y-59909834D01*
X54814760Y-59906109D01*
X54827014Y-59887770D01*
X54908013Y-59766547D01*
X54975894Y-59602666D01*
X54975923Y-59602524D01*
X55010499Y-59428695D01*
X55010500Y-59428693D01*
X55010500Y-59251306D01*
X55010499Y-59251304D01*
X54975896Y-59077341D01*
X54975894Y-59077336D01*
X54975894Y-59077334D01*
X54925357Y-58955327D01*
X54917889Y-58885860D01*
X54949164Y-58823381D01*
X55009253Y-58787729D01*
X55079078Y-58790223D01*
X55108810Y-58804775D01*
X55203446Y-58868009D01*
X55203459Y-58868016D01*
X55313156Y-58913453D01*
X55367334Y-58935894D01*
X55367336Y-58935894D01*
X55367341Y-58935896D01*
X55541304Y-58970499D01*
X55541307Y-58970500D01*
X55541309Y-58970500D01*
X55718693Y-58970500D01*
X55718694Y-58970499D01*
X55776682Y-58958964D01*
X55892658Y-58935896D01*
X55892661Y-58935894D01*
X55892666Y-58935894D01*
X56056547Y-58868013D01*
X56067608Y-58860622D01*
X56463292Y-58860622D01*
X56473684Y-58867567D01*
X56473689Y-58867569D01*
X56637479Y-58935413D01*
X56637487Y-58935415D01*
X56811353Y-58969999D01*
X56811357Y-58970000D01*
X56988643Y-58970000D01*
X56988646Y-58969999D01*
X57162512Y-58935415D01*
X57162524Y-58935412D01*
X57326306Y-58867572D01*
X57336705Y-58860622D01*
X57287606Y-58811159D01*
X56900001Y-58423554D01*
X56512261Y-58811290D01*
X56463292Y-58860622D01*
X56067608Y-58860622D01*
X56204035Y-58769464D01*
X56329464Y-58644035D01*
X56428013Y-58496547D01*
X56495894Y-58332666D01*
X56506412Y-58279792D01*
X56530499Y-58158695D01*
X56530500Y-58158693D01*
X56530500Y-58137308D01*
X56539144Y-58107867D01*
X56545668Y-58077881D01*
X56549422Y-58072865D01*
X56550185Y-58070269D01*
X56566819Y-58049627D01*
X56635542Y-57980904D01*
X56696865Y-57947419D01*
X56766557Y-57952403D01*
X56810904Y-57980904D01*
X56900000Y-58070000D01*
X56989096Y-57980904D01*
X57050419Y-57947419D01*
X57120111Y-57952403D01*
X57164458Y-57980904D01*
X57233181Y-58049627D01*
X57266666Y-58110950D01*
X57269500Y-58137308D01*
X57269500Y-58158695D01*
X57304103Y-58332658D01*
X57304106Y-58332667D01*
X57371983Y-58496540D01*
X57371990Y-58496553D01*
X57469243Y-58642101D01*
X57469245Y-58642103D01*
X57470536Y-58644035D01*
X57595965Y-58769464D01*
X57596028Y-58769506D01*
X57743446Y-58868009D01*
X57743459Y-58868016D01*
X57853156Y-58913453D01*
X57907334Y-58935894D01*
X57907336Y-58935894D01*
X57907341Y-58935896D01*
X58081304Y-58970499D01*
X58081307Y-58970500D01*
X58081309Y-58970500D01*
X58258693Y-58970500D01*
X58258694Y-58970499D01*
X58316682Y-58958964D01*
X58432658Y-58935896D01*
X58432661Y-58935894D01*
X58432666Y-58935894D01*
X58596547Y-58868013D01*
X58736109Y-58774759D01*
X58802786Y-58753882D01*
X58870166Y-58772366D01*
X58873890Y-58774759D01*
X58918811Y-58804775D01*
X59012788Y-58867569D01*
X59013453Y-58868013D01*
X59013455Y-58868014D01*
X59013459Y-58868016D01*
X59123156Y-58913453D01*
X59177334Y-58935894D01*
X59177336Y-58935894D01*
X59177341Y-58935896D01*
X59351304Y-58970499D01*
X59351307Y-58970500D01*
X59351309Y-58970500D01*
X59528693Y-58970500D01*
X59528694Y-58970499D01*
X59586682Y-58958964D01*
X59702658Y-58935896D01*
X59702661Y-58935894D01*
X59702666Y-58935894D01*
X59866547Y-58868013D01*
X60006109Y-58774759D01*
X60072786Y-58753882D01*
X60140166Y-58772366D01*
X60143890Y-58774759D01*
X60188811Y-58804775D01*
X60282788Y-58867569D01*
X60283453Y-58868013D01*
X60283455Y-58868014D01*
X60283459Y-58868016D01*
X60393156Y-58913453D01*
X60447334Y-58935894D01*
X60447336Y-58935894D01*
X60447341Y-58935896D01*
X60621304Y-58970499D01*
X60621307Y-58970500D01*
X60621309Y-58970500D01*
X60798693Y-58970500D01*
X60798694Y-58970499D01*
X60856682Y-58958964D01*
X60972658Y-58935896D01*
X60972661Y-58935894D01*
X60972666Y-58935894D01*
X61136547Y-58868013D01*
X61276109Y-58774759D01*
X61342786Y-58753882D01*
X61410166Y-58772366D01*
X61413890Y-58774759D01*
X61458811Y-58804775D01*
X61552788Y-58867569D01*
X61553453Y-58868013D01*
X61553455Y-58868014D01*
X61553459Y-58868016D01*
X61663156Y-58913453D01*
X61717334Y-58935894D01*
X61717336Y-58935894D01*
X61717341Y-58935896D01*
X61891304Y-58970499D01*
X61891307Y-58970500D01*
X61891309Y-58970500D01*
X62068693Y-58970500D01*
X62068694Y-58970499D01*
X62126682Y-58958964D01*
X62242658Y-58935896D01*
X62242661Y-58935894D01*
X62242666Y-58935894D01*
X62406547Y-58868013D01*
X62406552Y-58868009D01*
X62406555Y-58868008D01*
X62491634Y-58811159D01*
X62501935Y-58804275D01*
X62568612Y-58783397D01*
X62635993Y-58801881D01*
X62682683Y-58853859D01*
X62693860Y-58922829D01*
X62685389Y-58954829D01*
X62634585Y-59077484D01*
X62634584Y-59077487D01*
X62600000Y-59251353D01*
X62600000Y-59428646D01*
X62634584Y-59602512D01*
X62634586Y-59602520D01*
X62702430Y-59766311D01*
X62709376Y-59776704D01*
X62758827Y-59727616D01*
X63146445Y-59340000D01*
X63853554Y-59340000D01*
X64241160Y-59727607D01*
X64290622Y-59776705D01*
X64297572Y-59766306D01*
X64365412Y-59602524D01*
X64365415Y-59602512D01*
X64399999Y-59428646D01*
X64400000Y-59428643D01*
X64400000Y-59251357D01*
X64399999Y-59251353D01*
X64365415Y-59077487D01*
X64365413Y-59077479D01*
X64297569Y-58913689D01*
X64297567Y-58913684D01*
X64290622Y-58903292D01*
X64241345Y-58952207D01*
X63853554Y-59340000D01*
X63146445Y-59340000D01*
X63323223Y-59163223D01*
X63479627Y-59006819D01*
X63540950Y-58973334D01*
X63567308Y-58970500D01*
X63588693Y-58970500D01*
X63588694Y-58970499D01*
X63646682Y-58958964D01*
X63762658Y-58935896D01*
X63762661Y-58935894D01*
X63762666Y-58935894D01*
X63926547Y-58868013D01*
X64074035Y-58769464D01*
X64199464Y-58644035D01*
X64298013Y-58496547D01*
X64365894Y-58332666D01*
X64376412Y-58279792D01*
X64400499Y-58158695D01*
X64400500Y-58158693D01*
X64400500Y-57981306D01*
X64400499Y-57981304D01*
X64365896Y-57807341D01*
X64365893Y-57807332D01*
X64298016Y-57643459D01*
X64298009Y-57643446D01*
X64199464Y-57495965D01*
X64199461Y-57495961D01*
X64074038Y-57370538D01*
X64074034Y-57370535D01*
X63926553Y-57271990D01*
X63926540Y-57271983D01*
X63762667Y-57204106D01*
X63762658Y-57204103D01*
X63588694Y-57169500D01*
X63588691Y-57169500D01*
X63411309Y-57169500D01*
X63411306Y-57169500D01*
X63237341Y-57204103D01*
X63237332Y-57204106D01*
X63073459Y-57271983D01*
X63073446Y-57271990D01*
X62925965Y-57370535D01*
X62925961Y-57370538D01*
X62827681Y-57468819D01*
X62766358Y-57502304D01*
X62696666Y-57497320D01*
X62652319Y-57468819D01*
X62554038Y-57370538D01*
X62554034Y-57370535D01*
X62406553Y-57271990D01*
X62406540Y-57271983D01*
X62242667Y-57204106D01*
X62242658Y-57204103D01*
X62068694Y-57169500D01*
X62068691Y-57169500D01*
X61891309Y-57169500D01*
X61891306Y-57169500D01*
X61717341Y-57204103D01*
X61717332Y-57204106D01*
X61553459Y-57271983D01*
X61553446Y-57271990D01*
X61413891Y-57365239D01*
X61347213Y-57386117D01*
X61279833Y-57367633D01*
X61276109Y-57365239D01*
X61136553Y-57271990D01*
X61136540Y-57271983D01*
X60972667Y-57204106D01*
X60972658Y-57204103D01*
X60798694Y-57169500D01*
X60798691Y-57169500D01*
X60621309Y-57169500D01*
X60621306Y-57169500D01*
X60447341Y-57204103D01*
X60447332Y-57204106D01*
X60283459Y-57271983D01*
X60283446Y-57271990D01*
X60143891Y-57365239D01*
X60077213Y-57386117D01*
X60009833Y-57367633D01*
X60006109Y-57365239D01*
X59866553Y-57271990D01*
X59866540Y-57271983D01*
X59702667Y-57204106D01*
X59702658Y-57204103D01*
X59528694Y-57169500D01*
X59528691Y-57169500D01*
X59351309Y-57169500D01*
X59351306Y-57169500D01*
X59177341Y-57204103D01*
X59177332Y-57204106D01*
X59013459Y-57271983D01*
X59013446Y-57271990D01*
X58873891Y-57365239D01*
X58854813Y-57371212D01*
X58837805Y-57381719D01*
X58822151Y-57381439D01*
X58807213Y-57386117D01*
X58787933Y-57380828D01*
X58767947Y-57380471D01*
X58742833Y-57368456D01*
X58739833Y-57367633D01*
X58736109Y-57365239D01*
X58616723Y-57285467D01*
X58571918Y-57231854D01*
X58563211Y-57162529D01*
X58593366Y-57099502D01*
X58638156Y-57067807D01*
X58779179Y-57009394D01*
X58910289Y-56921789D01*
X59021789Y-56810289D01*
X59109394Y-56679179D01*
X59169737Y-56533497D01*
X59183744Y-56463080D01*
X59196231Y-56400308D01*
X59228616Y-56338397D01*
X59289332Y-56303823D01*
X59317848Y-56300500D01*
X59620234Y-56300500D01*
X59687273Y-56320185D01*
X59689125Y-56321398D01*
X59820814Y-56409390D01*
X59820827Y-56409397D01*
X59950431Y-56463080D01*
X59966503Y-56469737D01*
X60121153Y-56500499D01*
X60121156Y-56500500D01*
X60121158Y-56500500D01*
X60278844Y-56500500D01*
X60278845Y-56500499D01*
X60433497Y-56469737D01*
X60579179Y-56409394D01*
X60710289Y-56321789D01*
X60821789Y-56210289D01*
X60909394Y-56079179D01*
X60969737Y-55933497D01*
X61000500Y-55778842D01*
X61000500Y-55621158D01*
X61000500Y-55621155D01*
X61000499Y-55621153D01*
X60983085Y-55533608D01*
X60969737Y-55466503D01*
X60969735Y-55466498D01*
X60909397Y-55320827D01*
X60909390Y-55320814D01*
X60821789Y-55189711D01*
X60821786Y-55189707D01*
X60710292Y-55078213D01*
X60710288Y-55078210D01*
X60579185Y-54990609D01*
X60579172Y-54990602D01*
X60433501Y-54930264D01*
X60433489Y-54930261D01*
X60278845Y-54899500D01*
X60278842Y-54899500D01*
X60121158Y-54899500D01*
X60121155Y-54899500D01*
X59966510Y-54930261D01*
X59966498Y-54930264D01*
X59820827Y-54990602D01*
X59820814Y-54990609D01*
X59689125Y-55078602D01*
X59622447Y-55099480D01*
X59620234Y-55099500D01*
X58799097Y-55099500D01*
X58732058Y-55079815D01*
X58686303Y-55027011D01*
X58676359Y-54957853D01*
X58705384Y-54894297D01*
X58711416Y-54887819D01*
X59273271Y-54325965D01*
X59962417Y-53636819D01*
X60023740Y-53603334D01*
X60050098Y-53600500D01*
X98699903Y-53600500D01*
X98766942Y-53620185D01*
G37*
G04 #@! TD.AperFunction*
G04 #@! TA.AperFunction,Conductor*
G36*
X110442539Y-47520185D02*
G01*
X110488294Y-47572989D01*
X110499500Y-47624500D01*
X110499500Y-70875500D01*
X110479815Y-70942539D01*
X110427011Y-70988294D01*
X110375500Y-70999500D01*
X106299005Y-70999500D01*
X106231966Y-70979815D01*
X106186211Y-70927011D01*
X106176267Y-70857853D01*
X106193277Y-70810710D01*
X106195037Y-70807834D01*
X106195051Y-70807816D01*
X106291557Y-70618412D01*
X106357246Y-70416243D01*
X106390500Y-70206287D01*
X106390500Y-69993713D01*
X106357246Y-69783757D01*
X106291557Y-69581588D01*
X106195051Y-69392184D01*
X106195049Y-69392181D01*
X106195048Y-69392179D01*
X106070109Y-69220213D01*
X105919786Y-69069890D01*
X105747820Y-68944951D01*
X105747115Y-68944591D01*
X105739054Y-68940485D01*
X105688259Y-68892512D01*
X105671463Y-68824692D01*
X105693999Y-68758556D01*
X105739054Y-68719515D01*
X105747816Y-68715051D01*
X105828332Y-68656553D01*
X105919786Y-68590109D01*
X105919788Y-68590106D01*
X105919792Y-68590104D01*
X106070104Y-68439792D01*
X106070106Y-68439788D01*
X106070109Y-68439786D01*
X106136608Y-68348257D01*
X106195051Y-68267816D01*
X106195349Y-68267230D01*
X106215235Y-68228205D01*
X106263209Y-68177409D01*
X106325719Y-68160500D01*
X106853331Y-68160500D01*
X106853347Y-68160501D01*
X106860943Y-68160501D01*
X107019054Y-68160501D01*
X107019057Y-68160501D01*
X107171785Y-68119577D01*
X107226483Y-68087997D01*
X107226484Y-68087997D01*
X107308709Y-68040524D01*
X107308708Y-68040524D01*
X107308716Y-68040520D01*
X107420520Y-67928716D01*
X107420520Y-67928714D01*
X107430724Y-67918511D01*
X107430727Y-67918506D01*
X108764664Y-66584571D01*
X108825985Y-66551088D01*
X108828152Y-66550637D01*
X108828841Y-66550500D01*
X108828842Y-66550500D01*
X108983497Y-66519737D01*
X109129179Y-66459394D01*
X109260289Y-66371789D01*
X109371789Y-66260289D01*
X109459394Y-66129179D01*
X109519737Y-65983497D01*
X109550500Y-65828842D01*
X109550500Y-65671158D01*
X109550500Y-65671155D01*
X109550499Y-65671153D01*
X109542045Y-65628653D01*
X109519737Y-65516503D01*
X109499647Y-65468000D01*
X109459397Y-65370827D01*
X109459390Y-65370814D01*
X109371789Y-65239711D01*
X109371786Y-65239707D01*
X109260292Y-65128213D01*
X109260288Y-65128210D01*
X109129185Y-65040609D01*
X109129172Y-65040602D01*
X108983501Y-64980264D01*
X108983489Y-64980261D01*
X108828845Y-64949500D01*
X108828842Y-64949500D01*
X108671158Y-64949500D01*
X108671155Y-64949500D01*
X108516510Y-64980261D01*
X108516498Y-64980264D01*
X108370827Y-65040602D01*
X108370814Y-65040609D01*
X108239711Y-65128210D01*
X108239707Y-65128213D01*
X108128213Y-65239707D01*
X108128210Y-65239711D01*
X108040609Y-65370814D01*
X108040602Y-65370827D01*
X107980264Y-65516498D01*
X107980261Y-65516508D01*
X107949362Y-65671848D01*
X107916977Y-65733759D01*
X107915426Y-65735337D01*
X106727584Y-66923181D01*
X106666261Y-66956666D01*
X106639903Y-66959500D01*
X106325719Y-66959500D01*
X106258680Y-66939815D01*
X106215235Y-66891795D01*
X106195052Y-66852185D01*
X106195051Y-66852184D01*
X106070109Y-66680213D01*
X105919786Y-66529890D01*
X105747820Y-66404951D01*
X105747115Y-66404591D01*
X105739054Y-66400485D01*
X105688259Y-66352512D01*
X105671463Y-66284692D01*
X105693999Y-66218556D01*
X105739054Y-66179515D01*
X105747816Y-66175051D01*
X105810954Y-66129179D01*
X105919786Y-66050109D01*
X105919788Y-66050106D01*
X105919792Y-66050104D01*
X106070104Y-65899792D01*
X106070106Y-65899788D01*
X106070109Y-65899786D01*
X106152527Y-65786346D01*
X106195051Y-65727816D01*
X106195349Y-65727230D01*
X106215235Y-65688205D01*
X106263209Y-65637409D01*
X106325719Y-65620500D01*
X106893331Y-65620500D01*
X106893347Y-65620501D01*
X106900943Y-65620501D01*
X107059054Y-65620501D01*
X107059057Y-65620501D01*
X107211785Y-65579577D01*
X107261904Y-65550639D01*
X107348716Y-65500520D01*
X107460520Y-65388716D01*
X107460520Y-65388714D01*
X107470728Y-65378507D01*
X107470729Y-65378504D01*
X108014662Y-64834572D01*
X108075983Y-64801089D01*
X108078150Y-64800638D01*
X108136085Y-64789113D01*
X108233497Y-64769737D01*
X108379179Y-64709394D01*
X108510289Y-64621789D01*
X108621789Y-64510289D01*
X108709394Y-64379179D01*
X108769737Y-64233497D01*
X108800500Y-64078842D01*
X108800500Y-63921158D01*
X108800500Y-63921155D01*
X108800499Y-63921153D01*
X108787463Y-63855616D01*
X108769737Y-63766503D01*
X108761663Y-63747011D01*
X108709397Y-63620827D01*
X108709390Y-63620814D01*
X108621789Y-63489711D01*
X108621786Y-63489707D01*
X108510292Y-63378213D01*
X108510288Y-63378210D01*
X108379185Y-63290609D01*
X108379172Y-63290602D01*
X108233501Y-63230264D01*
X108233489Y-63230261D01*
X108078845Y-63199500D01*
X108078842Y-63199500D01*
X107921158Y-63199500D01*
X107921155Y-63199500D01*
X107766510Y-63230261D01*
X107766498Y-63230264D01*
X107620827Y-63290602D01*
X107620814Y-63290609D01*
X107489711Y-63378210D01*
X107489707Y-63378213D01*
X107378213Y-63489707D01*
X107378210Y-63489711D01*
X107290609Y-63620814D01*
X107290602Y-63620827D01*
X107230264Y-63766498D01*
X107230261Y-63766508D01*
X107199361Y-63921850D01*
X107166976Y-63983761D01*
X107165425Y-63985339D01*
X106767584Y-64383181D01*
X106706261Y-64416666D01*
X106679903Y-64419500D01*
X106325719Y-64419500D01*
X106258680Y-64399815D01*
X106215235Y-64351795D01*
X106195052Y-64312185D01*
X106195051Y-64312184D01*
X106070109Y-64140213D01*
X105919786Y-63989890D01*
X105747817Y-63864949D01*
X105738504Y-63860204D01*
X105687707Y-63812230D01*
X105670912Y-63744409D01*
X105693449Y-63678274D01*
X105738507Y-63639232D01*
X105747555Y-63634622D01*
X105801716Y-63595270D01*
X105801717Y-63595270D01*
X105061447Y-62855000D01*
X105089370Y-62855000D01*
X105184745Y-62829444D01*
X105270255Y-62780075D01*
X105340075Y-62710255D01*
X105389444Y-62624745D01*
X105415000Y-62529370D01*
X105415000Y-62501447D01*
X106155270Y-63241717D01*
X106155270Y-63241716D01*
X106194622Y-63187554D01*
X106291095Y-62998217D01*
X106356757Y-62796130D01*
X106356757Y-62796127D01*
X106390000Y-62586243D01*
X106390000Y-62373753D01*
X106356757Y-62163872D01*
X106356757Y-62163869D01*
X106291095Y-61961782D01*
X106194624Y-61772449D01*
X106155270Y-61718282D01*
X106155269Y-61718282D01*
X105415000Y-62458552D01*
X105415000Y-62430630D01*
X105389444Y-62335255D01*
X105340075Y-62249745D01*
X105270255Y-62179925D01*
X105184745Y-62130556D01*
X105089370Y-62105000D01*
X105061444Y-62105000D01*
X105801716Y-61364728D01*
X105747547Y-61325373D01*
X105747547Y-61325372D01*
X105738500Y-61320763D01*
X105687706Y-61272788D01*
X105670912Y-61204966D01*
X105693451Y-61138832D01*
X105738508Y-61099793D01*
X105747816Y-61095051D01*
X105828350Y-61036540D01*
X105919786Y-60970109D01*
X105919788Y-60970106D01*
X105919792Y-60970104D01*
X106070104Y-60819792D01*
X106070106Y-60819788D01*
X106070109Y-60819786D01*
X106195048Y-60647820D01*
X106195047Y-60647820D01*
X106195051Y-60647816D01*
X106291557Y-60458412D01*
X106357246Y-60256243D01*
X106390500Y-60046287D01*
X106390500Y-59833713D01*
X106357246Y-59623757D01*
X106291557Y-59421588D01*
X106195051Y-59232184D01*
X106195049Y-59232181D01*
X106195048Y-59232179D01*
X106070109Y-59060213D01*
X105919786Y-58909890D01*
X105747820Y-58784951D01*
X105744770Y-58783397D01*
X105739054Y-58780485D01*
X105688259Y-58732512D01*
X105671463Y-58664692D01*
X105693999Y-58598556D01*
X105739054Y-58559515D01*
X105747816Y-58555051D01*
X105828332Y-58496553D01*
X105919786Y-58430109D01*
X105919788Y-58430106D01*
X105919792Y-58430104D01*
X106070104Y-58279792D01*
X106070106Y-58279788D01*
X106070109Y-58279786D01*
X106195048Y-58107820D01*
X106195047Y-58107820D01*
X106195051Y-58107816D01*
X106291557Y-57918412D01*
X106357246Y-57716243D01*
X106390500Y-57506287D01*
X106390500Y-57293713D01*
X106357246Y-57083757D01*
X106291557Y-56881588D01*
X106195051Y-56692184D01*
X106195049Y-56692181D01*
X106195048Y-56692179D01*
X106070109Y-56520213D01*
X105919786Y-56369890D01*
X105747820Y-56244951D01*
X105558414Y-56148444D01*
X105558413Y-56148443D01*
X105558412Y-56148443D01*
X105356243Y-56082754D01*
X105356241Y-56082753D01*
X105356240Y-56082753D01*
X105194957Y-56057208D01*
X105146287Y-56049500D01*
X104933713Y-56049500D01*
X104885042Y-56057208D01*
X104723760Y-56082753D01*
X104723757Y-56082754D01*
X104521588Y-56148443D01*
X104521586Y-56148443D01*
X104516954Y-56149949D01*
X104516604Y-56148873D01*
X104452454Y-56155754D01*
X104389982Y-56124464D01*
X104354344Y-56064367D01*
X104350500Y-56033730D01*
X104350500Y-54979765D01*
X104370185Y-54912726D01*
X104371398Y-54910874D01*
X104382475Y-54894297D01*
X104459394Y-54779179D01*
X104519737Y-54633497D01*
X104550500Y-54478842D01*
X104550500Y-54321158D01*
X104550500Y-54321155D01*
X104550499Y-54321153D01*
X104545157Y-54294297D01*
X104519737Y-54166503D01*
X104493012Y-54101983D01*
X104459397Y-54020827D01*
X104459390Y-54020814D01*
X104371789Y-53889711D01*
X104371786Y-53889707D01*
X104260292Y-53778213D01*
X104260288Y-53778210D01*
X104129185Y-53690609D01*
X104129172Y-53690602D01*
X103983501Y-53630264D01*
X103983489Y-53630261D01*
X103828845Y-53599500D01*
X103828842Y-53599500D01*
X103671158Y-53599500D01*
X103671155Y-53599500D01*
X103516510Y-53630261D01*
X103516498Y-53630264D01*
X103370827Y-53690602D01*
X103370814Y-53690609D01*
X103239711Y-53778210D01*
X103239707Y-53778213D01*
X103128213Y-53889707D01*
X103128210Y-53889711D01*
X103040609Y-54020814D01*
X103040602Y-54020827D01*
X102980264Y-54166498D01*
X102980261Y-54166510D01*
X102949500Y-54321153D01*
X102949500Y-54478846D01*
X102971380Y-54588843D01*
X102965153Y-54658434D01*
X102922290Y-54713612D01*
X102856400Y-54736856D01*
X102788403Y-54720788D01*
X102762082Y-54700715D01*
X101354655Y-53293288D01*
X99778416Y-51717048D01*
X99689484Y-51657627D01*
X99655495Y-51634916D01*
X99655493Y-51634915D01*
X99655490Y-51634913D01*
X99518917Y-51578343D01*
X99518907Y-51578340D01*
X99373920Y-51549500D01*
X99373918Y-51549500D01*
X67535270Y-51549500D01*
X67468231Y-51529815D01*
X67466378Y-51528601D01*
X67426552Y-51501989D01*
X67426547Y-51501987D01*
X67262667Y-51434106D01*
X67262658Y-51434103D01*
X67088694Y-51399500D01*
X67088691Y-51399500D01*
X66911309Y-51399500D01*
X66911306Y-51399500D01*
X66737341Y-51434103D01*
X66737332Y-51434106D01*
X66573452Y-51501987D01*
X66573447Y-51501989D01*
X66533622Y-51528601D01*
X66466945Y-51549480D01*
X66464730Y-51549500D01*
X64837361Y-51549500D01*
X64770322Y-51529815D01*
X64724567Y-51477011D01*
X64714849Y-51409429D01*
X64714748Y-51409419D01*
X64714789Y-51409011D01*
X64714623Y-51407853D01*
X64715288Y-51404131D01*
X64715495Y-51402107D01*
X64725500Y-51304174D01*
X64725500Y-50695826D01*
X64715436Y-50597315D01*
X64662549Y-50437713D01*
X64662545Y-50437707D01*
X64662544Y-50437704D01*
X64574283Y-50294612D01*
X64574280Y-50294608D01*
X64455391Y-50175719D01*
X64455387Y-50175716D01*
X64312295Y-50087455D01*
X64312289Y-50087452D01*
X64312287Y-50087451D01*
X64152685Y-50034564D01*
X64152683Y-50034563D01*
X64054181Y-50024500D01*
X64054174Y-50024500D01*
X63520826Y-50024500D01*
X63520818Y-50024500D01*
X63422316Y-50034563D01*
X63422315Y-50034564D01*
X63343219Y-50060773D01*
X63262715Y-50087450D01*
X63262704Y-50087455D01*
X63119612Y-50175716D01*
X63119608Y-50175719D01*
X63087681Y-50207647D01*
X63026358Y-50241132D01*
X62956666Y-50236148D01*
X62912319Y-50207647D01*
X62880391Y-50175719D01*
X62880387Y-50175716D01*
X62737295Y-50087455D01*
X62737289Y-50087452D01*
X62737287Y-50087451D01*
X62577685Y-50034564D01*
X62577683Y-50034563D01*
X62479181Y-50024500D01*
X62479174Y-50024500D01*
X61945826Y-50024500D01*
X61945818Y-50024500D01*
X61847316Y-50034563D01*
X61847315Y-50034564D01*
X61768219Y-50060773D01*
X61687715Y-50087450D01*
X61687704Y-50087455D01*
X61544612Y-50175716D01*
X61544608Y-50175719D01*
X61468174Y-50252154D01*
X61406851Y-50285639D01*
X61337159Y-50280655D01*
X61292812Y-50252154D01*
X61210188Y-50169530D01*
X61064606Y-50081522D01*
X60913906Y-50034563D01*
X60902196Y-50030914D01*
X60902194Y-50030913D01*
X60902192Y-50030913D01*
X60852778Y-50026423D01*
X60831616Y-50024500D01*
X60318384Y-50024500D01*
X60299145Y-50026248D01*
X60247807Y-50030913D01*
X60085393Y-50081522D01*
X59939811Y-50169530D01*
X59939810Y-50169531D01*
X59837327Y-50272015D01*
X59776004Y-50305500D01*
X59706312Y-50300516D01*
X59661965Y-50272015D01*
X59559877Y-50169927D01*
X59414395Y-50081980D01*
X59414396Y-50081980D01*
X59252105Y-50031409D01*
X59252106Y-50031409D01*
X59181572Y-50025000D01*
X59175000Y-50025000D01*
X59175000Y-50876000D01*
X59155315Y-50943039D01*
X59102511Y-50988794D01*
X59051000Y-51000000D01*
X58925000Y-51000000D01*
X58925000Y-51126000D01*
X58905315Y-51193039D01*
X58852511Y-51238794D01*
X58801000Y-51250000D01*
X58025001Y-51250000D01*
X58025001Y-51331582D01*
X58031408Y-51402102D01*
X58031409Y-51402107D01*
X58081981Y-51564396D01*
X58169927Y-51709877D01*
X58290122Y-51830072D01*
X58435604Y-51918019D01*
X58435603Y-51918019D01*
X58495187Y-51936586D01*
X58553335Y-51975323D01*
X58581309Y-52039348D01*
X58570227Y-52108334D01*
X58545978Y-52142652D01*
X56225451Y-54463181D01*
X56164128Y-54496666D01*
X56137770Y-54499500D01*
X54762415Y-54499500D01*
X54695376Y-54479815D01*
X54649621Y-54427011D01*
X54639677Y-54357853D01*
X54668702Y-54294297D01*
X54714963Y-54260939D01*
X54842361Y-54208169D01*
X54842361Y-54208168D01*
X54842373Y-54208164D01*
X55058127Y-54083599D01*
X55255776Y-53931938D01*
X55431938Y-53755776D01*
X55583599Y-53558127D01*
X55708164Y-53342373D01*
X55803502Y-53112207D01*
X55867982Y-52871565D01*
X55900500Y-52624565D01*
X55900500Y-52375435D01*
X55867982Y-52128435D01*
X55803502Y-51887793D01*
X55732778Y-51717050D01*
X55708169Y-51657638D01*
X55708162Y-51657623D01*
X55583599Y-51441873D01*
X55431939Y-51244225D01*
X55431933Y-51244218D01*
X55255781Y-51068066D01*
X55255774Y-51068060D01*
X55058126Y-50916400D01*
X54842376Y-50791837D01*
X54842366Y-50791833D01*
X54814224Y-50780176D01*
X54814222Y-50780175D01*
X54612207Y-50696498D01*
X54507445Y-50668427D01*
X58025000Y-50668427D01*
X58025000Y-50750000D01*
X58675000Y-50750000D01*
X58675000Y-50025000D01*
X58674999Y-50024999D01*
X58668436Y-50025000D01*
X58668417Y-50025001D01*
X58597897Y-50031408D01*
X58597892Y-50031409D01*
X58435603Y-50081981D01*
X58290122Y-50169927D01*
X58169927Y-50290122D01*
X58081980Y-50435604D01*
X58031409Y-50597893D01*
X58025000Y-50668427D01*
X54507445Y-50668427D01*
X54371561Y-50632017D01*
X54124575Y-50599501D01*
X54124570Y-50599500D01*
X54124565Y-50599500D01*
X53875435Y-50599500D01*
X53875429Y-50599500D01*
X53875424Y-50599501D01*
X53628438Y-50632017D01*
X53387792Y-50696498D01*
X53157638Y-50791830D01*
X53157623Y-50791837D01*
X52941873Y-50916400D01*
X52744225Y-51068060D01*
X52744218Y-51068066D01*
X52568066Y-51244218D01*
X52568060Y-51244225D01*
X52416400Y-51441873D01*
X52291837Y-51657623D01*
X52291836Y-51657627D01*
X52239061Y-51785037D01*
X52195220Y-51839440D01*
X52128926Y-51861505D01*
X52061227Y-51844226D01*
X52013616Y-51793089D01*
X52000500Y-51737584D01*
X52000500Y-47624500D01*
X52020185Y-47557461D01*
X52072989Y-47511706D01*
X52124500Y-47500500D01*
X110375500Y-47500500D01*
X110442539Y-47520185D01*
G37*
G04 #@! TD.AperFunction*
G04 #@! TD*
M02*
