M48
; DRILL file {KiCad 9.0.4} date 2025-10-08T09:58:56+1300
; FORMAT={-:-/ absolute / metric / decimal}
; #@! TF.CreationDate,2025-10-08T09:58:56+13:00
; #@! TF.GenerationSoftware,Kicad,Pcbnew,9.0.4
; #@! TF.FileFunction,MixedPlating,1,2
FMAT,2
METRIC
; #@! TA.AperFunction,Plated,PTH,ViaDrill
T1C0.300
; #@! TA.AperFunction,Plated,PTH,ComponentDrill
T2C0.800
; #@! TA.AperFunction,Plated,PTH,ComponentDrill
T3C1.000
; #@! TA.AperFunction,NonPlated,NPTH,ComponentDrill
T4C1.000
; #@! TA.AperFunction,NonPlated,NPTH,ComponentDrill
T5C1.100
%
G90
G05
T1
X53.0Y-73.25
X53.5Y-49.0
X58.0Y-56.5
X59.5Y-56.0
X64.75Y-55.25
X64.875Y-68.875
X66.0Y-73.25
X66.25Y-63.15
X67.5Y-52.5
X74.25Y-48.75
X74.25Y-50.25
X87.25Y-49.7
X93.25Y-48.75
X93.25Y-50.25
X103.75Y-55.0
X108.0Y-64.0
X108.75Y-65.75
X109.25Y-48.75
X109.5Y-69.75
T2
X67.814Y-61.897
X67.814Y-63.167
X67.814Y-64.438
X67.814Y-66.977
X67.814Y-68.248
X67.814Y-69.517
T3
X102.5Y-57.4
X102.5Y-59.94
X102.5Y-62.48
X102.5Y-65.02
X102.5Y-67.56
X102.5Y-70.1
X105.04Y-57.4
X105.04Y-59.94
X105.04Y-62.48
X105.04Y-65.02
X105.04Y-67.56
X105.04Y-70.1
T4
X67.814Y-60.627
T5
X66.314Y-65.707
M30
