G04 #@! TF.GenerationSoftware,KiCad,Pcbnew,9.0.6*
G04 #@! TF.CreationDate,2026-01-30T18:58:32+13:00*
G04 #@! TF.ProjectId,Gateway_PCB_Argon_One_V5,47617465-7761-4795-9f50-43425f417267,rev?*
G04 #@! TF.SameCoordinates,Original*
G04 #@! TF.FileFunction,Copper,L1,Top*
G04 #@! TF.FilePolarity,Positive*
%FSLAX46Y46*%
G04 Gerber Fmt 4.6, Leading zero omitted, Abs format (unit mm)*
G04 Created by KiCad (PCBNEW 9.0.6) date 2026-01-30 18:58:32*
%MOMM*%
%LPD*%
G01*
G04 APERTURE LIST*
G04 Aperture macros list*
%AMRoundRect*
0 Rectangle with rounded corners*
0 $1 Rounding radius*
0 $2 $3 $4 $5 $6 $7 $8 $9 X,Y pos of 4 corners*
0 Add a 4 corners polygon primitive as box body*
4,1,4,$2,$3,$4,$5,$6,$7,$8,$9,$2,$3,0*
0 Add four circle primitives for the rounded corners*
1,1,$1+$1,$2,$3*
1,1,$1+$1,$4,$5*
1,1,$1+$1,$6,$7*
1,1,$1+$1,$8,$9*
0 Add four rect primitives between the rounded corners*
20,1,$1+$1,$2,$3,$4,$5,0*
20,1,$1+$1,$4,$5,$6,$7,0*
20,1,$1+$1,$6,$7,$8,$9,0*
20,1,$1+$1,$8,$9,$2,$3,0*%
%AMFreePoly0*
4,1,13,0.056640,-0.015230,0.084770,-0.043360,0.099990,-0.080110,0.099980,-0.100000,0.099990,-0.100010,0.099990,-0.750000,-0.950010,-0.750000,-0.950010,-0.080110,-0.934790,-0.043350,-0.906660,-0.015220,-0.869910,0.000000,0.019890,0.000000,0.056640,-0.015230,0.056640,-0.015230,$1*%
G04 Aperture macros list end*
G04 #@! TA.AperFunction,SMDPad,CuDef*
%ADD10C,0.800000*%
G04 #@! TD*
G04 #@! TA.AperFunction,SMDPad,CuDef*
%ADD11RoundRect,0.140000X-0.170000X0.140000X-0.170000X-0.140000X0.170000X-0.140000X0.170000X0.140000X0*%
G04 #@! TD*
G04 #@! TA.AperFunction,SMDPad,CuDef*
%ADD12RoundRect,0.225000X0.250000X-0.225000X0.250000X0.225000X-0.250000X0.225000X-0.250000X-0.225000X0*%
G04 #@! TD*
G04 #@! TA.AperFunction,SMDPad,CuDef*
%ADD13RoundRect,0.135000X0.185000X-0.135000X0.185000X0.135000X-0.185000X0.135000X-0.185000X-0.135000X0*%
G04 #@! TD*
G04 #@! TA.AperFunction,SMDPad,CuDef*
%ADD14RoundRect,0.135000X0.135000X0.185000X-0.135000X0.185000X-0.135000X-0.185000X0.135000X-0.185000X0*%
G04 #@! TD*
G04 #@! TA.AperFunction,SMDPad,CuDef*
%ADD15RoundRect,0.243750X-0.243750X-0.456250X0.243750X-0.456250X0.243750X0.456250X-0.243750X0.456250X0*%
G04 #@! TD*
G04 #@! TA.AperFunction,ComponentPad*
%ADD16R,1.700000X1.700000*%
G04 #@! TD*
G04 #@! TA.AperFunction,ComponentPad*
%ADD17C,1.700000*%
G04 #@! TD*
G04 #@! TA.AperFunction,ComponentPad*
%ADD18C,1.045000*%
G04 #@! TD*
G04 #@! TA.AperFunction,SMDPad,CuDef*
%ADD19FreePoly0,90.000000*%
G04 #@! TD*
G04 #@! TA.AperFunction,ViaPad*
%ADD20C,0.600000*%
G04 #@! TD*
G04 #@! TA.AperFunction,Conductor*
%ADD21C,0.500000*%
G04 #@! TD*
G04 #@! TA.AperFunction,Conductor*
%ADD22C,0.200000*%
G04 #@! TD*
G04 APERTURE END LIST*
D10*
G04 #@! TO.P,U1,1,GND*
G04 #@! TO.N,GND*
X63420000Y-84430000D03*
G04 #@! TO.P,U1,2,nRESET*
G04 #@! TO.N,Net-(J2-Pin_12)*
X63420000Y-83160000D03*
G04 #@! TO.P,U1,3,SAPI_RX*
G04 #@! TO.N,Net-(U1-SAPI_RX)*
X63420000Y-81890000D03*
G04 #@! TO.P,U1,4,SAPI_CTS*
G04 #@! TO.N,Net-(U1-SAPI_CTS)*
X63420000Y-80620000D03*
G04 #@! TO.P,U1,5,SAPI_TX*
G04 #@! TO.N,Net-(U1-SAPI_TX)*
X63420000Y-79350000D03*
G04 #@! TO.P,U1,6,GND*
G04 #@! TO.N,GND*
X63420000Y-78080000D03*
G04 #@! TO.P,U1,7,nWES*
G04 #@! TO.N,unconnected-(U1-nWES-Pad7)*
X63420000Y-76810000D03*
G04 #@! TO.P,U1,8,RESERVED*
G04 #@! TO.N,unconnected-(U1-RESERVED-Pad8)*
X63420000Y-75540000D03*
G04 #@! TO.P,U1,9,GND*
G04 #@! TO.N,GND*
X63420000Y-74270000D03*
G04 #@! TO.P,U1,10,RESERVED*
G04 #@! TO.N,unconnected-(U1-RESERVED-Pad10)*
X63420000Y-73000000D03*
G04 #@! TO.P,U1,11,RESERVED*
G04 #@! TO.N,unconnected-(U1-RESERVED-Pad11)*
X61900000Y-73000000D03*
G04 #@! TO.P,U1,12,RESERVED*
G04 #@! TO.N,unconnected-(U1-RESERVED-Pad12)*
X60630000Y-73000000D03*
G04 #@! TO.P,U1,13,nWU/P0*
G04 #@! TO.N,unconnected-(U1-nWU{slash}P0-Pad13)*
X59360000Y-73000000D03*
G04 #@! TO.P,U1,14,P1*
G04 #@! TO.N,unconnected-(U1-P1-Pad14)*
X58090000Y-73000000D03*
G04 #@! TO.P,U1,15,GND*
G04 #@! TO.N,GND*
X56820000Y-73000000D03*
G04 #@! TO.P,U1,16,AAPI_RX/P2*
G04 #@! TO.N,Net-(J2-Pin_24)*
X55550000Y-73000000D03*
G04 #@! TO.P,U1,17,AAPI_TX/P3*
G04 #@! TO.N,Net-(J2-Pin_10)*
X54030000Y-73000000D03*
G04 #@! TO.P,U1,18,P4*
G04 #@! TO.N,unconnected-(U1-P4-Pad18)*
X54030000Y-74270000D03*
G04 #@! TO.P,U1,19,AAPI_CTS/P5*
G04 #@! TO.N,Net-(J2-Pin_11)*
X54030000Y-75540000D03*
G04 #@! TO.P,U1,20,P6*
G04 #@! TO.N,unconnected-(U1-P6-Pad20)*
X54030000Y-76810000D03*
G04 #@! TO.P,U1,21,P7*
G04 #@! TO.N,unconnected-(U1-P7-Pad21)*
X54030000Y-78080000D03*
G04 #@! TO.P,U1,22,RESERVED*
G04 #@! TO.N,unconnected-(U1-RESERVED-Pad22)*
X54030000Y-79350000D03*
G04 #@! TO.P,U1,23,nAPP*
G04 #@! TO.N,unconnected-(U1-nAPP-Pad23)*
X54030000Y-80620000D03*
G04 #@! TO.P,U1,24,RESERVED*
G04 #@! TO.N,unconnected-(U1-RESERVED-Pad24)*
X54030000Y-81890000D03*
G04 #@! TO.P,U1,25,VDD*
G04 #@! TO.N,+3V3*
X54030000Y-83160000D03*
G04 #@! TO.P,U1,26,GND*
G04 #@! TO.N,GND*
X54030000Y-84430000D03*
G04 #@! TO.P,U1,27,GND*
X58380000Y-87540000D03*
G04 #@! TO.P,U1,28,GND*
X61330000Y-87540000D03*
G04 #@! TO.P,U1,29*
G04 #@! TO.N,N/C*
X63420000Y-89140000D03*
G04 #@! TO.P,U1,30*
X54030000Y-89140000D03*
G04 #@! TD*
D11*
G04 #@! TO.P,C1,1*
G04 #@! TO.N,+3V3*
X52420000Y-84200000D03*
G04 #@! TO.P,C1,2*
G04 #@! TO.N,GND*
X52420000Y-85160000D03*
G04 #@! TD*
D12*
G04 #@! TO.P,C2,1*
G04 #@! TO.N,+3V3*
X57770000Y-67690000D03*
G04 #@! TO.P,C2,2*
G04 #@! TO.N,GND*
X57770000Y-66140000D03*
G04 #@! TD*
D13*
G04 #@! TO.P,R1,1*
G04 #@! TO.N,+3V3*
X65540000Y-85870000D03*
G04 #@! TO.P,R1,2*
G04 #@! TO.N,Net-(J2-Pin_12)*
X65540000Y-84850000D03*
G04 #@! TD*
D14*
G04 #@! TO.P,R2,1*
G04 #@! TO.N,Net-(D1-K)*
X60180000Y-65930000D03*
G04 #@! TO.P,R2,2*
G04 #@! TO.N,GND*
X59160000Y-65930000D03*
G04 #@! TD*
D15*
G04 #@! TO.P,D1,1,K*
G04 #@! TO.N,Net-(D1-K)*
X61842500Y-65920000D03*
G04 #@! TO.P,D1,2,A*
G04 #@! TO.N,+3V3*
X63717500Y-65920000D03*
G04 #@! TD*
D16*
G04 #@! TO.P,J2,1,Pin_1*
G04 #@! TO.N,+3V3*
X102430000Y-72330000D03*
D17*
G04 #@! TO.P,J2,2,Pin_2*
G04 #@! TO.N,unconnected-(J2-Pin_2-Pad2)*
X104970000Y-72330000D03*
G04 #@! TO.P,J2,3,Pin_3*
G04 #@! TO.N,unconnected-(J2-Pin_3-Pad3)*
X102430000Y-74870000D03*
G04 #@! TO.P,J2,4,Pin_4*
G04 #@! TO.N,unconnected-(J2-Pin_4-Pad4)*
X104970000Y-74870000D03*
G04 #@! TO.P,J2,5,Pin_5*
G04 #@! TO.N,unconnected-(J2-Pin_5-Pad5)*
X102430000Y-77410000D03*
G04 #@! TO.P,J2,6,Pin_6*
G04 #@! TO.N,GND*
X104970000Y-77410000D03*
G04 #@! TO.P,J2,7,Pin_7*
G04 #@! TO.N,unconnected-(J2-Pin_7-Pad7)*
X102430000Y-79950000D03*
G04 #@! TO.P,J2,8,Pin_8*
G04 #@! TO.N,Net-(J2-Pin_24)*
X104970000Y-79950000D03*
G04 #@! TO.P,J2,9,Pin_9*
G04 #@! TO.N,GND*
X102430000Y-82490000D03*
G04 #@! TO.P,J2,10,Pin_10*
G04 #@! TO.N,Net-(J2-Pin_10)*
X104970000Y-82490000D03*
G04 #@! TO.P,J2,11,Pin_11*
G04 #@! TO.N,Net-(J2-Pin_11)*
X102430000Y-85030000D03*
G04 #@! TO.P,J2,12,Pin_12*
G04 #@! TO.N,Net-(J2-Pin_12)*
X104970000Y-85030000D03*
D16*
G04 #@! TO.P,J2,13,Pin_13*
G04 #@! TO.N,unconnected-(J2-Pin_13-Pad13)*
X102430000Y-87570000D03*
D17*
G04 #@! TO.P,J2,14,Pin_14*
G04 #@! TO.N,GND*
X104970000Y-87570000D03*
G04 #@! TO.P,J2,15,Pin_15*
G04 #@! TO.N,unconnected-(J2-Pin_15-Pad15)*
X102430000Y-90110000D03*
G04 #@! TO.P,J2,16,Pin_16*
G04 #@! TO.N,unconnected-(J2-Pin_16-Pad16)*
X104970000Y-90110000D03*
G04 #@! TO.P,J2,17,Pin_17*
G04 #@! TO.N,+3V3*
X102430000Y-92650000D03*
G04 #@! TO.P,J2,18,Pin_18*
G04 #@! TO.N,Net-(J2-Pin_12)*
X104970000Y-92650000D03*
G04 #@! TO.P,J2,19,Pin_19*
G04 #@! TO.N,Net-(J2-Pin_11)*
X102430000Y-95190000D03*
G04 #@! TO.P,J2,20,Pin_20*
G04 #@! TO.N,GND*
X104970000Y-95190000D03*
G04 #@! TO.P,J2,21,Pin_21*
G04 #@! TO.N,Net-(J2-Pin_10)*
X102430000Y-97730000D03*
G04 #@! TO.P,J2,22,Pin_22*
G04 #@! TO.N,unconnected-(J2-Pin_22-Pad22)*
X104970000Y-97730000D03*
G04 #@! TO.P,J2,23,Pin_23*
G04 #@! TO.N,unconnected-(J2-Pin_23-Pad23)*
X102430000Y-100270000D03*
G04 #@! TO.P,J2,24,Pin_24*
G04 #@! TO.N,Net-(J2-Pin_24)*
X104970000Y-100270000D03*
G04 #@! TD*
D18*
G04 #@! TO.P,J1,1*
G04 #@! TO.N,GND*
X67670000Y-82035010D03*
D19*
X66920000Y-81610000D03*
D18*
G04 #@! TO.P,J1,2*
G04 #@! TO.N,Net-(U1-SAPI_CTS)*
X67670000Y-80765010D03*
D19*
X66920000Y-80340000D03*
D18*
G04 #@! TO.P,J1,3*
G04 #@! TO.N,+3V3*
X67670000Y-79495010D03*
D19*
X66920000Y-79070000D03*
D18*
G04 #@! TO.P,J1,4*
G04 #@! TO.N,Net-(U1-SAPI_RX)*
X67670000Y-76955010D03*
D19*
X66920000Y-76530000D03*
D18*
G04 #@! TO.P,J1,5*
G04 #@! TO.N,Net-(U1-SAPI_TX)*
X67670000Y-75685010D03*
D19*
X66920000Y-75260000D03*
D18*
G04 #@! TO.P,J1,6*
G04 #@! TO.N,unconnected-(J1-Pad6)*
X67670000Y-74415010D03*
D19*
X66920000Y-73990000D03*
G04 #@! TD*
D20*
G04 #@! TO.N,+3V3*
X64680000Y-85870000D03*
G04 #@! TO.N,GND*
X66720000Y-70930000D03*
X106150000Y-102050000D03*
X56850000Y-74280000D03*
X105480000Y-67600000D03*
X87170000Y-64010000D03*
X55390000Y-81890000D03*
X92590000Y-65100000D03*
X61940000Y-78080000D03*
X55540000Y-84380000D03*
X52420000Y-63930000D03*
X59590000Y-67850000D03*
X92620000Y-63680000D03*
X72920000Y-65180000D03*
X61950000Y-84350000D03*
X72920000Y-63680000D03*
X103340000Y-68610000D03*
X97940000Y-69950000D03*
X52420000Y-88180000D03*
X99790000Y-102050000D03*
X92560000Y-69920000D03*
X65920000Y-88180000D03*
X72940000Y-69960000D03*
G04 #@! TO.N,Net-(J2-Pin_12)*
X64795000Y-83805000D03*
X69840000Y-68140000D03*
G04 #@! TO.N,Net-(U1-SAPI_RX)*
X65160000Y-81350000D03*
G04 #@! TO.N,Net-(J2-Pin_24)*
X63744669Y-70925331D03*
X105290000Y-69410000D03*
G04 #@! TD*
D21*
G04 #@! TO.N,+3V3*
X53400000Y-83160000D02*
X53045000Y-82805000D01*
X54420000Y-70180000D02*
X57690000Y-70180000D01*
X64680000Y-85870000D02*
X65200000Y-85870000D01*
X54030000Y-83160000D02*
X53400000Y-83160000D01*
X102420000Y-69010000D02*
X99900000Y-66490000D01*
X62240000Y-67490000D02*
X63710000Y-67490000D01*
X57650000Y-83160000D02*
X54030000Y-83160000D01*
X65200000Y-85870000D02*
X60360000Y-85870000D01*
X57770000Y-67690000D02*
X57770000Y-70100000D01*
X59550000Y-70180000D02*
X62240000Y-67490000D01*
X52420000Y-82180000D02*
X52420000Y-72180000D01*
X53045000Y-82805000D02*
X52420000Y-82180000D01*
X102420000Y-72330000D02*
X102420000Y-69010000D01*
X63710000Y-65932500D02*
X63710000Y-67490000D01*
X65230000Y-67490000D02*
X63710000Y-67490000D01*
X52420000Y-72180000D02*
X54420000Y-70180000D01*
X57770000Y-70100000D02*
X57690000Y-70180000D01*
X60360000Y-85870000D02*
X57650000Y-83160000D01*
X63707500Y-65930000D02*
X63710000Y-65932500D01*
X57690000Y-70180000D02*
X59550000Y-70180000D01*
X66230000Y-66490000D02*
X65230000Y-67490000D01*
X52420000Y-83430000D02*
X53045000Y-82805000D01*
X99900000Y-66490000D02*
X66230000Y-66490000D01*
X52420000Y-83905000D02*
X52420000Y-83430000D01*
X65540000Y-85870000D02*
X65200000Y-85870000D01*
D22*
G04 #@! TO.N,GND*
X103700000Y-76140000D02*
X103700000Y-68970000D01*
X103700000Y-81220000D02*
X103700000Y-78680000D01*
X66064990Y-82035010D02*
X67069000Y-82035010D01*
X102430000Y-82490000D02*
X103700000Y-81220000D01*
X104970000Y-77410000D02*
X103700000Y-76140000D01*
X103700000Y-78680000D02*
X104970000Y-77410000D01*
X103700000Y-68970000D02*
X103340000Y-68610000D01*
G04 #@! TO.N,Net-(D1-K)*
X60495000Y-65930000D02*
X62132500Y-65930000D01*
G04 #@! TO.N,Net-(J2-Pin_10)*
X98770000Y-68880000D02*
X63100000Y-68880000D01*
X106230000Y-98460000D02*
X106230000Y-83750000D01*
X100270000Y-96772081D02*
X100270000Y-70380000D01*
X105750000Y-98940000D02*
X106230000Y-98460000D01*
X102430000Y-97730000D02*
X103640000Y-98940000D01*
X103640000Y-98940000D02*
X105750000Y-98940000D01*
X55580000Y-71450000D02*
X54030000Y-73000000D01*
X106230000Y-83750000D02*
X104970000Y-82490000D01*
X101227919Y-97730000D02*
X100270000Y-96772081D01*
X63100000Y-68880000D02*
X60530000Y-71450000D01*
X60530000Y-71450000D02*
X55580000Y-71450000D01*
X100270000Y-70380000D02*
X98770000Y-68880000D01*
X102430000Y-97730000D02*
X101227919Y-97730000D01*
G04 #@! TO.N,Net-(J2-Pin_12)*
X100700000Y-69700000D02*
X99140000Y-68140000D01*
X103700000Y-95894314D02*
X103134314Y-96460000D01*
X64150000Y-83160000D02*
X64795000Y-83805000D01*
X103700000Y-91380000D02*
X103700000Y-86300000D01*
X104970000Y-92650000D02*
X103700000Y-93920000D01*
X65540000Y-84550000D02*
X64795000Y-83805000D01*
X65540000Y-84850000D02*
X65540000Y-84550000D01*
X104970000Y-85030000D02*
X105420000Y-85030000D01*
X105420000Y-85030000D02*
X105430000Y-85040000D01*
X103134314Y-96460000D02*
X101680000Y-96460000D01*
X104970000Y-92650000D02*
X103700000Y-91380000D01*
X103700000Y-86300000D02*
X104970000Y-85030000D01*
X99140000Y-68140000D02*
X69840000Y-68140000D01*
X100700000Y-95480000D02*
X100700000Y-69700000D01*
X101680000Y-96460000D02*
X100700000Y-95480000D01*
X63420000Y-83160000D02*
X64150000Y-83160000D01*
X103700000Y-93920000D02*
X103700000Y-95894314D01*
G04 #@! TO.N,Net-(U1-SAPI_RX)*
X64620000Y-81890000D02*
X65160000Y-81350000D01*
X63420000Y-81890000D02*
X64620000Y-81890000D01*
G04 #@! TO.N,Net-(U1-SAPI_CTS)*
X63420000Y-80620000D02*
X66169980Y-80620000D01*
X66314990Y-80765010D02*
X67069000Y-80765010D01*
X66169980Y-80620000D02*
X66314990Y-80765010D01*
G04 #@! TO.N,Net-(U1-SAPI_TX)*
X64700000Y-78070000D02*
X64700000Y-76820000D01*
X64700000Y-76820000D02*
X65834990Y-75685010D01*
X63420000Y-79350000D02*
X64700000Y-78070000D01*
X65834990Y-75685010D02*
X67069000Y-75685010D01*
G04 #@! TO.N,Net-(J2-Pin_24)*
X63744669Y-70925331D02*
X63730000Y-70940000D01*
X56620000Y-71930000D02*
X55550000Y-73000000D01*
X63730000Y-70940000D02*
X62290000Y-70940000D01*
X61300000Y-71930000D02*
X56620000Y-71930000D01*
X104960000Y-79950000D02*
X106410000Y-78500000D01*
X106410000Y-78500000D02*
X106410000Y-70530000D01*
X62290000Y-70940000D02*
X61300000Y-71930000D01*
X106410000Y-70530000D02*
X105290000Y-69410000D01*
G04 #@! TO.N,Net-(J2-Pin_11)*
X102430000Y-95190000D02*
X101160000Y-93920000D01*
X66220000Y-68240000D02*
X62600000Y-68240000D01*
X53183909Y-74693909D02*
X54030000Y-75540000D01*
X101160000Y-93920000D02*
X101160000Y-84970000D01*
X99480000Y-67380000D02*
X67080000Y-67380000D01*
X59910000Y-70930000D02*
X54950000Y-70930000D01*
X67080000Y-67380000D02*
X66220000Y-68240000D01*
X101160000Y-84970000D02*
X101160000Y-69060000D01*
X101220000Y-85030000D02*
X101160000Y-84970000D01*
X53183909Y-72696091D02*
X53183909Y-74693909D01*
X62600000Y-68240000D02*
X59910000Y-70930000D01*
X102430000Y-85030000D02*
X101220000Y-85030000D01*
X54950000Y-70930000D02*
X53183909Y-72696091D01*
X101160000Y-69060000D02*
X99480000Y-67380000D01*
G04 #@! TD*
G04 #@! TA.AperFunction,Conductor*
G04 #@! TO.N,GND*
G36*
X98536942Y-69500185D02*
G01*
X98557584Y-69516819D01*
X99372740Y-70331975D01*
X99406225Y-70393298D01*
X99402305Y-70448099D01*
X99453810Y-70443181D01*
X99515912Y-70475197D01*
X99518024Y-70477259D01*
X99633181Y-70592416D01*
X99666666Y-70653739D01*
X99669500Y-70680097D01*
X99669500Y-96685411D01*
X99669499Y-96685429D01*
X99669499Y-96851135D01*
X99669498Y-96851135D01*
X99669499Y-96851138D01*
X99710423Y-97003866D01*
X99719492Y-97019574D01*
X99719493Y-97019577D01*
X99719494Y-97019577D01*
X99789477Y-97140793D01*
X99789481Y-97140798D01*
X99908349Y-97259666D01*
X99908355Y-97259671D01*
X100743058Y-98094374D01*
X100743068Y-98094385D01*
X100747398Y-98098715D01*
X100747399Y-98098716D01*
X100859203Y-98210520D01*
X100946014Y-98260639D01*
X100946016Y-98260641D01*
X100984070Y-98282611D01*
X100996134Y-98289577D01*
X101148862Y-98330501D01*
X101148864Y-98330501D01*
X101156922Y-98331562D01*
X101156585Y-98334113D01*
X101211321Y-98350186D01*
X101254767Y-98398206D01*
X101274951Y-98437820D01*
X101399890Y-98609786D01*
X101550213Y-98760109D01*
X101722182Y-98885050D01*
X101730946Y-98889516D01*
X101781742Y-98937491D01*
X101798536Y-99005312D01*
X101775998Y-99071447D01*
X101730946Y-99110484D01*
X101722182Y-99114949D01*
X101550213Y-99239890D01*
X101399890Y-99390213D01*
X101274951Y-99562179D01*
X101178444Y-99751585D01*
X101112753Y-99953760D01*
X101079500Y-100163713D01*
X101079500Y-100376286D01*
X101112753Y-100586239D01*
X101178444Y-100788414D01*
X101274951Y-100977820D01*
X101399890Y-101149786D01*
X101550213Y-101300109D01*
X101722179Y-101425048D01*
X101722181Y-101425049D01*
X101722184Y-101425051D01*
X101911588Y-101521557D01*
X102113757Y-101587246D01*
X102323713Y-101620500D01*
X102323714Y-101620500D01*
X102536286Y-101620500D01*
X102536287Y-101620500D01*
X102746243Y-101587246D01*
X102948412Y-101521557D01*
X103137816Y-101425051D01*
X103159789Y-101409086D01*
X103309786Y-101300109D01*
X103309788Y-101300106D01*
X103309792Y-101300104D01*
X103460104Y-101149792D01*
X103460106Y-101149788D01*
X103460109Y-101149786D01*
X103585048Y-100977820D01*
X103585047Y-100977820D01*
X103585051Y-100977816D01*
X103589514Y-100969054D01*
X103637488Y-100918259D01*
X103705308Y-100901463D01*
X103771444Y-100923999D01*
X103810486Y-100969056D01*
X103814951Y-100977820D01*
X103939890Y-101149786D01*
X104090213Y-101300109D01*
X104262179Y-101425048D01*
X104262181Y-101425049D01*
X104262184Y-101425051D01*
X104451588Y-101521557D01*
X104653757Y-101587246D01*
X104863713Y-101620500D01*
X104863714Y-101620500D01*
X105076286Y-101620500D01*
X105076287Y-101620500D01*
X105286243Y-101587246D01*
X105488412Y-101521557D01*
X105677816Y-101425051D01*
X105699789Y-101409086D01*
X105849786Y-101300109D01*
X105849788Y-101300106D01*
X105849792Y-101300104D01*
X106000104Y-101149792D01*
X106000106Y-101149788D01*
X106000109Y-101149786D01*
X106125048Y-100977820D01*
X106125047Y-100977820D01*
X106125051Y-100977816D01*
X106221557Y-100788412D01*
X106287246Y-100586243D01*
X106320500Y-100376287D01*
X106320500Y-100163713D01*
X106287246Y-99953757D01*
X106221557Y-99751588D01*
X106125051Y-99562184D01*
X106125031Y-99562157D01*
X106125026Y-99562143D01*
X106122505Y-99558028D01*
X106123368Y-99557498D01*
X106113576Y-99530068D01*
X106101655Y-99498105D01*
X106101848Y-99497214D01*
X106101542Y-99496355D01*
X106109270Y-99463095D01*
X106116507Y-99429832D01*
X106117223Y-99428875D01*
X106117357Y-99428299D01*
X106137650Y-99401585D01*
X106230520Y-99308716D01*
X106230521Y-99308714D01*
X106387821Y-99151413D01*
X106449142Y-99117931D01*
X106518834Y-99122915D01*
X106574767Y-99164787D01*
X106599184Y-99230251D01*
X106599500Y-99239097D01*
X106599500Y-102305500D01*
X106579815Y-102372539D01*
X106527011Y-102418294D01*
X106475500Y-102429500D01*
X99544500Y-102429500D01*
X99477461Y-102409815D01*
X99431706Y-102357011D01*
X99420500Y-102305500D01*
X99420500Y-70864110D01*
X99420500Y-70864108D01*
X99386392Y-70736814D01*
X99322955Y-70626939D01*
X99306483Y-70559040D01*
X99314586Y-70535626D01*
X99293905Y-70543340D01*
X99225632Y-70528488D01*
X99223059Y-70527043D01*
X99113189Y-70463609D01*
X99113186Y-70463608D01*
X98985892Y-70429500D01*
X67735892Y-70429500D01*
X67604108Y-70429500D01*
X67476812Y-70463608D01*
X67362686Y-70529500D01*
X67362683Y-70529502D01*
X67269502Y-70622683D01*
X67269500Y-70622686D01*
X67203608Y-70736812D01*
X67169500Y-70864108D01*
X67169500Y-73260510D01*
X67166953Y-73269181D01*
X67168242Y-73278127D01*
X67157263Y-73302182D01*
X67149815Y-73327549D01*
X67142986Y-73333466D01*
X67139233Y-73341690D01*
X67116988Y-73355993D01*
X67097011Y-73373304D01*
X67086513Y-73375588D01*
X67080464Y-73379479D01*
X67045588Y-73384497D01*
X67045530Y-73384510D01*
X67020010Y-73384510D01*
X67019946Y-73384516D01*
X67016862Y-73384517D01*
X67016855Y-73384515D01*
X67016777Y-73384517D01*
X67000375Y-73384509D01*
X67000352Y-73384510D01*
X66953853Y-73386989D01*
X66946102Y-73387403D01*
X66946100Y-73387403D01*
X66946094Y-73387404D01*
X66806693Y-73422976D01*
X66806690Y-73422977D01*
X66769944Y-73438195D01*
X66721098Y-73461563D01*
X66605919Y-73547787D01*
X66605907Y-73547797D01*
X66577806Y-73575898D01*
X66541684Y-73616102D01*
X66479882Y-73720223D01*
X66468243Y-73739831D01*
X66465828Y-73745658D01*
X66453005Y-73776600D01*
X66434977Y-73827690D01*
X66434974Y-73827701D01*
X66420204Y-73930438D01*
X66414500Y-73970110D01*
X66414500Y-74859910D01*
X66417393Y-74913918D01*
X66421458Y-74929851D01*
X66418962Y-74999674D01*
X66379111Y-75057065D01*
X66314558Y-75083800D01*
X66301309Y-75084510D01*
X65914047Y-75084510D01*
X65755932Y-75084510D01*
X65603205Y-75125433D01*
X65603204Y-75125433D01*
X65603202Y-75125434D01*
X65603199Y-75125435D01*
X65553086Y-75154369D01*
X65553085Y-75154370D01*
X65509679Y-75179430D01*
X65466275Y-75204489D01*
X65466272Y-75204491D01*
X65354468Y-75316296D01*
X64352609Y-76318154D01*
X64334120Y-76328249D01*
X64318445Y-76342330D01*
X64304067Y-76344659D01*
X64291286Y-76351639D01*
X64270271Y-76350136D01*
X64249475Y-76353506D01*
X64236122Y-76347693D01*
X64221594Y-76346655D01*
X64204728Y-76334029D01*
X64185411Y-76325621D01*
X64168813Y-76307142D01*
X64165661Y-76304783D01*
X64161826Y-76299364D01*
X64124760Y-76243891D01*
X64103882Y-76177213D01*
X64122366Y-76109833D01*
X64124760Y-76106109D01*
X64175753Y-76029793D01*
X64218013Y-75966547D01*
X64285894Y-75802666D01*
X64289256Y-75785767D01*
X64320499Y-75628695D01*
X64320500Y-75628693D01*
X64320500Y-75451306D01*
X64320499Y-75451304D01*
X64285896Y-75277341D01*
X64285893Y-75277332D01*
X64218016Y-75113459D01*
X64218009Y-75113446D01*
X64119464Y-74965965D01*
X64119461Y-74965961D01*
X64077380Y-74923880D01*
X64077244Y-74923745D01*
X63994035Y-74840536D01*
X63992148Y-74839275D01*
X63992147Y-74839274D01*
X63846553Y-74741990D01*
X63846540Y-74741983D01*
X63682667Y-74674106D01*
X63682658Y-74674103D01*
X63508694Y-74639500D01*
X63508691Y-74639500D01*
X63331309Y-74639500D01*
X63331306Y-74639500D01*
X63157341Y-74674103D01*
X63157332Y-74674106D01*
X62993459Y-74741983D01*
X62993446Y-74741990D01*
X62847844Y-74839279D01*
X62847839Y-74839283D01*
X62845965Y-74840536D01*
X62763027Y-74923473D01*
X62762618Y-74923880D01*
X62720539Y-74965960D01*
X62720535Y-74965965D01*
X62621990Y-75113446D01*
X62621983Y-75113459D01*
X62554106Y-75277332D01*
X62554103Y-75277341D01*
X62519500Y-75451304D01*
X62519500Y-75628695D01*
X62554103Y-75802658D01*
X62554106Y-75802667D01*
X62621983Y-75966540D01*
X62621990Y-75966553D01*
X62715239Y-76106109D01*
X62736117Y-76172787D01*
X62717633Y-76240167D01*
X62715239Y-76243891D01*
X62621990Y-76383446D01*
X62621983Y-76383459D01*
X62554106Y-76547332D01*
X62554103Y-76547341D01*
X62519500Y-76721304D01*
X62519500Y-76898695D01*
X62554103Y-77072658D01*
X62554106Y-77072667D01*
X62621983Y-77236540D01*
X62621990Y-77236553D01*
X62720535Y-77384034D01*
X62720538Y-77384038D01*
X62762616Y-77426116D01*
X62762751Y-77426250D01*
X62845965Y-77509464D01*
X62911446Y-77553217D01*
X62993446Y-77608009D01*
X62993459Y-77608016D01*
X63103731Y-77653691D01*
X63157334Y-77675894D01*
X63157336Y-77675894D01*
X63157341Y-77675896D01*
X63331304Y-77710499D01*
X63331307Y-77710500D01*
X63352692Y-77710500D01*
X63382132Y-77719144D01*
X63412119Y-77725668D01*
X63417134Y-77729422D01*
X63419731Y-77730185D01*
X63440373Y-77746819D01*
X63509096Y-77815542D01*
X63542581Y-77876865D01*
X63537597Y-77946557D01*
X63509096Y-77990904D01*
X63420000Y-78080000D01*
X63509096Y-78169096D01*
X63513434Y-78177041D01*
X63520682Y-78182467D01*
X63529916Y-78207226D01*
X63542581Y-78230419D01*
X63541935Y-78239448D01*
X63545099Y-78247931D01*
X63539482Y-78273751D01*
X63537597Y-78300111D01*
X63531778Y-78309164D01*
X63530247Y-78316204D01*
X63509096Y-78344458D01*
X63440373Y-78413181D01*
X63379050Y-78446666D01*
X63352692Y-78449500D01*
X63331306Y-78449500D01*
X63157341Y-78484103D01*
X63157332Y-78484106D01*
X62993459Y-78551983D01*
X62993446Y-78551990D01*
X62847844Y-78649280D01*
X62847842Y-78649281D01*
X62845965Y-78650536D01*
X62763026Y-78733474D01*
X62762618Y-78733880D01*
X62720539Y-78775960D01*
X62720535Y-78775965D01*
X62621990Y-78923446D01*
X62621983Y-78923459D01*
X62554106Y-79087332D01*
X62554103Y-79087341D01*
X62519500Y-79261304D01*
X62519500Y-79438695D01*
X62554103Y-79612658D01*
X62554106Y-79612667D01*
X62621983Y-79776540D01*
X62621990Y-79776553D01*
X62715239Y-79916109D01*
X62736117Y-79982787D01*
X62717633Y-80050167D01*
X62715239Y-80053891D01*
X62621990Y-80193446D01*
X62621983Y-80193459D01*
X62554106Y-80357332D01*
X62554103Y-80357341D01*
X62519500Y-80531304D01*
X62519500Y-80708695D01*
X62554103Y-80882658D01*
X62554106Y-80882667D01*
X62621983Y-81046540D01*
X62621990Y-81046553D01*
X62715239Y-81186109D01*
X62736117Y-81252787D01*
X62717633Y-81320167D01*
X62715239Y-81323891D01*
X62621990Y-81463446D01*
X62621983Y-81463459D01*
X62554106Y-81627332D01*
X62554103Y-81627341D01*
X62519500Y-81801304D01*
X62519500Y-81978695D01*
X62554103Y-82152658D01*
X62554106Y-82152667D01*
X62621983Y-82316540D01*
X62621990Y-82316553D01*
X62715239Y-82456109D01*
X62736117Y-82522787D01*
X62717633Y-82590167D01*
X62715239Y-82593891D01*
X62621990Y-82733446D01*
X62621983Y-82733459D01*
X62554106Y-82897332D01*
X62554103Y-82897341D01*
X62519500Y-83071304D01*
X62519500Y-83248695D01*
X62554103Y-83422658D01*
X62554106Y-83422667D01*
X62621983Y-83586540D01*
X62621990Y-83586553D01*
X62720535Y-83734034D01*
X62720538Y-83734038D01*
X62762616Y-83776116D01*
X62762751Y-83776250D01*
X62845965Y-83859464D01*
X62869140Y-83874949D01*
X62993446Y-83958009D01*
X62993459Y-83958016D01*
X63103731Y-84003691D01*
X63157334Y-84025894D01*
X63157336Y-84025894D01*
X63157341Y-84025896D01*
X63331304Y-84060499D01*
X63331307Y-84060500D01*
X63352692Y-84060500D01*
X63419731Y-84080185D01*
X63440373Y-84096819D01*
X63509096Y-84165542D01*
X63542581Y-84226865D01*
X63537597Y-84296557D01*
X63509096Y-84340904D01*
X63330904Y-84519096D01*
X63269581Y-84552581D01*
X63199889Y-84547597D01*
X63155542Y-84519096D01*
X62678832Y-84042386D01*
X62629376Y-83993293D01*
X62622429Y-84003691D01*
X62554586Y-84167479D01*
X62554584Y-84167487D01*
X62520000Y-84341353D01*
X62520000Y-84518646D01*
X62554584Y-84692512D01*
X62554586Y-84692520D01*
X62622428Y-84856307D01*
X62622433Y-84856316D01*
X62669402Y-84926609D01*
X62690280Y-84993286D01*
X62671796Y-85060666D01*
X62619817Y-85107357D01*
X62566300Y-85119500D01*
X60722230Y-85119500D01*
X60655191Y-85099815D01*
X60634549Y-85083181D01*
X58128421Y-82577052D01*
X58128414Y-82577046D01*
X58054729Y-82527812D01*
X58054729Y-82527813D01*
X58005491Y-82494913D01*
X57868917Y-82438343D01*
X57868907Y-82438340D01*
X57723920Y-82409500D01*
X57723918Y-82409500D01*
X54975089Y-82409500D01*
X54908050Y-82389815D01*
X54862295Y-82337011D01*
X54852351Y-82267853D01*
X54860528Y-82238048D01*
X54860563Y-82237962D01*
X54895894Y-82152666D01*
X54902445Y-82119735D01*
X54918964Y-82036682D01*
X54930500Y-81978691D01*
X54930500Y-81801309D01*
X54930500Y-81801306D01*
X54930499Y-81801304D01*
X54895896Y-81627341D01*
X54895893Y-81627332D01*
X54828016Y-81463459D01*
X54828014Y-81463455D01*
X54828013Y-81463453D01*
X54734759Y-81323890D01*
X54713882Y-81257214D01*
X54732366Y-81189834D01*
X54734760Y-81186109D01*
X54775877Y-81124573D01*
X54828013Y-81046547D01*
X54895894Y-80882666D01*
X54899256Y-80865767D01*
X54930499Y-80708695D01*
X54930500Y-80708693D01*
X54930500Y-80531306D01*
X54930499Y-80531304D01*
X54895896Y-80357341D01*
X54895893Y-80357332D01*
X54828016Y-80193459D01*
X54828014Y-80193455D01*
X54828013Y-80193453D01*
X54734759Y-80053890D01*
X54713882Y-79987214D01*
X54732366Y-79919834D01*
X54734760Y-79916109D01*
X54760322Y-79877853D01*
X54828013Y-79776547D01*
X54895894Y-79612666D01*
X54899256Y-79595767D01*
X54930499Y-79438695D01*
X54930500Y-79438693D01*
X54930500Y-79261306D01*
X54930499Y-79261304D01*
X54895896Y-79087341D01*
X54895893Y-79087332D01*
X54828016Y-78923459D01*
X54828014Y-78923455D01*
X54828013Y-78923453D01*
X54734759Y-78783890D01*
X54713882Y-78717214D01*
X54732366Y-78649834D01*
X54734760Y-78646109D01*
X54775877Y-78584573D01*
X54828013Y-78506547D01*
X54895894Y-78342666D01*
X54906412Y-78289792D01*
X54930499Y-78168695D01*
X54930500Y-78168693D01*
X54930500Y-77991353D01*
X62520000Y-77991353D01*
X62520000Y-78168646D01*
X62554584Y-78342512D01*
X62554586Y-78342520D01*
X62622430Y-78506311D01*
X62629376Y-78516704D01*
X62678692Y-78467750D01*
X63066445Y-78079999D01*
X62678832Y-77692386D01*
X62629376Y-77643293D01*
X62622429Y-77653691D01*
X62554586Y-77817479D01*
X62554584Y-77817487D01*
X62520000Y-77991353D01*
X54930500Y-77991353D01*
X54930500Y-77991306D01*
X54930499Y-77991304D01*
X54895896Y-77817341D01*
X54895893Y-77817332D01*
X54828016Y-77653459D01*
X54828014Y-77653455D01*
X54828013Y-77653453D01*
X54734759Y-77513890D01*
X54713882Y-77447214D01*
X54732366Y-77379834D01*
X54734760Y-77376109D01*
X54774548Y-77316562D01*
X54828013Y-77236547D01*
X54895894Y-77072666D01*
X54899256Y-77055767D01*
X54918964Y-76956682D01*
X54930500Y-76898691D01*
X54930500Y-76721309D01*
X54930500Y-76721306D01*
X54930499Y-76721304D01*
X54895896Y-76547341D01*
X54895893Y-76547332D01*
X54828016Y-76383459D01*
X54828014Y-76383455D01*
X54828013Y-76383453D01*
X54734759Y-76243890D01*
X54713882Y-76177214D01*
X54732366Y-76109834D01*
X54734760Y-76106109D01*
X54785753Y-76029793D01*
X54828013Y-75966547D01*
X54895894Y-75802666D01*
X54899256Y-75785767D01*
X54930499Y-75628695D01*
X54930500Y-75628693D01*
X54930500Y-75451306D01*
X54930499Y-75451304D01*
X54895896Y-75277341D01*
X54895893Y-75277332D01*
X54828016Y-75113459D01*
X54828014Y-75113455D01*
X54828013Y-75113453D01*
X54734759Y-74973890D01*
X54713882Y-74907214D01*
X54732366Y-74839834D01*
X54734760Y-74836109D01*
X54828013Y-74696547D01*
X54895894Y-74532666D01*
X54895923Y-74532524D01*
X54930499Y-74358695D01*
X54930500Y-74358693D01*
X54930500Y-74181306D01*
X54930499Y-74181304D01*
X54895896Y-74007341D01*
X54895894Y-74007336D01*
X54895894Y-74007334D01*
X54845357Y-73885327D01*
X54837889Y-73815860D01*
X54869164Y-73753381D01*
X54929253Y-73717729D01*
X54999078Y-73720223D01*
X55028810Y-73734775D01*
X55123446Y-73798009D01*
X55123459Y-73798016D01*
X55233156Y-73843453D01*
X55287334Y-73865894D01*
X55287336Y-73865894D01*
X55287341Y-73865896D01*
X55461304Y-73900499D01*
X55461307Y-73900500D01*
X55461309Y-73900500D01*
X55638693Y-73900500D01*
X55638694Y-73900499D01*
X55696682Y-73888964D01*
X55812658Y-73865896D01*
X55812661Y-73865894D01*
X55812666Y-73865894D01*
X55976547Y-73798013D01*
X55987608Y-73790622D01*
X56383292Y-73790622D01*
X56393684Y-73797567D01*
X56393689Y-73797569D01*
X56557479Y-73865413D01*
X56557487Y-73865415D01*
X56731353Y-73899999D01*
X56731357Y-73900000D01*
X56908643Y-73900000D01*
X56908646Y-73899999D01*
X57082512Y-73865415D01*
X57082524Y-73865412D01*
X57246306Y-73797572D01*
X57256705Y-73790622D01*
X57207606Y-73741159D01*
X56820001Y-73353554D01*
X56432261Y-73741290D01*
X56383292Y-73790622D01*
X55987608Y-73790622D01*
X56124035Y-73699464D01*
X56249464Y-73574035D01*
X56348013Y-73426547D01*
X56415894Y-73262666D01*
X56421401Y-73234984D01*
X56450499Y-73088695D01*
X56450500Y-73088693D01*
X56450500Y-73067308D01*
X56459144Y-73037867D01*
X56465668Y-73007881D01*
X56469422Y-73002865D01*
X56470185Y-73000269D01*
X56486819Y-72979627D01*
X56555542Y-72910904D01*
X56616865Y-72877419D01*
X56686557Y-72882403D01*
X56730904Y-72910904D01*
X56820000Y-73000000D01*
X56909096Y-72910904D01*
X56970419Y-72877419D01*
X57040111Y-72882403D01*
X57084458Y-72910904D01*
X57153181Y-72979627D01*
X57186666Y-73040950D01*
X57189500Y-73067308D01*
X57189500Y-73088695D01*
X57224103Y-73262658D01*
X57224106Y-73262667D01*
X57291983Y-73426540D01*
X57291990Y-73426553D01*
X57389243Y-73572101D01*
X57389245Y-73572103D01*
X57390536Y-73574035D01*
X57515965Y-73699464D01*
X57516028Y-73699506D01*
X57663446Y-73798009D01*
X57663459Y-73798016D01*
X57773156Y-73843453D01*
X57827334Y-73865894D01*
X57827336Y-73865894D01*
X57827341Y-73865896D01*
X58001304Y-73900499D01*
X58001307Y-73900500D01*
X58001309Y-73900500D01*
X58178693Y-73900500D01*
X58178694Y-73900499D01*
X58236682Y-73888964D01*
X58352658Y-73865896D01*
X58352661Y-73865894D01*
X58352666Y-73865894D01*
X58516547Y-73798013D01*
X58656109Y-73704759D01*
X58722786Y-73683882D01*
X58790166Y-73702366D01*
X58793890Y-73704759D01*
X58838811Y-73734775D01*
X58932788Y-73797569D01*
X58933453Y-73798013D01*
X58933455Y-73798014D01*
X58933459Y-73798016D01*
X59043156Y-73843453D01*
X59097334Y-73865894D01*
X59097336Y-73865894D01*
X59097341Y-73865896D01*
X59271304Y-73900499D01*
X59271307Y-73900500D01*
X59271309Y-73900500D01*
X59448693Y-73900500D01*
X59448694Y-73900499D01*
X59506682Y-73888964D01*
X59622658Y-73865896D01*
X59622661Y-73865894D01*
X59622666Y-73865894D01*
X59786547Y-73798013D01*
X59926109Y-73704759D01*
X59992786Y-73683882D01*
X60060166Y-73702366D01*
X60063890Y-73704759D01*
X60108811Y-73734775D01*
X60202788Y-73797569D01*
X60203453Y-73798013D01*
X60203455Y-73798014D01*
X60203459Y-73798016D01*
X60313156Y-73843453D01*
X60367334Y-73865894D01*
X60367336Y-73865894D01*
X60367341Y-73865896D01*
X60541304Y-73900499D01*
X60541307Y-73900500D01*
X60541309Y-73900500D01*
X60718693Y-73900500D01*
X60718694Y-73900499D01*
X60776682Y-73888964D01*
X60892658Y-73865896D01*
X60892661Y-73865894D01*
X60892666Y-73865894D01*
X61056547Y-73798013D01*
X61196109Y-73704759D01*
X61262786Y-73683882D01*
X61330166Y-73702366D01*
X61333890Y-73704759D01*
X61378811Y-73734775D01*
X61472788Y-73797569D01*
X61473453Y-73798013D01*
X61473455Y-73798014D01*
X61473459Y-73798016D01*
X61583156Y-73843453D01*
X61637334Y-73865894D01*
X61637336Y-73865894D01*
X61637341Y-73865896D01*
X61811304Y-73900499D01*
X61811307Y-73900500D01*
X61811309Y-73900500D01*
X61988693Y-73900500D01*
X61988694Y-73900499D01*
X62046682Y-73888964D01*
X62162658Y-73865896D01*
X62162661Y-73865894D01*
X62162666Y-73865894D01*
X62326547Y-73798013D01*
X62326552Y-73798009D01*
X62326555Y-73798008D01*
X62413622Y-73739831D01*
X62421935Y-73734275D01*
X62488612Y-73713397D01*
X62555993Y-73731881D01*
X62602683Y-73783859D01*
X62613860Y-73852829D01*
X62605389Y-73884829D01*
X62554585Y-74007484D01*
X62554584Y-74007487D01*
X62520000Y-74181353D01*
X62520000Y-74358646D01*
X62554584Y-74532512D01*
X62554586Y-74532520D01*
X62622430Y-74696311D01*
X62629376Y-74706704D01*
X62678827Y-74657616D01*
X63066445Y-74270000D01*
X63773554Y-74270000D01*
X63773554Y-74270001D01*
X64161159Y-74657606D01*
X64210622Y-74706705D01*
X64217572Y-74696306D01*
X64285412Y-74532524D01*
X64285415Y-74532512D01*
X64319999Y-74358646D01*
X64320000Y-74358643D01*
X64320000Y-74181357D01*
X64319999Y-74181353D01*
X64285415Y-74007487D01*
X64285413Y-74007479D01*
X64217569Y-73843689D01*
X64217567Y-73843684D01*
X64210622Y-73833292D01*
X64161345Y-73882207D01*
X63773554Y-74270000D01*
X63066445Y-74270000D01*
X63243223Y-74093223D01*
X63399627Y-73936819D01*
X63460950Y-73903334D01*
X63487308Y-73900500D01*
X63508693Y-73900500D01*
X63508694Y-73900499D01*
X63566682Y-73888964D01*
X63682658Y-73865896D01*
X63682661Y-73865894D01*
X63682666Y-73865894D01*
X63846547Y-73798013D01*
X63994035Y-73699464D01*
X64119464Y-73574035D01*
X64218013Y-73426547D01*
X64285894Y-73262666D01*
X64291401Y-73234984D01*
X64320499Y-73088695D01*
X64320500Y-73088693D01*
X64320500Y-72911306D01*
X64320499Y-72911304D01*
X64285896Y-72737341D01*
X64285893Y-72737332D01*
X64218016Y-72573459D01*
X64218009Y-72573446D01*
X64119464Y-72425965D01*
X64119461Y-72425961D01*
X63994038Y-72300538D01*
X63994034Y-72300535D01*
X63846553Y-72201990D01*
X63846540Y-72201983D01*
X63682667Y-72134106D01*
X63682658Y-72134103D01*
X63508694Y-72099500D01*
X63508691Y-72099500D01*
X63331309Y-72099500D01*
X63331306Y-72099500D01*
X63157341Y-72134103D01*
X63157332Y-72134106D01*
X62993459Y-72201983D01*
X62993446Y-72201990D01*
X62845965Y-72300535D01*
X62845961Y-72300538D01*
X62747681Y-72398819D01*
X62686358Y-72432304D01*
X62616666Y-72427320D01*
X62572319Y-72398819D01*
X62474038Y-72300538D01*
X62474034Y-72300535D01*
X62326553Y-72201990D01*
X62326544Y-72201985D01*
X62180296Y-72141408D01*
X62125893Y-72097567D01*
X62103828Y-72031273D01*
X62121107Y-71963574D01*
X62140064Y-71939170D01*
X62502416Y-71576819D01*
X62563739Y-71543334D01*
X62590097Y-71540500D01*
X63186857Y-71540500D01*
X63253896Y-71560185D01*
X63255748Y-71561398D01*
X63365483Y-71634721D01*
X63365496Y-71634728D01*
X63511167Y-71695066D01*
X63511172Y-71695068D01*
X63665822Y-71725830D01*
X63665825Y-71725831D01*
X63665827Y-71725831D01*
X63823513Y-71725831D01*
X63823514Y-71725830D01*
X63978166Y-71695068D01*
X64123848Y-71634725D01*
X64254958Y-71547120D01*
X64366458Y-71435620D01*
X64454063Y-71304510D01*
X64514406Y-71158828D01*
X64545169Y-71004173D01*
X64545169Y-70846489D01*
X64545169Y-70846486D01*
X64545168Y-70846484D01*
X64531692Y-70778735D01*
X64514406Y-70691834D01*
X64514404Y-70691829D01*
X64454066Y-70546158D01*
X64454059Y-70546145D01*
X64366458Y-70415042D01*
X64366455Y-70415038D01*
X64254961Y-70303544D01*
X64254957Y-70303541D01*
X64123854Y-70215940D01*
X64123841Y-70215933D01*
X63978170Y-70155595D01*
X63978158Y-70155592D01*
X63823514Y-70124831D01*
X63823511Y-70124831D01*
X63665827Y-70124831D01*
X63665824Y-70124831D01*
X63511179Y-70155592D01*
X63511167Y-70155595D01*
X63365496Y-70215933D01*
X63365483Y-70215940D01*
X63234380Y-70303541D01*
X63229670Y-70307407D01*
X63228843Y-70306400D01*
X63173417Y-70336666D01*
X63147059Y-70339500D01*
X62789097Y-70339500D01*
X62722058Y-70319815D01*
X62676303Y-70267011D01*
X62666359Y-70197853D01*
X62695384Y-70134297D01*
X62701416Y-70127819D01*
X63312416Y-69516819D01*
X63373739Y-69483334D01*
X63400097Y-69480500D01*
X98469903Y-69480500D01*
X98536942Y-69500185D01*
G37*
G04 #@! TD.AperFunction*
G04 #@! TA.AperFunction,Conductor*
G36*
X66102476Y-81330358D02*
G01*
X66108426Y-81331344D01*
X66235933Y-81365510D01*
X66314405Y-81365510D01*
X66324479Y-81367181D01*
X66387394Y-81397570D01*
X66423892Y-81457150D01*
X66426927Y-81507157D01*
X66415000Y-81590111D01*
X66415000Y-82479915D01*
X66417889Y-82533854D01*
X66417891Y-82533866D01*
X66453429Y-82673138D01*
X66468647Y-82709884D01*
X66491992Y-82758682D01*
X66578124Y-82873741D01*
X66578140Y-82873759D01*
X66606242Y-82901861D01*
X66606280Y-82901897D01*
X66646530Y-82938047D01*
X66646538Y-82938053D01*
X66770167Y-83011379D01*
X66806896Y-83026586D01*
X66806948Y-83026606D01*
X66858319Y-83044724D01*
X66914995Y-83085586D01*
X66940582Y-83150602D01*
X66938694Y-83185854D01*
X66929500Y-83232077D01*
X66929500Y-83377947D01*
X66957955Y-83520998D01*
X66957958Y-83521010D01*
X67013773Y-83655761D01*
X67013780Y-83655774D01*
X67094815Y-83777050D01*
X67094818Y-83777054D01*
X67133180Y-83815415D01*
X67166666Y-83876737D01*
X67169500Y-83903097D01*
X67169500Y-89305500D01*
X67149815Y-89372539D01*
X67097011Y-89418294D01*
X67045500Y-89429500D01*
X64431651Y-89429500D01*
X64364612Y-89409815D01*
X64318857Y-89357011D01*
X64308913Y-89287853D01*
X64310034Y-89281308D01*
X64320500Y-89228693D01*
X64320500Y-89051306D01*
X64320499Y-89051304D01*
X64285896Y-88877341D01*
X64285893Y-88877332D01*
X64218016Y-88713459D01*
X64218009Y-88713446D01*
X64119464Y-88565965D01*
X64119461Y-88565961D01*
X63994038Y-88440538D01*
X63994034Y-88440535D01*
X63846553Y-88341990D01*
X63846540Y-88341983D01*
X63682667Y-88274106D01*
X63682658Y-88274103D01*
X63508694Y-88239500D01*
X63508691Y-88239500D01*
X63331309Y-88239500D01*
X63331306Y-88239500D01*
X63157341Y-88274103D01*
X63157332Y-88274106D01*
X62993459Y-88341983D01*
X62993446Y-88341990D01*
X62845965Y-88440535D01*
X62845961Y-88440538D01*
X62720538Y-88565961D01*
X62720535Y-88565965D01*
X62621990Y-88713446D01*
X62621983Y-88713459D01*
X62554106Y-88877332D01*
X62554103Y-88877341D01*
X62519500Y-89051304D01*
X62519500Y-89051309D01*
X62519500Y-89228691D01*
X62519500Y-89228693D01*
X62519499Y-89228693D01*
X62529966Y-89281308D01*
X62523739Y-89350900D01*
X62480876Y-89406077D01*
X62414987Y-89429322D01*
X62408349Y-89429500D01*
X55041651Y-89429500D01*
X54974612Y-89409815D01*
X54928857Y-89357011D01*
X54918913Y-89287853D01*
X54920034Y-89281308D01*
X54930500Y-89228693D01*
X54930500Y-89051306D01*
X54930499Y-89051304D01*
X54895896Y-88877341D01*
X54895893Y-88877332D01*
X54828016Y-88713459D01*
X54828009Y-88713446D01*
X54729464Y-88565965D01*
X54729461Y-88565961D01*
X54604038Y-88440538D01*
X54604034Y-88440535D01*
X54524462Y-88387366D01*
X54456553Y-88341990D01*
X54456540Y-88341983D01*
X54428759Y-88330476D01*
X57943075Y-88330476D01*
X57943075Y-88330477D01*
X57953684Y-88337567D01*
X57953689Y-88337569D01*
X58117479Y-88405413D01*
X58117487Y-88405415D01*
X58291353Y-88439999D01*
X58291357Y-88440000D01*
X58468643Y-88440000D01*
X58468646Y-88439999D01*
X58642512Y-88405415D01*
X58642524Y-88405412D01*
X58806306Y-88337572D01*
X58816923Y-88330476D01*
X60893075Y-88330476D01*
X60893075Y-88330477D01*
X60903684Y-88337567D01*
X60903689Y-88337569D01*
X61067479Y-88405413D01*
X61067487Y-88405415D01*
X61241353Y-88439999D01*
X61241357Y-88440000D01*
X61418643Y-88440000D01*
X61418646Y-88439999D01*
X61592512Y-88405415D01*
X61592524Y-88405412D01*
X61756306Y-88337572D01*
X61766922Y-88330476D01*
X61766923Y-88330476D01*
X61330001Y-87893554D01*
X61330000Y-87893554D01*
X60893075Y-88330476D01*
X58816923Y-88330476D01*
X58380001Y-87893554D01*
X58380000Y-87893554D01*
X57943075Y-88330476D01*
X54428759Y-88330476D01*
X54292667Y-88274106D01*
X54292658Y-88274103D01*
X54118694Y-88239500D01*
X54118691Y-88239500D01*
X53941309Y-88239500D01*
X53941306Y-88239500D01*
X53767341Y-88274103D01*
X53767332Y-88274106D01*
X53603459Y-88341983D01*
X53603446Y-88341990D01*
X53455965Y-88440535D01*
X53455961Y-88440538D01*
X53330538Y-88565961D01*
X53330535Y-88565965D01*
X53231990Y-88713446D01*
X53231983Y-88713459D01*
X53164106Y-88877332D01*
X53164103Y-88877341D01*
X53129500Y-89051304D01*
X53129500Y-89051309D01*
X53129500Y-89228691D01*
X53129500Y-89228693D01*
X53129499Y-89228693D01*
X53139966Y-89281308D01*
X53133739Y-89350900D01*
X53090876Y-89406077D01*
X53024987Y-89429322D01*
X53018349Y-89429500D01*
X52044500Y-89429500D01*
X51977461Y-89409815D01*
X51931706Y-89357011D01*
X51920500Y-89305500D01*
X51920500Y-87451353D01*
X57480000Y-87451353D01*
X57480000Y-87628646D01*
X57514584Y-87802512D01*
X57514586Y-87802520D01*
X57582430Y-87966311D01*
X57589522Y-87976923D01*
X58026446Y-87540000D01*
X58026445Y-87539999D01*
X58733554Y-87539999D01*
X58733554Y-87540001D01*
X59170476Y-87976923D01*
X59170476Y-87976922D01*
X59177572Y-87966306D01*
X59245412Y-87802524D01*
X59245415Y-87802512D01*
X59279999Y-87628646D01*
X59280000Y-87628643D01*
X59280000Y-87451357D01*
X59279999Y-87451353D01*
X60430000Y-87451353D01*
X60430000Y-87628646D01*
X60464584Y-87802512D01*
X60464586Y-87802520D01*
X60532430Y-87966311D01*
X60539522Y-87976923D01*
X60976446Y-87540000D01*
X60976445Y-87539999D01*
X61683554Y-87539999D01*
X61683554Y-87540001D01*
X62120476Y-87976923D01*
X62120476Y-87976922D01*
X62127572Y-87966306D01*
X62195412Y-87802524D01*
X62195415Y-87802512D01*
X62229999Y-87628646D01*
X62230000Y-87628643D01*
X62230000Y-87451357D01*
X62229999Y-87451353D01*
X62195415Y-87277487D01*
X62195413Y-87277479D01*
X62127569Y-87113689D01*
X62127567Y-87113684D01*
X62120477Y-87103075D01*
X61683554Y-87539999D01*
X60976445Y-87539999D01*
X60539522Y-87103076D01*
X60539521Y-87103076D01*
X60532429Y-87113691D01*
X60464586Y-87277479D01*
X60464584Y-87277487D01*
X60430000Y-87451353D01*
X59279999Y-87451353D01*
X59245415Y-87277487D01*
X59245413Y-87277479D01*
X59177569Y-87113689D01*
X59177567Y-87113684D01*
X59170477Y-87103075D01*
X58733554Y-87539999D01*
X58026445Y-87539999D01*
X57589522Y-87103076D01*
X57589521Y-87103076D01*
X57582429Y-87113691D01*
X57514586Y-87277479D01*
X57514584Y-87277487D01*
X57480000Y-87451353D01*
X51920500Y-87451353D01*
X51920500Y-86749521D01*
X57943076Y-86749521D01*
X57943076Y-86749522D01*
X58380000Y-87186446D01*
X58380001Y-87186446D01*
X58816923Y-86749522D01*
X58806311Y-86742430D01*
X58642520Y-86674586D01*
X58642512Y-86674584D01*
X58468646Y-86640000D01*
X58291353Y-86640000D01*
X58117487Y-86674584D01*
X58117479Y-86674586D01*
X57953691Y-86742429D01*
X57943076Y-86749521D01*
X51920500Y-86749521D01*
X51920500Y-86035887D01*
X51940185Y-85968848D01*
X51992989Y-85923093D01*
X52062147Y-85913149D01*
X52079094Y-85916810D01*
X52149089Y-85937145D01*
X52170000Y-85938789D01*
X52670000Y-85938789D01*
X52690910Y-85937145D01*
X52846195Y-85892031D01*
X52985374Y-85809721D01*
X52985383Y-85809714D01*
X53099714Y-85695383D01*
X53099721Y-85695374D01*
X53182031Y-85556195D01*
X53224504Y-85410000D01*
X52670000Y-85410000D01*
X52670000Y-85938789D01*
X52170000Y-85938789D01*
X52170000Y-85284000D01*
X52188653Y-85220476D01*
X53593075Y-85220476D01*
X53593075Y-85220477D01*
X53603684Y-85227567D01*
X53603689Y-85227569D01*
X53767479Y-85295413D01*
X53767487Y-85295415D01*
X53941353Y-85329999D01*
X53941357Y-85330000D01*
X54118643Y-85330000D01*
X54118646Y-85329999D01*
X54292512Y-85295415D01*
X54292524Y-85295412D01*
X54456306Y-85227572D01*
X54466922Y-85220476D01*
X54466923Y-85220476D01*
X54030001Y-84783554D01*
X54030000Y-84783554D01*
X53593075Y-85220476D01*
X52188653Y-85220476D01*
X52189685Y-85216961D01*
X52242489Y-85171206D01*
X52294000Y-85160000D01*
X52420000Y-85160000D01*
X52420000Y-85104500D01*
X52439685Y-85037461D01*
X52492489Y-84991706D01*
X52544000Y-84980500D01*
X52654682Y-84980500D01*
X52654690Y-84980500D01*
X52690993Y-84977643D01*
X52690995Y-84977642D01*
X52690997Y-84977642D01*
X52846389Y-84932496D01*
X52846389Y-84932495D01*
X52846395Y-84932494D01*
X52855233Y-84927267D01*
X52918352Y-84910000D01*
X53196446Y-84910000D01*
X53220398Y-84886046D01*
X53765541Y-84340903D01*
X53826864Y-84307418D01*
X53896556Y-84312402D01*
X53940903Y-84340903D01*
X54029999Y-84429999D01*
X54119094Y-84340904D01*
X54180417Y-84307419D01*
X54250109Y-84312403D01*
X54294457Y-84340904D01*
X54820476Y-84866923D01*
X54820476Y-84866922D01*
X54827572Y-84856306D01*
X54895412Y-84692524D01*
X54895415Y-84692512D01*
X54929999Y-84518646D01*
X54930000Y-84518643D01*
X54930000Y-84341357D01*
X54929999Y-84341353D01*
X54895415Y-84167487D01*
X54895412Y-84167475D01*
X54859988Y-84081952D01*
X54852519Y-84012483D01*
X54883795Y-83950004D01*
X54943884Y-83914352D01*
X54974549Y-83910500D01*
X57287770Y-83910500D01*
X57354809Y-83930185D01*
X57375451Y-83946819D01*
X59881578Y-86452947D01*
X59881584Y-86452952D01*
X59939709Y-86491789D01*
X60004505Y-86535084D01*
X60061080Y-86558518D01*
X60141088Y-86591659D01*
X60257241Y-86614763D01*
X60276468Y-86618587D01*
X60286081Y-86620500D01*
X60286082Y-86620500D01*
X60286083Y-86620500D01*
X60433918Y-86620500D01*
X60768971Y-86620500D01*
X60836010Y-86640185D01*
X60881765Y-86692989D01*
X60890807Y-86747253D01*
X61330000Y-87186446D01*
X61330001Y-87186446D01*
X61769457Y-86746987D01*
X61780645Y-86688006D01*
X61828711Y-86637296D01*
X61891028Y-86620500D01*
X64375396Y-86620500D01*
X64422844Y-86629937D01*
X64446503Y-86639737D01*
X64446508Y-86639738D01*
X64446511Y-86639739D01*
X64601153Y-86670499D01*
X64601156Y-86670500D01*
X64601158Y-86670500D01*
X64758844Y-86670500D01*
X64758845Y-86670499D01*
X64835152Y-86655320D01*
X64913488Y-86639739D01*
X64913489Y-86639738D01*
X64913497Y-86639737D01*
X64937155Y-86629937D01*
X64945329Y-86628311D01*
X64949669Y-86625523D01*
X64984604Y-86620500D01*
X65126082Y-86620500D01*
X65178067Y-86620500D01*
X65212661Y-86625423D01*
X65254796Y-86637665D01*
X65290819Y-86640500D01*
X65789180Y-86640499D01*
X65825204Y-86637665D01*
X65979393Y-86592869D01*
X66117598Y-86511135D01*
X66231135Y-86397598D01*
X66312869Y-86259393D01*
X66357665Y-86105204D01*
X66360500Y-86069181D01*
X66360499Y-85670820D01*
X66357665Y-85634796D01*
X66312869Y-85480607D01*
X66278869Y-85423117D01*
X66261688Y-85355398D01*
X66278869Y-85296882D01*
X66312869Y-85239393D01*
X66316304Y-85227572D01*
X66357664Y-85085208D01*
X66357665Y-85085202D01*
X66359596Y-85060666D01*
X66360500Y-85049181D01*
X66360499Y-84650820D01*
X66357665Y-84614796D01*
X66312869Y-84460607D01*
X66231135Y-84322402D01*
X66231133Y-84322400D01*
X66231130Y-84322396D01*
X66117603Y-84208869D01*
X66117594Y-84208862D01*
X65979392Y-84127130D01*
X65978137Y-84126587D01*
X65975879Y-84125052D01*
X65972679Y-84123160D01*
X65972798Y-84122958D01*
X65972176Y-84122536D01*
X65967959Y-84121619D01*
X65939711Y-84100472D01*
X65939704Y-84100468D01*
X65936055Y-84096819D01*
X65908716Y-84069480D01*
X65908713Y-84069478D01*
X65629574Y-83790339D01*
X65596089Y-83729016D01*
X65595638Y-83726849D01*
X65571454Y-83605270D01*
X65564737Y-83571503D01*
X65543821Y-83521006D01*
X65504397Y-83425827D01*
X65504390Y-83425814D01*
X65416789Y-83294711D01*
X65416786Y-83294707D01*
X65305292Y-83183213D01*
X65305288Y-83183210D01*
X65174185Y-83095609D01*
X65174172Y-83095602D01*
X65028501Y-83035264D01*
X65028491Y-83035261D01*
X64873149Y-83004361D01*
X64856392Y-82995595D01*
X64837914Y-82991576D01*
X64812877Y-82972833D01*
X64811238Y-82971976D01*
X64809660Y-82970425D01*
X64637590Y-82798355D01*
X64637588Y-82798352D01*
X64541418Y-82702182D01*
X64507933Y-82640859D01*
X64512917Y-82571167D01*
X64554789Y-82515234D01*
X64620253Y-82490817D01*
X64629099Y-82490501D01*
X64699054Y-82490501D01*
X64699057Y-82490501D01*
X64851785Y-82449577D01*
X64901904Y-82420639D01*
X64988716Y-82370520D01*
X65100520Y-82258716D01*
X65100520Y-82258714D01*
X65110728Y-82248507D01*
X65110730Y-82248504D01*
X65133693Y-82225541D01*
X65174662Y-82184572D01*
X65235984Y-82151088D01*
X65238151Y-82150637D01*
X65238840Y-82150500D01*
X65238842Y-82150500D01*
X65393497Y-82119737D01*
X65539179Y-82059394D01*
X65670289Y-81971789D01*
X65781789Y-81860289D01*
X65869394Y-81729179D01*
X65929737Y-81583497D01*
X65954869Y-81457150D01*
X65960569Y-81428496D01*
X65963837Y-81422246D01*
X65963990Y-81415194D01*
X65979823Y-81391687D01*
X65992954Y-81366585D01*
X65999081Y-81363095D01*
X66003023Y-81357244D01*
X66029051Y-81346029D01*
X66053669Y-81332011D01*
X66061323Y-81332124D01*
X66067190Y-81329597D01*
X66102476Y-81330358D01*
G37*
G04 #@! TD.AperFunction*
G04 #@! TA.AperFunction,Conductor*
G36*
X103545270Y-83251717D02*
G01*
X103545270Y-83251716D01*
X103584622Y-83197555D01*
X103589232Y-83188507D01*
X103637205Y-83137709D01*
X103705025Y-83120912D01*
X103771161Y-83143447D01*
X103810204Y-83188504D01*
X103814949Y-83197817D01*
X103939890Y-83369786D01*
X104090213Y-83520109D01*
X104262182Y-83645050D01*
X104270946Y-83649516D01*
X104321742Y-83697491D01*
X104338536Y-83765312D01*
X104315998Y-83831447D01*
X104270946Y-83870484D01*
X104262182Y-83874949D01*
X104090213Y-83999890D01*
X103939890Y-84150213D01*
X103814949Y-84322182D01*
X103810484Y-84330946D01*
X103762509Y-84381742D01*
X103694688Y-84398536D01*
X103628553Y-84375998D01*
X103589516Y-84330946D01*
X103585050Y-84322182D01*
X103460109Y-84150213D01*
X103309786Y-83999890D01*
X103137817Y-83874949D01*
X103128504Y-83870204D01*
X103077707Y-83822230D01*
X103060912Y-83754409D01*
X103083449Y-83688274D01*
X103128507Y-83649232D01*
X103137555Y-83644622D01*
X103191716Y-83605270D01*
X103191717Y-83605270D01*
X102559409Y-82972962D01*
X102622993Y-82955925D01*
X102737007Y-82890099D01*
X102830099Y-82797007D01*
X102895925Y-82682993D01*
X102912962Y-82619409D01*
X103545270Y-83251717D01*
G37*
G04 #@! TD.AperFunction*
G04 #@! TA.AperFunction,Conductor*
G36*
X103771444Y-80603999D02*
G01*
X103810486Y-80649056D01*
X103814951Y-80657820D01*
X103939890Y-80829786D01*
X104090213Y-80980109D01*
X104262182Y-81105050D01*
X104270946Y-81109516D01*
X104321742Y-81157491D01*
X104338536Y-81225312D01*
X104315998Y-81291447D01*
X104270946Y-81330484D01*
X104262182Y-81334949D01*
X104090213Y-81459890D01*
X103939890Y-81610213D01*
X103814949Y-81782182D01*
X103810202Y-81791499D01*
X103762227Y-81842293D01*
X103694405Y-81859087D01*
X103628271Y-81836548D01*
X103589234Y-81791495D01*
X103584626Y-81782452D01*
X103545270Y-81728282D01*
X103545269Y-81728282D01*
X102912962Y-82360590D01*
X102895925Y-82297007D01*
X102830099Y-82182993D01*
X102737007Y-82089901D01*
X102622993Y-82024075D01*
X102559407Y-82007036D01*
X103191716Y-81374728D01*
X103137547Y-81335373D01*
X103137547Y-81335372D01*
X103128500Y-81330763D01*
X103077706Y-81282788D01*
X103060912Y-81214966D01*
X103083451Y-81148832D01*
X103128508Y-81109793D01*
X103137816Y-81105051D01*
X103218350Y-81046540D01*
X103309786Y-80980109D01*
X103309788Y-80980106D01*
X103309792Y-80980104D01*
X103460104Y-80829792D01*
X103460106Y-80829788D01*
X103460109Y-80829786D01*
X103585048Y-80657820D01*
X103585047Y-80657820D01*
X103585051Y-80657816D01*
X103589514Y-80649054D01*
X103637488Y-80598259D01*
X103705308Y-80581463D01*
X103771444Y-80603999D01*
G37*
G04 #@! TD.AperFunction*
G04 #@! TA.AperFunction,Conductor*
G36*
X104504075Y-77602993D02*
G01*
X104569901Y-77717007D01*
X104662993Y-77810099D01*
X104777007Y-77875925D01*
X104840589Y-77892962D01*
X104208282Y-78525269D01*
X104208282Y-78525270D01*
X104262452Y-78564626D01*
X104262451Y-78564626D01*
X104271495Y-78569234D01*
X104322292Y-78617208D01*
X104339087Y-78685029D01*
X104316550Y-78751164D01*
X104271499Y-78790202D01*
X104262182Y-78794949D01*
X104090213Y-78919890D01*
X103939890Y-79070213D01*
X103814949Y-79242182D01*
X103810484Y-79250946D01*
X103762509Y-79301742D01*
X103694688Y-79318536D01*
X103628553Y-79295998D01*
X103589516Y-79250946D01*
X103585050Y-79242182D01*
X103460109Y-79070213D01*
X103309786Y-78919890D01*
X103137820Y-78794951D01*
X103137115Y-78794591D01*
X103129054Y-78790485D01*
X103078259Y-78742512D01*
X103061463Y-78674692D01*
X103083999Y-78608556D01*
X103129054Y-78569515D01*
X103137816Y-78565051D01*
X103192572Y-78525269D01*
X103309786Y-78440109D01*
X103309788Y-78440106D01*
X103309792Y-78440104D01*
X103460104Y-78289792D01*
X103460106Y-78289788D01*
X103460109Y-78289786D01*
X103542022Y-78177041D01*
X103585051Y-78117816D01*
X103589793Y-78108508D01*
X103637763Y-78057711D01*
X103705583Y-78040911D01*
X103771719Y-78063445D01*
X103810763Y-78108500D01*
X103815373Y-78117547D01*
X103854728Y-78171716D01*
X104487036Y-77539407D01*
X104504075Y-77602993D01*
G37*
G04 #@! TD.AperFunction*
G04 #@! TA.AperFunction,Conductor*
G36*
X103771444Y-75523999D02*
G01*
X103810486Y-75569056D01*
X103814951Y-75577820D01*
X103939890Y-75749786D01*
X104090213Y-75900109D01*
X104262179Y-76025048D01*
X104262181Y-76025049D01*
X104262184Y-76025051D01*
X104271493Y-76029794D01*
X104322290Y-76077766D01*
X104339087Y-76145587D01*
X104316552Y-76211722D01*
X104271505Y-76250760D01*
X104262446Y-76255376D01*
X104262440Y-76255380D01*
X104208282Y-76294727D01*
X104208282Y-76294728D01*
X104840591Y-76927037D01*
X104777007Y-76944075D01*
X104662993Y-77009901D01*
X104569901Y-77102993D01*
X104504075Y-77217007D01*
X104487037Y-77280591D01*
X103854728Y-76648282D01*
X103854727Y-76648282D01*
X103815380Y-76702440D01*
X103815376Y-76702446D01*
X103810760Y-76711505D01*
X103762781Y-76762297D01*
X103694959Y-76779087D01*
X103628826Y-76756543D01*
X103589794Y-76711493D01*
X103585051Y-76702184D01*
X103585049Y-76702181D01*
X103585048Y-76702179D01*
X103460109Y-76530213D01*
X103309786Y-76379890D01*
X103137820Y-76254951D01*
X103137115Y-76254591D01*
X103129054Y-76250485D01*
X103078259Y-76202512D01*
X103061463Y-76134692D01*
X103083999Y-76068556D01*
X103129054Y-76029515D01*
X103137816Y-76025051D01*
X103218334Y-75966552D01*
X103309786Y-75900109D01*
X103309788Y-75900106D01*
X103309792Y-75900104D01*
X103460104Y-75749792D01*
X103460106Y-75749788D01*
X103460109Y-75749786D01*
X103585048Y-75577820D01*
X103585047Y-75577820D01*
X103585051Y-75577816D01*
X103589514Y-75569054D01*
X103637488Y-75518259D01*
X103705308Y-75501463D01*
X103771444Y-75523999D01*
G37*
G04 #@! TD.AperFunction*
G04 #@! TA.AperFunction,Conductor*
G36*
X103948418Y-73225417D02*
G01*
X103976673Y-73246569D01*
X104090213Y-73360109D01*
X104262182Y-73485050D01*
X104270946Y-73489516D01*
X104321742Y-73537491D01*
X104338536Y-73605312D01*
X104315998Y-73671447D01*
X104270946Y-73710484D01*
X104262182Y-73714949D01*
X104090213Y-73839890D01*
X103939890Y-73990213D01*
X103814949Y-74162182D01*
X103810484Y-74170946D01*
X103762509Y-74221742D01*
X103694688Y-74238536D01*
X103628553Y-74215998D01*
X103589516Y-74170946D01*
X103585050Y-74162182D01*
X103460109Y-73990213D01*
X103346569Y-73876673D01*
X103313084Y-73815350D01*
X103318068Y-73745658D01*
X103359940Y-73689725D01*
X103390915Y-73672810D01*
X103522331Y-73623796D01*
X103637546Y-73537546D01*
X103723796Y-73422331D01*
X103772810Y-73290916D01*
X103814681Y-73234984D01*
X103880145Y-73210566D01*
X103948418Y-73225417D01*
G37*
G04 #@! TD.AperFunction*
G04 #@! TA.AperFunction,Conductor*
G36*
X101909056Y-62450185D02*
G01*
X101929522Y-62466643D01*
X104348546Y-64875971D01*
X106536707Y-67055362D01*
X106563005Y-67081554D01*
X106596613Y-67142810D01*
X106599500Y-67169411D01*
X106599500Y-69570903D01*
X106579815Y-69637942D01*
X106527011Y-69683697D01*
X106457853Y-69693641D01*
X106394297Y-69664616D01*
X106387819Y-69658584D01*
X106124574Y-69395339D01*
X106091089Y-69334016D01*
X106090638Y-69331849D01*
X106069244Y-69224297D01*
X106059737Y-69176503D01*
X106043856Y-69138162D01*
X105999397Y-69030827D01*
X105999390Y-69030814D01*
X105911789Y-68899711D01*
X105911786Y-68899707D01*
X105800292Y-68788213D01*
X105800288Y-68788210D01*
X105669185Y-68700609D01*
X105669172Y-68700602D01*
X105523501Y-68640264D01*
X105523489Y-68640261D01*
X105368845Y-68609500D01*
X105368842Y-68609500D01*
X105211158Y-68609500D01*
X105211155Y-68609500D01*
X105056510Y-68640261D01*
X105056498Y-68640264D01*
X104910827Y-68700602D01*
X104910814Y-68700609D01*
X104779711Y-68788210D01*
X104779707Y-68788213D01*
X104668213Y-68899707D01*
X104668210Y-68899711D01*
X104580609Y-69030814D01*
X104580602Y-69030827D01*
X104520264Y-69176498D01*
X104520261Y-69176510D01*
X104489500Y-69331153D01*
X104489500Y-69488846D01*
X104520261Y-69643489D01*
X104520264Y-69643501D01*
X104580602Y-69789172D01*
X104580609Y-69789185D01*
X104668210Y-69920288D01*
X104668213Y-69920292D01*
X104779707Y-70031786D01*
X104779711Y-70031789D01*
X104910814Y-70119390D01*
X104910827Y-70119397D01*
X105056498Y-70179735D01*
X105056503Y-70179737D01*
X105121147Y-70192595D01*
X105211849Y-70210638D01*
X105273760Y-70243023D01*
X105275339Y-70244574D01*
X105773181Y-70742416D01*
X105787884Y-70769343D01*
X105804477Y-70795162D01*
X105805368Y-70801362D01*
X105806666Y-70803739D01*
X105809500Y-70830097D01*
X105809500Y-71039695D01*
X105789815Y-71106734D01*
X105737011Y-71152489D01*
X105667853Y-71162433D01*
X105629205Y-71150180D01*
X105488414Y-71078444D01*
X105488413Y-71078443D01*
X105488412Y-71078443D01*
X105286243Y-71012754D01*
X105286241Y-71012753D01*
X105286240Y-71012753D01*
X105124957Y-70987208D01*
X105076287Y-70979500D01*
X104863713Y-70979500D01*
X104815042Y-70987208D01*
X104653760Y-71012753D01*
X104451585Y-71078444D01*
X104262179Y-71174951D01*
X104090215Y-71299889D01*
X103976673Y-71413431D01*
X103915350Y-71446915D01*
X103845658Y-71441931D01*
X103789725Y-71400059D01*
X103772810Y-71369082D01*
X103723797Y-71237671D01*
X103723793Y-71237664D01*
X103637547Y-71122455D01*
X103637544Y-71122452D01*
X103522335Y-71036206D01*
X103522328Y-71036202D01*
X103387482Y-70985908D01*
X103387483Y-70985908D01*
X103327883Y-70979501D01*
X103327881Y-70979500D01*
X103327873Y-70979500D01*
X103327865Y-70979500D01*
X103294500Y-70979500D01*
X103227461Y-70959815D01*
X103181706Y-70907011D01*
X103170500Y-70855500D01*
X103170500Y-68936079D01*
X103141659Y-68791092D01*
X103141658Y-68791091D01*
X103141658Y-68791087D01*
X103098036Y-68685774D01*
X103085087Y-68654511D01*
X103085080Y-68654498D01*
X103002952Y-68531585D01*
X102959493Y-68488126D01*
X102898416Y-68427049D01*
X102272928Y-67801561D01*
X100378421Y-65907052D01*
X100378420Y-65907051D01*
X100294447Y-65850943D01*
X100294446Y-65850942D01*
X100255500Y-65824919D01*
X100255488Y-65824912D01*
X100118917Y-65768343D01*
X100118907Y-65768340D01*
X99973920Y-65739500D01*
X99973918Y-65739500D01*
X66156082Y-65739500D01*
X66156076Y-65739500D01*
X66127242Y-65745234D01*
X66127243Y-65745235D01*
X66011093Y-65768339D01*
X66011083Y-65768342D01*
X65931081Y-65801479D01*
X65931082Y-65801480D01*
X65874506Y-65824915D01*
X65824119Y-65858583D01*
X65751582Y-65907049D01*
X65751579Y-65907052D01*
X64955451Y-66703181D01*
X64928523Y-66717884D01*
X64902705Y-66734477D01*
X64896504Y-66735368D01*
X64894128Y-66736666D01*
X64867770Y-66739500D01*
X64796649Y-66739500D01*
X64729610Y-66719815D01*
X64683855Y-66667011D01*
X64673911Y-66597853D01*
X64678943Y-66576497D01*
X64695086Y-66527778D01*
X64695085Y-66527778D01*
X64695087Y-66527775D01*
X64705500Y-66425848D01*
X64705500Y-65414152D01*
X64695087Y-65312225D01*
X64640362Y-65147075D01*
X64640358Y-65147069D01*
X64640357Y-65147066D01*
X64549028Y-64999000D01*
X64549025Y-64998996D01*
X64426003Y-64875974D01*
X64425999Y-64875971D01*
X64277933Y-64784642D01*
X64277927Y-64784639D01*
X64277925Y-64784638D01*
X64277922Y-64784637D01*
X64112776Y-64729913D01*
X64010855Y-64719500D01*
X64010848Y-64719500D01*
X63424152Y-64719500D01*
X63424144Y-64719500D01*
X63322223Y-64729913D01*
X63157077Y-64784637D01*
X63157066Y-64784642D01*
X63009000Y-64875971D01*
X63008996Y-64875974D01*
X62885974Y-64998996D01*
X62885971Y-64999000D01*
X62885538Y-64999703D01*
X62885114Y-65000083D01*
X62881493Y-65004664D01*
X62880710Y-65004045D01*
X62833590Y-65046428D01*
X62764628Y-65057649D01*
X62700546Y-65029806D01*
X62678657Y-65004544D01*
X62678507Y-65004664D01*
X62675859Y-65001315D01*
X62674462Y-64999703D01*
X62674028Y-64999000D01*
X62674025Y-64998996D01*
X62551003Y-64875974D01*
X62550999Y-64875971D01*
X62402933Y-64784642D01*
X62402927Y-64784639D01*
X62402925Y-64784638D01*
X62402922Y-64784637D01*
X62237776Y-64729913D01*
X62135855Y-64719500D01*
X62135848Y-64719500D01*
X61549152Y-64719500D01*
X61549144Y-64719500D01*
X61447223Y-64729913D01*
X61282077Y-64784637D01*
X61282066Y-64784642D01*
X61134000Y-64875971D01*
X61133996Y-64875974D01*
X61010974Y-64998996D01*
X61010971Y-64999000D01*
X60919642Y-65147066D01*
X60919636Y-65147080D01*
X60907238Y-65184494D01*
X60867465Y-65241938D01*
X60802949Y-65268760D01*
X60734173Y-65256444D01*
X60713537Y-65243471D01*
X60707598Y-65238865D01*
X60569393Y-65157131D01*
X60569388Y-65157129D01*
X60415208Y-65112335D01*
X60415202Y-65112334D01*
X60379181Y-65109500D01*
X59980830Y-65109500D01*
X59980808Y-65109501D01*
X59944794Y-65112335D01*
X59790611Y-65157129D01*
X59790607Y-65157130D01*
X59732628Y-65191419D01*
X59664903Y-65208600D01*
X59606388Y-65191419D01*
X59549189Y-65157592D01*
X59549188Y-65157591D01*
X59410001Y-65117153D01*
X59410000Y-65117154D01*
X59410000Y-65669591D01*
X59409618Y-65679316D01*
X59409500Y-65680804D01*
X59409500Y-65680819D01*
X59409500Y-65907052D01*
X59409501Y-65930000D01*
X59409501Y-66179181D01*
X59409618Y-66180663D01*
X59410000Y-66190393D01*
X59410000Y-66742844D01*
X59549194Y-66702405D01*
X59549196Y-66702404D01*
X59606386Y-66668582D01*
X59674109Y-66651398D01*
X59732629Y-66668581D01*
X59790607Y-66702869D01*
X59813762Y-66709596D01*
X59944791Y-66747664D01*
X59944794Y-66747664D01*
X59944796Y-66747665D01*
X59980819Y-66750500D01*
X60379180Y-66750499D01*
X60415204Y-66747665D01*
X60569393Y-66702869D01*
X60707598Y-66621135D01*
X60707603Y-66621129D01*
X60713764Y-66616352D01*
X60714723Y-66617589D01*
X60768153Y-66588408D01*
X60837845Y-66593385D01*
X60893783Y-66635250D01*
X60912230Y-66670568D01*
X60919636Y-66692920D01*
X60919642Y-66692933D01*
X61010971Y-66840999D01*
X61010974Y-66841003D01*
X61133996Y-66964025D01*
X61134000Y-66964028D01*
X61282066Y-67055357D01*
X61282069Y-67055358D01*
X61282075Y-67055362D01*
X61340009Y-67074559D01*
X61397453Y-67114332D01*
X61424276Y-67178848D01*
X61411961Y-67247624D01*
X61388685Y-67279946D01*
X59275451Y-69393181D01*
X59214128Y-69426666D01*
X59187770Y-69429500D01*
X58644500Y-69429500D01*
X58577461Y-69409815D01*
X58531706Y-69357011D01*
X58520500Y-69305500D01*
X58520500Y-68491874D01*
X58540185Y-68424835D01*
X58556819Y-68404193D01*
X58592968Y-68368044D01*
X58682003Y-68223697D01*
X58735349Y-68062708D01*
X58745500Y-67963345D01*
X58745499Y-67416656D01*
X58735349Y-67317292D01*
X58682003Y-67156303D01*
X58681999Y-67156297D01*
X58681998Y-67156294D01*
X58592970Y-67011959D01*
X58592967Y-67011955D01*
X58583339Y-67002327D01*
X58549854Y-66941004D01*
X58554838Y-66871312D01*
X58569287Y-66843749D01*
X58634257Y-66750520D01*
X58658898Y-66730732D01*
X58682398Y-66709596D01*
X58685939Y-66709019D01*
X58688736Y-66706774D01*
X58720157Y-66703451D01*
X58751361Y-66698373D01*
X58757057Y-66699548D01*
X58758218Y-66699426D01*
X58759440Y-66700040D01*
X58770585Y-66702341D01*
X58909999Y-66742844D01*
X58910000Y-66742844D01*
X58910000Y-66180000D01*
X58875000Y-66180000D01*
X58875000Y-66266000D01*
X58855315Y-66333039D01*
X58802511Y-66378794D01*
X58751000Y-66390000D01*
X56795001Y-66390000D01*
X56795001Y-66413322D01*
X56805144Y-66512607D01*
X56858452Y-66673481D01*
X56858457Y-66673492D01*
X56947424Y-66817728D01*
X56947427Y-66817732D01*
X56956660Y-66826965D01*
X56990145Y-66888288D01*
X56985161Y-66957980D01*
X56956663Y-67002324D01*
X56947033Y-67011953D01*
X56947029Y-67011959D01*
X56858001Y-67156294D01*
X56857996Y-67156305D01*
X56804651Y-67317290D01*
X56794500Y-67416647D01*
X56794500Y-67963337D01*
X56794501Y-67963355D01*
X56804650Y-68062707D01*
X56804651Y-68062710D01*
X56857996Y-68223694D01*
X56858001Y-68223705D01*
X56947029Y-68368040D01*
X56947032Y-68368044D01*
X56983181Y-68404193D01*
X57016666Y-68465516D01*
X57019500Y-68491874D01*
X57019500Y-69305500D01*
X56999815Y-69372539D01*
X56947011Y-69418294D01*
X56895500Y-69429500D01*
X54682415Y-69429500D01*
X54615376Y-69409815D01*
X54569621Y-69357011D01*
X54559677Y-69287853D01*
X54588702Y-69224297D01*
X54634963Y-69190939D01*
X54762361Y-69138169D01*
X54762361Y-69138168D01*
X54762373Y-69138164D01*
X54978127Y-69013599D01*
X55175776Y-68861938D01*
X55351938Y-68685776D01*
X55503599Y-68488127D01*
X55628164Y-68272373D01*
X55723502Y-68042207D01*
X55787982Y-67801565D01*
X55820500Y-67554565D01*
X55820500Y-67305435D01*
X55787982Y-67058435D01*
X55723502Y-66817793D01*
X55669253Y-66686825D01*
X55628169Y-66587638D01*
X55628162Y-66587623D01*
X55503599Y-66371873D01*
X55351939Y-66174225D01*
X55351933Y-66174218D01*
X55175781Y-65998066D01*
X55175774Y-65998060D01*
X55128654Y-65961904D01*
X55004552Y-65866677D01*
X56795000Y-65866677D01*
X56795000Y-65890000D01*
X57520000Y-65890000D01*
X57520000Y-65190000D01*
X58020000Y-65190000D01*
X58020000Y-65890000D01*
X58260000Y-65890000D01*
X58260000Y-65804000D01*
X58279685Y-65736961D01*
X58332489Y-65691206D01*
X58384000Y-65680000D01*
X58910000Y-65680000D01*
X58910000Y-65117154D01*
X58909998Y-65117153D01*
X58770811Y-65157591D01*
X58770808Y-65157593D01*
X58632714Y-65239261D01*
X58632709Y-65239265D01*
X58577201Y-65294773D01*
X58515877Y-65328257D01*
X58446185Y-65323272D01*
X58424423Y-65312629D01*
X58328492Y-65253457D01*
X58328481Y-65253452D01*
X58167606Y-65200144D01*
X58068322Y-65190000D01*
X58020000Y-65190000D01*
X57520000Y-65190000D01*
X57519999Y-65189999D01*
X57471693Y-65190000D01*
X57471675Y-65190001D01*
X57372392Y-65200144D01*
X57211518Y-65253452D01*
X57211507Y-65253457D01*
X57067271Y-65342424D01*
X57067267Y-65342427D01*
X56947427Y-65462267D01*
X56947424Y-65462271D01*
X56858457Y-65606507D01*
X56858452Y-65606518D01*
X56805144Y-65767393D01*
X56795000Y-65866677D01*
X55004552Y-65866677D01*
X54978126Y-65846400D01*
X54762376Y-65721837D01*
X54762361Y-65721830D01*
X54532207Y-65626498D01*
X54291561Y-65562017D01*
X54044575Y-65529501D01*
X54044570Y-65529500D01*
X54044565Y-65529500D01*
X53795435Y-65529500D01*
X53795429Y-65529500D01*
X53795424Y-65529501D01*
X53548438Y-65562017D01*
X53307792Y-65626498D01*
X53077638Y-65721830D01*
X53077623Y-65721837D01*
X52861873Y-65846400D01*
X52664225Y-65998060D01*
X52664218Y-65998066D01*
X52488066Y-66174218D01*
X52488060Y-66174225D01*
X52336400Y-66371873D01*
X52211837Y-66587623D01*
X52211833Y-66587633D01*
X52159061Y-66715037D01*
X52115220Y-66769440D01*
X52048926Y-66791505D01*
X51981227Y-66774226D01*
X51933616Y-66723089D01*
X51920500Y-66667584D01*
X51920500Y-62554500D01*
X51940185Y-62487461D01*
X51992989Y-62441706D01*
X52044500Y-62430500D01*
X101842017Y-62430500D01*
X101909056Y-62450185D01*
G37*
G04 #@! TD.AperFunction*
G04 #@! TD*
M02*
