%TF.GenerationSoftware,KiCad,Pcbnew,9.0.5*%
%TF.CreationDate,2025-10-23T20:31:54+13:00*%
%TF.ProjectId,Gateway_PCB,47617465-7761-4795-9f50-43422e6b6963,rev?*%
%TF.SameCoordinates,Original*%
%TF.FileFunction,Drillmap*%
%TF.FilePolarity,Positive*%
%FSLAX45Y45*%
G04 Gerber Fmt 4.5, Leading zero omitted, Abs format (unit mm)*
G04 Created by KiCad (PCBNEW 9.0.5) date 2025-10-23 20:31:54*
%MOMM*%
%LPD*%
G01*
G04 APERTURE LIST*
%ADD10C,0.050000*%
%ADD11C,0.010000*%
%ADD12C,0.100000*%
%ADD13C,0.200000*%
G04 APERTURE END LIST*
D10*
X5150000Y-7500000D02*
X6775000Y-7500000D01*
D11*
X5150000Y-4700000D02*
X5150000Y-7500000D01*
X5150000Y-4700000D02*
X11100000Y-4700000D01*
X6775000Y-5600000D02*
X9900000Y-5600000D01*
D10*
X6775000Y-5600000D02*
X6775000Y-7500000D01*
D11*
X11100000Y-4700000D02*
X11100000Y-7150000D01*
X9900000Y-7150000D02*
X11100000Y-7150000D01*
X9900000Y-5600000D02*
X9900000Y-7150000D01*
D12*
X5540000Y-5250000D02*
G75*
G02*
X5260000Y-5250000I-140000J0D01*
G01*
X5260000Y-5250000D02*
G75*
G02*
X5540000Y-5250000I140000J0D01*
G01*
D13*
D12*
X5235000Y-4885000D02*
X5265000Y-4915000D01*
X5265000Y-4885000D02*
X5235000Y-4915000D01*
X5235000Y-7310000D02*
X5265000Y-7340000D01*
X5265000Y-7310000D02*
X5235000Y-7340000D01*
X5825000Y-5615000D02*
X5855000Y-5645000D01*
X5855000Y-5615000D02*
X5825000Y-5645000D01*
X6005000Y-5555000D02*
X6035000Y-5585000D01*
X6035000Y-5555000D02*
X6005000Y-5585000D01*
X6155000Y-5415000D02*
X6185000Y-5445000D01*
X6185000Y-5415000D02*
X6155000Y-5445000D01*
X6472500Y-6872500D02*
X6502500Y-6902500D01*
X6502500Y-6872500D02*
X6472500Y-6902500D01*
X6585000Y-7310000D02*
X6615000Y-7340000D01*
X6615000Y-7310000D02*
X6585000Y-7340000D01*
X6610000Y-6300000D02*
X6640000Y-6330000D01*
X6640000Y-6300000D02*
X6610000Y-6330000D01*
X6665000Y-5585000D02*
X6695000Y-5615000D01*
X6695000Y-5585000D02*
X6665000Y-5615000D01*
X7285000Y-4860000D02*
X7315000Y-4890000D01*
X7315000Y-4860000D02*
X7285000Y-4890000D01*
X7285000Y-5010000D02*
X7315000Y-5040000D01*
X7315000Y-5010000D02*
X7285000Y-5040000D01*
X8710000Y-4955000D02*
X8740000Y-4985000D01*
X8740000Y-4955000D02*
X8710000Y-4985000D01*
X9255000Y-4860000D02*
X9285000Y-4890000D01*
X9285000Y-4860000D02*
X9255000Y-4890000D01*
X9255000Y-5010000D02*
X9285000Y-5040000D01*
X9285000Y-5010000D02*
X9255000Y-5040000D01*
X9975000Y-5515000D02*
X10005000Y-5545000D01*
X10005000Y-5515000D02*
X9975000Y-5545000D01*
X10360000Y-5425000D02*
X10390000Y-5455000D01*
X10390000Y-5425000D02*
X10360000Y-5455000D01*
X10785000Y-6385000D02*
X10815000Y-6415000D01*
X10815000Y-6385000D02*
X10785000Y-6415000D01*
X10860000Y-6560000D02*
X10890000Y-6590000D01*
X10890000Y-6560000D02*
X10860000Y-6590000D01*
X10910000Y-4860000D02*
X10940000Y-4890000D01*
X10940000Y-4860000D02*
X10910000Y-4890000D01*
X10935000Y-6960000D02*
X10965000Y-6990000D01*
X10965000Y-6960000D02*
X10935000Y-6990000D01*
X6470000Y-5490000D02*
G75*
G02*
X6430000Y-5490000I-20000J0D01*
G01*
X6430000Y-5490000D02*
G75*
G02*
X6470000Y-5490000I20000J0D01*
G01*
X6720000Y-5230000D02*
G75*
G02*
X6680000Y-5230000I-20000J0D01*
G01*
X6680000Y-5230000D02*
G75*
G02*
X6720000Y-5230000I20000J0D01*
G01*
X10250000Y-5702500D02*
X10250000Y-5777500D01*
X10212500Y-5740000D02*
X10287500Y-5740000D01*
X10250000Y-5956500D02*
X10250000Y-6031500D01*
X10212500Y-5994000D02*
X10287500Y-5994000D01*
X10250000Y-6210500D02*
X10250000Y-6285500D01*
X10212500Y-6248000D02*
X10287500Y-6248000D01*
X10250000Y-6464500D02*
X10250000Y-6539500D01*
X10212500Y-6502000D02*
X10287500Y-6502000D01*
X10250000Y-6718500D02*
X10250000Y-6793500D01*
X10212500Y-6756000D02*
X10287500Y-6756000D01*
X10250000Y-6972500D02*
X10250000Y-7047500D01*
X10212500Y-7010000D02*
X10287500Y-7010000D01*
X10504000Y-5702500D02*
X10504000Y-5777500D01*
X10466500Y-5740000D02*
X10541500Y-5740000D01*
X10504000Y-5956500D02*
X10504000Y-6031500D01*
X10466500Y-5994000D02*
X10541500Y-5994000D01*
X10504000Y-6210500D02*
X10504000Y-6285500D01*
X10466500Y-6248000D02*
X10541500Y-6248000D01*
X10504000Y-6464500D02*
X10504000Y-6539500D01*
X10466500Y-6502000D02*
X10541500Y-6502000D01*
X10504000Y-6718500D02*
X10504000Y-6793500D01*
X10466500Y-6756000D02*
X10541500Y-6756000D01*
X10504000Y-6972500D02*
X10504000Y-7047500D01*
X10466500Y-7010000D02*
X10541500Y-7010000D01*
X6809659Y-6218034D02*
X6809659Y-6161465D01*
X6753090Y-6161465D01*
X6753090Y-6218034D01*
X6809659Y-6218034D01*
X6809659Y-6345034D02*
X6809659Y-6288465D01*
X6753090Y-6288465D01*
X6753090Y-6345034D01*
X6809659Y-6345034D01*
X6809659Y-6472034D02*
X6809659Y-6415465D01*
X6753090Y-6415465D01*
X6753090Y-6472034D01*
X6809659Y-6472034D01*
X6809659Y-6726034D02*
X6809659Y-6669465D01*
X6753090Y-6669465D01*
X6753090Y-6726034D01*
X6809659Y-6726034D01*
X6809659Y-6853034D02*
X6809659Y-6796465D01*
X6753090Y-6796465D01*
X6753090Y-6853034D01*
X6809659Y-6853034D01*
X6809659Y-6980034D02*
X6809659Y-6923465D01*
X6753090Y-6923465D01*
X6753090Y-6980034D01*
X6809659Y-6980034D01*
D13*
X5408277Y-7813984D02*
X5408277Y-7613984D01*
X5408277Y-7613984D02*
X5455896Y-7613984D01*
X5455896Y-7613984D02*
X5484467Y-7623508D01*
X5484467Y-7623508D02*
X5503515Y-7642555D01*
X5503515Y-7642555D02*
X5513039Y-7661603D01*
X5513039Y-7661603D02*
X5522563Y-7699698D01*
X5522563Y-7699698D02*
X5522563Y-7728269D01*
X5522563Y-7728269D02*
X5513039Y-7766365D01*
X5513039Y-7766365D02*
X5503515Y-7785412D01*
X5503515Y-7785412D02*
X5484467Y-7804460D01*
X5484467Y-7804460D02*
X5455896Y-7813984D01*
X5455896Y-7813984D02*
X5408277Y-7813984D01*
X5608277Y-7813984D02*
X5608277Y-7680650D01*
X5608277Y-7718746D02*
X5617801Y-7699698D01*
X5617801Y-7699698D02*
X5627324Y-7690174D01*
X5627324Y-7690174D02*
X5646372Y-7680650D01*
X5646372Y-7680650D02*
X5665420Y-7680650D01*
X5732086Y-7813984D02*
X5732086Y-7680650D01*
X5732086Y-7613984D02*
X5722562Y-7623508D01*
X5722562Y-7623508D02*
X5732086Y-7633031D01*
X5732086Y-7633031D02*
X5741610Y-7623508D01*
X5741610Y-7623508D02*
X5732086Y-7613984D01*
X5732086Y-7613984D02*
X5732086Y-7633031D01*
X5855896Y-7813984D02*
X5836848Y-7804460D01*
X5836848Y-7804460D02*
X5827324Y-7785412D01*
X5827324Y-7785412D02*
X5827324Y-7613984D01*
X5960658Y-7813984D02*
X5941610Y-7804460D01*
X5941610Y-7804460D02*
X5932086Y-7785412D01*
X5932086Y-7785412D02*
X5932086Y-7613984D01*
X6189229Y-7813984D02*
X6189229Y-7613984D01*
X6189229Y-7613984D02*
X6255896Y-7756841D01*
X6255896Y-7756841D02*
X6322562Y-7613984D01*
X6322562Y-7613984D02*
X6322562Y-7813984D01*
X6503515Y-7813984D02*
X6503515Y-7709222D01*
X6503515Y-7709222D02*
X6493991Y-7690174D01*
X6493991Y-7690174D02*
X6474943Y-7680650D01*
X6474943Y-7680650D02*
X6436848Y-7680650D01*
X6436848Y-7680650D02*
X6417801Y-7690174D01*
X6503515Y-7804460D02*
X6484467Y-7813984D01*
X6484467Y-7813984D02*
X6436848Y-7813984D01*
X6436848Y-7813984D02*
X6417801Y-7804460D01*
X6417801Y-7804460D02*
X6408277Y-7785412D01*
X6408277Y-7785412D02*
X6408277Y-7766365D01*
X6408277Y-7766365D02*
X6417801Y-7747317D01*
X6417801Y-7747317D02*
X6436848Y-7737793D01*
X6436848Y-7737793D02*
X6484467Y-7737793D01*
X6484467Y-7737793D02*
X6503515Y-7728269D01*
X6598753Y-7680650D02*
X6598753Y-7880650D01*
X6598753Y-7690174D02*
X6617801Y-7680650D01*
X6617801Y-7680650D02*
X6655896Y-7680650D01*
X6655896Y-7680650D02*
X6674943Y-7690174D01*
X6674943Y-7690174D02*
X6684467Y-7699698D01*
X6684467Y-7699698D02*
X6693991Y-7718746D01*
X6693991Y-7718746D02*
X6693991Y-7775888D01*
X6693991Y-7775888D02*
X6684467Y-7794936D01*
X6684467Y-7794936D02*
X6674943Y-7804460D01*
X6674943Y-7804460D02*
X6655896Y-7813984D01*
X6655896Y-7813984D02*
X6617801Y-7813984D01*
X6617801Y-7813984D02*
X6598753Y-7804460D01*
X6779705Y-7794936D02*
X6789229Y-7804460D01*
X6789229Y-7804460D02*
X6779705Y-7813984D01*
X6779705Y-7813984D02*
X6770182Y-7804460D01*
X6770182Y-7804460D02*
X6779705Y-7794936D01*
X6779705Y-7794936D02*
X6779705Y-7813984D01*
X6779705Y-7690174D02*
X6789229Y-7699698D01*
X6789229Y-7699698D02*
X6779705Y-7709222D01*
X6779705Y-7709222D02*
X6770182Y-7699698D01*
X6770182Y-7699698D02*
X6779705Y-7690174D01*
X6779705Y-7690174D02*
X6779705Y-7709222D01*
D12*
X5117500Y-8127500D02*
X5147500Y-8157500D01*
X5147500Y-8127500D02*
X5117500Y-8157500D01*
D13*
X5446372Y-8033984D02*
X5465420Y-8033984D01*
X5465420Y-8033984D02*
X5484467Y-8043508D01*
X5484467Y-8043508D02*
X5493991Y-8053031D01*
X5493991Y-8053031D02*
X5503515Y-8072079D01*
X5503515Y-8072079D02*
X5513039Y-8110174D01*
X5513039Y-8110174D02*
X5513039Y-8157793D01*
X5513039Y-8157793D02*
X5503515Y-8195888D01*
X5503515Y-8195888D02*
X5493991Y-8214936D01*
X5493991Y-8214936D02*
X5484467Y-8224460D01*
X5484467Y-8224460D02*
X5465420Y-8233984D01*
X5465420Y-8233984D02*
X5446372Y-8233984D01*
X5446372Y-8233984D02*
X5427324Y-8224460D01*
X5427324Y-8224460D02*
X5417801Y-8214936D01*
X5417801Y-8214936D02*
X5408277Y-8195888D01*
X5408277Y-8195888D02*
X5398753Y-8157793D01*
X5398753Y-8157793D02*
X5398753Y-8110174D01*
X5398753Y-8110174D02*
X5408277Y-8072079D01*
X5408277Y-8072079D02*
X5417801Y-8053031D01*
X5417801Y-8053031D02*
X5427324Y-8043508D01*
X5427324Y-8043508D02*
X5446372Y-8033984D01*
X5598753Y-8214936D02*
X5608277Y-8224460D01*
X5608277Y-8224460D02*
X5598753Y-8233984D01*
X5598753Y-8233984D02*
X5589229Y-8224460D01*
X5589229Y-8224460D02*
X5598753Y-8214936D01*
X5598753Y-8214936D02*
X5598753Y-8233984D01*
X5674943Y-8033984D02*
X5798753Y-8033984D01*
X5798753Y-8033984D02*
X5732086Y-8110174D01*
X5732086Y-8110174D02*
X5760658Y-8110174D01*
X5760658Y-8110174D02*
X5779705Y-8119698D01*
X5779705Y-8119698D02*
X5789229Y-8129222D01*
X5789229Y-8129222D02*
X5798753Y-8148269D01*
X5798753Y-8148269D02*
X5798753Y-8195888D01*
X5798753Y-8195888D02*
X5789229Y-8214936D01*
X5789229Y-8214936D02*
X5779705Y-8224460D01*
X5779705Y-8224460D02*
X5760658Y-8233984D01*
X5760658Y-8233984D02*
X5703515Y-8233984D01*
X5703515Y-8233984D02*
X5684467Y-8224460D01*
X5684467Y-8224460D02*
X5674943Y-8214936D01*
X5922562Y-8033984D02*
X5941610Y-8033984D01*
X5941610Y-8033984D02*
X5960658Y-8043508D01*
X5960658Y-8043508D02*
X5970182Y-8053031D01*
X5970182Y-8053031D02*
X5979705Y-8072079D01*
X5979705Y-8072079D02*
X5989229Y-8110174D01*
X5989229Y-8110174D02*
X5989229Y-8157793D01*
X5989229Y-8157793D02*
X5979705Y-8195888D01*
X5979705Y-8195888D02*
X5970182Y-8214936D01*
X5970182Y-8214936D02*
X5960658Y-8224460D01*
X5960658Y-8224460D02*
X5941610Y-8233984D01*
X5941610Y-8233984D02*
X5922562Y-8233984D01*
X5922562Y-8233984D02*
X5903515Y-8224460D01*
X5903515Y-8224460D02*
X5893991Y-8214936D01*
X5893991Y-8214936D02*
X5884467Y-8195888D01*
X5884467Y-8195888D02*
X5874943Y-8157793D01*
X5874943Y-8157793D02*
X5874943Y-8110174D01*
X5874943Y-8110174D02*
X5884467Y-8072079D01*
X5884467Y-8072079D02*
X5893991Y-8053031D01*
X5893991Y-8053031D02*
X5903515Y-8043508D01*
X5903515Y-8043508D02*
X5922562Y-8033984D01*
X6113039Y-8033984D02*
X6132086Y-8033984D01*
X6132086Y-8033984D02*
X6151134Y-8043508D01*
X6151134Y-8043508D02*
X6160658Y-8053031D01*
X6160658Y-8053031D02*
X6170182Y-8072079D01*
X6170182Y-8072079D02*
X6179705Y-8110174D01*
X6179705Y-8110174D02*
X6179705Y-8157793D01*
X6179705Y-8157793D02*
X6170182Y-8195888D01*
X6170182Y-8195888D02*
X6160658Y-8214936D01*
X6160658Y-8214936D02*
X6151134Y-8224460D01*
X6151134Y-8224460D02*
X6132086Y-8233984D01*
X6132086Y-8233984D02*
X6113039Y-8233984D01*
X6113039Y-8233984D02*
X6093991Y-8224460D01*
X6093991Y-8224460D02*
X6084467Y-8214936D01*
X6084467Y-8214936D02*
X6074943Y-8195888D01*
X6074943Y-8195888D02*
X6065420Y-8157793D01*
X6065420Y-8157793D02*
X6065420Y-8110174D01*
X6065420Y-8110174D02*
X6074943Y-8072079D01*
X6074943Y-8072079D02*
X6084467Y-8053031D01*
X6084467Y-8053031D02*
X6093991Y-8043508D01*
X6093991Y-8043508D02*
X6113039Y-8033984D01*
X6265420Y-8233984D02*
X6265420Y-8100650D01*
X6265420Y-8119698D02*
X6274943Y-8110174D01*
X6274943Y-8110174D02*
X6293991Y-8100650D01*
X6293991Y-8100650D02*
X6322563Y-8100650D01*
X6322563Y-8100650D02*
X6341610Y-8110174D01*
X6341610Y-8110174D02*
X6351134Y-8129222D01*
X6351134Y-8129222D02*
X6351134Y-8233984D01*
X6351134Y-8129222D02*
X6360658Y-8110174D01*
X6360658Y-8110174D02*
X6379705Y-8100650D01*
X6379705Y-8100650D02*
X6408277Y-8100650D01*
X6408277Y-8100650D02*
X6427324Y-8110174D01*
X6427324Y-8110174D02*
X6436848Y-8129222D01*
X6436848Y-8129222D02*
X6436848Y-8233984D01*
X6532086Y-8233984D02*
X6532086Y-8100650D01*
X6532086Y-8119698D02*
X6541610Y-8110174D01*
X6541610Y-8110174D02*
X6560658Y-8100650D01*
X6560658Y-8100650D02*
X6589229Y-8100650D01*
X6589229Y-8100650D02*
X6608277Y-8110174D01*
X6608277Y-8110174D02*
X6617801Y-8129222D01*
X6617801Y-8129222D02*
X6617801Y-8233984D01*
X6617801Y-8129222D02*
X6627324Y-8110174D01*
X6627324Y-8110174D02*
X6646372Y-8100650D01*
X6646372Y-8100650D02*
X6674943Y-8100650D01*
X6674943Y-8100650D02*
X6693991Y-8110174D01*
X6693991Y-8110174D02*
X6703515Y-8129222D01*
X6703515Y-8129222D02*
X6703515Y-8233984D01*
X7093991Y-8024460D02*
X6922563Y-8281603D01*
X7351134Y-8033984D02*
X7370182Y-8033984D01*
X7370182Y-8033984D02*
X7389229Y-8043508D01*
X7389229Y-8043508D02*
X7398753Y-8053031D01*
X7398753Y-8053031D02*
X7408277Y-8072079D01*
X7408277Y-8072079D02*
X7417801Y-8110174D01*
X7417801Y-8110174D02*
X7417801Y-8157793D01*
X7417801Y-8157793D02*
X7408277Y-8195888D01*
X7408277Y-8195888D02*
X7398753Y-8214936D01*
X7398753Y-8214936D02*
X7389229Y-8224460D01*
X7389229Y-8224460D02*
X7370182Y-8233984D01*
X7370182Y-8233984D02*
X7351134Y-8233984D01*
X7351134Y-8233984D02*
X7332086Y-8224460D01*
X7332086Y-8224460D02*
X7322563Y-8214936D01*
X7322563Y-8214936D02*
X7313039Y-8195888D01*
X7313039Y-8195888D02*
X7303515Y-8157793D01*
X7303515Y-8157793D02*
X7303515Y-8110174D01*
X7303515Y-8110174D02*
X7313039Y-8072079D01*
X7313039Y-8072079D02*
X7322563Y-8053031D01*
X7322563Y-8053031D02*
X7332086Y-8043508D01*
X7332086Y-8043508D02*
X7351134Y-8033984D01*
X7503515Y-8214936D02*
X7513039Y-8224460D01*
X7513039Y-8224460D02*
X7503515Y-8233984D01*
X7503515Y-8233984D02*
X7493991Y-8224460D01*
X7493991Y-8224460D02*
X7503515Y-8214936D01*
X7503515Y-8214936D02*
X7503515Y-8233984D01*
X7636848Y-8033984D02*
X7655896Y-8033984D01*
X7655896Y-8033984D02*
X7674944Y-8043508D01*
X7674944Y-8043508D02*
X7684467Y-8053031D01*
X7684467Y-8053031D02*
X7693991Y-8072079D01*
X7693991Y-8072079D02*
X7703515Y-8110174D01*
X7703515Y-8110174D02*
X7703515Y-8157793D01*
X7703515Y-8157793D02*
X7693991Y-8195888D01*
X7693991Y-8195888D02*
X7684467Y-8214936D01*
X7684467Y-8214936D02*
X7674944Y-8224460D01*
X7674944Y-8224460D02*
X7655896Y-8233984D01*
X7655896Y-8233984D02*
X7636848Y-8233984D01*
X7636848Y-8233984D02*
X7617801Y-8224460D01*
X7617801Y-8224460D02*
X7608277Y-8214936D01*
X7608277Y-8214936D02*
X7598753Y-8195888D01*
X7598753Y-8195888D02*
X7589229Y-8157793D01*
X7589229Y-8157793D02*
X7589229Y-8110174D01*
X7589229Y-8110174D02*
X7598753Y-8072079D01*
X7598753Y-8072079D02*
X7608277Y-8053031D01*
X7608277Y-8053031D02*
X7617801Y-8043508D01*
X7617801Y-8043508D02*
X7636848Y-8033984D01*
X7893991Y-8233984D02*
X7779706Y-8233984D01*
X7836848Y-8233984D02*
X7836848Y-8033984D01*
X7836848Y-8033984D02*
X7817801Y-8062555D01*
X7817801Y-8062555D02*
X7798753Y-8081603D01*
X7798753Y-8081603D02*
X7779706Y-8091127D01*
X8084467Y-8233984D02*
X7970182Y-8233984D01*
X8027325Y-8233984D02*
X8027325Y-8033984D01*
X8027325Y-8033984D02*
X8008277Y-8062555D01*
X8008277Y-8062555D02*
X7989229Y-8081603D01*
X7989229Y-8081603D02*
X7970182Y-8091127D01*
X8198753Y-8119698D02*
X8179706Y-8110174D01*
X8179706Y-8110174D02*
X8170182Y-8100650D01*
X8170182Y-8100650D02*
X8160658Y-8081603D01*
X8160658Y-8081603D02*
X8160658Y-8072079D01*
X8160658Y-8072079D02*
X8170182Y-8053031D01*
X8170182Y-8053031D02*
X8179706Y-8043508D01*
X8179706Y-8043508D02*
X8198753Y-8033984D01*
X8198753Y-8033984D02*
X8236848Y-8033984D01*
X8236848Y-8033984D02*
X8255896Y-8043508D01*
X8255896Y-8043508D02*
X8265420Y-8053031D01*
X8265420Y-8053031D02*
X8274944Y-8072079D01*
X8274944Y-8072079D02*
X8274944Y-8081603D01*
X8274944Y-8081603D02*
X8265420Y-8100650D01*
X8265420Y-8100650D02*
X8255896Y-8110174D01*
X8255896Y-8110174D02*
X8236848Y-8119698D01*
X8236848Y-8119698D02*
X8198753Y-8119698D01*
X8198753Y-8119698D02*
X8179706Y-8129222D01*
X8179706Y-8129222D02*
X8170182Y-8138746D01*
X8170182Y-8138746D02*
X8160658Y-8157793D01*
X8160658Y-8157793D02*
X8160658Y-8195888D01*
X8160658Y-8195888D02*
X8170182Y-8214936D01*
X8170182Y-8214936D02*
X8179706Y-8224460D01*
X8179706Y-8224460D02*
X8198753Y-8233984D01*
X8198753Y-8233984D02*
X8236848Y-8233984D01*
X8236848Y-8233984D02*
X8255896Y-8224460D01*
X8255896Y-8224460D02*
X8265420Y-8214936D01*
X8265420Y-8214936D02*
X8274944Y-8195888D01*
X8274944Y-8195888D02*
X8274944Y-8157793D01*
X8274944Y-8157793D02*
X8265420Y-8138746D01*
X8265420Y-8138746D02*
X8255896Y-8129222D01*
X8255896Y-8129222D02*
X8236848Y-8119698D01*
X8351134Y-8033984D02*
X8351134Y-8072079D01*
X8427325Y-8033984D02*
X8427325Y-8072079D01*
X8722563Y-8310174D02*
X8713039Y-8300650D01*
X8713039Y-8300650D02*
X8693991Y-8272079D01*
X8693991Y-8272079D02*
X8684468Y-8253031D01*
X8684468Y-8253031D02*
X8674944Y-8224460D01*
X8674944Y-8224460D02*
X8665420Y-8176841D01*
X8665420Y-8176841D02*
X8665420Y-8138746D01*
X8665420Y-8138746D02*
X8674944Y-8091127D01*
X8674944Y-8091127D02*
X8684468Y-8062555D01*
X8684468Y-8062555D02*
X8693991Y-8043508D01*
X8693991Y-8043508D02*
X8713039Y-8014936D01*
X8713039Y-8014936D02*
X8722563Y-8005412D01*
X8789230Y-8053031D02*
X8798753Y-8043508D01*
X8798753Y-8043508D02*
X8817801Y-8033984D01*
X8817801Y-8033984D02*
X8865420Y-8033984D01*
X8865420Y-8033984D02*
X8884468Y-8043508D01*
X8884468Y-8043508D02*
X8893991Y-8053031D01*
X8893991Y-8053031D02*
X8903515Y-8072079D01*
X8903515Y-8072079D02*
X8903515Y-8091127D01*
X8903515Y-8091127D02*
X8893991Y-8119698D01*
X8893991Y-8119698D02*
X8779706Y-8233984D01*
X8779706Y-8233984D02*
X8903515Y-8233984D01*
X9027325Y-8033984D02*
X9046372Y-8033984D01*
X9046372Y-8033984D02*
X9065420Y-8043508D01*
X9065420Y-8043508D02*
X9074944Y-8053031D01*
X9074944Y-8053031D02*
X9084468Y-8072079D01*
X9084468Y-8072079D02*
X9093991Y-8110174D01*
X9093991Y-8110174D02*
X9093991Y-8157793D01*
X9093991Y-8157793D02*
X9084468Y-8195888D01*
X9084468Y-8195888D02*
X9074944Y-8214936D01*
X9074944Y-8214936D02*
X9065420Y-8224460D01*
X9065420Y-8224460D02*
X9046372Y-8233984D01*
X9046372Y-8233984D02*
X9027325Y-8233984D01*
X9027325Y-8233984D02*
X9008277Y-8224460D01*
X9008277Y-8224460D02*
X8998753Y-8214936D01*
X8998753Y-8214936D02*
X8989230Y-8195888D01*
X8989230Y-8195888D02*
X8979706Y-8157793D01*
X8979706Y-8157793D02*
X8979706Y-8110174D01*
X8979706Y-8110174D02*
X8989230Y-8072079D01*
X8989230Y-8072079D02*
X8998753Y-8053031D01*
X8998753Y-8053031D02*
X9008277Y-8043508D01*
X9008277Y-8043508D02*
X9027325Y-8033984D01*
X9332087Y-8233984D02*
X9332087Y-8033984D01*
X9417801Y-8233984D02*
X9417801Y-8129222D01*
X9417801Y-8129222D02*
X9408277Y-8110174D01*
X9408277Y-8110174D02*
X9389230Y-8100650D01*
X9389230Y-8100650D02*
X9360658Y-8100650D01*
X9360658Y-8100650D02*
X9341611Y-8110174D01*
X9341611Y-8110174D02*
X9332087Y-8119698D01*
X9541611Y-8233984D02*
X9522563Y-8224460D01*
X9522563Y-8224460D02*
X9513039Y-8214936D01*
X9513039Y-8214936D02*
X9503515Y-8195888D01*
X9503515Y-8195888D02*
X9503515Y-8138746D01*
X9503515Y-8138746D02*
X9513039Y-8119698D01*
X9513039Y-8119698D02*
X9522563Y-8110174D01*
X9522563Y-8110174D02*
X9541611Y-8100650D01*
X9541611Y-8100650D02*
X9570182Y-8100650D01*
X9570182Y-8100650D02*
X9589230Y-8110174D01*
X9589230Y-8110174D02*
X9598753Y-8119698D01*
X9598753Y-8119698D02*
X9608277Y-8138746D01*
X9608277Y-8138746D02*
X9608277Y-8195888D01*
X9608277Y-8195888D02*
X9598753Y-8214936D01*
X9598753Y-8214936D02*
X9589230Y-8224460D01*
X9589230Y-8224460D02*
X9570182Y-8233984D01*
X9570182Y-8233984D02*
X9541611Y-8233984D01*
X9722563Y-8233984D02*
X9703515Y-8224460D01*
X9703515Y-8224460D02*
X9693992Y-8205412D01*
X9693992Y-8205412D02*
X9693992Y-8033984D01*
X9874944Y-8224460D02*
X9855896Y-8233984D01*
X9855896Y-8233984D02*
X9817801Y-8233984D01*
X9817801Y-8233984D02*
X9798753Y-8224460D01*
X9798753Y-8224460D02*
X9789230Y-8205412D01*
X9789230Y-8205412D02*
X9789230Y-8129222D01*
X9789230Y-8129222D02*
X9798753Y-8110174D01*
X9798753Y-8110174D02*
X9817801Y-8100650D01*
X9817801Y-8100650D02*
X9855896Y-8100650D01*
X9855896Y-8100650D02*
X9874944Y-8110174D01*
X9874944Y-8110174D02*
X9884468Y-8129222D01*
X9884468Y-8129222D02*
X9884468Y-8148269D01*
X9884468Y-8148269D02*
X9789230Y-8167317D01*
X9960658Y-8224460D02*
X9979706Y-8233984D01*
X9979706Y-8233984D02*
X10017801Y-8233984D01*
X10017801Y-8233984D02*
X10036849Y-8224460D01*
X10036849Y-8224460D02*
X10046373Y-8205412D01*
X10046373Y-8205412D02*
X10046373Y-8195888D01*
X10046373Y-8195888D02*
X10036849Y-8176841D01*
X10036849Y-8176841D02*
X10017801Y-8167317D01*
X10017801Y-8167317D02*
X9989230Y-8167317D01*
X9989230Y-8167317D02*
X9970182Y-8157793D01*
X9970182Y-8157793D02*
X9960658Y-8138746D01*
X9960658Y-8138746D02*
X9960658Y-8129222D01*
X9960658Y-8129222D02*
X9970182Y-8110174D01*
X9970182Y-8110174D02*
X9989230Y-8100650D01*
X9989230Y-8100650D02*
X10017801Y-8100650D01*
X10017801Y-8100650D02*
X10036849Y-8110174D01*
X10113039Y-8310174D02*
X10122563Y-8300650D01*
X10122563Y-8300650D02*
X10141611Y-8272079D01*
X10141611Y-8272079D02*
X10151134Y-8253031D01*
X10151134Y-8253031D02*
X10160658Y-8224460D01*
X10160658Y-8224460D02*
X10170182Y-8176841D01*
X10170182Y-8176841D02*
X10170182Y-8138746D01*
X10170182Y-8138746D02*
X10160658Y-8091127D01*
X10160658Y-8091127D02*
X10151134Y-8062555D01*
X10151134Y-8062555D02*
X10141611Y-8043508D01*
X10141611Y-8043508D02*
X10122563Y-8014936D01*
X10122563Y-8014936D02*
X10113039Y-8005412D01*
D12*
X5147500Y-8406500D02*
G75*
G02*
X5107500Y-8406500I-20000J0D01*
G01*
X5107500Y-8406500D02*
G75*
G02*
X5147500Y-8406500I20000J0D01*
G01*
D13*
X5446372Y-8297984D02*
X5465420Y-8297984D01*
X5465420Y-8297984D02*
X5484467Y-8307508D01*
X5484467Y-8307508D02*
X5493991Y-8317031D01*
X5493991Y-8317031D02*
X5503515Y-8336079D01*
X5503515Y-8336079D02*
X5513039Y-8374174D01*
X5513039Y-8374174D02*
X5513039Y-8421793D01*
X5513039Y-8421793D02*
X5503515Y-8459889D01*
X5503515Y-8459889D02*
X5493991Y-8478936D01*
X5493991Y-8478936D02*
X5484467Y-8488460D01*
X5484467Y-8488460D02*
X5465420Y-8497984D01*
X5465420Y-8497984D02*
X5446372Y-8497984D01*
X5446372Y-8497984D02*
X5427324Y-8488460D01*
X5427324Y-8488460D02*
X5417801Y-8478936D01*
X5417801Y-8478936D02*
X5408277Y-8459889D01*
X5408277Y-8459889D02*
X5398753Y-8421793D01*
X5398753Y-8421793D02*
X5398753Y-8374174D01*
X5398753Y-8374174D02*
X5408277Y-8336079D01*
X5408277Y-8336079D02*
X5417801Y-8317031D01*
X5417801Y-8317031D02*
X5427324Y-8307508D01*
X5427324Y-8307508D02*
X5446372Y-8297984D01*
X5598753Y-8478936D02*
X5608277Y-8488460D01*
X5608277Y-8488460D02*
X5598753Y-8497984D01*
X5598753Y-8497984D02*
X5589229Y-8488460D01*
X5589229Y-8488460D02*
X5598753Y-8478936D01*
X5598753Y-8478936D02*
X5598753Y-8497984D01*
X5779705Y-8364650D02*
X5779705Y-8497984D01*
X5732086Y-8288460D02*
X5684467Y-8431317D01*
X5684467Y-8431317D02*
X5808277Y-8431317D01*
X5922562Y-8297984D02*
X5941610Y-8297984D01*
X5941610Y-8297984D02*
X5960658Y-8307508D01*
X5960658Y-8307508D02*
X5970182Y-8317031D01*
X5970182Y-8317031D02*
X5979705Y-8336079D01*
X5979705Y-8336079D02*
X5989229Y-8374174D01*
X5989229Y-8374174D02*
X5989229Y-8421793D01*
X5989229Y-8421793D02*
X5979705Y-8459889D01*
X5979705Y-8459889D02*
X5970182Y-8478936D01*
X5970182Y-8478936D02*
X5960658Y-8488460D01*
X5960658Y-8488460D02*
X5941610Y-8497984D01*
X5941610Y-8497984D02*
X5922562Y-8497984D01*
X5922562Y-8497984D02*
X5903515Y-8488460D01*
X5903515Y-8488460D02*
X5893991Y-8478936D01*
X5893991Y-8478936D02*
X5884467Y-8459889D01*
X5884467Y-8459889D02*
X5874943Y-8421793D01*
X5874943Y-8421793D02*
X5874943Y-8374174D01*
X5874943Y-8374174D02*
X5884467Y-8336079D01*
X5884467Y-8336079D02*
X5893991Y-8317031D01*
X5893991Y-8317031D02*
X5903515Y-8307508D01*
X5903515Y-8307508D02*
X5922562Y-8297984D01*
X6113039Y-8297984D02*
X6132086Y-8297984D01*
X6132086Y-8297984D02*
X6151134Y-8307508D01*
X6151134Y-8307508D02*
X6160658Y-8317031D01*
X6160658Y-8317031D02*
X6170182Y-8336079D01*
X6170182Y-8336079D02*
X6179705Y-8374174D01*
X6179705Y-8374174D02*
X6179705Y-8421793D01*
X6179705Y-8421793D02*
X6170182Y-8459889D01*
X6170182Y-8459889D02*
X6160658Y-8478936D01*
X6160658Y-8478936D02*
X6151134Y-8488460D01*
X6151134Y-8488460D02*
X6132086Y-8497984D01*
X6132086Y-8497984D02*
X6113039Y-8497984D01*
X6113039Y-8497984D02*
X6093991Y-8488460D01*
X6093991Y-8488460D02*
X6084467Y-8478936D01*
X6084467Y-8478936D02*
X6074943Y-8459889D01*
X6074943Y-8459889D02*
X6065420Y-8421793D01*
X6065420Y-8421793D02*
X6065420Y-8374174D01*
X6065420Y-8374174D02*
X6074943Y-8336079D01*
X6074943Y-8336079D02*
X6084467Y-8317031D01*
X6084467Y-8317031D02*
X6093991Y-8307508D01*
X6093991Y-8307508D02*
X6113039Y-8297984D01*
X6265420Y-8497984D02*
X6265420Y-8364650D01*
X6265420Y-8383698D02*
X6274943Y-8374174D01*
X6274943Y-8374174D02*
X6293991Y-8364650D01*
X6293991Y-8364650D02*
X6322563Y-8364650D01*
X6322563Y-8364650D02*
X6341610Y-8374174D01*
X6341610Y-8374174D02*
X6351134Y-8393222D01*
X6351134Y-8393222D02*
X6351134Y-8497984D01*
X6351134Y-8393222D02*
X6360658Y-8374174D01*
X6360658Y-8374174D02*
X6379705Y-8364650D01*
X6379705Y-8364650D02*
X6408277Y-8364650D01*
X6408277Y-8364650D02*
X6427324Y-8374174D01*
X6427324Y-8374174D02*
X6436848Y-8393222D01*
X6436848Y-8393222D02*
X6436848Y-8497984D01*
X6532086Y-8497984D02*
X6532086Y-8364650D01*
X6532086Y-8383698D02*
X6541610Y-8374174D01*
X6541610Y-8374174D02*
X6560658Y-8364650D01*
X6560658Y-8364650D02*
X6589229Y-8364650D01*
X6589229Y-8364650D02*
X6608277Y-8374174D01*
X6608277Y-8374174D02*
X6617801Y-8393222D01*
X6617801Y-8393222D02*
X6617801Y-8497984D01*
X6617801Y-8393222D02*
X6627324Y-8374174D01*
X6627324Y-8374174D02*
X6646372Y-8364650D01*
X6646372Y-8364650D02*
X6674943Y-8364650D01*
X6674943Y-8364650D02*
X6693991Y-8374174D01*
X6693991Y-8374174D02*
X6703515Y-8393222D01*
X6703515Y-8393222D02*
X6703515Y-8497984D01*
X7093991Y-8288460D02*
X6922563Y-8545603D01*
X7351134Y-8297984D02*
X7370182Y-8297984D01*
X7370182Y-8297984D02*
X7389229Y-8307508D01*
X7389229Y-8307508D02*
X7398753Y-8317031D01*
X7398753Y-8317031D02*
X7408277Y-8336079D01*
X7408277Y-8336079D02*
X7417801Y-8374174D01*
X7417801Y-8374174D02*
X7417801Y-8421793D01*
X7417801Y-8421793D02*
X7408277Y-8459889D01*
X7408277Y-8459889D02*
X7398753Y-8478936D01*
X7398753Y-8478936D02*
X7389229Y-8488460D01*
X7389229Y-8488460D02*
X7370182Y-8497984D01*
X7370182Y-8497984D02*
X7351134Y-8497984D01*
X7351134Y-8497984D02*
X7332086Y-8488460D01*
X7332086Y-8488460D02*
X7322563Y-8478936D01*
X7322563Y-8478936D02*
X7313039Y-8459889D01*
X7313039Y-8459889D02*
X7303515Y-8421793D01*
X7303515Y-8421793D02*
X7303515Y-8374174D01*
X7303515Y-8374174D02*
X7313039Y-8336079D01*
X7313039Y-8336079D02*
X7322563Y-8317031D01*
X7322563Y-8317031D02*
X7332086Y-8307508D01*
X7332086Y-8307508D02*
X7351134Y-8297984D01*
X7503515Y-8478936D02*
X7513039Y-8488460D01*
X7513039Y-8488460D02*
X7503515Y-8497984D01*
X7503515Y-8497984D02*
X7493991Y-8488460D01*
X7493991Y-8488460D02*
X7503515Y-8478936D01*
X7503515Y-8478936D02*
X7503515Y-8497984D01*
X7636848Y-8297984D02*
X7655896Y-8297984D01*
X7655896Y-8297984D02*
X7674944Y-8307508D01*
X7674944Y-8307508D02*
X7684467Y-8317031D01*
X7684467Y-8317031D02*
X7693991Y-8336079D01*
X7693991Y-8336079D02*
X7703515Y-8374174D01*
X7703515Y-8374174D02*
X7703515Y-8421793D01*
X7703515Y-8421793D02*
X7693991Y-8459889D01*
X7693991Y-8459889D02*
X7684467Y-8478936D01*
X7684467Y-8478936D02*
X7674944Y-8488460D01*
X7674944Y-8488460D02*
X7655896Y-8497984D01*
X7655896Y-8497984D02*
X7636848Y-8497984D01*
X7636848Y-8497984D02*
X7617801Y-8488460D01*
X7617801Y-8488460D02*
X7608277Y-8478936D01*
X7608277Y-8478936D02*
X7598753Y-8459889D01*
X7598753Y-8459889D02*
X7589229Y-8421793D01*
X7589229Y-8421793D02*
X7589229Y-8374174D01*
X7589229Y-8374174D02*
X7598753Y-8336079D01*
X7598753Y-8336079D02*
X7608277Y-8317031D01*
X7608277Y-8317031D02*
X7617801Y-8307508D01*
X7617801Y-8307508D02*
X7636848Y-8297984D01*
X7893991Y-8497984D02*
X7779706Y-8497984D01*
X7836848Y-8497984D02*
X7836848Y-8297984D01*
X7836848Y-8297984D02*
X7817801Y-8326555D01*
X7817801Y-8326555D02*
X7798753Y-8345603D01*
X7798753Y-8345603D02*
X7779706Y-8355127D01*
X8074944Y-8297984D02*
X7979706Y-8297984D01*
X7979706Y-8297984D02*
X7970182Y-8393222D01*
X7970182Y-8393222D02*
X7979706Y-8383698D01*
X7979706Y-8383698D02*
X7998753Y-8374174D01*
X7998753Y-8374174D02*
X8046372Y-8374174D01*
X8046372Y-8374174D02*
X8065420Y-8383698D01*
X8065420Y-8383698D02*
X8074944Y-8393222D01*
X8074944Y-8393222D02*
X8084467Y-8412270D01*
X8084467Y-8412270D02*
X8084467Y-8459889D01*
X8084467Y-8459889D02*
X8074944Y-8478936D01*
X8074944Y-8478936D02*
X8065420Y-8488460D01*
X8065420Y-8488460D02*
X8046372Y-8497984D01*
X8046372Y-8497984D02*
X7998753Y-8497984D01*
X7998753Y-8497984D02*
X7979706Y-8488460D01*
X7979706Y-8488460D02*
X7970182Y-8478936D01*
X8151134Y-8297984D02*
X8284467Y-8297984D01*
X8284467Y-8297984D02*
X8198753Y-8497984D01*
X8351134Y-8297984D02*
X8351134Y-8336079D01*
X8427325Y-8297984D02*
X8427325Y-8336079D01*
X8722563Y-8574174D02*
X8713039Y-8564650D01*
X8713039Y-8564650D02*
X8693991Y-8536079D01*
X8693991Y-8536079D02*
X8684468Y-8517031D01*
X8684468Y-8517031D02*
X8674944Y-8488460D01*
X8674944Y-8488460D02*
X8665420Y-8440841D01*
X8665420Y-8440841D02*
X8665420Y-8402746D01*
X8665420Y-8402746D02*
X8674944Y-8355127D01*
X8674944Y-8355127D02*
X8684468Y-8326555D01*
X8684468Y-8326555D02*
X8693991Y-8307508D01*
X8693991Y-8307508D02*
X8713039Y-8278936D01*
X8713039Y-8278936D02*
X8722563Y-8269412D01*
X8789230Y-8317031D02*
X8798753Y-8307508D01*
X8798753Y-8307508D02*
X8817801Y-8297984D01*
X8817801Y-8297984D02*
X8865420Y-8297984D01*
X8865420Y-8297984D02*
X8884468Y-8307508D01*
X8884468Y-8307508D02*
X8893991Y-8317031D01*
X8893991Y-8317031D02*
X8903515Y-8336079D01*
X8903515Y-8336079D02*
X8903515Y-8355127D01*
X8903515Y-8355127D02*
X8893991Y-8383698D01*
X8893991Y-8383698D02*
X8779706Y-8497984D01*
X8779706Y-8497984D02*
X8903515Y-8497984D01*
X9141611Y-8497984D02*
X9141611Y-8297984D01*
X9227325Y-8497984D02*
X9227325Y-8393222D01*
X9227325Y-8393222D02*
X9217801Y-8374174D01*
X9217801Y-8374174D02*
X9198753Y-8364650D01*
X9198753Y-8364650D02*
X9170182Y-8364650D01*
X9170182Y-8364650D02*
X9151134Y-8374174D01*
X9151134Y-8374174D02*
X9141611Y-8383698D01*
X9351134Y-8497984D02*
X9332087Y-8488460D01*
X9332087Y-8488460D02*
X9322563Y-8478936D01*
X9322563Y-8478936D02*
X9313039Y-8459889D01*
X9313039Y-8459889D02*
X9313039Y-8402746D01*
X9313039Y-8402746D02*
X9322563Y-8383698D01*
X9322563Y-8383698D02*
X9332087Y-8374174D01*
X9332087Y-8374174D02*
X9351134Y-8364650D01*
X9351134Y-8364650D02*
X9379706Y-8364650D01*
X9379706Y-8364650D02*
X9398753Y-8374174D01*
X9398753Y-8374174D02*
X9408277Y-8383698D01*
X9408277Y-8383698D02*
X9417801Y-8402746D01*
X9417801Y-8402746D02*
X9417801Y-8459889D01*
X9417801Y-8459889D02*
X9408277Y-8478936D01*
X9408277Y-8478936D02*
X9398753Y-8488460D01*
X9398753Y-8488460D02*
X9379706Y-8497984D01*
X9379706Y-8497984D02*
X9351134Y-8497984D01*
X9532087Y-8497984D02*
X9513039Y-8488460D01*
X9513039Y-8488460D02*
X9503515Y-8469412D01*
X9503515Y-8469412D02*
X9503515Y-8297984D01*
X9684468Y-8488460D02*
X9665420Y-8497984D01*
X9665420Y-8497984D02*
X9627325Y-8497984D01*
X9627325Y-8497984D02*
X9608277Y-8488460D01*
X9608277Y-8488460D02*
X9598753Y-8469412D01*
X9598753Y-8469412D02*
X9598753Y-8393222D01*
X9598753Y-8393222D02*
X9608277Y-8374174D01*
X9608277Y-8374174D02*
X9627325Y-8364650D01*
X9627325Y-8364650D02*
X9665420Y-8364650D01*
X9665420Y-8364650D02*
X9684468Y-8374174D01*
X9684468Y-8374174D02*
X9693992Y-8393222D01*
X9693992Y-8393222D02*
X9693992Y-8412270D01*
X9693992Y-8412270D02*
X9598753Y-8431317D01*
X9770182Y-8488460D02*
X9789230Y-8497984D01*
X9789230Y-8497984D02*
X9827325Y-8497984D01*
X9827325Y-8497984D02*
X9846373Y-8488460D01*
X9846373Y-8488460D02*
X9855896Y-8469412D01*
X9855896Y-8469412D02*
X9855896Y-8459889D01*
X9855896Y-8459889D02*
X9846373Y-8440841D01*
X9846373Y-8440841D02*
X9827325Y-8431317D01*
X9827325Y-8431317D02*
X9798753Y-8431317D01*
X9798753Y-8431317D02*
X9779706Y-8421793D01*
X9779706Y-8421793D02*
X9770182Y-8402746D01*
X9770182Y-8402746D02*
X9770182Y-8393222D01*
X9770182Y-8393222D02*
X9779706Y-8374174D01*
X9779706Y-8374174D02*
X9798753Y-8364650D01*
X9798753Y-8364650D02*
X9827325Y-8364650D01*
X9827325Y-8364650D02*
X9846373Y-8374174D01*
X9922563Y-8574174D02*
X9932087Y-8564650D01*
X9932087Y-8564650D02*
X9951134Y-8536079D01*
X9951134Y-8536079D02*
X9960658Y-8517031D01*
X9960658Y-8517031D02*
X9970182Y-8488460D01*
X9970182Y-8488460D02*
X9979706Y-8440841D01*
X9979706Y-8440841D02*
X9979706Y-8402746D01*
X9979706Y-8402746D02*
X9970182Y-8355127D01*
X9970182Y-8355127D02*
X9960658Y-8326555D01*
X9960658Y-8326555D02*
X9951134Y-8307508D01*
X9951134Y-8307508D02*
X9932087Y-8278936D01*
X9932087Y-8278936D02*
X9922563Y-8269412D01*
D12*
X5110000Y-8633000D02*
X5110000Y-8708000D01*
X5072500Y-8670500D02*
X5147500Y-8670500D01*
D13*
X5446372Y-8561984D02*
X5465420Y-8561984D01*
X5465420Y-8561984D02*
X5484467Y-8571508D01*
X5484467Y-8571508D02*
X5493991Y-8581031D01*
X5493991Y-8581031D02*
X5503515Y-8600079D01*
X5503515Y-8600079D02*
X5513039Y-8638174D01*
X5513039Y-8638174D02*
X5513039Y-8685793D01*
X5513039Y-8685793D02*
X5503515Y-8723889D01*
X5503515Y-8723889D02*
X5493991Y-8742936D01*
X5493991Y-8742936D02*
X5484467Y-8752460D01*
X5484467Y-8752460D02*
X5465420Y-8761984D01*
X5465420Y-8761984D02*
X5446372Y-8761984D01*
X5446372Y-8761984D02*
X5427324Y-8752460D01*
X5427324Y-8752460D02*
X5417801Y-8742936D01*
X5417801Y-8742936D02*
X5408277Y-8723889D01*
X5408277Y-8723889D02*
X5398753Y-8685793D01*
X5398753Y-8685793D02*
X5398753Y-8638174D01*
X5398753Y-8638174D02*
X5408277Y-8600079D01*
X5408277Y-8600079D02*
X5417801Y-8581031D01*
X5417801Y-8581031D02*
X5427324Y-8571508D01*
X5427324Y-8571508D02*
X5446372Y-8561984D01*
X5598753Y-8742936D02*
X5608277Y-8752460D01*
X5608277Y-8752460D02*
X5598753Y-8761984D01*
X5598753Y-8761984D02*
X5589229Y-8752460D01*
X5589229Y-8752460D02*
X5598753Y-8742936D01*
X5598753Y-8742936D02*
X5598753Y-8761984D01*
X5674943Y-8561984D02*
X5808277Y-8561984D01*
X5808277Y-8561984D02*
X5722562Y-8761984D01*
X5979705Y-8561984D02*
X5884467Y-8561984D01*
X5884467Y-8561984D02*
X5874943Y-8657222D01*
X5874943Y-8657222D02*
X5884467Y-8647698D01*
X5884467Y-8647698D02*
X5903515Y-8638174D01*
X5903515Y-8638174D02*
X5951134Y-8638174D01*
X5951134Y-8638174D02*
X5970182Y-8647698D01*
X5970182Y-8647698D02*
X5979705Y-8657222D01*
X5979705Y-8657222D02*
X5989229Y-8676270D01*
X5989229Y-8676270D02*
X5989229Y-8723889D01*
X5989229Y-8723889D02*
X5979705Y-8742936D01*
X5979705Y-8742936D02*
X5970182Y-8752460D01*
X5970182Y-8752460D02*
X5951134Y-8761984D01*
X5951134Y-8761984D02*
X5903515Y-8761984D01*
X5903515Y-8761984D02*
X5884467Y-8752460D01*
X5884467Y-8752460D02*
X5874943Y-8742936D01*
X6113039Y-8561984D02*
X6132086Y-8561984D01*
X6132086Y-8561984D02*
X6151134Y-8571508D01*
X6151134Y-8571508D02*
X6160658Y-8581031D01*
X6160658Y-8581031D02*
X6170182Y-8600079D01*
X6170182Y-8600079D02*
X6179705Y-8638174D01*
X6179705Y-8638174D02*
X6179705Y-8685793D01*
X6179705Y-8685793D02*
X6170182Y-8723889D01*
X6170182Y-8723889D02*
X6160658Y-8742936D01*
X6160658Y-8742936D02*
X6151134Y-8752460D01*
X6151134Y-8752460D02*
X6132086Y-8761984D01*
X6132086Y-8761984D02*
X6113039Y-8761984D01*
X6113039Y-8761984D02*
X6093991Y-8752460D01*
X6093991Y-8752460D02*
X6084467Y-8742936D01*
X6084467Y-8742936D02*
X6074943Y-8723889D01*
X6074943Y-8723889D02*
X6065420Y-8685793D01*
X6065420Y-8685793D02*
X6065420Y-8638174D01*
X6065420Y-8638174D02*
X6074943Y-8600079D01*
X6074943Y-8600079D02*
X6084467Y-8581031D01*
X6084467Y-8581031D02*
X6093991Y-8571508D01*
X6093991Y-8571508D02*
X6113039Y-8561984D01*
X6265420Y-8761984D02*
X6265420Y-8628650D01*
X6265420Y-8647698D02*
X6274943Y-8638174D01*
X6274943Y-8638174D02*
X6293991Y-8628650D01*
X6293991Y-8628650D02*
X6322563Y-8628650D01*
X6322563Y-8628650D02*
X6341610Y-8638174D01*
X6341610Y-8638174D02*
X6351134Y-8657222D01*
X6351134Y-8657222D02*
X6351134Y-8761984D01*
X6351134Y-8657222D02*
X6360658Y-8638174D01*
X6360658Y-8638174D02*
X6379705Y-8628650D01*
X6379705Y-8628650D02*
X6408277Y-8628650D01*
X6408277Y-8628650D02*
X6427324Y-8638174D01*
X6427324Y-8638174D02*
X6436848Y-8657222D01*
X6436848Y-8657222D02*
X6436848Y-8761984D01*
X6532086Y-8761984D02*
X6532086Y-8628650D01*
X6532086Y-8647698D02*
X6541610Y-8638174D01*
X6541610Y-8638174D02*
X6560658Y-8628650D01*
X6560658Y-8628650D02*
X6589229Y-8628650D01*
X6589229Y-8628650D02*
X6608277Y-8638174D01*
X6608277Y-8638174D02*
X6617801Y-8657222D01*
X6617801Y-8657222D02*
X6617801Y-8761984D01*
X6617801Y-8657222D02*
X6627324Y-8638174D01*
X6627324Y-8638174D02*
X6646372Y-8628650D01*
X6646372Y-8628650D02*
X6674943Y-8628650D01*
X6674943Y-8628650D02*
X6693991Y-8638174D01*
X6693991Y-8638174D02*
X6703515Y-8657222D01*
X6703515Y-8657222D02*
X6703515Y-8761984D01*
X7093991Y-8552460D02*
X6922563Y-8809603D01*
X7351134Y-8561984D02*
X7370182Y-8561984D01*
X7370182Y-8561984D02*
X7389229Y-8571508D01*
X7389229Y-8571508D02*
X7398753Y-8581031D01*
X7398753Y-8581031D02*
X7408277Y-8600079D01*
X7408277Y-8600079D02*
X7417801Y-8638174D01*
X7417801Y-8638174D02*
X7417801Y-8685793D01*
X7417801Y-8685793D02*
X7408277Y-8723889D01*
X7408277Y-8723889D02*
X7398753Y-8742936D01*
X7398753Y-8742936D02*
X7389229Y-8752460D01*
X7389229Y-8752460D02*
X7370182Y-8761984D01*
X7370182Y-8761984D02*
X7351134Y-8761984D01*
X7351134Y-8761984D02*
X7332086Y-8752460D01*
X7332086Y-8752460D02*
X7322563Y-8742936D01*
X7322563Y-8742936D02*
X7313039Y-8723889D01*
X7313039Y-8723889D02*
X7303515Y-8685793D01*
X7303515Y-8685793D02*
X7303515Y-8638174D01*
X7303515Y-8638174D02*
X7313039Y-8600079D01*
X7313039Y-8600079D02*
X7322563Y-8581031D01*
X7322563Y-8581031D02*
X7332086Y-8571508D01*
X7332086Y-8571508D02*
X7351134Y-8561984D01*
X7503515Y-8742936D02*
X7513039Y-8752460D01*
X7513039Y-8752460D02*
X7503515Y-8761984D01*
X7503515Y-8761984D02*
X7493991Y-8752460D01*
X7493991Y-8752460D02*
X7503515Y-8742936D01*
X7503515Y-8742936D02*
X7503515Y-8761984D01*
X7636848Y-8561984D02*
X7655896Y-8561984D01*
X7655896Y-8561984D02*
X7674944Y-8571508D01*
X7674944Y-8571508D02*
X7684467Y-8581031D01*
X7684467Y-8581031D02*
X7693991Y-8600079D01*
X7693991Y-8600079D02*
X7703515Y-8638174D01*
X7703515Y-8638174D02*
X7703515Y-8685793D01*
X7703515Y-8685793D02*
X7693991Y-8723889D01*
X7693991Y-8723889D02*
X7684467Y-8742936D01*
X7684467Y-8742936D02*
X7674944Y-8752460D01*
X7674944Y-8752460D02*
X7655896Y-8761984D01*
X7655896Y-8761984D02*
X7636848Y-8761984D01*
X7636848Y-8761984D02*
X7617801Y-8752460D01*
X7617801Y-8752460D02*
X7608277Y-8742936D01*
X7608277Y-8742936D02*
X7598753Y-8723889D01*
X7598753Y-8723889D02*
X7589229Y-8685793D01*
X7589229Y-8685793D02*
X7589229Y-8638174D01*
X7589229Y-8638174D02*
X7598753Y-8600079D01*
X7598753Y-8600079D02*
X7608277Y-8581031D01*
X7608277Y-8581031D02*
X7617801Y-8571508D01*
X7617801Y-8571508D02*
X7636848Y-8561984D01*
X7779706Y-8581031D02*
X7789229Y-8571508D01*
X7789229Y-8571508D02*
X7808277Y-8561984D01*
X7808277Y-8561984D02*
X7855896Y-8561984D01*
X7855896Y-8561984D02*
X7874944Y-8571508D01*
X7874944Y-8571508D02*
X7884467Y-8581031D01*
X7884467Y-8581031D02*
X7893991Y-8600079D01*
X7893991Y-8600079D02*
X7893991Y-8619127D01*
X7893991Y-8619127D02*
X7884467Y-8647698D01*
X7884467Y-8647698D02*
X7770182Y-8761984D01*
X7770182Y-8761984D02*
X7893991Y-8761984D01*
X7989229Y-8761984D02*
X8027325Y-8761984D01*
X8027325Y-8761984D02*
X8046372Y-8752460D01*
X8046372Y-8752460D02*
X8055896Y-8742936D01*
X8055896Y-8742936D02*
X8074944Y-8714365D01*
X8074944Y-8714365D02*
X8084467Y-8676270D01*
X8084467Y-8676270D02*
X8084467Y-8600079D01*
X8084467Y-8600079D02*
X8074944Y-8581031D01*
X8074944Y-8581031D02*
X8065420Y-8571508D01*
X8065420Y-8571508D02*
X8046372Y-8561984D01*
X8046372Y-8561984D02*
X8008277Y-8561984D01*
X8008277Y-8561984D02*
X7989229Y-8571508D01*
X7989229Y-8571508D02*
X7979706Y-8581031D01*
X7979706Y-8581031D02*
X7970182Y-8600079D01*
X7970182Y-8600079D02*
X7970182Y-8647698D01*
X7970182Y-8647698D02*
X7979706Y-8666746D01*
X7979706Y-8666746D02*
X7989229Y-8676270D01*
X7989229Y-8676270D02*
X8008277Y-8685793D01*
X8008277Y-8685793D02*
X8046372Y-8685793D01*
X8046372Y-8685793D02*
X8065420Y-8676270D01*
X8065420Y-8676270D02*
X8074944Y-8666746D01*
X8074944Y-8666746D02*
X8084467Y-8647698D01*
X8265420Y-8561984D02*
X8170182Y-8561984D01*
X8170182Y-8561984D02*
X8160658Y-8657222D01*
X8160658Y-8657222D02*
X8170182Y-8647698D01*
X8170182Y-8647698D02*
X8189229Y-8638174D01*
X8189229Y-8638174D02*
X8236848Y-8638174D01*
X8236848Y-8638174D02*
X8255896Y-8647698D01*
X8255896Y-8647698D02*
X8265420Y-8657222D01*
X8265420Y-8657222D02*
X8274944Y-8676270D01*
X8274944Y-8676270D02*
X8274944Y-8723889D01*
X8274944Y-8723889D02*
X8265420Y-8742936D01*
X8265420Y-8742936D02*
X8255896Y-8752460D01*
X8255896Y-8752460D02*
X8236848Y-8761984D01*
X8236848Y-8761984D02*
X8189229Y-8761984D01*
X8189229Y-8761984D02*
X8170182Y-8752460D01*
X8170182Y-8752460D02*
X8160658Y-8742936D01*
X8351134Y-8561984D02*
X8351134Y-8600079D01*
X8427325Y-8561984D02*
X8427325Y-8600079D01*
X8722563Y-8838174D02*
X8713039Y-8828650D01*
X8713039Y-8828650D02*
X8693991Y-8800079D01*
X8693991Y-8800079D02*
X8684468Y-8781031D01*
X8684468Y-8781031D02*
X8674944Y-8752460D01*
X8674944Y-8752460D02*
X8665420Y-8704841D01*
X8665420Y-8704841D02*
X8665420Y-8666746D01*
X8665420Y-8666746D02*
X8674944Y-8619127D01*
X8674944Y-8619127D02*
X8684468Y-8590555D01*
X8684468Y-8590555D02*
X8693991Y-8571508D01*
X8693991Y-8571508D02*
X8713039Y-8542936D01*
X8713039Y-8542936D02*
X8722563Y-8533412D01*
X8903515Y-8761984D02*
X8789230Y-8761984D01*
X8846372Y-8761984D02*
X8846372Y-8561984D01*
X8846372Y-8561984D02*
X8827325Y-8590555D01*
X8827325Y-8590555D02*
X8808277Y-8609603D01*
X8808277Y-8609603D02*
X8789230Y-8619127D01*
X8979706Y-8581031D02*
X8989230Y-8571508D01*
X8989230Y-8571508D02*
X9008277Y-8561984D01*
X9008277Y-8561984D02*
X9055896Y-8561984D01*
X9055896Y-8561984D02*
X9074944Y-8571508D01*
X9074944Y-8571508D02*
X9084468Y-8581031D01*
X9084468Y-8581031D02*
X9093991Y-8600079D01*
X9093991Y-8600079D02*
X9093991Y-8619127D01*
X9093991Y-8619127D02*
X9084468Y-8647698D01*
X9084468Y-8647698D02*
X8970182Y-8761984D01*
X8970182Y-8761984D02*
X9093991Y-8761984D01*
X9332087Y-8761984D02*
X9332087Y-8561984D01*
X9417801Y-8761984D02*
X9417801Y-8657222D01*
X9417801Y-8657222D02*
X9408277Y-8638174D01*
X9408277Y-8638174D02*
X9389230Y-8628650D01*
X9389230Y-8628650D02*
X9360658Y-8628650D01*
X9360658Y-8628650D02*
X9341611Y-8638174D01*
X9341611Y-8638174D02*
X9332087Y-8647698D01*
X9541611Y-8761984D02*
X9522563Y-8752460D01*
X9522563Y-8752460D02*
X9513039Y-8742936D01*
X9513039Y-8742936D02*
X9503515Y-8723889D01*
X9503515Y-8723889D02*
X9503515Y-8666746D01*
X9503515Y-8666746D02*
X9513039Y-8647698D01*
X9513039Y-8647698D02*
X9522563Y-8638174D01*
X9522563Y-8638174D02*
X9541611Y-8628650D01*
X9541611Y-8628650D02*
X9570182Y-8628650D01*
X9570182Y-8628650D02*
X9589230Y-8638174D01*
X9589230Y-8638174D02*
X9598753Y-8647698D01*
X9598753Y-8647698D02*
X9608277Y-8666746D01*
X9608277Y-8666746D02*
X9608277Y-8723889D01*
X9608277Y-8723889D02*
X9598753Y-8742936D01*
X9598753Y-8742936D02*
X9589230Y-8752460D01*
X9589230Y-8752460D02*
X9570182Y-8761984D01*
X9570182Y-8761984D02*
X9541611Y-8761984D01*
X9722563Y-8761984D02*
X9703515Y-8752460D01*
X9703515Y-8752460D02*
X9693992Y-8733412D01*
X9693992Y-8733412D02*
X9693992Y-8561984D01*
X9874944Y-8752460D02*
X9855896Y-8761984D01*
X9855896Y-8761984D02*
X9817801Y-8761984D01*
X9817801Y-8761984D02*
X9798753Y-8752460D01*
X9798753Y-8752460D02*
X9789230Y-8733412D01*
X9789230Y-8733412D02*
X9789230Y-8657222D01*
X9789230Y-8657222D02*
X9798753Y-8638174D01*
X9798753Y-8638174D02*
X9817801Y-8628650D01*
X9817801Y-8628650D02*
X9855896Y-8628650D01*
X9855896Y-8628650D02*
X9874944Y-8638174D01*
X9874944Y-8638174D02*
X9884468Y-8657222D01*
X9884468Y-8657222D02*
X9884468Y-8676270D01*
X9884468Y-8676270D02*
X9789230Y-8695317D01*
X9960658Y-8752460D02*
X9979706Y-8761984D01*
X9979706Y-8761984D02*
X10017801Y-8761984D01*
X10017801Y-8761984D02*
X10036849Y-8752460D01*
X10036849Y-8752460D02*
X10046373Y-8733412D01*
X10046373Y-8733412D02*
X10046373Y-8723889D01*
X10046373Y-8723889D02*
X10036849Y-8704841D01*
X10036849Y-8704841D02*
X10017801Y-8695317D01*
X10017801Y-8695317D02*
X9989230Y-8695317D01*
X9989230Y-8695317D02*
X9970182Y-8685793D01*
X9970182Y-8685793D02*
X9960658Y-8666746D01*
X9960658Y-8666746D02*
X9960658Y-8657222D01*
X9960658Y-8657222D02*
X9970182Y-8638174D01*
X9970182Y-8638174D02*
X9989230Y-8628650D01*
X9989230Y-8628650D02*
X10017801Y-8628650D01*
X10017801Y-8628650D02*
X10036849Y-8638174D01*
X10113039Y-8838174D02*
X10122563Y-8828650D01*
X10122563Y-8828650D02*
X10141611Y-8800079D01*
X10141611Y-8800079D02*
X10151134Y-8781031D01*
X10151134Y-8781031D02*
X10160658Y-8752460D01*
X10160658Y-8752460D02*
X10170182Y-8704841D01*
X10170182Y-8704841D02*
X10170182Y-8666746D01*
X10170182Y-8666746D02*
X10160658Y-8619127D01*
X10160658Y-8619127D02*
X10151134Y-8590555D01*
X10151134Y-8590555D02*
X10141611Y-8571508D01*
X10141611Y-8571508D02*
X10122563Y-8542936D01*
X10122563Y-8542936D02*
X10113039Y-8533412D01*
D12*
X5135785Y-8962785D02*
X5135785Y-8906216D01*
X5079216Y-8906216D01*
X5079216Y-8962785D01*
X5135785Y-8962785D01*
D13*
X5446372Y-8825984D02*
X5465420Y-8825984D01*
X5465420Y-8825984D02*
X5484467Y-8835508D01*
X5484467Y-8835508D02*
X5493991Y-8845031D01*
X5493991Y-8845031D02*
X5503515Y-8864079D01*
X5503515Y-8864079D02*
X5513039Y-8902174D01*
X5513039Y-8902174D02*
X5513039Y-8949793D01*
X5513039Y-8949793D02*
X5503515Y-8987889D01*
X5503515Y-8987889D02*
X5493991Y-9006936D01*
X5493991Y-9006936D02*
X5484467Y-9016460D01*
X5484467Y-9016460D02*
X5465420Y-9025984D01*
X5465420Y-9025984D02*
X5446372Y-9025984D01*
X5446372Y-9025984D02*
X5427324Y-9016460D01*
X5427324Y-9016460D02*
X5417801Y-9006936D01*
X5417801Y-9006936D02*
X5408277Y-8987889D01*
X5408277Y-8987889D02*
X5398753Y-8949793D01*
X5398753Y-8949793D02*
X5398753Y-8902174D01*
X5398753Y-8902174D02*
X5408277Y-8864079D01*
X5408277Y-8864079D02*
X5417801Y-8845031D01*
X5417801Y-8845031D02*
X5427324Y-8835508D01*
X5427324Y-8835508D02*
X5446372Y-8825984D01*
X5598753Y-9006936D02*
X5608277Y-9016460D01*
X5608277Y-9016460D02*
X5598753Y-9025984D01*
X5598753Y-9025984D02*
X5589229Y-9016460D01*
X5589229Y-9016460D02*
X5598753Y-9006936D01*
X5598753Y-9006936D02*
X5598753Y-9025984D01*
X5722562Y-8911698D02*
X5703515Y-8902174D01*
X5703515Y-8902174D02*
X5693991Y-8892650D01*
X5693991Y-8892650D02*
X5684467Y-8873603D01*
X5684467Y-8873603D02*
X5684467Y-8864079D01*
X5684467Y-8864079D02*
X5693991Y-8845031D01*
X5693991Y-8845031D02*
X5703515Y-8835508D01*
X5703515Y-8835508D02*
X5722562Y-8825984D01*
X5722562Y-8825984D02*
X5760658Y-8825984D01*
X5760658Y-8825984D02*
X5779705Y-8835508D01*
X5779705Y-8835508D02*
X5789229Y-8845031D01*
X5789229Y-8845031D02*
X5798753Y-8864079D01*
X5798753Y-8864079D02*
X5798753Y-8873603D01*
X5798753Y-8873603D02*
X5789229Y-8892650D01*
X5789229Y-8892650D02*
X5779705Y-8902174D01*
X5779705Y-8902174D02*
X5760658Y-8911698D01*
X5760658Y-8911698D02*
X5722562Y-8911698D01*
X5722562Y-8911698D02*
X5703515Y-8921222D01*
X5703515Y-8921222D02*
X5693991Y-8930746D01*
X5693991Y-8930746D02*
X5684467Y-8949793D01*
X5684467Y-8949793D02*
X5684467Y-8987889D01*
X5684467Y-8987889D02*
X5693991Y-9006936D01*
X5693991Y-9006936D02*
X5703515Y-9016460D01*
X5703515Y-9016460D02*
X5722562Y-9025984D01*
X5722562Y-9025984D02*
X5760658Y-9025984D01*
X5760658Y-9025984D02*
X5779705Y-9016460D01*
X5779705Y-9016460D02*
X5789229Y-9006936D01*
X5789229Y-9006936D02*
X5798753Y-8987889D01*
X5798753Y-8987889D02*
X5798753Y-8949793D01*
X5798753Y-8949793D02*
X5789229Y-8930746D01*
X5789229Y-8930746D02*
X5779705Y-8921222D01*
X5779705Y-8921222D02*
X5760658Y-8911698D01*
X5922562Y-8825984D02*
X5941610Y-8825984D01*
X5941610Y-8825984D02*
X5960658Y-8835508D01*
X5960658Y-8835508D02*
X5970182Y-8845031D01*
X5970182Y-8845031D02*
X5979705Y-8864079D01*
X5979705Y-8864079D02*
X5989229Y-8902174D01*
X5989229Y-8902174D02*
X5989229Y-8949793D01*
X5989229Y-8949793D02*
X5979705Y-8987889D01*
X5979705Y-8987889D02*
X5970182Y-9006936D01*
X5970182Y-9006936D02*
X5960658Y-9016460D01*
X5960658Y-9016460D02*
X5941610Y-9025984D01*
X5941610Y-9025984D02*
X5922562Y-9025984D01*
X5922562Y-9025984D02*
X5903515Y-9016460D01*
X5903515Y-9016460D02*
X5893991Y-9006936D01*
X5893991Y-9006936D02*
X5884467Y-8987889D01*
X5884467Y-8987889D02*
X5874943Y-8949793D01*
X5874943Y-8949793D02*
X5874943Y-8902174D01*
X5874943Y-8902174D02*
X5884467Y-8864079D01*
X5884467Y-8864079D02*
X5893991Y-8845031D01*
X5893991Y-8845031D02*
X5903515Y-8835508D01*
X5903515Y-8835508D02*
X5922562Y-8825984D01*
X6113039Y-8825984D02*
X6132086Y-8825984D01*
X6132086Y-8825984D02*
X6151134Y-8835508D01*
X6151134Y-8835508D02*
X6160658Y-8845031D01*
X6160658Y-8845031D02*
X6170182Y-8864079D01*
X6170182Y-8864079D02*
X6179705Y-8902174D01*
X6179705Y-8902174D02*
X6179705Y-8949793D01*
X6179705Y-8949793D02*
X6170182Y-8987889D01*
X6170182Y-8987889D02*
X6160658Y-9006936D01*
X6160658Y-9006936D02*
X6151134Y-9016460D01*
X6151134Y-9016460D02*
X6132086Y-9025984D01*
X6132086Y-9025984D02*
X6113039Y-9025984D01*
X6113039Y-9025984D02*
X6093991Y-9016460D01*
X6093991Y-9016460D02*
X6084467Y-9006936D01*
X6084467Y-9006936D02*
X6074943Y-8987889D01*
X6074943Y-8987889D02*
X6065420Y-8949793D01*
X6065420Y-8949793D02*
X6065420Y-8902174D01*
X6065420Y-8902174D02*
X6074943Y-8864079D01*
X6074943Y-8864079D02*
X6084467Y-8845031D01*
X6084467Y-8845031D02*
X6093991Y-8835508D01*
X6093991Y-8835508D02*
X6113039Y-8825984D01*
X6265420Y-9025984D02*
X6265420Y-8892650D01*
X6265420Y-8911698D02*
X6274943Y-8902174D01*
X6274943Y-8902174D02*
X6293991Y-8892650D01*
X6293991Y-8892650D02*
X6322563Y-8892650D01*
X6322563Y-8892650D02*
X6341610Y-8902174D01*
X6341610Y-8902174D02*
X6351134Y-8921222D01*
X6351134Y-8921222D02*
X6351134Y-9025984D01*
X6351134Y-8921222D02*
X6360658Y-8902174D01*
X6360658Y-8902174D02*
X6379705Y-8892650D01*
X6379705Y-8892650D02*
X6408277Y-8892650D01*
X6408277Y-8892650D02*
X6427324Y-8902174D01*
X6427324Y-8902174D02*
X6436848Y-8921222D01*
X6436848Y-8921222D02*
X6436848Y-9025984D01*
X6532086Y-9025984D02*
X6532086Y-8892650D01*
X6532086Y-8911698D02*
X6541610Y-8902174D01*
X6541610Y-8902174D02*
X6560658Y-8892650D01*
X6560658Y-8892650D02*
X6589229Y-8892650D01*
X6589229Y-8892650D02*
X6608277Y-8902174D01*
X6608277Y-8902174D02*
X6617801Y-8921222D01*
X6617801Y-8921222D02*
X6617801Y-9025984D01*
X6617801Y-8921222D02*
X6627324Y-8902174D01*
X6627324Y-8902174D02*
X6646372Y-8892650D01*
X6646372Y-8892650D02*
X6674943Y-8892650D01*
X6674943Y-8892650D02*
X6693991Y-8902174D01*
X6693991Y-8902174D02*
X6703515Y-8921222D01*
X6703515Y-8921222D02*
X6703515Y-9025984D01*
X7093991Y-8816460D02*
X6922563Y-9073603D01*
X7351134Y-8825984D02*
X7370182Y-8825984D01*
X7370182Y-8825984D02*
X7389229Y-8835508D01*
X7389229Y-8835508D02*
X7398753Y-8845031D01*
X7398753Y-8845031D02*
X7408277Y-8864079D01*
X7408277Y-8864079D02*
X7417801Y-8902174D01*
X7417801Y-8902174D02*
X7417801Y-8949793D01*
X7417801Y-8949793D02*
X7408277Y-8987889D01*
X7408277Y-8987889D02*
X7398753Y-9006936D01*
X7398753Y-9006936D02*
X7389229Y-9016460D01*
X7389229Y-9016460D02*
X7370182Y-9025984D01*
X7370182Y-9025984D02*
X7351134Y-9025984D01*
X7351134Y-9025984D02*
X7332086Y-9016460D01*
X7332086Y-9016460D02*
X7322563Y-9006936D01*
X7322563Y-9006936D02*
X7313039Y-8987889D01*
X7313039Y-8987889D02*
X7303515Y-8949793D01*
X7303515Y-8949793D02*
X7303515Y-8902174D01*
X7303515Y-8902174D02*
X7313039Y-8864079D01*
X7313039Y-8864079D02*
X7322563Y-8845031D01*
X7322563Y-8845031D02*
X7332086Y-8835508D01*
X7332086Y-8835508D02*
X7351134Y-8825984D01*
X7503515Y-9006936D02*
X7513039Y-9016460D01*
X7513039Y-9016460D02*
X7503515Y-9025984D01*
X7503515Y-9025984D02*
X7493991Y-9016460D01*
X7493991Y-9016460D02*
X7503515Y-9006936D01*
X7503515Y-9006936D02*
X7503515Y-9025984D01*
X7636848Y-8825984D02*
X7655896Y-8825984D01*
X7655896Y-8825984D02*
X7674944Y-8835508D01*
X7674944Y-8835508D02*
X7684467Y-8845031D01*
X7684467Y-8845031D02*
X7693991Y-8864079D01*
X7693991Y-8864079D02*
X7703515Y-8902174D01*
X7703515Y-8902174D02*
X7703515Y-8949793D01*
X7703515Y-8949793D02*
X7693991Y-8987889D01*
X7693991Y-8987889D02*
X7684467Y-9006936D01*
X7684467Y-9006936D02*
X7674944Y-9016460D01*
X7674944Y-9016460D02*
X7655896Y-9025984D01*
X7655896Y-9025984D02*
X7636848Y-9025984D01*
X7636848Y-9025984D02*
X7617801Y-9016460D01*
X7617801Y-9016460D02*
X7608277Y-9006936D01*
X7608277Y-9006936D02*
X7598753Y-8987889D01*
X7598753Y-8987889D02*
X7589229Y-8949793D01*
X7589229Y-8949793D02*
X7589229Y-8902174D01*
X7589229Y-8902174D02*
X7598753Y-8864079D01*
X7598753Y-8864079D02*
X7608277Y-8845031D01*
X7608277Y-8845031D02*
X7617801Y-8835508D01*
X7617801Y-8835508D02*
X7636848Y-8825984D01*
X7770182Y-8825984D02*
X7893991Y-8825984D01*
X7893991Y-8825984D02*
X7827325Y-8902174D01*
X7827325Y-8902174D02*
X7855896Y-8902174D01*
X7855896Y-8902174D02*
X7874944Y-8911698D01*
X7874944Y-8911698D02*
X7884467Y-8921222D01*
X7884467Y-8921222D02*
X7893991Y-8940270D01*
X7893991Y-8940270D02*
X7893991Y-8987889D01*
X7893991Y-8987889D02*
X7884467Y-9006936D01*
X7884467Y-9006936D02*
X7874944Y-9016460D01*
X7874944Y-9016460D02*
X7855896Y-9025984D01*
X7855896Y-9025984D02*
X7798753Y-9025984D01*
X7798753Y-9025984D02*
X7779706Y-9016460D01*
X7779706Y-9016460D02*
X7770182Y-9006936D01*
X8084467Y-9025984D02*
X7970182Y-9025984D01*
X8027325Y-9025984D02*
X8027325Y-8825984D01*
X8027325Y-8825984D02*
X8008277Y-8854555D01*
X8008277Y-8854555D02*
X7989229Y-8873603D01*
X7989229Y-8873603D02*
X7970182Y-8883127D01*
X8265420Y-8825984D02*
X8170182Y-8825984D01*
X8170182Y-8825984D02*
X8160658Y-8921222D01*
X8160658Y-8921222D02*
X8170182Y-8911698D01*
X8170182Y-8911698D02*
X8189229Y-8902174D01*
X8189229Y-8902174D02*
X8236848Y-8902174D01*
X8236848Y-8902174D02*
X8255896Y-8911698D01*
X8255896Y-8911698D02*
X8265420Y-8921222D01*
X8265420Y-8921222D02*
X8274944Y-8940270D01*
X8274944Y-8940270D02*
X8274944Y-8987889D01*
X8274944Y-8987889D02*
X8265420Y-9006936D01*
X8265420Y-9006936D02*
X8255896Y-9016460D01*
X8255896Y-9016460D02*
X8236848Y-9025984D01*
X8236848Y-9025984D02*
X8189229Y-9025984D01*
X8189229Y-9025984D02*
X8170182Y-9016460D01*
X8170182Y-9016460D02*
X8160658Y-9006936D01*
X8351134Y-8825984D02*
X8351134Y-8864079D01*
X8427325Y-8825984D02*
X8427325Y-8864079D01*
X8722563Y-9102174D02*
X8713039Y-9092650D01*
X8713039Y-9092650D02*
X8693991Y-9064079D01*
X8693991Y-9064079D02*
X8684468Y-9045031D01*
X8684468Y-9045031D02*
X8674944Y-9016460D01*
X8674944Y-9016460D02*
X8665420Y-8968841D01*
X8665420Y-8968841D02*
X8665420Y-8930746D01*
X8665420Y-8930746D02*
X8674944Y-8883127D01*
X8674944Y-8883127D02*
X8684468Y-8854555D01*
X8684468Y-8854555D02*
X8693991Y-8835508D01*
X8693991Y-8835508D02*
X8713039Y-8806936D01*
X8713039Y-8806936D02*
X8722563Y-8797412D01*
X8884468Y-8825984D02*
X8846372Y-8825984D01*
X8846372Y-8825984D02*
X8827325Y-8835508D01*
X8827325Y-8835508D02*
X8817801Y-8845031D01*
X8817801Y-8845031D02*
X8798753Y-8873603D01*
X8798753Y-8873603D02*
X8789230Y-8911698D01*
X8789230Y-8911698D02*
X8789230Y-8987889D01*
X8789230Y-8987889D02*
X8798753Y-9006936D01*
X8798753Y-9006936D02*
X8808277Y-9016460D01*
X8808277Y-9016460D02*
X8827325Y-9025984D01*
X8827325Y-9025984D02*
X8865420Y-9025984D01*
X8865420Y-9025984D02*
X8884468Y-9016460D01*
X8884468Y-9016460D02*
X8893991Y-9006936D01*
X8893991Y-9006936D02*
X8903515Y-8987889D01*
X8903515Y-8987889D02*
X8903515Y-8940270D01*
X8903515Y-8940270D02*
X8893991Y-8921222D01*
X8893991Y-8921222D02*
X8884468Y-8911698D01*
X8884468Y-8911698D02*
X8865420Y-8902174D01*
X8865420Y-8902174D02*
X8827325Y-8902174D01*
X8827325Y-8902174D02*
X8808277Y-8911698D01*
X8808277Y-8911698D02*
X8798753Y-8921222D01*
X8798753Y-8921222D02*
X8789230Y-8940270D01*
X9141611Y-9025984D02*
X9141611Y-8825984D01*
X9227325Y-9025984D02*
X9227325Y-8921222D01*
X9227325Y-8921222D02*
X9217801Y-8902174D01*
X9217801Y-8902174D02*
X9198753Y-8892650D01*
X9198753Y-8892650D02*
X9170182Y-8892650D01*
X9170182Y-8892650D02*
X9151134Y-8902174D01*
X9151134Y-8902174D02*
X9141611Y-8911698D01*
X9351134Y-9025984D02*
X9332087Y-9016460D01*
X9332087Y-9016460D02*
X9322563Y-9006936D01*
X9322563Y-9006936D02*
X9313039Y-8987889D01*
X9313039Y-8987889D02*
X9313039Y-8930746D01*
X9313039Y-8930746D02*
X9322563Y-8911698D01*
X9322563Y-8911698D02*
X9332087Y-8902174D01*
X9332087Y-8902174D02*
X9351134Y-8892650D01*
X9351134Y-8892650D02*
X9379706Y-8892650D01*
X9379706Y-8892650D02*
X9398753Y-8902174D01*
X9398753Y-8902174D02*
X9408277Y-8911698D01*
X9408277Y-8911698D02*
X9417801Y-8930746D01*
X9417801Y-8930746D02*
X9417801Y-8987889D01*
X9417801Y-8987889D02*
X9408277Y-9006936D01*
X9408277Y-9006936D02*
X9398753Y-9016460D01*
X9398753Y-9016460D02*
X9379706Y-9025984D01*
X9379706Y-9025984D02*
X9351134Y-9025984D01*
X9532087Y-9025984D02*
X9513039Y-9016460D01*
X9513039Y-9016460D02*
X9503515Y-8997412D01*
X9503515Y-8997412D02*
X9503515Y-8825984D01*
X9684468Y-9016460D02*
X9665420Y-9025984D01*
X9665420Y-9025984D02*
X9627325Y-9025984D01*
X9627325Y-9025984D02*
X9608277Y-9016460D01*
X9608277Y-9016460D02*
X9598753Y-8997412D01*
X9598753Y-8997412D02*
X9598753Y-8921222D01*
X9598753Y-8921222D02*
X9608277Y-8902174D01*
X9608277Y-8902174D02*
X9627325Y-8892650D01*
X9627325Y-8892650D02*
X9665420Y-8892650D01*
X9665420Y-8892650D02*
X9684468Y-8902174D01*
X9684468Y-8902174D02*
X9693992Y-8921222D01*
X9693992Y-8921222D02*
X9693992Y-8940270D01*
X9693992Y-8940270D02*
X9598753Y-8959317D01*
X9770182Y-9016460D02*
X9789230Y-9025984D01*
X9789230Y-9025984D02*
X9827325Y-9025984D01*
X9827325Y-9025984D02*
X9846373Y-9016460D01*
X9846373Y-9016460D02*
X9855896Y-8997412D01*
X9855896Y-8997412D02*
X9855896Y-8987889D01*
X9855896Y-8987889D02*
X9846373Y-8968841D01*
X9846373Y-8968841D02*
X9827325Y-8959317D01*
X9827325Y-8959317D02*
X9798753Y-8959317D01*
X9798753Y-8959317D02*
X9779706Y-8949793D01*
X9779706Y-8949793D02*
X9770182Y-8930746D01*
X9770182Y-8930746D02*
X9770182Y-8921222D01*
X9770182Y-8921222D02*
X9779706Y-8902174D01*
X9779706Y-8902174D02*
X9798753Y-8892650D01*
X9798753Y-8892650D02*
X9827325Y-8892650D01*
X9827325Y-8892650D02*
X9846373Y-8902174D01*
X9922563Y-9102174D02*
X9932087Y-9092650D01*
X9932087Y-9092650D02*
X9951134Y-9064079D01*
X9951134Y-9064079D02*
X9960658Y-9045031D01*
X9960658Y-9045031D02*
X9970182Y-9016460D01*
X9970182Y-9016460D02*
X9979706Y-8968841D01*
X9979706Y-8968841D02*
X9979706Y-8930746D01*
X9979706Y-8930746D02*
X9970182Y-8883127D01*
X9970182Y-8883127D02*
X9960658Y-8854555D01*
X9960658Y-8854555D02*
X9951134Y-8835508D01*
X9951134Y-8835508D02*
X9932087Y-8806936D01*
X9932087Y-8806936D02*
X9922563Y-8797412D01*
M02*
