M48
; DRILL file {KiCad 9.0.5} date 2025-10-23T20:31:54+1300
; FORMAT={-:-/ absolute / metric / decimal}
; #@! TF.CreationDate,2025-10-23T20:31:54+13:00
; #@! TF.GenerationSoftware,Kicad,Pcbnew,9.0.5
; #@! TF.FileFunction,Plated,1,2,PTH
FMAT,2
METRIC
; #@! TA.AperFunction,Plated,PTH,ViaDrill
T1C0.300
; #@! TA.AperFunction,Plated,PTH,ViaDrill
T2C0.400
; #@! TA.AperFunction,Plated,PTH,ComponentDrill
T3C0.750
; #@! TA.AperFunction,Plated,PTH,ComponentDrill
T4C0.800
%
G90
G05
T1
X52.5Y-49.0
X52.5Y-73.25
X58.4Y-56.3
X60.2Y-55.7
X61.7Y-54.3
X64.875Y-68.875
X66.0Y-73.25
X66.25Y-63.15
X66.8Y-56.0
X73.0Y-48.75
X73.0Y-50.25
X87.25Y-49.7
X92.7Y-48.75
X92.7Y-50.25
X99.9Y-55.3
X103.75Y-54.4
X108.0Y-64.0
X108.75Y-65.75
X109.25Y-48.75
X109.5Y-69.75
T2
X64.5Y-54.9
X67.0Y-52.3
T3
X102.5Y-57.4
X102.5Y-59.94
X102.5Y-62.48
X102.5Y-65.02
X102.5Y-67.56
X102.5Y-70.1
X105.04Y-57.4
X105.04Y-59.94
X105.04Y-62.48
X105.04Y-65.02
X105.04Y-67.56
X105.04Y-70.1
T4
X67.814Y-61.897
X67.814Y-63.167
X67.814Y-64.438
X67.814Y-66.977
X67.814Y-68.248
X67.814Y-69.517
M30
