G04 #@! TF.GenerationSoftware,KiCad,Pcbnew,9.0.5*
G04 #@! TF.CreationDate,2025-10-23T20:31:54+13:00*
G04 #@! TF.ProjectId,Gateway_PCB,47617465-7761-4795-9f50-43422e6b6963,rev?*
G04 #@! TF.SameCoordinates,Original*
G04 #@! TF.FileFunction,Soldermask,Top*
G04 #@! TF.FilePolarity,Negative*
%FSLAX46Y46*%
G04 Gerber Fmt 4.6, Leading zero omitted, Abs format (unit mm)*
G04 Created by KiCad (PCBNEW 9.0.5) date 2025-10-23 20:31:54*
%MOMM*%
%LPD*%
G01*
G04 APERTURE LIST*
G04 Aperture macros list*
%AMRoundRect*
0 Rectangle with rounded corners*
0 $1 Rounding radius*
0 $2 $3 $4 $5 $6 $7 $8 $9 X,Y pos of 4 corners*
0 Add a 4 corners polygon primitive as box body*
4,1,4,$2,$3,$4,$5,$6,$7,$8,$9,$2,$3,0*
0 Add four circle primitives for the rounded corners*
1,1,$1+$1,$2,$3*
1,1,$1+$1,$4,$5*
1,1,$1+$1,$6,$7*
1,1,$1+$1,$8,$9*
0 Add four rect primitives between the rounded corners*
20,1,$1+$1,$2,$3,$4,$5,0*
20,1,$1+$1,$4,$5,$6,$7,0*
20,1,$1+$1,$6,$7,$8,$9,0*
20,1,$1+$1,$8,$9,$2,$3,0*%
%AMFreePoly0*
4,1,19,0.099991,0.750000,0.099991,0.100009,0.099981,0.099999,0.099991,0.080110,0.084771,0.043360,0.084771,0.043359,0.056641,0.015229,0.056640,0.015229,0.019890,-0.000001,-0.869910,-0.000001,-0.906660,0.015219,-0.906661,0.015219,-0.934791,0.043349,-0.934791,0.043350,-0.950011,0.080110,-0.950011,0.750000,-0.950010,0.750001,0.099990,0.750001,0.099991,0.750000,0.099991,0.750000,
$1*%
G04 Aperture macros list end*
%ADD10C,0.800000*%
%ADD11C,1.000000*%
%ADD12C,1.100000*%
%ADD13C,1.045000*%
%ADD14FreePoly0,270.000000*%
%ADD15RoundRect,0.225000X-0.250000X0.225000X-0.250000X-0.225000X0.250000X-0.225000X0.250000X0.225000X0*%
%ADD16RoundRect,0.200000X0.200000X0.275000X-0.200000X0.275000X-0.200000X-0.275000X0.200000X-0.275000X0*%
%ADD17R,1.700000X1.700000*%
%ADD18C,1.700000*%
%ADD19RoundRect,0.218750X-0.218750X-0.256250X0.218750X-0.256250X0.218750X0.256250X-0.218750X0.256250X0*%
%ADD20RoundRect,0.200000X0.275000X-0.200000X0.275000X0.200000X-0.275000X0.200000X-0.275000X-0.200000X0*%
G04 APERTURE END LIST*
G04 #@! TO.C,J1*
G36*
X67063750Y-60957500D02*
G01*
X67813750Y-60957500D01*
X67813750Y-61307500D01*
X67063750Y-61307500D01*
X67063750Y-60957500D01*
G37*
G36*
X67063750Y-62302500D02*
G01*
X67813750Y-62302500D01*
X67813750Y-62752500D01*
X67063750Y-62752500D01*
X67063750Y-62302500D01*
G37*
G36*
X67063750Y-63572500D02*
G01*
X67813750Y-63572500D01*
X67813750Y-64022500D01*
X67063750Y-64022500D01*
X67063750Y-63572500D01*
G37*
G36*
X67063750Y-64842500D02*
G01*
X67813750Y-64842500D01*
X67813750Y-65292500D01*
X67063750Y-65292500D01*
X67063750Y-64842500D01*
G37*
G36*
X67063750Y-66112500D02*
G01*
X67813750Y-66112500D01*
X67813750Y-66562500D01*
X67063750Y-66562500D01*
X67063750Y-66112500D01*
G37*
G36*
X67063750Y-67382500D02*
G01*
X67813750Y-67382500D01*
X67813750Y-67832500D01*
X67063750Y-67832500D01*
X67063750Y-67382500D01*
G37*
G36*
X67063750Y-68652500D02*
G01*
X67813750Y-68652500D01*
X67813750Y-69102500D01*
X67063750Y-69102500D01*
X67063750Y-68652500D01*
G37*
G36*
X67063750Y-69922500D02*
G01*
X67813750Y-69922500D01*
X67813750Y-70372500D01*
X67063750Y-70372500D01*
X67063750Y-69922500D01*
G37*
G36*
X67813750Y-61492500D02*
G01*
X67063750Y-61492500D01*
X67063750Y-61277500D01*
X67813750Y-61277500D01*
X67813750Y-61492500D01*
G37*
G04 #@! TD*
D10*
G04 #@! TO.C,U1*
X63500000Y-69500000D03*
X63500000Y-68230000D03*
X63500000Y-66960000D03*
X63500000Y-65690000D03*
X63500000Y-64420000D03*
X63500000Y-63150000D03*
X63500000Y-61880000D03*
X63500000Y-60610000D03*
X63500000Y-59340000D03*
X63500000Y-58070000D03*
X61980000Y-58070000D03*
X60710000Y-58070000D03*
X59440000Y-58070000D03*
X58170000Y-58070000D03*
X56900000Y-58070000D03*
X55630000Y-58070000D03*
X54110000Y-58070000D03*
X54110000Y-59340000D03*
X54110000Y-60610000D03*
X54110000Y-61880000D03*
X54110000Y-63150000D03*
X54110000Y-64420000D03*
X54110000Y-65690000D03*
X54110000Y-66960000D03*
X54110000Y-68230000D03*
X54110000Y-69500000D03*
X58460000Y-72610000D03*
X61410000Y-72610000D03*
X63500000Y-74210000D03*
X54110000Y-74210000D03*
G04 #@! TD*
D11*
G04 #@! TO.C,J1*
X67813750Y-60627500D03*
D12*
X66313750Y-65707500D03*
D13*
X67813750Y-61897500D03*
D14*
X67063750Y-62322510D03*
D13*
X67813750Y-63167500D03*
D14*
X67063750Y-63592510D03*
D13*
X67813750Y-64437500D03*
D14*
X67063750Y-64862510D03*
D13*
X67813750Y-66977500D03*
D14*
X67063750Y-67402510D03*
D13*
X67813750Y-68247500D03*
D14*
X67063750Y-68672510D03*
D13*
X67813750Y-69517500D03*
D14*
X67063750Y-69942510D03*
G04 #@! TD*
D15*
G04 #@! TO.C,C1*
X52500000Y-68975000D03*
X52500000Y-70525000D03*
G04 #@! TD*
D16*
G04 #@! TO.C,R1*
X60575000Y-51000000D03*
X58925000Y-51000000D03*
G04 #@! TD*
D17*
G04 #@! TO.C,J2*
X102500000Y-57400000D03*
D18*
X105040000Y-57400000D03*
X102500000Y-59940000D03*
X105040000Y-59940000D03*
X102500000Y-62480000D03*
X105040000Y-62480000D03*
X102500000Y-65020000D03*
X105040000Y-65020000D03*
X102500000Y-67560000D03*
X105040000Y-67560000D03*
X102500000Y-70100000D03*
X105040000Y-70100000D03*
G04 #@! TD*
D19*
G04 #@! TO.C,D1*
X62212500Y-51000000D03*
X63787500Y-51000000D03*
G04 #@! TD*
D20*
G04 #@! TO.C,R2*
X65750000Y-71825000D03*
X65750000Y-70175000D03*
G04 #@! TD*
M02*
