G04 #@! TF.GenerationSoftware,KiCad,Pcbnew,9.0.6*
G04 #@! TF.CreationDate,2026-01-27T22:02:47+13:00*
G04 #@! TF.ProjectId,Main_PCB_Based_on_8411A,4d61696e-5f50-4434-925f-42617365645f,rev?*
G04 #@! TF.SameCoordinates,Original*
G04 #@! TF.FileFunction,Soldermask,Bot*
G04 #@! TF.FilePolarity,Negative*
%FSLAX46Y46*%
G04 Gerber Fmt 4.6, Leading zero omitted, Abs format (unit mm)*
G04 Created by KiCad (PCBNEW 9.0.6) date 2026-01-27 22:02:47*
%MOMM*%
%LPD*%
G01*
G04 APERTURE LIST*
G04 Aperture macros list*
%AMFreePoly0*
4,1,13,0.099990,0.100010,0.099980,0.100000,0.099990,0.080110,0.084770,0.043360,0.056640,0.015230,0.019890,0.000000,-0.869910,0.000000,-0.906660,0.015220,-0.934790,0.043350,-0.950010,0.080110,-0.950010,0.750000,0.099990,0.750000,0.099990,0.100010,0.099990,0.100010,$1*%
G04 Aperture macros list end*
%ADD10C,1.000000*%
%ADD11C,1.100000*%
%ADD12C,1.045000*%
%ADD13FreePoly0,0.000000*%
%ADD14C,0.508000*%
%ADD15C,0.900000*%
%ADD16R,2.500000X12.500000*%
%ADD17R,2.000000X0.600000*%
%ADD18R,0.300000X0.500000*%
G04 APERTURE END LIST*
G04 #@! TO.C,J6*
G36*
X189060000Y-100750000D02*
G01*
X189600000Y-100750000D01*
X189600000Y-100000000D01*
X189060000Y-100000000D01*
X189060000Y-100750000D01*
G37*
G36*
X190405000Y-100750000D02*
G01*
X190855000Y-100750000D01*
X190855000Y-100000000D01*
X190405000Y-100000000D01*
X190405000Y-100750000D01*
G37*
G36*
X191675000Y-100750000D02*
G01*
X192125000Y-100750000D01*
X192125000Y-100000000D01*
X191675000Y-100000000D01*
X191675000Y-100750000D01*
G37*
G36*
X192945000Y-100750000D02*
G01*
X193395000Y-100750000D01*
X193395000Y-100000000D01*
X192945000Y-100000000D01*
X192945000Y-100750000D01*
G37*
G36*
X194215000Y-100750000D02*
G01*
X194665000Y-100750000D01*
X194665000Y-100000000D01*
X194215000Y-100000000D01*
X194215000Y-100750000D01*
G37*
G36*
X195485000Y-100750000D02*
G01*
X195935000Y-100750000D01*
X195935000Y-100000000D01*
X195485000Y-100000000D01*
X195485000Y-100750000D01*
G37*
G36*
X196755000Y-100750000D02*
G01*
X197205000Y-100750000D01*
X197205000Y-100000000D01*
X196755000Y-100000000D01*
X196755000Y-100750000D01*
G37*
G36*
X198025000Y-100750000D02*
G01*
X198475000Y-100750000D01*
X198475000Y-100000000D01*
X198025000Y-100000000D01*
X198025000Y-100750000D01*
G37*
G04 #@! TO.C,J2*
G36*
X127830000Y-100750000D02*
G01*
X128370000Y-100750000D01*
X128370000Y-100000000D01*
X127830000Y-100000000D01*
X127830000Y-100750000D01*
G37*
G36*
X129175000Y-100750000D02*
G01*
X129625000Y-100750000D01*
X129625000Y-100000000D01*
X129175000Y-100000000D01*
X129175000Y-100750000D01*
G37*
G36*
X130445000Y-100750000D02*
G01*
X130895000Y-100750000D01*
X130895000Y-100000000D01*
X130445000Y-100000000D01*
X130445000Y-100750000D01*
G37*
G36*
X131715000Y-100750000D02*
G01*
X132165000Y-100750000D01*
X132165000Y-100000000D01*
X131715000Y-100000000D01*
X131715000Y-100750000D01*
G37*
G36*
X132985000Y-100750000D02*
G01*
X133435000Y-100750000D01*
X133435000Y-100000000D01*
X132985000Y-100000000D01*
X132985000Y-100750000D01*
G37*
G36*
X134255000Y-100750000D02*
G01*
X134705000Y-100750000D01*
X134705000Y-100000000D01*
X134255000Y-100000000D01*
X134255000Y-100750000D01*
G37*
G36*
X135525000Y-100750000D02*
G01*
X135975000Y-100750000D01*
X135975000Y-100000000D01*
X135525000Y-100000000D01*
X135525000Y-100750000D01*
G37*
G36*
X136795000Y-100750000D02*
G01*
X137245000Y-100750000D01*
X137245000Y-100000000D01*
X136795000Y-100000000D01*
X136795000Y-100750000D01*
G37*
G04 #@! TO.C,J1*
G36*
X111114990Y-100750000D02*
G01*
X111654990Y-100750000D01*
X111654990Y-100000000D01*
X111114990Y-100000000D01*
X111114990Y-100750000D01*
G37*
G36*
X112459990Y-100750000D02*
G01*
X112909990Y-100750000D01*
X112909990Y-100000000D01*
X112459990Y-100000000D01*
X112459990Y-100750000D01*
G37*
G36*
X113729990Y-100750000D02*
G01*
X114179990Y-100750000D01*
X114179990Y-100000000D01*
X113729990Y-100000000D01*
X113729990Y-100750000D01*
G37*
G36*
X114999990Y-100750000D02*
G01*
X115449990Y-100750000D01*
X115449990Y-100000000D01*
X114999990Y-100000000D01*
X114999990Y-100750000D01*
G37*
G36*
X116269990Y-100750000D02*
G01*
X116719990Y-100750000D01*
X116719990Y-100000000D01*
X116269990Y-100000000D01*
X116269990Y-100750000D01*
G37*
G36*
X117539990Y-100750000D02*
G01*
X117989990Y-100750000D01*
X117989990Y-100000000D01*
X117539990Y-100000000D01*
X117539990Y-100750000D01*
G37*
G36*
X118809990Y-100750000D02*
G01*
X119259990Y-100750000D01*
X119259990Y-100000000D01*
X118809990Y-100000000D01*
X118809990Y-100750000D01*
G37*
G36*
X120079990Y-100750000D02*
G01*
X120529990Y-100750000D01*
X120529990Y-100000000D01*
X120079990Y-100000000D01*
X120079990Y-100750000D01*
G37*
G04 #@! TD*
D10*
G04 #@! TO.C,J6*
X188730000Y-100000000D03*
D11*
X193810000Y-101500000D03*
D12*
X190000000Y-100000000D03*
D13*
X190425010Y-100750000D03*
D12*
X191270000Y-100000000D03*
D13*
X191695010Y-100750000D03*
D12*
X192540000Y-100000000D03*
D13*
X192965010Y-100750000D03*
D12*
X195080000Y-100000000D03*
D13*
X195505010Y-100750000D03*
D12*
X196350000Y-100000000D03*
D13*
X196775010Y-100750000D03*
D12*
X197620000Y-100000000D03*
D13*
X198045010Y-100750000D03*
G04 #@! TD*
D14*
G04 #@! TO.C,U4*
X108846300Y-117712600D03*
X108846300Y-118500000D03*
X108846300Y-119287400D03*
X109633700Y-117712600D03*
X109633700Y-118500000D03*
X109633700Y-119287400D03*
G04 #@! TD*
D10*
G04 #@! TO.C,J3*
X143900000Y-121350000D03*
D15*
X152350000Y-121350000D03*
G04 #@! TD*
D16*
G04 #@! TO.C,J4*
X137500000Y-114000000D03*
D17*
X138876300Y-109000000D03*
X136123700Y-111000001D03*
X138876300Y-112999999D03*
X136123700Y-115000001D03*
X138876300Y-116999999D03*
X136123700Y-119000000D03*
G04 #@! TD*
D10*
G04 #@! TO.C,J2*
X127500000Y-100000000D03*
D11*
X132580000Y-101500000D03*
D12*
X128770000Y-100000000D03*
D13*
X129195010Y-100750000D03*
D12*
X130040000Y-100000000D03*
D13*
X130465010Y-100750000D03*
D12*
X131310000Y-100000000D03*
D13*
X131735010Y-100750000D03*
D12*
X133850000Y-100000000D03*
D13*
X134275010Y-100750000D03*
D12*
X135120000Y-100000000D03*
D13*
X135545010Y-100750000D03*
D12*
X136390000Y-100000000D03*
D13*
X136815010Y-100750000D03*
G04 #@! TD*
D10*
G04 #@! TO.C,J1*
X110784990Y-100000000D03*
D11*
X115864990Y-101500000D03*
D12*
X112054990Y-100000000D03*
D13*
X112480000Y-100750000D03*
D12*
X113324990Y-100000000D03*
D13*
X113750000Y-100750000D03*
D12*
X114594990Y-100000000D03*
D13*
X115020000Y-100750000D03*
D12*
X117134990Y-100000000D03*
D13*
X117560000Y-100750000D03*
D12*
X118404990Y-100000000D03*
D13*
X118830000Y-100750000D03*
D12*
X119674990Y-100000000D03*
D13*
X120100000Y-100750000D03*
G04 #@! TD*
D16*
G04 #@! TO.C,J5*
X182505000Y-114000000D03*
D17*
X181128700Y-119000000D03*
X183881300Y-116999999D03*
X181128700Y-115000001D03*
X183881300Y-112999999D03*
X181128700Y-111000001D03*
X183881300Y-109000000D03*
G04 #@! TD*
D18*
G04 #@! TO.C,U3*
X159602500Y-120850000D03*
X160402500Y-120850000D03*
X160402500Y-122250000D03*
X159602500Y-122250000D03*
G04 #@! TD*
M02*
