G04 #@! TF.GenerationSoftware,KiCad,Pcbnew,9.0.6*
G04 #@! TF.CreationDate,2026-01-27T22:02:47+13:00*
G04 #@! TF.ProjectId,Main_PCB_Based_on_8411A,4d61696e-5f50-4434-925f-42617365645f,rev?*
G04 #@! TF.SameCoordinates,Original*
G04 #@! TF.FileFunction,Paste,Top*
G04 #@! TF.FilePolarity,Positive*
%FSLAX46Y46*%
G04 Gerber Fmt 4.6, Leading zero omitted, Abs format (unit mm)*
G04 Created by KiCad (PCBNEW 9.0.6) date 2026-01-27 22:02:47*
%MOMM*%
%LPD*%
G01*
G04 APERTURE LIST*
G04 Aperture macros list*
%AMRoundRect*
0 Rectangle with rounded corners*
0 $1 Rounding radius*
0 $2 $3 $4 $5 $6 $7 $8 $9 X,Y pos of 4 corners*
0 Add a 4 corners polygon primitive as box body*
4,1,4,$2,$3,$4,$5,$6,$7,$8,$9,$2,$3,0*
0 Add four circle primitives for the rounded corners*
1,1,$1+$1,$2,$3*
1,1,$1+$1,$4,$5*
1,1,$1+$1,$6,$7*
1,1,$1+$1,$8,$9*
0 Add four rect primitives between the rounded corners*
20,1,$1+$1,$2,$3,$4,$5,0*
20,1,$1+$1,$4,$5,$6,$7,0*
20,1,$1+$1,$6,$7,$8,$9,0*
20,1,$1+$1,$8,$9,$2,$3,0*%
G04 Aperture macros list end*
%ADD10C,0.000000*%
%ADD11C,0.010000*%
%ADD12R,0.254000X0.812800*%
%ADD13R,0.812800X0.254000*%
%ADD14C,0.508000*%
%ADD15R,1.676400X1.676400*%
%ADD16RoundRect,0.135000X-0.135000X-0.185000X0.135000X-0.185000X0.135000X0.185000X-0.135000X0.185000X0*%
%ADD17C,0.800000*%
%ADD18RoundRect,0.140000X0.140000X0.170000X-0.140000X0.170000X-0.140000X-0.170000X0.140000X-0.170000X0*%
%ADD19RoundRect,0.140000X-0.170000X0.140000X-0.170000X-0.140000X0.170000X-0.140000X0.170000X0.140000X0*%
%ADD20RoundRect,0.250000X-0.475000X0.250000X-0.475000X-0.250000X0.475000X-0.250000X0.475000X0.250000X0*%
%ADD21RoundRect,0.140000X-0.140000X-0.170000X0.140000X-0.170000X0.140000X0.170000X-0.140000X0.170000X0*%
%ADD22R,0.980000X3.400000*%
%ADD23RoundRect,0.140000X0.170000X-0.140000X0.170000X0.140000X-0.170000X0.140000X-0.170000X-0.140000X0*%
%ADD24RoundRect,0.135000X0.135000X0.185000X-0.135000X0.185000X-0.135000X-0.185000X0.135000X-0.185000X0*%
%ADD25RoundRect,0.225000X-0.250000X0.225000X-0.250000X-0.225000X0.250000X-0.225000X0.250000X0.225000X0*%
%ADD26RoundRect,0.225000X0.225000X0.250000X-0.225000X0.250000X-0.225000X-0.250000X0.225000X-0.250000X0*%
%ADD27RoundRect,0.135000X0.185000X-0.135000X0.185000X0.135000X-0.185000X0.135000X-0.185000X-0.135000X0*%
%ADD28R,1.000000X2.900000*%
%ADD29R,1.800000X3.600000*%
%ADD30R,1.003300X0.508000*%
%ADD31R,1.549400X0.558800*%
%ADD32R,4.902200X4.470400*%
%ADD33RoundRect,0.135000X-0.185000X0.135000X-0.185000X-0.135000X0.185000X-0.135000X0.185000X0.135000X0*%
%ADD34RoundRect,0.250000X0.475000X-0.250000X0.475000X0.250000X-0.475000X0.250000X-0.475000X-0.250000X0*%
%ADD35RoundRect,0.243750X-0.243750X-0.456250X0.243750X-0.456250X0.243750X0.456250X-0.243750X0.456250X0*%
%ADD36RoundRect,0.027500X-0.402500X-0.082500X0.402500X-0.082500X0.402500X0.082500X-0.402500X0.082500X0*%
%ADD37RoundRect,0.027500X-0.082500X-0.402500X0.082500X-0.402500X0.082500X0.402500X-0.082500X0.402500X0*%
G04 APERTURE END LIST*
D10*
G04 #@! TO.C,U4*
G36*
X108140000Y-117140000D02*
G01*
X107320001Y-117140000D01*
X107320001Y-116860001D01*
X108140000Y-116860001D01*
X108140000Y-117140000D01*
G37*
G36*
X108140000Y-117639999D02*
G01*
X107320001Y-117639999D01*
X107320001Y-117360000D01*
X108140000Y-117360000D01*
X108140000Y-117639999D01*
G37*
G36*
X108140000Y-118140001D02*
G01*
X107320001Y-118140001D01*
X107320001Y-117860001D01*
X108140000Y-117860001D01*
X108140000Y-118140001D01*
G37*
G36*
X108140000Y-118640000D02*
G01*
X107320001Y-118640000D01*
X107320001Y-118360000D01*
X108140000Y-118360000D01*
X108140000Y-118640000D01*
G37*
G36*
X108140000Y-119140001D02*
G01*
X107320001Y-119140001D01*
X107320001Y-118859999D01*
X108140000Y-118859999D01*
X108140000Y-119140001D01*
G37*
G36*
X108140000Y-119640000D02*
G01*
X107320001Y-119640000D01*
X107320001Y-119360001D01*
X108140000Y-119360001D01*
X108140000Y-119640000D01*
G37*
G36*
X108140000Y-120139999D02*
G01*
X107320001Y-120139999D01*
X107320001Y-119860000D01*
X108140000Y-119860000D01*
X108140000Y-120139999D01*
G37*
G36*
X111159999Y-117140000D02*
G01*
X110340000Y-117140000D01*
X110340000Y-116860001D01*
X111159999Y-116860001D01*
X111159999Y-117140000D01*
G37*
G36*
X111159999Y-117639999D02*
G01*
X110340000Y-117639999D01*
X110340000Y-117360000D01*
X111159999Y-117360000D01*
X111159999Y-117639999D01*
G37*
G36*
X111159999Y-118140001D02*
G01*
X110340000Y-118140001D01*
X110340000Y-117859999D01*
X111159999Y-117859999D01*
X111159999Y-118140001D01*
G37*
G36*
X111159999Y-118640000D02*
G01*
X110340000Y-118640000D01*
X110340000Y-118360000D01*
X111159999Y-118360000D01*
X111159999Y-118640000D01*
G37*
G36*
X111159999Y-119139999D02*
G01*
X110340000Y-119139999D01*
X110340000Y-118859999D01*
X111159999Y-118859999D01*
X111159999Y-119139999D01*
G37*
G36*
X111159999Y-119640000D02*
G01*
X110340000Y-119640000D01*
X110340000Y-119360001D01*
X111159999Y-119360001D01*
X111159999Y-119640000D01*
G37*
G36*
X111159999Y-120139999D02*
G01*
X110340000Y-120139999D01*
X110340000Y-119860000D01*
X111159999Y-119860000D01*
X111159999Y-120139999D01*
G37*
G36*
X108746300Y-117471179D02*
G01*
X108604879Y-117612600D01*
X108524930Y-117612600D01*
X108524930Y-117149930D01*
X108746300Y-117149930D01*
X108746300Y-117471179D01*
G37*
G36*
X108746300Y-119528821D02*
G01*
X108746300Y-119850070D01*
X108524930Y-119850070D01*
X108524930Y-119387400D01*
X108604879Y-119387400D01*
X108746300Y-119528821D01*
G37*
G36*
X109955070Y-117612600D02*
G01*
X109875121Y-117612600D01*
X109733700Y-117471179D01*
X109733700Y-117149930D01*
X109955070Y-117149930D01*
X109955070Y-117612600D01*
G37*
G36*
X109955070Y-119850070D02*
G01*
X109733700Y-119850070D01*
X109733700Y-119528821D01*
X109875121Y-119387400D01*
X109955070Y-119387400D01*
X109955070Y-119850070D01*
G37*
G36*
X108746300Y-117954021D02*
G01*
X108746300Y-118258579D01*
X108604879Y-118400000D01*
X108524930Y-118400000D01*
X108524930Y-117812600D01*
X108604879Y-117812600D01*
X108746300Y-117954021D01*
G37*
G36*
X108746300Y-118741421D02*
G01*
X108746300Y-119045979D01*
X108604879Y-119187400D01*
X108524930Y-119187400D01*
X108524930Y-118600000D01*
X108604879Y-118600000D01*
X108746300Y-118741421D01*
G37*
G36*
X109533700Y-117471179D02*
G01*
X109392279Y-117612600D01*
X109087721Y-117612600D01*
X108946300Y-117471179D01*
X108946300Y-117149930D01*
X109533700Y-117149930D01*
X109533700Y-117471179D01*
G37*
G36*
X109533700Y-119528821D02*
G01*
X109533700Y-119850070D01*
X108946300Y-119850070D01*
X108946300Y-119528821D01*
X109087721Y-119387400D01*
X109392279Y-119387400D01*
X109533700Y-119528821D01*
G37*
G36*
X109955070Y-118400000D02*
G01*
X109875121Y-118400000D01*
X109733700Y-118258579D01*
X109733700Y-117954021D01*
X109875121Y-117812600D01*
X109955070Y-117812600D01*
X109955070Y-118400000D01*
G37*
G36*
X109955070Y-119187400D02*
G01*
X109875121Y-119187400D01*
X109733700Y-119045979D01*
X109733700Y-118741421D01*
X109875121Y-118600000D01*
X109955070Y-118600000D01*
X109955070Y-119187400D01*
G37*
G36*
X109533700Y-117954021D02*
G01*
X109533700Y-118258579D01*
X109392279Y-118400000D01*
X109087721Y-118400000D01*
X108946300Y-118258579D01*
X108946300Y-117954021D01*
X109087721Y-117812600D01*
X109392279Y-117812600D01*
X109533700Y-117954021D01*
G37*
G36*
X109533700Y-118741421D02*
G01*
X109533700Y-119045979D01*
X109392279Y-119187400D01*
X109087721Y-119187400D01*
X108946300Y-119045979D01*
X108946300Y-118741421D01*
X109087721Y-118600000D01*
X109392279Y-118600000D01*
X109533700Y-118741421D01*
G37*
D11*
G04 #@! TO.C,U1*
X122535000Y-109170000D02*
X121195000Y-109170000D01*
X121195000Y-107830000D01*
X122535000Y-107830000D01*
X122535000Y-109170000D01*
G36*
X122535000Y-109170000D02*
G01*
X121195000Y-109170000D01*
X121195000Y-107830000D01*
X122535000Y-107830000D01*
X122535000Y-109170000D01*
G37*
X122535000Y-111070000D02*
X121195000Y-111070000D01*
X121195000Y-109730000D01*
X122535000Y-109730000D01*
X122535000Y-111070000D01*
G36*
X122535000Y-111070000D02*
G01*
X121195000Y-111070000D01*
X121195000Y-109730000D01*
X122535000Y-109730000D01*
X122535000Y-111070000D01*
G37*
X122535000Y-112970000D02*
X121195000Y-112970000D01*
X121195000Y-111630000D01*
X122535000Y-111630000D01*
X122535000Y-112970000D01*
G36*
X122535000Y-112970000D02*
G01*
X121195000Y-112970000D01*
X121195000Y-111630000D01*
X122535000Y-111630000D01*
X122535000Y-112970000D01*
G37*
X124235000Y-109170000D02*
X123095000Y-109170000D01*
X123095000Y-107830000D01*
X124235000Y-107830000D01*
X124235000Y-109170000D01*
G36*
X124235000Y-109170000D02*
G01*
X123095000Y-109170000D01*
X123095000Y-107830000D01*
X124235000Y-107830000D01*
X124235000Y-109170000D01*
G37*
X124235000Y-111070000D02*
X123095000Y-111070000D01*
X123095000Y-109730000D01*
X124235000Y-109730000D01*
X124235000Y-111070000D01*
G36*
X124235000Y-111070000D02*
G01*
X123095000Y-111070000D01*
X123095000Y-109730000D01*
X124235000Y-109730000D01*
X124235000Y-111070000D01*
G37*
X124035000Y-112770000D02*
X123095000Y-112770000D01*
X123095000Y-111630000D01*
X124035000Y-111630000D01*
X124035000Y-112770000D01*
G36*
X124035000Y-112770000D02*
G01*
X123095000Y-112770000D01*
X123095000Y-111630000D01*
X124035000Y-111630000D01*
X124035000Y-112770000D01*
G37*
X126415000Y-109170000D02*
X125375000Y-109170000D01*
X125375000Y-107830000D01*
X126415000Y-107830000D01*
X126415000Y-109170000D01*
G36*
X126415000Y-109170000D02*
G01*
X125375000Y-109170000D01*
X125375000Y-107830000D01*
X126415000Y-107830000D01*
X126415000Y-109170000D01*
G37*
X126415000Y-111070000D02*
X125375000Y-111070000D01*
X125375000Y-109730000D01*
X126415000Y-109730000D01*
X126415000Y-111070000D01*
G36*
X126415000Y-111070000D02*
G01*
X125375000Y-111070000D01*
X125375000Y-109730000D01*
X126415000Y-109730000D01*
X126415000Y-111070000D01*
G37*
X126415000Y-112964058D02*
X125375000Y-112964058D01*
X125375000Y-111624058D01*
X126415000Y-111624058D01*
X126415000Y-112964058D01*
G36*
X126415000Y-112964058D02*
G01*
X125375000Y-112964058D01*
X125375000Y-111624058D01*
X126415000Y-111624058D01*
X126415000Y-112964058D01*
G37*
G04 #@! TD*
D12*
G04 #@! TO.C,U2*
X159252499Y-109473200D03*
X159752500Y-109473200D03*
X160252500Y-109473200D03*
X160752501Y-109473200D03*
D13*
X161475700Y-108750001D03*
X161475700Y-108250000D03*
X161475700Y-107750000D03*
X161475700Y-107249999D03*
D12*
X160752501Y-106526800D03*
X160252500Y-106526800D03*
X159752500Y-106526800D03*
X159252499Y-106526800D03*
D13*
X158529300Y-107249999D03*
X158529300Y-107750000D03*
X158529300Y-108250000D03*
X158529300Y-108750001D03*
D14*
X159502500Y-108500000D03*
X160002500Y-108500000D03*
X160502500Y-108500000D03*
X159502500Y-108000000D03*
X160002500Y-108000000D03*
D15*
X160002500Y-108000000D03*
D14*
X160502500Y-108000000D03*
X159502500Y-107500000D03*
X160002500Y-107500000D03*
X160502500Y-107500000D03*
G04 #@! TD*
D16*
G04 #@! TO.C,R7*
X105280000Y-117820000D03*
X106300000Y-117820000D03*
G04 #@! TD*
D17*
G04 #@! TO.C,U6*
X203979000Y-105615000D03*
X203979000Y-106885000D03*
X203979000Y-108155000D03*
X203979000Y-109425000D03*
X203979000Y-110695000D03*
X203979000Y-111965000D03*
X203979000Y-113235000D03*
X203979000Y-114505000D03*
X203979000Y-115775000D03*
X203979000Y-117045000D03*
X205499000Y-117045000D03*
X206769000Y-117045000D03*
X208039000Y-117045000D03*
X209309000Y-117045000D03*
X210579000Y-117045000D03*
X211849000Y-117045000D03*
X213369000Y-117045000D03*
X213369000Y-115775000D03*
X213369000Y-114505000D03*
X213369000Y-113235000D03*
X213369000Y-111965000D03*
X213369000Y-110695000D03*
X213369000Y-109425000D03*
X213369000Y-108155000D03*
X213369000Y-106885000D03*
X213369000Y-105615000D03*
X209019000Y-102505000D03*
X206069000Y-102505000D03*
X203979000Y-100905000D03*
X213369000Y-100905000D03*
G04 #@! TD*
D18*
G04 #@! TO.C,C9*
X125000000Y-115500000D03*
X124040000Y-115500000D03*
G04 #@! TD*
D19*
G04 #@! TO.C,C28*
X120550000Y-122550002D03*
X120550000Y-123510002D03*
G04 #@! TD*
D20*
G04 #@! TO.C,C31*
X115500000Y-116900000D03*
X115500000Y-118800000D03*
G04 #@! TD*
D21*
G04 #@! TO.C,C26*
X107740000Y-115800000D03*
X108700000Y-115800000D03*
G04 #@! TD*
D22*
G04 #@! TO.C,L1*
X108065000Y-123000000D03*
X110435000Y-123000000D03*
G04 #@! TD*
D23*
G04 #@! TO.C,C3*
X118550000Y-114560000D03*
X118550000Y-113600000D03*
G04 #@! TD*
D24*
G04 #@! TO.C,R6*
X162620000Y-105000000D03*
X161600000Y-105000000D03*
G04 #@! TD*
D25*
G04 #@! TO.C,C24*
X102025000Y-119050000D03*
X102025000Y-120600000D03*
G04 #@! TD*
D19*
G04 #@! TO.C,C18*
X129000000Y-109000000D03*
X129000000Y-109960000D03*
G04 #@! TD*
D25*
G04 #@! TO.C,C22*
X105050000Y-119050000D03*
X105050000Y-120600000D03*
G04 #@! TD*
D26*
G04 #@! TO.C,C15*
X160775000Y-103800000D03*
X159225000Y-103800000D03*
G04 #@! TD*
D21*
G04 #@! TO.C,C2*
X117600000Y-110650000D03*
X118560000Y-110650000D03*
G04 #@! TD*
D23*
G04 #@! TO.C,C1*
X139500000Y-125060000D03*
X139500000Y-124100000D03*
G04 #@! TD*
G04 #@! TO.C,C14*
X128900000Y-114560000D03*
X128900000Y-113600000D03*
G04 #@! TD*
D27*
G04 #@! TO.C,R12*
X125100000Y-103640000D03*
X125100000Y-102620000D03*
G04 #@! TD*
D25*
G04 #@! TO.C,C32*
X216185000Y-106870000D03*
X216185000Y-108420000D03*
G04 #@! TD*
D21*
G04 #@! TO.C,C21*
X159540000Y-124750000D03*
X160500000Y-124750000D03*
G04 #@! TD*
D28*
G04 #@! TO.C,J3*
X150150000Y-120100000D03*
X148150000Y-120100000D03*
X146150000Y-120100000D03*
D29*
X143800000Y-124750000D03*
X152500000Y-124750000D03*
G04 #@! TD*
D21*
G04 #@! TO.C,C5*
X120000000Y-105250000D03*
X120960000Y-105250000D03*
G04 #@! TD*
D30*
G04 #@! TO.C,U5*
X124700000Y-123500002D03*
X124700000Y-122550001D03*
X124700000Y-121600000D03*
X121994900Y-121600000D03*
X121994900Y-123500002D03*
G04 #@! TD*
D23*
G04 #@! TO.C,C33*
X214935000Y-107830000D03*
X214935000Y-106870000D03*
G04 #@! TD*
D20*
G04 #@! TO.C,C30*
X113500000Y-116900000D03*
X113500000Y-118800000D03*
G04 #@! TD*
D31*
G04 #@! TO.C,Q1*
X131731200Y-122195000D03*
X131731200Y-123465000D03*
X131731200Y-124735000D03*
X131731200Y-126005000D03*
D32*
X136100000Y-124100000D03*
G04 #@! TD*
D21*
G04 #@! TO.C,C11*
X123220000Y-103200000D03*
X124180000Y-103200000D03*
G04 #@! TD*
G04 #@! TO.C,C6*
X122040000Y-116500000D03*
X123000000Y-116500000D03*
G04 #@! TD*
D18*
G04 #@! TO.C,C17*
X160480000Y-105000000D03*
X159520000Y-105000000D03*
G04 #@! TD*
D33*
G04 #@! TO.C,R4*
X126400000Y-102600000D03*
X126400000Y-103620000D03*
G04 #@! TD*
G04 #@! TO.C,R11*
X125900000Y-115480000D03*
X125900000Y-116500000D03*
G04 #@! TD*
D20*
G04 #@! TO.C,C4*
X129500000Y-123500000D03*
X129500000Y-125400000D03*
G04 #@! TD*
D16*
G04 #@! TO.C,R8*
X160500000Y-126200000D03*
X161520000Y-126200000D03*
G04 #@! TD*
D25*
G04 #@! TO.C,C23*
X103550000Y-119050000D03*
X103550000Y-120600000D03*
G04 #@! TD*
D23*
G04 #@! TO.C,C16*
X130000000Y-109960000D03*
X130000000Y-109000000D03*
G04 #@! TD*
D16*
G04 #@! TO.C,R2*
X115990000Y-106500000D03*
X117010000Y-106500000D03*
G04 #@! TD*
D19*
G04 #@! TO.C,C29*
X112000000Y-118750000D03*
X112000000Y-119710000D03*
G04 #@! TD*
D24*
G04 #@! TO.C,R9*
X159500000Y-126200000D03*
X158480000Y-126200000D03*
G04 #@! TD*
D18*
G04 #@! TO.C,C13*
X128250000Y-105100000D03*
X127290000Y-105100000D03*
G04 #@! TD*
D21*
G04 #@! TO.C,C7*
X122040000Y-115500000D03*
X123000000Y-115500000D03*
G04 #@! TD*
D23*
G04 #@! TO.C,C20*
X129000000Y-107610000D03*
X129000000Y-106650000D03*
G04 #@! TD*
D34*
G04 #@! TO.C,C27*
X126700000Y-123500000D03*
X126700000Y-121600000D03*
G04 #@! TD*
D16*
G04 #@! TO.C,R10*
X105280000Y-116820000D03*
X106300000Y-116820000D03*
G04 #@! TD*
D35*
G04 #@! TO.C,D1*
X111625000Y-106500000D03*
X113500000Y-106500000D03*
G04 #@! TD*
D21*
G04 #@! TO.C,C12*
X125440000Y-104570000D03*
X126400000Y-104570000D03*
G04 #@! TD*
G04 #@! TO.C,C10*
X123220000Y-104150000D03*
X124180000Y-104150000D03*
G04 #@! TD*
D23*
G04 #@! TO.C,C25*
X106300000Y-119810000D03*
X106300000Y-118850000D03*
G04 #@! TD*
D18*
G04 #@! TO.C,C8*
X125000000Y-116500000D03*
X124040000Y-116500000D03*
G04 #@! TD*
G04 #@! TO.C,C19*
X129950000Y-110900000D03*
X128990000Y-110900000D03*
G04 #@! TD*
D27*
G04 #@! TO.C,R3*
X158000000Y-105310000D03*
X158000000Y-104290000D03*
G04 #@! TD*
D36*
G04 #@! TO.C,U1*
X119830000Y-107200000D03*
X119830000Y-107600000D03*
X119830000Y-108000000D03*
X119830000Y-108400000D03*
X119830000Y-108800000D03*
X119830000Y-109200000D03*
X119830000Y-109600000D03*
X119830000Y-110000000D03*
X119830000Y-110400000D03*
X119830000Y-110800000D03*
X119830000Y-111200000D03*
X119830000Y-111600000D03*
X119830000Y-112000000D03*
X119830000Y-112400000D03*
X119830000Y-112800000D03*
X119830000Y-113200000D03*
X119830000Y-113600000D03*
D37*
X120565000Y-114335000D03*
X120965000Y-114335000D03*
X121365000Y-114335000D03*
X121765000Y-114335000D03*
X122165000Y-114335000D03*
X122565000Y-114335000D03*
X122965000Y-114335000D03*
X123365000Y-114335000D03*
X123765000Y-114335000D03*
X124165000Y-114335000D03*
X124565000Y-114335000D03*
X124965000Y-114335000D03*
X125365000Y-114335000D03*
X125765000Y-114335000D03*
X126165000Y-114335000D03*
X126565000Y-114335000D03*
X126965000Y-114335000D03*
D36*
X127700000Y-113600000D03*
X127700000Y-113200000D03*
X127700000Y-112800000D03*
X127700000Y-112400000D03*
X127700000Y-112000000D03*
X127700000Y-111600000D03*
X127700000Y-111200000D03*
X127700000Y-110800000D03*
X127700000Y-110400000D03*
X127700000Y-110000000D03*
X127700000Y-109600000D03*
X127700000Y-109200000D03*
X127700000Y-108800000D03*
X127700000Y-108400000D03*
X127700000Y-108000000D03*
X127700000Y-107600000D03*
X127700000Y-107200000D03*
D37*
X126965000Y-106465000D03*
X126565000Y-106465000D03*
X126165000Y-106465000D03*
X125765000Y-106465000D03*
X125365000Y-106465000D03*
X124965000Y-106465000D03*
X124565000Y-106465000D03*
X124165000Y-106465000D03*
X123765000Y-106465000D03*
X123365000Y-106465000D03*
X122965000Y-106465000D03*
X122565000Y-106465000D03*
X122165000Y-106465000D03*
X121765000Y-106465000D03*
X121365000Y-106465000D03*
X120965000Y-106465000D03*
X120565000Y-106465000D03*
G04 #@! TD*
D33*
G04 #@! TO.C,R1*
X118500000Y-108750000D03*
X118500000Y-109770000D03*
G04 #@! TD*
G04 #@! TO.C,R5*
X130000000Y-106600000D03*
X130000000Y-107620000D03*
G04 #@! TD*
M02*
