%TF.GenerationSoftware,KiCad,Pcbnew,9.0.6*%
%TF.CreationDate,2026-01-27T22:02:47+13:00*%
%TF.ProjectId,Main_PCB_Based_on_8411A,4d61696e-5f50-4434-925f-42617365645f,rev?*%
%TF.SameCoordinates,Original*%
%TF.FileFunction,Drillmap*%
%TF.FilePolarity,Positive*%
%FSLAX45Y45*%
G04 Gerber Fmt 4.5, Leading zero omitted, Abs format (unit mm)*
G04 Created by KiCad (PCBNEW 9.0.6) date 2026-01-27 22:02:47*
%MOMM*%
%LPD*%
G01*
G04 APERTURE LIST*
%ADD10C,0.050000*%
%ADD11C,0.010000*%
%ADD12C,0.200000*%
%ADD13C,0.100000*%
%ADD14C,0.110000*%
%ADD15C,0.250000*%
G04 APERTURE END LIST*
D10*
X10530000Y-10400000D02*
G75*
G02*
X10270000Y-10400000I-130000J0D01*
G01*
X10270000Y-10400000D02*
G75*
G02*
X10530000Y-10400000I130000J0D01*
G01*
X18125500Y-10775000D02*
X18375500Y-10775000D01*
X18375500Y-12025000D01*
X18125500Y-12025000D01*
X18125500Y-10775000D01*
X10530000Y-12400000D02*
G75*
G02*
X10270000Y-12400000I-130000J0D01*
G01*
X10270000Y-12400000D02*
G75*
G02*
X10530000Y-12400000I130000J0D01*
G01*
X21730500Y-12400000D02*
G75*
G02*
X21470500Y-12400000I-130000J0D01*
G01*
X21470500Y-12400000D02*
G75*
G02*
X21730500Y-12400000I130000J0D01*
G01*
X9900000Y-10000000D02*
X22100500Y-10000000D01*
X22100500Y-12800000D01*
X9900000Y-12800000D01*
X9900000Y-10000000D01*
X13625000Y-10775000D02*
X13875000Y-10775000D01*
X13875000Y-12025000D01*
X13625000Y-12025000D01*
X13625000Y-10775000D01*
X21730500Y-10400000D02*
G75*
G02*
X21470500Y-10400000I-130000J0D01*
G01*
X21470500Y-10400000D02*
G75*
G02*
X21730500Y-10400000I130000J0D01*
G01*
D11*
X14335000Y-12085000D02*
X14445000Y-12085000D01*
X14445000Y-12185000D02*
X14335000Y-12185000D01*
X14285000Y-12135000D02*
G75*
G02*
X14335000Y-12085000I50000J0D01*
G01*
X14335000Y-12185000D02*
G75*
G02*
X14285000Y-12135000I0J50000D01*
G01*
X14445000Y-12085000D02*
G75*
G02*
X14495000Y-12135000I0J-50000D01*
G01*
X14495000Y-12135000D02*
G75*
G02*
X14445000Y-12185000I-50000J0D01*
G01*
D10*
X15550250Y-12155000D02*
X15550870Y-12178550D01*
X15550870Y-12131450D02*
X15550250Y-12155000D01*
X15550870Y-12178550D02*
X15552720Y-12202040D01*
X15552720Y-12107960D02*
X15550870Y-12131450D01*
X15552720Y-12202040D02*
X15555790Y-12225400D01*
X15555790Y-12084600D02*
X15552720Y-12107960D01*
X15555790Y-12225400D02*
X15560080Y-12248560D01*
X15560080Y-12061440D02*
X15555790Y-12084600D01*
X15560080Y-12248560D02*
X15565580Y-12271470D01*
X15565580Y-12038530D02*
X15560080Y-12061440D01*
X15565580Y-12271470D02*
X15572270Y-12294060D01*
X15572270Y-12015940D02*
X15565580Y-12038530D01*
X15572270Y-12294060D02*
X15580140Y-12316270D01*
X15580140Y-11993730D02*
X15572270Y-12015940D01*
X15580140Y-12316270D02*
X15589150Y-12338030D01*
X15589150Y-11971970D02*
X15580140Y-11993730D01*
X15589150Y-12338030D02*
X15599300Y-12359300D01*
X15599300Y-11950700D02*
X15589150Y-11971970D01*
X15599300Y-12359300D02*
X15610540Y-12380000D01*
X15610540Y-11930000D02*
X15599300Y-11950700D01*
X15610540Y-12380000D02*
X15622850Y-12400090D01*
X15622850Y-11909910D02*
X15610540Y-11930000D01*
X15622850Y-12400090D02*
X15636190Y-12419500D01*
X15636190Y-11890500D02*
X15622850Y-11909910D01*
X15636190Y-12419500D02*
X15650530Y-12438190D01*
X15650530Y-11871810D02*
X15636190Y-11890500D01*
X15650530Y-12438190D02*
X15665830Y-12456110D01*
X15665830Y-11853890D02*
X15650530Y-11871810D01*
X15665830Y-12456110D02*
X15682050Y-12473200D01*
X15682050Y-11836800D02*
X15665830Y-11853890D01*
X15682050Y-12473200D02*
X15823470Y-12331780D01*
X15699140Y-11820580D02*
X15682050Y-11836800D01*
X15717060Y-11805280D02*
X15699140Y-11820580D01*
X15735750Y-11790940D02*
X15717060Y-11805280D01*
X15750250Y-12155000D02*
X15750590Y-12141920D01*
X15750590Y-12141920D02*
X15751620Y-12128870D01*
X15750590Y-12168080D02*
X15750250Y-12155000D01*
X15751620Y-12128870D02*
X15753330Y-12115890D01*
X15751620Y-12181130D02*
X15750590Y-12168080D01*
X15753330Y-12115890D02*
X15755710Y-12103020D01*
X15753330Y-12194110D02*
X15751620Y-12181130D01*
X15755160Y-11777600D02*
X15735750Y-11790940D01*
X15755710Y-12103020D02*
X15758770Y-12090300D01*
X15755710Y-12206980D02*
X15753330Y-12194110D01*
X15758770Y-12090300D02*
X15762490Y-12077750D01*
X15758770Y-12219700D02*
X15755710Y-12206980D01*
X15762490Y-12077750D02*
X15766850Y-12065410D01*
X15762490Y-12232250D02*
X15758770Y-12219700D01*
X15766850Y-12065410D02*
X15771860Y-12053320D01*
X15766850Y-12244590D02*
X15762490Y-12232250D01*
X15771860Y-12053320D02*
X15777500Y-12041500D01*
X15771860Y-12256680D02*
X15766850Y-12244590D01*
X15775250Y-11765290D02*
X15755160Y-11777600D01*
X15777500Y-12041500D02*
X15783740Y-12030000D01*
X15777500Y-12268500D02*
X15771860Y-12256680D01*
X15783740Y-12030000D02*
X15790580Y-12018840D01*
X15783740Y-12280000D02*
X15777500Y-12268500D01*
X15790580Y-12018840D02*
X15798000Y-12008050D01*
X15790580Y-12291160D02*
X15783740Y-12280000D01*
X15795950Y-11754050D02*
X15775250Y-11765290D01*
X15798000Y-12008050D02*
X15805960Y-11997670D01*
X15798000Y-12301950D02*
X15790580Y-12291160D01*
X15805960Y-11997670D02*
X15814460Y-11987720D01*
X15805960Y-12312330D02*
X15798000Y-12301950D01*
X15814460Y-11987720D02*
X15823470Y-11978220D01*
X15814460Y-12322280D02*
X15805960Y-12312330D01*
X15817220Y-11743900D02*
X15795950Y-11754050D01*
X15823470Y-11978220D02*
X15832970Y-11969210D01*
X15823470Y-12331780D02*
X15814460Y-12322280D01*
X15832970Y-11969210D02*
X15842920Y-11960710D01*
X15838980Y-11734890D02*
X15817220Y-11743900D01*
X15842920Y-11960710D02*
X15853300Y-11952750D01*
X15853300Y-11952750D02*
X15864090Y-11945330D01*
X15861190Y-11727020D02*
X15838980Y-11734890D01*
X15864090Y-11945330D02*
X15875250Y-11938490D01*
X15875250Y-11938490D02*
X15886750Y-11932250D01*
X15883780Y-11720330D02*
X15861190Y-11727020D01*
X15886750Y-11932250D02*
X15898570Y-11926610D01*
X15898570Y-11926610D02*
X15910660Y-11921600D01*
X15906690Y-11714830D02*
X15883780Y-11720330D01*
X15910660Y-11921600D02*
X15923000Y-11917240D01*
X15923000Y-11917240D02*
X15935550Y-11913520D01*
X15929850Y-11710540D02*
X15906690Y-11714830D01*
X15935550Y-11913520D02*
X15948270Y-11910460D01*
X15948270Y-11910460D02*
X15961140Y-11908080D01*
X15953210Y-11707470D02*
X15929850Y-11710540D01*
X15961140Y-11908080D02*
X15974120Y-11906370D01*
X15974120Y-11906370D02*
X15987170Y-11905340D01*
X15976700Y-11705620D02*
X15953210Y-11707470D01*
X15987170Y-11905340D02*
X16000250Y-11905000D01*
X16000250Y-11705000D02*
X15976700Y-11705620D01*
X16000250Y-11905000D02*
X16013330Y-11905340D01*
X16013330Y-11905340D02*
X16026380Y-11906370D01*
X16023800Y-11705620D02*
X16000250Y-11705000D01*
X16026380Y-11906370D02*
X16039360Y-11908080D01*
X16039360Y-11908080D02*
X16052230Y-11910460D01*
X16047290Y-11707470D02*
X16023800Y-11705620D01*
X16052230Y-11910460D02*
X16064950Y-11913520D01*
X16064950Y-11913520D02*
X16077500Y-11917240D01*
X16070650Y-11710540D02*
X16047290Y-11707470D01*
X16077500Y-11917240D02*
X16089840Y-11921600D01*
X16089840Y-11921600D02*
X16101930Y-11926610D01*
X16093810Y-11714830D02*
X16070650Y-11710540D01*
X16101930Y-11926610D02*
X16113750Y-11932250D01*
X16113750Y-11932250D02*
X16125250Y-11938490D01*
X16116720Y-11720330D02*
X16093810Y-11714830D01*
X16125250Y-11938490D02*
X16136410Y-11945330D01*
X16136410Y-11945330D02*
X16147200Y-11952750D01*
X16139310Y-11727020D02*
X16116720Y-11720330D01*
X16147200Y-11952750D02*
X16157580Y-11960710D01*
X16157580Y-11960710D02*
X16167530Y-11969210D01*
X16161520Y-11734890D02*
X16139310Y-11727020D01*
X16167530Y-11969210D02*
X16177030Y-11978220D01*
X16177030Y-11978220D02*
X16186040Y-11987720D01*
X16177030Y-12331780D02*
X16318450Y-12473200D01*
X16183280Y-11743900D02*
X16161520Y-11734890D01*
X16186040Y-11987720D02*
X16194540Y-11997670D01*
X16186040Y-12322280D02*
X16177030Y-12331780D01*
X16194540Y-11997670D02*
X16202500Y-12008050D01*
X16194540Y-12312330D02*
X16186040Y-12322280D01*
X16202500Y-12008050D02*
X16209920Y-12018840D01*
X16202500Y-12301950D02*
X16194540Y-12312330D01*
X16204550Y-11754050D02*
X16183280Y-11743900D01*
X16209920Y-12018840D02*
X16216760Y-12030000D01*
X16209920Y-12291160D02*
X16202500Y-12301950D01*
X16216760Y-12030000D02*
X16223000Y-12041500D01*
X16216760Y-12280000D02*
X16209920Y-12291160D01*
X16223000Y-12041500D02*
X16228640Y-12053320D01*
X16223000Y-12268500D02*
X16216760Y-12280000D01*
X16225250Y-11765290D02*
X16204550Y-11754050D01*
X16228640Y-12053320D02*
X16233650Y-12065410D01*
X16228640Y-12256680D02*
X16223000Y-12268500D01*
X16233650Y-12065410D02*
X16238010Y-12077750D01*
X16233650Y-12244590D02*
X16228640Y-12256680D01*
X16238010Y-12077750D02*
X16241730Y-12090300D01*
X16238010Y-12232250D02*
X16233650Y-12244590D01*
X16241730Y-12090300D02*
X16244790Y-12103020D01*
X16241730Y-12219700D02*
X16238010Y-12232250D01*
X16244790Y-12103020D02*
X16247170Y-12115890D01*
X16244790Y-12206980D02*
X16241730Y-12219700D01*
X16245340Y-11777600D02*
X16225250Y-11765290D01*
X16247170Y-12115890D02*
X16248880Y-12128870D01*
X16247170Y-12194110D02*
X16244790Y-12206980D01*
X16248880Y-12128870D02*
X16249910Y-12141920D01*
X16248880Y-12181130D02*
X16247170Y-12194110D01*
X16249910Y-12141920D02*
X16250250Y-12155000D01*
X16249910Y-12168080D02*
X16248880Y-12181130D01*
X16250250Y-12155000D02*
X16249910Y-12168080D01*
X16264750Y-11790940D02*
X16245340Y-11777600D01*
X16283440Y-11805280D02*
X16264750Y-11790940D01*
X16301360Y-11820580D02*
X16283440Y-11805280D01*
X16318450Y-11836800D02*
X16301360Y-11820580D01*
X16318450Y-12473200D02*
X16334670Y-12456110D01*
X16334670Y-11853890D02*
X16318450Y-11836800D01*
X16334670Y-12456110D02*
X16349970Y-12438190D01*
X16349970Y-11871810D02*
X16334670Y-11853890D01*
X16349970Y-12438190D02*
X16364310Y-12419500D01*
X16364310Y-11890500D02*
X16349970Y-11871810D01*
X16364310Y-12419500D02*
X16377650Y-12400090D01*
X16377650Y-11909910D02*
X16364310Y-11890500D01*
X16377650Y-12400090D02*
X16389960Y-12380000D01*
X16389960Y-11930000D02*
X16377650Y-11909910D01*
X16389960Y-12380000D02*
X16401200Y-12359300D01*
X16401200Y-11950700D02*
X16389960Y-11930000D01*
X16401200Y-12359300D02*
X16411350Y-12338030D01*
X16411350Y-11971970D02*
X16401200Y-11950700D01*
X16411350Y-12338030D02*
X16420360Y-12316270D01*
X16420360Y-11993730D02*
X16411350Y-11971970D01*
X16420360Y-12316270D02*
X16428230Y-12294060D01*
X16428230Y-12015940D02*
X16420360Y-11993730D01*
X16428230Y-12294060D02*
X16434920Y-12271470D01*
X16434920Y-12038530D02*
X16428230Y-12015940D01*
X16434920Y-12271470D02*
X16440420Y-12248560D01*
X16440420Y-12061440D02*
X16434920Y-12038530D01*
X16440420Y-12248560D02*
X16444710Y-12225400D01*
X16444710Y-12084600D02*
X16440420Y-12061440D01*
X16444710Y-12225400D02*
X16447780Y-12202040D01*
X16447780Y-12107960D02*
X16444710Y-12084600D01*
X16447780Y-12202040D02*
X16449630Y-12178550D01*
X16449630Y-12131450D02*
X16447780Y-12107960D01*
X16449630Y-12178550D02*
X16450250Y-12155000D01*
X16450250Y-12155000D02*
X16449630Y-12131450D01*
D12*
D13*
X15190000Y-12090000D02*
X15280000Y-12180000D01*
X15280000Y-12090000D02*
X15190000Y-12180000D01*
X11128499Y-10000000D02*
G75*
G02*
X11028499Y-10000000I-50000J0D01*
G01*
X11028499Y-10000000D02*
G75*
G02*
X11128499Y-10000000I50000J0D01*
G01*
X12800000Y-10000000D02*
G75*
G02*
X12700000Y-10000000I-50000J0D01*
G01*
X12700000Y-10000000D02*
G75*
G02*
X12800000Y-10000000I50000J0D01*
G01*
X14440000Y-12135000D02*
G75*
G02*
X14340000Y-12135000I-50000J0D01*
G01*
X14340000Y-12135000D02*
G75*
G02*
X14440000Y-12135000I50000J0D01*
G01*
X14350000Y-12185000D02*
X14430000Y-12185000D01*
X14430000Y-12085000D02*
G75*
G02*
X14430000Y-12185000I0J-50000D01*
G01*
X14430000Y-12085000D02*
X14350000Y-12085000D01*
X14350000Y-12085000D02*
G75*
G03*
X14350000Y-12185000I0J-50000D01*
G01*
X18923000Y-10000000D02*
G75*
G02*
X18823000Y-10000000I-50000J0D01*
G01*
X18823000Y-10000000D02*
G75*
G02*
X18923000Y-10000000I50000J0D01*
G01*
D14*
X11586499Y-10095000D02*
X11586499Y-10205000D01*
X11531499Y-10150000D02*
X11641499Y-10150000D01*
X13258000Y-10095000D02*
X13258000Y-10205000D01*
X13203000Y-10150000D02*
X13313000Y-10150000D01*
X19381000Y-10095000D02*
X19381000Y-10205000D01*
X19326000Y-10150000D02*
X19436000Y-10150000D01*
D15*
X13838389Y-11488389D02*
X13838389Y-11311611D01*
X13661611Y-11311611D01*
X13661611Y-11488389D01*
X13838389Y-11488389D01*
D13*
X13625000Y-10900000D02*
X13625000Y-11900000D01*
X13875000Y-11900000D02*
G75*
G02*
X13625000Y-11900000I-125000J0D01*
G01*
X13875000Y-11900000D02*
X13875000Y-10900000D01*
X13875000Y-10900000D02*
G75*
G03*
X13625000Y-10900000I-125000J0D01*
G01*
D15*
X18338889Y-11488389D02*
X18338889Y-11311611D01*
X18162111Y-11311611D01*
X18162111Y-11488389D01*
X18338889Y-11488389D01*
D13*
X18375500Y-11900000D02*
X18375500Y-10900000D01*
X18125500Y-10900000D02*
G75*
G02*
X18375500Y-10900000I125000J0D01*
G01*
X18125500Y-10900000D02*
X18125500Y-11900000D01*
X18125500Y-11900000D02*
G75*
G03*
X18375500Y-11900000I125000J0D01*
G01*
D12*
X10158277Y-13113984D02*
X10158277Y-12913984D01*
X10158277Y-12913984D02*
X10205896Y-12913984D01*
X10205896Y-12913984D02*
X10234467Y-12923508D01*
X10234467Y-12923508D02*
X10253515Y-12942555D01*
X10253515Y-12942555D02*
X10263039Y-12961603D01*
X10263039Y-12961603D02*
X10272563Y-12999698D01*
X10272563Y-12999698D02*
X10272563Y-13028269D01*
X10272563Y-13028269D02*
X10263039Y-13066365D01*
X10263039Y-13066365D02*
X10253515Y-13085412D01*
X10253515Y-13085412D02*
X10234467Y-13104460D01*
X10234467Y-13104460D02*
X10205896Y-13113984D01*
X10205896Y-13113984D02*
X10158277Y-13113984D01*
X10358277Y-13113984D02*
X10358277Y-12980650D01*
X10358277Y-13018746D02*
X10367801Y-12999698D01*
X10367801Y-12999698D02*
X10377324Y-12990174D01*
X10377324Y-12990174D02*
X10396372Y-12980650D01*
X10396372Y-12980650D02*
X10415420Y-12980650D01*
X10482086Y-13113984D02*
X10482086Y-12980650D01*
X10482086Y-12913984D02*
X10472563Y-12923508D01*
X10472563Y-12923508D02*
X10482086Y-12933031D01*
X10482086Y-12933031D02*
X10491610Y-12923508D01*
X10491610Y-12923508D02*
X10482086Y-12913984D01*
X10482086Y-12913984D02*
X10482086Y-12933031D01*
X10605896Y-13113984D02*
X10586848Y-13104460D01*
X10586848Y-13104460D02*
X10577324Y-13085412D01*
X10577324Y-13085412D02*
X10577324Y-12913984D01*
X10710658Y-13113984D02*
X10691610Y-13104460D01*
X10691610Y-13104460D02*
X10682086Y-13085412D01*
X10682086Y-13085412D02*
X10682086Y-12913984D01*
X10939229Y-13113984D02*
X10939229Y-12913984D01*
X10939229Y-12913984D02*
X11005896Y-13056841D01*
X11005896Y-13056841D02*
X11072563Y-12913984D01*
X11072563Y-12913984D02*
X11072563Y-13113984D01*
X11253515Y-13113984D02*
X11253515Y-13009222D01*
X11253515Y-13009222D02*
X11243991Y-12990174D01*
X11243991Y-12990174D02*
X11224943Y-12980650D01*
X11224943Y-12980650D02*
X11186848Y-12980650D01*
X11186848Y-12980650D02*
X11167801Y-12990174D01*
X11253515Y-13104460D02*
X11234467Y-13113984D01*
X11234467Y-13113984D02*
X11186848Y-13113984D01*
X11186848Y-13113984D02*
X11167801Y-13104460D01*
X11167801Y-13104460D02*
X11158277Y-13085412D01*
X11158277Y-13085412D02*
X11158277Y-13066365D01*
X11158277Y-13066365D02*
X11167801Y-13047317D01*
X11167801Y-13047317D02*
X11186848Y-13037793D01*
X11186848Y-13037793D02*
X11234467Y-13037793D01*
X11234467Y-13037793D02*
X11253515Y-13028269D01*
X11348753Y-12980650D02*
X11348753Y-13180650D01*
X11348753Y-12990174D02*
X11367801Y-12980650D01*
X11367801Y-12980650D02*
X11405896Y-12980650D01*
X11405896Y-12980650D02*
X11424943Y-12990174D01*
X11424943Y-12990174D02*
X11434467Y-12999698D01*
X11434467Y-12999698D02*
X11443991Y-13018746D01*
X11443991Y-13018746D02*
X11443991Y-13075888D01*
X11443991Y-13075888D02*
X11434467Y-13094936D01*
X11434467Y-13094936D02*
X11424943Y-13104460D01*
X11424943Y-13104460D02*
X11405896Y-13113984D01*
X11405896Y-13113984D02*
X11367801Y-13113984D01*
X11367801Y-13113984D02*
X11348753Y-13104460D01*
X11529705Y-13094936D02*
X11539229Y-13104460D01*
X11539229Y-13104460D02*
X11529705Y-13113984D01*
X11529705Y-13113984D02*
X11520182Y-13104460D01*
X11520182Y-13104460D02*
X11529705Y-13094936D01*
X11529705Y-13094936D02*
X11529705Y-13113984D01*
X11529705Y-12990174D02*
X11539229Y-12999698D01*
X11539229Y-12999698D02*
X11529705Y-13009222D01*
X11529705Y-13009222D02*
X11520182Y-12999698D01*
X11520182Y-12999698D02*
X11529705Y-12990174D01*
X11529705Y-12990174D02*
X11529705Y-13009222D01*
D13*
X9807500Y-13397500D02*
X9897500Y-13487500D01*
X9897500Y-13397500D02*
X9807500Y-13487500D01*
D12*
X10196372Y-13333984D02*
X10215420Y-13333984D01*
X10215420Y-13333984D02*
X10234467Y-13343508D01*
X10234467Y-13343508D02*
X10243991Y-13353031D01*
X10243991Y-13353031D02*
X10253515Y-13372079D01*
X10253515Y-13372079D02*
X10263039Y-13410174D01*
X10263039Y-13410174D02*
X10263039Y-13457793D01*
X10263039Y-13457793D02*
X10253515Y-13495888D01*
X10253515Y-13495888D02*
X10243991Y-13514936D01*
X10243991Y-13514936D02*
X10234467Y-13524460D01*
X10234467Y-13524460D02*
X10215420Y-13533984D01*
X10215420Y-13533984D02*
X10196372Y-13533984D01*
X10196372Y-13533984D02*
X10177324Y-13524460D01*
X10177324Y-13524460D02*
X10167801Y-13514936D01*
X10167801Y-13514936D02*
X10158277Y-13495888D01*
X10158277Y-13495888D02*
X10148753Y-13457793D01*
X10148753Y-13457793D02*
X10148753Y-13410174D01*
X10148753Y-13410174D02*
X10158277Y-13372079D01*
X10158277Y-13372079D02*
X10167801Y-13353031D01*
X10167801Y-13353031D02*
X10177324Y-13343508D01*
X10177324Y-13343508D02*
X10196372Y-13333984D01*
X10348753Y-13514936D02*
X10358277Y-13524460D01*
X10358277Y-13524460D02*
X10348753Y-13533984D01*
X10348753Y-13533984D02*
X10339229Y-13524460D01*
X10339229Y-13524460D02*
X10348753Y-13514936D01*
X10348753Y-13514936D02*
X10348753Y-13533984D01*
X10453515Y-13533984D02*
X10491610Y-13533984D01*
X10491610Y-13533984D02*
X10510658Y-13524460D01*
X10510658Y-13524460D02*
X10520182Y-13514936D01*
X10520182Y-13514936D02*
X10539229Y-13486365D01*
X10539229Y-13486365D02*
X10548753Y-13448269D01*
X10548753Y-13448269D02*
X10548753Y-13372079D01*
X10548753Y-13372079D02*
X10539229Y-13353031D01*
X10539229Y-13353031D02*
X10529705Y-13343508D01*
X10529705Y-13343508D02*
X10510658Y-13333984D01*
X10510658Y-13333984D02*
X10472563Y-13333984D01*
X10472563Y-13333984D02*
X10453515Y-13343508D01*
X10453515Y-13343508D02*
X10443991Y-13353031D01*
X10443991Y-13353031D02*
X10434467Y-13372079D01*
X10434467Y-13372079D02*
X10434467Y-13419698D01*
X10434467Y-13419698D02*
X10443991Y-13438746D01*
X10443991Y-13438746D02*
X10453515Y-13448269D01*
X10453515Y-13448269D02*
X10472563Y-13457793D01*
X10472563Y-13457793D02*
X10510658Y-13457793D01*
X10510658Y-13457793D02*
X10529705Y-13448269D01*
X10529705Y-13448269D02*
X10539229Y-13438746D01*
X10539229Y-13438746D02*
X10548753Y-13419698D01*
X10672563Y-13333984D02*
X10691610Y-13333984D01*
X10691610Y-13333984D02*
X10710658Y-13343508D01*
X10710658Y-13343508D02*
X10720182Y-13353031D01*
X10720182Y-13353031D02*
X10729705Y-13372079D01*
X10729705Y-13372079D02*
X10739229Y-13410174D01*
X10739229Y-13410174D02*
X10739229Y-13457793D01*
X10739229Y-13457793D02*
X10729705Y-13495888D01*
X10729705Y-13495888D02*
X10720182Y-13514936D01*
X10720182Y-13514936D02*
X10710658Y-13524460D01*
X10710658Y-13524460D02*
X10691610Y-13533984D01*
X10691610Y-13533984D02*
X10672563Y-13533984D01*
X10672563Y-13533984D02*
X10653515Y-13524460D01*
X10653515Y-13524460D02*
X10643991Y-13514936D01*
X10643991Y-13514936D02*
X10634467Y-13495888D01*
X10634467Y-13495888D02*
X10624944Y-13457793D01*
X10624944Y-13457793D02*
X10624944Y-13410174D01*
X10624944Y-13410174D02*
X10634467Y-13372079D01*
X10634467Y-13372079D02*
X10643991Y-13353031D01*
X10643991Y-13353031D02*
X10653515Y-13343508D01*
X10653515Y-13343508D02*
X10672563Y-13333984D01*
X10863039Y-13333984D02*
X10882086Y-13333984D01*
X10882086Y-13333984D02*
X10901134Y-13343508D01*
X10901134Y-13343508D02*
X10910658Y-13353031D01*
X10910658Y-13353031D02*
X10920182Y-13372079D01*
X10920182Y-13372079D02*
X10929705Y-13410174D01*
X10929705Y-13410174D02*
X10929705Y-13457793D01*
X10929705Y-13457793D02*
X10920182Y-13495888D01*
X10920182Y-13495888D02*
X10910658Y-13514936D01*
X10910658Y-13514936D02*
X10901134Y-13524460D01*
X10901134Y-13524460D02*
X10882086Y-13533984D01*
X10882086Y-13533984D02*
X10863039Y-13533984D01*
X10863039Y-13533984D02*
X10843991Y-13524460D01*
X10843991Y-13524460D02*
X10834467Y-13514936D01*
X10834467Y-13514936D02*
X10824944Y-13495888D01*
X10824944Y-13495888D02*
X10815420Y-13457793D01*
X10815420Y-13457793D02*
X10815420Y-13410174D01*
X10815420Y-13410174D02*
X10824944Y-13372079D01*
X10824944Y-13372079D02*
X10834467Y-13353031D01*
X10834467Y-13353031D02*
X10843991Y-13343508D01*
X10843991Y-13343508D02*
X10863039Y-13333984D01*
X11015420Y-13533984D02*
X11015420Y-13400650D01*
X11015420Y-13419698D02*
X11024944Y-13410174D01*
X11024944Y-13410174D02*
X11043991Y-13400650D01*
X11043991Y-13400650D02*
X11072563Y-13400650D01*
X11072563Y-13400650D02*
X11091610Y-13410174D01*
X11091610Y-13410174D02*
X11101134Y-13429222D01*
X11101134Y-13429222D02*
X11101134Y-13533984D01*
X11101134Y-13429222D02*
X11110658Y-13410174D01*
X11110658Y-13410174D02*
X11129705Y-13400650D01*
X11129705Y-13400650D02*
X11158277Y-13400650D01*
X11158277Y-13400650D02*
X11177325Y-13410174D01*
X11177325Y-13410174D02*
X11186848Y-13429222D01*
X11186848Y-13429222D02*
X11186848Y-13533984D01*
X11282086Y-13533984D02*
X11282086Y-13400650D01*
X11282086Y-13419698D02*
X11291610Y-13410174D01*
X11291610Y-13410174D02*
X11310658Y-13400650D01*
X11310658Y-13400650D02*
X11339229Y-13400650D01*
X11339229Y-13400650D02*
X11358277Y-13410174D01*
X11358277Y-13410174D02*
X11367801Y-13429222D01*
X11367801Y-13429222D02*
X11367801Y-13533984D01*
X11367801Y-13429222D02*
X11377324Y-13410174D01*
X11377324Y-13410174D02*
X11396372Y-13400650D01*
X11396372Y-13400650D02*
X11424943Y-13400650D01*
X11424943Y-13400650D02*
X11443991Y-13410174D01*
X11443991Y-13410174D02*
X11453515Y-13429222D01*
X11453515Y-13429222D02*
X11453515Y-13533984D01*
X11843991Y-13324460D02*
X11672563Y-13581603D01*
X12101134Y-13333984D02*
X12120182Y-13333984D01*
X12120182Y-13333984D02*
X12139229Y-13343508D01*
X12139229Y-13343508D02*
X12148753Y-13353031D01*
X12148753Y-13353031D02*
X12158277Y-13372079D01*
X12158277Y-13372079D02*
X12167801Y-13410174D01*
X12167801Y-13410174D02*
X12167801Y-13457793D01*
X12167801Y-13457793D02*
X12158277Y-13495888D01*
X12158277Y-13495888D02*
X12148753Y-13514936D01*
X12148753Y-13514936D02*
X12139229Y-13524460D01*
X12139229Y-13524460D02*
X12120182Y-13533984D01*
X12120182Y-13533984D02*
X12101134Y-13533984D01*
X12101134Y-13533984D02*
X12082086Y-13524460D01*
X12082086Y-13524460D02*
X12072563Y-13514936D01*
X12072563Y-13514936D02*
X12063039Y-13495888D01*
X12063039Y-13495888D02*
X12053515Y-13457793D01*
X12053515Y-13457793D02*
X12053515Y-13410174D01*
X12053515Y-13410174D02*
X12063039Y-13372079D01*
X12063039Y-13372079D02*
X12072563Y-13353031D01*
X12072563Y-13353031D02*
X12082086Y-13343508D01*
X12082086Y-13343508D02*
X12101134Y-13333984D01*
X12253515Y-13514936D02*
X12263039Y-13524460D01*
X12263039Y-13524460D02*
X12253515Y-13533984D01*
X12253515Y-13533984D02*
X12243991Y-13524460D01*
X12243991Y-13524460D02*
X12253515Y-13514936D01*
X12253515Y-13514936D02*
X12253515Y-13533984D01*
X12386848Y-13333984D02*
X12405896Y-13333984D01*
X12405896Y-13333984D02*
X12424944Y-13343508D01*
X12424944Y-13343508D02*
X12434467Y-13353031D01*
X12434467Y-13353031D02*
X12443991Y-13372079D01*
X12443991Y-13372079D02*
X12453515Y-13410174D01*
X12453515Y-13410174D02*
X12453515Y-13457793D01*
X12453515Y-13457793D02*
X12443991Y-13495888D01*
X12443991Y-13495888D02*
X12434467Y-13514936D01*
X12434467Y-13514936D02*
X12424944Y-13524460D01*
X12424944Y-13524460D02*
X12405896Y-13533984D01*
X12405896Y-13533984D02*
X12386848Y-13533984D01*
X12386848Y-13533984D02*
X12367801Y-13524460D01*
X12367801Y-13524460D02*
X12358277Y-13514936D01*
X12358277Y-13514936D02*
X12348753Y-13495888D01*
X12348753Y-13495888D02*
X12339229Y-13457793D01*
X12339229Y-13457793D02*
X12339229Y-13410174D01*
X12339229Y-13410174D02*
X12348753Y-13372079D01*
X12348753Y-13372079D02*
X12358277Y-13353031D01*
X12358277Y-13353031D02*
X12367801Y-13343508D01*
X12367801Y-13343508D02*
X12386848Y-13333984D01*
X12520182Y-13333984D02*
X12643991Y-13333984D01*
X12643991Y-13333984D02*
X12577325Y-13410174D01*
X12577325Y-13410174D02*
X12605896Y-13410174D01*
X12605896Y-13410174D02*
X12624944Y-13419698D01*
X12624944Y-13419698D02*
X12634467Y-13429222D01*
X12634467Y-13429222D02*
X12643991Y-13448269D01*
X12643991Y-13448269D02*
X12643991Y-13495888D01*
X12643991Y-13495888D02*
X12634467Y-13514936D01*
X12634467Y-13514936D02*
X12624944Y-13524460D01*
X12624944Y-13524460D02*
X12605896Y-13533984D01*
X12605896Y-13533984D02*
X12548753Y-13533984D01*
X12548753Y-13533984D02*
X12529706Y-13524460D01*
X12529706Y-13524460D02*
X12520182Y-13514936D01*
X12824944Y-13333984D02*
X12729706Y-13333984D01*
X12729706Y-13333984D02*
X12720182Y-13429222D01*
X12720182Y-13429222D02*
X12729706Y-13419698D01*
X12729706Y-13419698D02*
X12748753Y-13410174D01*
X12748753Y-13410174D02*
X12796372Y-13410174D01*
X12796372Y-13410174D02*
X12815420Y-13419698D01*
X12815420Y-13419698D02*
X12824944Y-13429222D01*
X12824944Y-13429222D02*
X12834467Y-13448269D01*
X12834467Y-13448269D02*
X12834467Y-13495888D01*
X12834467Y-13495888D02*
X12824944Y-13514936D01*
X12824944Y-13514936D02*
X12815420Y-13524460D01*
X12815420Y-13524460D02*
X12796372Y-13533984D01*
X12796372Y-13533984D02*
X12748753Y-13533984D01*
X12748753Y-13533984D02*
X12729706Y-13524460D01*
X12729706Y-13524460D02*
X12720182Y-13514936D01*
X13005896Y-13400650D02*
X13005896Y-13533984D01*
X12958277Y-13324460D02*
X12910658Y-13467317D01*
X12910658Y-13467317D02*
X13034467Y-13467317D01*
X13101134Y-13333984D02*
X13101134Y-13372079D01*
X13177325Y-13333984D02*
X13177325Y-13372079D01*
X13472563Y-13610174D02*
X13463039Y-13600650D01*
X13463039Y-13600650D02*
X13443991Y-13572079D01*
X13443991Y-13572079D02*
X13434468Y-13553031D01*
X13434468Y-13553031D02*
X13424944Y-13524460D01*
X13424944Y-13524460D02*
X13415420Y-13476841D01*
X13415420Y-13476841D02*
X13415420Y-13438746D01*
X13415420Y-13438746D02*
X13424944Y-13391127D01*
X13424944Y-13391127D02*
X13434468Y-13362555D01*
X13434468Y-13362555D02*
X13443991Y-13343508D01*
X13443991Y-13343508D02*
X13463039Y-13314936D01*
X13463039Y-13314936D02*
X13472563Y-13305412D01*
X13653515Y-13533984D02*
X13539229Y-13533984D01*
X13596372Y-13533984D02*
X13596372Y-13333984D01*
X13596372Y-13333984D02*
X13577325Y-13362555D01*
X13577325Y-13362555D02*
X13558277Y-13381603D01*
X13558277Y-13381603D02*
X13539229Y-13391127D01*
X13891610Y-13533984D02*
X13891610Y-13333984D01*
X13977325Y-13533984D02*
X13977325Y-13429222D01*
X13977325Y-13429222D02*
X13967801Y-13410174D01*
X13967801Y-13410174D02*
X13948753Y-13400650D01*
X13948753Y-13400650D02*
X13920182Y-13400650D01*
X13920182Y-13400650D02*
X13901134Y-13410174D01*
X13901134Y-13410174D02*
X13891610Y-13419698D01*
X14101134Y-13533984D02*
X14082087Y-13524460D01*
X14082087Y-13524460D02*
X14072563Y-13514936D01*
X14072563Y-13514936D02*
X14063039Y-13495888D01*
X14063039Y-13495888D02*
X14063039Y-13438746D01*
X14063039Y-13438746D02*
X14072563Y-13419698D01*
X14072563Y-13419698D02*
X14082087Y-13410174D01*
X14082087Y-13410174D02*
X14101134Y-13400650D01*
X14101134Y-13400650D02*
X14129706Y-13400650D01*
X14129706Y-13400650D02*
X14148753Y-13410174D01*
X14148753Y-13410174D02*
X14158277Y-13419698D01*
X14158277Y-13419698D02*
X14167801Y-13438746D01*
X14167801Y-13438746D02*
X14167801Y-13495888D01*
X14167801Y-13495888D02*
X14158277Y-13514936D01*
X14158277Y-13514936D02*
X14148753Y-13524460D01*
X14148753Y-13524460D02*
X14129706Y-13533984D01*
X14129706Y-13533984D02*
X14101134Y-13533984D01*
X14282087Y-13533984D02*
X14263039Y-13524460D01*
X14263039Y-13524460D02*
X14253515Y-13505412D01*
X14253515Y-13505412D02*
X14253515Y-13333984D01*
X14434468Y-13524460D02*
X14415420Y-13533984D01*
X14415420Y-13533984D02*
X14377325Y-13533984D01*
X14377325Y-13533984D02*
X14358277Y-13524460D01*
X14358277Y-13524460D02*
X14348753Y-13505412D01*
X14348753Y-13505412D02*
X14348753Y-13429222D01*
X14348753Y-13429222D02*
X14358277Y-13410174D01*
X14358277Y-13410174D02*
X14377325Y-13400650D01*
X14377325Y-13400650D02*
X14415420Y-13400650D01*
X14415420Y-13400650D02*
X14434468Y-13410174D01*
X14434468Y-13410174D02*
X14443991Y-13429222D01*
X14443991Y-13429222D02*
X14443991Y-13448269D01*
X14443991Y-13448269D02*
X14348753Y-13467317D01*
X14510658Y-13610174D02*
X14520182Y-13600650D01*
X14520182Y-13600650D02*
X14539230Y-13572079D01*
X14539230Y-13572079D02*
X14548753Y-13553031D01*
X14548753Y-13553031D02*
X14558277Y-13524460D01*
X14558277Y-13524460D02*
X14567801Y-13476841D01*
X14567801Y-13476841D02*
X14567801Y-13438746D01*
X14567801Y-13438746D02*
X14558277Y-13391127D01*
X14558277Y-13391127D02*
X14548753Y-13362555D01*
X14548753Y-13362555D02*
X14539230Y-13343508D01*
X14539230Y-13343508D02*
X14520182Y-13314936D01*
X14520182Y-13314936D02*
X14510658Y-13305412D01*
X14872563Y-13610174D02*
X14863039Y-13600650D01*
X14863039Y-13600650D02*
X14843991Y-13572079D01*
X14843991Y-13572079D02*
X14834468Y-13553031D01*
X14834468Y-13553031D02*
X14824944Y-13524460D01*
X14824944Y-13524460D02*
X14815420Y-13476841D01*
X14815420Y-13476841D02*
X14815420Y-13438746D01*
X14815420Y-13438746D02*
X14824944Y-13391127D01*
X14824944Y-13391127D02*
X14834468Y-13362555D01*
X14834468Y-13362555D02*
X14843991Y-13343508D01*
X14843991Y-13343508D02*
X14863039Y-13314936D01*
X14863039Y-13314936D02*
X14872563Y-13305412D01*
X14948753Y-13400650D02*
X14948753Y-13533984D01*
X14948753Y-13419698D02*
X14958277Y-13410174D01*
X14958277Y-13410174D02*
X14977325Y-13400650D01*
X14977325Y-13400650D02*
X15005896Y-13400650D01*
X15005896Y-13400650D02*
X15024944Y-13410174D01*
X15024944Y-13410174D02*
X15034468Y-13429222D01*
X15034468Y-13429222D02*
X15034468Y-13533984D01*
X15158277Y-13533984D02*
X15139230Y-13524460D01*
X15139230Y-13524460D02*
X15129706Y-13514936D01*
X15129706Y-13514936D02*
X15120182Y-13495888D01*
X15120182Y-13495888D02*
X15120182Y-13438746D01*
X15120182Y-13438746D02*
X15129706Y-13419698D01*
X15129706Y-13419698D02*
X15139230Y-13410174D01*
X15139230Y-13410174D02*
X15158277Y-13400650D01*
X15158277Y-13400650D02*
X15186849Y-13400650D01*
X15186849Y-13400650D02*
X15205896Y-13410174D01*
X15205896Y-13410174D02*
X15215420Y-13419698D01*
X15215420Y-13419698D02*
X15224944Y-13438746D01*
X15224944Y-13438746D02*
X15224944Y-13495888D01*
X15224944Y-13495888D02*
X15215420Y-13514936D01*
X15215420Y-13514936D02*
X15205896Y-13524460D01*
X15205896Y-13524460D02*
X15186849Y-13533984D01*
X15186849Y-13533984D02*
X15158277Y-13533984D01*
X15282087Y-13400650D02*
X15358277Y-13400650D01*
X15310658Y-13333984D02*
X15310658Y-13505412D01*
X15310658Y-13505412D02*
X15320182Y-13524460D01*
X15320182Y-13524460D02*
X15339230Y-13533984D01*
X15339230Y-13533984D02*
X15358277Y-13533984D01*
X15577325Y-13400650D02*
X15577325Y-13600650D01*
X15577325Y-13410174D02*
X15596372Y-13400650D01*
X15596372Y-13400650D02*
X15634468Y-13400650D01*
X15634468Y-13400650D02*
X15653515Y-13410174D01*
X15653515Y-13410174D02*
X15663039Y-13419698D01*
X15663039Y-13419698D02*
X15672563Y-13438746D01*
X15672563Y-13438746D02*
X15672563Y-13495888D01*
X15672563Y-13495888D02*
X15663039Y-13514936D01*
X15663039Y-13514936D02*
X15653515Y-13524460D01*
X15653515Y-13524460D02*
X15634468Y-13533984D01*
X15634468Y-13533984D02*
X15596372Y-13533984D01*
X15596372Y-13533984D02*
X15577325Y-13524460D01*
X15786849Y-13533984D02*
X15767801Y-13524460D01*
X15767801Y-13524460D02*
X15758277Y-13505412D01*
X15758277Y-13505412D02*
X15758277Y-13333984D01*
X15948753Y-13533984D02*
X15948753Y-13429222D01*
X15948753Y-13429222D02*
X15939230Y-13410174D01*
X15939230Y-13410174D02*
X15920182Y-13400650D01*
X15920182Y-13400650D02*
X15882087Y-13400650D01*
X15882087Y-13400650D02*
X15863039Y-13410174D01*
X15948753Y-13524460D02*
X15929706Y-13533984D01*
X15929706Y-13533984D02*
X15882087Y-13533984D01*
X15882087Y-13533984D02*
X15863039Y-13524460D01*
X15863039Y-13524460D02*
X15853515Y-13505412D01*
X15853515Y-13505412D02*
X15853515Y-13486365D01*
X15853515Y-13486365D02*
X15863039Y-13467317D01*
X15863039Y-13467317D02*
X15882087Y-13457793D01*
X15882087Y-13457793D02*
X15929706Y-13457793D01*
X15929706Y-13457793D02*
X15948753Y-13448269D01*
X16015420Y-13400650D02*
X16091611Y-13400650D01*
X16043992Y-13333984D02*
X16043992Y-13505412D01*
X16043992Y-13505412D02*
X16053515Y-13524460D01*
X16053515Y-13524460D02*
X16072563Y-13533984D01*
X16072563Y-13533984D02*
X16091611Y-13533984D01*
X16234468Y-13524460D02*
X16215420Y-13533984D01*
X16215420Y-13533984D02*
X16177325Y-13533984D01*
X16177325Y-13533984D02*
X16158277Y-13524460D01*
X16158277Y-13524460D02*
X16148753Y-13505412D01*
X16148753Y-13505412D02*
X16148753Y-13429222D01*
X16148753Y-13429222D02*
X16158277Y-13410174D01*
X16158277Y-13410174D02*
X16177325Y-13400650D01*
X16177325Y-13400650D02*
X16215420Y-13400650D01*
X16215420Y-13400650D02*
X16234468Y-13410174D01*
X16234468Y-13410174D02*
X16243992Y-13429222D01*
X16243992Y-13429222D02*
X16243992Y-13448269D01*
X16243992Y-13448269D02*
X16148753Y-13467317D01*
X16415420Y-13533984D02*
X16415420Y-13333984D01*
X16415420Y-13524460D02*
X16396373Y-13533984D01*
X16396373Y-13533984D02*
X16358277Y-13533984D01*
X16358277Y-13533984D02*
X16339230Y-13524460D01*
X16339230Y-13524460D02*
X16329706Y-13514936D01*
X16329706Y-13514936D02*
X16320182Y-13495888D01*
X16320182Y-13495888D02*
X16320182Y-13438746D01*
X16320182Y-13438746D02*
X16329706Y-13419698D01*
X16329706Y-13419698D02*
X16339230Y-13410174D01*
X16339230Y-13410174D02*
X16358277Y-13400650D01*
X16358277Y-13400650D02*
X16396373Y-13400650D01*
X16396373Y-13400650D02*
X16415420Y-13410174D01*
X16491611Y-13610174D02*
X16501134Y-13600650D01*
X16501134Y-13600650D02*
X16520182Y-13572079D01*
X16520182Y-13572079D02*
X16529706Y-13553031D01*
X16529706Y-13553031D02*
X16539230Y-13524460D01*
X16539230Y-13524460D02*
X16548753Y-13476841D01*
X16548753Y-13476841D02*
X16548753Y-13438746D01*
X16548753Y-13438746D02*
X16539230Y-13391127D01*
X16539230Y-13391127D02*
X16529706Y-13362555D01*
X16529706Y-13362555D02*
X16520182Y-13343508D01*
X16520182Y-13343508D02*
X16501134Y-13314936D01*
X16501134Y-13314936D02*
X16491611Y-13305412D01*
D13*
X9897500Y-13706500D02*
G75*
G02*
X9797500Y-13706500I-50000J0D01*
G01*
X9797500Y-13706500D02*
G75*
G02*
X9897500Y-13706500I50000J0D01*
G01*
D12*
X10263039Y-13797984D02*
X10148753Y-13797984D01*
X10205896Y-13797984D02*
X10205896Y-13597984D01*
X10205896Y-13597984D02*
X10186848Y-13626555D01*
X10186848Y-13626555D02*
X10167801Y-13645603D01*
X10167801Y-13645603D02*
X10148753Y-13655127D01*
X10348753Y-13778936D02*
X10358277Y-13788460D01*
X10358277Y-13788460D02*
X10348753Y-13797984D01*
X10348753Y-13797984D02*
X10339229Y-13788460D01*
X10339229Y-13788460D02*
X10348753Y-13778936D01*
X10348753Y-13778936D02*
X10348753Y-13797984D01*
X10482086Y-13597984D02*
X10501134Y-13597984D01*
X10501134Y-13597984D02*
X10520182Y-13607508D01*
X10520182Y-13607508D02*
X10529705Y-13617031D01*
X10529705Y-13617031D02*
X10539229Y-13636079D01*
X10539229Y-13636079D02*
X10548753Y-13674174D01*
X10548753Y-13674174D02*
X10548753Y-13721793D01*
X10548753Y-13721793D02*
X10539229Y-13759888D01*
X10539229Y-13759888D02*
X10529705Y-13778936D01*
X10529705Y-13778936D02*
X10520182Y-13788460D01*
X10520182Y-13788460D02*
X10501134Y-13797984D01*
X10501134Y-13797984D02*
X10482086Y-13797984D01*
X10482086Y-13797984D02*
X10463039Y-13788460D01*
X10463039Y-13788460D02*
X10453515Y-13778936D01*
X10453515Y-13778936D02*
X10443991Y-13759888D01*
X10443991Y-13759888D02*
X10434467Y-13721793D01*
X10434467Y-13721793D02*
X10434467Y-13674174D01*
X10434467Y-13674174D02*
X10443991Y-13636079D01*
X10443991Y-13636079D02*
X10453515Y-13617031D01*
X10453515Y-13617031D02*
X10463039Y-13607508D01*
X10463039Y-13607508D02*
X10482086Y-13597984D01*
X10672563Y-13597984D02*
X10691610Y-13597984D01*
X10691610Y-13597984D02*
X10710658Y-13607508D01*
X10710658Y-13607508D02*
X10720182Y-13617031D01*
X10720182Y-13617031D02*
X10729705Y-13636079D01*
X10729705Y-13636079D02*
X10739229Y-13674174D01*
X10739229Y-13674174D02*
X10739229Y-13721793D01*
X10739229Y-13721793D02*
X10729705Y-13759888D01*
X10729705Y-13759888D02*
X10720182Y-13778936D01*
X10720182Y-13778936D02*
X10710658Y-13788460D01*
X10710658Y-13788460D02*
X10691610Y-13797984D01*
X10691610Y-13797984D02*
X10672563Y-13797984D01*
X10672563Y-13797984D02*
X10653515Y-13788460D01*
X10653515Y-13788460D02*
X10643991Y-13778936D01*
X10643991Y-13778936D02*
X10634467Y-13759888D01*
X10634467Y-13759888D02*
X10624944Y-13721793D01*
X10624944Y-13721793D02*
X10624944Y-13674174D01*
X10624944Y-13674174D02*
X10634467Y-13636079D01*
X10634467Y-13636079D02*
X10643991Y-13617031D01*
X10643991Y-13617031D02*
X10653515Y-13607508D01*
X10653515Y-13607508D02*
X10672563Y-13597984D01*
X10863039Y-13597984D02*
X10882086Y-13597984D01*
X10882086Y-13597984D02*
X10901134Y-13607508D01*
X10901134Y-13607508D02*
X10910658Y-13617031D01*
X10910658Y-13617031D02*
X10920182Y-13636079D01*
X10920182Y-13636079D02*
X10929705Y-13674174D01*
X10929705Y-13674174D02*
X10929705Y-13721793D01*
X10929705Y-13721793D02*
X10920182Y-13759888D01*
X10920182Y-13759888D02*
X10910658Y-13778936D01*
X10910658Y-13778936D02*
X10901134Y-13788460D01*
X10901134Y-13788460D02*
X10882086Y-13797984D01*
X10882086Y-13797984D02*
X10863039Y-13797984D01*
X10863039Y-13797984D02*
X10843991Y-13788460D01*
X10843991Y-13788460D02*
X10834467Y-13778936D01*
X10834467Y-13778936D02*
X10824944Y-13759888D01*
X10824944Y-13759888D02*
X10815420Y-13721793D01*
X10815420Y-13721793D02*
X10815420Y-13674174D01*
X10815420Y-13674174D02*
X10824944Y-13636079D01*
X10824944Y-13636079D02*
X10834467Y-13617031D01*
X10834467Y-13617031D02*
X10843991Y-13607508D01*
X10843991Y-13607508D02*
X10863039Y-13597984D01*
X11015420Y-13797984D02*
X11015420Y-13664650D01*
X11015420Y-13683698D02*
X11024944Y-13674174D01*
X11024944Y-13674174D02*
X11043991Y-13664650D01*
X11043991Y-13664650D02*
X11072563Y-13664650D01*
X11072563Y-13664650D02*
X11091610Y-13674174D01*
X11091610Y-13674174D02*
X11101134Y-13693222D01*
X11101134Y-13693222D02*
X11101134Y-13797984D01*
X11101134Y-13693222D02*
X11110658Y-13674174D01*
X11110658Y-13674174D02*
X11129705Y-13664650D01*
X11129705Y-13664650D02*
X11158277Y-13664650D01*
X11158277Y-13664650D02*
X11177325Y-13674174D01*
X11177325Y-13674174D02*
X11186848Y-13693222D01*
X11186848Y-13693222D02*
X11186848Y-13797984D01*
X11282086Y-13797984D02*
X11282086Y-13664650D01*
X11282086Y-13683698D02*
X11291610Y-13674174D01*
X11291610Y-13674174D02*
X11310658Y-13664650D01*
X11310658Y-13664650D02*
X11339229Y-13664650D01*
X11339229Y-13664650D02*
X11358277Y-13674174D01*
X11358277Y-13674174D02*
X11367801Y-13693222D01*
X11367801Y-13693222D02*
X11367801Y-13797984D01*
X11367801Y-13693222D02*
X11377324Y-13674174D01*
X11377324Y-13674174D02*
X11396372Y-13664650D01*
X11396372Y-13664650D02*
X11424943Y-13664650D01*
X11424943Y-13664650D02*
X11443991Y-13674174D01*
X11443991Y-13674174D02*
X11453515Y-13693222D01*
X11453515Y-13693222D02*
X11453515Y-13797984D01*
X11843991Y-13588460D02*
X11672563Y-13845603D01*
X12101134Y-13597984D02*
X12120182Y-13597984D01*
X12120182Y-13597984D02*
X12139229Y-13607508D01*
X12139229Y-13607508D02*
X12148753Y-13617031D01*
X12148753Y-13617031D02*
X12158277Y-13636079D01*
X12158277Y-13636079D02*
X12167801Y-13674174D01*
X12167801Y-13674174D02*
X12167801Y-13721793D01*
X12167801Y-13721793D02*
X12158277Y-13759888D01*
X12158277Y-13759888D02*
X12148753Y-13778936D01*
X12148753Y-13778936D02*
X12139229Y-13788460D01*
X12139229Y-13788460D02*
X12120182Y-13797984D01*
X12120182Y-13797984D02*
X12101134Y-13797984D01*
X12101134Y-13797984D02*
X12082086Y-13788460D01*
X12082086Y-13788460D02*
X12072563Y-13778936D01*
X12072563Y-13778936D02*
X12063039Y-13759888D01*
X12063039Y-13759888D02*
X12053515Y-13721793D01*
X12053515Y-13721793D02*
X12053515Y-13674174D01*
X12053515Y-13674174D02*
X12063039Y-13636079D01*
X12063039Y-13636079D02*
X12072563Y-13617031D01*
X12072563Y-13617031D02*
X12082086Y-13607508D01*
X12082086Y-13607508D02*
X12101134Y-13597984D01*
X12253515Y-13778936D02*
X12263039Y-13788460D01*
X12263039Y-13788460D02*
X12253515Y-13797984D01*
X12253515Y-13797984D02*
X12243991Y-13788460D01*
X12243991Y-13788460D02*
X12253515Y-13778936D01*
X12253515Y-13778936D02*
X12253515Y-13797984D01*
X12386848Y-13597984D02*
X12405896Y-13597984D01*
X12405896Y-13597984D02*
X12424944Y-13607508D01*
X12424944Y-13607508D02*
X12434467Y-13617031D01*
X12434467Y-13617031D02*
X12443991Y-13636079D01*
X12443991Y-13636079D02*
X12453515Y-13674174D01*
X12453515Y-13674174D02*
X12453515Y-13721793D01*
X12453515Y-13721793D02*
X12443991Y-13759888D01*
X12443991Y-13759888D02*
X12434467Y-13778936D01*
X12434467Y-13778936D02*
X12424944Y-13788460D01*
X12424944Y-13788460D02*
X12405896Y-13797984D01*
X12405896Y-13797984D02*
X12386848Y-13797984D01*
X12386848Y-13797984D02*
X12367801Y-13788460D01*
X12367801Y-13788460D02*
X12358277Y-13778936D01*
X12358277Y-13778936D02*
X12348753Y-13759888D01*
X12348753Y-13759888D02*
X12339229Y-13721793D01*
X12339229Y-13721793D02*
X12339229Y-13674174D01*
X12339229Y-13674174D02*
X12348753Y-13636079D01*
X12348753Y-13636079D02*
X12358277Y-13617031D01*
X12358277Y-13617031D02*
X12367801Y-13607508D01*
X12367801Y-13607508D02*
X12386848Y-13597984D01*
X12520182Y-13597984D02*
X12643991Y-13597984D01*
X12643991Y-13597984D02*
X12577325Y-13674174D01*
X12577325Y-13674174D02*
X12605896Y-13674174D01*
X12605896Y-13674174D02*
X12624944Y-13683698D01*
X12624944Y-13683698D02*
X12634467Y-13693222D01*
X12634467Y-13693222D02*
X12643991Y-13712269D01*
X12643991Y-13712269D02*
X12643991Y-13759888D01*
X12643991Y-13759888D02*
X12634467Y-13778936D01*
X12634467Y-13778936D02*
X12624944Y-13788460D01*
X12624944Y-13788460D02*
X12605896Y-13797984D01*
X12605896Y-13797984D02*
X12548753Y-13797984D01*
X12548753Y-13797984D02*
X12529706Y-13788460D01*
X12529706Y-13788460D02*
X12520182Y-13778936D01*
X12739229Y-13797984D02*
X12777325Y-13797984D01*
X12777325Y-13797984D02*
X12796372Y-13788460D01*
X12796372Y-13788460D02*
X12805896Y-13778936D01*
X12805896Y-13778936D02*
X12824944Y-13750365D01*
X12824944Y-13750365D02*
X12834467Y-13712269D01*
X12834467Y-13712269D02*
X12834467Y-13636079D01*
X12834467Y-13636079D02*
X12824944Y-13617031D01*
X12824944Y-13617031D02*
X12815420Y-13607508D01*
X12815420Y-13607508D02*
X12796372Y-13597984D01*
X12796372Y-13597984D02*
X12758277Y-13597984D01*
X12758277Y-13597984D02*
X12739229Y-13607508D01*
X12739229Y-13607508D02*
X12729706Y-13617031D01*
X12729706Y-13617031D02*
X12720182Y-13636079D01*
X12720182Y-13636079D02*
X12720182Y-13683698D01*
X12720182Y-13683698D02*
X12729706Y-13702746D01*
X12729706Y-13702746D02*
X12739229Y-13712269D01*
X12739229Y-13712269D02*
X12758277Y-13721793D01*
X12758277Y-13721793D02*
X12796372Y-13721793D01*
X12796372Y-13721793D02*
X12815420Y-13712269D01*
X12815420Y-13712269D02*
X12824944Y-13702746D01*
X12824944Y-13702746D02*
X12834467Y-13683698D01*
X13005896Y-13664650D02*
X13005896Y-13797984D01*
X12958277Y-13588460D02*
X12910658Y-13731317D01*
X12910658Y-13731317D02*
X13034467Y-13731317D01*
X13101134Y-13597984D02*
X13101134Y-13636079D01*
X13177325Y-13597984D02*
X13177325Y-13636079D01*
X13472563Y-13874174D02*
X13463039Y-13864650D01*
X13463039Y-13864650D02*
X13443991Y-13836079D01*
X13443991Y-13836079D02*
X13434468Y-13817031D01*
X13434468Y-13817031D02*
X13424944Y-13788460D01*
X13424944Y-13788460D02*
X13415420Y-13740841D01*
X13415420Y-13740841D02*
X13415420Y-13702746D01*
X13415420Y-13702746D02*
X13424944Y-13655127D01*
X13424944Y-13655127D02*
X13434468Y-13626555D01*
X13434468Y-13626555D02*
X13443991Y-13607508D01*
X13443991Y-13607508D02*
X13463039Y-13578936D01*
X13463039Y-13578936D02*
X13472563Y-13569412D01*
X13529706Y-13597984D02*
X13653515Y-13597984D01*
X13653515Y-13597984D02*
X13586848Y-13674174D01*
X13586848Y-13674174D02*
X13615420Y-13674174D01*
X13615420Y-13674174D02*
X13634468Y-13683698D01*
X13634468Y-13683698D02*
X13643991Y-13693222D01*
X13643991Y-13693222D02*
X13653515Y-13712269D01*
X13653515Y-13712269D02*
X13653515Y-13759888D01*
X13653515Y-13759888D02*
X13643991Y-13778936D01*
X13643991Y-13778936D02*
X13634468Y-13788460D01*
X13634468Y-13788460D02*
X13615420Y-13797984D01*
X13615420Y-13797984D02*
X13558277Y-13797984D01*
X13558277Y-13797984D02*
X13539229Y-13788460D01*
X13539229Y-13788460D02*
X13529706Y-13778936D01*
X13891610Y-13797984D02*
X13891610Y-13597984D01*
X13977325Y-13797984D02*
X13977325Y-13693222D01*
X13977325Y-13693222D02*
X13967801Y-13674174D01*
X13967801Y-13674174D02*
X13948753Y-13664650D01*
X13948753Y-13664650D02*
X13920182Y-13664650D01*
X13920182Y-13664650D02*
X13901134Y-13674174D01*
X13901134Y-13674174D02*
X13891610Y-13683698D01*
X14101134Y-13797984D02*
X14082087Y-13788460D01*
X14082087Y-13788460D02*
X14072563Y-13778936D01*
X14072563Y-13778936D02*
X14063039Y-13759888D01*
X14063039Y-13759888D02*
X14063039Y-13702746D01*
X14063039Y-13702746D02*
X14072563Y-13683698D01*
X14072563Y-13683698D02*
X14082087Y-13674174D01*
X14082087Y-13674174D02*
X14101134Y-13664650D01*
X14101134Y-13664650D02*
X14129706Y-13664650D01*
X14129706Y-13664650D02*
X14148753Y-13674174D01*
X14148753Y-13674174D02*
X14158277Y-13683698D01*
X14158277Y-13683698D02*
X14167801Y-13702746D01*
X14167801Y-13702746D02*
X14167801Y-13759888D01*
X14167801Y-13759888D02*
X14158277Y-13778936D01*
X14158277Y-13778936D02*
X14148753Y-13788460D01*
X14148753Y-13788460D02*
X14129706Y-13797984D01*
X14129706Y-13797984D02*
X14101134Y-13797984D01*
X14282087Y-13797984D02*
X14263039Y-13788460D01*
X14263039Y-13788460D02*
X14253515Y-13769412D01*
X14253515Y-13769412D02*
X14253515Y-13597984D01*
X14434468Y-13788460D02*
X14415420Y-13797984D01*
X14415420Y-13797984D02*
X14377325Y-13797984D01*
X14377325Y-13797984D02*
X14358277Y-13788460D01*
X14358277Y-13788460D02*
X14348753Y-13769412D01*
X14348753Y-13769412D02*
X14348753Y-13693222D01*
X14348753Y-13693222D02*
X14358277Y-13674174D01*
X14358277Y-13674174D02*
X14377325Y-13664650D01*
X14377325Y-13664650D02*
X14415420Y-13664650D01*
X14415420Y-13664650D02*
X14434468Y-13674174D01*
X14434468Y-13674174D02*
X14443991Y-13693222D01*
X14443991Y-13693222D02*
X14443991Y-13712269D01*
X14443991Y-13712269D02*
X14348753Y-13731317D01*
X14520182Y-13788460D02*
X14539230Y-13797984D01*
X14539230Y-13797984D02*
X14577325Y-13797984D01*
X14577325Y-13797984D02*
X14596372Y-13788460D01*
X14596372Y-13788460D02*
X14605896Y-13769412D01*
X14605896Y-13769412D02*
X14605896Y-13759888D01*
X14605896Y-13759888D02*
X14596372Y-13740841D01*
X14596372Y-13740841D02*
X14577325Y-13731317D01*
X14577325Y-13731317D02*
X14548753Y-13731317D01*
X14548753Y-13731317D02*
X14529706Y-13721793D01*
X14529706Y-13721793D02*
X14520182Y-13702746D01*
X14520182Y-13702746D02*
X14520182Y-13693222D01*
X14520182Y-13693222D02*
X14529706Y-13674174D01*
X14529706Y-13674174D02*
X14548753Y-13664650D01*
X14548753Y-13664650D02*
X14577325Y-13664650D01*
X14577325Y-13664650D02*
X14596372Y-13674174D01*
X14843992Y-13721793D02*
X14996373Y-13721793D01*
X14920182Y-13797984D02*
X14920182Y-13645603D01*
X15348753Y-13797984D02*
X15234468Y-13797984D01*
X15291611Y-13797984D02*
X15291611Y-13597984D01*
X15291611Y-13597984D02*
X15272563Y-13626555D01*
X15272563Y-13626555D02*
X15253515Y-13645603D01*
X15253515Y-13645603D02*
X15234468Y-13655127D01*
X15577325Y-13788460D02*
X15596373Y-13797984D01*
X15596373Y-13797984D02*
X15634468Y-13797984D01*
X15634468Y-13797984D02*
X15653515Y-13788460D01*
X15653515Y-13788460D02*
X15663039Y-13769412D01*
X15663039Y-13769412D02*
X15663039Y-13759888D01*
X15663039Y-13759888D02*
X15653515Y-13740841D01*
X15653515Y-13740841D02*
X15634468Y-13731317D01*
X15634468Y-13731317D02*
X15605896Y-13731317D01*
X15605896Y-13731317D02*
X15586849Y-13721793D01*
X15586849Y-13721793D02*
X15577325Y-13702746D01*
X15577325Y-13702746D02*
X15577325Y-13693222D01*
X15577325Y-13693222D02*
X15586849Y-13674174D01*
X15586849Y-13674174D02*
X15605896Y-13664650D01*
X15605896Y-13664650D02*
X15634468Y-13664650D01*
X15634468Y-13664650D02*
X15653515Y-13674174D01*
X15777325Y-13797984D02*
X15758277Y-13788460D01*
X15758277Y-13788460D02*
X15748754Y-13769412D01*
X15748754Y-13769412D02*
X15748754Y-13597984D01*
X15882087Y-13797984D02*
X15863039Y-13788460D01*
X15863039Y-13788460D02*
X15853515Y-13778936D01*
X15853515Y-13778936D02*
X15843992Y-13759888D01*
X15843992Y-13759888D02*
X15843992Y-13702746D01*
X15843992Y-13702746D02*
X15853515Y-13683698D01*
X15853515Y-13683698D02*
X15863039Y-13674174D01*
X15863039Y-13674174D02*
X15882087Y-13664650D01*
X15882087Y-13664650D02*
X15910658Y-13664650D01*
X15910658Y-13664650D02*
X15929706Y-13674174D01*
X15929706Y-13674174D02*
X15939230Y-13683698D01*
X15939230Y-13683698D02*
X15948754Y-13702746D01*
X15948754Y-13702746D02*
X15948754Y-13759888D01*
X15948754Y-13759888D02*
X15939230Y-13778936D01*
X15939230Y-13778936D02*
X15929706Y-13788460D01*
X15929706Y-13788460D02*
X15910658Y-13797984D01*
X15910658Y-13797984D02*
X15882087Y-13797984D01*
X16005896Y-13664650D02*
X16082087Y-13664650D01*
X16034468Y-13597984D02*
X16034468Y-13769412D01*
X16034468Y-13769412D02*
X16043992Y-13788460D01*
X16043992Y-13788460D02*
X16063039Y-13797984D01*
X16063039Y-13797984D02*
X16082087Y-13797984D01*
X16129706Y-13874174D02*
X16139230Y-13864650D01*
X16139230Y-13864650D02*
X16158277Y-13836079D01*
X16158277Y-13836079D02*
X16167801Y-13817031D01*
X16167801Y-13817031D02*
X16177325Y-13788460D01*
X16177325Y-13788460D02*
X16186849Y-13740841D01*
X16186849Y-13740841D02*
X16186849Y-13702746D01*
X16186849Y-13702746D02*
X16177325Y-13655127D01*
X16177325Y-13655127D02*
X16167801Y-13626555D01*
X16167801Y-13626555D02*
X16158277Y-13607508D01*
X16158277Y-13607508D02*
X16139230Y-13578936D01*
X16139230Y-13578936D02*
X16129706Y-13569412D01*
X16491611Y-13874174D02*
X16482087Y-13864650D01*
X16482087Y-13864650D02*
X16463039Y-13836079D01*
X16463039Y-13836079D02*
X16453515Y-13817031D01*
X16453515Y-13817031D02*
X16443992Y-13788460D01*
X16443992Y-13788460D02*
X16434468Y-13740841D01*
X16434468Y-13740841D02*
X16434468Y-13702746D01*
X16434468Y-13702746D02*
X16443992Y-13655127D01*
X16443992Y-13655127D02*
X16453515Y-13626555D01*
X16453515Y-13626555D02*
X16463039Y-13607508D01*
X16463039Y-13607508D02*
X16482087Y-13578936D01*
X16482087Y-13578936D02*
X16491611Y-13569412D01*
X16567801Y-13664650D02*
X16567801Y-13797984D01*
X16567801Y-13683698D02*
X16577325Y-13674174D01*
X16577325Y-13674174D02*
X16596373Y-13664650D01*
X16596373Y-13664650D02*
X16624944Y-13664650D01*
X16624944Y-13664650D02*
X16643992Y-13674174D01*
X16643992Y-13674174D02*
X16653515Y-13693222D01*
X16653515Y-13693222D02*
X16653515Y-13797984D01*
X16777325Y-13797984D02*
X16758277Y-13788460D01*
X16758277Y-13788460D02*
X16748754Y-13778936D01*
X16748754Y-13778936D02*
X16739230Y-13759888D01*
X16739230Y-13759888D02*
X16739230Y-13702746D01*
X16739230Y-13702746D02*
X16748754Y-13683698D01*
X16748754Y-13683698D02*
X16758277Y-13674174D01*
X16758277Y-13674174D02*
X16777325Y-13664650D01*
X16777325Y-13664650D02*
X16805897Y-13664650D01*
X16805897Y-13664650D02*
X16824944Y-13674174D01*
X16824944Y-13674174D02*
X16834468Y-13683698D01*
X16834468Y-13683698D02*
X16843992Y-13702746D01*
X16843992Y-13702746D02*
X16843992Y-13759888D01*
X16843992Y-13759888D02*
X16834468Y-13778936D01*
X16834468Y-13778936D02*
X16824944Y-13788460D01*
X16824944Y-13788460D02*
X16805897Y-13797984D01*
X16805897Y-13797984D02*
X16777325Y-13797984D01*
X16901135Y-13664650D02*
X16977325Y-13664650D01*
X16929706Y-13597984D02*
X16929706Y-13769412D01*
X16929706Y-13769412D02*
X16939230Y-13788460D01*
X16939230Y-13788460D02*
X16958277Y-13797984D01*
X16958277Y-13797984D02*
X16977325Y-13797984D01*
X17196373Y-13664650D02*
X17196373Y-13864650D01*
X17196373Y-13674174D02*
X17215420Y-13664650D01*
X17215420Y-13664650D02*
X17253516Y-13664650D01*
X17253516Y-13664650D02*
X17272563Y-13674174D01*
X17272563Y-13674174D02*
X17282087Y-13683698D01*
X17282087Y-13683698D02*
X17291611Y-13702746D01*
X17291611Y-13702746D02*
X17291611Y-13759888D01*
X17291611Y-13759888D02*
X17282087Y-13778936D01*
X17282087Y-13778936D02*
X17272563Y-13788460D01*
X17272563Y-13788460D02*
X17253516Y-13797984D01*
X17253516Y-13797984D02*
X17215420Y-13797984D01*
X17215420Y-13797984D02*
X17196373Y-13788460D01*
X17405897Y-13797984D02*
X17386849Y-13788460D01*
X17386849Y-13788460D02*
X17377325Y-13769412D01*
X17377325Y-13769412D02*
X17377325Y-13597984D01*
X17567801Y-13797984D02*
X17567801Y-13693222D01*
X17567801Y-13693222D02*
X17558278Y-13674174D01*
X17558278Y-13674174D02*
X17539230Y-13664650D01*
X17539230Y-13664650D02*
X17501135Y-13664650D01*
X17501135Y-13664650D02*
X17482087Y-13674174D01*
X17567801Y-13788460D02*
X17548754Y-13797984D01*
X17548754Y-13797984D02*
X17501135Y-13797984D01*
X17501135Y-13797984D02*
X17482087Y-13788460D01*
X17482087Y-13788460D02*
X17472563Y-13769412D01*
X17472563Y-13769412D02*
X17472563Y-13750365D01*
X17472563Y-13750365D02*
X17482087Y-13731317D01*
X17482087Y-13731317D02*
X17501135Y-13721793D01*
X17501135Y-13721793D02*
X17548754Y-13721793D01*
X17548754Y-13721793D02*
X17567801Y-13712269D01*
X17634468Y-13664650D02*
X17710658Y-13664650D01*
X17663039Y-13597984D02*
X17663039Y-13769412D01*
X17663039Y-13769412D02*
X17672563Y-13788460D01*
X17672563Y-13788460D02*
X17691611Y-13797984D01*
X17691611Y-13797984D02*
X17710658Y-13797984D01*
X17853516Y-13788460D02*
X17834468Y-13797984D01*
X17834468Y-13797984D02*
X17796373Y-13797984D01*
X17796373Y-13797984D02*
X17777325Y-13788460D01*
X17777325Y-13788460D02*
X17767801Y-13769412D01*
X17767801Y-13769412D02*
X17767801Y-13693222D01*
X17767801Y-13693222D02*
X17777325Y-13674174D01*
X17777325Y-13674174D02*
X17796373Y-13664650D01*
X17796373Y-13664650D02*
X17834468Y-13664650D01*
X17834468Y-13664650D02*
X17853516Y-13674174D01*
X17853516Y-13674174D02*
X17863039Y-13693222D01*
X17863039Y-13693222D02*
X17863039Y-13712269D01*
X17863039Y-13712269D02*
X17767801Y-13731317D01*
X18034468Y-13797984D02*
X18034468Y-13597984D01*
X18034468Y-13788460D02*
X18015420Y-13797984D01*
X18015420Y-13797984D02*
X17977325Y-13797984D01*
X17977325Y-13797984D02*
X17958278Y-13788460D01*
X17958278Y-13788460D02*
X17948754Y-13778936D01*
X17948754Y-13778936D02*
X17939230Y-13759888D01*
X17939230Y-13759888D02*
X17939230Y-13702746D01*
X17939230Y-13702746D02*
X17948754Y-13683698D01*
X17948754Y-13683698D02*
X17958278Y-13674174D01*
X17958278Y-13674174D02*
X17977325Y-13664650D01*
X17977325Y-13664650D02*
X18015420Y-13664650D01*
X18015420Y-13664650D02*
X18034468Y-13674174D01*
X18110659Y-13874174D02*
X18120182Y-13864650D01*
X18120182Y-13864650D02*
X18139230Y-13836079D01*
X18139230Y-13836079D02*
X18148754Y-13817031D01*
X18148754Y-13817031D02*
X18158278Y-13788460D01*
X18158278Y-13788460D02*
X18167801Y-13740841D01*
X18167801Y-13740841D02*
X18167801Y-13702746D01*
X18167801Y-13702746D02*
X18158278Y-13655127D01*
X18158278Y-13655127D02*
X18148754Y-13626555D01*
X18148754Y-13626555D02*
X18139230Y-13607508D01*
X18139230Y-13607508D02*
X18120182Y-13578936D01*
X18120182Y-13578936D02*
X18110659Y-13569412D01*
D14*
X9842500Y-13915500D02*
X9842500Y-14025500D01*
X9787500Y-13970500D02*
X9897500Y-13970500D01*
D12*
X10263039Y-14061984D02*
X10148753Y-14061984D01*
X10205896Y-14061984D02*
X10205896Y-13861984D01*
X10205896Y-13861984D02*
X10186848Y-13890555D01*
X10186848Y-13890555D02*
X10167801Y-13909603D01*
X10167801Y-13909603D02*
X10148753Y-13919127D01*
X10348753Y-14042936D02*
X10358277Y-14052460D01*
X10358277Y-14052460D02*
X10348753Y-14061984D01*
X10348753Y-14061984D02*
X10339229Y-14052460D01*
X10339229Y-14052460D02*
X10348753Y-14042936D01*
X10348753Y-14042936D02*
X10348753Y-14061984D01*
X10548753Y-14061984D02*
X10434467Y-14061984D01*
X10491610Y-14061984D02*
X10491610Y-13861984D01*
X10491610Y-13861984D02*
X10472563Y-13890555D01*
X10472563Y-13890555D02*
X10453515Y-13909603D01*
X10453515Y-13909603D02*
X10434467Y-13919127D01*
X10672563Y-13861984D02*
X10691610Y-13861984D01*
X10691610Y-13861984D02*
X10710658Y-13871508D01*
X10710658Y-13871508D02*
X10720182Y-13881031D01*
X10720182Y-13881031D02*
X10729705Y-13900079D01*
X10729705Y-13900079D02*
X10739229Y-13938174D01*
X10739229Y-13938174D02*
X10739229Y-13985793D01*
X10739229Y-13985793D02*
X10729705Y-14023888D01*
X10729705Y-14023888D02*
X10720182Y-14042936D01*
X10720182Y-14042936D02*
X10710658Y-14052460D01*
X10710658Y-14052460D02*
X10691610Y-14061984D01*
X10691610Y-14061984D02*
X10672563Y-14061984D01*
X10672563Y-14061984D02*
X10653515Y-14052460D01*
X10653515Y-14052460D02*
X10643991Y-14042936D01*
X10643991Y-14042936D02*
X10634467Y-14023888D01*
X10634467Y-14023888D02*
X10624944Y-13985793D01*
X10624944Y-13985793D02*
X10624944Y-13938174D01*
X10624944Y-13938174D02*
X10634467Y-13900079D01*
X10634467Y-13900079D02*
X10643991Y-13881031D01*
X10643991Y-13881031D02*
X10653515Y-13871508D01*
X10653515Y-13871508D02*
X10672563Y-13861984D01*
X10863039Y-13861984D02*
X10882086Y-13861984D01*
X10882086Y-13861984D02*
X10901134Y-13871508D01*
X10901134Y-13871508D02*
X10910658Y-13881031D01*
X10910658Y-13881031D02*
X10920182Y-13900079D01*
X10920182Y-13900079D02*
X10929705Y-13938174D01*
X10929705Y-13938174D02*
X10929705Y-13985793D01*
X10929705Y-13985793D02*
X10920182Y-14023888D01*
X10920182Y-14023888D02*
X10910658Y-14042936D01*
X10910658Y-14042936D02*
X10901134Y-14052460D01*
X10901134Y-14052460D02*
X10882086Y-14061984D01*
X10882086Y-14061984D02*
X10863039Y-14061984D01*
X10863039Y-14061984D02*
X10843991Y-14052460D01*
X10843991Y-14052460D02*
X10834467Y-14042936D01*
X10834467Y-14042936D02*
X10824944Y-14023888D01*
X10824944Y-14023888D02*
X10815420Y-13985793D01*
X10815420Y-13985793D02*
X10815420Y-13938174D01*
X10815420Y-13938174D02*
X10824944Y-13900079D01*
X10824944Y-13900079D02*
X10834467Y-13881031D01*
X10834467Y-13881031D02*
X10843991Y-13871508D01*
X10843991Y-13871508D02*
X10863039Y-13861984D01*
X11015420Y-14061984D02*
X11015420Y-13928650D01*
X11015420Y-13947698D02*
X11024944Y-13938174D01*
X11024944Y-13938174D02*
X11043991Y-13928650D01*
X11043991Y-13928650D02*
X11072563Y-13928650D01*
X11072563Y-13928650D02*
X11091610Y-13938174D01*
X11091610Y-13938174D02*
X11101134Y-13957222D01*
X11101134Y-13957222D02*
X11101134Y-14061984D01*
X11101134Y-13957222D02*
X11110658Y-13938174D01*
X11110658Y-13938174D02*
X11129705Y-13928650D01*
X11129705Y-13928650D02*
X11158277Y-13928650D01*
X11158277Y-13928650D02*
X11177325Y-13938174D01*
X11177325Y-13938174D02*
X11186848Y-13957222D01*
X11186848Y-13957222D02*
X11186848Y-14061984D01*
X11282086Y-14061984D02*
X11282086Y-13928650D01*
X11282086Y-13947698D02*
X11291610Y-13938174D01*
X11291610Y-13938174D02*
X11310658Y-13928650D01*
X11310658Y-13928650D02*
X11339229Y-13928650D01*
X11339229Y-13928650D02*
X11358277Y-13938174D01*
X11358277Y-13938174D02*
X11367801Y-13957222D01*
X11367801Y-13957222D02*
X11367801Y-14061984D01*
X11367801Y-13957222D02*
X11377324Y-13938174D01*
X11377324Y-13938174D02*
X11396372Y-13928650D01*
X11396372Y-13928650D02*
X11424943Y-13928650D01*
X11424943Y-13928650D02*
X11443991Y-13938174D01*
X11443991Y-13938174D02*
X11453515Y-13957222D01*
X11453515Y-13957222D02*
X11453515Y-14061984D01*
X11843991Y-13852460D02*
X11672563Y-14109603D01*
X12101134Y-13861984D02*
X12120182Y-13861984D01*
X12120182Y-13861984D02*
X12139229Y-13871508D01*
X12139229Y-13871508D02*
X12148753Y-13881031D01*
X12148753Y-13881031D02*
X12158277Y-13900079D01*
X12158277Y-13900079D02*
X12167801Y-13938174D01*
X12167801Y-13938174D02*
X12167801Y-13985793D01*
X12167801Y-13985793D02*
X12158277Y-14023888D01*
X12158277Y-14023888D02*
X12148753Y-14042936D01*
X12148753Y-14042936D02*
X12139229Y-14052460D01*
X12139229Y-14052460D02*
X12120182Y-14061984D01*
X12120182Y-14061984D02*
X12101134Y-14061984D01*
X12101134Y-14061984D02*
X12082086Y-14052460D01*
X12082086Y-14052460D02*
X12072563Y-14042936D01*
X12072563Y-14042936D02*
X12063039Y-14023888D01*
X12063039Y-14023888D02*
X12053515Y-13985793D01*
X12053515Y-13985793D02*
X12053515Y-13938174D01*
X12053515Y-13938174D02*
X12063039Y-13900079D01*
X12063039Y-13900079D02*
X12072563Y-13881031D01*
X12072563Y-13881031D02*
X12082086Y-13871508D01*
X12082086Y-13871508D02*
X12101134Y-13861984D01*
X12253515Y-14042936D02*
X12263039Y-14052460D01*
X12263039Y-14052460D02*
X12253515Y-14061984D01*
X12253515Y-14061984D02*
X12243991Y-14052460D01*
X12243991Y-14052460D02*
X12253515Y-14042936D01*
X12253515Y-14042936D02*
X12253515Y-14061984D01*
X12386848Y-13861984D02*
X12405896Y-13861984D01*
X12405896Y-13861984D02*
X12424944Y-13871508D01*
X12424944Y-13871508D02*
X12434467Y-13881031D01*
X12434467Y-13881031D02*
X12443991Y-13900079D01*
X12443991Y-13900079D02*
X12453515Y-13938174D01*
X12453515Y-13938174D02*
X12453515Y-13985793D01*
X12453515Y-13985793D02*
X12443991Y-14023888D01*
X12443991Y-14023888D02*
X12434467Y-14042936D01*
X12434467Y-14042936D02*
X12424944Y-14052460D01*
X12424944Y-14052460D02*
X12405896Y-14061984D01*
X12405896Y-14061984D02*
X12386848Y-14061984D01*
X12386848Y-14061984D02*
X12367801Y-14052460D01*
X12367801Y-14052460D02*
X12358277Y-14042936D01*
X12358277Y-14042936D02*
X12348753Y-14023888D01*
X12348753Y-14023888D02*
X12339229Y-13985793D01*
X12339229Y-13985793D02*
X12339229Y-13938174D01*
X12339229Y-13938174D02*
X12348753Y-13900079D01*
X12348753Y-13900079D02*
X12358277Y-13881031D01*
X12358277Y-13881031D02*
X12367801Y-13871508D01*
X12367801Y-13871508D02*
X12386848Y-13861984D01*
X12624944Y-13928650D02*
X12624944Y-14061984D01*
X12577325Y-13852460D02*
X12529706Y-13995317D01*
X12529706Y-13995317D02*
X12653515Y-13995317D01*
X12710658Y-13861984D02*
X12834467Y-13861984D01*
X12834467Y-13861984D02*
X12767801Y-13938174D01*
X12767801Y-13938174D02*
X12796372Y-13938174D01*
X12796372Y-13938174D02*
X12815420Y-13947698D01*
X12815420Y-13947698D02*
X12824944Y-13957222D01*
X12824944Y-13957222D02*
X12834467Y-13976269D01*
X12834467Y-13976269D02*
X12834467Y-14023888D01*
X12834467Y-14023888D02*
X12824944Y-14042936D01*
X12824944Y-14042936D02*
X12815420Y-14052460D01*
X12815420Y-14052460D02*
X12796372Y-14061984D01*
X12796372Y-14061984D02*
X12739229Y-14061984D01*
X12739229Y-14061984D02*
X12720182Y-14052460D01*
X12720182Y-14052460D02*
X12710658Y-14042936D01*
X12901134Y-13861984D02*
X13024944Y-13861984D01*
X13024944Y-13861984D02*
X12958277Y-13938174D01*
X12958277Y-13938174D02*
X12986848Y-13938174D01*
X12986848Y-13938174D02*
X13005896Y-13947698D01*
X13005896Y-13947698D02*
X13015420Y-13957222D01*
X13015420Y-13957222D02*
X13024944Y-13976269D01*
X13024944Y-13976269D02*
X13024944Y-14023888D01*
X13024944Y-14023888D02*
X13015420Y-14042936D01*
X13015420Y-14042936D02*
X13005896Y-14052460D01*
X13005896Y-14052460D02*
X12986848Y-14061984D01*
X12986848Y-14061984D02*
X12929706Y-14061984D01*
X12929706Y-14061984D02*
X12910658Y-14052460D01*
X12910658Y-14052460D02*
X12901134Y-14042936D01*
X13101134Y-13861984D02*
X13101134Y-13900079D01*
X13177325Y-13861984D02*
X13177325Y-13900079D01*
X13472563Y-14138174D02*
X13463039Y-14128650D01*
X13463039Y-14128650D02*
X13443991Y-14100079D01*
X13443991Y-14100079D02*
X13434468Y-14081031D01*
X13434468Y-14081031D02*
X13424944Y-14052460D01*
X13424944Y-14052460D02*
X13415420Y-14004841D01*
X13415420Y-14004841D02*
X13415420Y-13966746D01*
X13415420Y-13966746D02*
X13424944Y-13919127D01*
X13424944Y-13919127D02*
X13434468Y-13890555D01*
X13434468Y-13890555D02*
X13443991Y-13871508D01*
X13443991Y-13871508D02*
X13463039Y-13842936D01*
X13463039Y-13842936D02*
X13472563Y-13833412D01*
X13529706Y-13861984D02*
X13653515Y-13861984D01*
X13653515Y-13861984D02*
X13586848Y-13938174D01*
X13586848Y-13938174D02*
X13615420Y-13938174D01*
X13615420Y-13938174D02*
X13634468Y-13947698D01*
X13634468Y-13947698D02*
X13643991Y-13957222D01*
X13643991Y-13957222D02*
X13653515Y-13976269D01*
X13653515Y-13976269D02*
X13653515Y-14023888D01*
X13653515Y-14023888D02*
X13643991Y-14042936D01*
X13643991Y-14042936D02*
X13634468Y-14052460D01*
X13634468Y-14052460D02*
X13615420Y-14061984D01*
X13615420Y-14061984D02*
X13558277Y-14061984D01*
X13558277Y-14061984D02*
X13539229Y-14052460D01*
X13539229Y-14052460D02*
X13529706Y-14042936D01*
X13891610Y-14061984D02*
X13891610Y-13861984D01*
X13977325Y-14061984D02*
X13977325Y-13957222D01*
X13977325Y-13957222D02*
X13967801Y-13938174D01*
X13967801Y-13938174D02*
X13948753Y-13928650D01*
X13948753Y-13928650D02*
X13920182Y-13928650D01*
X13920182Y-13928650D02*
X13901134Y-13938174D01*
X13901134Y-13938174D02*
X13891610Y-13947698D01*
X14101134Y-14061984D02*
X14082087Y-14052460D01*
X14082087Y-14052460D02*
X14072563Y-14042936D01*
X14072563Y-14042936D02*
X14063039Y-14023888D01*
X14063039Y-14023888D02*
X14063039Y-13966746D01*
X14063039Y-13966746D02*
X14072563Y-13947698D01*
X14072563Y-13947698D02*
X14082087Y-13938174D01*
X14082087Y-13938174D02*
X14101134Y-13928650D01*
X14101134Y-13928650D02*
X14129706Y-13928650D01*
X14129706Y-13928650D02*
X14148753Y-13938174D01*
X14148753Y-13938174D02*
X14158277Y-13947698D01*
X14158277Y-13947698D02*
X14167801Y-13966746D01*
X14167801Y-13966746D02*
X14167801Y-14023888D01*
X14167801Y-14023888D02*
X14158277Y-14042936D01*
X14158277Y-14042936D02*
X14148753Y-14052460D01*
X14148753Y-14052460D02*
X14129706Y-14061984D01*
X14129706Y-14061984D02*
X14101134Y-14061984D01*
X14282087Y-14061984D02*
X14263039Y-14052460D01*
X14263039Y-14052460D02*
X14253515Y-14033412D01*
X14253515Y-14033412D02*
X14253515Y-13861984D01*
X14434468Y-14052460D02*
X14415420Y-14061984D01*
X14415420Y-14061984D02*
X14377325Y-14061984D01*
X14377325Y-14061984D02*
X14358277Y-14052460D01*
X14358277Y-14052460D02*
X14348753Y-14033412D01*
X14348753Y-14033412D02*
X14348753Y-13957222D01*
X14348753Y-13957222D02*
X14358277Y-13938174D01*
X14358277Y-13938174D02*
X14377325Y-13928650D01*
X14377325Y-13928650D02*
X14415420Y-13928650D01*
X14415420Y-13928650D02*
X14434468Y-13938174D01*
X14434468Y-13938174D02*
X14443991Y-13957222D01*
X14443991Y-13957222D02*
X14443991Y-13976269D01*
X14443991Y-13976269D02*
X14348753Y-13995317D01*
X14520182Y-14052460D02*
X14539230Y-14061984D01*
X14539230Y-14061984D02*
X14577325Y-14061984D01*
X14577325Y-14061984D02*
X14596372Y-14052460D01*
X14596372Y-14052460D02*
X14605896Y-14033412D01*
X14605896Y-14033412D02*
X14605896Y-14023888D01*
X14605896Y-14023888D02*
X14596372Y-14004841D01*
X14596372Y-14004841D02*
X14577325Y-13995317D01*
X14577325Y-13995317D02*
X14548753Y-13995317D01*
X14548753Y-13995317D02*
X14529706Y-13985793D01*
X14529706Y-13985793D02*
X14520182Y-13966746D01*
X14520182Y-13966746D02*
X14520182Y-13957222D01*
X14520182Y-13957222D02*
X14529706Y-13938174D01*
X14529706Y-13938174D02*
X14548753Y-13928650D01*
X14548753Y-13928650D02*
X14577325Y-13928650D01*
X14577325Y-13928650D02*
X14596372Y-13938174D01*
X14672563Y-14138174D02*
X14682087Y-14128650D01*
X14682087Y-14128650D02*
X14701134Y-14100079D01*
X14701134Y-14100079D02*
X14710658Y-14081031D01*
X14710658Y-14081031D02*
X14720182Y-14052460D01*
X14720182Y-14052460D02*
X14729706Y-14004841D01*
X14729706Y-14004841D02*
X14729706Y-13966746D01*
X14729706Y-13966746D02*
X14720182Y-13919127D01*
X14720182Y-13919127D02*
X14710658Y-13890555D01*
X14710658Y-13890555D02*
X14701134Y-13871508D01*
X14701134Y-13871508D02*
X14682087Y-13842936D01*
X14682087Y-13842936D02*
X14672563Y-13833412D01*
X15034468Y-14138174D02*
X15024944Y-14128650D01*
X15024944Y-14128650D02*
X15005896Y-14100079D01*
X15005896Y-14100079D02*
X14996372Y-14081031D01*
X14996372Y-14081031D02*
X14986849Y-14052460D01*
X14986849Y-14052460D02*
X14977325Y-14004841D01*
X14977325Y-14004841D02*
X14977325Y-13966746D01*
X14977325Y-13966746D02*
X14986849Y-13919127D01*
X14986849Y-13919127D02*
X14996372Y-13890555D01*
X14996372Y-13890555D02*
X15005896Y-13871508D01*
X15005896Y-13871508D02*
X15024944Y-13842936D01*
X15024944Y-13842936D02*
X15034468Y-13833412D01*
X15110658Y-13928650D02*
X15110658Y-14061984D01*
X15110658Y-13947698D02*
X15120182Y-13938174D01*
X15120182Y-13938174D02*
X15139230Y-13928650D01*
X15139230Y-13928650D02*
X15167801Y-13928650D01*
X15167801Y-13928650D02*
X15186849Y-13938174D01*
X15186849Y-13938174D02*
X15196372Y-13957222D01*
X15196372Y-13957222D02*
X15196372Y-14061984D01*
X15320182Y-14061984D02*
X15301134Y-14052460D01*
X15301134Y-14052460D02*
X15291611Y-14042936D01*
X15291611Y-14042936D02*
X15282087Y-14023888D01*
X15282087Y-14023888D02*
X15282087Y-13966746D01*
X15282087Y-13966746D02*
X15291611Y-13947698D01*
X15291611Y-13947698D02*
X15301134Y-13938174D01*
X15301134Y-13938174D02*
X15320182Y-13928650D01*
X15320182Y-13928650D02*
X15348753Y-13928650D01*
X15348753Y-13928650D02*
X15367801Y-13938174D01*
X15367801Y-13938174D02*
X15377325Y-13947698D01*
X15377325Y-13947698D02*
X15386849Y-13966746D01*
X15386849Y-13966746D02*
X15386849Y-14023888D01*
X15386849Y-14023888D02*
X15377325Y-14042936D01*
X15377325Y-14042936D02*
X15367801Y-14052460D01*
X15367801Y-14052460D02*
X15348753Y-14061984D01*
X15348753Y-14061984D02*
X15320182Y-14061984D01*
X15443992Y-13928650D02*
X15520182Y-13928650D01*
X15472563Y-13861984D02*
X15472563Y-14033412D01*
X15472563Y-14033412D02*
X15482087Y-14052460D01*
X15482087Y-14052460D02*
X15501134Y-14061984D01*
X15501134Y-14061984D02*
X15520182Y-14061984D01*
X15739230Y-13928650D02*
X15739230Y-14128650D01*
X15739230Y-13938174D02*
X15758277Y-13928650D01*
X15758277Y-13928650D02*
X15796373Y-13928650D01*
X15796373Y-13928650D02*
X15815420Y-13938174D01*
X15815420Y-13938174D02*
X15824944Y-13947698D01*
X15824944Y-13947698D02*
X15834468Y-13966746D01*
X15834468Y-13966746D02*
X15834468Y-14023888D01*
X15834468Y-14023888D02*
X15824944Y-14042936D01*
X15824944Y-14042936D02*
X15815420Y-14052460D01*
X15815420Y-14052460D02*
X15796373Y-14061984D01*
X15796373Y-14061984D02*
X15758277Y-14061984D01*
X15758277Y-14061984D02*
X15739230Y-14052460D01*
X15948753Y-14061984D02*
X15929706Y-14052460D01*
X15929706Y-14052460D02*
X15920182Y-14033412D01*
X15920182Y-14033412D02*
X15920182Y-13861984D01*
X16110658Y-14061984D02*
X16110658Y-13957222D01*
X16110658Y-13957222D02*
X16101134Y-13938174D01*
X16101134Y-13938174D02*
X16082087Y-13928650D01*
X16082087Y-13928650D02*
X16043992Y-13928650D01*
X16043992Y-13928650D02*
X16024944Y-13938174D01*
X16110658Y-14052460D02*
X16091611Y-14061984D01*
X16091611Y-14061984D02*
X16043992Y-14061984D01*
X16043992Y-14061984D02*
X16024944Y-14052460D01*
X16024944Y-14052460D02*
X16015420Y-14033412D01*
X16015420Y-14033412D02*
X16015420Y-14014365D01*
X16015420Y-14014365D02*
X16024944Y-13995317D01*
X16024944Y-13995317D02*
X16043992Y-13985793D01*
X16043992Y-13985793D02*
X16091611Y-13985793D01*
X16091611Y-13985793D02*
X16110658Y-13976269D01*
X16177325Y-13928650D02*
X16253515Y-13928650D01*
X16205896Y-13861984D02*
X16205896Y-14033412D01*
X16205896Y-14033412D02*
X16215420Y-14052460D01*
X16215420Y-14052460D02*
X16234468Y-14061984D01*
X16234468Y-14061984D02*
X16253515Y-14061984D01*
X16396373Y-14052460D02*
X16377325Y-14061984D01*
X16377325Y-14061984D02*
X16339230Y-14061984D01*
X16339230Y-14061984D02*
X16320182Y-14052460D01*
X16320182Y-14052460D02*
X16310658Y-14033412D01*
X16310658Y-14033412D02*
X16310658Y-13957222D01*
X16310658Y-13957222D02*
X16320182Y-13938174D01*
X16320182Y-13938174D02*
X16339230Y-13928650D01*
X16339230Y-13928650D02*
X16377325Y-13928650D01*
X16377325Y-13928650D02*
X16396373Y-13938174D01*
X16396373Y-13938174D02*
X16405896Y-13957222D01*
X16405896Y-13957222D02*
X16405896Y-13976269D01*
X16405896Y-13976269D02*
X16310658Y-13995317D01*
X16577325Y-14061984D02*
X16577325Y-13861984D01*
X16577325Y-14052460D02*
X16558277Y-14061984D01*
X16558277Y-14061984D02*
X16520182Y-14061984D01*
X16520182Y-14061984D02*
X16501134Y-14052460D01*
X16501134Y-14052460D02*
X16491611Y-14042936D01*
X16491611Y-14042936D02*
X16482087Y-14023888D01*
X16482087Y-14023888D02*
X16482087Y-13966746D01*
X16482087Y-13966746D02*
X16491611Y-13947698D01*
X16491611Y-13947698D02*
X16501134Y-13938174D01*
X16501134Y-13938174D02*
X16520182Y-13928650D01*
X16520182Y-13928650D02*
X16558277Y-13928650D01*
X16558277Y-13928650D02*
X16577325Y-13938174D01*
X16653515Y-14138174D02*
X16663039Y-14128650D01*
X16663039Y-14128650D02*
X16682087Y-14100079D01*
X16682087Y-14100079D02*
X16691611Y-14081031D01*
X16691611Y-14081031D02*
X16701134Y-14052460D01*
X16701134Y-14052460D02*
X16710658Y-14004841D01*
X16710658Y-14004841D02*
X16710658Y-13966746D01*
X16710658Y-13966746D02*
X16701134Y-13919127D01*
X16701134Y-13919127D02*
X16691611Y-13890555D01*
X16691611Y-13890555D02*
X16682087Y-13871508D01*
X16682087Y-13871508D02*
X16663039Y-13842936D01*
X16663039Y-13842936D02*
X16653515Y-13833412D01*
X9868211Y-14305211D02*
X9868211Y-14163789D01*
X9726789Y-14163789D01*
X9726789Y-14305211D01*
X9868211Y-14305211D01*
X10148753Y-14145031D02*
X10158277Y-14135508D01*
X10158277Y-14135508D02*
X10177324Y-14125984D01*
X10177324Y-14125984D02*
X10224944Y-14125984D01*
X10224944Y-14125984D02*
X10243991Y-14135508D01*
X10243991Y-14135508D02*
X10253515Y-14145031D01*
X10253515Y-14145031D02*
X10263039Y-14164079D01*
X10263039Y-14164079D02*
X10263039Y-14183127D01*
X10263039Y-14183127D02*
X10253515Y-14211698D01*
X10253515Y-14211698D02*
X10139229Y-14325984D01*
X10139229Y-14325984D02*
X10263039Y-14325984D01*
X10348753Y-14306936D02*
X10358277Y-14316460D01*
X10358277Y-14316460D02*
X10348753Y-14325984D01*
X10348753Y-14325984D02*
X10339229Y-14316460D01*
X10339229Y-14316460D02*
X10348753Y-14306936D01*
X10348753Y-14306936D02*
X10348753Y-14325984D01*
X10539229Y-14125984D02*
X10443991Y-14125984D01*
X10443991Y-14125984D02*
X10434467Y-14221222D01*
X10434467Y-14221222D02*
X10443991Y-14211698D01*
X10443991Y-14211698D02*
X10463039Y-14202174D01*
X10463039Y-14202174D02*
X10510658Y-14202174D01*
X10510658Y-14202174D02*
X10529705Y-14211698D01*
X10529705Y-14211698D02*
X10539229Y-14221222D01*
X10539229Y-14221222D02*
X10548753Y-14240269D01*
X10548753Y-14240269D02*
X10548753Y-14287888D01*
X10548753Y-14287888D02*
X10539229Y-14306936D01*
X10539229Y-14306936D02*
X10529705Y-14316460D01*
X10529705Y-14316460D02*
X10510658Y-14325984D01*
X10510658Y-14325984D02*
X10463039Y-14325984D01*
X10463039Y-14325984D02*
X10443991Y-14316460D01*
X10443991Y-14316460D02*
X10434467Y-14306936D01*
X10672563Y-14125984D02*
X10691610Y-14125984D01*
X10691610Y-14125984D02*
X10710658Y-14135508D01*
X10710658Y-14135508D02*
X10720182Y-14145031D01*
X10720182Y-14145031D02*
X10729705Y-14164079D01*
X10729705Y-14164079D02*
X10739229Y-14202174D01*
X10739229Y-14202174D02*
X10739229Y-14249793D01*
X10739229Y-14249793D02*
X10729705Y-14287888D01*
X10729705Y-14287888D02*
X10720182Y-14306936D01*
X10720182Y-14306936D02*
X10710658Y-14316460D01*
X10710658Y-14316460D02*
X10691610Y-14325984D01*
X10691610Y-14325984D02*
X10672563Y-14325984D01*
X10672563Y-14325984D02*
X10653515Y-14316460D01*
X10653515Y-14316460D02*
X10643991Y-14306936D01*
X10643991Y-14306936D02*
X10634467Y-14287888D01*
X10634467Y-14287888D02*
X10624944Y-14249793D01*
X10624944Y-14249793D02*
X10624944Y-14202174D01*
X10624944Y-14202174D02*
X10634467Y-14164079D01*
X10634467Y-14164079D02*
X10643991Y-14145031D01*
X10643991Y-14145031D02*
X10653515Y-14135508D01*
X10653515Y-14135508D02*
X10672563Y-14125984D01*
X10863039Y-14125984D02*
X10882086Y-14125984D01*
X10882086Y-14125984D02*
X10901134Y-14135508D01*
X10901134Y-14135508D02*
X10910658Y-14145031D01*
X10910658Y-14145031D02*
X10920182Y-14164079D01*
X10920182Y-14164079D02*
X10929705Y-14202174D01*
X10929705Y-14202174D02*
X10929705Y-14249793D01*
X10929705Y-14249793D02*
X10920182Y-14287888D01*
X10920182Y-14287888D02*
X10910658Y-14306936D01*
X10910658Y-14306936D02*
X10901134Y-14316460D01*
X10901134Y-14316460D02*
X10882086Y-14325984D01*
X10882086Y-14325984D02*
X10863039Y-14325984D01*
X10863039Y-14325984D02*
X10843991Y-14316460D01*
X10843991Y-14316460D02*
X10834467Y-14306936D01*
X10834467Y-14306936D02*
X10824944Y-14287888D01*
X10824944Y-14287888D02*
X10815420Y-14249793D01*
X10815420Y-14249793D02*
X10815420Y-14202174D01*
X10815420Y-14202174D02*
X10824944Y-14164079D01*
X10824944Y-14164079D02*
X10834467Y-14145031D01*
X10834467Y-14145031D02*
X10843991Y-14135508D01*
X10843991Y-14135508D02*
X10863039Y-14125984D01*
X11015420Y-14325984D02*
X11015420Y-14192650D01*
X11015420Y-14211698D02*
X11024944Y-14202174D01*
X11024944Y-14202174D02*
X11043991Y-14192650D01*
X11043991Y-14192650D02*
X11072563Y-14192650D01*
X11072563Y-14192650D02*
X11091610Y-14202174D01*
X11091610Y-14202174D02*
X11101134Y-14221222D01*
X11101134Y-14221222D02*
X11101134Y-14325984D01*
X11101134Y-14221222D02*
X11110658Y-14202174D01*
X11110658Y-14202174D02*
X11129705Y-14192650D01*
X11129705Y-14192650D02*
X11158277Y-14192650D01*
X11158277Y-14192650D02*
X11177325Y-14202174D01*
X11177325Y-14202174D02*
X11186848Y-14221222D01*
X11186848Y-14221222D02*
X11186848Y-14325984D01*
X11282086Y-14325984D02*
X11282086Y-14192650D01*
X11282086Y-14211698D02*
X11291610Y-14202174D01*
X11291610Y-14202174D02*
X11310658Y-14192650D01*
X11310658Y-14192650D02*
X11339229Y-14192650D01*
X11339229Y-14192650D02*
X11358277Y-14202174D01*
X11358277Y-14202174D02*
X11367801Y-14221222D01*
X11367801Y-14221222D02*
X11367801Y-14325984D01*
X11367801Y-14221222D02*
X11377324Y-14202174D01*
X11377324Y-14202174D02*
X11396372Y-14192650D01*
X11396372Y-14192650D02*
X11424943Y-14192650D01*
X11424943Y-14192650D02*
X11443991Y-14202174D01*
X11443991Y-14202174D02*
X11453515Y-14221222D01*
X11453515Y-14221222D02*
X11453515Y-14325984D01*
X11843991Y-14116460D02*
X11672563Y-14373603D01*
X12101134Y-14125984D02*
X12120182Y-14125984D01*
X12120182Y-14125984D02*
X12139229Y-14135508D01*
X12139229Y-14135508D02*
X12148753Y-14145031D01*
X12148753Y-14145031D02*
X12158277Y-14164079D01*
X12158277Y-14164079D02*
X12167801Y-14202174D01*
X12167801Y-14202174D02*
X12167801Y-14249793D01*
X12167801Y-14249793D02*
X12158277Y-14287888D01*
X12158277Y-14287888D02*
X12148753Y-14306936D01*
X12148753Y-14306936D02*
X12139229Y-14316460D01*
X12139229Y-14316460D02*
X12120182Y-14325984D01*
X12120182Y-14325984D02*
X12101134Y-14325984D01*
X12101134Y-14325984D02*
X12082086Y-14316460D01*
X12082086Y-14316460D02*
X12072563Y-14306936D01*
X12072563Y-14306936D02*
X12063039Y-14287888D01*
X12063039Y-14287888D02*
X12053515Y-14249793D01*
X12053515Y-14249793D02*
X12053515Y-14202174D01*
X12053515Y-14202174D02*
X12063039Y-14164079D01*
X12063039Y-14164079D02*
X12072563Y-14145031D01*
X12072563Y-14145031D02*
X12082086Y-14135508D01*
X12082086Y-14135508D02*
X12101134Y-14125984D01*
X12253515Y-14306936D02*
X12263039Y-14316460D01*
X12263039Y-14316460D02*
X12253515Y-14325984D01*
X12253515Y-14325984D02*
X12243991Y-14316460D01*
X12243991Y-14316460D02*
X12253515Y-14306936D01*
X12253515Y-14306936D02*
X12253515Y-14325984D01*
X12386848Y-14125984D02*
X12405896Y-14125984D01*
X12405896Y-14125984D02*
X12424944Y-14135508D01*
X12424944Y-14135508D02*
X12434467Y-14145031D01*
X12434467Y-14145031D02*
X12443991Y-14164079D01*
X12443991Y-14164079D02*
X12453515Y-14202174D01*
X12453515Y-14202174D02*
X12453515Y-14249793D01*
X12453515Y-14249793D02*
X12443991Y-14287888D01*
X12443991Y-14287888D02*
X12434467Y-14306936D01*
X12434467Y-14306936D02*
X12424944Y-14316460D01*
X12424944Y-14316460D02*
X12405896Y-14325984D01*
X12405896Y-14325984D02*
X12386848Y-14325984D01*
X12386848Y-14325984D02*
X12367801Y-14316460D01*
X12367801Y-14316460D02*
X12358277Y-14306936D01*
X12358277Y-14306936D02*
X12348753Y-14287888D01*
X12348753Y-14287888D02*
X12339229Y-14249793D01*
X12339229Y-14249793D02*
X12339229Y-14202174D01*
X12339229Y-14202174D02*
X12348753Y-14164079D01*
X12348753Y-14164079D02*
X12358277Y-14145031D01*
X12358277Y-14145031D02*
X12367801Y-14135508D01*
X12367801Y-14135508D02*
X12386848Y-14125984D01*
X12548753Y-14325984D02*
X12586848Y-14325984D01*
X12586848Y-14325984D02*
X12605896Y-14316460D01*
X12605896Y-14316460D02*
X12615420Y-14306936D01*
X12615420Y-14306936D02*
X12634467Y-14278365D01*
X12634467Y-14278365D02*
X12643991Y-14240269D01*
X12643991Y-14240269D02*
X12643991Y-14164079D01*
X12643991Y-14164079D02*
X12634467Y-14145031D01*
X12634467Y-14145031D02*
X12624944Y-14135508D01*
X12624944Y-14135508D02*
X12605896Y-14125984D01*
X12605896Y-14125984D02*
X12567801Y-14125984D01*
X12567801Y-14125984D02*
X12548753Y-14135508D01*
X12548753Y-14135508D02*
X12539229Y-14145031D01*
X12539229Y-14145031D02*
X12529706Y-14164079D01*
X12529706Y-14164079D02*
X12529706Y-14211698D01*
X12529706Y-14211698D02*
X12539229Y-14230746D01*
X12539229Y-14230746D02*
X12548753Y-14240269D01*
X12548753Y-14240269D02*
X12567801Y-14249793D01*
X12567801Y-14249793D02*
X12605896Y-14249793D01*
X12605896Y-14249793D02*
X12624944Y-14240269D01*
X12624944Y-14240269D02*
X12634467Y-14230746D01*
X12634467Y-14230746D02*
X12643991Y-14211698D01*
X12758277Y-14211698D02*
X12739229Y-14202174D01*
X12739229Y-14202174D02*
X12729706Y-14192650D01*
X12729706Y-14192650D02*
X12720182Y-14173603D01*
X12720182Y-14173603D02*
X12720182Y-14164079D01*
X12720182Y-14164079D02*
X12729706Y-14145031D01*
X12729706Y-14145031D02*
X12739229Y-14135508D01*
X12739229Y-14135508D02*
X12758277Y-14125984D01*
X12758277Y-14125984D02*
X12796372Y-14125984D01*
X12796372Y-14125984D02*
X12815420Y-14135508D01*
X12815420Y-14135508D02*
X12824944Y-14145031D01*
X12824944Y-14145031D02*
X12834467Y-14164079D01*
X12834467Y-14164079D02*
X12834467Y-14173603D01*
X12834467Y-14173603D02*
X12824944Y-14192650D01*
X12824944Y-14192650D02*
X12815420Y-14202174D01*
X12815420Y-14202174D02*
X12796372Y-14211698D01*
X12796372Y-14211698D02*
X12758277Y-14211698D01*
X12758277Y-14211698D02*
X12739229Y-14221222D01*
X12739229Y-14221222D02*
X12729706Y-14230746D01*
X12729706Y-14230746D02*
X12720182Y-14249793D01*
X12720182Y-14249793D02*
X12720182Y-14287888D01*
X12720182Y-14287888D02*
X12729706Y-14306936D01*
X12729706Y-14306936D02*
X12739229Y-14316460D01*
X12739229Y-14316460D02*
X12758277Y-14325984D01*
X12758277Y-14325984D02*
X12796372Y-14325984D01*
X12796372Y-14325984D02*
X12815420Y-14316460D01*
X12815420Y-14316460D02*
X12824944Y-14306936D01*
X12824944Y-14306936D02*
X12834467Y-14287888D01*
X12834467Y-14287888D02*
X12834467Y-14249793D01*
X12834467Y-14249793D02*
X12824944Y-14230746D01*
X12824944Y-14230746D02*
X12815420Y-14221222D01*
X12815420Y-14221222D02*
X12796372Y-14211698D01*
X13005896Y-14192650D02*
X13005896Y-14325984D01*
X12958277Y-14116460D02*
X12910658Y-14259317D01*
X12910658Y-14259317D02*
X13034467Y-14259317D01*
X13101134Y-14125984D02*
X13101134Y-14164079D01*
X13177325Y-14125984D02*
X13177325Y-14164079D01*
X13472563Y-14402174D02*
X13463039Y-14392650D01*
X13463039Y-14392650D02*
X13443991Y-14364079D01*
X13443991Y-14364079D02*
X13434468Y-14345031D01*
X13434468Y-14345031D02*
X13424944Y-14316460D01*
X13424944Y-14316460D02*
X13415420Y-14268841D01*
X13415420Y-14268841D02*
X13415420Y-14230746D01*
X13415420Y-14230746D02*
X13424944Y-14183127D01*
X13424944Y-14183127D02*
X13434468Y-14154555D01*
X13434468Y-14154555D02*
X13443991Y-14135508D01*
X13443991Y-14135508D02*
X13463039Y-14106936D01*
X13463039Y-14106936D02*
X13472563Y-14097412D01*
X13586848Y-14125984D02*
X13605896Y-14125984D01*
X13605896Y-14125984D02*
X13624944Y-14135508D01*
X13624944Y-14135508D02*
X13634468Y-14145031D01*
X13634468Y-14145031D02*
X13643991Y-14164079D01*
X13643991Y-14164079D02*
X13653515Y-14202174D01*
X13653515Y-14202174D02*
X13653515Y-14249793D01*
X13653515Y-14249793D02*
X13643991Y-14287888D01*
X13643991Y-14287888D02*
X13634468Y-14306936D01*
X13634468Y-14306936D02*
X13624944Y-14316460D01*
X13624944Y-14316460D02*
X13605896Y-14325984D01*
X13605896Y-14325984D02*
X13586848Y-14325984D01*
X13586848Y-14325984D02*
X13567801Y-14316460D01*
X13567801Y-14316460D02*
X13558277Y-14306936D01*
X13558277Y-14306936D02*
X13548753Y-14287888D01*
X13548753Y-14287888D02*
X13539229Y-14249793D01*
X13539229Y-14249793D02*
X13539229Y-14202174D01*
X13539229Y-14202174D02*
X13548753Y-14164079D01*
X13548753Y-14164079D02*
X13558277Y-14145031D01*
X13558277Y-14145031D02*
X13567801Y-14135508D01*
X13567801Y-14135508D02*
X13586848Y-14125984D01*
X13891610Y-14325984D02*
X13891610Y-14125984D01*
X13977325Y-14325984D02*
X13977325Y-14221222D01*
X13977325Y-14221222D02*
X13967801Y-14202174D01*
X13967801Y-14202174D02*
X13948753Y-14192650D01*
X13948753Y-14192650D02*
X13920182Y-14192650D01*
X13920182Y-14192650D02*
X13901134Y-14202174D01*
X13901134Y-14202174D02*
X13891610Y-14211698D01*
X14101134Y-14325984D02*
X14082087Y-14316460D01*
X14082087Y-14316460D02*
X14072563Y-14306936D01*
X14072563Y-14306936D02*
X14063039Y-14287888D01*
X14063039Y-14287888D02*
X14063039Y-14230746D01*
X14063039Y-14230746D02*
X14072563Y-14211698D01*
X14072563Y-14211698D02*
X14082087Y-14202174D01*
X14082087Y-14202174D02*
X14101134Y-14192650D01*
X14101134Y-14192650D02*
X14129706Y-14192650D01*
X14129706Y-14192650D02*
X14148753Y-14202174D01*
X14148753Y-14202174D02*
X14158277Y-14211698D01*
X14158277Y-14211698D02*
X14167801Y-14230746D01*
X14167801Y-14230746D02*
X14167801Y-14287888D01*
X14167801Y-14287888D02*
X14158277Y-14306936D01*
X14158277Y-14306936D02*
X14148753Y-14316460D01*
X14148753Y-14316460D02*
X14129706Y-14325984D01*
X14129706Y-14325984D02*
X14101134Y-14325984D01*
X14282087Y-14325984D02*
X14263039Y-14316460D01*
X14263039Y-14316460D02*
X14253515Y-14297412D01*
X14253515Y-14297412D02*
X14253515Y-14125984D01*
X14434468Y-14316460D02*
X14415420Y-14325984D01*
X14415420Y-14325984D02*
X14377325Y-14325984D01*
X14377325Y-14325984D02*
X14358277Y-14316460D01*
X14358277Y-14316460D02*
X14348753Y-14297412D01*
X14348753Y-14297412D02*
X14348753Y-14221222D01*
X14348753Y-14221222D02*
X14358277Y-14202174D01*
X14358277Y-14202174D02*
X14377325Y-14192650D01*
X14377325Y-14192650D02*
X14415420Y-14192650D01*
X14415420Y-14192650D02*
X14434468Y-14202174D01*
X14434468Y-14202174D02*
X14443991Y-14221222D01*
X14443991Y-14221222D02*
X14443991Y-14240269D01*
X14443991Y-14240269D02*
X14348753Y-14259317D01*
X14520182Y-14316460D02*
X14539230Y-14325984D01*
X14539230Y-14325984D02*
X14577325Y-14325984D01*
X14577325Y-14325984D02*
X14596372Y-14316460D01*
X14596372Y-14316460D02*
X14605896Y-14297412D01*
X14605896Y-14297412D02*
X14605896Y-14287888D01*
X14605896Y-14287888D02*
X14596372Y-14268841D01*
X14596372Y-14268841D02*
X14577325Y-14259317D01*
X14577325Y-14259317D02*
X14548753Y-14259317D01*
X14548753Y-14259317D02*
X14529706Y-14249793D01*
X14529706Y-14249793D02*
X14520182Y-14230746D01*
X14520182Y-14230746D02*
X14520182Y-14221222D01*
X14520182Y-14221222D02*
X14529706Y-14202174D01*
X14529706Y-14202174D02*
X14548753Y-14192650D01*
X14548753Y-14192650D02*
X14577325Y-14192650D01*
X14577325Y-14192650D02*
X14596372Y-14202174D01*
X14843992Y-14249793D02*
X14996373Y-14249793D01*
X14920182Y-14325984D02*
X14920182Y-14173603D01*
X15234468Y-14145031D02*
X15243992Y-14135508D01*
X15243992Y-14135508D02*
X15263039Y-14125984D01*
X15263039Y-14125984D02*
X15310658Y-14125984D01*
X15310658Y-14125984D02*
X15329706Y-14135508D01*
X15329706Y-14135508D02*
X15339230Y-14145031D01*
X15339230Y-14145031D02*
X15348753Y-14164079D01*
X15348753Y-14164079D02*
X15348753Y-14183127D01*
X15348753Y-14183127D02*
X15339230Y-14211698D01*
X15339230Y-14211698D02*
X15224944Y-14325984D01*
X15224944Y-14325984D02*
X15348753Y-14325984D01*
X15577325Y-14316460D02*
X15596373Y-14325984D01*
X15596373Y-14325984D02*
X15634468Y-14325984D01*
X15634468Y-14325984D02*
X15653515Y-14316460D01*
X15653515Y-14316460D02*
X15663039Y-14297412D01*
X15663039Y-14297412D02*
X15663039Y-14287888D01*
X15663039Y-14287888D02*
X15653515Y-14268841D01*
X15653515Y-14268841D02*
X15634468Y-14259317D01*
X15634468Y-14259317D02*
X15605896Y-14259317D01*
X15605896Y-14259317D02*
X15586849Y-14249793D01*
X15586849Y-14249793D02*
X15577325Y-14230746D01*
X15577325Y-14230746D02*
X15577325Y-14221222D01*
X15577325Y-14221222D02*
X15586849Y-14202174D01*
X15586849Y-14202174D02*
X15605896Y-14192650D01*
X15605896Y-14192650D02*
X15634468Y-14192650D01*
X15634468Y-14192650D02*
X15653515Y-14202174D01*
X15777325Y-14325984D02*
X15758277Y-14316460D01*
X15758277Y-14316460D02*
X15748754Y-14297412D01*
X15748754Y-14297412D02*
X15748754Y-14125984D01*
X15882087Y-14325984D02*
X15863039Y-14316460D01*
X15863039Y-14316460D02*
X15853515Y-14306936D01*
X15853515Y-14306936D02*
X15843992Y-14287888D01*
X15843992Y-14287888D02*
X15843992Y-14230746D01*
X15843992Y-14230746D02*
X15853515Y-14211698D01*
X15853515Y-14211698D02*
X15863039Y-14202174D01*
X15863039Y-14202174D02*
X15882087Y-14192650D01*
X15882087Y-14192650D02*
X15910658Y-14192650D01*
X15910658Y-14192650D02*
X15929706Y-14202174D01*
X15929706Y-14202174D02*
X15939230Y-14211698D01*
X15939230Y-14211698D02*
X15948754Y-14230746D01*
X15948754Y-14230746D02*
X15948754Y-14287888D01*
X15948754Y-14287888D02*
X15939230Y-14306936D01*
X15939230Y-14306936D02*
X15929706Y-14316460D01*
X15929706Y-14316460D02*
X15910658Y-14325984D01*
X15910658Y-14325984D02*
X15882087Y-14325984D01*
X16005896Y-14192650D02*
X16082087Y-14192650D01*
X16034468Y-14125984D02*
X16034468Y-14297412D01*
X16034468Y-14297412D02*
X16043992Y-14316460D01*
X16043992Y-14316460D02*
X16063039Y-14325984D01*
X16063039Y-14325984D02*
X16082087Y-14325984D01*
X16139230Y-14316460D02*
X16158277Y-14325984D01*
X16158277Y-14325984D02*
X16196373Y-14325984D01*
X16196373Y-14325984D02*
X16215420Y-14316460D01*
X16215420Y-14316460D02*
X16224944Y-14297412D01*
X16224944Y-14297412D02*
X16224944Y-14287888D01*
X16224944Y-14287888D02*
X16215420Y-14268841D01*
X16215420Y-14268841D02*
X16196373Y-14259317D01*
X16196373Y-14259317D02*
X16167801Y-14259317D01*
X16167801Y-14259317D02*
X16148754Y-14249793D01*
X16148754Y-14249793D02*
X16139230Y-14230746D01*
X16139230Y-14230746D02*
X16139230Y-14221222D01*
X16139230Y-14221222D02*
X16148754Y-14202174D01*
X16148754Y-14202174D02*
X16167801Y-14192650D01*
X16167801Y-14192650D02*
X16196373Y-14192650D01*
X16196373Y-14192650D02*
X16215420Y-14202174D01*
X16291611Y-14402174D02*
X16301135Y-14392650D01*
X16301135Y-14392650D02*
X16320182Y-14364079D01*
X16320182Y-14364079D02*
X16329706Y-14345031D01*
X16329706Y-14345031D02*
X16339230Y-14316460D01*
X16339230Y-14316460D02*
X16348754Y-14268841D01*
X16348754Y-14268841D02*
X16348754Y-14230746D01*
X16348754Y-14230746D02*
X16339230Y-14183127D01*
X16339230Y-14183127D02*
X16329706Y-14154555D01*
X16329706Y-14154555D02*
X16320182Y-14135508D01*
X16320182Y-14135508D02*
X16301135Y-14106936D01*
X16301135Y-14106936D02*
X16291611Y-14097412D01*
X16653516Y-14402174D02*
X16643992Y-14392650D01*
X16643992Y-14392650D02*
X16624944Y-14364079D01*
X16624944Y-14364079D02*
X16615420Y-14345031D01*
X16615420Y-14345031D02*
X16605896Y-14316460D01*
X16605896Y-14316460D02*
X16596373Y-14268841D01*
X16596373Y-14268841D02*
X16596373Y-14230746D01*
X16596373Y-14230746D02*
X16605896Y-14183127D01*
X16605896Y-14183127D02*
X16615420Y-14154555D01*
X16615420Y-14154555D02*
X16624944Y-14135508D01*
X16624944Y-14135508D02*
X16643992Y-14106936D01*
X16643992Y-14106936D02*
X16653516Y-14097412D01*
X16729706Y-14192650D02*
X16729706Y-14325984D01*
X16729706Y-14211698D02*
X16739230Y-14202174D01*
X16739230Y-14202174D02*
X16758277Y-14192650D01*
X16758277Y-14192650D02*
X16786849Y-14192650D01*
X16786849Y-14192650D02*
X16805897Y-14202174D01*
X16805897Y-14202174D02*
X16815420Y-14221222D01*
X16815420Y-14221222D02*
X16815420Y-14325984D01*
X16939230Y-14325984D02*
X16920182Y-14316460D01*
X16920182Y-14316460D02*
X16910658Y-14306936D01*
X16910658Y-14306936D02*
X16901135Y-14287888D01*
X16901135Y-14287888D02*
X16901135Y-14230746D01*
X16901135Y-14230746D02*
X16910658Y-14211698D01*
X16910658Y-14211698D02*
X16920182Y-14202174D01*
X16920182Y-14202174D02*
X16939230Y-14192650D01*
X16939230Y-14192650D02*
X16967801Y-14192650D01*
X16967801Y-14192650D02*
X16986849Y-14202174D01*
X16986849Y-14202174D02*
X16996373Y-14211698D01*
X16996373Y-14211698D02*
X17005897Y-14230746D01*
X17005897Y-14230746D02*
X17005897Y-14287888D01*
X17005897Y-14287888D02*
X16996373Y-14306936D01*
X16996373Y-14306936D02*
X16986849Y-14316460D01*
X16986849Y-14316460D02*
X16967801Y-14325984D01*
X16967801Y-14325984D02*
X16939230Y-14325984D01*
X17063039Y-14192650D02*
X17139230Y-14192650D01*
X17091611Y-14125984D02*
X17091611Y-14297412D01*
X17091611Y-14297412D02*
X17101135Y-14316460D01*
X17101135Y-14316460D02*
X17120182Y-14325984D01*
X17120182Y-14325984D02*
X17139230Y-14325984D01*
X17358278Y-14192650D02*
X17358278Y-14392650D01*
X17358278Y-14202174D02*
X17377325Y-14192650D01*
X17377325Y-14192650D02*
X17415420Y-14192650D01*
X17415420Y-14192650D02*
X17434468Y-14202174D01*
X17434468Y-14202174D02*
X17443992Y-14211698D01*
X17443992Y-14211698D02*
X17453516Y-14230746D01*
X17453516Y-14230746D02*
X17453516Y-14287888D01*
X17453516Y-14287888D02*
X17443992Y-14306936D01*
X17443992Y-14306936D02*
X17434468Y-14316460D01*
X17434468Y-14316460D02*
X17415420Y-14325984D01*
X17415420Y-14325984D02*
X17377325Y-14325984D01*
X17377325Y-14325984D02*
X17358278Y-14316460D01*
X17567801Y-14325984D02*
X17548754Y-14316460D01*
X17548754Y-14316460D02*
X17539230Y-14297412D01*
X17539230Y-14297412D02*
X17539230Y-14125984D01*
X17729706Y-14325984D02*
X17729706Y-14221222D01*
X17729706Y-14221222D02*
X17720182Y-14202174D01*
X17720182Y-14202174D02*
X17701135Y-14192650D01*
X17701135Y-14192650D02*
X17663039Y-14192650D01*
X17663039Y-14192650D02*
X17643992Y-14202174D01*
X17729706Y-14316460D02*
X17710659Y-14325984D01*
X17710659Y-14325984D02*
X17663039Y-14325984D01*
X17663039Y-14325984D02*
X17643992Y-14316460D01*
X17643992Y-14316460D02*
X17634468Y-14297412D01*
X17634468Y-14297412D02*
X17634468Y-14278365D01*
X17634468Y-14278365D02*
X17643992Y-14259317D01*
X17643992Y-14259317D02*
X17663039Y-14249793D01*
X17663039Y-14249793D02*
X17710659Y-14249793D01*
X17710659Y-14249793D02*
X17729706Y-14240269D01*
X17796373Y-14192650D02*
X17872563Y-14192650D01*
X17824944Y-14125984D02*
X17824944Y-14297412D01*
X17824944Y-14297412D02*
X17834468Y-14316460D01*
X17834468Y-14316460D02*
X17853516Y-14325984D01*
X17853516Y-14325984D02*
X17872563Y-14325984D01*
X18015420Y-14316460D02*
X17996373Y-14325984D01*
X17996373Y-14325984D02*
X17958278Y-14325984D01*
X17958278Y-14325984D02*
X17939230Y-14316460D01*
X17939230Y-14316460D02*
X17929706Y-14297412D01*
X17929706Y-14297412D02*
X17929706Y-14221222D01*
X17929706Y-14221222D02*
X17939230Y-14202174D01*
X17939230Y-14202174D02*
X17958278Y-14192650D01*
X17958278Y-14192650D02*
X17996373Y-14192650D01*
X17996373Y-14192650D02*
X18015420Y-14202174D01*
X18015420Y-14202174D02*
X18024944Y-14221222D01*
X18024944Y-14221222D02*
X18024944Y-14240269D01*
X18024944Y-14240269D02*
X17929706Y-14259317D01*
X18196373Y-14325984D02*
X18196373Y-14125984D01*
X18196373Y-14316460D02*
X18177325Y-14325984D01*
X18177325Y-14325984D02*
X18139230Y-14325984D01*
X18139230Y-14325984D02*
X18120182Y-14316460D01*
X18120182Y-14316460D02*
X18110659Y-14306936D01*
X18110659Y-14306936D02*
X18101135Y-14287888D01*
X18101135Y-14287888D02*
X18101135Y-14230746D01*
X18101135Y-14230746D02*
X18110659Y-14211698D01*
X18110659Y-14211698D02*
X18120182Y-14202174D01*
X18120182Y-14202174D02*
X18139230Y-14192650D01*
X18139230Y-14192650D02*
X18177325Y-14192650D01*
X18177325Y-14192650D02*
X18196373Y-14202174D01*
X18272563Y-14402174D02*
X18282087Y-14392650D01*
X18282087Y-14392650D02*
X18301135Y-14364079D01*
X18301135Y-14364079D02*
X18310659Y-14345031D01*
X18310659Y-14345031D02*
X18320182Y-14316460D01*
X18320182Y-14316460D02*
X18329706Y-14268841D01*
X18329706Y-14268841D02*
X18329706Y-14230746D01*
X18329706Y-14230746D02*
X18320182Y-14183127D01*
X18320182Y-14183127D02*
X18310659Y-14154555D01*
X18310659Y-14154555D02*
X18301135Y-14135508D01*
X18301135Y-14135508D02*
X18282087Y-14106936D01*
X18282087Y-14106936D02*
X18272563Y-14097412D01*
M02*
