%TF.GenerationSoftware,KiCad,Pcbnew,9.0.6*%
%TF.CreationDate,2026-01-27T22:02:47+13:00*%
%TF.ProjectId,Main_PCB_Based_on_8411A,4d61696e-5f50-4434-925f-42617365645f,rev?*%
%TF.SameCoordinates,Original*%
%TF.FileFunction,Drillmap*%
%TF.FilePolarity,Positive*%
%FSLAX45Y45*%
G04 Gerber Fmt 4.5, Leading zero omitted, Abs format (unit mm)*
G04 Created by KiCad (PCBNEW 9.0.6) date 2026-01-27 22:02:47*
%MOMM*%
%LPD*%
G01*
G04 APERTURE LIST*
%ADD10C,0.050000*%
%ADD11C,0.010000*%
%ADD12C,0.200000*%
%ADD13C,0.100000*%
G04 APERTURE END LIST*
D10*
X10530000Y-10400000D02*
G75*
G02*
X10270000Y-10400000I-130000J0D01*
G01*
X10270000Y-10400000D02*
G75*
G02*
X10530000Y-10400000I130000J0D01*
G01*
X18125500Y-10775000D02*
X18375500Y-10775000D01*
X18375500Y-12025000D01*
X18125500Y-12025000D01*
X18125500Y-10775000D01*
X10530000Y-12400000D02*
G75*
G02*
X10270000Y-12400000I-130000J0D01*
G01*
X10270000Y-12400000D02*
G75*
G02*
X10530000Y-12400000I130000J0D01*
G01*
X21730500Y-12400000D02*
G75*
G02*
X21470500Y-12400000I-130000J0D01*
G01*
X21470500Y-12400000D02*
G75*
G02*
X21730500Y-12400000I130000J0D01*
G01*
X9900000Y-10000000D02*
X22100500Y-10000000D01*
X22100500Y-12800000D01*
X9900000Y-12800000D01*
X9900000Y-10000000D01*
X13625000Y-10775000D02*
X13875000Y-10775000D01*
X13875000Y-12025000D01*
X13625000Y-12025000D01*
X13625000Y-10775000D01*
X21730500Y-10400000D02*
G75*
G02*
X21470500Y-10400000I-130000J0D01*
G01*
X21470500Y-10400000D02*
G75*
G02*
X21730500Y-10400000I130000J0D01*
G01*
D11*
X14335000Y-12085000D02*
X14445000Y-12085000D01*
X14445000Y-12185000D02*
X14335000Y-12185000D01*
X14285000Y-12135000D02*
G75*
G02*
X14335000Y-12085000I50000J0D01*
G01*
X14335000Y-12185000D02*
G75*
G02*
X14285000Y-12135000I0J50000D01*
G01*
X14445000Y-12085000D02*
G75*
G02*
X14495000Y-12135000I0J-50000D01*
G01*
X14495000Y-12135000D02*
G75*
G02*
X14445000Y-12185000I-50000J0D01*
G01*
D10*
X15550250Y-12155000D02*
X15550870Y-12178550D01*
X15550870Y-12131450D02*
X15550250Y-12155000D01*
X15550870Y-12178550D02*
X15552720Y-12202040D01*
X15552720Y-12107960D02*
X15550870Y-12131450D01*
X15552720Y-12202040D02*
X15555790Y-12225400D01*
X15555790Y-12084600D02*
X15552720Y-12107960D01*
X15555790Y-12225400D02*
X15560080Y-12248560D01*
X15560080Y-12061440D02*
X15555790Y-12084600D01*
X15560080Y-12248560D02*
X15565580Y-12271470D01*
X15565580Y-12038530D02*
X15560080Y-12061440D01*
X15565580Y-12271470D02*
X15572270Y-12294060D01*
X15572270Y-12015940D02*
X15565580Y-12038530D01*
X15572270Y-12294060D02*
X15580140Y-12316270D01*
X15580140Y-11993730D02*
X15572270Y-12015940D01*
X15580140Y-12316270D02*
X15589150Y-12338030D01*
X15589150Y-11971970D02*
X15580140Y-11993730D01*
X15589150Y-12338030D02*
X15599300Y-12359300D01*
X15599300Y-11950700D02*
X15589150Y-11971970D01*
X15599300Y-12359300D02*
X15610540Y-12380000D01*
X15610540Y-11930000D02*
X15599300Y-11950700D01*
X15610540Y-12380000D02*
X15622850Y-12400090D01*
X15622850Y-11909910D02*
X15610540Y-11930000D01*
X15622850Y-12400090D02*
X15636190Y-12419500D01*
X15636190Y-11890500D02*
X15622850Y-11909910D01*
X15636190Y-12419500D02*
X15650530Y-12438190D01*
X15650530Y-11871810D02*
X15636190Y-11890500D01*
X15650530Y-12438190D02*
X15665830Y-12456110D01*
X15665830Y-11853890D02*
X15650530Y-11871810D01*
X15665830Y-12456110D02*
X15682050Y-12473200D01*
X15682050Y-11836800D02*
X15665830Y-11853890D01*
X15682050Y-12473200D02*
X15823470Y-12331780D01*
X15699140Y-11820580D02*
X15682050Y-11836800D01*
X15717060Y-11805280D02*
X15699140Y-11820580D01*
X15735750Y-11790940D02*
X15717060Y-11805280D01*
X15750250Y-12155000D02*
X15750590Y-12141920D01*
X15750590Y-12141920D02*
X15751620Y-12128870D01*
X15750590Y-12168080D02*
X15750250Y-12155000D01*
X15751620Y-12128870D02*
X15753330Y-12115890D01*
X15751620Y-12181130D02*
X15750590Y-12168080D01*
X15753330Y-12115890D02*
X15755710Y-12103020D01*
X15753330Y-12194110D02*
X15751620Y-12181130D01*
X15755160Y-11777600D02*
X15735750Y-11790940D01*
X15755710Y-12103020D02*
X15758770Y-12090300D01*
X15755710Y-12206980D02*
X15753330Y-12194110D01*
X15758770Y-12090300D02*
X15762490Y-12077750D01*
X15758770Y-12219700D02*
X15755710Y-12206980D01*
X15762490Y-12077750D02*
X15766850Y-12065410D01*
X15762490Y-12232250D02*
X15758770Y-12219700D01*
X15766850Y-12065410D02*
X15771860Y-12053320D01*
X15766850Y-12244590D02*
X15762490Y-12232250D01*
X15771860Y-12053320D02*
X15777500Y-12041500D01*
X15771860Y-12256680D02*
X15766850Y-12244590D01*
X15775250Y-11765290D02*
X15755160Y-11777600D01*
X15777500Y-12041500D02*
X15783740Y-12030000D01*
X15777500Y-12268500D02*
X15771860Y-12256680D01*
X15783740Y-12030000D02*
X15790580Y-12018840D01*
X15783740Y-12280000D02*
X15777500Y-12268500D01*
X15790580Y-12018840D02*
X15798000Y-12008050D01*
X15790580Y-12291160D02*
X15783740Y-12280000D01*
X15795950Y-11754050D02*
X15775250Y-11765290D01*
X15798000Y-12008050D02*
X15805960Y-11997670D01*
X15798000Y-12301950D02*
X15790580Y-12291160D01*
X15805960Y-11997670D02*
X15814460Y-11987720D01*
X15805960Y-12312330D02*
X15798000Y-12301950D01*
X15814460Y-11987720D02*
X15823470Y-11978220D01*
X15814460Y-12322280D02*
X15805960Y-12312330D01*
X15817220Y-11743900D02*
X15795950Y-11754050D01*
X15823470Y-11978220D02*
X15832970Y-11969210D01*
X15823470Y-12331780D02*
X15814460Y-12322280D01*
X15832970Y-11969210D02*
X15842920Y-11960710D01*
X15838980Y-11734890D02*
X15817220Y-11743900D01*
X15842920Y-11960710D02*
X15853300Y-11952750D01*
X15853300Y-11952750D02*
X15864090Y-11945330D01*
X15861190Y-11727020D02*
X15838980Y-11734890D01*
X15864090Y-11945330D02*
X15875250Y-11938490D01*
X15875250Y-11938490D02*
X15886750Y-11932250D01*
X15883780Y-11720330D02*
X15861190Y-11727020D01*
X15886750Y-11932250D02*
X15898570Y-11926610D01*
X15898570Y-11926610D02*
X15910660Y-11921600D01*
X15906690Y-11714830D02*
X15883780Y-11720330D01*
X15910660Y-11921600D02*
X15923000Y-11917240D01*
X15923000Y-11917240D02*
X15935550Y-11913520D01*
X15929850Y-11710540D02*
X15906690Y-11714830D01*
X15935550Y-11913520D02*
X15948270Y-11910460D01*
X15948270Y-11910460D02*
X15961140Y-11908080D01*
X15953210Y-11707470D02*
X15929850Y-11710540D01*
X15961140Y-11908080D02*
X15974120Y-11906370D01*
X15974120Y-11906370D02*
X15987170Y-11905340D01*
X15976700Y-11705620D02*
X15953210Y-11707470D01*
X15987170Y-11905340D02*
X16000250Y-11905000D01*
X16000250Y-11705000D02*
X15976700Y-11705620D01*
X16000250Y-11905000D02*
X16013330Y-11905340D01*
X16013330Y-11905340D02*
X16026380Y-11906370D01*
X16023800Y-11705620D02*
X16000250Y-11705000D01*
X16026380Y-11906370D02*
X16039360Y-11908080D01*
X16039360Y-11908080D02*
X16052230Y-11910460D01*
X16047290Y-11707470D02*
X16023800Y-11705620D01*
X16052230Y-11910460D02*
X16064950Y-11913520D01*
X16064950Y-11913520D02*
X16077500Y-11917240D01*
X16070650Y-11710540D02*
X16047290Y-11707470D01*
X16077500Y-11917240D02*
X16089840Y-11921600D01*
X16089840Y-11921600D02*
X16101930Y-11926610D01*
X16093810Y-11714830D02*
X16070650Y-11710540D01*
X16101930Y-11926610D02*
X16113750Y-11932250D01*
X16113750Y-11932250D02*
X16125250Y-11938490D01*
X16116720Y-11720330D02*
X16093810Y-11714830D01*
X16125250Y-11938490D02*
X16136410Y-11945330D01*
X16136410Y-11945330D02*
X16147200Y-11952750D01*
X16139310Y-11727020D02*
X16116720Y-11720330D01*
X16147200Y-11952750D02*
X16157580Y-11960710D01*
X16157580Y-11960710D02*
X16167530Y-11969210D01*
X16161520Y-11734890D02*
X16139310Y-11727020D01*
X16167530Y-11969210D02*
X16177030Y-11978220D01*
X16177030Y-11978220D02*
X16186040Y-11987720D01*
X16177030Y-12331780D02*
X16318450Y-12473200D01*
X16183280Y-11743900D02*
X16161520Y-11734890D01*
X16186040Y-11987720D02*
X16194540Y-11997670D01*
X16186040Y-12322280D02*
X16177030Y-12331780D01*
X16194540Y-11997670D02*
X16202500Y-12008050D01*
X16194540Y-12312330D02*
X16186040Y-12322280D01*
X16202500Y-12008050D02*
X16209920Y-12018840D01*
X16202500Y-12301950D02*
X16194540Y-12312330D01*
X16204550Y-11754050D02*
X16183280Y-11743900D01*
X16209920Y-12018840D02*
X16216760Y-12030000D01*
X16209920Y-12291160D02*
X16202500Y-12301950D01*
X16216760Y-12030000D02*
X16223000Y-12041500D01*
X16216760Y-12280000D02*
X16209920Y-12291160D01*
X16223000Y-12041500D02*
X16228640Y-12053320D01*
X16223000Y-12268500D02*
X16216760Y-12280000D01*
X16225250Y-11765290D02*
X16204550Y-11754050D01*
X16228640Y-12053320D02*
X16233650Y-12065410D01*
X16228640Y-12256680D02*
X16223000Y-12268500D01*
X16233650Y-12065410D02*
X16238010Y-12077750D01*
X16233650Y-12244590D02*
X16228640Y-12256680D01*
X16238010Y-12077750D02*
X16241730Y-12090300D01*
X16238010Y-12232250D02*
X16233650Y-12244590D01*
X16241730Y-12090300D02*
X16244790Y-12103020D01*
X16241730Y-12219700D02*
X16238010Y-12232250D01*
X16244790Y-12103020D02*
X16247170Y-12115890D01*
X16244790Y-12206980D02*
X16241730Y-12219700D01*
X16245340Y-11777600D02*
X16225250Y-11765290D01*
X16247170Y-12115890D02*
X16248880Y-12128870D01*
X16247170Y-12194110D02*
X16244790Y-12206980D01*
X16248880Y-12128870D02*
X16249910Y-12141920D01*
X16248880Y-12181130D02*
X16247170Y-12194110D01*
X16249910Y-12141920D02*
X16250250Y-12155000D01*
X16249910Y-12168080D02*
X16248880Y-12181130D01*
X16250250Y-12155000D02*
X16249910Y-12168080D01*
X16264750Y-11790940D02*
X16245340Y-11777600D01*
X16283440Y-11805280D02*
X16264750Y-11790940D01*
X16301360Y-11820580D02*
X16283440Y-11805280D01*
X16318450Y-11836800D02*
X16301360Y-11820580D01*
X16318450Y-12473200D02*
X16334670Y-12456110D01*
X16334670Y-11853890D02*
X16318450Y-11836800D01*
X16334670Y-12456110D02*
X16349970Y-12438190D01*
X16349970Y-11871810D02*
X16334670Y-11853890D01*
X16349970Y-12438190D02*
X16364310Y-12419500D01*
X16364310Y-11890500D02*
X16349970Y-11871810D01*
X16364310Y-12419500D02*
X16377650Y-12400090D01*
X16377650Y-11909910D02*
X16364310Y-11890500D01*
X16377650Y-12400090D02*
X16389960Y-12380000D01*
X16389960Y-11930000D02*
X16377650Y-11909910D01*
X16389960Y-12380000D02*
X16401200Y-12359300D01*
X16401200Y-11950700D02*
X16389960Y-11930000D01*
X16401200Y-12359300D02*
X16411350Y-12338030D01*
X16411350Y-11971970D02*
X16401200Y-11950700D01*
X16411350Y-12338030D02*
X16420360Y-12316270D01*
X16420360Y-11993730D02*
X16411350Y-11971970D01*
X16420360Y-12316270D02*
X16428230Y-12294060D01*
X16428230Y-12015940D02*
X16420360Y-11993730D01*
X16428230Y-12294060D02*
X16434920Y-12271470D01*
X16434920Y-12038530D02*
X16428230Y-12015940D01*
X16434920Y-12271470D02*
X16440420Y-12248560D01*
X16440420Y-12061440D02*
X16434920Y-12038530D01*
X16440420Y-12248560D02*
X16444710Y-12225400D01*
X16444710Y-12084600D02*
X16440420Y-12061440D01*
X16444710Y-12225400D02*
X16447780Y-12202040D01*
X16447780Y-12107960D02*
X16444710Y-12084600D01*
X16447780Y-12202040D02*
X16449630Y-12178550D01*
X16449630Y-12131450D02*
X16447780Y-12107960D01*
X16449630Y-12178550D02*
X16450250Y-12155000D01*
X16450250Y-12155000D02*
X16449630Y-12131450D01*
D12*
D13*
X10871930Y-11758560D02*
X10897330Y-11783960D01*
X10897330Y-11758560D02*
X10871930Y-11783960D01*
X10871930Y-11837300D02*
X10897330Y-11862700D01*
X10897330Y-11837300D02*
X10871930Y-11862700D01*
X10871930Y-11916040D02*
X10897330Y-11941440D01*
X10897330Y-11916040D02*
X10871930Y-11941440D01*
X10950670Y-11758560D02*
X10976070Y-11783960D01*
X10976070Y-11758560D02*
X10950670Y-11783960D01*
X10950670Y-11837300D02*
X10976070Y-11862700D01*
X10976070Y-11837300D02*
X10950670Y-11862700D01*
X10950670Y-11916040D02*
X10976070Y-11941440D01*
X10976070Y-11916040D02*
X10950670Y-11941440D01*
X15937550Y-10737300D02*
X15962950Y-10762700D01*
X15962950Y-10737300D02*
X15937550Y-10762700D01*
X15937550Y-10787300D02*
X15962950Y-10812700D01*
X15962950Y-10787300D02*
X15937550Y-10812700D01*
X15937550Y-10837300D02*
X15962950Y-10862700D01*
X15962950Y-10837300D02*
X15937550Y-10862700D01*
X15987550Y-10737300D02*
X16012950Y-10762700D01*
X16012950Y-10737300D02*
X15987550Y-10762700D01*
X15987550Y-10787300D02*
X16012950Y-10812700D01*
X16012950Y-10787300D02*
X15987550Y-10812700D01*
X15987550Y-10837300D02*
X16012950Y-10862700D01*
X16012950Y-10837300D02*
X15987550Y-10862700D01*
X16037550Y-10737300D02*
X16062950Y-10762700D01*
X16062950Y-10737300D02*
X16037550Y-10762700D01*
X16037550Y-10787300D02*
X16062950Y-10812700D01*
X16062950Y-10787300D02*
X16037550Y-10812700D01*
X16037550Y-10837300D02*
X16062950Y-10862700D01*
X16062950Y-10837300D02*
X16037550Y-10862700D01*
X10215000Y-11400000D02*
G75*
G02*
X10185000Y-11400000I-15000J0D01*
G01*
X10185000Y-11400000D02*
G75*
G02*
X10215000Y-11400000I15000J0D01*
G01*
X10220000Y-12190000D02*
G75*
G02*
X10190000Y-12190000I-15000J0D01*
G01*
X10190000Y-12190000D02*
G75*
G02*
X10220000Y-12190000I15000J0D01*
G01*
X10370000Y-12190000D02*
G75*
G02*
X10340000Y-12190000I-15000J0D01*
G01*
X10340000Y-12190000D02*
G75*
G02*
X10370000Y-12190000I15000J0D01*
G01*
X10515000Y-12190000D02*
G75*
G02*
X10485000Y-12190000I-15000J0D01*
G01*
X10485000Y-12190000D02*
G75*
G02*
X10515000Y-12190000I15000J0D01*
G01*
X10940000Y-12300000D02*
G75*
G02*
X10910000Y-12300000I-15000J0D01*
G01*
X10910000Y-12300000D02*
G75*
G02*
X10940000Y-12300000I15000J0D01*
G01*
X11340000Y-12300000D02*
G75*
G02*
X11310000Y-12300000I-15000J0D01*
G01*
X11310000Y-12300000D02*
G75*
G02*
X11340000Y-12300000I15000J0D01*
G01*
X11370000Y-11555000D02*
G75*
G02*
X11340000Y-11555000I-15000J0D01*
G01*
X11340000Y-11555000D02*
G75*
G02*
X11370000Y-11555000I15000J0D01*
G01*
X11565000Y-11555000D02*
G75*
G02*
X11535000Y-11555000I-15000J0D01*
G01*
X11535000Y-11555000D02*
G75*
G02*
X11565000Y-11555000I15000J0D01*
G01*
X11575000Y-10970000D02*
G75*
G02*
X11545000Y-10970000I-15000J0D01*
G01*
X11545000Y-10970000D02*
G75*
G02*
X11575000Y-10970000I15000J0D01*
G01*
X11575000Y-11060000D02*
G75*
G02*
X11545000Y-11060000I-15000J0D01*
G01*
X11545000Y-11060000D02*
G75*
G02*
X11575000Y-11060000I15000J0D01*
G01*
X11575000Y-11165000D02*
G75*
G02*
X11545000Y-11165000I-15000J0D01*
G01*
X11545000Y-11165000D02*
G75*
G02*
X11575000Y-11165000I15000J0D01*
G01*
X11670000Y-10875000D02*
G75*
G02*
X11640000Y-10875000I-15000J0D01*
G01*
X11640000Y-10875000D02*
G75*
G02*
X11670000Y-10875000I15000J0D01*
G01*
X11670000Y-11360000D02*
G75*
G02*
X11640000Y-11360000I-15000J0D01*
G01*
X11640000Y-11360000D02*
G75*
G02*
X11670000Y-11360000I15000J0D01*
G01*
X11680000Y-11065000D02*
G75*
G02*
X11650000Y-11065000I-15000J0D01*
G01*
X11650000Y-11065000D02*
G75*
G02*
X11680000Y-11065000I15000J0D01*
G01*
X11765000Y-12150000D02*
G75*
G02*
X11735000Y-12150000I-15000J0D01*
G01*
X11735000Y-12150000D02*
G75*
G02*
X11765000Y-12150000I15000J0D01*
G01*
X11800000Y-10650000D02*
G75*
G02*
X11770000Y-10650000I-15000J0D01*
G01*
X11770000Y-10650000D02*
G75*
G02*
X11800000Y-10650000I15000J0D01*
G01*
X11885000Y-11955000D02*
G75*
G02*
X11855000Y-11955000I-15000J0D01*
G01*
X11855000Y-11955000D02*
G75*
G02*
X11885000Y-11955000I15000J0D01*
G01*
X11890000Y-10530000D02*
G75*
G02*
X11860000Y-10530000I-15000J0D01*
G01*
X11860000Y-10530000D02*
G75*
G02*
X11890000Y-10530000I15000J0D01*
G01*
X11925000Y-12350000D02*
G75*
G02*
X11895000Y-12350000I-15000J0D01*
G01*
X11895000Y-12350000D02*
G75*
G02*
X11925000Y-12350000I15000J0D01*
G01*
X11965000Y-11570000D02*
G75*
G02*
X11935000Y-11570000I-15000J0D01*
G01*
X11935000Y-11570000D02*
G75*
G02*
X11965000Y-11570000I15000J0D01*
G01*
X12035000Y-10420000D02*
G75*
G02*
X12005000Y-10420000I-15000J0D01*
G01*
X12005000Y-10420000D02*
G75*
G02*
X12035000Y-10420000I15000J0D01*
G01*
X12080000Y-12120000D02*
G75*
G02*
X12050000Y-12120000I-15000J0D01*
G01*
X12050000Y-12120000D02*
G75*
G02*
X12080000Y-12120000I15000J0D01*
G01*
X12166750Y-10925250D02*
G75*
G02*
X12136750Y-10925250I-15000J0D01*
G01*
X12136750Y-10925250D02*
G75*
G02*
X12166750Y-10925250I15000J0D01*
G01*
X12170000Y-11040000D02*
G75*
G02*
X12140000Y-11040000I-15000J0D01*
G01*
X12140000Y-11040000D02*
G75*
G02*
X12170000Y-11040000I15000J0D01*
G01*
X12215000Y-10334900D02*
G75*
G02*
X12185000Y-10334900I-15000J0D01*
G01*
X12185000Y-10334900D02*
G75*
G02*
X12215000Y-10334900I15000J0D01*
G01*
X12257100Y-10558072D02*
G75*
G02*
X12227100Y-10558072I-15000J0D01*
G01*
X12227100Y-10558072D02*
G75*
G02*
X12257100Y-10558072I15000J0D01*
G01*
X12277300Y-10491050D02*
G75*
G02*
X12247300Y-10491050I-15000J0D01*
G01*
X12247300Y-10491050D02*
G75*
G02*
X12277300Y-10491050I15000J0D01*
G01*
X12281500Y-10922000D02*
G75*
G02*
X12251500Y-10922000I-15000J0D01*
G01*
X12251500Y-10922000D02*
G75*
G02*
X12281500Y-10922000I15000J0D01*
G01*
X12281500Y-11040000D02*
G75*
G02*
X12251500Y-11040000I-15000J0D01*
G01*
X12251500Y-11040000D02*
G75*
G02*
X12281500Y-11040000I15000J0D01*
G01*
X12315000Y-11735000D02*
G75*
G02*
X12285000Y-11735000I-15000J0D01*
G01*
X12285000Y-11735000D02*
G75*
G02*
X12315000Y-11735000I15000J0D01*
G01*
X12351500Y-11110000D02*
G75*
G02*
X12321500Y-11110000I-15000J0D01*
G01*
X12321500Y-11110000D02*
G75*
G02*
X12351500Y-11110000I15000J0D01*
G01*
X12351500Y-11215000D02*
G75*
G02*
X12321500Y-11215000I-15000J0D01*
G01*
X12321500Y-11215000D02*
G75*
G02*
X12351500Y-11215000I15000J0D01*
G01*
X12361747Y-10494323D02*
G75*
G02*
X12331747Y-10494323I-15000J0D01*
G01*
X12331747Y-10494323D02*
G75*
G02*
X12361747Y-10494323I15000J0D01*
G01*
X12415000Y-10539755D02*
G75*
G02*
X12385000Y-10539755I-15000J0D01*
G01*
X12385000Y-10539755D02*
G75*
G02*
X12415000Y-10539755I15000J0D01*
G01*
X12433000Y-10255100D02*
G75*
G02*
X12403000Y-10255100I-15000J0D01*
G01*
X12403000Y-10255100D02*
G75*
G02*
X12433000Y-10255100I15000J0D01*
G01*
X12520000Y-10180000D02*
G75*
G02*
X12490000Y-10180000I-15000J0D01*
G01*
X12490000Y-10180000D02*
G75*
G02*
X12520000Y-10180000I15000J0D01*
G01*
X12590172Y-10530638D02*
G75*
G02*
X12560172Y-10530638I-15000J0D01*
G01*
X12560172Y-10530638D02*
G75*
G02*
X12590172Y-10530638I15000J0D01*
G01*
X12601500Y-11040000D02*
G75*
G02*
X12571500Y-11040000I-15000J0D01*
G01*
X12571500Y-11040000D02*
G75*
G02*
X12601500Y-11040000I15000J0D01*
G01*
X12740000Y-11650000D02*
G75*
G02*
X12710000Y-11650000I-15000J0D01*
G01*
X12710000Y-11650000D02*
G75*
G02*
X12740000Y-11650000I15000J0D01*
G01*
X12744000Y-10431000D02*
G75*
G02*
X12714000Y-10431000I-15000J0D01*
G01*
X12714000Y-10431000D02*
G75*
G02*
X12744000Y-10431000I15000J0D01*
G01*
X12785000Y-12540000D02*
G75*
G02*
X12755000Y-12540000I-15000J0D01*
G01*
X12755000Y-12540000D02*
G75*
G02*
X12785000Y-12540000I15000J0D01*
G01*
X12804745Y-10329255D02*
G75*
G02*
X12774745Y-10329255I-15000J0D01*
G01*
X12774745Y-10329255D02*
G75*
G02*
X12804745Y-10329255I15000J0D01*
G01*
X12835000Y-12150000D02*
G75*
G02*
X12805000Y-12150000I-15000J0D01*
G01*
X12805000Y-12150000D02*
G75*
G02*
X12835000Y-12150000I15000J0D01*
G01*
X12935000Y-11175000D02*
G75*
G02*
X12905000Y-11175000I-15000J0D01*
G01*
X12905000Y-11175000D02*
G75*
G02*
X12935000Y-11175000I15000J0D01*
G01*
X12980000Y-10530000D02*
G75*
G02*
X12950000Y-10530000I-15000J0D01*
G01*
X12950000Y-10530000D02*
G75*
G02*
X12980000Y-10530000I15000J0D01*
G01*
X13035000Y-11360000D02*
G75*
G02*
X13005000Y-11360000I-15000J0D01*
G01*
X13005000Y-11360000D02*
G75*
G02*
X13035000Y-11360000I15000J0D01*
G01*
X13078038Y-10360962D02*
G75*
G02*
X13048038Y-10360962I-15000J0D01*
G01*
X13048038Y-10360962D02*
G75*
G02*
X13078038Y-10360962I15000J0D01*
G01*
X13079866Y-10837316D02*
G75*
G02*
X13049866Y-10837316I-15000J0D01*
G01*
X13049866Y-10837316D02*
G75*
G02*
X13079866Y-10837316I15000J0D01*
G01*
X13145000Y-10773000D02*
G75*
G02*
X13115000Y-10773000I-15000J0D01*
G01*
X13115000Y-10773000D02*
G75*
G02*
X13145000Y-10773000I15000J0D01*
G01*
X13148630Y-10499000D02*
G75*
G02*
X13118630Y-10499000I-15000J0D01*
G01*
X13118630Y-10499000D02*
G75*
G02*
X13148630Y-10499000I15000J0D01*
G01*
X13261000Y-10742000D02*
G75*
G02*
X13231000Y-10742000I-15000J0D01*
G01*
X13231000Y-10742000D02*
G75*
G02*
X13261000Y-10742000I15000J0D01*
G01*
X13275000Y-10285000D02*
G75*
G02*
X13245000Y-10285000I-15000J0D01*
G01*
X13245000Y-10285000D02*
G75*
G02*
X13275000Y-10285000I15000J0D01*
G01*
X13363000Y-10608000D02*
G75*
G02*
X13333000Y-10608000I-15000J0D01*
G01*
X13333000Y-10608000D02*
G75*
G02*
X13363000Y-10608000I15000J0D01*
G01*
X13898000Y-10636000D02*
G75*
G02*
X13868000Y-10636000I-15000J0D01*
G01*
X13868000Y-10636000D02*
G75*
G02*
X13898000Y-10636000I15000J0D01*
G01*
X13964000Y-12587000D02*
G75*
G02*
X13934000Y-12587000I-15000J0D01*
G01*
X13934000Y-12587000D02*
G75*
G02*
X13964000Y-12587000I15000J0D01*
G01*
X14002000Y-11450000D02*
G75*
G02*
X13972000Y-11450000I-15000J0D01*
G01*
X13972000Y-11450000D02*
G75*
G02*
X14002000Y-11450000I15000J0D01*
G01*
X14016000Y-11092000D02*
G75*
G02*
X13986000Y-11092000I-15000J0D01*
G01*
X13986000Y-11092000D02*
G75*
G02*
X14016000Y-11092000I15000J0D01*
G01*
X14206000Y-10659000D02*
G75*
G02*
X14176000Y-10659000I-15000J0D01*
G01*
X14176000Y-10659000D02*
G75*
G02*
X14206000Y-10659000I15000J0D01*
G01*
X14232000Y-11685000D02*
G75*
G02*
X14202000Y-11685000I-15000J0D01*
G01*
X14202000Y-11685000D02*
G75*
G02*
X14232000Y-11685000I15000J0D01*
G01*
X14360000Y-10085000D02*
G75*
G02*
X14330000Y-10085000I-15000J0D01*
G01*
X14330000Y-10085000D02*
G75*
G02*
X14360000Y-10085000I15000J0D01*
G01*
X14375000Y-11500000D02*
G75*
G02*
X14345000Y-11500000I-15000J0D01*
G01*
X14345000Y-11500000D02*
G75*
G02*
X14375000Y-11500000I15000J0D01*
G01*
X14430000Y-10710000D02*
G75*
G02*
X14400000Y-10710000I-15000J0D01*
G01*
X14400000Y-10710000D02*
G75*
G02*
X14430000Y-10710000I15000J0D01*
G01*
X14476000Y-11585000D02*
G75*
G02*
X14446000Y-11585000I-15000J0D01*
G01*
X14446000Y-11585000D02*
G75*
G02*
X14476000Y-11585000I15000J0D01*
G01*
X14560000Y-11155000D02*
G75*
G02*
X14530000Y-11155000I-15000J0D01*
G01*
X14530000Y-11155000D02*
G75*
G02*
X14560000Y-11155000I15000J0D01*
G01*
X14605000Y-11355000D02*
G75*
G02*
X14575000Y-11355000I-15000J0D01*
G01*
X14575000Y-11355000D02*
G75*
G02*
X14605000Y-11355000I15000J0D01*
G01*
X14605000Y-12555000D02*
G75*
G02*
X14575000Y-12555000I-15000J0D01*
G01*
X14575000Y-12555000D02*
G75*
G02*
X14605000Y-12555000I15000J0D01*
G01*
X14659620Y-10376544D02*
G75*
G02*
X14629620Y-10376544I-15000J0D01*
G01*
X14629620Y-10376544D02*
G75*
G02*
X14659620Y-10376544I15000J0D01*
G01*
X14820000Y-10325000D02*
G75*
G02*
X14790000Y-10325000I-15000J0D01*
G01*
X14790000Y-10325000D02*
G75*
G02*
X14820000Y-10325000I15000J0D01*
G01*
X14830000Y-11430000D02*
G75*
G02*
X14800000Y-11430000I-15000J0D01*
G01*
X14800000Y-11430000D02*
G75*
G02*
X14830000Y-11430000I15000J0D01*
G01*
X14939000Y-11566000D02*
G75*
G02*
X14909000Y-11566000I-15000J0D01*
G01*
X14909000Y-11566000D02*
G75*
G02*
X14939000Y-11566000I15000J0D01*
G01*
X15030000Y-11490000D02*
G75*
G02*
X15000000Y-11490000I-15000J0D01*
G01*
X15000000Y-11490000D02*
G75*
G02*
X15030000Y-11490000I15000J0D01*
G01*
X15032000Y-10313000D02*
G75*
G02*
X15002000Y-10313000I-15000J0D01*
G01*
X15002000Y-10313000D02*
G75*
G02*
X15032000Y-10313000I15000J0D01*
G01*
X15035000Y-12550000D02*
G75*
G02*
X15005000Y-12550000I-15000J0D01*
G01*
X15005000Y-12550000D02*
G75*
G02*
X15035000Y-12550000I15000J0D01*
G01*
X15100000Y-10595000D02*
G75*
G02*
X15070000Y-10595000I-15000J0D01*
G01*
X15070000Y-10595000D02*
G75*
G02*
X15100000Y-10595000I15000J0D01*
G01*
X15137000Y-11448000D02*
G75*
G02*
X15107000Y-11448000I-15000J0D01*
G01*
X15107000Y-11448000D02*
G75*
G02*
X15137000Y-11448000I15000J0D01*
G01*
X15165000Y-10455000D02*
G75*
G02*
X15135000Y-10455000I-15000J0D01*
G01*
X15135000Y-10455000D02*
G75*
G02*
X15165000Y-10455000I15000J0D01*
G01*
X15171000Y-11153000D02*
G75*
G02*
X15141000Y-11153000I-15000J0D01*
G01*
X15141000Y-11153000D02*
G75*
G02*
X15171000Y-11153000I15000J0D01*
G01*
X15177000Y-10965000D02*
G75*
G02*
X15147000Y-10965000I-15000J0D01*
G01*
X15147000Y-10965000D02*
G75*
G02*
X15177000Y-10965000I15000J0D01*
G01*
X15395000Y-11640000D02*
G75*
G02*
X15365000Y-11640000I-15000J0D01*
G01*
X15365000Y-11640000D02*
G75*
G02*
X15395000Y-11640000I15000J0D01*
G01*
X15600000Y-11290000D02*
G75*
G02*
X15570000Y-11290000I-15000J0D01*
G01*
X15570000Y-11290000D02*
G75*
G02*
X15600000Y-11290000I15000J0D01*
G01*
X15602500Y-10627500D02*
G75*
G02*
X15572500Y-10627500I-15000J0D01*
G01*
X15572500Y-10627500D02*
G75*
G02*
X15602500Y-10627500I15000J0D01*
G01*
X15722000Y-10966000D02*
G75*
G02*
X15692000Y-10966000I-15000J0D01*
G01*
X15692000Y-10966000D02*
G75*
G02*
X15722000Y-10966000I15000J0D01*
G01*
X15788000Y-10653000D02*
G75*
G02*
X15758000Y-10653000I-15000J0D01*
G01*
X15758000Y-10653000D02*
G75*
G02*
X15788000Y-10653000I15000J0D01*
G01*
X15805000Y-11640000D02*
G75*
G02*
X15775000Y-11640000I-15000J0D01*
G01*
X15775000Y-11640000D02*
G75*
G02*
X15805000Y-11640000I15000J0D01*
G01*
X15885000Y-12535000D02*
G75*
G02*
X15855000Y-12535000I-15000J0D01*
G01*
X15855000Y-12535000D02*
G75*
G02*
X15885000Y-12535000I15000J0D01*
G01*
X15955000Y-12290000D02*
G75*
G02*
X15925000Y-12290000I-15000J0D01*
G01*
X15925000Y-12290000D02*
G75*
G02*
X15955000Y-12290000I15000J0D01*
G01*
X16055250Y-12340000D02*
G75*
G02*
X16025250Y-12340000I-15000J0D01*
G01*
X16025250Y-12340000D02*
G75*
G02*
X16055250Y-12340000I15000J0D01*
G01*
X16143556Y-12396444D02*
G75*
G02*
X16113556Y-12396444I-15000J0D01*
G01*
X16113556Y-12396444D02*
G75*
G02*
X16143556Y-12396444I15000J0D01*
G01*
X16250000Y-10980000D02*
G75*
G02*
X16220000Y-10980000I-15000J0D01*
G01*
X16220000Y-10980000D02*
G75*
G02*
X16250000Y-10980000I15000J0D01*
G01*
X16285000Y-10725000D02*
G75*
G02*
X16255000Y-10725000I-15000J0D01*
G01*
X16255000Y-10725000D02*
G75*
G02*
X16285000Y-10725000I15000J0D01*
G01*
X16300962Y-10829038D02*
G75*
G02*
X16270962Y-10829038I-15000J0D01*
G01*
X16270962Y-10829038D02*
G75*
G02*
X16300962Y-10829038I15000J0D01*
G01*
X16360000Y-10775000D02*
G75*
G02*
X16330000Y-10775000I-15000J0D01*
G01*
X16330000Y-10775000D02*
G75*
G02*
X16360000Y-10775000I15000J0D01*
G01*
X16808000Y-12368000D02*
G75*
G02*
X16778000Y-12368000I-15000J0D01*
G01*
X16778000Y-12368000D02*
G75*
G02*
X16808000Y-12368000I15000J0D01*
G01*
X17380000Y-11110000D02*
G75*
G02*
X17350000Y-11110000I-15000J0D01*
G01*
X17350000Y-11110000D02*
G75*
G02*
X17380000Y-11110000I15000J0D01*
G01*
X17390000Y-10380000D02*
G75*
G02*
X17360000Y-10380000I-15000J0D01*
G01*
X17360000Y-10380000D02*
G75*
G02*
X17390000Y-10380000I15000J0D01*
G01*
X17542000Y-12038000D02*
G75*
G02*
X17512000Y-12038000I-15000J0D01*
G01*
X17512000Y-12038000D02*
G75*
G02*
X17542000Y-12038000I15000J0D01*
G01*
X17910000Y-11695000D02*
G75*
G02*
X17880000Y-11695000I-15000J0D01*
G01*
X17880000Y-11695000D02*
G75*
G02*
X17910000Y-11695000I15000J0D01*
G01*
X17915000Y-11290000D02*
G75*
G02*
X17885000Y-11290000I-15000J0D01*
G01*
X17885000Y-11290000D02*
G75*
G02*
X17915000Y-11290000I15000J0D01*
G01*
X18240000Y-12521000D02*
G75*
G02*
X18210000Y-12521000I-15000J0D01*
G01*
X18210000Y-12521000D02*
G75*
G02*
X18240000Y-12521000I15000J0D01*
G01*
X18555000Y-11505000D02*
G75*
G02*
X18525000Y-11505000I-15000J0D01*
G01*
X18525000Y-11505000D02*
G75*
G02*
X18555000Y-11505000I15000J0D01*
G01*
X18633000Y-12525000D02*
G75*
G02*
X18603000Y-12525000I-15000J0D01*
G01*
X18603000Y-12525000D02*
G75*
G02*
X18633000Y-12525000I15000J0D01*
G01*
X18774000Y-12533000D02*
G75*
G02*
X18744000Y-12533000I-15000J0D01*
G01*
X18744000Y-12533000D02*
G75*
G02*
X18774000Y-12533000I15000J0D01*
G01*
X19265000Y-10255100D02*
G75*
G02*
X19235000Y-10255100I-15000J0D01*
G01*
X19235000Y-10255100D02*
G75*
G02*
X19265000Y-10255100I15000J0D01*
G01*
X19911000Y-10823000D02*
G75*
G02*
X19881000Y-10823000I-15000J0D01*
G01*
X19881000Y-10823000D02*
G75*
G02*
X19911000Y-10823000I15000J0D01*
G01*
X20145000Y-10550000D02*
G75*
G02*
X20115000Y-10550000I-15000J0D01*
G01*
X20115000Y-10550000D02*
G75*
G02*
X20145000Y-10550000I15000J0D01*
G01*
X20162000Y-12289000D02*
G75*
G02*
X20132000Y-12289000I-15000J0D01*
G01*
X20132000Y-12289000D02*
G75*
G02*
X20162000Y-12289000I15000J0D01*
G01*
X20190000Y-11705000D02*
G75*
G02*
X20160000Y-11705000I-15000J0D01*
G01*
X20160000Y-11705000D02*
G75*
G02*
X20190000Y-11705000I15000J0D01*
G01*
X20228000Y-10091000D02*
G75*
G02*
X20198000Y-10091000I-15000J0D01*
G01*
X20198000Y-10091000D02*
G75*
G02*
X20228000Y-10091000I15000J0D01*
G01*
X20274000Y-10491000D02*
G75*
G02*
X20244000Y-10491000I-15000J0D01*
G01*
X20244000Y-10491000D02*
G75*
G02*
X20274000Y-10491000I15000J0D01*
G01*
X20363000Y-12608000D02*
G75*
G02*
X20333000Y-12608000I-15000J0D01*
G01*
X20333000Y-12608000D02*
G75*
G02*
X20363000Y-12608000I15000J0D01*
G01*
X20615000Y-12608000D02*
G75*
G02*
X20585000Y-12608000I-15000J0D01*
G01*
X20585000Y-12608000D02*
G75*
G02*
X20615000Y-12608000I15000J0D01*
G01*
X20632000Y-12006000D02*
G75*
G02*
X20602000Y-12006000I-15000J0D01*
G01*
X20602000Y-12006000D02*
G75*
G02*
X20632000Y-12006000I15000J0D01*
G01*
X20818900Y-12016100D02*
G75*
G02*
X20788900Y-12016100I-15000J0D01*
G01*
X20788900Y-12016100D02*
G75*
G02*
X20818900Y-12016100I15000J0D01*
G01*
X20918000Y-10489000D02*
G75*
G02*
X20888000Y-10489000I-15000J0D01*
G01*
X20888000Y-10489000D02*
G75*
G02*
X20918000Y-10489000I15000J0D01*
G01*
X20918000Y-11274000D02*
G75*
G02*
X20888000Y-11274000I-15000J0D01*
G01*
X20888000Y-11274000D02*
G75*
G02*
X20918000Y-11274000I15000J0D01*
G01*
X20945900Y-12016000D02*
G75*
G02*
X20915900Y-12016000I-15000J0D01*
G01*
X20915900Y-12016000D02*
G75*
G02*
X20945900Y-12016000I15000J0D01*
G01*
X21074000Y-11875000D02*
G75*
G02*
X21044000Y-11875000I-15000J0D01*
G01*
X21044000Y-11875000D02*
G75*
G02*
X21074000Y-11875000I15000J0D01*
G01*
X21355000Y-10390000D02*
G75*
G02*
X21325000Y-10390000I-15000J0D01*
G01*
X21325000Y-10390000D02*
G75*
G02*
X21355000Y-10390000I15000J0D01*
G01*
X21533000Y-10091000D02*
G75*
G02*
X21503000Y-10091000I-15000J0D01*
G01*
X21503000Y-10091000D02*
G75*
G02*
X21533000Y-10091000I15000J0D01*
G01*
X21561000Y-11448000D02*
G75*
G02*
X21531000Y-11448000I-15000J0D01*
G01*
X21531000Y-11448000D02*
G75*
G02*
X21561000Y-11448000I15000J0D01*
G01*
X21665000Y-11695000D02*
G75*
G02*
X21635000Y-11695000I-15000J0D01*
G01*
X21635000Y-11695000D02*
G75*
G02*
X21665000Y-11695000I15000J0D01*
G01*
X21765000Y-10845000D02*
G75*
G02*
X21735000Y-10845000I-15000J0D01*
G01*
X21735000Y-10845000D02*
G75*
G02*
X21765000Y-10845000I15000J0D01*
G01*
X11205499Y-10215000D02*
X11205499Y-10255000D01*
X11185499Y-10235000D02*
X11225499Y-10235000D01*
X11590000Y-10265000D02*
X11590000Y-10305000D01*
X11570000Y-10285000D02*
X11610000Y-10285000D01*
X12115000Y-10095000D02*
X12115000Y-10135000D01*
X12095000Y-10115000D02*
X12135000Y-10115000D01*
X12786000Y-10126000D02*
X12786000Y-10166000D01*
X12766000Y-10146000D02*
X12806000Y-10146000D01*
X12952000Y-12068000D02*
X12952000Y-12108000D01*
X12932000Y-12088000D02*
X12972000Y-12088000D01*
X12990000Y-11790000D02*
X12990000Y-11830000D01*
X12970000Y-11810000D02*
X13010000Y-11810000D01*
X13185000Y-11030000D02*
X13185000Y-11070000D01*
X13165000Y-11050000D02*
X13205000Y-11050000D01*
X13430000Y-11625000D02*
X13430000Y-11665000D01*
X13410000Y-11645000D02*
X13450000Y-11645000D01*
X13430000Y-11745000D02*
X13430000Y-11785000D01*
X13410000Y-11765000D02*
X13450000Y-11765000D01*
X14175000Y-12275000D02*
X14175000Y-12315000D01*
X14155000Y-12295000D02*
X14195000Y-12295000D01*
X14365000Y-10765000D02*
X14365000Y-10805000D01*
X14345000Y-10785000D02*
X14385000Y-10785000D01*
X14435000Y-10880000D02*
X14435000Y-10920000D01*
X14415000Y-10900000D02*
X14455000Y-10900000D01*
X14814000Y-12242000D02*
X14814000Y-12282000D01*
X14794000Y-12262000D02*
X14834000Y-12262000D01*
X15145000Y-10275000D02*
X15145000Y-10315000D01*
X15125000Y-10295000D02*
X15165000Y-10295000D01*
X15192000Y-11990000D02*
X15192000Y-12030000D01*
X15172000Y-12010000D02*
X15212000Y-12010000D01*
X15435000Y-10330000D02*
X15435000Y-10370000D01*
X15415000Y-10350000D02*
X15455000Y-10350000D01*
X16175000Y-10340000D02*
X16175000Y-10380000D01*
X16155000Y-10360000D02*
X16195000Y-10360000D01*
X17748000Y-11882000D02*
X17748000Y-11922000D01*
X17728000Y-11902000D02*
X17768000Y-11902000D01*
X17760000Y-12170000D02*
X17760000Y-12210000D01*
X17740000Y-12190000D02*
X17780000Y-12190000D01*
X18600000Y-10880000D02*
X18600000Y-10920000D01*
X18580000Y-10900000D02*
X18620000Y-10900000D01*
X18829000Y-10098000D02*
X18829000Y-10138000D01*
X18809000Y-10118000D02*
X18849000Y-10118000D01*
X21753000Y-10666000D02*
X21753000Y-10706000D01*
X21733000Y-10686000D02*
X21773000Y-10686000D01*
X11233783Y-10028285D02*
X11233783Y-9971716D01*
X11177215Y-9971716D01*
X11177215Y-10028285D01*
X11233783Y-10028285D01*
X11360783Y-10028285D02*
X11360783Y-9971716D01*
X11304214Y-9971716D01*
X11304214Y-10028285D01*
X11360783Y-10028285D01*
X11487783Y-10028285D02*
X11487783Y-9971716D01*
X11431214Y-9971716D01*
X11431214Y-10028285D01*
X11487783Y-10028285D01*
X11741783Y-10028285D02*
X11741783Y-9971716D01*
X11685214Y-9971716D01*
X11685214Y-10028285D01*
X11741783Y-10028285D01*
X11868783Y-10028285D02*
X11868783Y-9971716D01*
X11812214Y-9971716D01*
X11812214Y-10028285D01*
X11868783Y-10028285D01*
X11995783Y-10028285D02*
X11995783Y-9971716D01*
X11939214Y-9971716D01*
X11939214Y-10028285D01*
X11995783Y-10028285D01*
X12905284Y-10028285D02*
X12905284Y-9971716D01*
X12848715Y-9971716D01*
X12848715Y-10028285D01*
X12905284Y-10028285D01*
X13032284Y-10028285D02*
X13032284Y-9971716D01*
X12975715Y-9971716D01*
X12975715Y-10028285D01*
X13032284Y-10028285D01*
X13159284Y-10028285D02*
X13159284Y-9971716D01*
X13102715Y-9971716D01*
X13102715Y-10028285D01*
X13159284Y-10028285D01*
X13413284Y-10028285D02*
X13413284Y-9971716D01*
X13356715Y-9971716D01*
X13356715Y-10028285D01*
X13413284Y-10028285D01*
X13540284Y-10028285D02*
X13540284Y-9971716D01*
X13483715Y-9971716D01*
X13483715Y-10028285D01*
X13540284Y-10028285D01*
X13667284Y-10028285D02*
X13667284Y-9971716D01*
X13610715Y-9971716D01*
X13610715Y-10028285D01*
X13667284Y-10028285D01*
X19028285Y-10028285D02*
X19028285Y-9971716D01*
X18971716Y-9971716D01*
X18971716Y-10028285D01*
X19028285Y-10028285D01*
X19155285Y-10028285D02*
X19155285Y-9971716D01*
X19098716Y-9971716D01*
X19098716Y-10028285D01*
X19155285Y-10028285D01*
X19282285Y-10028285D02*
X19282285Y-9971716D01*
X19225716Y-9971716D01*
X19225716Y-10028285D01*
X19282285Y-10028285D01*
X19536285Y-10028285D02*
X19536285Y-9971716D01*
X19479716Y-9971716D01*
X19479716Y-10028285D01*
X19536285Y-10028285D01*
X19663285Y-10028285D02*
X19663285Y-9971716D01*
X19606716Y-9971716D01*
X19606716Y-10028285D01*
X19663285Y-10028285D01*
X19790285Y-10028285D02*
X19790285Y-9971716D01*
X19733716Y-9971716D01*
X19733716Y-10028285D01*
X19790285Y-10028285D01*
D12*
X10158277Y-13113984D02*
X10158277Y-12913984D01*
X10158277Y-12913984D02*
X10205896Y-12913984D01*
X10205896Y-12913984D02*
X10234467Y-12923508D01*
X10234467Y-12923508D02*
X10253515Y-12942555D01*
X10253515Y-12942555D02*
X10263039Y-12961603D01*
X10263039Y-12961603D02*
X10272563Y-12999698D01*
X10272563Y-12999698D02*
X10272563Y-13028269D01*
X10272563Y-13028269D02*
X10263039Y-13066365D01*
X10263039Y-13066365D02*
X10253515Y-13085412D01*
X10253515Y-13085412D02*
X10234467Y-13104460D01*
X10234467Y-13104460D02*
X10205896Y-13113984D01*
X10205896Y-13113984D02*
X10158277Y-13113984D01*
X10358277Y-13113984D02*
X10358277Y-12980650D01*
X10358277Y-13018746D02*
X10367801Y-12999698D01*
X10367801Y-12999698D02*
X10377324Y-12990174D01*
X10377324Y-12990174D02*
X10396372Y-12980650D01*
X10396372Y-12980650D02*
X10415420Y-12980650D01*
X10482086Y-13113984D02*
X10482086Y-12980650D01*
X10482086Y-12913984D02*
X10472563Y-12923508D01*
X10472563Y-12923508D02*
X10482086Y-12933031D01*
X10482086Y-12933031D02*
X10491610Y-12923508D01*
X10491610Y-12923508D02*
X10482086Y-12913984D01*
X10482086Y-12913984D02*
X10482086Y-12933031D01*
X10605896Y-13113984D02*
X10586848Y-13104460D01*
X10586848Y-13104460D02*
X10577324Y-13085412D01*
X10577324Y-13085412D02*
X10577324Y-12913984D01*
X10710658Y-13113984D02*
X10691610Y-13104460D01*
X10691610Y-13104460D02*
X10682086Y-13085412D01*
X10682086Y-13085412D02*
X10682086Y-12913984D01*
X10939229Y-13113984D02*
X10939229Y-12913984D01*
X10939229Y-12913984D02*
X11005896Y-13056841D01*
X11005896Y-13056841D02*
X11072563Y-12913984D01*
X11072563Y-12913984D02*
X11072563Y-13113984D01*
X11253515Y-13113984D02*
X11253515Y-13009222D01*
X11253515Y-13009222D02*
X11243991Y-12990174D01*
X11243991Y-12990174D02*
X11224943Y-12980650D01*
X11224943Y-12980650D02*
X11186848Y-12980650D01*
X11186848Y-12980650D02*
X11167801Y-12990174D01*
X11253515Y-13104460D02*
X11234467Y-13113984D01*
X11234467Y-13113984D02*
X11186848Y-13113984D01*
X11186848Y-13113984D02*
X11167801Y-13104460D01*
X11167801Y-13104460D02*
X11158277Y-13085412D01*
X11158277Y-13085412D02*
X11158277Y-13066365D01*
X11158277Y-13066365D02*
X11167801Y-13047317D01*
X11167801Y-13047317D02*
X11186848Y-13037793D01*
X11186848Y-13037793D02*
X11234467Y-13037793D01*
X11234467Y-13037793D02*
X11253515Y-13028269D01*
X11348753Y-12980650D02*
X11348753Y-13180650D01*
X11348753Y-12990174D02*
X11367801Y-12980650D01*
X11367801Y-12980650D02*
X11405896Y-12980650D01*
X11405896Y-12980650D02*
X11424943Y-12990174D01*
X11424943Y-12990174D02*
X11434467Y-12999698D01*
X11434467Y-12999698D02*
X11443991Y-13018746D01*
X11443991Y-13018746D02*
X11443991Y-13075888D01*
X11443991Y-13075888D02*
X11434467Y-13094936D01*
X11434467Y-13094936D02*
X11424943Y-13104460D01*
X11424943Y-13104460D02*
X11405896Y-13113984D01*
X11405896Y-13113984D02*
X11367801Y-13113984D01*
X11367801Y-13113984D02*
X11348753Y-13104460D01*
X11529705Y-13094936D02*
X11539229Y-13104460D01*
X11539229Y-13104460D02*
X11529705Y-13113984D01*
X11529705Y-13113984D02*
X11520182Y-13104460D01*
X11520182Y-13104460D02*
X11529705Y-13094936D01*
X11529705Y-13094936D02*
X11529705Y-13113984D01*
X11529705Y-12990174D02*
X11539229Y-12999698D01*
X11539229Y-12999698D02*
X11529705Y-13009222D01*
X11529705Y-13009222D02*
X11520182Y-12999698D01*
X11520182Y-12999698D02*
X11529705Y-12990174D01*
X11529705Y-12990174D02*
X11529705Y-13009222D01*
D13*
X9872100Y-13429800D02*
X9897500Y-13455200D01*
X9897500Y-13429800D02*
X9872100Y-13455200D01*
D12*
X10196372Y-13333984D02*
X10215420Y-13333984D01*
X10215420Y-13333984D02*
X10234467Y-13343508D01*
X10234467Y-13343508D02*
X10243991Y-13353031D01*
X10243991Y-13353031D02*
X10253515Y-13372079D01*
X10253515Y-13372079D02*
X10263039Y-13410174D01*
X10263039Y-13410174D02*
X10263039Y-13457793D01*
X10263039Y-13457793D02*
X10253515Y-13495888D01*
X10253515Y-13495888D02*
X10243991Y-13514936D01*
X10243991Y-13514936D02*
X10234467Y-13524460D01*
X10234467Y-13524460D02*
X10215420Y-13533984D01*
X10215420Y-13533984D02*
X10196372Y-13533984D01*
X10196372Y-13533984D02*
X10177324Y-13524460D01*
X10177324Y-13524460D02*
X10167801Y-13514936D01*
X10167801Y-13514936D02*
X10158277Y-13495888D01*
X10158277Y-13495888D02*
X10148753Y-13457793D01*
X10148753Y-13457793D02*
X10148753Y-13410174D01*
X10148753Y-13410174D02*
X10158277Y-13372079D01*
X10158277Y-13372079D02*
X10167801Y-13353031D01*
X10167801Y-13353031D02*
X10177324Y-13343508D01*
X10177324Y-13343508D02*
X10196372Y-13333984D01*
X10348753Y-13514936D02*
X10358277Y-13524460D01*
X10358277Y-13524460D02*
X10348753Y-13533984D01*
X10348753Y-13533984D02*
X10339229Y-13524460D01*
X10339229Y-13524460D02*
X10348753Y-13514936D01*
X10348753Y-13514936D02*
X10348753Y-13533984D01*
X10434467Y-13353031D02*
X10443991Y-13343508D01*
X10443991Y-13343508D02*
X10463039Y-13333984D01*
X10463039Y-13333984D02*
X10510658Y-13333984D01*
X10510658Y-13333984D02*
X10529705Y-13343508D01*
X10529705Y-13343508D02*
X10539229Y-13353031D01*
X10539229Y-13353031D02*
X10548753Y-13372079D01*
X10548753Y-13372079D02*
X10548753Y-13391127D01*
X10548753Y-13391127D02*
X10539229Y-13419698D01*
X10539229Y-13419698D02*
X10424944Y-13533984D01*
X10424944Y-13533984D02*
X10548753Y-13533984D01*
X10729705Y-13333984D02*
X10634467Y-13333984D01*
X10634467Y-13333984D02*
X10624944Y-13429222D01*
X10624944Y-13429222D02*
X10634467Y-13419698D01*
X10634467Y-13419698D02*
X10653515Y-13410174D01*
X10653515Y-13410174D02*
X10701134Y-13410174D01*
X10701134Y-13410174D02*
X10720182Y-13419698D01*
X10720182Y-13419698D02*
X10729705Y-13429222D01*
X10729705Y-13429222D02*
X10739229Y-13448269D01*
X10739229Y-13448269D02*
X10739229Y-13495888D01*
X10739229Y-13495888D02*
X10729705Y-13514936D01*
X10729705Y-13514936D02*
X10720182Y-13524460D01*
X10720182Y-13524460D02*
X10701134Y-13533984D01*
X10701134Y-13533984D02*
X10653515Y-13533984D01*
X10653515Y-13533984D02*
X10634467Y-13524460D01*
X10634467Y-13524460D02*
X10624944Y-13514936D01*
X10910658Y-13400650D02*
X10910658Y-13533984D01*
X10863039Y-13324460D02*
X10815420Y-13467317D01*
X10815420Y-13467317D02*
X10939229Y-13467317D01*
X11015420Y-13533984D02*
X11015420Y-13400650D01*
X11015420Y-13419698D02*
X11024944Y-13410174D01*
X11024944Y-13410174D02*
X11043991Y-13400650D01*
X11043991Y-13400650D02*
X11072563Y-13400650D01*
X11072563Y-13400650D02*
X11091610Y-13410174D01*
X11091610Y-13410174D02*
X11101134Y-13429222D01*
X11101134Y-13429222D02*
X11101134Y-13533984D01*
X11101134Y-13429222D02*
X11110658Y-13410174D01*
X11110658Y-13410174D02*
X11129705Y-13400650D01*
X11129705Y-13400650D02*
X11158277Y-13400650D01*
X11158277Y-13400650D02*
X11177325Y-13410174D01*
X11177325Y-13410174D02*
X11186848Y-13429222D01*
X11186848Y-13429222D02*
X11186848Y-13533984D01*
X11282086Y-13533984D02*
X11282086Y-13400650D01*
X11282086Y-13419698D02*
X11291610Y-13410174D01*
X11291610Y-13410174D02*
X11310658Y-13400650D01*
X11310658Y-13400650D02*
X11339229Y-13400650D01*
X11339229Y-13400650D02*
X11358277Y-13410174D01*
X11358277Y-13410174D02*
X11367801Y-13429222D01*
X11367801Y-13429222D02*
X11367801Y-13533984D01*
X11367801Y-13429222D02*
X11377324Y-13410174D01*
X11377324Y-13410174D02*
X11396372Y-13400650D01*
X11396372Y-13400650D02*
X11424943Y-13400650D01*
X11424943Y-13400650D02*
X11443991Y-13410174D01*
X11443991Y-13410174D02*
X11453515Y-13429222D01*
X11453515Y-13429222D02*
X11453515Y-13533984D01*
X11843991Y-13324460D02*
X11672563Y-13581603D01*
X12101134Y-13333984D02*
X12120182Y-13333984D01*
X12120182Y-13333984D02*
X12139229Y-13343508D01*
X12139229Y-13343508D02*
X12148753Y-13353031D01*
X12148753Y-13353031D02*
X12158277Y-13372079D01*
X12158277Y-13372079D02*
X12167801Y-13410174D01*
X12167801Y-13410174D02*
X12167801Y-13457793D01*
X12167801Y-13457793D02*
X12158277Y-13495888D01*
X12158277Y-13495888D02*
X12148753Y-13514936D01*
X12148753Y-13514936D02*
X12139229Y-13524460D01*
X12139229Y-13524460D02*
X12120182Y-13533984D01*
X12120182Y-13533984D02*
X12101134Y-13533984D01*
X12101134Y-13533984D02*
X12082086Y-13524460D01*
X12082086Y-13524460D02*
X12072563Y-13514936D01*
X12072563Y-13514936D02*
X12063039Y-13495888D01*
X12063039Y-13495888D02*
X12053515Y-13457793D01*
X12053515Y-13457793D02*
X12053515Y-13410174D01*
X12053515Y-13410174D02*
X12063039Y-13372079D01*
X12063039Y-13372079D02*
X12072563Y-13353031D01*
X12072563Y-13353031D02*
X12082086Y-13343508D01*
X12082086Y-13343508D02*
X12101134Y-13333984D01*
X12253515Y-13514936D02*
X12263039Y-13524460D01*
X12263039Y-13524460D02*
X12253515Y-13533984D01*
X12253515Y-13533984D02*
X12243991Y-13524460D01*
X12243991Y-13524460D02*
X12253515Y-13514936D01*
X12253515Y-13514936D02*
X12253515Y-13533984D01*
X12386848Y-13333984D02*
X12405896Y-13333984D01*
X12405896Y-13333984D02*
X12424944Y-13343508D01*
X12424944Y-13343508D02*
X12434467Y-13353031D01*
X12434467Y-13353031D02*
X12443991Y-13372079D01*
X12443991Y-13372079D02*
X12453515Y-13410174D01*
X12453515Y-13410174D02*
X12453515Y-13457793D01*
X12453515Y-13457793D02*
X12443991Y-13495888D01*
X12443991Y-13495888D02*
X12434467Y-13514936D01*
X12434467Y-13514936D02*
X12424944Y-13524460D01*
X12424944Y-13524460D02*
X12405896Y-13533984D01*
X12405896Y-13533984D02*
X12386848Y-13533984D01*
X12386848Y-13533984D02*
X12367801Y-13524460D01*
X12367801Y-13524460D02*
X12358277Y-13514936D01*
X12358277Y-13514936D02*
X12348753Y-13495888D01*
X12348753Y-13495888D02*
X12339229Y-13457793D01*
X12339229Y-13457793D02*
X12339229Y-13410174D01*
X12339229Y-13410174D02*
X12348753Y-13372079D01*
X12348753Y-13372079D02*
X12358277Y-13353031D01*
X12358277Y-13353031D02*
X12367801Y-13343508D01*
X12367801Y-13343508D02*
X12386848Y-13333984D01*
X12643991Y-13533984D02*
X12529706Y-13533984D01*
X12586848Y-13533984D02*
X12586848Y-13333984D01*
X12586848Y-13333984D02*
X12567801Y-13362555D01*
X12567801Y-13362555D02*
X12548753Y-13381603D01*
X12548753Y-13381603D02*
X12529706Y-13391127D01*
X12767801Y-13333984D02*
X12786848Y-13333984D01*
X12786848Y-13333984D02*
X12805896Y-13343508D01*
X12805896Y-13343508D02*
X12815420Y-13353031D01*
X12815420Y-13353031D02*
X12824944Y-13372079D01*
X12824944Y-13372079D02*
X12834467Y-13410174D01*
X12834467Y-13410174D02*
X12834467Y-13457793D01*
X12834467Y-13457793D02*
X12824944Y-13495888D01*
X12824944Y-13495888D02*
X12815420Y-13514936D01*
X12815420Y-13514936D02*
X12805896Y-13524460D01*
X12805896Y-13524460D02*
X12786848Y-13533984D01*
X12786848Y-13533984D02*
X12767801Y-13533984D01*
X12767801Y-13533984D02*
X12748753Y-13524460D01*
X12748753Y-13524460D02*
X12739229Y-13514936D01*
X12739229Y-13514936D02*
X12729706Y-13495888D01*
X12729706Y-13495888D02*
X12720182Y-13457793D01*
X12720182Y-13457793D02*
X12720182Y-13410174D01*
X12720182Y-13410174D02*
X12729706Y-13372079D01*
X12729706Y-13372079D02*
X12739229Y-13353031D01*
X12739229Y-13353031D02*
X12748753Y-13343508D01*
X12748753Y-13343508D02*
X12767801Y-13333984D01*
X12958277Y-13333984D02*
X12977325Y-13333984D01*
X12977325Y-13333984D02*
X12996372Y-13343508D01*
X12996372Y-13343508D02*
X13005896Y-13353031D01*
X13005896Y-13353031D02*
X13015420Y-13372079D01*
X13015420Y-13372079D02*
X13024944Y-13410174D01*
X13024944Y-13410174D02*
X13024944Y-13457793D01*
X13024944Y-13457793D02*
X13015420Y-13495888D01*
X13015420Y-13495888D02*
X13005896Y-13514936D01*
X13005896Y-13514936D02*
X12996372Y-13524460D01*
X12996372Y-13524460D02*
X12977325Y-13533984D01*
X12977325Y-13533984D02*
X12958277Y-13533984D01*
X12958277Y-13533984D02*
X12939229Y-13524460D01*
X12939229Y-13524460D02*
X12929706Y-13514936D01*
X12929706Y-13514936D02*
X12920182Y-13495888D01*
X12920182Y-13495888D02*
X12910658Y-13457793D01*
X12910658Y-13457793D02*
X12910658Y-13410174D01*
X12910658Y-13410174D02*
X12920182Y-13372079D01*
X12920182Y-13372079D02*
X12929706Y-13353031D01*
X12929706Y-13353031D02*
X12939229Y-13343508D01*
X12939229Y-13343508D02*
X12958277Y-13333984D01*
X13101134Y-13333984D02*
X13101134Y-13372079D01*
X13177325Y-13333984D02*
X13177325Y-13372079D01*
X13472563Y-13610174D02*
X13463039Y-13600650D01*
X13463039Y-13600650D02*
X13443991Y-13572079D01*
X13443991Y-13572079D02*
X13434468Y-13553031D01*
X13434468Y-13553031D02*
X13424944Y-13524460D01*
X13424944Y-13524460D02*
X13415420Y-13476841D01*
X13415420Y-13476841D02*
X13415420Y-13438746D01*
X13415420Y-13438746D02*
X13424944Y-13391127D01*
X13424944Y-13391127D02*
X13434468Y-13362555D01*
X13434468Y-13362555D02*
X13443991Y-13343508D01*
X13443991Y-13343508D02*
X13463039Y-13314936D01*
X13463039Y-13314936D02*
X13472563Y-13305412D01*
X13653515Y-13533984D02*
X13539229Y-13533984D01*
X13596372Y-13533984D02*
X13596372Y-13333984D01*
X13596372Y-13333984D02*
X13577325Y-13362555D01*
X13577325Y-13362555D02*
X13558277Y-13381603D01*
X13558277Y-13381603D02*
X13539229Y-13391127D01*
X13834468Y-13333984D02*
X13739229Y-13333984D01*
X13739229Y-13333984D02*
X13729706Y-13429222D01*
X13729706Y-13429222D02*
X13739229Y-13419698D01*
X13739229Y-13419698D02*
X13758277Y-13410174D01*
X13758277Y-13410174D02*
X13805896Y-13410174D01*
X13805896Y-13410174D02*
X13824944Y-13419698D01*
X13824944Y-13419698D02*
X13834468Y-13429222D01*
X13834468Y-13429222D02*
X13843991Y-13448269D01*
X13843991Y-13448269D02*
X13843991Y-13495888D01*
X13843991Y-13495888D02*
X13834468Y-13514936D01*
X13834468Y-13514936D02*
X13824944Y-13524460D01*
X13824944Y-13524460D02*
X13805896Y-13533984D01*
X13805896Y-13533984D02*
X13758277Y-13533984D01*
X13758277Y-13533984D02*
X13739229Y-13524460D01*
X13739229Y-13524460D02*
X13729706Y-13514936D01*
X14082087Y-13533984D02*
X14082087Y-13333984D01*
X14167801Y-13533984D02*
X14167801Y-13429222D01*
X14167801Y-13429222D02*
X14158277Y-13410174D01*
X14158277Y-13410174D02*
X14139230Y-13400650D01*
X14139230Y-13400650D02*
X14110658Y-13400650D01*
X14110658Y-13400650D02*
X14091610Y-13410174D01*
X14091610Y-13410174D02*
X14082087Y-13419698D01*
X14291610Y-13533984D02*
X14272563Y-13524460D01*
X14272563Y-13524460D02*
X14263039Y-13514936D01*
X14263039Y-13514936D02*
X14253515Y-13495888D01*
X14253515Y-13495888D02*
X14253515Y-13438746D01*
X14253515Y-13438746D02*
X14263039Y-13419698D01*
X14263039Y-13419698D02*
X14272563Y-13410174D01*
X14272563Y-13410174D02*
X14291610Y-13400650D01*
X14291610Y-13400650D02*
X14320182Y-13400650D01*
X14320182Y-13400650D02*
X14339230Y-13410174D01*
X14339230Y-13410174D02*
X14348753Y-13419698D01*
X14348753Y-13419698D02*
X14358277Y-13438746D01*
X14358277Y-13438746D02*
X14358277Y-13495888D01*
X14358277Y-13495888D02*
X14348753Y-13514936D01*
X14348753Y-13514936D02*
X14339230Y-13524460D01*
X14339230Y-13524460D02*
X14320182Y-13533984D01*
X14320182Y-13533984D02*
X14291610Y-13533984D01*
X14472563Y-13533984D02*
X14453515Y-13524460D01*
X14453515Y-13524460D02*
X14443991Y-13505412D01*
X14443991Y-13505412D02*
X14443991Y-13333984D01*
X14624944Y-13524460D02*
X14605896Y-13533984D01*
X14605896Y-13533984D02*
X14567801Y-13533984D01*
X14567801Y-13533984D02*
X14548753Y-13524460D01*
X14548753Y-13524460D02*
X14539230Y-13505412D01*
X14539230Y-13505412D02*
X14539230Y-13429222D01*
X14539230Y-13429222D02*
X14548753Y-13410174D01*
X14548753Y-13410174D02*
X14567801Y-13400650D01*
X14567801Y-13400650D02*
X14605896Y-13400650D01*
X14605896Y-13400650D02*
X14624944Y-13410174D01*
X14624944Y-13410174D02*
X14634468Y-13429222D01*
X14634468Y-13429222D02*
X14634468Y-13448269D01*
X14634468Y-13448269D02*
X14539230Y-13467317D01*
X14710658Y-13524460D02*
X14729706Y-13533984D01*
X14729706Y-13533984D02*
X14767801Y-13533984D01*
X14767801Y-13533984D02*
X14786849Y-13524460D01*
X14786849Y-13524460D02*
X14796372Y-13505412D01*
X14796372Y-13505412D02*
X14796372Y-13495888D01*
X14796372Y-13495888D02*
X14786849Y-13476841D01*
X14786849Y-13476841D02*
X14767801Y-13467317D01*
X14767801Y-13467317D02*
X14739230Y-13467317D01*
X14739230Y-13467317D02*
X14720182Y-13457793D01*
X14720182Y-13457793D02*
X14710658Y-13438746D01*
X14710658Y-13438746D02*
X14710658Y-13429222D01*
X14710658Y-13429222D02*
X14720182Y-13410174D01*
X14720182Y-13410174D02*
X14739230Y-13400650D01*
X14739230Y-13400650D02*
X14767801Y-13400650D01*
X14767801Y-13400650D02*
X14786849Y-13410174D01*
X14863039Y-13610174D02*
X14872563Y-13600650D01*
X14872563Y-13600650D02*
X14891611Y-13572079D01*
X14891611Y-13572079D02*
X14901134Y-13553031D01*
X14901134Y-13553031D02*
X14910658Y-13524460D01*
X14910658Y-13524460D02*
X14920182Y-13476841D01*
X14920182Y-13476841D02*
X14920182Y-13438746D01*
X14920182Y-13438746D02*
X14910658Y-13391127D01*
X14910658Y-13391127D02*
X14901134Y-13362555D01*
X14901134Y-13362555D02*
X14891611Y-13343508D01*
X14891611Y-13343508D02*
X14872563Y-13314936D01*
X14872563Y-13314936D02*
X14863039Y-13305412D01*
D13*
X9897500Y-13706500D02*
G75*
G02*
X9867500Y-13706500I-15000J0D01*
G01*
X9867500Y-13706500D02*
G75*
G02*
X9897500Y-13706500I15000J0D01*
G01*
D12*
X10196372Y-13597984D02*
X10215420Y-13597984D01*
X10215420Y-13597984D02*
X10234467Y-13607508D01*
X10234467Y-13607508D02*
X10243991Y-13617031D01*
X10243991Y-13617031D02*
X10253515Y-13636079D01*
X10253515Y-13636079D02*
X10263039Y-13674174D01*
X10263039Y-13674174D02*
X10263039Y-13721793D01*
X10263039Y-13721793D02*
X10253515Y-13759888D01*
X10253515Y-13759888D02*
X10243991Y-13778936D01*
X10243991Y-13778936D02*
X10234467Y-13788460D01*
X10234467Y-13788460D02*
X10215420Y-13797984D01*
X10215420Y-13797984D02*
X10196372Y-13797984D01*
X10196372Y-13797984D02*
X10177324Y-13788460D01*
X10177324Y-13788460D02*
X10167801Y-13778936D01*
X10167801Y-13778936D02*
X10158277Y-13759888D01*
X10158277Y-13759888D02*
X10148753Y-13721793D01*
X10148753Y-13721793D02*
X10148753Y-13674174D01*
X10148753Y-13674174D02*
X10158277Y-13636079D01*
X10158277Y-13636079D02*
X10167801Y-13617031D01*
X10167801Y-13617031D02*
X10177324Y-13607508D01*
X10177324Y-13607508D02*
X10196372Y-13597984D01*
X10348753Y-13778936D02*
X10358277Y-13788460D01*
X10358277Y-13788460D02*
X10348753Y-13797984D01*
X10348753Y-13797984D02*
X10339229Y-13788460D01*
X10339229Y-13788460D02*
X10348753Y-13778936D01*
X10348753Y-13778936D02*
X10348753Y-13797984D01*
X10424944Y-13597984D02*
X10548753Y-13597984D01*
X10548753Y-13597984D02*
X10482086Y-13674174D01*
X10482086Y-13674174D02*
X10510658Y-13674174D01*
X10510658Y-13674174D02*
X10529705Y-13683698D01*
X10529705Y-13683698D02*
X10539229Y-13693222D01*
X10539229Y-13693222D02*
X10548753Y-13712269D01*
X10548753Y-13712269D02*
X10548753Y-13759888D01*
X10548753Y-13759888D02*
X10539229Y-13778936D01*
X10539229Y-13778936D02*
X10529705Y-13788460D01*
X10529705Y-13788460D02*
X10510658Y-13797984D01*
X10510658Y-13797984D02*
X10453515Y-13797984D01*
X10453515Y-13797984D02*
X10434467Y-13788460D01*
X10434467Y-13788460D02*
X10424944Y-13778936D01*
X10672563Y-13597984D02*
X10691610Y-13597984D01*
X10691610Y-13597984D02*
X10710658Y-13607508D01*
X10710658Y-13607508D02*
X10720182Y-13617031D01*
X10720182Y-13617031D02*
X10729705Y-13636079D01*
X10729705Y-13636079D02*
X10739229Y-13674174D01*
X10739229Y-13674174D02*
X10739229Y-13721793D01*
X10739229Y-13721793D02*
X10729705Y-13759888D01*
X10729705Y-13759888D02*
X10720182Y-13778936D01*
X10720182Y-13778936D02*
X10710658Y-13788460D01*
X10710658Y-13788460D02*
X10691610Y-13797984D01*
X10691610Y-13797984D02*
X10672563Y-13797984D01*
X10672563Y-13797984D02*
X10653515Y-13788460D01*
X10653515Y-13788460D02*
X10643991Y-13778936D01*
X10643991Y-13778936D02*
X10634467Y-13759888D01*
X10634467Y-13759888D02*
X10624944Y-13721793D01*
X10624944Y-13721793D02*
X10624944Y-13674174D01*
X10624944Y-13674174D02*
X10634467Y-13636079D01*
X10634467Y-13636079D02*
X10643991Y-13617031D01*
X10643991Y-13617031D02*
X10653515Y-13607508D01*
X10653515Y-13607508D02*
X10672563Y-13597984D01*
X10863039Y-13597984D02*
X10882086Y-13597984D01*
X10882086Y-13597984D02*
X10901134Y-13607508D01*
X10901134Y-13607508D02*
X10910658Y-13617031D01*
X10910658Y-13617031D02*
X10920182Y-13636079D01*
X10920182Y-13636079D02*
X10929705Y-13674174D01*
X10929705Y-13674174D02*
X10929705Y-13721793D01*
X10929705Y-13721793D02*
X10920182Y-13759888D01*
X10920182Y-13759888D02*
X10910658Y-13778936D01*
X10910658Y-13778936D02*
X10901134Y-13788460D01*
X10901134Y-13788460D02*
X10882086Y-13797984D01*
X10882086Y-13797984D02*
X10863039Y-13797984D01*
X10863039Y-13797984D02*
X10843991Y-13788460D01*
X10843991Y-13788460D02*
X10834467Y-13778936D01*
X10834467Y-13778936D02*
X10824944Y-13759888D01*
X10824944Y-13759888D02*
X10815420Y-13721793D01*
X10815420Y-13721793D02*
X10815420Y-13674174D01*
X10815420Y-13674174D02*
X10824944Y-13636079D01*
X10824944Y-13636079D02*
X10834467Y-13617031D01*
X10834467Y-13617031D02*
X10843991Y-13607508D01*
X10843991Y-13607508D02*
X10863039Y-13597984D01*
X11015420Y-13797984D02*
X11015420Y-13664650D01*
X11015420Y-13683698D02*
X11024944Y-13674174D01*
X11024944Y-13674174D02*
X11043991Y-13664650D01*
X11043991Y-13664650D02*
X11072563Y-13664650D01*
X11072563Y-13664650D02*
X11091610Y-13674174D01*
X11091610Y-13674174D02*
X11101134Y-13693222D01*
X11101134Y-13693222D02*
X11101134Y-13797984D01*
X11101134Y-13693222D02*
X11110658Y-13674174D01*
X11110658Y-13674174D02*
X11129705Y-13664650D01*
X11129705Y-13664650D02*
X11158277Y-13664650D01*
X11158277Y-13664650D02*
X11177325Y-13674174D01*
X11177325Y-13674174D02*
X11186848Y-13693222D01*
X11186848Y-13693222D02*
X11186848Y-13797984D01*
X11282086Y-13797984D02*
X11282086Y-13664650D01*
X11282086Y-13683698D02*
X11291610Y-13674174D01*
X11291610Y-13674174D02*
X11310658Y-13664650D01*
X11310658Y-13664650D02*
X11339229Y-13664650D01*
X11339229Y-13664650D02*
X11358277Y-13674174D01*
X11358277Y-13674174D02*
X11367801Y-13693222D01*
X11367801Y-13693222D02*
X11367801Y-13797984D01*
X11367801Y-13693222D02*
X11377324Y-13674174D01*
X11377324Y-13674174D02*
X11396372Y-13664650D01*
X11396372Y-13664650D02*
X11424943Y-13664650D01*
X11424943Y-13664650D02*
X11443991Y-13674174D01*
X11443991Y-13674174D02*
X11453515Y-13693222D01*
X11453515Y-13693222D02*
X11453515Y-13797984D01*
X11843991Y-13588460D02*
X11672563Y-13845603D01*
X12101134Y-13597984D02*
X12120182Y-13597984D01*
X12120182Y-13597984D02*
X12139229Y-13607508D01*
X12139229Y-13607508D02*
X12148753Y-13617031D01*
X12148753Y-13617031D02*
X12158277Y-13636079D01*
X12158277Y-13636079D02*
X12167801Y-13674174D01*
X12167801Y-13674174D02*
X12167801Y-13721793D01*
X12167801Y-13721793D02*
X12158277Y-13759888D01*
X12158277Y-13759888D02*
X12148753Y-13778936D01*
X12148753Y-13778936D02*
X12139229Y-13788460D01*
X12139229Y-13788460D02*
X12120182Y-13797984D01*
X12120182Y-13797984D02*
X12101134Y-13797984D01*
X12101134Y-13797984D02*
X12082086Y-13788460D01*
X12082086Y-13788460D02*
X12072563Y-13778936D01*
X12072563Y-13778936D02*
X12063039Y-13759888D01*
X12063039Y-13759888D02*
X12053515Y-13721793D01*
X12053515Y-13721793D02*
X12053515Y-13674174D01*
X12053515Y-13674174D02*
X12063039Y-13636079D01*
X12063039Y-13636079D02*
X12072563Y-13617031D01*
X12072563Y-13617031D02*
X12082086Y-13607508D01*
X12082086Y-13607508D02*
X12101134Y-13597984D01*
X12253515Y-13778936D02*
X12263039Y-13788460D01*
X12263039Y-13788460D02*
X12253515Y-13797984D01*
X12253515Y-13797984D02*
X12243991Y-13788460D01*
X12243991Y-13788460D02*
X12253515Y-13778936D01*
X12253515Y-13778936D02*
X12253515Y-13797984D01*
X12386848Y-13597984D02*
X12405896Y-13597984D01*
X12405896Y-13597984D02*
X12424944Y-13607508D01*
X12424944Y-13607508D02*
X12434467Y-13617031D01*
X12434467Y-13617031D02*
X12443991Y-13636079D01*
X12443991Y-13636079D02*
X12453515Y-13674174D01*
X12453515Y-13674174D02*
X12453515Y-13721793D01*
X12453515Y-13721793D02*
X12443991Y-13759888D01*
X12443991Y-13759888D02*
X12434467Y-13778936D01*
X12434467Y-13778936D02*
X12424944Y-13788460D01*
X12424944Y-13788460D02*
X12405896Y-13797984D01*
X12405896Y-13797984D02*
X12386848Y-13797984D01*
X12386848Y-13797984D02*
X12367801Y-13788460D01*
X12367801Y-13788460D02*
X12358277Y-13778936D01*
X12358277Y-13778936D02*
X12348753Y-13759888D01*
X12348753Y-13759888D02*
X12339229Y-13721793D01*
X12339229Y-13721793D02*
X12339229Y-13674174D01*
X12339229Y-13674174D02*
X12348753Y-13636079D01*
X12348753Y-13636079D02*
X12358277Y-13617031D01*
X12358277Y-13617031D02*
X12367801Y-13607508D01*
X12367801Y-13607508D02*
X12386848Y-13597984D01*
X12643991Y-13797984D02*
X12529706Y-13797984D01*
X12586848Y-13797984D02*
X12586848Y-13597984D01*
X12586848Y-13597984D02*
X12567801Y-13626555D01*
X12567801Y-13626555D02*
X12548753Y-13645603D01*
X12548753Y-13645603D02*
X12529706Y-13655127D01*
X12834467Y-13797984D02*
X12720182Y-13797984D01*
X12777325Y-13797984D02*
X12777325Y-13597984D01*
X12777325Y-13597984D02*
X12758277Y-13626555D01*
X12758277Y-13626555D02*
X12739229Y-13645603D01*
X12739229Y-13645603D02*
X12720182Y-13655127D01*
X12948753Y-13683698D02*
X12929706Y-13674174D01*
X12929706Y-13674174D02*
X12920182Y-13664650D01*
X12920182Y-13664650D02*
X12910658Y-13645603D01*
X12910658Y-13645603D02*
X12910658Y-13636079D01*
X12910658Y-13636079D02*
X12920182Y-13617031D01*
X12920182Y-13617031D02*
X12929706Y-13607508D01*
X12929706Y-13607508D02*
X12948753Y-13597984D01*
X12948753Y-13597984D02*
X12986848Y-13597984D01*
X12986848Y-13597984D02*
X13005896Y-13607508D01*
X13005896Y-13607508D02*
X13015420Y-13617031D01*
X13015420Y-13617031D02*
X13024944Y-13636079D01*
X13024944Y-13636079D02*
X13024944Y-13645603D01*
X13024944Y-13645603D02*
X13015420Y-13664650D01*
X13015420Y-13664650D02*
X13005896Y-13674174D01*
X13005896Y-13674174D02*
X12986848Y-13683698D01*
X12986848Y-13683698D02*
X12948753Y-13683698D01*
X12948753Y-13683698D02*
X12929706Y-13693222D01*
X12929706Y-13693222D02*
X12920182Y-13702746D01*
X12920182Y-13702746D02*
X12910658Y-13721793D01*
X12910658Y-13721793D02*
X12910658Y-13759888D01*
X12910658Y-13759888D02*
X12920182Y-13778936D01*
X12920182Y-13778936D02*
X12929706Y-13788460D01*
X12929706Y-13788460D02*
X12948753Y-13797984D01*
X12948753Y-13797984D02*
X12986848Y-13797984D01*
X12986848Y-13797984D02*
X13005896Y-13788460D01*
X13005896Y-13788460D02*
X13015420Y-13778936D01*
X13015420Y-13778936D02*
X13024944Y-13759888D01*
X13024944Y-13759888D02*
X13024944Y-13721793D01*
X13024944Y-13721793D02*
X13015420Y-13702746D01*
X13015420Y-13702746D02*
X13005896Y-13693222D01*
X13005896Y-13693222D02*
X12986848Y-13683698D01*
X13101134Y-13597984D02*
X13101134Y-13636079D01*
X13177325Y-13597984D02*
X13177325Y-13636079D01*
X13472563Y-13874174D02*
X13463039Y-13864650D01*
X13463039Y-13864650D02*
X13443991Y-13836079D01*
X13443991Y-13836079D02*
X13434468Y-13817031D01*
X13434468Y-13817031D02*
X13424944Y-13788460D01*
X13424944Y-13788460D02*
X13415420Y-13740841D01*
X13415420Y-13740841D02*
X13415420Y-13702746D01*
X13415420Y-13702746D02*
X13424944Y-13655127D01*
X13424944Y-13655127D02*
X13434468Y-13626555D01*
X13434468Y-13626555D02*
X13443991Y-13607508D01*
X13443991Y-13607508D02*
X13463039Y-13578936D01*
X13463039Y-13578936D02*
X13472563Y-13569412D01*
X13653515Y-13797984D02*
X13539229Y-13797984D01*
X13596372Y-13797984D02*
X13596372Y-13597984D01*
X13596372Y-13597984D02*
X13577325Y-13626555D01*
X13577325Y-13626555D02*
X13558277Y-13645603D01*
X13558277Y-13645603D02*
X13539229Y-13655127D01*
X13729706Y-13617031D02*
X13739229Y-13607508D01*
X13739229Y-13607508D02*
X13758277Y-13597984D01*
X13758277Y-13597984D02*
X13805896Y-13597984D01*
X13805896Y-13597984D02*
X13824944Y-13607508D01*
X13824944Y-13607508D02*
X13834468Y-13617031D01*
X13834468Y-13617031D02*
X13843991Y-13636079D01*
X13843991Y-13636079D02*
X13843991Y-13655127D01*
X13843991Y-13655127D02*
X13834468Y-13683698D01*
X13834468Y-13683698D02*
X13720182Y-13797984D01*
X13720182Y-13797984D02*
X13843991Y-13797984D01*
X13920182Y-13617031D02*
X13929706Y-13607508D01*
X13929706Y-13607508D02*
X13948753Y-13597984D01*
X13948753Y-13597984D02*
X13996372Y-13597984D01*
X13996372Y-13597984D02*
X14015420Y-13607508D01*
X14015420Y-13607508D02*
X14024944Y-13617031D01*
X14024944Y-13617031D02*
X14034468Y-13636079D01*
X14034468Y-13636079D02*
X14034468Y-13655127D01*
X14034468Y-13655127D02*
X14024944Y-13683698D01*
X14024944Y-13683698D02*
X13910658Y-13797984D01*
X13910658Y-13797984D02*
X14034468Y-13797984D01*
X14272563Y-13797984D02*
X14272563Y-13597984D01*
X14358277Y-13797984D02*
X14358277Y-13693222D01*
X14358277Y-13693222D02*
X14348753Y-13674174D01*
X14348753Y-13674174D02*
X14329706Y-13664650D01*
X14329706Y-13664650D02*
X14301134Y-13664650D01*
X14301134Y-13664650D02*
X14282087Y-13674174D01*
X14282087Y-13674174D02*
X14272563Y-13683698D01*
X14482087Y-13797984D02*
X14463039Y-13788460D01*
X14463039Y-13788460D02*
X14453515Y-13778936D01*
X14453515Y-13778936D02*
X14443991Y-13759888D01*
X14443991Y-13759888D02*
X14443991Y-13702746D01*
X14443991Y-13702746D02*
X14453515Y-13683698D01*
X14453515Y-13683698D02*
X14463039Y-13674174D01*
X14463039Y-13674174D02*
X14482087Y-13664650D01*
X14482087Y-13664650D02*
X14510658Y-13664650D01*
X14510658Y-13664650D02*
X14529706Y-13674174D01*
X14529706Y-13674174D02*
X14539230Y-13683698D01*
X14539230Y-13683698D02*
X14548753Y-13702746D01*
X14548753Y-13702746D02*
X14548753Y-13759888D01*
X14548753Y-13759888D02*
X14539230Y-13778936D01*
X14539230Y-13778936D02*
X14529706Y-13788460D01*
X14529706Y-13788460D02*
X14510658Y-13797984D01*
X14510658Y-13797984D02*
X14482087Y-13797984D01*
X14663039Y-13797984D02*
X14643991Y-13788460D01*
X14643991Y-13788460D02*
X14634468Y-13769412D01*
X14634468Y-13769412D02*
X14634468Y-13597984D01*
X14815420Y-13788460D02*
X14796372Y-13797984D01*
X14796372Y-13797984D02*
X14758277Y-13797984D01*
X14758277Y-13797984D02*
X14739230Y-13788460D01*
X14739230Y-13788460D02*
X14729706Y-13769412D01*
X14729706Y-13769412D02*
X14729706Y-13693222D01*
X14729706Y-13693222D02*
X14739230Y-13674174D01*
X14739230Y-13674174D02*
X14758277Y-13664650D01*
X14758277Y-13664650D02*
X14796372Y-13664650D01*
X14796372Y-13664650D02*
X14815420Y-13674174D01*
X14815420Y-13674174D02*
X14824944Y-13693222D01*
X14824944Y-13693222D02*
X14824944Y-13712269D01*
X14824944Y-13712269D02*
X14729706Y-13731317D01*
X14901134Y-13788460D02*
X14920182Y-13797984D01*
X14920182Y-13797984D02*
X14958277Y-13797984D01*
X14958277Y-13797984D02*
X14977325Y-13788460D01*
X14977325Y-13788460D02*
X14986849Y-13769412D01*
X14986849Y-13769412D02*
X14986849Y-13759888D01*
X14986849Y-13759888D02*
X14977325Y-13740841D01*
X14977325Y-13740841D02*
X14958277Y-13731317D01*
X14958277Y-13731317D02*
X14929706Y-13731317D01*
X14929706Y-13731317D02*
X14910658Y-13721793D01*
X14910658Y-13721793D02*
X14901134Y-13702746D01*
X14901134Y-13702746D02*
X14901134Y-13693222D01*
X14901134Y-13693222D02*
X14910658Y-13674174D01*
X14910658Y-13674174D02*
X14929706Y-13664650D01*
X14929706Y-13664650D02*
X14958277Y-13664650D01*
X14958277Y-13664650D02*
X14977325Y-13674174D01*
X15053515Y-13874174D02*
X15063039Y-13864650D01*
X15063039Y-13864650D02*
X15082087Y-13836079D01*
X15082087Y-13836079D02*
X15091611Y-13817031D01*
X15091611Y-13817031D02*
X15101134Y-13788460D01*
X15101134Y-13788460D02*
X15110658Y-13740841D01*
X15110658Y-13740841D02*
X15110658Y-13702746D01*
X15110658Y-13702746D02*
X15101134Y-13655127D01*
X15101134Y-13655127D02*
X15091611Y-13626555D01*
X15091611Y-13626555D02*
X15082087Y-13607508D01*
X15082087Y-13607508D02*
X15063039Y-13578936D01*
X15063039Y-13578936D02*
X15053515Y-13569412D01*
D13*
X9877500Y-13950500D02*
X9877500Y-13990500D01*
X9857500Y-13970500D02*
X9897500Y-13970500D01*
D12*
X10196372Y-13861984D02*
X10215420Y-13861984D01*
X10215420Y-13861984D02*
X10234467Y-13871508D01*
X10234467Y-13871508D02*
X10243991Y-13881031D01*
X10243991Y-13881031D02*
X10253515Y-13900079D01*
X10253515Y-13900079D02*
X10263039Y-13938174D01*
X10263039Y-13938174D02*
X10263039Y-13985793D01*
X10263039Y-13985793D02*
X10253515Y-14023888D01*
X10253515Y-14023888D02*
X10243991Y-14042936D01*
X10243991Y-14042936D02*
X10234467Y-14052460D01*
X10234467Y-14052460D02*
X10215420Y-14061984D01*
X10215420Y-14061984D02*
X10196372Y-14061984D01*
X10196372Y-14061984D02*
X10177324Y-14052460D01*
X10177324Y-14052460D02*
X10167801Y-14042936D01*
X10167801Y-14042936D02*
X10158277Y-14023888D01*
X10158277Y-14023888D02*
X10148753Y-13985793D01*
X10148753Y-13985793D02*
X10148753Y-13938174D01*
X10148753Y-13938174D02*
X10158277Y-13900079D01*
X10158277Y-13900079D02*
X10167801Y-13881031D01*
X10167801Y-13881031D02*
X10177324Y-13871508D01*
X10177324Y-13871508D02*
X10196372Y-13861984D01*
X10348753Y-14042936D02*
X10358277Y-14052460D01*
X10358277Y-14052460D02*
X10348753Y-14061984D01*
X10348753Y-14061984D02*
X10339229Y-14052460D01*
X10339229Y-14052460D02*
X10348753Y-14042936D01*
X10348753Y-14042936D02*
X10348753Y-14061984D01*
X10529705Y-13928650D02*
X10529705Y-14061984D01*
X10482086Y-13852460D02*
X10434467Y-13995317D01*
X10434467Y-13995317D02*
X10558277Y-13995317D01*
X10672563Y-13861984D02*
X10691610Y-13861984D01*
X10691610Y-13861984D02*
X10710658Y-13871508D01*
X10710658Y-13871508D02*
X10720182Y-13881031D01*
X10720182Y-13881031D02*
X10729705Y-13900079D01*
X10729705Y-13900079D02*
X10739229Y-13938174D01*
X10739229Y-13938174D02*
X10739229Y-13985793D01*
X10739229Y-13985793D02*
X10729705Y-14023888D01*
X10729705Y-14023888D02*
X10720182Y-14042936D01*
X10720182Y-14042936D02*
X10710658Y-14052460D01*
X10710658Y-14052460D02*
X10691610Y-14061984D01*
X10691610Y-14061984D02*
X10672563Y-14061984D01*
X10672563Y-14061984D02*
X10653515Y-14052460D01*
X10653515Y-14052460D02*
X10643991Y-14042936D01*
X10643991Y-14042936D02*
X10634467Y-14023888D01*
X10634467Y-14023888D02*
X10624944Y-13985793D01*
X10624944Y-13985793D02*
X10624944Y-13938174D01*
X10624944Y-13938174D02*
X10634467Y-13900079D01*
X10634467Y-13900079D02*
X10643991Y-13881031D01*
X10643991Y-13881031D02*
X10653515Y-13871508D01*
X10653515Y-13871508D02*
X10672563Y-13861984D01*
X10863039Y-13861984D02*
X10882086Y-13861984D01*
X10882086Y-13861984D02*
X10901134Y-13871508D01*
X10901134Y-13871508D02*
X10910658Y-13881031D01*
X10910658Y-13881031D02*
X10920182Y-13900079D01*
X10920182Y-13900079D02*
X10929705Y-13938174D01*
X10929705Y-13938174D02*
X10929705Y-13985793D01*
X10929705Y-13985793D02*
X10920182Y-14023888D01*
X10920182Y-14023888D02*
X10910658Y-14042936D01*
X10910658Y-14042936D02*
X10901134Y-14052460D01*
X10901134Y-14052460D02*
X10882086Y-14061984D01*
X10882086Y-14061984D02*
X10863039Y-14061984D01*
X10863039Y-14061984D02*
X10843991Y-14052460D01*
X10843991Y-14052460D02*
X10834467Y-14042936D01*
X10834467Y-14042936D02*
X10824944Y-14023888D01*
X10824944Y-14023888D02*
X10815420Y-13985793D01*
X10815420Y-13985793D02*
X10815420Y-13938174D01*
X10815420Y-13938174D02*
X10824944Y-13900079D01*
X10824944Y-13900079D02*
X10834467Y-13881031D01*
X10834467Y-13881031D02*
X10843991Y-13871508D01*
X10843991Y-13871508D02*
X10863039Y-13861984D01*
X11015420Y-14061984D02*
X11015420Y-13928650D01*
X11015420Y-13947698D02*
X11024944Y-13938174D01*
X11024944Y-13938174D02*
X11043991Y-13928650D01*
X11043991Y-13928650D02*
X11072563Y-13928650D01*
X11072563Y-13928650D02*
X11091610Y-13938174D01*
X11091610Y-13938174D02*
X11101134Y-13957222D01*
X11101134Y-13957222D02*
X11101134Y-14061984D01*
X11101134Y-13957222D02*
X11110658Y-13938174D01*
X11110658Y-13938174D02*
X11129705Y-13928650D01*
X11129705Y-13928650D02*
X11158277Y-13928650D01*
X11158277Y-13928650D02*
X11177325Y-13938174D01*
X11177325Y-13938174D02*
X11186848Y-13957222D01*
X11186848Y-13957222D02*
X11186848Y-14061984D01*
X11282086Y-14061984D02*
X11282086Y-13928650D01*
X11282086Y-13947698D02*
X11291610Y-13938174D01*
X11291610Y-13938174D02*
X11310658Y-13928650D01*
X11310658Y-13928650D02*
X11339229Y-13928650D01*
X11339229Y-13928650D02*
X11358277Y-13938174D01*
X11358277Y-13938174D02*
X11367801Y-13957222D01*
X11367801Y-13957222D02*
X11367801Y-14061984D01*
X11367801Y-13957222D02*
X11377324Y-13938174D01*
X11377324Y-13938174D02*
X11396372Y-13928650D01*
X11396372Y-13928650D02*
X11424943Y-13928650D01*
X11424943Y-13928650D02*
X11443991Y-13938174D01*
X11443991Y-13938174D02*
X11453515Y-13957222D01*
X11453515Y-13957222D02*
X11453515Y-14061984D01*
X11843991Y-13852460D02*
X11672563Y-14109603D01*
X12101134Y-13861984D02*
X12120182Y-13861984D01*
X12120182Y-13861984D02*
X12139229Y-13871508D01*
X12139229Y-13871508D02*
X12148753Y-13881031D01*
X12148753Y-13881031D02*
X12158277Y-13900079D01*
X12158277Y-13900079D02*
X12167801Y-13938174D01*
X12167801Y-13938174D02*
X12167801Y-13985793D01*
X12167801Y-13985793D02*
X12158277Y-14023888D01*
X12158277Y-14023888D02*
X12148753Y-14042936D01*
X12148753Y-14042936D02*
X12139229Y-14052460D01*
X12139229Y-14052460D02*
X12120182Y-14061984D01*
X12120182Y-14061984D02*
X12101134Y-14061984D01*
X12101134Y-14061984D02*
X12082086Y-14052460D01*
X12082086Y-14052460D02*
X12072563Y-14042936D01*
X12072563Y-14042936D02*
X12063039Y-14023888D01*
X12063039Y-14023888D02*
X12053515Y-13985793D01*
X12053515Y-13985793D02*
X12053515Y-13938174D01*
X12053515Y-13938174D02*
X12063039Y-13900079D01*
X12063039Y-13900079D02*
X12072563Y-13881031D01*
X12072563Y-13881031D02*
X12082086Y-13871508D01*
X12082086Y-13871508D02*
X12101134Y-13861984D01*
X12253515Y-14042936D02*
X12263039Y-14052460D01*
X12263039Y-14052460D02*
X12253515Y-14061984D01*
X12253515Y-14061984D02*
X12243991Y-14052460D01*
X12243991Y-14052460D02*
X12253515Y-14042936D01*
X12253515Y-14042936D02*
X12253515Y-14061984D01*
X12386848Y-13861984D02*
X12405896Y-13861984D01*
X12405896Y-13861984D02*
X12424944Y-13871508D01*
X12424944Y-13871508D02*
X12434467Y-13881031D01*
X12434467Y-13881031D02*
X12443991Y-13900079D01*
X12443991Y-13900079D02*
X12453515Y-13938174D01*
X12453515Y-13938174D02*
X12453515Y-13985793D01*
X12453515Y-13985793D02*
X12443991Y-14023888D01*
X12443991Y-14023888D02*
X12434467Y-14042936D01*
X12434467Y-14042936D02*
X12424944Y-14052460D01*
X12424944Y-14052460D02*
X12405896Y-14061984D01*
X12405896Y-14061984D02*
X12386848Y-14061984D01*
X12386848Y-14061984D02*
X12367801Y-14052460D01*
X12367801Y-14052460D02*
X12358277Y-14042936D01*
X12358277Y-14042936D02*
X12348753Y-14023888D01*
X12348753Y-14023888D02*
X12339229Y-13985793D01*
X12339229Y-13985793D02*
X12339229Y-13938174D01*
X12339229Y-13938174D02*
X12348753Y-13900079D01*
X12348753Y-13900079D02*
X12358277Y-13881031D01*
X12358277Y-13881031D02*
X12367801Y-13871508D01*
X12367801Y-13871508D02*
X12386848Y-13861984D01*
X12643991Y-14061984D02*
X12529706Y-14061984D01*
X12586848Y-14061984D02*
X12586848Y-13861984D01*
X12586848Y-13861984D02*
X12567801Y-13890555D01*
X12567801Y-13890555D02*
X12548753Y-13909603D01*
X12548753Y-13909603D02*
X12529706Y-13919127D01*
X12824944Y-13861984D02*
X12729706Y-13861984D01*
X12729706Y-13861984D02*
X12720182Y-13957222D01*
X12720182Y-13957222D02*
X12729706Y-13947698D01*
X12729706Y-13947698D02*
X12748753Y-13938174D01*
X12748753Y-13938174D02*
X12796372Y-13938174D01*
X12796372Y-13938174D02*
X12815420Y-13947698D01*
X12815420Y-13947698D02*
X12824944Y-13957222D01*
X12824944Y-13957222D02*
X12834467Y-13976269D01*
X12834467Y-13976269D02*
X12834467Y-14023888D01*
X12834467Y-14023888D02*
X12824944Y-14042936D01*
X12824944Y-14042936D02*
X12815420Y-14052460D01*
X12815420Y-14052460D02*
X12796372Y-14061984D01*
X12796372Y-14061984D02*
X12748753Y-14061984D01*
X12748753Y-14061984D02*
X12729706Y-14052460D01*
X12729706Y-14052460D02*
X12720182Y-14042936D01*
X12901134Y-13861984D02*
X13034467Y-13861984D01*
X13034467Y-13861984D02*
X12948753Y-14061984D01*
X13101134Y-13861984D02*
X13101134Y-13900079D01*
X13177325Y-13861984D02*
X13177325Y-13900079D01*
X13472563Y-14138174D02*
X13463039Y-14128650D01*
X13463039Y-14128650D02*
X13443991Y-14100079D01*
X13443991Y-14100079D02*
X13434468Y-14081031D01*
X13434468Y-14081031D02*
X13424944Y-14052460D01*
X13424944Y-14052460D02*
X13415420Y-14004841D01*
X13415420Y-14004841D02*
X13415420Y-13966746D01*
X13415420Y-13966746D02*
X13424944Y-13919127D01*
X13424944Y-13919127D02*
X13434468Y-13890555D01*
X13434468Y-13890555D02*
X13443991Y-13871508D01*
X13443991Y-13871508D02*
X13463039Y-13842936D01*
X13463039Y-13842936D02*
X13472563Y-13833412D01*
X13539229Y-13881031D02*
X13548753Y-13871508D01*
X13548753Y-13871508D02*
X13567801Y-13861984D01*
X13567801Y-13861984D02*
X13615420Y-13861984D01*
X13615420Y-13861984D02*
X13634468Y-13871508D01*
X13634468Y-13871508D02*
X13643991Y-13881031D01*
X13643991Y-13881031D02*
X13653515Y-13900079D01*
X13653515Y-13900079D02*
X13653515Y-13919127D01*
X13653515Y-13919127D02*
X13643991Y-13947698D01*
X13643991Y-13947698D02*
X13529706Y-14061984D01*
X13529706Y-14061984D02*
X13653515Y-14061984D01*
X13729706Y-13881031D02*
X13739229Y-13871508D01*
X13739229Y-13871508D02*
X13758277Y-13861984D01*
X13758277Y-13861984D02*
X13805896Y-13861984D01*
X13805896Y-13861984D02*
X13824944Y-13871508D01*
X13824944Y-13871508D02*
X13834468Y-13881031D01*
X13834468Y-13881031D02*
X13843991Y-13900079D01*
X13843991Y-13900079D02*
X13843991Y-13919127D01*
X13843991Y-13919127D02*
X13834468Y-13947698D01*
X13834468Y-13947698D02*
X13720182Y-14061984D01*
X13720182Y-14061984D02*
X13843991Y-14061984D01*
X14082087Y-14061984D02*
X14082087Y-13861984D01*
X14167801Y-14061984D02*
X14167801Y-13957222D01*
X14167801Y-13957222D02*
X14158277Y-13938174D01*
X14158277Y-13938174D02*
X14139230Y-13928650D01*
X14139230Y-13928650D02*
X14110658Y-13928650D01*
X14110658Y-13928650D02*
X14091610Y-13938174D01*
X14091610Y-13938174D02*
X14082087Y-13947698D01*
X14291610Y-14061984D02*
X14272563Y-14052460D01*
X14272563Y-14052460D02*
X14263039Y-14042936D01*
X14263039Y-14042936D02*
X14253515Y-14023888D01*
X14253515Y-14023888D02*
X14253515Y-13966746D01*
X14253515Y-13966746D02*
X14263039Y-13947698D01*
X14263039Y-13947698D02*
X14272563Y-13938174D01*
X14272563Y-13938174D02*
X14291610Y-13928650D01*
X14291610Y-13928650D02*
X14320182Y-13928650D01*
X14320182Y-13928650D02*
X14339230Y-13938174D01*
X14339230Y-13938174D02*
X14348753Y-13947698D01*
X14348753Y-13947698D02*
X14358277Y-13966746D01*
X14358277Y-13966746D02*
X14358277Y-14023888D01*
X14358277Y-14023888D02*
X14348753Y-14042936D01*
X14348753Y-14042936D02*
X14339230Y-14052460D01*
X14339230Y-14052460D02*
X14320182Y-14061984D01*
X14320182Y-14061984D02*
X14291610Y-14061984D01*
X14472563Y-14061984D02*
X14453515Y-14052460D01*
X14453515Y-14052460D02*
X14443991Y-14033412D01*
X14443991Y-14033412D02*
X14443991Y-13861984D01*
X14624944Y-14052460D02*
X14605896Y-14061984D01*
X14605896Y-14061984D02*
X14567801Y-14061984D01*
X14567801Y-14061984D02*
X14548753Y-14052460D01*
X14548753Y-14052460D02*
X14539230Y-14033412D01*
X14539230Y-14033412D02*
X14539230Y-13957222D01*
X14539230Y-13957222D02*
X14548753Y-13938174D01*
X14548753Y-13938174D02*
X14567801Y-13928650D01*
X14567801Y-13928650D02*
X14605896Y-13928650D01*
X14605896Y-13928650D02*
X14624944Y-13938174D01*
X14624944Y-13938174D02*
X14634468Y-13957222D01*
X14634468Y-13957222D02*
X14634468Y-13976269D01*
X14634468Y-13976269D02*
X14539230Y-13995317D01*
X14710658Y-14052460D02*
X14729706Y-14061984D01*
X14729706Y-14061984D02*
X14767801Y-14061984D01*
X14767801Y-14061984D02*
X14786849Y-14052460D01*
X14786849Y-14052460D02*
X14796372Y-14033412D01*
X14796372Y-14033412D02*
X14796372Y-14023888D01*
X14796372Y-14023888D02*
X14786849Y-14004841D01*
X14786849Y-14004841D02*
X14767801Y-13995317D01*
X14767801Y-13995317D02*
X14739230Y-13995317D01*
X14739230Y-13995317D02*
X14720182Y-13985793D01*
X14720182Y-13985793D02*
X14710658Y-13966746D01*
X14710658Y-13966746D02*
X14710658Y-13957222D01*
X14710658Y-13957222D02*
X14720182Y-13938174D01*
X14720182Y-13938174D02*
X14739230Y-13928650D01*
X14739230Y-13928650D02*
X14767801Y-13928650D01*
X14767801Y-13928650D02*
X14786849Y-13938174D01*
X14863039Y-14138174D02*
X14872563Y-14128650D01*
X14872563Y-14128650D02*
X14891611Y-14100079D01*
X14891611Y-14100079D02*
X14901134Y-14081031D01*
X14901134Y-14081031D02*
X14910658Y-14052460D01*
X14910658Y-14052460D02*
X14920182Y-14004841D01*
X14920182Y-14004841D02*
X14920182Y-13966746D01*
X14920182Y-13966746D02*
X14910658Y-13919127D01*
X14910658Y-13919127D02*
X14901134Y-13890555D01*
X14901134Y-13890555D02*
X14891611Y-13871508D01*
X14891611Y-13871508D02*
X14872563Y-13842936D01*
X14872563Y-13842936D02*
X14863039Y-13833412D01*
D13*
X9885785Y-14262784D02*
X9885785Y-14206215D01*
X9829216Y-14206215D01*
X9829216Y-14262784D01*
X9885785Y-14262784D01*
D12*
X10196372Y-14125984D02*
X10215420Y-14125984D01*
X10215420Y-14125984D02*
X10234467Y-14135508D01*
X10234467Y-14135508D02*
X10243991Y-14145031D01*
X10243991Y-14145031D02*
X10253515Y-14164079D01*
X10253515Y-14164079D02*
X10263039Y-14202174D01*
X10263039Y-14202174D02*
X10263039Y-14249793D01*
X10263039Y-14249793D02*
X10253515Y-14287888D01*
X10253515Y-14287888D02*
X10243991Y-14306936D01*
X10243991Y-14306936D02*
X10234467Y-14316460D01*
X10234467Y-14316460D02*
X10215420Y-14325984D01*
X10215420Y-14325984D02*
X10196372Y-14325984D01*
X10196372Y-14325984D02*
X10177324Y-14316460D01*
X10177324Y-14316460D02*
X10167801Y-14306936D01*
X10167801Y-14306936D02*
X10158277Y-14287888D01*
X10158277Y-14287888D02*
X10148753Y-14249793D01*
X10148753Y-14249793D02*
X10148753Y-14202174D01*
X10148753Y-14202174D02*
X10158277Y-14164079D01*
X10158277Y-14164079D02*
X10167801Y-14145031D01*
X10167801Y-14145031D02*
X10177324Y-14135508D01*
X10177324Y-14135508D02*
X10196372Y-14125984D01*
X10348753Y-14306936D02*
X10358277Y-14316460D01*
X10358277Y-14316460D02*
X10348753Y-14325984D01*
X10348753Y-14325984D02*
X10339229Y-14316460D01*
X10339229Y-14316460D02*
X10348753Y-14306936D01*
X10348753Y-14306936D02*
X10348753Y-14325984D01*
X10472563Y-14211698D02*
X10453515Y-14202174D01*
X10453515Y-14202174D02*
X10443991Y-14192650D01*
X10443991Y-14192650D02*
X10434467Y-14173603D01*
X10434467Y-14173603D02*
X10434467Y-14164079D01*
X10434467Y-14164079D02*
X10443991Y-14145031D01*
X10443991Y-14145031D02*
X10453515Y-14135508D01*
X10453515Y-14135508D02*
X10472563Y-14125984D01*
X10472563Y-14125984D02*
X10510658Y-14125984D01*
X10510658Y-14125984D02*
X10529705Y-14135508D01*
X10529705Y-14135508D02*
X10539229Y-14145031D01*
X10539229Y-14145031D02*
X10548753Y-14164079D01*
X10548753Y-14164079D02*
X10548753Y-14173603D01*
X10548753Y-14173603D02*
X10539229Y-14192650D01*
X10539229Y-14192650D02*
X10529705Y-14202174D01*
X10529705Y-14202174D02*
X10510658Y-14211698D01*
X10510658Y-14211698D02*
X10472563Y-14211698D01*
X10472563Y-14211698D02*
X10453515Y-14221222D01*
X10453515Y-14221222D02*
X10443991Y-14230746D01*
X10443991Y-14230746D02*
X10434467Y-14249793D01*
X10434467Y-14249793D02*
X10434467Y-14287888D01*
X10434467Y-14287888D02*
X10443991Y-14306936D01*
X10443991Y-14306936D02*
X10453515Y-14316460D01*
X10453515Y-14316460D02*
X10472563Y-14325984D01*
X10472563Y-14325984D02*
X10510658Y-14325984D01*
X10510658Y-14325984D02*
X10529705Y-14316460D01*
X10529705Y-14316460D02*
X10539229Y-14306936D01*
X10539229Y-14306936D02*
X10548753Y-14287888D01*
X10548753Y-14287888D02*
X10548753Y-14249793D01*
X10548753Y-14249793D02*
X10539229Y-14230746D01*
X10539229Y-14230746D02*
X10529705Y-14221222D01*
X10529705Y-14221222D02*
X10510658Y-14211698D01*
X10672563Y-14125984D02*
X10691610Y-14125984D01*
X10691610Y-14125984D02*
X10710658Y-14135508D01*
X10710658Y-14135508D02*
X10720182Y-14145031D01*
X10720182Y-14145031D02*
X10729705Y-14164079D01*
X10729705Y-14164079D02*
X10739229Y-14202174D01*
X10739229Y-14202174D02*
X10739229Y-14249793D01*
X10739229Y-14249793D02*
X10729705Y-14287888D01*
X10729705Y-14287888D02*
X10720182Y-14306936D01*
X10720182Y-14306936D02*
X10710658Y-14316460D01*
X10710658Y-14316460D02*
X10691610Y-14325984D01*
X10691610Y-14325984D02*
X10672563Y-14325984D01*
X10672563Y-14325984D02*
X10653515Y-14316460D01*
X10653515Y-14316460D02*
X10643991Y-14306936D01*
X10643991Y-14306936D02*
X10634467Y-14287888D01*
X10634467Y-14287888D02*
X10624944Y-14249793D01*
X10624944Y-14249793D02*
X10624944Y-14202174D01*
X10624944Y-14202174D02*
X10634467Y-14164079D01*
X10634467Y-14164079D02*
X10643991Y-14145031D01*
X10643991Y-14145031D02*
X10653515Y-14135508D01*
X10653515Y-14135508D02*
X10672563Y-14125984D01*
X10863039Y-14125984D02*
X10882086Y-14125984D01*
X10882086Y-14125984D02*
X10901134Y-14135508D01*
X10901134Y-14135508D02*
X10910658Y-14145031D01*
X10910658Y-14145031D02*
X10920182Y-14164079D01*
X10920182Y-14164079D02*
X10929705Y-14202174D01*
X10929705Y-14202174D02*
X10929705Y-14249793D01*
X10929705Y-14249793D02*
X10920182Y-14287888D01*
X10920182Y-14287888D02*
X10910658Y-14306936D01*
X10910658Y-14306936D02*
X10901134Y-14316460D01*
X10901134Y-14316460D02*
X10882086Y-14325984D01*
X10882086Y-14325984D02*
X10863039Y-14325984D01*
X10863039Y-14325984D02*
X10843991Y-14316460D01*
X10843991Y-14316460D02*
X10834467Y-14306936D01*
X10834467Y-14306936D02*
X10824944Y-14287888D01*
X10824944Y-14287888D02*
X10815420Y-14249793D01*
X10815420Y-14249793D02*
X10815420Y-14202174D01*
X10815420Y-14202174D02*
X10824944Y-14164079D01*
X10824944Y-14164079D02*
X10834467Y-14145031D01*
X10834467Y-14145031D02*
X10843991Y-14135508D01*
X10843991Y-14135508D02*
X10863039Y-14125984D01*
X11015420Y-14325984D02*
X11015420Y-14192650D01*
X11015420Y-14211698D02*
X11024944Y-14202174D01*
X11024944Y-14202174D02*
X11043991Y-14192650D01*
X11043991Y-14192650D02*
X11072563Y-14192650D01*
X11072563Y-14192650D02*
X11091610Y-14202174D01*
X11091610Y-14202174D02*
X11101134Y-14221222D01*
X11101134Y-14221222D02*
X11101134Y-14325984D01*
X11101134Y-14221222D02*
X11110658Y-14202174D01*
X11110658Y-14202174D02*
X11129705Y-14192650D01*
X11129705Y-14192650D02*
X11158277Y-14192650D01*
X11158277Y-14192650D02*
X11177325Y-14202174D01*
X11177325Y-14202174D02*
X11186848Y-14221222D01*
X11186848Y-14221222D02*
X11186848Y-14325984D01*
X11282086Y-14325984D02*
X11282086Y-14192650D01*
X11282086Y-14211698D02*
X11291610Y-14202174D01*
X11291610Y-14202174D02*
X11310658Y-14192650D01*
X11310658Y-14192650D02*
X11339229Y-14192650D01*
X11339229Y-14192650D02*
X11358277Y-14202174D01*
X11358277Y-14202174D02*
X11367801Y-14221222D01*
X11367801Y-14221222D02*
X11367801Y-14325984D01*
X11367801Y-14221222D02*
X11377324Y-14202174D01*
X11377324Y-14202174D02*
X11396372Y-14192650D01*
X11396372Y-14192650D02*
X11424943Y-14192650D01*
X11424943Y-14192650D02*
X11443991Y-14202174D01*
X11443991Y-14202174D02*
X11453515Y-14221222D01*
X11453515Y-14221222D02*
X11453515Y-14325984D01*
X11843991Y-14116460D02*
X11672563Y-14373603D01*
X12101134Y-14125984D02*
X12120182Y-14125984D01*
X12120182Y-14125984D02*
X12139229Y-14135508D01*
X12139229Y-14135508D02*
X12148753Y-14145031D01*
X12148753Y-14145031D02*
X12158277Y-14164079D01*
X12158277Y-14164079D02*
X12167801Y-14202174D01*
X12167801Y-14202174D02*
X12167801Y-14249793D01*
X12167801Y-14249793D02*
X12158277Y-14287888D01*
X12158277Y-14287888D02*
X12148753Y-14306936D01*
X12148753Y-14306936D02*
X12139229Y-14316460D01*
X12139229Y-14316460D02*
X12120182Y-14325984D01*
X12120182Y-14325984D02*
X12101134Y-14325984D01*
X12101134Y-14325984D02*
X12082086Y-14316460D01*
X12082086Y-14316460D02*
X12072563Y-14306936D01*
X12072563Y-14306936D02*
X12063039Y-14287888D01*
X12063039Y-14287888D02*
X12053515Y-14249793D01*
X12053515Y-14249793D02*
X12053515Y-14202174D01*
X12053515Y-14202174D02*
X12063039Y-14164079D01*
X12063039Y-14164079D02*
X12072563Y-14145031D01*
X12072563Y-14145031D02*
X12082086Y-14135508D01*
X12082086Y-14135508D02*
X12101134Y-14125984D01*
X12253515Y-14306936D02*
X12263039Y-14316460D01*
X12263039Y-14316460D02*
X12253515Y-14325984D01*
X12253515Y-14325984D02*
X12243991Y-14316460D01*
X12243991Y-14316460D02*
X12253515Y-14306936D01*
X12253515Y-14306936D02*
X12253515Y-14325984D01*
X12386848Y-14125984D02*
X12405896Y-14125984D01*
X12405896Y-14125984D02*
X12424944Y-14135508D01*
X12424944Y-14135508D02*
X12434467Y-14145031D01*
X12434467Y-14145031D02*
X12443991Y-14164079D01*
X12443991Y-14164079D02*
X12453515Y-14202174D01*
X12453515Y-14202174D02*
X12453515Y-14249793D01*
X12453515Y-14249793D02*
X12443991Y-14287888D01*
X12443991Y-14287888D02*
X12434467Y-14306936D01*
X12434467Y-14306936D02*
X12424944Y-14316460D01*
X12424944Y-14316460D02*
X12405896Y-14325984D01*
X12405896Y-14325984D02*
X12386848Y-14325984D01*
X12386848Y-14325984D02*
X12367801Y-14316460D01*
X12367801Y-14316460D02*
X12358277Y-14306936D01*
X12358277Y-14306936D02*
X12348753Y-14287888D01*
X12348753Y-14287888D02*
X12339229Y-14249793D01*
X12339229Y-14249793D02*
X12339229Y-14202174D01*
X12339229Y-14202174D02*
X12348753Y-14164079D01*
X12348753Y-14164079D02*
X12358277Y-14145031D01*
X12358277Y-14145031D02*
X12367801Y-14135508D01*
X12367801Y-14135508D02*
X12386848Y-14125984D01*
X12520182Y-14125984D02*
X12643991Y-14125984D01*
X12643991Y-14125984D02*
X12577325Y-14202174D01*
X12577325Y-14202174D02*
X12605896Y-14202174D01*
X12605896Y-14202174D02*
X12624944Y-14211698D01*
X12624944Y-14211698D02*
X12634467Y-14221222D01*
X12634467Y-14221222D02*
X12643991Y-14240269D01*
X12643991Y-14240269D02*
X12643991Y-14287888D01*
X12643991Y-14287888D02*
X12634467Y-14306936D01*
X12634467Y-14306936D02*
X12624944Y-14316460D01*
X12624944Y-14316460D02*
X12605896Y-14325984D01*
X12605896Y-14325984D02*
X12548753Y-14325984D01*
X12548753Y-14325984D02*
X12529706Y-14316460D01*
X12529706Y-14316460D02*
X12520182Y-14306936D01*
X12834467Y-14325984D02*
X12720182Y-14325984D01*
X12777325Y-14325984D02*
X12777325Y-14125984D01*
X12777325Y-14125984D02*
X12758277Y-14154555D01*
X12758277Y-14154555D02*
X12739229Y-14173603D01*
X12739229Y-14173603D02*
X12720182Y-14183127D01*
X13015420Y-14125984D02*
X12920182Y-14125984D01*
X12920182Y-14125984D02*
X12910658Y-14221222D01*
X12910658Y-14221222D02*
X12920182Y-14211698D01*
X12920182Y-14211698D02*
X12939229Y-14202174D01*
X12939229Y-14202174D02*
X12986848Y-14202174D01*
X12986848Y-14202174D02*
X13005896Y-14211698D01*
X13005896Y-14211698D02*
X13015420Y-14221222D01*
X13015420Y-14221222D02*
X13024944Y-14240269D01*
X13024944Y-14240269D02*
X13024944Y-14287888D01*
X13024944Y-14287888D02*
X13015420Y-14306936D01*
X13015420Y-14306936D02*
X13005896Y-14316460D01*
X13005896Y-14316460D02*
X12986848Y-14325984D01*
X12986848Y-14325984D02*
X12939229Y-14325984D01*
X12939229Y-14325984D02*
X12920182Y-14316460D01*
X12920182Y-14316460D02*
X12910658Y-14306936D01*
X13101134Y-14125984D02*
X13101134Y-14164079D01*
X13177325Y-14125984D02*
X13177325Y-14164079D01*
X13472563Y-14402174D02*
X13463039Y-14392650D01*
X13463039Y-14392650D02*
X13443991Y-14364079D01*
X13443991Y-14364079D02*
X13434468Y-14345031D01*
X13434468Y-14345031D02*
X13424944Y-14316460D01*
X13424944Y-14316460D02*
X13415420Y-14268841D01*
X13415420Y-14268841D02*
X13415420Y-14230746D01*
X13415420Y-14230746D02*
X13424944Y-14183127D01*
X13424944Y-14183127D02*
X13434468Y-14154555D01*
X13434468Y-14154555D02*
X13443991Y-14135508D01*
X13443991Y-14135508D02*
X13463039Y-14106936D01*
X13463039Y-14106936D02*
X13472563Y-14097412D01*
X13653515Y-14325984D02*
X13539229Y-14325984D01*
X13596372Y-14325984D02*
X13596372Y-14125984D01*
X13596372Y-14125984D02*
X13577325Y-14154555D01*
X13577325Y-14154555D02*
X13558277Y-14173603D01*
X13558277Y-14173603D02*
X13539229Y-14183127D01*
X13767801Y-14211698D02*
X13748753Y-14202174D01*
X13748753Y-14202174D02*
X13739229Y-14192650D01*
X13739229Y-14192650D02*
X13729706Y-14173603D01*
X13729706Y-14173603D02*
X13729706Y-14164079D01*
X13729706Y-14164079D02*
X13739229Y-14145031D01*
X13739229Y-14145031D02*
X13748753Y-14135508D01*
X13748753Y-14135508D02*
X13767801Y-14125984D01*
X13767801Y-14125984D02*
X13805896Y-14125984D01*
X13805896Y-14125984D02*
X13824944Y-14135508D01*
X13824944Y-14135508D02*
X13834468Y-14145031D01*
X13834468Y-14145031D02*
X13843991Y-14164079D01*
X13843991Y-14164079D02*
X13843991Y-14173603D01*
X13843991Y-14173603D02*
X13834468Y-14192650D01*
X13834468Y-14192650D02*
X13824944Y-14202174D01*
X13824944Y-14202174D02*
X13805896Y-14211698D01*
X13805896Y-14211698D02*
X13767801Y-14211698D01*
X13767801Y-14211698D02*
X13748753Y-14221222D01*
X13748753Y-14221222D02*
X13739229Y-14230746D01*
X13739229Y-14230746D02*
X13729706Y-14249793D01*
X13729706Y-14249793D02*
X13729706Y-14287888D01*
X13729706Y-14287888D02*
X13739229Y-14306936D01*
X13739229Y-14306936D02*
X13748753Y-14316460D01*
X13748753Y-14316460D02*
X13767801Y-14325984D01*
X13767801Y-14325984D02*
X13805896Y-14325984D01*
X13805896Y-14325984D02*
X13824944Y-14316460D01*
X13824944Y-14316460D02*
X13834468Y-14306936D01*
X13834468Y-14306936D02*
X13843991Y-14287888D01*
X13843991Y-14287888D02*
X13843991Y-14249793D01*
X13843991Y-14249793D02*
X13834468Y-14230746D01*
X13834468Y-14230746D02*
X13824944Y-14221222D01*
X13824944Y-14221222D02*
X13805896Y-14211698D01*
X14082087Y-14325984D02*
X14082087Y-14125984D01*
X14167801Y-14325984D02*
X14167801Y-14221222D01*
X14167801Y-14221222D02*
X14158277Y-14202174D01*
X14158277Y-14202174D02*
X14139230Y-14192650D01*
X14139230Y-14192650D02*
X14110658Y-14192650D01*
X14110658Y-14192650D02*
X14091610Y-14202174D01*
X14091610Y-14202174D02*
X14082087Y-14211698D01*
X14291610Y-14325984D02*
X14272563Y-14316460D01*
X14272563Y-14316460D02*
X14263039Y-14306936D01*
X14263039Y-14306936D02*
X14253515Y-14287888D01*
X14253515Y-14287888D02*
X14253515Y-14230746D01*
X14253515Y-14230746D02*
X14263039Y-14211698D01*
X14263039Y-14211698D02*
X14272563Y-14202174D01*
X14272563Y-14202174D02*
X14291610Y-14192650D01*
X14291610Y-14192650D02*
X14320182Y-14192650D01*
X14320182Y-14192650D02*
X14339230Y-14202174D01*
X14339230Y-14202174D02*
X14348753Y-14211698D01*
X14348753Y-14211698D02*
X14358277Y-14230746D01*
X14358277Y-14230746D02*
X14358277Y-14287888D01*
X14358277Y-14287888D02*
X14348753Y-14306936D01*
X14348753Y-14306936D02*
X14339230Y-14316460D01*
X14339230Y-14316460D02*
X14320182Y-14325984D01*
X14320182Y-14325984D02*
X14291610Y-14325984D01*
X14472563Y-14325984D02*
X14453515Y-14316460D01*
X14453515Y-14316460D02*
X14443991Y-14297412D01*
X14443991Y-14297412D02*
X14443991Y-14125984D01*
X14624944Y-14316460D02*
X14605896Y-14325984D01*
X14605896Y-14325984D02*
X14567801Y-14325984D01*
X14567801Y-14325984D02*
X14548753Y-14316460D01*
X14548753Y-14316460D02*
X14539230Y-14297412D01*
X14539230Y-14297412D02*
X14539230Y-14221222D01*
X14539230Y-14221222D02*
X14548753Y-14202174D01*
X14548753Y-14202174D02*
X14567801Y-14192650D01*
X14567801Y-14192650D02*
X14605896Y-14192650D01*
X14605896Y-14192650D02*
X14624944Y-14202174D01*
X14624944Y-14202174D02*
X14634468Y-14221222D01*
X14634468Y-14221222D02*
X14634468Y-14240269D01*
X14634468Y-14240269D02*
X14539230Y-14259317D01*
X14710658Y-14316460D02*
X14729706Y-14325984D01*
X14729706Y-14325984D02*
X14767801Y-14325984D01*
X14767801Y-14325984D02*
X14786849Y-14316460D01*
X14786849Y-14316460D02*
X14796372Y-14297412D01*
X14796372Y-14297412D02*
X14796372Y-14287888D01*
X14796372Y-14287888D02*
X14786849Y-14268841D01*
X14786849Y-14268841D02*
X14767801Y-14259317D01*
X14767801Y-14259317D02*
X14739230Y-14259317D01*
X14739230Y-14259317D02*
X14720182Y-14249793D01*
X14720182Y-14249793D02*
X14710658Y-14230746D01*
X14710658Y-14230746D02*
X14710658Y-14221222D01*
X14710658Y-14221222D02*
X14720182Y-14202174D01*
X14720182Y-14202174D02*
X14739230Y-14192650D01*
X14739230Y-14192650D02*
X14767801Y-14192650D01*
X14767801Y-14192650D02*
X14786849Y-14202174D01*
X14863039Y-14402174D02*
X14872563Y-14392650D01*
X14872563Y-14392650D02*
X14891611Y-14364079D01*
X14891611Y-14364079D02*
X14901134Y-14345031D01*
X14901134Y-14345031D02*
X14910658Y-14316460D01*
X14910658Y-14316460D02*
X14920182Y-14268841D01*
X14920182Y-14268841D02*
X14920182Y-14230746D01*
X14920182Y-14230746D02*
X14910658Y-14183127D01*
X14910658Y-14183127D02*
X14901134Y-14154555D01*
X14901134Y-14154555D02*
X14891611Y-14135508D01*
X14891611Y-14135508D02*
X14872563Y-14106936D01*
X14872563Y-14106936D02*
X14863039Y-14097412D01*
M02*
