G04 #@! TF.GenerationSoftware,KiCad,Pcbnew,9.0.6*
G04 #@! TF.CreationDate,2026-01-30T18:58:32+13:00*
G04 #@! TF.ProjectId,Gateway_PCB_Argon_One_V5,47617465-7761-4795-9f50-43425f417267,rev?*
G04 #@! TF.SameCoordinates,Original*
G04 #@! TF.FileFunction,Soldermask,Bot*
G04 #@! TF.FilePolarity,Negative*
%FSLAX46Y46*%
G04 Gerber Fmt 4.6, Leading zero omitted, Abs format (unit mm)*
G04 Created by KiCad (PCBNEW 9.0.6) date 2026-01-30 18:58:32*
%MOMM*%
%LPD*%
G01*
G04 APERTURE LIST*
G04 Aperture macros list*
%AMFreePoly0*
4,1,13,0.056640,-0.015230,0.084770,-0.043360,0.099990,-0.080110,0.099980,-0.100000,0.099990,-0.100010,0.099990,-0.750000,-0.950010,-0.750000,-0.950010,-0.080110,-0.934790,-0.043350,-0.906660,-0.015220,-0.869910,0.000000,0.019890,0.000000,0.056640,-0.015230,0.056640,-0.015230,$1*%
G04 Aperture macros list end*
%ADD10R,1.700000X1.700000*%
%ADD11C,1.700000*%
%ADD12C,1.000000*%
%ADD13C,1.100000*%
%ADD14C,1.045000*%
%ADD15FreePoly0,90.000000*%
G04 APERTURE END LIST*
G04 #@! TO.C,J1*
G36*
X66920000Y-74010010D02*
G01*
X67670000Y-74010010D01*
X67670000Y-73560010D01*
X66920000Y-73560010D01*
X66920000Y-74010010D01*
G37*
G36*
X66920000Y-75280010D02*
G01*
X67670000Y-75280010D01*
X67670000Y-74830010D01*
X66920000Y-74830010D01*
X66920000Y-75280010D01*
G37*
G36*
X66920000Y-76550010D02*
G01*
X67670000Y-76550010D01*
X67670000Y-76100010D01*
X66920000Y-76100010D01*
X66920000Y-76550010D01*
G37*
G36*
X66920000Y-77820010D02*
G01*
X67670000Y-77820010D01*
X67670000Y-77370010D01*
X66920000Y-77370010D01*
X66920000Y-77820010D01*
G37*
G36*
X66920000Y-79090010D02*
G01*
X67670000Y-79090010D01*
X67670000Y-78640010D01*
X66920000Y-78640010D01*
X66920000Y-79090010D01*
G37*
G36*
X66920000Y-80360010D02*
G01*
X67670000Y-80360010D01*
X67670000Y-79910010D01*
X66920000Y-79910010D01*
X66920000Y-80360010D01*
G37*
G36*
X66920000Y-81630010D02*
G01*
X67670000Y-81630010D01*
X67670000Y-81180010D01*
X66920000Y-81180010D01*
X66920000Y-81630010D01*
G37*
G36*
X66920000Y-82975010D02*
G01*
X67670000Y-82975010D01*
X67670000Y-82625010D01*
X66920000Y-82625010D01*
X66920000Y-82975010D01*
G37*
G36*
X67670000Y-82440010D02*
G01*
X66920000Y-82440010D01*
X66920000Y-82655010D01*
X67670000Y-82655010D01*
X67670000Y-82440010D01*
G37*
G04 #@! TD*
D10*
G04 #@! TO.C,J2*
X102430000Y-72330000D03*
D11*
X104970000Y-72330000D03*
X102430000Y-74870000D03*
X104970000Y-74870000D03*
X102430000Y-77410000D03*
X104970000Y-77410000D03*
X102430000Y-79950000D03*
X104970000Y-79950000D03*
X102430000Y-82490000D03*
X104970000Y-82490000D03*
X102430000Y-85030000D03*
X104970000Y-85030000D03*
D10*
X102430000Y-87570000D03*
D11*
X104970000Y-87570000D03*
X102430000Y-90110000D03*
X104970000Y-90110000D03*
X102430000Y-92650000D03*
X104970000Y-92650000D03*
X102430000Y-95190000D03*
X104970000Y-95190000D03*
X102430000Y-97730000D03*
X104970000Y-97730000D03*
X102430000Y-100270000D03*
X104970000Y-100270000D03*
G04 #@! TD*
D12*
G04 #@! TO.C,J1*
X67670000Y-83305010D03*
D13*
X66170000Y-78225010D03*
D14*
X67670000Y-82035010D03*
D15*
X66920000Y-81610000D03*
D14*
X67670000Y-80765010D03*
D15*
X66920000Y-80340000D03*
D14*
X67670000Y-79495010D03*
D15*
X66920000Y-79070000D03*
D14*
X67670000Y-76955010D03*
D15*
X66920000Y-76530000D03*
D14*
X67670000Y-75685010D03*
D15*
X66920000Y-75260000D03*
D14*
X67670000Y-74415010D03*
D15*
X66920000Y-73990000D03*
G04 #@! TD*
M02*
