G04 #@! TF.GenerationSoftware,KiCad,Pcbnew,9.0.6*
G04 #@! TF.CreationDate,2026-01-30T18:58:32+13:00*
G04 #@! TF.ProjectId,Gateway_PCB_Argon_One_V5,47617465-7761-4795-9f50-43425f417267,rev?*
G04 #@! TF.SameCoordinates,Original*
G04 #@! TF.FileFunction,Copper,L2,Bot*
G04 #@! TF.FilePolarity,Positive*
%FSLAX46Y46*%
G04 Gerber Fmt 4.6, Leading zero omitted, Abs format (unit mm)*
G04 Created by KiCad (PCBNEW 9.0.6) date 2026-01-30 18:58:32*
%MOMM*%
%LPD*%
G01*
G04 APERTURE LIST*
G04 Aperture macros list*
%AMFreePoly0*
4,1,13,0.056640,-0.015230,0.084770,-0.043360,0.099990,-0.080110,0.099980,-0.100000,0.099990,-0.100010,0.099990,-0.750000,-0.950010,-0.750000,-0.950010,-0.080110,-0.934790,-0.043350,-0.906660,-0.015220,-0.869910,0.000000,0.019890,0.000000,0.056640,-0.015230,0.056640,-0.015230,$1*%
G04 Aperture macros list end*
G04 #@! TA.AperFunction,ComponentPad*
%ADD10R,1.700000X1.700000*%
G04 #@! TD*
G04 #@! TA.AperFunction,ComponentPad*
%ADD11C,1.700000*%
G04 #@! TD*
G04 #@! TA.AperFunction,ComponentPad*
%ADD12C,1.045000*%
G04 #@! TD*
G04 #@! TA.AperFunction,SMDPad,CuDef*
%ADD13FreePoly0,90.000000*%
G04 #@! TD*
G04 #@! TA.AperFunction,ViaPad*
%ADD14C,0.600000*%
G04 #@! TD*
G04 #@! TA.AperFunction,Conductor*
%ADD15C,0.500000*%
G04 #@! TD*
G04 #@! TA.AperFunction,Conductor*
%ADD16C,0.200000*%
G04 #@! TD*
G04 APERTURE END LIST*
D10*
G04 #@! TO.P,J2,1,Pin_1*
G04 #@! TO.N,+3V3*
X102430000Y-72330000D03*
D11*
G04 #@! TO.P,J2,2,Pin_2*
G04 #@! TO.N,unconnected-(J2-Pin_2-Pad2)*
X104970000Y-72330000D03*
G04 #@! TO.P,J2,3,Pin_3*
G04 #@! TO.N,unconnected-(J2-Pin_3-Pad3)*
X102430000Y-74870000D03*
G04 #@! TO.P,J2,4,Pin_4*
G04 #@! TO.N,unconnected-(J2-Pin_4-Pad4)*
X104970000Y-74870000D03*
G04 #@! TO.P,J2,5,Pin_5*
G04 #@! TO.N,unconnected-(J2-Pin_5-Pad5)*
X102430000Y-77410000D03*
G04 #@! TO.P,J2,6,Pin_6*
G04 #@! TO.N,GND*
X104970000Y-77410000D03*
G04 #@! TO.P,J2,7,Pin_7*
G04 #@! TO.N,unconnected-(J2-Pin_7-Pad7)*
X102430000Y-79950000D03*
G04 #@! TO.P,J2,8,Pin_8*
G04 #@! TO.N,Net-(J2-Pin_24)*
X104970000Y-79950000D03*
G04 #@! TO.P,J2,9,Pin_9*
G04 #@! TO.N,GND*
X102430000Y-82490000D03*
G04 #@! TO.P,J2,10,Pin_10*
G04 #@! TO.N,Net-(J2-Pin_10)*
X104970000Y-82490000D03*
G04 #@! TO.P,J2,11,Pin_11*
G04 #@! TO.N,Net-(J2-Pin_11)*
X102430000Y-85030000D03*
G04 #@! TO.P,J2,12,Pin_12*
G04 #@! TO.N,Net-(J2-Pin_12)*
X104970000Y-85030000D03*
D10*
G04 #@! TO.P,J2,13,Pin_13*
G04 #@! TO.N,unconnected-(J2-Pin_13-Pad13)*
X102430000Y-87570000D03*
D11*
G04 #@! TO.P,J2,14,Pin_14*
G04 #@! TO.N,GND*
X104970000Y-87570000D03*
G04 #@! TO.P,J2,15,Pin_15*
G04 #@! TO.N,unconnected-(J2-Pin_15-Pad15)*
X102430000Y-90110000D03*
G04 #@! TO.P,J2,16,Pin_16*
G04 #@! TO.N,unconnected-(J2-Pin_16-Pad16)*
X104970000Y-90110000D03*
G04 #@! TO.P,J2,17,Pin_17*
G04 #@! TO.N,+3V3*
X102430000Y-92650000D03*
G04 #@! TO.P,J2,18,Pin_18*
G04 #@! TO.N,Net-(J2-Pin_12)*
X104970000Y-92650000D03*
G04 #@! TO.P,J2,19,Pin_19*
G04 #@! TO.N,Net-(J2-Pin_11)*
X102430000Y-95190000D03*
G04 #@! TO.P,J2,20,Pin_20*
G04 #@! TO.N,GND*
X104970000Y-95190000D03*
G04 #@! TO.P,J2,21,Pin_21*
G04 #@! TO.N,Net-(J2-Pin_10)*
X102430000Y-97730000D03*
G04 #@! TO.P,J2,22,Pin_22*
G04 #@! TO.N,unconnected-(J2-Pin_22-Pad22)*
X104970000Y-97730000D03*
G04 #@! TO.P,J2,23,Pin_23*
G04 #@! TO.N,unconnected-(J2-Pin_23-Pad23)*
X102430000Y-100270000D03*
G04 #@! TO.P,J2,24,Pin_24*
G04 #@! TO.N,Net-(J2-Pin_24)*
X104970000Y-100270000D03*
G04 #@! TD*
D12*
G04 #@! TO.P,J1,1*
G04 #@! TO.N,GND*
X67670000Y-82035010D03*
D13*
X66920000Y-81610000D03*
D12*
G04 #@! TO.P,J1,2*
G04 #@! TO.N,Net-(U1-SAPI_CTS)*
X67670000Y-80765010D03*
D13*
X66920000Y-80340000D03*
D12*
G04 #@! TO.P,J1,3*
G04 #@! TO.N,+3V3*
X67670000Y-79495010D03*
D13*
X66920000Y-79070000D03*
D12*
G04 #@! TO.P,J1,4*
G04 #@! TO.N,Net-(U1-SAPI_RX)*
X67670000Y-76955010D03*
D13*
X66920000Y-76530000D03*
D12*
G04 #@! TO.P,J1,5*
G04 #@! TO.N,Net-(U1-SAPI_TX)*
X67670000Y-75685010D03*
D13*
X66920000Y-75260000D03*
D12*
G04 #@! TO.P,J1,6*
G04 #@! TO.N,unconnected-(J1-Pad6)*
X67670000Y-74415010D03*
D13*
X66920000Y-73990000D03*
G04 #@! TD*
D14*
G04 #@! TO.N,+3V3*
X64680000Y-85870000D03*
G04 #@! TO.N,GND*
X66720000Y-70930000D03*
X106150000Y-102050000D03*
X56850000Y-74280000D03*
X105480000Y-67600000D03*
X87170000Y-64010000D03*
X55390000Y-81890000D03*
X92590000Y-65100000D03*
X61940000Y-78080000D03*
X55540000Y-84380000D03*
X52420000Y-63930000D03*
X59590000Y-67850000D03*
X92620000Y-63680000D03*
X72920000Y-65180000D03*
X61950000Y-84350000D03*
X72920000Y-63680000D03*
X103340000Y-68610000D03*
X97940000Y-69950000D03*
X52420000Y-88180000D03*
X99790000Y-102050000D03*
X92560000Y-69920000D03*
X65920000Y-88180000D03*
X72940000Y-69960000D03*
G04 #@! TO.N,Net-(J2-Pin_12)*
X64795000Y-83805000D03*
X69840000Y-68140000D03*
G04 #@! TO.N,Net-(U1-SAPI_RX)*
X65160000Y-81350000D03*
G04 #@! TO.N,Net-(J2-Pin_24)*
X63744669Y-70925331D03*
X105290000Y-69410000D03*
G04 #@! TD*
D15*
G04 #@! TO.N,+3V3*
X99900000Y-91322081D02*
X99900000Y-74860000D01*
X101227919Y-92650000D02*
X99900000Y-91322081D01*
X65960000Y-84590000D02*
X64680000Y-85870000D01*
X102430000Y-92650000D02*
X101227919Y-92650000D01*
X99900000Y-74860000D02*
X102430000Y-72330000D01*
X66919000Y-79495010D02*
X65960000Y-80454010D01*
X65960000Y-80454010D02*
X65960000Y-84590000D01*
D16*
G04 #@! TO.N,GND*
X106360000Y-88960000D02*
X104970000Y-87570000D01*
X103710000Y-83770000D02*
X103710000Y-86310000D01*
X103710000Y-86310000D02*
X104970000Y-87570000D01*
X104970000Y-95190000D02*
X106360000Y-93800000D01*
X106360000Y-93800000D02*
X106360000Y-88960000D01*
X102430000Y-82490000D02*
X103710000Y-83770000D01*
G04 #@! TO.N,Net-(J2-Pin_12)*
X64510000Y-83520000D02*
X64510000Y-71470000D01*
X64795000Y-83805000D02*
X64510000Y-83520000D01*
X64510000Y-71470000D02*
X67840000Y-68140000D01*
X67840000Y-68140000D02*
X69840000Y-68140000D01*
G04 #@! TO.N,Net-(U1-SAPI_RX)*
X65764990Y-76955010D02*
X65160000Y-77560000D01*
X67069000Y-76955010D02*
X65764990Y-76955010D01*
X65160000Y-77560000D02*
X65160000Y-81350000D01*
G04 #@! TO.N,Net-(J2-Pin_24)*
X103250000Y-67370000D02*
X105290000Y-69410000D01*
X101580000Y-91350000D02*
X103110000Y-91350000D01*
X100910000Y-90680000D02*
X101580000Y-91350000D01*
X103700000Y-99000000D02*
X104970000Y-100270000D01*
X103680000Y-81240000D02*
X101680000Y-81240000D01*
X103110000Y-91350000D02*
X103700000Y-91940000D01*
X103700000Y-91940000D02*
X103700000Y-99000000D01*
X100910000Y-82010000D02*
X100910000Y-90680000D01*
X104970000Y-79950000D02*
X103680000Y-81240000D01*
X101680000Y-81240000D02*
X100910000Y-82010000D01*
X67300000Y-67370000D02*
X103250000Y-67370000D01*
X63744669Y-70925331D02*
X67300000Y-67370000D01*
G04 #@! TD*
G04 #@! TA.AperFunction,Conductor*
G04 #@! TO.N,GND*
G36*
X101909056Y-62450185D02*
G01*
X101929522Y-62466643D01*
X106456402Y-66975379D01*
X106563005Y-67081554D01*
X106596613Y-67142810D01*
X106599500Y-67169411D01*
X106599500Y-102305500D01*
X106579815Y-102372539D01*
X106527011Y-102418294D01*
X106475500Y-102429500D01*
X99544500Y-102429500D01*
X99477461Y-102409815D01*
X99431706Y-102357011D01*
X99420500Y-102305500D01*
X99420500Y-92203311D01*
X99440185Y-92136272D01*
X99492989Y-92090517D01*
X99562147Y-92080573D01*
X99625703Y-92109598D01*
X99632181Y-92115630D01*
X100749505Y-93232954D01*
X100778977Y-93252645D01*
X100823189Y-93282186D01*
X100872424Y-93315084D01*
X100872425Y-93315084D01*
X100872426Y-93315085D01*
X100872428Y-93315086D01*
X100975588Y-93357816D01*
X101009006Y-93371658D01*
X101009010Y-93371658D01*
X101009011Y-93371659D01*
X101153998Y-93400500D01*
X101154001Y-93400500D01*
X101154002Y-93400500D01*
X101242779Y-93400500D01*
X101309818Y-93420185D01*
X101343097Y-93451615D01*
X101399892Y-93529788D01*
X101550213Y-93680109D01*
X101722182Y-93805050D01*
X101730946Y-93809516D01*
X101781742Y-93857491D01*
X101798536Y-93925312D01*
X101775998Y-93991447D01*
X101730946Y-94030484D01*
X101722182Y-94034949D01*
X101550213Y-94159890D01*
X101399890Y-94310213D01*
X101274951Y-94482179D01*
X101178444Y-94671585D01*
X101112753Y-94873760D01*
X101079500Y-95083713D01*
X101079500Y-95296286D01*
X101112753Y-95506239D01*
X101178444Y-95708414D01*
X101274951Y-95897820D01*
X101399890Y-96069786D01*
X101550213Y-96220109D01*
X101722182Y-96345050D01*
X101730946Y-96349516D01*
X101781742Y-96397491D01*
X101798536Y-96465312D01*
X101775998Y-96531447D01*
X101730946Y-96570484D01*
X101722182Y-96574949D01*
X101550213Y-96699890D01*
X101399890Y-96850213D01*
X101274951Y-97022179D01*
X101178444Y-97211585D01*
X101112753Y-97413760D01*
X101079500Y-97623713D01*
X101079500Y-97836286D01*
X101112753Y-98046239D01*
X101178444Y-98248414D01*
X101274951Y-98437820D01*
X101399890Y-98609786D01*
X101550213Y-98760109D01*
X101722182Y-98885050D01*
X101730946Y-98889516D01*
X101781742Y-98937491D01*
X101798536Y-99005312D01*
X101775998Y-99071447D01*
X101730946Y-99110484D01*
X101722182Y-99114949D01*
X101550213Y-99239890D01*
X101399890Y-99390213D01*
X101274951Y-99562179D01*
X101178444Y-99751585D01*
X101112753Y-99953760D01*
X101079500Y-100163713D01*
X101079500Y-100376286D01*
X101112753Y-100586239D01*
X101178444Y-100788414D01*
X101274951Y-100977820D01*
X101399890Y-101149786D01*
X101550213Y-101300109D01*
X101722179Y-101425048D01*
X101722181Y-101425049D01*
X101722184Y-101425051D01*
X101911588Y-101521557D01*
X102113757Y-101587246D01*
X102323713Y-101620500D01*
X102323714Y-101620500D01*
X102536286Y-101620500D01*
X102536287Y-101620500D01*
X102746243Y-101587246D01*
X102948412Y-101521557D01*
X103137816Y-101425051D01*
X103159789Y-101409086D01*
X103309786Y-101300109D01*
X103309788Y-101300106D01*
X103309792Y-101300104D01*
X103460104Y-101149792D01*
X103460106Y-101149788D01*
X103460109Y-101149786D01*
X103585048Y-100977820D01*
X103585047Y-100977820D01*
X103585051Y-100977816D01*
X103589514Y-100969054D01*
X103637488Y-100918259D01*
X103705308Y-100901463D01*
X103771444Y-100923999D01*
X103810486Y-100969056D01*
X103814951Y-100977820D01*
X103939890Y-101149786D01*
X104090213Y-101300109D01*
X104262179Y-101425048D01*
X104262181Y-101425049D01*
X104262184Y-101425051D01*
X104451588Y-101521557D01*
X104653757Y-101587246D01*
X104863713Y-101620500D01*
X104863714Y-101620500D01*
X105076286Y-101620500D01*
X105076287Y-101620500D01*
X105286243Y-101587246D01*
X105488412Y-101521557D01*
X105677816Y-101425051D01*
X105699789Y-101409086D01*
X105849786Y-101300109D01*
X105849788Y-101300106D01*
X105849792Y-101300104D01*
X106000104Y-101149792D01*
X106000106Y-101149788D01*
X106000109Y-101149786D01*
X106125048Y-100977820D01*
X106125047Y-100977820D01*
X106125051Y-100977816D01*
X106221557Y-100788412D01*
X106287246Y-100586243D01*
X106320500Y-100376287D01*
X106320500Y-100163713D01*
X106287246Y-99953757D01*
X106221557Y-99751588D01*
X106125051Y-99562184D01*
X106125049Y-99562181D01*
X106125048Y-99562179D01*
X106000109Y-99390213D01*
X105849786Y-99239890D01*
X105677820Y-99114951D01*
X105677115Y-99114591D01*
X105669054Y-99110485D01*
X105618259Y-99062512D01*
X105601463Y-98994692D01*
X105623999Y-98928556D01*
X105669054Y-98889515D01*
X105677816Y-98885051D01*
X105699789Y-98869086D01*
X105849786Y-98760109D01*
X105849788Y-98760106D01*
X105849792Y-98760104D01*
X106000104Y-98609792D01*
X106000106Y-98609788D01*
X106000109Y-98609786D01*
X106125048Y-98437820D01*
X106125047Y-98437820D01*
X106125051Y-98437816D01*
X106221557Y-98248412D01*
X106287246Y-98046243D01*
X106320500Y-97836287D01*
X106320500Y-97623713D01*
X106287246Y-97413757D01*
X106221557Y-97211588D01*
X106125051Y-97022184D01*
X106125049Y-97022181D01*
X106125048Y-97022179D01*
X106000109Y-96850213D01*
X105849786Y-96699890D01*
X105677817Y-96574949D01*
X105668504Y-96570204D01*
X105617707Y-96522230D01*
X105600912Y-96454409D01*
X105623449Y-96388274D01*
X105668507Y-96349232D01*
X105677555Y-96344622D01*
X105731716Y-96305270D01*
X105731717Y-96305270D01*
X105099409Y-95672962D01*
X105162993Y-95655925D01*
X105277007Y-95590099D01*
X105370099Y-95497007D01*
X105435925Y-95382993D01*
X105452962Y-95319408D01*
X106085270Y-95951717D01*
X106085270Y-95951716D01*
X106124622Y-95897554D01*
X106221095Y-95708217D01*
X106286757Y-95506130D01*
X106286757Y-95506127D01*
X106320000Y-95296246D01*
X106320000Y-95083753D01*
X106286757Y-94873872D01*
X106286757Y-94873869D01*
X106221095Y-94671782D01*
X106124624Y-94482449D01*
X106085270Y-94428282D01*
X106085269Y-94428282D01*
X105452962Y-95060590D01*
X105435925Y-94997007D01*
X105370099Y-94882993D01*
X105277007Y-94789901D01*
X105162993Y-94724075D01*
X105099407Y-94707036D01*
X105731716Y-94074728D01*
X105677547Y-94035373D01*
X105677547Y-94035372D01*
X105668500Y-94030763D01*
X105617706Y-93982788D01*
X105600912Y-93914966D01*
X105623451Y-93848832D01*
X105668508Y-93809793D01*
X105677816Y-93805051D01*
X105757007Y-93747515D01*
X105849786Y-93680109D01*
X105849788Y-93680106D01*
X105849792Y-93680104D01*
X106000104Y-93529792D01*
X106000106Y-93529788D01*
X106000109Y-93529786D01*
X106125048Y-93357820D01*
X106125047Y-93357820D01*
X106125051Y-93357816D01*
X106221557Y-93168412D01*
X106287246Y-92966243D01*
X106320500Y-92756287D01*
X106320500Y-92543713D01*
X106287246Y-92333757D01*
X106221557Y-92131588D01*
X106125051Y-91942184D01*
X106125049Y-91942181D01*
X106125048Y-91942179D01*
X106000109Y-91770213D01*
X105849786Y-91619890D01*
X105677820Y-91494951D01*
X105677115Y-91494591D01*
X105669054Y-91490485D01*
X105618259Y-91442512D01*
X105601463Y-91374692D01*
X105623999Y-91308556D01*
X105669054Y-91269515D01*
X105677816Y-91265051D01*
X105699789Y-91249086D01*
X105849786Y-91140109D01*
X105849788Y-91140106D01*
X105849792Y-91140104D01*
X106000104Y-90989792D01*
X106000106Y-90989788D01*
X106000109Y-90989786D01*
X106125048Y-90817820D01*
X106125047Y-90817820D01*
X106125051Y-90817816D01*
X106221557Y-90628412D01*
X106287246Y-90426243D01*
X106320500Y-90216287D01*
X106320500Y-90003713D01*
X106287246Y-89793757D01*
X106221557Y-89591588D01*
X106125051Y-89402184D01*
X106125049Y-89402181D01*
X106125048Y-89402179D01*
X106000109Y-89230213D01*
X105849786Y-89079890D01*
X105677817Y-88954949D01*
X105668504Y-88950204D01*
X105617707Y-88902230D01*
X105600912Y-88834409D01*
X105623449Y-88768274D01*
X105668507Y-88729232D01*
X105677555Y-88724622D01*
X105731716Y-88685270D01*
X105731717Y-88685270D01*
X105099408Y-88052962D01*
X105162993Y-88035925D01*
X105277007Y-87970099D01*
X105370099Y-87877007D01*
X105435925Y-87762993D01*
X105452962Y-87699408D01*
X106085270Y-88331717D01*
X106085270Y-88331716D01*
X106124622Y-88277554D01*
X106221095Y-88088217D01*
X106286757Y-87886130D01*
X106286757Y-87886127D01*
X106320000Y-87676246D01*
X106320000Y-87463753D01*
X106286757Y-87253872D01*
X106286757Y-87253869D01*
X106221095Y-87051782D01*
X106124624Y-86862449D01*
X106085270Y-86808282D01*
X106085269Y-86808282D01*
X105452962Y-87440590D01*
X105435925Y-87377007D01*
X105370099Y-87262993D01*
X105277007Y-87169901D01*
X105162993Y-87104075D01*
X105099409Y-87087037D01*
X105731716Y-86454728D01*
X105677547Y-86415373D01*
X105677547Y-86415372D01*
X105668500Y-86410763D01*
X105617706Y-86362788D01*
X105600912Y-86294966D01*
X105623451Y-86228832D01*
X105668508Y-86189793D01*
X105677816Y-86185051D01*
X105790061Y-86103501D01*
X105849786Y-86060109D01*
X105849788Y-86060106D01*
X105849792Y-86060104D01*
X106000104Y-85909792D01*
X106000106Y-85909788D01*
X106000109Y-85909786D01*
X106125048Y-85737820D01*
X106125047Y-85737820D01*
X106125051Y-85737816D01*
X106221557Y-85548412D01*
X106287246Y-85346243D01*
X106320500Y-85136287D01*
X106320500Y-84923713D01*
X106287246Y-84713757D01*
X106221557Y-84511588D01*
X106125051Y-84322184D01*
X106125049Y-84322181D01*
X106125048Y-84322179D01*
X106000109Y-84150213D01*
X105849786Y-83999890D01*
X105677820Y-83874951D01*
X105677115Y-83874591D01*
X105669054Y-83870485D01*
X105618259Y-83822512D01*
X105601463Y-83754692D01*
X105623999Y-83688556D01*
X105669054Y-83649515D01*
X105677816Y-83645051D01*
X105741126Y-83599054D01*
X105849786Y-83520109D01*
X105849788Y-83520106D01*
X105849792Y-83520104D01*
X106000104Y-83369792D01*
X106000106Y-83369788D01*
X106000109Y-83369786D01*
X106125048Y-83197820D01*
X106125050Y-83197817D01*
X106125051Y-83197816D01*
X106221557Y-83008412D01*
X106287246Y-82806243D01*
X106320500Y-82596287D01*
X106320500Y-82383713D01*
X106287246Y-82173757D01*
X106221557Y-81971588D01*
X106125051Y-81782184D01*
X106125049Y-81782181D01*
X106125048Y-81782179D01*
X106000109Y-81610213D01*
X105849786Y-81459890D01*
X105677820Y-81334951D01*
X105677115Y-81334591D01*
X105669054Y-81330485D01*
X105618259Y-81282512D01*
X105601463Y-81214692D01*
X105623999Y-81148556D01*
X105669054Y-81109515D01*
X105677816Y-81105051D01*
X105735133Y-81063408D01*
X105849786Y-80980109D01*
X105849788Y-80980106D01*
X105849792Y-80980104D01*
X106000104Y-80829792D01*
X106000106Y-80829788D01*
X106000109Y-80829786D01*
X106121898Y-80662156D01*
X106125051Y-80657816D01*
X106221557Y-80468412D01*
X106287246Y-80266243D01*
X106320500Y-80056287D01*
X106320500Y-79843713D01*
X106287246Y-79633757D01*
X106221557Y-79431588D01*
X106125051Y-79242184D01*
X106125049Y-79242181D01*
X106125048Y-79242179D01*
X106000109Y-79070213D01*
X105849786Y-78919890D01*
X105677817Y-78794949D01*
X105668504Y-78790204D01*
X105617707Y-78742230D01*
X105600912Y-78674409D01*
X105623449Y-78608274D01*
X105668507Y-78569232D01*
X105677555Y-78564622D01*
X105731716Y-78525270D01*
X105731717Y-78525270D01*
X105099408Y-77892962D01*
X105162993Y-77875925D01*
X105277007Y-77810099D01*
X105370099Y-77717007D01*
X105435925Y-77602993D01*
X105452962Y-77539408D01*
X106085270Y-78171717D01*
X106085270Y-78171716D01*
X106124622Y-78117554D01*
X106221095Y-77928217D01*
X106286757Y-77726130D01*
X106286757Y-77726127D01*
X106320000Y-77516246D01*
X106320000Y-77303753D01*
X106286757Y-77093872D01*
X106286757Y-77093869D01*
X106221095Y-76891782D01*
X106124624Y-76702449D01*
X106085270Y-76648282D01*
X106085269Y-76648282D01*
X105452962Y-77280590D01*
X105435925Y-77217007D01*
X105370099Y-77102993D01*
X105277007Y-77009901D01*
X105162993Y-76944075D01*
X105099409Y-76927037D01*
X105731716Y-76294728D01*
X105677547Y-76255373D01*
X105677547Y-76255372D01*
X105668500Y-76250763D01*
X105617706Y-76202788D01*
X105600912Y-76134966D01*
X105623451Y-76068832D01*
X105668508Y-76029793D01*
X105677816Y-76025051D01*
X105757007Y-75967515D01*
X105849786Y-75900109D01*
X105849788Y-75900106D01*
X105849792Y-75900104D01*
X106000104Y-75749792D01*
X106000106Y-75749788D01*
X106000109Y-75749786D01*
X106125048Y-75577820D01*
X106125047Y-75577820D01*
X106125051Y-75577816D01*
X106221557Y-75388412D01*
X106287246Y-75186243D01*
X106320500Y-74976287D01*
X106320500Y-74763713D01*
X106287246Y-74553757D01*
X106221557Y-74351588D01*
X106125051Y-74162184D01*
X106125049Y-74162181D01*
X106125048Y-74162179D01*
X106000109Y-73990213D01*
X105849786Y-73839890D01*
X105677820Y-73714951D01*
X105677115Y-73714591D01*
X105669054Y-73710485D01*
X105618259Y-73662512D01*
X105601463Y-73594692D01*
X105623999Y-73528556D01*
X105669054Y-73489515D01*
X105677816Y-73485051D01*
X105763253Y-73422978D01*
X105849786Y-73360109D01*
X105849788Y-73360106D01*
X105849792Y-73360104D01*
X106000104Y-73209792D01*
X106000106Y-73209788D01*
X106000109Y-73209786D01*
X106125048Y-73037820D01*
X106125047Y-73037820D01*
X106125051Y-73037816D01*
X106221557Y-72848412D01*
X106287246Y-72646243D01*
X106320500Y-72436287D01*
X106320500Y-72223713D01*
X106287246Y-72013757D01*
X106221557Y-71811588D01*
X106125051Y-71622184D01*
X106125049Y-71622181D01*
X106125048Y-71622179D01*
X106000109Y-71450213D01*
X105849786Y-71299890D01*
X105677820Y-71174951D01*
X105488414Y-71078444D01*
X105488413Y-71078443D01*
X105488412Y-71078443D01*
X105286243Y-71012754D01*
X105286241Y-71012753D01*
X105286240Y-71012753D01*
X105124957Y-70987208D01*
X105076287Y-70979500D01*
X104863713Y-70979500D01*
X104815042Y-70987208D01*
X104653760Y-71012753D01*
X104451585Y-71078444D01*
X104262179Y-71174951D01*
X104090215Y-71299889D01*
X103976673Y-71413431D01*
X103915350Y-71446915D01*
X103845658Y-71441931D01*
X103789725Y-71400059D01*
X103772810Y-71369082D01*
X103723797Y-71237671D01*
X103723793Y-71237664D01*
X103637547Y-71122455D01*
X103637544Y-71122452D01*
X103522335Y-71036206D01*
X103522328Y-71036202D01*
X103387482Y-70985908D01*
X103387483Y-70985908D01*
X103327883Y-70979501D01*
X103327881Y-70979500D01*
X103327873Y-70979500D01*
X103327864Y-70979500D01*
X101532129Y-70979500D01*
X101532123Y-70979501D01*
X101472516Y-70985908D01*
X101337671Y-71036202D01*
X101337664Y-71036206D01*
X101222455Y-71122452D01*
X101222452Y-71122455D01*
X101136206Y-71237664D01*
X101136202Y-71237671D01*
X101085908Y-71372517D01*
X101079501Y-71432116D01*
X101079500Y-71432135D01*
X101079500Y-72567770D01*
X101059815Y-72634809D01*
X101043181Y-72655451D01*
X99632181Y-74066451D01*
X99570858Y-74099936D01*
X99501166Y-74094952D01*
X99445233Y-74053080D01*
X99420816Y-73987616D01*
X99420500Y-73978770D01*
X99420500Y-70864110D01*
X99420500Y-70864108D01*
X99386392Y-70736814D01*
X99320500Y-70622686D01*
X99227314Y-70529500D01*
X99170250Y-70496554D01*
X99113187Y-70463608D01*
X99049539Y-70446554D01*
X98985892Y-70429500D01*
X67735892Y-70429500D01*
X67604108Y-70429500D01*
X67476812Y-70463608D01*
X67362686Y-70529500D01*
X67362683Y-70529502D01*
X67269502Y-70622683D01*
X67269500Y-70622686D01*
X67203608Y-70736812D01*
X67169500Y-70864108D01*
X67169500Y-73260510D01*
X67166953Y-73269181D01*
X67168242Y-73278127D01*
X67157263Y-73302182D01*
X67149815Y-73327549D01*
X67142986Y-73333466D01*
X67139233Y-73341690D01*
X67116988Y-73355993D01*
X67097011Y-73373304D01*
X67086513Y-73375588D01*
X67080464Y-73379479D01*
X67045588Y-73384497D01*
X67045530Y-73384510D01*
X67020010Y-73384510D01*
X67019946Y-73384516D01*
X67016862Y-73384517D01*
X67016855Y-73384515D01*
X67016777Y-73384517D01*
X67000375Y-73384509D01*
X67000352Y-73384510D01*
X66953853Y-73386989D01*
X66946102Y-73387403D01*
X66946100Y-73387403D01*
X66946094Y-73387404D01*
X66806693Y-73422976D01*
X66806690Y-73422977D01*
X66769944Y-73438195D01*
X66721098Y-73461563D01*
X66605919Y-73547787D01*
X66605907Y-73547797D01*
X66577806Y-73575898D01*
X66541684Y-73616102D01*
X66468244Y-73739829D01*
X66453005Y-73776600D01*
X66434977Y-73827690D01*
X66434974Y-73827701D01*
X66420204Y-73930438D01*
X66414500Y-73970110D01*
X66414500Y-74859910D01*
X66416625Y-74899582D01*
X66417393Y-74913918D01*
X66442686Y-75013038D01*
X66440188Y-75082863D01*
X66439470Y-75084957D01*
X66434977Y-75097688D01*
X66434974Y-75097701D01*
X66420204Y-75200438D01*
X66414500Y-75240110D01*
X66414500Y-76129910D01*
X66417393Y-76183918D01*
X66421458Y-76199851D01*
X66418962Y-76269674D01*
X66379111Y-76327065D01*
X66314558Y-76353800D01*
X66301309Y-76354510D01*
X65685933Y-76354510D01*
X65533204Y-76395433D01*
X65513991Y-76406526D01*
X65508841Y-76409500D01*
X65452557Y-76441995D01*
X65396275Y-76474489D01*
X65396272Y-76474491D01*
X65322181Y-76548583D01*
X65260858Y-76582068D01*
X65191166Y-76577084D01*
X65135233Y-76535212D01*
X65110816Y-76469748D01*
X65110500Y-76460902D01*
X65110500Y-71770097D01*
X65130185Y-71703058D01*
X65146819Y-71682416D01*
X68052416Y-68776819D01*
X68113739Y-68743334D01*
X68140097Y-68740500D01*
X69260234Y-68740500D01*
X69327273Y-68760185D01*
X69329125Y-68761398D01*
X69460814Y-68849390D01*
X69460827Y-68849397D01*
X69582288Y-68899707D01*
X69606503Y-68909737D01*
X69761153Y-68940499D01*
X69761156Y-68940500D01*
X69761158Y-68940500D01*
X69918844Y-68940500D01*
X69918845Y-68940499D01*
X70073497Y-68909737D01*
X70219179Y-68849394D01*
X70350289Y-68761789D01*
X70461789Y-68650289D01*
X70549394Y-68519179D01*
X70609737Y-68373497D01*
X70640500Y-68218842D01*
X70640500Y-68094500D01*
X70660185Y-68027461D01*
X70712989Y-67981706D01*
X70764500Y-67970500D01*
X102949903Y-67970500D01*
X103016942Y-67990185D01*
X103037584Y-68006819D01*
X104455425Y-69424660D01*
X104488910Y-69485983D01*
X104489361Y-69488149D01*
X104520261Y-69643491D01*
X104520264Y-69643501D01*
X104580602Y-69789172D01*
X104580609Y-69789185D01*
X104668210Y-69920288D01*
X104668213Y-69920292D01*
X104779707Y-70031786D01*
X104779711Y-70031789D01*
X104910814Y-70119390D01*
X104910827Y-70119397D01*
X105056498Y-70179735D01*
X105056503Y-70179737D01*
X105211153Y-70210499D01*
X105211156Y-70210500D01*
X105211158Y-70210500D01*
X105368844Y-70210500D01*
X105368845Y-70210499D01*
X105523497Y-70179737D01*
X105656053Y-70124831D01*
X105669172Y-70119397D01*
X105669172Y-70119396D01*
X105669179Y-70119394D01*
X105800289Y-70031789D01*
X105911789Y-69920289D01*
X105999394Y-69789179D01*
X106059737Y-69643497D01*
X106090500Y-69488842D01*
X106090500Y-69331158D01*
X106090500Y-69331155D01*
X106090499Y-69331153D01*
X106071075Y-69233502D01*
X106059737Y-69176503D01*
X106043856Y-69138162D01*
X105999397Y-69030827D01*
X105999390Y-69030814D01*
X105911789Y-68899711D01*
X105911786Y-68899707D01*
X105800292Y-68788213D01*
X105800288Y-68788210D01*
X105669185Y-68700609D01*
X105669172Y-68700602D01*
X105523501Y-68640264D01*
X105523491Y-68640261D01*
X105368151Y-68609362D01*
X105306241Y-68576977D01*
X105304662Y-68575426D01*
X103737590Y-67008355D01*
X103737588Y-67008352D01*
X103618717Y-66889481D01*
X103618716Y-66889480D01*
X103531904Y-66839360D01*
X103531904Y-66839359D01*
X103531900Y-66839358D01*
X103481785Y-66810423D01*
X103329057Y-66769499D01*
X103170943Y-66769499D01*
X103163347Y-66769499D01*
X103163331Y-66769500D01*
X67379057Y-66769500D01*
X67220942Y-66769500D01*
X67068215Y-66810423D01*
X67068214Y-66810423D01*
X67068212Y-66810424D01*
X67068209Y-66810425D01*
X67018096Y-66839359D01*
X67018095Y-66839360D01*
X66983449Y-66859363D01*
X66931285Y-66889479D01*
X66931282Y-66889481D01*
X63730008Y-70090756D01*
X63668685Y-70124241D01*
X63666519Y-70124692D01*
X63511177Y-70155592D01*
X63511167Y-70155595D01*
X63365496Y-70215933D01*
X63365483Y-70215940D01*
X63234380Y-70303541D01*
X63234376Y-70303544D01*
X63122882Y-70415038D01*
X63122879Y-70415042D01*
X63035278Y-70546145D01*
X63035271Y-70546158D01*
X62974933Y-70691829D01*
X62974930Y-70691841D01*
X62944169Y-70846484D01*
X62944169Y-71004177D01*
X62974930Y-71158820D01*
X62974933Y-71158832D01*
X63035271Y-71304503D01*
X63035278Y-71304516D01*
X63122879Y-71435619D01*
X63122882Y-71435623D01*
X63234376Y-71547117D01*
X63234380Y-71547120D01*
X63365483Y-71634721D01*
X63365496Y-71634728D01*
X63511167Y-71695066D01*
X63511172Y-71695068D01*
X63665822Y-71725830D01*
X63665825Y-71725831D01*
X63785500Y-71725831D01*
X63852539Y-71745516D01*
X63898294Y-71798320D01*
X63909500Y-71849831D01*
X63909500Y-83433330D01*
X63909499Y-83433348D01*
X63909499Y-83599054D01*
X63909498Y-83599054D01*
X63950424Y-83751789D01*
X63950425Y-83751790D01*
X63965812Y-83778440D01*
X63965814Y-83778443D01*
X63977887Y-83799354D01*
X63994500Y-83861354D01*
X63994500Y-83883846D01*
X64025261Y-84038489D01*
X64025264Y-84038501D01*
X64085602Y-84184172D01*
X64085609Y-84184185D01*
X64173210Y-84315288D01*
X64173213Y-84315292D01*
X64284707Y-84426786D01*
X64284711Y-84426789D01*
X64415814Y-84514390D01*
X64415827Y-84514397D01*
X64546081Y-84568349D01*
X64561503Y-84574737D01*
X64611942Y-84584770D01*
X64627898Y-84587944D01*
X64689809Y-84620328D01*
X64724383Y-84681044D01*
X64720644Y-84750813D01*
X64691388Y-84797242D01*
X64364703Y-85123927D01*
X64324480Y-85150805D01*
X64300819Y-85160606D01*
X64300818Y-85160607D01*
X64169715Y-85248207D01*
X64169707Y-85248213D01*
X64058213Y-85359707D01*
X64058210Y-85359711D01*
X63970609Y-85490814D01*
X63970602Y-85490827D01*
X63910264Y-85636498D01*
X63910261Y-85636510D01*
X63879500Y-85791153D01*
X63879500Y-85948846D01*
X63910261Y-86103489D01*
X63910264Y-86103501D01*
X63970602Y-86249172D01*
X63970609Y-86249185D01*
X64058210Y-86380288D01*
X64058213Y-86380292D01*
X64169707Y-86491786D01*
X64169711Y-86491789D01*
X64300814Y-86579390D01*
X64300827Y-86579397D01*
X64446498Y-86639735D01*
X64446503Y-86639737D01*
X64601153Y-86670499D01*
X64601156Y-86670500D01*
X64601158Y-86670500D01*
X64758844Y-86670500D01*
X64758845Y-86670499D01*
X64913497Y-86639737D01*
X65059179Y-86579394D01*
X65190289Y-86491789D01*
X65301789Y-86380289D01*
X65389394Y-86249179D01*
X65399191Y-86225524D01*
X65426069Y-86185297D01*
X66542951Y-85068416D01*
X66625084Y-84945495D01*
X66681658Y-84808913D01*
X66700586Y-84713757D01*
X66710500Y-84663920D01*
X66710500Y-83535949D01*
X66730185Y-83468910D01*
X66782989Y-83423155D01*
X66852147Y-83413211D01*
X66915703Y-83442236D01*
X66953477Y-83501014D01*
X66956117Y-83511758D01*
X66957955Y-83520998D01*
X66957958Y-83521010D01*
X67013773Y-83655761D01*
X67013780Y-83655774D01*
X67094815Y-83777050D01*
X67094818Y-83777054D01*
X67133180Y-83815415D01*
X67166666Y-83876737D01*
X67169500Y-83903097D01*
X67169500Y-89305500D01*
X67149815Y-89372539D01*
X67097011Y-89418294D01*
X67045500Y-89429500D01*
X52044500Y-89429500D01*
X51977461Y-89409815D01*
X51931706Y-89357011D01*
X51920500Y-89305500D01*
X51920500Y-68192415D01*
X51940185Y-68125376D01*
X51992989Y-68079621D01*
X52062147Y-68069677D01*
X52125703Y-68098702D01*
X52159061Y-68144963D01*
X52211830Y-68272361D01*
X52211837Y-68272376D01*
X52336400Y-68488126D01*
X52488060Y-68685774D01*
X52488066Y-68685781D01*
X52664218Y-68861933D01*
X52664225Y-68861939D01*
X52861873Y-69013599D01*
X53077623Y-69138162D01*
X53077638Y-69138169D01*
X53170173Y-69176498D01*
X53307793Y-69233502D01*
X53548435Y-69297982D01*
X53795435Y-69330500D01*
X53795442Y-69330500D01*
X54044558Y-69330500D01*
X54044565Y-69330500D01*
X54291565Y-69297982D01*
X54532207Y-69233502D01*
X54762373Y-69138164D01*
X54978127Y-69013599D01*
X55175776Y-68861938D01*
X55351938Y-68685776D01*
X55503599Y-68488127D01*
X55628164Y-68272373D01*
X55723502Y-68042207D01*
X55787982Y-67801565D01*
X55820500Y-67554565D01*
X55820500Y-67305435D01*
X55787982Y-67058435D01*
X55723502Y-66817793D01*
X55628166Y-66587633D01*
X55628162Y-66587623D01*
X55503599Y-66371873D01*
X55351939Y-66174225D01*
X55351933Y-66174218D01*
X55175781Y-65998066D01*
X55175774Y-65998060D01*
X54978126Y-65846400D01*
X54762376Y-65721837D01*
X54762361Y-65721830D01*
X54532207Y-65626498D01*
X54291561Y-65562017D01*
X54044575Y-65529501D01*
X54044570Y-65529500D01*
X54044565Y-65529500D01*
X53795435Y-65529500D01*
X53795429Y-65529500D01*
X53795424Y-65529501D01*
X53548438Y-65562017D01*
X53307792Y-65626498D01*
X53077638Y-65721830D01*
X53077623Y-65721837D01*
X52861873Y-65846400D01*
X52664225Y-65998060D01*
X52664218Y-65998066D01*
X52488066Y-66174218D01*
X52488060Y-66174225D01*
X52336400Y-66371873D01*
X52211837Y-66587623D01*
X52211833Y-66587633D01*
X52159061Y-66715037D01*
X52115220Y-66769440D01*
X52048926Y-66791505D01*
X51981227Y-66774226D01*
X51933616Y-66723089D01*
X51920500Y-66667584D01*
X51920500Y-62554500D01*
X51940185Y-62487461D01*
X51992989Y-62441706D01*
X52044500Y-62430500D01*
X101842017Y-62430500D01*
X101909056Y-62450185D01*
G37*
G04 #@! TD.AperFunction*
G04 #@! TA.AperFunction,Conductor*
G36*
X104504075Y-87762993D02*
G01*
X104569901Y-87877007D01*
X104662993Y-87970099D01*
X104777007Y-88035925D01*
X104840590Y-88052962D01*
X104208282Y-88685269D01*
X104208282Y-88685270D01*
X104262452Y-88724626D01*
X104262451Y-88724626D01*
X104271495Y-88729234D01*
X104322292Y-88777208D01*
X104339087Y-88845029D01*
X104316550Y-88911164D01*
X104271499Y-88950202D01*
X104262182Y-88954949D01*
X104090213Y-89079890D01*
X103939890Y-89230213D01*
X103814949Y-89402182D01*
X103810484Y-89410946D01*
X103762509Y-89461742D01*
X103694688Y-89478536D01*
X103628553Y-89455998D01*
X103589516Y-89410946D01*
X103585050Y-89402182D01*
X103460109Y-89230213D01*
X103346569Y-89116673D01*
X103313084Y-89055350D01*
X103318068Y-88985658D01*
X103359940Y-88929725D01*
X103390915Y-88912810D01*
X103522331Y-88863796D01*
X103637546Y-88777546D01*
X103723796Y-88662331D01*
X103774091Y-88527483D01*
X103780500Y-88467873D01*
X103780499Y-88457312D01*
X103800179Y-88390275D01*
X103816818Y-88369626D01*
X104487036Y-87699407D01*
X104504075Y-87762993D01*
G37*
G04 #@! TD.AperFunction*
G04 #@! TA.AperFunction,Conductor*
G36*
X103771444Y-85683999D02*
G01*
X103810486Y-85729056D01*
X103814951Y-85737820D01*
X103939890Y-85909786D01*
X104090213Y-86060109D01*
X104262179Y-86185048D01*
X104262181Y-86185049D01*
X104262184Y-86185051D01*
X104271493Y-86189794D01*
X104322290Y-86237766D01*
X104339087Y-86305587D01*
X104316552Y-86371722D01*
X104271505Y-86410760D01*
X104262446Y-86415376D01*
X104262440Y-86415380D01*
X104208282Y-86454727D01*
X104208282Y-86454728D01*
X104840591Y-87087037D01*
X104777007Y-87104075D01*
X104662993Y-87169901D01*
X104569901Y-87262993D01*
X104504075Y-87377007D01*
X104487037Y-87440591D01*
X103816818Y-86770372D01*
X103783333Y-86709049D01*
X103780499Y-86682691D01*
X103780499Y-86672129D01*
X103780498Y-86672123D01*
X103780323Y-86670499D01*
X103774091Y-86612517D01*
X103761735Y-86579390D01*
X103723797Y-86477671D01*
X103723793Y-86477664D01*
X103637547Y-86362455D01*
X103637544Y-86362452D01*
X103522335Y-86276206D01*
X103522328Y-86276202D01*
X103390917Y-86227189D01*
X103334983Y-86185318D01*
X103310566Y-86119853D01*
X103325418Y-86051580D01*
X103346563Y-86023332D01*
X103460104Y-85909792D01*
X103585051Y-85737816D01*
X103589514Y-85729054D01*
X103637488Y-85678259D01*
X103705308Y-85661463D01*
X103771444Y-85683999D01*
G37*
G04 #@! TD.AperFunction*
G04 #@! TA.AperFunction,Conductor*
G36*
X103545270Y-83251717D02*
G01*
X103545270Y-83251716D01*
X103584622Y-83197555D01*
X103589232Y-83188507D01*
X103637205Y-83137709D01*
X103705025Y-83120912D01*
X103771161Y-83143447D01*
X103810204Y-83188504D01*
X103814949Y-83197817D01*
X103939890Y-83369786D01*
X104090213Y-83520109D01*
X104262182Y-83645050D01*
X104270946Y-83649516D01*
X104321742Y-83697491D01*
X104338536Y-83765312D01*
X104315998Y-83831447D01*
X104270946Y-83870484D01*
X104262182Y-83874949D01*
X104090213Y-83999890D01*
X103939890Y-84150213D01*
X103814949Y-84322182D01*
X103810484Y-84330946D01*
X103762509Y-84381742D01*
X103694688Y-84398536D01*
X103628553Y-84375998D01*
X103589516Y-84330946D01*
X103585050Y-84322182D01*
X103460109Y-84150213D01*
X103309786Y-83999890D01*
X103137817Y-83874949D01*
X103128504Y-83870204D01*
X103077707Y-83822230D01*
X103060912Y-83754409D01*
X103083449Y-83688274D01*
X103128507Y-83649232D01*
X103137555Y-83644622D01*
X103191716Y-83605270D01*
X103191717Y-83605270D01*
X102559409Y-82972962D01*
X102622993Y-82955925D01*
X102737007Y-82890099D01*
X102830099Y-82797007D01*
X102895925Y-82682993D01*
X102912962Y-82619409D01*
X103545270Y-83251717D01*
G37*
G04 #@! TD.AperFunction*
G04 #@! TA.AperFunction,Conductor*
G36*
X104504075Y-77602993D02*
G01*
X104569901Y-77717007D01*
X104662993Y-77810099D01*
X104777007Y-77875925D01*
X104840590Y-77892962D01*
X104208282Y-78525269D01*
X104208282Y-78525270D01*
X104262452Y-78564626D01*
X104262451Y-78564626D01*
X104271495Y-78569234D01*
X104322292Y-78617208D01*
X104339087Y-78685029D01*
X104316550Y-78751164D01*
X104271499Y-78790202D01*
X104262182Y-78794949D01*
X104090213Y-78919890D01*
X103939890Y-79070213D01*
X103814949Y-79242182D01*
X103810484Y-79250946D01*
X103762509Y-79301742D01*
X103694688Y-79318536D01*
X103628553Y-79295998D01*
X103589516Y-79250946D01*
X103585050Y-79242182D01*
X103460109Y-79070213D01*
X103309786Y-78919890D01*
X103137820Y-78794951D01*
X103137115Y-78794591D01*
X103129054Y-78790485D01*
X103078259Y-78742512D01*
X103061463Y-78674692D01*
X103083999Y-78608556D01*
X103129054Y-78569515D01*
X103137816Y-78565051D01*
X103192572Y-78525269D01*
X103309786Y-78440109D01*
X103309788Y-78440106D01*
X103309792Y-78440104D01*
X103460104Y-78289792D01*
X103460106Y-78289788D01*
X103460109Y-78289786D01*
X103545890Y-78171717D01*
X103585051Y-78117816D01*
X103589793Y-78108508D01*
X103637763Y-78057711D01*
X103705583Y-78040911D01*
X103771719Y-78063445D01*
X103810763Y-78108500D01*
X103815373Y-78117547D01*
X103854728Y-78171716D01*
X104487036Y-77539407D01*
X104504075Y-77602993D01*
G37*
G04 #@! TD.AperFunction*
G04 #@! TA.AperFunction,Conductor*
G36*
X103771444Y-75523999D02*
G01*
X103810486Y-75569056D01*
X103814951Y-75577820D01*
X103939890Y-75749786D01*
X104090213Y-75900109D01*
X104262179Y-76025048D01*
X104262181Y-76025049D01*
X104262184Y-76025051D01*
X104271493Y-76029794D01*
X104322290Y-76077766D01*
X104339087Y-76145587D01*
X104316552Y-76211722D01*
X104271505Y-76250760D01*
X104262446Y-76255376D01*
X104262440Y-76255380D01*
X104208282Y-76294727D01*
X104208282Y-76294728D01*
X104840591Y-76927037D01*
X104777007Y-76944075D01*
X104662993Y-77009901D01*
X104569901Y-77102993D01*
X104504075Y-77217007D01*
X104487037Y-77280591D01*
X103854728Y-76648282D01*
X103854727Y-76648282D01*
X103815380Y-76702440D01*
X103815376Y-76702446D01*
X103810760Y-76711505D01*
X103762781Y-76762297D01*
X103694959Y-76779087D01*
X103628826Y-76756543D01*
X103589794Y-76711493D01*
X103585051Y-76702184D01*
X103585049Y-76702181D01*
X103585048Y-76702179D01*
X103460109Y-76530213D01*
X103309786Y-76379890D01*
X103137820Y-76254951D01*
X103129600Y-76250763D01*
X103129054Y-76250485D01*
X103078259Y-76202512D01*
X103061463Y-76134692D01*
X103083999Y-76068556D01*
X103129054Y-76029515D01*
X103137816Y-76025051D01*
X103195133Y-75983408D01*
X103309786Y-75900109D01*
X103309788Y-75900106D01*
X103309792Y-75900104D01*
X103460104Y-75749792D01*
X103460106Y-75749788D01*
X103460109Y-75749786D01*
X103585048Y-75577820D01*
X103585047Y-75577820D01*
X103585051Y-75577816D01*
X103589514Y-75569054D01*
X103637488Y-75518259D01*
X103705308Y-75501463D01*
X103771444Y-75523999D01*
G37*
G04 #@! TD.AperFunction*
G04 #@! TD*
M02*
