%TF.GenerationSoftware,KiCad,Pcbnew,9.0.4*%
%TF.CreationDate,2025-10-08T14:42:07+13:00*%
%TF.ProjectId,Main_PCB,4d61696e-5f50-4434-922e-6b696361645f,rev?*%
%TF.SameCoordinates,Original*%
%TF.FileFunction,Legend,Top*%
%TF.FilePolarity,Positive*%
%FSLAX46Y46*%
G04 Gerber Fmt 4.6, Leading zero omitted, Abs format (unit mm)*
G04 Created by KiCad (PCBNEW 9.0.4) date 2025-10-08 14:42:07*
%MOMM*%
%LPD*%
G01*
G04 APERTURE LIST*
%ADD10C,0.150000*%
%ADD11C,0.152400*%
G04 APERTURE END LIST*
D10*
X179550180Y-113666666D02*
X178835895Y-113666666D01*
X178835895Y-113666666D02*
X178693038Y-113619047D01*
X178693038Y-113619047D02*
X178597800Y-113523809D01*
X178597800Y-113523809D02*
X178550180Y-113380952D01*
X178550180Y-113380952D02*
X178550180Y-113285714D01*
X179454942Y-114095238D02*
X179502561Y-114142857D01*
X179502561Y-114142857D02*
X179550180Y-114238095D01*
X179550180Y-114238095D02*
X179550180Y-114476190D01*
X179550180Y-114476190D02*
X179502561Y-114571428D01*
X179502561Y-114571428D02*
X179454942Y-114619047D01*
X179454942Y-114619047D02*
X179359704Y-114666666D01*
X179359704Y-114666666D02*
X179264466Y-114666666D01*
X179264466Y-114666666D02*
X179121609Y-114619047D01*
X179121609Y-114619047D02*
X178550180Y-114047619D01*
X178550180Y-114047619D02*
X178550180Y-114666666D01*
X140454819Y-114333333D02*
X141169104Y-114333333D01*
X141169104Y-114333333D02*
X141311961Y-114380952D01*
X141311961Y-114380952D02*
X141407200Y-114476190D01*
X141407200Y-114476190D02*
X141454819Y-114619047D01*
X141454819Y-114619047D02*
X141454819Y-114714285D01*
X141454819Y-113333333D02*
X141454819Y-113904761D01*
X141454819Y-113619047D02*
X140454819Y-113619047D01*
X140454819Y-113619047D02*
X140597676Y-113714285D01*
X140597676Y-113714285D02*
X140692914Y-113809523D01*
X140692914Y-113809523D02*
X140740533Y-113904761D01*
D11*
%TO.C,J2*%
X175335000Y-108365000D02*
X175335000Y-109635000D01*
X175335000Y-109635000D02*
X176605000Y-109000000D01*
X176605000Y-109000000D02*
X175335000Y-108365000D01*
X177684200Y-107878600D02*
X177684200Y-110438661D01*
X177684200Y-111561341D02*
X177684200Y-114438661D01*
X177684200Y-115561341D02*
X177684200Y-118438660D01*
X177684200Y-119561340D02*
X177684200Y-120121400D01*
X177684200Y-120121400D02*
X180325800Y-120121400D01*
X180325800Y-107878600D02*
X177684200Y-107878600D01*
X180325800Y-108438660D02*
X180325800Y-107878600D01*
X180325800Y-112438659D02*
X180325800Y-109561340D01*
X180325800Y-116438659D02*
X180325800Y-113561339D01*
X180325800Y-120121400D02*
X180325800Y-117561339D01*
%TO.C,J1*%
X139679200Y-107878600D02*
X139679200Y-110438661D01*
X139679200Y-111561341D02*
X139679200Y-114438661D01*
X139679200Y-115561341D02*
X139679200Y-118438660D01*
X139679200Y-119561340D02*
X139679200Y-120121400D01*
X139679200Y-120121400D02*
X142320800Y-120121400D01*
X142320800Y-107878600D02*
X139679200Y-107878600D01*
X142320800Y-108438660D02*
X142320800Y-107878600D01*
X142320800Y-112438659D02*
X142320800Y-109561340D01*
X142320800Y-116438659D02*
X142320800Y-113561339D01*
X142320800Y-120121400D02*
X142320800Y-117561339D01*
X143400000Y-119000000D02*
X144670000Y-119635000D01*
X144670000Y-118365000D02*
X143400000Y-119000000D01*
X144670000Y-119635000D02*
X144670000Y-118365000D01*
%TD*%
M02*
