%TF.GenerationSoftware,KiCad,Pcbnew,9.0.4*%
%TF.CreationDate,2025-10-08T09:58:50+13:00*%
%TF.ProjectId,Rpi_NC1000_hat_2x6,5270695f-4e43-4313-9030-305f6861745f,rev?*%
%TF.SameCoordinates,Original*%
%TF.FileFunction,Legend,Top*%
%TF.FilePolarity,Positive*%
%FSLAX46Y46*%
G04 Gerber Fmt 4.6, Leading zero omitted, Abs format (unit mm)*
G04 Created by KiCad (PCBNEW 9.0.4) date 2025-10-08 09:58:50*
%MOMM*%
%LPD*%
G01*
G04 APERTURE LIST*
%ADD10C,0.100000*%
%ADD11C,0.150000*%
%ADD12C,0.300000*%
%ADD13C,0.120000*%
G04 APERTURE END LIST*
D10*
X52256265Y-67592133D02*
X52865789Y-67592133D01*
X52561027Y-67896895D02*
X52561027Y-67287371D01*
X74553884Y-49348609D02*
X74887217Y-49348609D01*
X75030074Y-49872419D02*
X74553884Y-49872419D01*
X74553884Y-49872419D02*
X74553884Y-48872419D01*
X74553884Y-48872419D02*
X75030074Y-48872419D01*
X75458646Y-49205752D02*
X75458646Y-49872419D01*
X75458646Y-49300990D02*
X75506265Y-49253371D01*
X75506265Y-49253371D02*
X75601503Y-49205752D01*
X75601503Y-49205752D02*
X75744360Y-49205752D01*
X75744360Y-49205752D02*
X75839598Y-49253371D01*
X75839598Y-49253371D02*
X75887217Y-49348609D01*
X75887217Y-49348609D02*
X75887217Y-49872419D01*
X76744360Y-49824800D02*
X76649122Y-49872419D01*
X76649122Y-49872419D02*
X76458646Y-49872419D01*
X76458646Y-49872419D02*
X76363408Y-49824800D01*
X76363408Y-49824800D02*
X76315789Y-49729561D01*
X76315789Y-49729561D02*
X76315789Y-49348609D01*
X76315789Y-49348609D02*
X76363408Y-49253371D01*
X76363408Y-49253371D02*
X76458646Y-49205752D01*
X76458646Y-49205752D02*
X76649122Y-49205752D01*
X76649122Y-49205752D02*
X76744360Y-49253371D01*
X76744360Y-49253371D02*
X76791979Y-49348609D01*
X76791979Y-49348609D02*
X76791979Y-49443847D01*
X76791979Y-49443847D02*
X76315789Y-49539085D01*
X77220551Y-49872419D02*
X77220551Y-49205752D01*
X77220551Y-49396228D02*
X77268170Y-49300990D01*
X77268170Y-49300990D02*
X77315789Y-49253371D01*
X77315789Y-49253371D02*
X77411027Y-49205752D01*
X77411027Y-49205752D02*
X77506265Y-49205752D01*
X78268170Y-49205752D02*
X78268170Y-50015276D01*
X78268170Y-50015276D02*
X78220551Y-50110514D01*
X78220551Y-50110514D02*
X78172932Y-50158133D01*
X78172932Y-50158133D02*
X78077694Y-50205752D01*
X78077694Y-50205752D02*
X77934837Y-50205752D01*
X77934837Y-50205752D02*
X77839599Y-50158133D01*
X78268170Y-49824800D02*
X78172932Y-49872419D01*
X78172932Y-49872419D02*
X77982456Y-49872419D01*
X77982456Y-49872419D02*
X77887218Y-49824800D01*
X77887218Y-49824800D02*
X77839599Y-49777180D01*
X77839599Y-49777180D02*
X77791980Y-49681942D01*
X77791980Y-49681942D02*
X77791980Y-49396228D01*
X77791980Y-49396228D02*
X77839599Y-49300990D01*
X77839599Y-49300990D02*
X77887218Y-49253371D01*
X77887218Y-49253371D02*
X77982456Y-49205752D01*
X77982456Y-49205752D02*
X78172932Y-49205752D01*
X78172932Y-49205752D02*
X78268170Y-49253371D01*
X78649123Y-49205752D02*
X78887218Y-49872419D01*
X79125313Y-49205752D02*
X78887218Y-49872419D01*
X78887218Y-49872419D02*
X78791980Y-50110514D01*
X78791980Y-50110514D02*
X78744361Y-50158133D01*
X78744361Y-50158133D02*
X78649123Y-50205752D01*
X80601504Y-49348609D02*
X80268171Y-49348609D01*
X80268171Y-49872419D02*
X80268171Y-48872419D01*
X80268171Y-48872419D02*
X80744361Y-48872419D01*
X81268171Y-49872419D02*
X81172933Y-49824800D01*
X81172933Y-49824800D02*
X81125314Y-49729561D01*
X81125314Y-49729561D02*
X81125314Y-48872419D01*
X81791981Y-49872419D02*
X81696743Y-49824800D01*
X81696743Y-49824800D02*
X81649124Y-49777180D01*
X81649124Y-49777180D02*
X81601505Y-49681942D01*
X81601505Y-49681942D02*
X81601505Y-49396228D01*
X81601505Y-49396228D02*
X81649124Y-49300990D01*
X81649124Y-49300990D02*
X81696743Y-49253371D01*
X81696743Y-49253371D02*
X81791981Y-49205752D01*
X81791981Y-49205752D02*
X81934838Y-49205752D01*
X81934838Y-49205752D02*
X82030076Y-49253371D01*
X82030076Y-49253371D02*
X82077695Y-49300990D01*
X82077695Y-49300990D02*
X82125314Y-49396228D01*
X82125314Y-49396228D02*
X82125314Y-49681942D01*
X82125314Y-49681942D02*
X82077695Y-49777180D01*
X82077695Y-49777180D02*
X82030076Y-49824800D01*
X82030076Y-49824800D02*
X81934838Y-49872419D01*
X81934838Y-49872419D02*
X81791981Y-49872419D01*
X82458648Y-49205752D02*
X82649124Y-49872419D01*
X82649124Y-49872419D02*
X82839600Y-49396228D01*
X82839600Y-49396228D02*
X83030076Y-49872419D01*
X83030076Y-49872419D02*
X83220552Y-49205752D01*
X84268172Y-48872419D02*
X84506267Y-49872419D01*
X84506267Y-49872419D02*
X84696743Y-49158133D01*
X84696743Y-49158133D02*
X84887219Y-49872419D01*
X84887219Y-49872419D02*
X85125315Y-48872419D01*
X85934838Y-49872419D02*
X85934838Y-49348609D01*
X85934838Y-49348609D02*
X85887219Y-49253371D01*
X85887219Y-49253371D02*
X85791981Y-49205752D01*
X85791981Y-49205752D02*
X85601505Y-49205752D01*
X85601505Y-49205752D02*
X85506267Y-49253371D01*
X85934838Y-49824800D02*
X85839600Y-49872419D01*
X85839600Y-49872419D02*
X85601505Y-49872419D01*
X85601505Y-49872419D02*
X85506267Y-49824800D01*
X85506267Y-49824800D02*
X85458648Y-49729561D01*
X85458648Y-49729561D02*
X85458648Y-49634323D01*
X85458648Y-49634323D02*
X85506267Y-49539085D01*
X85506267Y-49539085D02*
X85601505Y-49491466D01*
X85601505Y-49491466D02*
X85839600Y-49491466D01*
X85839600Y-49491466D02*
X85934838Y-49443847D01*
X86553886Y-49872419D02*
X86458648Y-49824800D01*
X86458648Y-49824800D02*
X86411029Y-49729561D01*
X86411029Y-49729561D02*
X86411029Y-48872419D01*
X87077696Y-49872419D02*
X86982458Y-49824800D01*
X86982458Y-49824800D02*
X86934839Y-49729561D01*
X86934839Y-49729561D02*
X86934839Y-48872419D01*
X88220554Y-49872419D02*
X88220554Y-48872419D01*
X88220554Y-48872419D02*
X88601506Y-48872419D01*
X88601506Y-48872419D02*
X88696744Y-48920038D01*
X88696744Y-48920038D02*
X88744363Y-48967657D01*
X88744363Y-48967657D02*
X88791982Y-49062895D01*
X88791982Y-49062895D02*
X88791982Y-49205752D01*
X88791982Y-49205752D02*
X88744363Y-49300990D01*
X88744363Y-49300990D02*
X88696744Y-49348609D01*
X88696744Y-49348609D02*
X88601506Y-49396228D01*
X88601506Y-49396228D02*
X88220554Y-49396228D01*
X89220554Y-49872419D02*
X89220554Y-49205752D01*
X89220554Y-49396228D02*
X89268173Y-49300990D01*
X89268173Y-49300990D02*
X89315792Y-49253371D01*
X89315792Y-49253371D02*
X89411030Y-49205752D01*
X89411030Y-49205752D02*
X89506268Y-49205752D01*
X89982459Y-49872419D02*
X89887221Y-49824800D01*
X89887221Y-49824800D02*
X89839602Y-49777180D01*
X89839602Y-49777180D02*
X89791983Y-49681942D01*
X89791983Y-49681942D02*
X89791983Y-49396228D01*
X89791983Y-49396228D02*
X89839602Y-49300990D01*
X89839602Y-49300990D02*
X89887221Y-49253371D01*
X89887221Y-49253371D02*
X89982459Y-49205752D01*
X89982459Y-49205752D02*
X90125316Y-49205752D01*
X90125316Y-49205752D02*
X90220554Y-49253371D01*
X90220554Y-49253371D02*
X90268173Y-49300990D01*
X90268173Y-49300990D02*
X90315792Y-49396228D01*
X90315792Y-49396228D02*
X90315792Y-49681942D01*
X90315792Y-49681942D02*
X90268173Y-49777180D01*
X90268173Y-49777180D02*
X90220554Y-49824800D01*
X90220554Y-49824800D02*
X90125316Y-49872419D01*
X90125316Y-49872419D02*
X89982459Y-49872419D01*
X90744364Y-49205752D02*
X90744364Y-50062895D01*
X90744364Y-50062895D02*
X90696745Y-50158133D01*
X90696745Y-50158133D02*
X90601507Y-50205752D01*
X90601507Y-50205752D02*
X90553888Y-50205752D01*
X90744364Y-48872419D02*
X90696745Y-48920038D01*
X90696745Y-48920038D02*
X90744364Y-48967657D01*
X90744364Y-48967657D02*
X90791983Y-48920038D01*
X90791983Y-48920038D02*
X90744364Y-48872419D01*
X90744364Y-48872419D02*
X90744364Y-48967657D01*
X91601506Y-49824800D02*
X91506268Y-49872419D01*
X91506268Y-49872419D02*
X91315792Y-49872419D01*
X91315792Y-49872419D02*
X91220554Y-49824800D01*
X91220554Y-49824800D02*
X91172935Y-49729561D01*
X91172935Y-49729561D02*
X91172935Y-49348609D01*
X91172935Y-49348609D02*
X91220554Y-49253371D01*
X91220554Y-49253371D02*
X91315792Y-49205752D01*
X91315792Y-49205752D02*
X91506268Y-49205752D01*
X91506268Y-49205752D02*
X91601506Y-49253371D01*
X91601506Y-49253371D02*
X91649125Y-49348609D01*
X91649125Y-49348609D02*
X91649125Y-49443847D01*
X91649125Y-49443847D02*
X91172935Y-49539085D01*
X92506268Y-49824800D02*
X92411030Y-49872419D01*
X92411030Y-49872419D02*
X92220554Y-49872419D01*
X92220554Y-49872419D02*
X92125316Y-49824800D01*
X92125316Y-49824800D02*
X92077697Y-49777180D01*
X92077697Y-49777180D02*
X92030078Y-49681942D01*
X92030078Y-49681942D02*
X92030078Y-49396228D01*
X92030078Y-49396228D02*
X92077697Y-49300990D01*
X92077697Y-49300990D02*
X92125316Y-49253371D01*
X92125316Y-49253371D02*
X92220554Y-49205752D01*
X92220554Y-49205752D02*
X92411030Y-49205752D01*
X92411030Y-49205752D02*
X92506268Y-49253371D01*
X92791983Y-49205752D02*
X93172935Y-49205752D01*
X92934840Y-48872419D02*
X92934840Y-49729561D01*
X92934840Y-49729561D02*
X92982459Y-49824800D01*
X92982459Y-49824800D02*
X93077697Y-49872419D01*
X93077697Y-49872419D02*
X93172935Y-49872419D01*
X64736265Y-51092133D02*
X65345789Y-51092133D01*
X65041027Y-51396895D02*
X65041027Y-50787371D01*
X42952657Y-61761904D02*
X42905038Y-61714285D01*
X42905038Y-61714285D02*
X42857419Y-61619047D01*
X42857419Y-61619047D02*
X42857419Y-61380952D01*
X42857419Y-61380952D02*
X42905038Y-61285714D01*
X42905038Y-61285714D02*
X42952657Y-61238095D01*
X42952657Y-61238095D02*
X43047895Y-61190476D01*
X43047895Y-61190476D02*
X43143133Y-61190476D01*
X43143133Y-61190476D02*
X43285990Y-61238095D01*
X43285990Y-61238095D02*
X43857419Y-61809523D01*
X43857419Y-61809523D02*
X43857419Y-61190476D01*
X43285990Y-60619047D02*
X43238371Y-60714285D01*
X43238371Y-60714285D02*
X43190752Y-60761904D01*
X43190752Y-60761904D02*
X43095514Y-60809523D01*
X43095514Y-60809523D02*
X43047895Y-60809523D01*
X43047895Y-60809523D02*
X42952657Y-60761904D01*
X42952657Y-60761904D02*
X42905038Y-60714285D01*
X42905038Y-60714285D02*
X42857419Y-60619047D01*
X42857419Y-60619047D02*
X42857419Y-60428571D01*
X42857419Y-60428571D02*
X42905038Y-60333333D01*
X42905038Y-60333333D02*
X42952657Y-60285714D01*
X42952657Y-60285714D02*
X43047895Y-60238095D01*
X43047895Y-60238095D02*
X43095514Y-60238095D01*
X43095514Y-60238095D02*
X43190752Y-60285714D01*
X43190752Y-60285714D02*
X43238371Y-60333333D01*
X43238371Y-60333333D02*
X43285990Y-60428571D01*
X43285990Y-60428571D02*
X43285990Y-60619047D01*
X43285990Y-60619047D02*
X43333609Y-60714285D01*
X43333609Y-60714285D02*
X43381228Y-60761904D01*
X43381228Y-60761904D02*
X43476466Y-60809523D01*
X43476466Y-60809523D02*
X43666942Y-60809523D01*
X43666942Y-60809523D02*
X43762180Y-60761904D01*
X43762180Y-60761904D02*
X43809800Y-60714285D01*
X43809800Y-60714285D02*
X43857419Y-60619047D01*
X43857419Y-60619047D02*
X43857419Y-60428571D01*
X43857419Y-60428571D02*
X43809800Y-60333333D01*
X43809800Y-60333333D02*
X43762180Y-60285714D01*
X43762180Y-60285714D02*
X43666942Y-60238095D01*
X43666942Y-60238095D02*
X43476466Y-60238095D01*
X43476466Y-60238095D02*
X43381228Y-60285714D01*
X43381228Y-60285714D02*
X43333609Y-60333333D01*
X43333609Y-60333333D02*
X43285990Y-60428571D01*
X51000000Y-47000000D02*
X43913580Y-47000000D01*
X43913580Y-75000000D02*
X51000000Y-75000000D01*
X44500000Y-47000000D02*
X44500000Y-75000000D01*
X44500000Y-47000000D02*
X45086421Y-48126504D01*
X44500000Y-47000000D02*
X43913579Y-48126504D01*
X44500000Y-75000000D02*
X43913579Y-73873496D01*
X44500000Y-75000000D02*
X45086421Y-73873496D01*
X80297619Y-77357419D02*
X79821429Y-77357419D01*
X79821429Y-77357419D02*
X79773810Y-77833609D01*
X79773810Y-77833609D02*
X79821429Y-77785990D01*
X79821429Y-77785990D02*
X79916667Y-77738371D01*
X79916667Y-77738371D02*
X80154762Y-77738371D01*
X80154762Y-77738371D02*
X80250000Y-77785990D01*
X80250000Y-77785990D02*
X80297619Y-77833609D01*
X80297619Y-77833609D02*
X80345238Y-77928847D01*
X80345238Y-77928847D02*
X80345238Y-78166942D01*
X80345238Y-78166942D02*
X80297619Y-78262180D01*
X80297619Y-78262180D02*
X80250000Y-78309800D01*
X80250000Y-78309800D02*
X80154762Y-78357419D01*
X80154762Y-78357419D02*
X79916667Y-78357419D01*
X79916667Y-78357419D02*
X79821429Y-78309800D01*
X79821429Y-78309800D02*
X79773810Y-78262180D01*
X80821429Y-78357419D02*
X81011905Y-78357419D01*
X81011905Y-78357419D02*
X81107143Y-78309800D01*
X81107143Y-78309800D02*
X81154762Y-78262180D01*
X81154762Y-78262180D02*
X81250000Y-78119323D01*
X81250000Y-78119323D02*
X81297619Y-77928847D01*
X81297619Y-77928847D02*
X81297619Y-77547895D01*
X81297619Y-77547895D02*
X81250000Y-77452657D01*
X81250000Y-77452657D02*
X81202381Y-77405038D01*
X81202381Y-77405038D02*
X81107143Y-77357419D01*
X81107143Y-77357419D02*
X80916667Y-77357419D01*
X80916667Y-77357419D02*
X80821429Y-77405038D01*
X80821429Y-77405038D02*
X80773810Y-77452657D01*
X80773810Y-77452657D02*
X80726191Y-77547895D01*
X80726191Y-77547895D02*
X80726191Y-77785990D01*
X80726191Y-77785990D02*
X80773810Y-77881228D01*
X80773810Y-77881228D02*
X80821429Y-77928847D01*
X80821429Y-77928847D02*
X80916667Y-77976466D01*
X80916667Y-77976466D02*
X81107143Y-77976466D01*
X81107143Y-77976466D02*
X81202381Y-77928847D01*
X81202381Y-77928847D02*
X81250000Y-77881228D01*
X81250000Y-77881228D02*
X81297619Y-77785990D01*
X81726191Y-78262180D02*
X81773810Y-78309800D01*
X81773810Y-78309800D02*
X81726191Y-78357419D01*
X81726191Y-78357419D02*
X81678572Y-78309800D01*
X81678572Y-78309800D02*
X81726191Y-78262180D01*
X81726191Y-78262180D02*
X81726191Y-78357419D01*
X82678571Y-77357419D02*
X82202381Y-77357419D01*
X82202381Y-77357419D02*
X82154762Y-77833609D01*
X82154762Y-77833609D02*
X82202381Y-77785990D01*
X82202381Y-77785990D02*
X82297619Y-77738371D01*
X82297619Y-77738371D02*
X82535714Y-77738371D01*
X82535714Y-77738371D02*
X82630952Y-77785990D01*
X82630952Y-77785990D02*
X82678571Y-77833609D01*
X82678571Y-77833609D02*
X82726190Y-77928847D01*
X82726190Y-77928847D02*
X82726190Y-78166942D01*
X82726190Y-78166942D02*
X82678571Y-78262180D01*
X82678571Y-78262180D02*
X82630952Y-78309800D01*
X82630952Y-78309800D02*
X82535714Y-78357419D01*
X82535714Y-78357419D02*
X82297619Y-78357419D01*
X82297619Y-78357419D02*
X82202381Y-78309800D01*
X82202381Y-78309800D02*
X82154762Y-78262180D01*
X51500000Y-75500000D02*
X51500000Y-79586420D01*
X111000000Y-79586420D02*
X111000000Y-72000000D01*
X51500000Y-79000000D02*
X111000000Y-79000000D01*
X51500000Y-79000000D02*
X52626504Y-78413579D01*
X51500000Y-79000000D02*
X52626504Y-79586421D01*
X111000000Y-79000000D02*
X109873496Y-79586421D01*
X111000000Y-79000000D02*
X109873496Y-78413579D01*
X53890476Y-55814895D02*
X53890476Y-56462514D01*
X53890476Y-56462514D02*
X53928571Y-56538704D01*
X53928571Y-56538704D02*
X53966666Y-56576800D01*
X53966666Y-56576800D02*
X54042857Y-56614895D01*
X54042857Y-56614895D02*
X54195238Y-56614895D01*
X54195238Y-56614895D02*
X54271428Y-56576800D01*
X54271428Y-56576800D02*
X54309523Y-56538704D01*
X54309523Y-56538704D02*
X54347619Y-56462514D01*
X54347619Y-56462514D02*
X54347619Y-55814895D01*
X55147618Y-56614895D02*
X54690475Y-56614895D01*
X54919047Y-56614895D02*
X54919047Y-55814895D01*
X54919047Y-55814895D02*
X54842856Y-55929180D01*
X54842856Y-55929180D02*
X54766666Y-56005371D01*
X54766666Y-56005371D02*
X54690475Y-56043466D01*
D11*
X66795180Y-59916666D02*
X66080895Y-59916666D01*
X66080895Y-59916666D02*
X65938038Y-59869047D01*
X65938038Y-59869047D02*
X65842800Y-59773809D01*
X65842800Y-59773809D02*
X65795180Y-59630952D01*
X65795180Y-59630952D02*
X65795180Y-59535714D01*
X65795180Y-60916666D02*
X65795180Y-60345238D01*
X65795180Y-60630952D02*
X66795180Y-60630952D01*
X66795180Y-60630952D02*
X66652323Y-60535714D01*
X66652323Y-60535714D02*
X66557085Y-60440476D01*
X66557085Y-60440476D02*
X66509466Y-60345238D01*
D10*
X52788704Y-72133332D02*
X52826800Y-72171428D01*
X52826800Y-72171428D02*
X52864895Y-72285713D01*
X52864895Y-72285713D02*
X52864895Y-72361904D01*
X52864895Y-72361904D02*
X52826800Y-72476190D01*
X52826800Y-72476190D02*
X52750609Y-72552380D01*
X52750609Y-72552380D02*
X52674419Y-72590475D01*
X52674419Y-72590475D02*
X52522038Y-72628571D01*
X52522038Y-72628571D02*
X52407752Y-72628571D01*
X52407752Y-72628571D02*
X52255371Y-72590475D01*
X52255371Y-72590475D02*
X52179180Y-72552380D01*
X52179180Y-72552380D02*
X52102990Y-72476190D01*
X52102990Y-72476190D02*
X52064895Y-72361904D01*
X52064895Y-72361904D02*
X52064895Y-72285713D01*
X52064895Y-72285713D02*
X52102990Y-72171428D01*
X52102990Y-72171428D02*
X52141085Y-72133332D01*
X52864895Y-71371428D02*
X52864895Y-71828571D01*
X52864895Y-71599999D02*
X52064895Y-71599999D01*
X52064895Y-71599999D02*
X52179180Y-71676190D01*
X52179180Y-71676190D02*
X52255371Y-71752380D01*
X52255371Y-71752380D02*
X52293466Y-71828571D01*
X59616667Y-49614895D02*
X59350000Y-49233942D01*
X59159524Y-49614895D02*
X59159524Y-48814895D01*
X59159524Y-48814895D02*
X59464286Y-48814895D01*
X59464286Y-48814895D02*
X59540476Y-48852990D01*
X59540476Y-48852990D02*
X59578571Y-48891085D01*
X59578571Y-48891085D02*
X59616667Y-48967276D01*
X59616667Y-48967276D02*
X59616667Y-49081561D01*
X59616667Y-49081561D02*
X59578571Y-49157752D01*
X59578571Y-49157752D02*
X59540476Y-49195847D01*
X59540476Y-49195847D02*
X59464286Y-49233942D01*
X59464286Y-49233942D02*
X59159524Y-49233942D01*
X60378571Y-49614895D02*
X59921428Y-49614895D01*
X60150000Y-49614895D02*
X60150000Y-48814895D01*
X60150000Y-48814895D02*
X60073809Y-48929180D01*
X60073809Y-48929180D02*
X59997619Y-49005371D01*
X59997619Y-49005371D02*
X59921428Y-49043466D01*
X101064895Y-54516666D02*
X101636323Y-54516666D01*
X101636323Y-54516666D02*
X101750609Y-54554761D01*
X101750609Y-54554761D02*
X101826800Y-54630952D01*
X101826800Y-54630952D02*
X101864895Y-54745237D01*
X101864895Y-54745237D02*
X101864895Y-54821428D01*
X101141085Y-54173809D02*
X101102990Y-54135713D01*
X101102990Y-54135713D02*
X101064895Y-54059523D01*
X101064895Y-54059523D02*
X101064895Y-53869047D01*
X101064895Y-53869047D02*
X101102990Y-53792856D01*
X101102990Y-53792856D02*
X101141085Y-53754761D01*
X101141085Y-53754761D02*
X101217276Y-53716666D01*
X101217276Y-53716666D02*
X101293466Y-53716666D01*
X101293466Y-53716666D02*
X101407752Y-53754761D01*
X101407752Y-53754761D02*
X101864895Y-54211904D01*
X101864895Y-54211904D02*
X101864895Y-53716666D01*
X62409524Y-49614895D02*
X62409524Y-48814895D01*
X62409524Y-48814895D02*
X62600000Y-48814895D01*
X62600000Y-48814895D02*
X62714286Y-48852990D01*
X62714286Y-48852990D02*
X62790476Y-48929180D01*
X62790476Y-48929180D02*
X62828571Y-49005371D01*
X62828571Y-49005371D02*
X62866667Y-49157752D01*
X62866667Y-49157752D02*
X62866667Y-49272038D01*
X62866667Y-49272038D02*
X62828571Y-49424419D01*
X62828571Y-49424419D02*
X62790476Y-49500609D01*
X62790476Y-49500609D02*
X62714286Y-49576800D01*
X62714286Y-49576800D02*
X62600000Y-49614895D01*
X62600000Y-49614895D02*
X62409524Y-49614895D01*
X63628571Y-49614895D02*
X63171428Y-49614895D01*
X63400000Y-49614895D02*
X63400000Y-48814895D01*
X63400000Y-48814895D02*
X63323809Y-48929180D01*
X63323809Y-48929180D02*
X63247619Y-49005371D01*
X63247619Y-49005371D02*
X63171428Y-49043466D01*
X66114895Y-73383332D02*
X65733942Y-73649999D01*
X66114895Y-73840475D02*
X65314895Y-73840475D01*
X65314895Y-73840475D02*
X65314895Y-73535713D01*
X65314895Y-73535713D02*
X65352990Y-73459523D01*
X65352990Y-73459523D02*
X65391085Y-73421428D01*
X65391085Y-73421428D02*
X65467276Y-73383332D01*
X65467276Y-73383332D02*
X65581561Y-73383332D01*
X65581561Y-73383332D02*
X65657752Y-73421428D01*
X65657752Y-73421428D02*
X65695847Y-73459523D01*
X65695847Y-73459523D02*
X65733942Y-73535713D01*
X65733942Y-73535713D02*
X65733942Y-73840475D01*
X65391085Y-73078571D02*
X65352990Y-73040475D01*
X65352990Y-73040475D02*
X65314895Y-72964285D01*
X65314895Y-72964285D02*
X65314895Y-72773809D01*
X65314895Y-72773809D02*
X65352990Y-72697618D01*
X65352990Y-72697618D02*
X65391085Y-72659523D01*
X65391085Y-72659523D02*
X65467276Y-72621428D01*
X65467276Y-72621428D02*
X65543466Y-72621428D01*
X65543466Y-72621428D02*
X65657752Y-72659523D01*
X65657752Y-72659523D02*
X66114895Y-73116666D01*
X66114895Y-73116666D02*
X66114895Y-72621428D01*
D11*
%TO.C,U1*%
X53300000Y-75015000D02*
X53300000Y-57015000D01*
X64300000Y-57015000D02*
X53300000Y-57015000D01*
X64300000Y-57015000D02*
X64300000Y-75015000D01*
X64300000Y-75015000D02*
X53300000Y-75015000D01*
D12*
%TO.C,J1*%
X66438750Y-61897500D02*
G75*
G02*
X66188750Y-61897500I-125000J0D01*
G01*
X66188750Y-61897500D02*
G75*
G02*
X66438750Y-61897500I125000J0D01*
G01*
D13*
%TO.C,C1*%
X51990000Y-69609420D02*
X51990000Y-69890580D01*
X53010000Y-69609420D02*
X53010000Y-69890580D01*
%TO.C,R1*%
X59987258Y-50477500D02*
X59512742Y-50477500D01*
X59987258Y-51522500D02*
X59512742Y-51522500D01*
%TO.C,J2*%
X101120000Y-56020000D02*
X102500000Y-56020000D01*
X101120000Y-57400000D02*
X101120000Y-56020000D01*
X101120000Y-58670000D02*
X101120000Y-71480000D01*
X101120000Y-58670000D02*
X103770000Y-58670000D01*
X101120000Y-71480000D02*
X106420000Y-71480000D01*
X103770000Y-56020000D02*
X106420000Y-56020000D01*
X103770000Y-58670000D02*
X103770000Y-56020000D01*
X106420000Y-56020000D02*
X106420000Y-71480000D01*
%TO.C,D1*%
X61515000Y-50265000D02*
X61515000Y-51735000D01*
X61515000Y-51735000D02*
X63800000Y-51735000D01*
X63800000Y-50265000D02*
X61515000Y-50265000D01*
%TO.C,R2*%
X65227500Y-71237258D02*
X65227500Y-70762742D01*
X66272500Y-71237258D02*
X66272500Y-70762742D01*
%TD*%
M02*
