M48
; DRILL file {KiCad 9.0.6} date 2026-01-27T22:02:47+1300
; FORMAT={-:-/ absolute / metric / decimal}
; #@! TF.CreationDate,2026-01-27T22:02:47+13:00
; #@! TF.GenerationSoftware,Kicad,Pcbnew,9.0.6
; #@! TF.FileFunction,Plated,1,2,PTH
FMAT,2
METRIC
; #@! TA.AperFunction,Plated,PTH,ComponentDrill
T1C0.254
; #@! TA.AperFunction,Plated,PTH,ViaDrill
T2C0.300
; #@! TA.AperFunction,Plated,PTH,ViaDrill
T3C0.400
; #@! TA.AperFunction,Plated,PTH,ComponentDrill
T4C0.800
%
G90
G05
T1
X108.846Y-117.713
X108.846Y-118.5
X108.846Y-119.287
X109.634Y-117.713
X109.634Y-118.5
X109.634Y-119.287
X159.502Y-107.5
X159.502Y-108.0
X159.502Y-108.5
X160.002Y-107.5
X160.002Y-108.0
X160.002Y-108.5
X160.502Y-107.5
X160.502Y-108.0
X160.502Y-108.5
T2
X102.0Y-114.0
X102.05Y-121.9
X103.55Y-121.9
X105.0Y-121.9
X109.25Y-123.0
X113.25Y-123.0
X113.55Y-115.55
X115.5Y-115.55
X115.6Y-109.7
X115.6Y-110.6
X115.6Y-111.65
X116.55Y-108.75
X116.55Y-113.6
X116.65Y-110.65
X117.5Y-121.5
X117.85Y-106.5
X118.7Y-119.55
X118.75Y-105.3
X119.1Y-123.5
X119.5Y-115.7
X120.2Y-104.2
X120.65Y-121.2
X121.517Y-109.252
X121.55Y-110.4
X122.0Y-103.349
X122.421Y-105.581
X122.623Y-104.91
X122.665Y-109.22
X122.665Y-110.4
X123.0Y-117.35
X123.365Y-111.1
X123.365Y-112.15
X123.467Y-104.943
X124.0Y-105.398
X124.18Y-102.551
X125.05Y-101.8
X125.752Y-105.306
X125.865Y-110.4
X127.25Y-116.5
X127.29Y-104.31
X127.7Y-125.4
X127.897Y-103.293
X128.2Y-121.5
X129.2Y-111.75
X129.65Y-105.3
X130.2Y-113.6
X130.63Y-103.61
X130.649Y-108.373
X131.3Y-107.73
X131.336Y-104.99
X132.46Y-107.42
X132.6Y-102.85
X133.48Y-106.08
X138.83Y-106.36
X139.49Y-125.87
X139.87Y-114.5
X140.01Y-110.92
X141.91Y-106.59
X142.17Y-116.85
X143.45Y-100.85
X143.6Y-115.0
X144.15Y-107.1
X144.61Y-115.85
X145.45Y-111.55
X145.9Y-113.55
X145.9Y-125.55
X146.446Y-103.765
X148.05Y-103.25
X148.15Y-114.3
X149.24Y-115.66
X150.15Y-114.9
X150.17Y-103.13
X150.2Y-125.5
X150.85Y-105.95
X151.22Y-114.48
X151.5Y-104.55
X151.56Y-111.53
X151.62Y-109.65
X153.8Y-116.4
X155.85Y-112.9
X155.875Y-106.275
X157.07Y-109.66
X157.73Y-106.53
X157.9Y-116.4
X158.7Y-125.35
X159.4Y-122.9
X160.403Y-123.4
X161.286Y-123.964
X162.35Y-109.8
X162.7Y-107.25
X162.86Y-108.29
X163.45Y-107.75
X167.93Y-123.68
X173.65Y-111.1
X173.75Y-103.8
X175.27Y-120.38
X178.95Y-116.95
X179.0Y-112.9
X182.25Y-125.21
X185.4Y-115.05
X186.18Y-125.25
X187.59Y-125.33
X192.5Y-102.551
X198.96Y-108.23
X201.3Y-105.5
X201.47Y-122.89
X201.75Y-117.05
X202.13Y-100.91
X202.59Y-104.91
X203.48Y-126.08
X206.0Y-126.08
X206.17Y-120.06
X208.039Y-120.161
X209.03Y-104.89
X209.03Y-112.74
X209.309Y-120.16
X210.59Y-118.75
X213.4Y-103.9
X215.18Y-100.91
X215.46Y-114.48
X216.5Y-116.95
X217.5Y-108.45
T3
X112.055Y-102.35
X115.9Y-102.85
X121.15Y-101.15
X127.86Y-101.46
X129.52Y-120.88
X129.9Y-118.1
X131.85Y-110.5
X134.3Y-116.45
X134.3Y-117.65
X141.75Y-122.95
X143.65Y-107.85
X144.35Y-109.0
X148.14Y-122.62
X151.45Y-102.95
X151.92Y-120.1
X154.35Y-103.5
X161.75Y-103.6
X177.48Y-119.02
X177.6Y-121.9
X186.0Y-109.0
X188.29Y-101.18
X217.53Y-106.86
T4
X112.055Y-100.0
X113.325Y-100.0
X114.595Y-100.0
X117.135Y-100.0
X118.405Y-100.0
X119.675Y-100.0
X128.77Y-100.0
X130.04Y-100.0
X131.31Y-100.0
X133.85Y-100.0
X135.12Y-100.0
X136.39Y-100.0
X190.0Y-100.0
X191.27Y-100.0
X192.54Y-100.0
X195.08Y-100.0
X196.35Y-100.0
X197.62Y-100.0
M30
