G04 #@! TF.GenerationSoftware,KiCad,Pcbnew,9.0.6*
G04 #@! TF.CreationDate,2026-01-27T22:02:47+13:00*
G04 #@! TF.ProjectId,Main_PCB_Based_on_8411A,4d61696e-5f50-4434-925f-42617365645f,rev?*
G04 #@! TF.SameCoordinates,Original*
G04 #@! TF.FileFunction,Legend,Bot*
G04 #@! TF.FilePolarity,Positive*
%FSLAX46Y46*%
G04 Gerber Fmt 4.6, Leading zero omitted, Abs format (unit mm)*
G04 Created by KiCad (PCBNEW 9.0.6) date 2026-01-27 22:02:47*
%MOMM*%
%LPD*%
G01*
G04 APERTURE LIST*
G04 Aperture macros list*
%AMFreePoly0*
4,1,13,0.099990,0.100010,0.099980,0.100000,0.099990,0.080110,0.084770,0.043360,0.056640,0.015230,0.019890,0.000000,-0.869910,0.000000,-0.906660,0.015220,-0.934790,0.043350,-0.950010,0.080110,-0.950010,0.750000,0.099990,0.750000,0.099990,0.100010,0.099990,0.100010,$1*%
G04 Aperture macros list end*
%ADD10C,0.100000*%
%ADD11C,0.152400*%
%ADD12C,0.120000*%
%ADD13C,1.000000*%
%ADD14C,1.100000*%
%ADD15C,1.045000*%
%ADD16FreePoly0,0.000000*%
%ADD17C,0.508000*%
%ADD18C,0.900000*%
%ADD19R,2.500000X12.500000*%
%ADD20R,2.000000X0.600000*%
%ADD21R,0.300000X0.500000*%
G04 APERTURE END LIST*
D10*
X215386115Y-108868721D02*
X215052782Y-108868721D01*
X214909925Y-109392531D02*
X215386115Y-109392531D01*
X215386115Y-109392531D02*
X215386115Y-108392531D01*
X215386115Y-108392531D02*
X214909925Y-108392531D01*
X214481353Y-108725864D02*
X214481353Y-109392531D01*
X214481353Y-108821102D02*
X214433734Y-108773483D01*
X214433734Y-108773483D02*
X214338496Y-108725864D01*
X214338496Y-108725864D02*
X214195639Y-108725864D01*
X214195639Y-108725864D02*
X214100401Y-108773483D01*
X214100401Y-108773483D02*
X214052782Y-108868721D01*
X214052782Y-108868721D02*
X214052782Y-109392531D01*
X213195639Y-109344912D02*
X213290877Y-109392531D01*
X213290877Y-109392531D02*
X213481353Y-109392531D01*
X213481353Y-109392531D02*
X213576591Y-109344912D01*
X213576591Y-109344912D02*
X213624210Y-109249673D01*
X213624210Y-109249673D02*
X213624210Y-108868721D01*
X213624210Y-108868721D02*
X213576591Y-108773483D01*
X213576591Y-108773483D02*
X213481353Y-108725864D01*
X213481353Y-108725864D02*
X213290877Y-108725864D01*
X213290877Y-108725864D02*
X213195639Y-108773483D01*
X213195639Y-108773483D02*
X213148020Y-108868721D01*
X213148020Y-108868721D02*
X213148020Y-108963959D01*
X213148020Y-108963959D02*
X213624210Y-109059197D01*
X212719448Y-109392531D02*
X212719448Y-108725864D01*
X212719448Y-108916340D02*
X212671829Y-108821102D01*
X212671829Y-108821102D02*
X212624210Y-108773483D01*
X212624210Y-108773483D02*
X212528972Y-108725864D01*
X212528972Y-108725864D02*
X212433734Y-108725864D01*
X211671829Y-108725864D02*
X211671829Y-109535388D01*
X211671829Y-109535388D02*
X211719448Y-109630626D01*
X211719448Y-109630626D02*
X211767067Y-109678245D01*
X211767067Y-109678245D02*
X211862305Y-109725864D01*
X211862305Y-109725864D02*
X212005162Y-109725864D01*
X212005162Y-109725864D02*
X212100400Y-109678245D01*
X211671829Y-109344912D02*
X211767067Y-109392531D01*
X211767067Y-109392531D02*
X211957543Y-109392531D01*
X211957543Y-109392531D02*
X212052781Y-109344912D01*
X212052781Y-109344912D02*
X212100400Y-109297292D01*
X212100400Y-109297292D02*
X212148019Y-109202054D01*
X212148019Y-109202054D02*
X212148019Y-108916340D01*
X212148019Y-108916340D02*
X212100400Y-108821102D01*
X212100400Y-108821102D02*
X212052781Y-108773483D01*
X212052781Y-108773483D02*
X211957543Y-108725864D01*
X211957543Y-108725864D02*
X211767067Y-108725864D01*
X211767067Y-108725864D02*
X211671829Y-108773483D01*
X211290876Y-108725864D02*
X211052781Y-109392531D01*
X210814686Y-108725864D02*
X211052781Y-109392531D01*
X211052781Y-109392531D02*
X211148019Y-109630626D01*
X211148019Y-109630626D02*
X211195638Y-109678245D01*
X211195638Y-109678245D02*
X211290876Y-109725864D01*
X209338495Y-108868721D02*
X209671828Y-108868721D01*
X209671828Y-109392531D02*
X209671828Y-108392531D01*
X209671828Y-108392531D02*
X209195638Y-108392531D01*
X208671828Y-109392531D02*
X208767066Y-109344912D01*
X208767066Y-109344912D02*
X208814685Y-109249673D01*
X208814685Y-109249673D02*
X208814685Y-108392531D01*
X208148018Y-109392531D02*
X208243256Y-109344912D01*
X208243256Y-109344912D02*
X208290875Y-109297292D01*
X208290875Y-109297292D02*
X208338494Y-109202054D01*
X208338494Y-109202054D02*
X208338494Y-108916340D01*
X208338494Y-108916340D02*
X208290875Y-108821102D01*
X208290875Y-108821102D02*
X208243256Y-108773483D01*
X208243256Y-108773483D02*
X208148018Y-108725864D01*
X208148018Y-108725864D02*
X208005161Y-108725864D01*
X208005161Y-108725864D02*
X207909923Y-108773483D01*
X207909923Y-108773483D02*
X207862304Y-108821102D01*
X207862304Y-108821102D02*
X207814685Y-108916340D01*
X207814685Y-108916340D02*
X207814685Y-109202054D01*
X207814685Y-109202054D02*
X207862304Y-109297292D01*
X207862304Y-109297292D02*
X207909923Y-109344912D01*
X207909923Y-109344912D02*
X208005161Y-109392531D01*
X208005161Y-109392531D02*
X208148018Y-109392531D01*
X207481351Y-108725864D02*
X207290875Y-109392531D01*
X207290875Y-109392531D02*
X207100399Y-108916340D01*
X207100399Y-108916340D02*
X206909923Y-109392531D01*
X206909923Y-109392531D02*
X206719447Y-108725864D01*
X205671827Y-108392531D02*
X205433732Y-109392531D01*
X205433732Y-109392531D02*
X205243256Y-108678245D01*
X205243256Y-108678245D02*
X205052780Y-109392531D01*
X205052780Y-109392531D02*
X204814685Y-108392531D01*
X204005161Y-109392531D02*
X204005161Y-108868721D01*
X204005161Y-108868721D02*
X204052780Y-108773483D01*
X204052780Y-108773483D02*
X204148018Y-108725864D01*
X204148018Y-108725864D02*
X204338494Y-108725864D01*
X204338494Y-108725864D02*
X204433732Y-108773483D01*
X204005161Y-109344912D02*
X204100399Y-109392531D01*
X204100399Y-109392531D02*
X204338494Y-109392531D01*
X204338494Y-109392531D02*
X204433732Y-109344912D01*
X204433732Y-109344912D02*
X204481351Y-109249673D01*
X204481351Y-109249673D02*
X204481351Y-109154435D01*
X204481351Y-109154435D02*
X204433732Y-109059197D01*
X204433732Y-109059197D02*
X204338494Y-109011578D01*
X204338494Y-109011578D02*
X204100399Y-109011578D01*
X204100399Y-109011578D02*
X204005161Y-108963959D01*
X203386113Y-109392531D02*
X203481351Y-109344912D01*
X203481351Y-109344912D02*
X203528970Y-109249673D01*
X203528970Y-109249673D02*
X203528970Y-108392531D01*
X202862303Y-109392531D02*
X202957541Y-109344912D01*
X202957541Y-109344912D02*
X203005160Y-109249673D01*
X203005160Y-109249673D02*
X203005160Y-108392531D01*
X215386115Y-111002475D02*
X215386115Y-110002475D01*
X215386115Y-110002475D02*
X215148020Y-110002475D01*
X215148020Y-110002475D02*
X215005163Y-110050094D01*
X215005163Y-110050094D02*
X214909925Y-110145332D01*
X214909925Y-110145332D02*
X214862306Y-110240570D01*
X214862306Y-110240570D02*
X214814687Y-110431046D01*
X214814687Y-110431046D02*
X214814687Y-110573903D01*
X214814687Y-110573903D02*
X214862306Y-110764379D01*
X214862306Y-110764379D02*
X214909925Y-110859617D01*
X214909925Y-110859617D02*
X215005163Y-110954856D01*
X215005163Y-110954856D02*
X215148020Y-111002475D01*
X215148020Y-111002475D02*
X215386115Y-111002475D01*
X214005163Y-110954856D02*
X214100401Y-111002475D01*
X214100401Y-111002475D02*
X214290877Y-111002475D01*
X214290877Y-111002475D02*
X214386115Y-110954856D01*
X214386115Y-110954856D02*
X214433734Y-110859617D01*
X214433734Y-110859617D02*
X214433734Y-110478665D01*
X214433734Y-110478665D02*
X214386115Y-110383427D01*
X214386115Y-110383427D02*
X214290877Y-110335808D01*
X214290877Y-110335808D02*
X214100401Y-110335808D01*
X214100401Y-110335808D02*
X214005163Y-110383427D01*
X214005163Y-110383427D02*
X213957544Y-110478665D01*
X213957544Y-110478665D02*
X213957544Y-110573903D01*
X213957544Y-110573903D02*
X214433734Y-110669141D01*
X213576591Y-110954856D02*
X213481353Y-111002475D01*
X213481353Y-111002475D02*
X213290877Y-111002475D01*
X213290877Y-111002475D02*
X213195639Y-110954856D01*
X213195639Y-110954856D02*
X213148020Y-110859617D01*
X213148020Y-110859617D02*
X213148020Y-110811998D01*
X213148020Y-110811998D02*
X213195639Y-110716760D01*
X213195639Y-110716760D02*
X213290877Y-110669141D01*
X213290877Y-110669141D02*
X213433734Y-110669141D01*
X213433734Y-110669141D02*
X213528972Y-110621522D01*
X213528972Y-110621522D02*
X213576591Y-110526284D01*
X213576591Y-110526284D02*
X213576591Y-110478665D01*
X213576591Y-110478665D02*
X213528972Y-110383427D01*
X213528972Y-110383427D02*
X213433734Y-110335808D01*
X213433734Y-110335808D02*
X213290877Y-110335808D01*
X213290877Y-110335808D02*
X213195639Y-110383427D01*
X212719448Y-111002475D02*
X212719448Y-110335808D01*
X212719448Y-110002475D02*
X212767067Y-110050094D01*
X212767067Y-110050094D02*
X212719448Y-110097713D01*
X212719448Y-110097713D02*
X212671829Y-110050094D01*
X212671829Y-110050094D02*
X212719448Y-110002475D01*
X212719448Y-110002475D02*
X212719448Y-110097713D01*
X211814687Y-110335808D02*
X211814687Y-111145332D01*
X211814687Y-111145332D02*
X211862306Y-111240570D01*
X211862306Y-111240570D02*
X211909925Y-111288189D01*
X211909925Y-111288189D02*
X212005163Y-111335808D01*
X212005163Y-111335808D02*
X212148020Y-111335808D01*
X212148020Y-111335808D02*
X212243258Y-111288189D01*
X211814687Y-110954856D02*
X211909925Y-111002475D01*
X211909925Y-111002475D02*
X212100401Y-111002475D01*
X212100401Y-111002475D02*
X212195639Y-110954856D01*
X212195639Y-110954856D02*
X212243258Y-110907236D01*
X212243258Y-110907236D02*
X212290877Y-110811998D01*
X212290877Y-110811998D02*
X212290877Y-110526284D01*
X212290877Y-110526284D02*
X212243258Y-110431046D01*
X212243258Y-110431046D02*
X212195639Y-110383427D01*
X212195639Y-110383427D02*
X212100401Y-110335808D01*
X212100401Y-110335808D02*
X211909925Y-110335808D01*
X211909925Y-110335808D02*
X211814687Y-110383427D01*
X211338496Y-110335808D02*
X211338496Y-111002475D01*
X211338496Y-110431046D02*
X211290877Y-110383427D01*
X211290877Y-110383427D02*
X211195639Y-110335808D01*
X211195639Y-110335808D02*
X211052782Y-110335808D01*
X211052782Y-110335808D02*
X210957544Y-110383427D01*
X210957544Y-110383427D02*
X210909925Y-110478665D01*
X210909925Y-110478665D02*
X210909925Y-111002475D01*
X210052782Y-110954856D02*
X210148020Y-111002475D01*
X210148020Y-111002475D02*
X210338496Y-111002475D01*
X210338496Y-111002475D02*
X210433734Y-110954856D01*
X210433734Y-110954856D02*
X210481353Y-110859617D01*
X210481353Y-110859617D02*
X210481353Y-110478665D01*
X210481353Y-110478665D02*
X210433734Y-110383427D01*
X210433734Y-110383427D02*
X210338496Y-110335808D01*
X210338496Y-110335808D02*
X210148020Y-110335808D01*
X210148020Y-110335808D02*
X210052782Y-110383427D01*
X210052782Y-110383427D02*
X210005163Y-110478665D01*
X210005163Y-110478665D02*
X210005163Y-110573903D01*
X210005163Y-110573903D02*
X210481353Y-110669141D01*
X209148020Y-111002475D02*
X209148020Y-110002475D01*
X209148020Y-110954856D02*
X209243258Y-111002475D01*
X209243258Y-111002475D02*
X209433734Y-111002475D01*
X209433734Y-111002475D02*
X209528972Y-110954856D01*
X209528972Y-110954856D02*
X209576591Y-110907236D01*
X209576591Y-110907236D02*
X209624210Y-110811998D01*
X209624210Y-110811998D02*
X209624210Y-110526284D01*
X209624210Y-110526284D02*
X209576591Y-110431046D01*
X209576591Y-110431046D02*
X209528972Y-110383427D01*
X209528972Y-110383427D02*
X209433734Y-110335808D01*
X209433734Y-110335808D02*
X209243258Y-110335808D01*
X209243258Y-110335808D02*
X209148020Y-110383427D01*
X207909924Y-111002475D02*
X207909924Y-110002475D01*
X207909924Y-110383427D02*
X207814686Y-110335808D01*
X207814686Y-110335808D02*
X207624210Y-110335808D01*
X207624210Y-110335808D02*
X207528972Y-110383427D01*
X207528972Y-110383427D02*
X207481353Y-110431046D01*
X207481353Y-110431046D02*
X207433734Y-110526284D01*
X207433734Y-110526284D02*
X207433734Y-110811998D01*
X207433734Y-110811998D02*
X207481353Y-110907236D01*
X207481353Y-110907236D02*
X207528972Y-110954856D01*
X207528972Y-110954856D02*
X207624210Y-111002475D01*
X207624210Y-111002475D02*
X207814686Y-111002475D01*
X207814686Y-111002475D02*
X207909924Y-110954856D01*
X207100400Y-110335808D02*
X206862305Y-111002475D01*
X206624210Y-110335808D02*
X206862305Y-111002475D01*
X206862305Y-111002475D02*
X206957543Y-111240570D01*
X206957543Y-111240570D02*
X207005162Y-111288189D01*
X207005162Y-111288189D02*
X207100400Y-111335808D01*
X205624209Y-110002475D02*
X205290876Y-111002475D01*
X205290876Y-111002475D02*
X204957543Y-110002475D01*
X204243257Y-110954856D02*
X204338495Y-111002475D01*
X204338495Y-111002475D02*
X204528971Y-111002475D01*
X204528971Y-111002475D02*
X204624209Y-110954856D01*
X204624209Y-110954856D02*
X204671828Y-110859617D01*
X204671828Y-110859617D02*
X204671828Y-110478665D01*
X204671828Y-110478665D02*
X204624209Y-110383427D01*
X204624209Y-110383427D02*
X204528971Y-110335808D01*
X204528971Y-110335808D02*
X204338495Y-110335808D01*
X204338495Y-110335808D02*
X204243257Y-110383427D01*
X204243257Y-110383427D02*
X204195638Y-110478665D01*
X204195638Y-110478665D02*
X204195638Y-110573903D01*
X204195638Y-110573903D02*
X204671828Y-110669141D01*
X203767066Y-111002475D02*
X203767066Y-110335808D01*
X203767066Y-110526284D02*
X203719447Y-110431046D01*
X203719447Y-110431046D02*
X203671828Y-110383427D01*
X203671828Y-110383427D02*
X203576590Y-110335808D01*
X203576590Y-110335808D02*
X203481352Y-110335808D01*
X202719447Y-110335808D02*
X202719447Y-111002475D01*
X203148018Y-110335808D02*
X203148018Y-110859617D01*
X203148018Y-110859617D02*
X203100399Y-110954856D01*
X203100399Y-110954856D02*
X203005161Y-111002475D01*
X203005161Y-111002475D02*
X202862304Y-111002475D01*
X202862304Y-111002475D02*
X202767066Y-110954856D01*
X202767066Y-110954856D02*
X202719447Y-110907236D01*
X202243256Y-111002475D02*
X202243256Y-110335808D01*
X202243256Y-110431046D02*
X202195637Y-110383427D01*
X202195637Y-110383427D02*
X202100399Y-110335808D01*
X202100399Y-110335808D02*
X201957542Y-110335808D01*
X201957542Y-110335808D02*
X201862304Y-110383427D01*
X201862304Y-110383427D02*
X201814685Y-110478665D01*
X201814685Y-110478665D02*
X201814685Y-111002475D01*
X201814685Y-110478665D02*
X201767066Y-110383427D01*
X201767066Y-110383427D02*
X201671828Y-110335808D01*
X201671828Y-110335808D02*
X201528971Y-110335808D01*
X201528971Y-110335808D02*
X201433732Y-110383427D01*
X201433732Y-110383427D02*
X201386113Y-110478665D01*
X201386113Y-110478665D02*
X201386113Y-111002475D01*
X200290875Y-110002475D02*
X199719447Y-110002475D01*
X200005161Y-111002475D02*
X200005161Y-110002475D01*
X199005161Y-110954856D02*
X199100399Y-111002475D01*
X199100399Y-111002475D02*
X199290875Y-111002475D01*
X199290875Y-111002475D02*
X199386113Y-110954856D01*
X199386113Y-110954856D02*
X199433732Y-110859617D01*
X199433732Y-110859617D02*
X199433732Y-110478665D01*
X199433732Y-110478665D02*
X199386113Y-110383427D01*
X199386113Y-110383427D02*
X199290875Y-110335808D01*
X199290875Y-110335808D02*
X199100399Y-110335808D01*
X199100399Y-110335808D02*
X199005161Y-110383427D01*
X199005161Y-110383427D02*
X198957542Y-110478665D01*
X198957542Y-110478665D02*
X198957542Y-110573903D01*
X198957542Y-110573903D02*
X199433732Y-110669141D01*
X198100399Y-110954856D02*
X198195637Y-111002475D01*
X198195637Y-111002475D02*
X198386113Y-111002475D01*
X198386113Y-111002475D02*
X198481351Y-110954856D01*
X198481351Y-110954856D02*
X198528970Y-110907236D01*
X198528970Y-110907236D02*
X198576589Y-110811998D01*
X198576589Y-110811998D02*
X198576589Y-110526284D01*
X198576589Y-110526284D02*
X198528970Y-110431046D01*
X198528970Y-110431046D02*
X198481351Y-110383427D01*
X198481351Y-110383427D02*
X198386113Y-110335808D01*
X198386113Y-110335808D02*
X198195637Y-110335808D01*
X198195637Y-110335808D02*
X198100399Y-110383427D01*
X197671827Y-111002475D02*
X197671827Y-110002475D01*
X197243256Y-111002475D02*
X197243256Y-110478665D01*
X197243256Y-110478665D02*
X197290875Y-110383427D01*
X197290875Y-110383427D02*
X197386113Y-110335808D01*
X197386113Y-110335808D02*
X197528970Y-110335808D01*
X197528970Y-110335808D02*
X197624208Y-110383427D01*
X197624208Y-110383427D02*
X197671827Y-110431046D01*
X195862303Y-111002475D02*
X195957541Y-110954856D01*
X195957541Y-110954856D02*
X196005160Y-110859617D01*
X196005160Y-110859617D02*
X196005160Y-110002475D01*
X195624207Y-110335808D02*
X195243255Y-110335808D01*
X195481350Y-110002475D02*
X195481350Y-110859617D01*
X195481350Y-110859617D02*
X195433731Y-110954856D01*
X195433731Y-110954856D02*
X195338493Y-111002475D01*
X195338493Y-111002475D02*
X195243255Y-111002475D01*
X194481350Y-111002475D02*
X194481350Y-110002475D01*
X194481350Y-110954856D02*
X194576588Y-111002475D01*
X194576588Y-111002475D02*
X194767064Y-111002475D01*
X194767064Y-111002475D02*
X194862302Y-110954856D01*
X194862302Y-110954856D02*
X194909921Y-110907236D01*
X194909921Y-110907236D02*
X194957540Y-110811998D01*
X194957540Y-110811998D02*
X194957540Y-110526284D01*
X194957540Y-110526284D02*
X194909921Y-110431046D01*
X194909921Y-110431046D02*
X194862302Y-110383427D01*
X194862302Y-110383427D02*
X194767064Y-110335808D01*
X194767064Y-110335808D02*
X194576588Y-110335808D01*
X194576588Y-110335808D02*
X194481350Y-110383427D01*
X192433730Y-110240570D02*
X192528969Y-110192951D01*
X192528969Y-110192951D02*
X192719445Y-110192951D01*
X192719445Y-110192951D02*
X192814683Y-110240570D01*
X192814683Y-110240570D02*
X192909921Y-110335808D01*
X192909921Y-110335808D02*
X192957540Y-110431046D01*
X192957540Y-110431046D02*
X192957540Y-110621522D01*
X192957540Y-110621522D02*
X192909921Y-110716760D01*
X192909921Y-110716760D02*
X192814683Y-110811998D01*
X192814683Y-110811998D02*
X192719445Y-110859617D01*
X192719445Y-110859617D02*
X192528969Y-110859617D01*
X192528969Y-110859617D02*
X192433730Y-110811998D01*
X192624207Y-109859617D02*
X192862302Y-109907236D01*
X192862302Y-109907236D02*
X193100397Y-110050094D01*
X193100397Y-110050094D02*
X193243254Y-110288189D01*
X193243254Y-110288189D02*
X193290873Y-110526284D01*
X193290873Y-110526284D02*
X193243254Y-110764379D01*
X193243254Y-110764379D02*
X193100397Y-111002475D01*
X193100397Y-111002475D02*
X192862302Y-111145332D01*
X192862302Y-111145332D02*
X192624207Y-111192951D01*
X192624207Y-111192951D02*
X192386111Y-111145332D01*
X192386111Y-111145332D02*
X192148016Y-111002475D01*
X192148016Y-111002475D02*
X192005159Y-110764379D01*
X192005159Y-110764379D02*
X191957540Y-110526284D01*
X191957540Y-110526284D02*
X192005159Y-110288189D01*
X192005159Y-110288189D02*
X192148016Y-110050094D01*
X192148016Y-110050094D02*
X192386111Y-109907236D01*
X192386111Y-109907236D02*
X192624207Y-109859617D01*
X215386115Y-112612419D02*
X215386115Y-111612419D01*
X215386115Y-111612419D02*
X214814687Y-112612419D01*
X214814687Y-112612419D02*
X214814687Y-111612419D01*
X213957544Y-112564800D02*
X214052782Y-112612419D01*
X214052782Y-112612419D02*
X214243258Y-112612419D01*
X214243258Y-112612419D02*
X214338496Y-112564800D01*
X214338496Y-112564800D02*
X214386115Y-112469561D01*
X214386115Y-112469561D02*
X214386115Y-112088609D01*
X214386115Y-112088609D02*
X214338496Y-111993371D01*
X214338496Y-111993371D02*
X214243258Y-111945752D01*
X214243258Y-111945752D02*
X214052782Y-111945752D01*
X214052782Y-111945752D02*
X213957544Y-111993371D01*
X213957544Y-111993371D02*
X213909925Y-112088609D01*
X213909925Y-112088609D02*
X213909925Y-112183847D01*
X213909925Y-112183847D02*
X214386115Y-112279085D01*
X213576591Y-111945752D02*
X213386115Y-112612419D01*
X213386115Y-112612419D02*
X213195639Y-112136228D01*
X213195639Y-112136228D02*
X213005163Y-112612419D01*
X213005163Y-112612419D02*
X212814687Y-111945752D01*
X211767067Y-111612419D02*
X211100401Y-111612419D01*
X211100401Y-111612419D02*
X211767067Y-112612419D01*
X211767067Y-112612419D02*
X211100401Y-112612419D01*
X210338496Y-112564800D02*
X210433734Y-112612419D01*
X210433734Y-112612419D02*
X210624210Y-112612419D01*
X210624210Y-112612419D02*
X210719448Y-112564800D01*
X210719448Y-112564800D02*
X210767067Y-112469561D01*
X210767067Y-112469561D02*
X210767067Y-112088609D01*
X210767067Y-112088609D02*
X210719448Y-111993371D01*
X210719448Y-111993371D02*
X210624210Y-111945752D01*
X210624210Y-111945752D02*
X210433734Y-111945752D01*
X210433734Y-111945752D02*
X210338496Y-111993371D01*
X210338496Y-111993371D02*
X210290877Y-112088609D01*
X210290877Y-112088609D02*
X210290877Y-112183847D01*
X210290877Y-112183847D02*
X210767067Y-112279085D01*
X209433734Y-112612419D02*
X209433734Y-112088609D01*
X209433734Y-112088609D02*
X209481353Y-111993371D01*
X209481353Y-111993371D02*
X209576591Y-111945752D01*
X209576591Y-111945752D02*
X209767067Y-111945752D01*
X209767067Y-111945752D02*
X209862305Y-111993371D01*
X209433734Y-112564800D02*
X209528972Y-112612419D01*
X209528972Y-112612419D02*
X209767067Y-112612419D01*
X209767067Y-112612419D02*
X209862305Y-112564800D01*
X209862305Y-112564800D02*
X209909924Y-112469561D01*
X209909924Y-112469561D02*
X209909924Y-112374323D01*
X209909924Y-112374323D02*
X209862305Y-112279085D01*
X209862305Y-112279085D02*
X209767067Y-112231466D01*
X209767067Y-112231466D02*
X209528972Y-112231466D01*
X209528972Y-112231466D02*
X209433734Y-112183847D01*
X208814686Y-112612419D02*
X208909924Y-112564800D01*
X208909924Y-112564800D02*
X208957543Y-112469561D01*
X208957543Y-112469561D02*
X208957543Y-111612419D01*
X208005162Y-112612419D02*
X208005162Y-112088609D01*
X208005162Y-112088609D02*
X208052781Y-111993371D01*
X208052781Y-111993371D02*
X208148019Y-111945752D01*
X208148019Y-111945752D02*
X208338495Y-111945752D01*
X208338495Y-111945752D02*
X208433733Y-111993371D01*
X208005162Y-112564800D02*
X208100400Y-112612419D01*
X208100400Y-112612419D02*
X208338495Y-112612419D01*
X208338495Y-112612419D02*
X208433733Y-112564800D01*
X208433733Y-112564800D02*
X208481352Y-112469561D01*
X208481352Y-112469561D02*
X208481352Y-112374323D01*
X208481352Y-112374323D02*
X208433733Y-112279085D01*
X208433733Y-112279085D02*
X208338495Y-112231466D01*
X208338495Y-112231466D02*
X208100400Y-112231466D01*
X208100400Y-112231466D02*
X208005162Y-112183847D01*
X207528971Y-111945752D02*
X207528971Y-112612419D01*
X207528971Y-112040990D02*
X207481352Y-111993371D01*
X207481352Y-111993371D02*
X207386114Y-111945752D01*
X207386114Y-111945752D02*
X207243257Y-111945752D01*
X207243257Y-111945752D02*
X207148019Y-111993371D01*
X207148019Y-111993371D02*
X207100400Y-112088609D01*
X207100400Y-112088609D02*
X207100400Y-112612419D01*
X206195638Y-112612419D02*
X206195638Y-111612419D01*
X206195638Y-112564800D02*
X206290876Y-112612419D01*
X206290876Y-112612419D02*
X206481352Y-112612419D01*
X206481352Y-112612419D02*
X206576590Y-112564800D01*
X206576590Y-112564800D02*
X206624209Y-112517180D01*
X206624209Y-112517180D02*
X206671828Y-112421942D01*
X206671828Y-112421942D02*
X206671828Y-112136228D01*
X206671828Y-112136228D02*
X206624209Y-112040990D01*
X206624209Y-112040990D02*
X206576590Y-111993371D01*
X206576590Y-111993371D02*
X206481352Y-111945752D01*
X206481352Y-111945752D02*
X206290876Y-111945752D01*
X206290876Y-111945752D02*
X206195638Y-111993371D01*
X205005161Y-111707657D02*
X204957542Y-111660038D01*
X204957542Y-111660038D02*
X204862304Y-111612419D01*
X204862304Y-111612419D02*
X204624209Y-111612419D01*
X204624209Y-111612419D02*
X204528971Y-111660038D01*
X204528971Y-111660038D02*
X204481352Y-111707657D01*
X204481352Y-111707657D02*
X204433733Y-111802895D01*
X204433733Y-111802895D02*
X204433733Y-111898133D01*
X204433733Y-111898133D02*
X204481352Y-112040990D01*
X204481352Y-112040990D02*
X205052780Y-112612419D01*
X205052780Y-112612419D02*
X204433733Y-112612419D01*
X203814685Y-111612419D02*
X203719447Y-111612419D01*
X203719447Y-111612419D02*
X203624209Y-111660038D01*
X203624209Y-111660038D02*
X203576590Y-111707657D01*
X203576590Y-111707657D02*
X203528971Y-111802895D01*
X203528971Y-111802895D02*
X203481352Y-111993371D01*
X203481352Y-111993371D02*
X203481352Y-112231466D01*
X203481352Y-112231466D02*
X203528971Y-112421942D01*
X203528971Y-112421942D02*
X203576590Y-112517180D01*
X203576590Y-112517180D02*
X203624209Y-112564800D01*
X203624209Y-112564800D02*
X203719447Y-112612419D01*
X203719447Y-112612419D02*
X203814685Y-112612419D01*
X203814685Y-112612419D02*
X203909923Y-112564800D01*
X203909923Y-112564800D02*
X203957542Y-112517180D01*
X203957542Y-112517180D02*
X204005161Y-112421942D01*
X204005161Y-112421942D02*
X204052780Y-112231466D01*
X204052780Y-112231466D02*
X204052780Y-111993371D01*
X204052780Y-111993371D02*
X204005161Y-111802895D01*
X204005161Y-111802895D02*
X203957542Y-111707657D01*
X203957542Y-111707657D02*
X203909923Y-111660038D01*
X203909923Y-111660038D02*
X203814685Y-111612419D01*
X203100399Y-111707657D02*
X203052780Y-111660038D01*
X203052780Y-111660038D02*
X202957542Y-111612419D01*
X202957542Y-111612419D02*
X202719447Y-111612419D01*
X202719447Y-111612419D02*
X202624209Y-111660038D01*
X202624209Y-111660038D02*
X202576590Y-111707657D01*
X202576590Y-111707657D02*
X202528971Y-111802895D01*
X202528971Y-111802895D02*
X202528971Y-111898133D01*
X202528971Y-111898133D02*
X202576590Y-112040990D01*
X202576590Y-112040990D02*
X203148018Y-112612419D01*
X203148018Y-112612419D02*
X202528971Y-112612419D01*
X201671828Y-111612419D02*
X201862304Y-111612419D01*
X201862304Y-111612419D02*
X201957542Y-111660038D01*
X201957542Y-111660038D02*
X202005161Y-111707657D01*
X202005161Y-111707657D02*
X202100399Y-111850514D01*
X202100399Y-111850514D02*
X202148018Y-112040990D01*
X202148018Y-112040990D02*
X202148018Y-112421942D01*
X202148018Y-112421942D02*
X202100399Y-112517180D01*
X202100399Y-112517180D02*
X202052780Y-112564800D01*
X202052780Y-112564800D02*
X201957542Y-112612419D01*
X201957542Y-112612419D02*
X201767066Y-112612419D01*
X201767066Y-112612419D02*
X201671828Y-112564800D01*
X201671828Y-112564800D02*
X201624209Y-112517180D01*
X201624209Y-112517180D02*
X201576590Y-112421942D01*
X201576590Y-112421942D02*
X201576590Y-112183847D01*
X201576590Y-112183847D02*
X201624209Y-112088609D01*
X201624209Y-112088609D02*
X201671828Y-112040990D01*
X201671828Y-112040990D02*
X201767066Y-111993371D01*
X201767066Y-111993371D02*
X201957542Y-111993371D01*
X201957542Y-111993371D02*
X202052780Y-112040990D01*
X202052780Y-112040990D02*
X202100399Y-112088609D01*
X202100399Y-112088609D02*
X202148018Y-112183847D01*
X142526666Y-108614895D02*
X142526666Y-109186323D01*
X142526666Y-109186323D02*
X142564761Y-109300609D01*
X142564761Y-109300609D02*
X142640952Y-109376800D01*
X142640952Y-109376800D02*
X142755237Y-109414895D01*
X142755237Y-109414895D02*
X142831428Y-109414895D01*
X141802856Y-108881561D02*
X141802856Y-109414895D01*
X141993332Y-108576800D02*
X142183809Y-109148228D01*
X142183809Y-109148228D02*
X141688570Y-109148228D01*
X178116666Y-117464895D02*
X178116666Y-118036323D01*
X178116666Y-118036323D02*
X178154761Y-118150609D01*
X178154761Y-118150609D02*
X178230952Y-118226800D01*
X178230952Y-118226800D02*
X178345237Y-118264895D01*
X178345237Y-118264895D02*
X178421428Y-118264895D01*
X177354761Y-117464895D02*
X177735713Y-117464895D01*
X177735713Y-117464895D02*
X177773809Y-117845847D01*
X177773809Y-117845847D02*
X177735713Y-117807752D01*
X177735713Y-117807752D02*
X177659523Y-117769657D01*
X177659523Y-117769657D02*
X177469047Y-117769657D01*
X177469047Y-117769657D02*
X177392856Y-117807752D01*
X177392856Y-117807752D02*
X177354761Y-117845847D01*
X177354761Y-117845847D02*
X177316666Y-117922038D01*
X177316666Y-117922038D02*
X177316666Y-118112514D01*
X177316666Y-118112514D02*
X177354761Y-118188704D01*
X177354761Y-118188704D02*
X177392856Y-118226800D01*
X177392856Y-118226800D02*
X177469047Y-118264895D01*
X177469047Y-118264895D02*
X177659523Y-118264895D01*
X177659523Y-118264895D02*
X177735713Y-118226800D01*
X177735713Y-118226800D02*
X177773809Y-118188704D01*
X160849523Y-119374895D02*
X160849523Y-120022514D01*
X160849523Y-120022514D02*
X160811428Y-120098704D01*
X160811428Y-120098704D02*
X160773333Y-120136800D01*
X160773333Y-120136800D02*
X160697142Y-120174895D01*
X160697142Y-120174895D02*
X160544761Y-120174895D01*
X160544761Y-120174895D02*
X160468571Y-120136800D01*
X160468571Y-120136800D02*
X160430476Y-120098704D01*
X160430476Y-120098704D02*
X160392380Y-120022514D01*
X160392380Y-120022514D02*
X160392380Y-119374895D01*
X160087619Y-119374895D02*
X159592381Y-119374895D01*
X159592381Y-119374895D02*
X159859047Y-119679657D01*
X159859047Y-119679657D02*
X159744762Y-119679657D01*
X159744762Y-119679657D02*
X159668571Y-119717752D01*
X159668571Y-119717752D02*
X159630476Y-119755847D01*
X159630476Y-119755847D02*
X159592381Y-119832038D01*
X159592381Y-119832038D02*
X159592381Y-120022514D01*
X159592381Y-120022514D02*
X159630476Y-120098704D01*
X159630476Y-120098704D02*
X159668571Y-120136800D01*
X159668571Y-120136800D02*
X159744762Y-120174895D01*
X159744762Y-120174895D02*
X159973333Y-120174895D01*
X159973333Y-120174895D02*
X160049524Y-120136800D01*
X160049524Y-120136800D02*
X160087619Y-120098704D01*
D11*
G04 #@! TO.C,J4*
X140000000Y-109000000D02*
X141170000Y-108365000D01*
X141170000Y-108365000D02*
X141170000Y-109635000D01*
X141170000Y-109635000D02*
X140000000Y-109000000D01*
G04 #@! TO.C,J5*
X178835000Y-118365000D02*
X180005000Y-119000000D01*
X178835000Y-119635000D02*
X178835000Y-118365000D01*
X180005000Y-119000000D02*
X178835000Y-119635000D01*
D12*
G04 #@! TO.C,U3*
X159142500Y-120800000D02*
X159142500Y-122300000D01*
X160852500Y-120800000D02*
X160852500Y-122300000D01*
X162502500Y-121550000D02*
G75*
G02*
X157502500Y-121550000I-2500000J0D01*
G01*
X157502500Y-121550000D02*
G75*
G02*
X162502500Y-121550000I2500000J0D01*
G01*
X164002500Y-121550000D02*
G75*
G02*
X156002500Y-121550000I-4000000J0D01*
G01*
X156002500Y-121550000D02*
G75*
G02*
X164002500Y-121550000I4000000J0D01*
G01*
X159402500Y-120350000D02*
X159122500Y-120350000D01*
X159402500Y-120070000D01*
X159402500Y-120350000D01*
G36*
X159402500Y-120350000D02*
G01*
X159122500Y-120350000D01*
X159402500Y-120070000D01*
X159402500Y-120350000D01*
G37*
G04 #@! TD*
%LPC*%
G04 #@! TO.C,J6*
G36*
X189060000Y-100750000D02*
G01*
X189600000Y-100750000D01*
X189600000Y-100000000D01*
X189060000Y-100000000D01*
X189060000Y-100750000D01*
G37*
G36*
X190405000Y-100750000D02*
G01*
X190855000Y-100750000D01*
X190855000Y-100000000D01*
X190405000Y-100000000D01*
X190405000Y-100750000D01*
G37*
G36*
X191675000Y-100750000D02*
G01*
X192125000Y-100750000D01*
X192125000Y-100000000D01*
X191675000Y-100000000D01*
X191675000Y-100750000D01*
G37*
G36*
X192945000Y-100750000D02*
G01*
X193395000Y-100750000D01*
X193395000Y-100000000D01*
X192945000Y-100000000D01*
X192945000Y-100750000D01*
G37*
G36*
X194215000Y-100750000D02*
G01*
X194665000Y-100750000D01*
X194665000Y-100000000D01*
X194215000Y-100000000D01*
X194215000Y-100750000D01*
G37*
G36*
X195485000Y-100750000D02*
G01*
X195935000Y-100750000D01*
X195935000Y-100000000D01*
X195485000Y-100000000D01*
X195485000Y-100750000D01*
G37*
G36*
X196755000Y-100750000D02*
G01*
X197205000Y-100750000D01*
X197205000Y-100000000D01*
X196755000Y-100000000D01*
X196755000Y-100750000D01*
G37*
G36*
X198025000Y-100750000D02*
G01*
X198475000Y-100750000D01*
X198475000Y-100000000D01*
X198025000Y-100000000D01*
X198025000Y-100750000D01*
G37*
G04 #@! TO.C,J2*
G36*
X127830000Y-100750000D02*
G01*
X128370000Y-100750000D01*
X128370000Y-100000000D01*
X127830000Y-100000000D01*
X127830000Y-100750000D01*
G37*
G36*
X129175000Y-100750000D02*
G01*
X129625000Y-100750000D01*
X129625000Y-100000000D01*
X129175000Y-100000000D01*
X129175000Y-100750000D01*
G37*
G36*
X130445000Y-100750000D02*
G01*
X130895000Y-100750000D01*
X130895000Y-100000000D01*
X130445000Y-100000000D01*
X130445000Y-100750000D01*
G37*
G36*
X131715000Y-100750000D02*
G01*
X132165000Y-100750000D01*
X132165000Y-100000000D01*
X131715000Y-100000000D01*
X131715000Y-100750000D01*
G37*
G36*
X132985000Y-100750000D02*
G01*
X133435000Y-100750000D01*
X133435000Y-100000000D01*
X132985000Y-100000000D01*
X132985000Y-100750000D01*
G37*
G36*
X134255000Y-100750000D02*
G01*
X134705000Y-100750000D01*
X134705000Y-100000000D01*
X134255000Y-100000000D01*
X134255000Y-100750000D01*
G37*
G36*
X135525000Y-100750000D02*
G01*
X135975000Y-100750000D01*
X135975000Y-100000000D01*
X135525000Y-100000000D01*
X135525000Y-100750000D01*
G37*
G36*
X136795000Y-100750000D02*
G01*
X137245000Y-100750000D01*
X137245000Y-100000000D01*
X136795000Y-100000000D01*
X136795000Y-100750000D01*
G37*
G04 #@! TO.C,J1*
G36*
X111114990Y-100750000D02*
G01*
X111654990Y-100750000D01*
X111654990Y-100000000D01*
X111114990Y-100000000D01*
X111114990Y-100750000D01*
G37*
G36*
X112459990Y-100750000D02*
G01*
X112909990Y-100750000D01*
X112909990Y-100000000D01*
X112459990Y-100000000D01*
X112459990Y-100750000D01*
G37*
G36*
X113729990Y-100750000D02*
G01*
X114179990Y-100750000D01*
X114179990Y-100000000D01*
X113729990Y-100000000D01*
X113729990Y-100750000D01*
G37*
G36*
X114999990Y-100750000D02*
G01*
X115449990Y-100750000D01*
X115449990Y-100000000D01*
X114999990Y-100000000D01*
X114999990Y-100750000D01*
G37*
G36*
X116269990Y-100750000D02*
G01*
X116719990Y-100750000D01*
X116719990Y-100000000D01*
X116269990Y-100000000D01*
X116269990Y-100750000D01*
G37*
G36*
X117539990Y-100750000D02*
G01*
X117989990Y-100750000D01*
X117989990Y-100000000D01*
X117539990Y-100000000D01*
X117539990Y-100750000D01*
G37*
G36*
X118809990Y-100750000D02*
G01*
X119259990Y-100750000D01*
X119259990Y-100000000D01*
X118809990Y-100000000D01*
X118809990Y-100750000D01*
G37*
G36*
X120079990Y-100750000D02*
G01*
X120529990Y-100750000D01*
X120529990Y-100000000D01*
X120079990Y-100000000D01*
X120079990Y-100750000D01*
G37*
G04 #@! TD*
D13*
G04 #@! TO.C,J6*
X188730000Y-100000000D03*
D14*
X193810000Y-101500000D03*
D15*
X190000000Y-100000000D03*
D16*
X190425010Y-100750000D03*
D15*
X191270000Y-100000000D03*
D16*
X191695010Y-100750000D03*
D15*
X192540000Y-100000000D03*
D16*
X192965010Y-100750000D03*
D15*
X195080000Y-100000000D03*
D16*
X195505010Y-100750000D03*
D15*
X196350000Y-100000000D03*
D16*
X196775010Y-100750000D03*
D15*
X197620000Y-100000000D03*
D16*
X198045010Y-100750000D03*
G04 #@! TD*
D17*
G04 #@! TO.C,U4*
X108846300Y-117712600D03*
X108846300Y-118500000D03*
X108846300Y-119287400D03*
X109633700Y-117712600D03*
X109633700Y-118500000D03*
X109633700Y-119287400D03*
G04 #@! TD*
D13*
G04 #@! TO.C,J3*
X143900000Y-121350000D03*
D18*
X152350000Y-121350000D03*
G04 #@! TD*
D19*
G04 #@! TO.C,J4*
X137500000Y-114000000D03*
D20*
X138876300Y-109000000D03*
X136123700Y-111000001D03*
X138876300Y-112999999D03*
X136123700Y-115000001D03*
X138876300Y-116999999D03*
X136123700Y-119000000D03*
G04 #@! TD*
D13*
G04 #@! TO.C,J2*
X127500000Y-100000000D03*
D14*
X132580000Y-101500000D03*
D15*
X128770000Y-100000000D03*
D16*
X129195010Y-100750000D03*
D15*
X130040000Y-100000000D03*
D16*
X130465010Y-100750000D03*
D15*
X131310000Y-100000000D03*
D16*
X131735010Y-100750000D03*
D15*
X133850000Y-100000000D03*
D16*
X134275010Y-100750000D03*
D15*
X135120000Y-100000000D03*
D16*
X135545010Y-100750000D03*
D15*
X136390000Y-100000000D03*
D16*
X136815010Y-100750000D03*
G04 #@! TD*
D13*
G04 #@! TO.C,J1*
X110784990Y-100000000D03*
D14*
X115864990Y-101500000D03*
D15*
X112054990Y-100000000D03*
D16*
X112480000Y-100750000D03*
D15*
X113324990Y-100000000D03*
D16*
X113750000Y-100750000D03*
D15*
X114594990Y-100000000D03*
D16*
X115020000Y-100750000D03*
D15*
X117134990Y-100000000D03*
D16*
X117560000Y-100750000D03*
D15*
X118404990Y-100000000D03*
D16*
X118830000Y-100750000D03*
D15*
X119674990Y-100000000D03*
D16*
X120100000Y-100750000D03*
G04 #@! TD*
D19*
G04 #@! TO.C,J5*
X182505000Y-114000000D03*
D20*
X181128700Y-119000000D03*
X183881300Y-116999999D03*
X181128700Y-115000001D03*
X183881300Y-112999999D03*
X181128700Y-111000001D03*
X183881300Y-109000000D03*
G04 #@! TD*
D21*
G04 #@! TO.C,U3*
X159602500Y-120850000D03*
X160402500Y-120850000D03*
X160402500Y-122250000D03*
X159602500Y-122250000D03*
G04 #@! TD*
%LPD*%
M02*
