G04 #@! TF.GenerationSoftware,KiCad,Pcbnew,9.0.6*
G04 #@! TF.CreationDate,2026-01-27T22:02:47+13:00*
G04 #@! TF.ProjectId,Main_PCB_Based_on_8411A,4d61696e-5f50-4434-925f-42617365645f,rev?*
G04 #@! TF.SameCoordinates,Original*
G04 #@! TF.FileFunction,Soldermask,Top*
G04 #@! TF.FilePolarity,Negative*
%FSLAX46Y46*%
G04 Gerber Fmt 4.6, Leading zero omitted, Abs format (unit mm)*
G04 Created by KiCad (PCBNEW 9.0.6) date 2026-01-27 22:02:47*
%MOMM*%
%LPD*%
G01*
G04 APERTURE LIST*
G04 Aperture macros list*
%AMRoundRect*
0 Rectangle with rounded corners*
0 $1 Rounding radius*
0 $2 $3 $4 $5 $6 $7 $8 $9 X,Y pos of 4 corners*
0 Add a 4 corners polygon primitive as box body*
4,1,4,$2,$3,$4,$5,$6,$7,$8,$9,$2,$3,0*
0 Add four circle primitives for the rounded corners*
1,1,$1+$1,$2,$3*
1,1,$1+$1,$4,$5*
1,1,$1+$1,$6,$7*
1,1,$1+$1,$8,$9*
0 Add four rect primitives between the rounded corners*
20,1,$1+$1,$2,$3,$4,$5,0*
20,1,$1+$1,$4,$5,$6,$7,0*
20,1,$1+$1,$6,$7,$8,$9,0*
20,1,$1+$1,$8,$9,$2,$3,0*%
%AMFreePoly0*
4,1,13,0.099990,0.100010,0.099980,0.100000,0.099990,0.080110,0.084770,0.043360,0.056640,0.015230,0.019890,0.000000,-0.869910,0.000000,-0.906660,0.015220,-0.934790,0.043350,-0.950010,0.080110,-0.950010,0.750000,0.099990,0.750000,0.099990,0.100010,0.099990,0.100010,$1*%
%AMFreePoly1*
4,1,23,0.550000,-0.750000,0.000000,-0.750000,0.000000,-0.745722,-0.065263,-0.745722,-0.191342,-0.711940,-0.304381,-0.646677,-0.396677,-0.554381,-0.461940,-0.441342,-0.495722,-0.315263,-0.495722,-0.250000,-0.500000,-0.250000,-0.500000,0.250000,-0.495722,0.250000,-0.495722,0.315263,-0.461940,0.441342,-0.396677,0.554381,-0.304381,0.646677,-0.191342,0.711940,-0.065263,0.745722,0.000000,0.745722,
0.000000,0.750000,0.550000,0.750000,0.550000,-0.750000,0.550000,-0.750000,$1*%
%AMFreePoly2*
4,1,23,0.000000,0.745722,0.065263,0.745722,0.191342,0.711940,0.304381,0.646677,0.396677,0.554381,0.461940,0.441342,0.495722,0.315263,0.495722,0.250000,0.500000,0.250000,0.500000,-0.250000,0.495722,-0.250000,0.495722,-0.315263,0.461940,-0.441342,0.396677,-0.554381,0.304381,-0.646677,0.191342,-0.711940,0.065263,-0.745722,0.000000,-0.745722,0.000000,-0.750000,-0.550000,-0.750000,
-0.550000,0.750000,0.000000,0.750000,0.000000,0.745722,0.000000,0.745722,$1*%
%AMFreePoly3*
4,1,19,1.809954,2.932520,1.847008,2.881520,1.852000,2.850000,1.852000,-2.150000,1.832520,-2.209954,1.822125,-2.222125,1.122125,-2.922125,1.065956,-2.950744,1.050000,-2.952000,-1.750000,-2.952000,-1.809954,-2.932520,-1.847008,-2.881520,-1.852000,-2.850000,-1.852000,2.850000,-1.832520,2.909954,-1.781520,2.947008,-1.750000,2.952000,1.750000,2.952000,1.809954,2.932520,1.809954,2.932520,
$1*%
%AMFreePoly4*
4,1,17,0.809954,2.932520,0.847008,2.881520,0.852000,2.850000,0.852000,-2.850000,0.832520,-2.909954,0.781520,-2.947008,0.750000,-2.952000,-0.750000,-2.952000,-0.809954,-2.932520,-0.847008,-2.881520,-0.852000,-2.850000,-0.852000,2.850000,-0.832520,2.909954,-0.781520,2.947008,-0.750000,2.952000,0.750000,2.952000,0.809954,2.932520,0.809954,2.932520,$1*%
G04 Aperture macros list end*
%ADD10C,0.000000*%
%ADD11R,0.254000X0.812800*%
%ADD12R,0.812800X0.254000*%
%ADD13C,0.508000*%
%ADD14R,1.676400X1.676400*%
%ADD15RoundRect,0.135000X-0.135000X-0.185000X0.135000X-0.185000X0.135000X0.185000X-0.135000X0.185000X0*%
%ADD16C,0.800000*%
%ADD17RoundRect,0.140000X0.140000X0.170000X-0.140000X0.170000X-0.140000X-0.170000X0.140000X-0.170000X0*%
%ADD18RoundRect,0.140000X-0.170000X0.140000X-0.170000X-0.140000X0.170000X-0.140000X0.170000X0.140000X0*%
%ADD19RoundRect,0.250000X-0.475000X0.250000X-0.475000X-0.250000X0.475000X-0.250000X0.475000X0.250000X0*%
%ADD20RoundRect,0.140000X-0.140000X-0.170000X0.140000X-0.170000X0.140000X0.170000X-0.140000X0.170000X0*%
%ADD21R,0.980000X3.400000*%
%ADD22RoundRect,0.140000X0.170000X-0.140000X0.170000X0.140000X-0.170000X0.140000X-0.170000X-0.140000X0*%
%ADD23RoundRect,0.135000X0.135000X0.185000X-0.135000X0.185000X-0.135000X-0.185000X0.135000X-0.185000X0*%
%ADD24RoundRect,0.225000X-0.250000X0.225000X-0.250000X-0.225000X0.250000X-0.225000X0.250000X0.225000X0*%
%ADD25C,1.000000*%
%ADD26C,1.100000*%
%ADD27C,1.045000*%
%ADD28FreePoly0,0.000000*%
%ADD29R,0.820000X0.280000*%
%ADD30RoundRect,0.225000X0.225000X0.250000X-0.225000X0.250000X-0.225000X-0.250000X0.225000X-0.250000X0*%
%ADD31RoundRect,0.135000X0.185000X-0.135000X0.185000X0.135000X-0.185000X0.135000X-0.185000X-0.135000X0*%
%ADD32C,0.900000*%
%ADD33RoundRect,0.102000X-0.500000X-1.450000X0.500000X-1.450000X0.500000X1.450000X-0.500000X1.450000X0*%
%ADD34RoundRect,0.102000X-0.900000X-1.800000X0.900000X-1.800000X0.900000X1.800000X-0.900000X1.800000X0*%
%ADD35R,1.003300X0.508000*%
%ADD36R,1.549400X0.558800*%
%ADD37R,4.902200X4.470400*%
%ADD38RoundRect,0.135000X-0.185000X0.135000X-0.185000X-0.135000X0.185000X-0.135000X0.185000X0.135000X0*%
%ADD39R,2.500000X12.500000*%
%ADD40FreePoly1,0.000000*%
%ADD41R,1.000000X1.500000*%
%ADD42FreePoly2,0.000000*%
%ADD43RoundRect,0.250000X0.475000X-0.250000X0.475000X0.250000X-0.475000X0.250000X-0.475000X-0.250000X0*%
%ADD44RoundRect,0.243750X-0.243750X-0.456250X0.243750X-0.456250X0.243750X0.456250X-0.243750X0.456250X0*%
%ADD45RoundRect,0.053000X-0.479000X-0.159000X0.479000X-0.159000X0.479000X0.159000X-0.479000X0.159000X0*%
%ADD46RoundRect,0.053000X-0.159000X-0.479000X0.159000X-0.479000X0.159000X0.479000X-0.159000X0.479000X0*%
%ADD47FreePoly3,0.000000*%
%ADD48FreePoly4,0.000000*%
G04 APERTURE END LIST*
G04 #@! TO.C,J6*
G36*
X189060000Y-100750000D02*
G01*
X189410000Y-100750000D01*
X189410000Y-100000000D01*
X189060000Y-100000000D01*
X189060000Y-100750000D01*
G37*
G36*
X189595000Y-100000000D02*
G01*
X189380000Y-100000000D01*
X189380000Y-100750000D01*
X189595000Y-100750000D01*
X189595000Y-100000000D01*
G37*
G36*
X190405000Y-100750000D02*
G01*
X190855000Y-100750000D01*
X190855000Y-100000000D01*
X190405000Y-100000000D01*
X190405000Y-100750000D01*
G37*
G36*
X191675000Y-100750000D02*
G01*
X192125000Y-100750000D01*
X192125000Y-100000000D01*
X191675000Y-100000000D01*
X191675000Y-100750000D01*
G37*
G36*
X192945000Y-100750000D02*
G01*
X193395000Y-100750000D01*
X193395000Y-100000000D01*
X192945000Y-100000000D01*
X192945000Y-100750000D01*
G37*
G36*
X194215000Y-100750000D02*
G01*
X194665000Y-100750000D01*
X194665000Y-100000000D01*
X194215000Y-100000000D01*
X194215000Y-100750000D01*
G37*
G36*
X195485000Y-100750000D02*
G01*
X195935000Y-100750000D01*
X195935000Y-100000000D01*
X195485000Y-100000000D01*
X195485000Y-100750000D01*
G37*
G36*
X196755000Y-100750000D02*
G01*
X197205000Y-100750000D01*
X197205000Y-100000000D01*
X196755000Y-100000000D01*
X196755000Y-100750000D01*
G37*
G36*
X198025000Y-100750000D02*
G01*
X198475000Y-100750000D01*
X198475000Y-100000000D01*
X198025000Y-100000000D01*
X198025000Y-100750000D01*
G37*
D10*
G04 #@! TO.C,U4*
G36*
X108140000Y-117140000D02*
G01*
X107320001Y-117140000D01*
X107320001Y-116860001D01*
X108140000Y-116860001D01*
X108140000Y-117140000D01*
G37*
G36*
X108140000Y-117639999D02*
G01*
X107320001Y-117639999D01*
X107320001Y-117360000D01*
X108140000Y-117360000D01*
X108140000Y-117639999D01*
G37*
G36*
X108140000Y-118140001D02*
G01*
X107320001Y-118140001D01*
X107320001Y-117860001D01*
X108140000Y-117860001D01*
X108140000Y-118140001D01*
G37*
G36*
X108140000Y-118640000D02*
G01*
X107320001Y-118640000D01*
X107320001Y-118360000D01*
X108140000Y-118360000D01*
X108140000Y-118640000D01*
G37*
G36*
X108140000Y-119140001D02*
G01*
X107320001Y-119140001D01*
X107320001Y-118859999D01*
X108140000Y-118859999D01*
X108140000Y-119140001D01*
G37*
G36*
X108140000Y-119640000D02*
G01*
X107320001Y-119640000D01*
X107320001Y-119360001D01*
X108140000Y-119360001D01*
X108140000Y-119640000D01*
G37*
G36*
X108140000Y-120139999D02*
G01*
X107320001Y-120139999D01*
X107320001Y-119860000D01*
X108140000Y-119860000D01*
X108140000Y-120139999D01*
G37*
G36*
X108646300Y-119988500D02*
G01*
X108386500Y-119988500D01*
X108386500Y-117011500D01*
X108646300Y-117011500D01*
X108646300Y-119988500D01*
G37*
G36*
X110093500Y-117512600D02*
G01*
X108386500Y-117512600D01*
X108386500Y-117011500D01*
X110093500Y-117011500D01*
X110093500Y-117512600D01*
G37*
G36*
X110093500Y-118300000D02*
G01*
X108386500Y-118300000D01*
X108386500Y-117912600D01*
X110093500Y-117912600D01*
X110093500Y-118300000D01*
G37*
G36*
X110093500Y-119087400D02*
G01*
X108386500Y-119087400D01*
X108386500Y-118700000D01*
X110093500Y-118700000D01*
X110093500Y-119087400D01*
G37*
G36*
X110093500Y-119988500D02*
G01*
X108386500Y-119988500D01*
X108386500Y-119487400D01*
X110093500Y-119487400D01*
X110093500Y-119988500D01*
G37*
G36*
X109433700Y-119988500D02*
G01*
X109046300Y-119988500D01*
X109046300Y-117011500D01*
X109433700Y-117011500D01*
X109433700Y-119988500D01*
G37*
G36*
X110093500Y-119988500D02*
G01*
X109833700Y-119988500D01*
X109833700Y-117011500D01*
X110093500Y-117011500D01*
X110093500Y-119988500D01*
G37*
G36*
X111159999Y-117140000D02*
G01*
X110340000Y-117140000D01*
X110340000Y-116860001D01*
X111159999Y-116860001D01*
X111159999Y-117140000D01*
G37*
G36*
X111159999Y-117639999D02*
G01*
X110340000Y-117639999D01*
X110340000Y-117360000D01*
X111159999Y-117360000D01*
X111159999Y-117639999D01*
G37*
G36*
X111159999Y-118140001D02*
G01*
X110340000Y-118140001D01*
X110340000Y-117859999D01*
X111159999Y-117859999D01*
X111159999Y-118140001D01*
G37*
G36*
X111159999Y-118640000D02*
G01*
X110340000Y-118640000D01*
X110340000Y-118360000D01*
X111159999Y-118360000D01*
X111159999Y-118640000D01*
G37*
G36*
X111159999Y-119139999D02*
G01*
X110340000Y-119139999D01*
X110340000Y-118859999D01*
X111159999Y-118859999D01*
X111159999Y-119139999D01*
G37*
G36*
X111159999Y-119640000D02*
G01*
X110340000Y-119640000D01*
X110340000Y-119360001D01*
X111159999Y-119360001D01*
X111159999Y-119640000D01*
G37*
G36*
X111159999Y-120139999D02*
G01*
X110340000Y-120139999D01*
X110340000Y-119860000D01*
X111159999Y-119860000D01*
X111159999Y-120139999D01*
G37*
G04 #@! TO.C,J2*
G36*
X127830000Y-100750000D02*
G01*
X128180000Y-100750000D01*
X128180000Y-100000000D01*
X127830000Y-100000000D01*
X127830000Y-100750000D01*
G37*
G36*
X128365000Y-100000000D02*
G01*
X128150000Y-100000000D01*
X128150000Y-100750000D01*
X128365000Y-100750000D01*
X128365000Y-100000000D01*
G37*
G36*
X129175000Y-100750000D02*
G01*
X129625000Y-100750000D01*
X129625000Y-100000000D01*
X129175000Y-100000000D01*
X129175000Y-100750000D01*
G37*
G36*
X130445000Y-100750000D02*
G01*
X130895000Y-100750000D01*
X130895000Y-100000000D01*
X130445000Y-100000000D01*
X130445000Y-100750000D01*
G37*
G36*
X131715000Y-100750000D02*
G01*
X132165000Y-100750000D01*
X132165000Y-100000000D01*
X131715000Y-100000000D01*
X131715000Y-100750000D01*
G37*
G36*
X132985000Y-100750000D02*
G01*
X133435000Y-100750000D01*
X133435000Y-100000000D01*
X132985000Y-100000000D01*
X132985000Y-100750000D01*
G37*
G36*
X134255000Y-100750000D02*
G01*
X134705000Y-100750000D01*
X134705000Y-100000000D01*
X134255000Y-100000000D01*
X134255000Y-100750000D01*
G37*
G36*
X135525000Y-100750000D02*
G01*
X135975000Y-100750000D01*
X135975000Y-100000000D01*
X135525000Y-100000000D01*
X135525000Y-100750000D01*
G37*
G36*
X136795000Y-100750000D02*
G01*
X137245000Y-100750000D01*
X137245000Y-100000000D01*
X136795000Y-100000000D01*
X136795000Y-100750000D01*
G37*
G04 #@! TO.C,JP1*
G36*
X115900000Y-124900000D02*
G01*
X117400000Y-124900000D01*
X117400000Y-126400000D01*
X115900000Y-126400000D01*
X115900000Y-124900000D01*
G37*
G04 #@! TO.C,J1*
G36*
X111114990Y-100750000D02*
G01*
X111464990Y-100750000D01*
X111464990Y-100000000D01*
X111114990Y-100000000D01*
X111114990Y-100750000D01*
G37*
G36*
X111649990Y-100000000D02*
G01*
X111434990Y-100000000D01*
X111434990Y-100750000D01*
X111649990Y-100750000D01*
X111649990Y-100000000D01*
G37*
G36*
X112459990Y-100750000D02*
G01*
X112909990Y-100750000D01*
X112909990Y-100000000D01*
X112459990Y-100000000D01*
X112459990Y-100750000D01*
G37*
G36*
X113729990Y-100750000D02*
G01*
X114179990Y-100750000D01*
X114179990Y-100000000D01*
X113729990Y-100000000D01*
X113729990Y-100750000D01*
G37*
G36*
X114999990Y-100750000D02*
G01*
X115449990Y-100750000D01*
X115449990Y-100000000D01*
X114999990Y-100000000D01*
X114999990Y-100750000D01*
G37*
G36*
X116269990Y-100750000D02*
G01*
X116719990Y-100750000D01*
X116719990Y-100000000D01*
X116269990Y-100000000D01*
X116269990Y-100750000D01*
G37*
G36*
X117539990Y-100750000D02*
G01*
X117989990Y-100750000D01*
X117989990Y-100000000D01*
X117539990Y-100000000D01*
X117539990Y-100750000D01*
G37*
G36*
X118809990Y-100750000D02*
G01*
X119259990Y-100750000D01*
X119259990Y-100000000D01*
X118809990Y-100000000D01*
X118809990Y-100750000D01*
G37*
G36*
X120079990Y-100750000D02*
G01*
X120529990Y-100750000D01*
X120529990Y-100000000D01*
X120079990Y-100000000D01*
X120079990Y-100750000D01*
G37*
G04 #@! TD*
D11*
G04 #@! TO.C,U2*
X159252499Y-109473200D03*
X159752500Y-109473200D03*
X160252500Y-109473200D03*
X160752501Y-109473200D03*
D12*
X161475700Y-108750001D03*
X161475700Y-108250000D03*
X161475700Y-107750000D03*
X161475700Y-107249999D03*
D11*
X160752501Y-106526800D03*
X160252500Y-106526800D03*
X159752500Y-106526800D03*
X159252499Y-106526800D03*
D12*
X158529300Y-107249999D03*
X158529300Y-107750000D03*
X158529300Y-108250000D03*
X158529300Y-108750001D03*
D13*
X159502500Y-108500000D03*
X160002500Y-108500000D03*
X160502500Y-108500000D03*
X159502500Y-108000000D03*
X160002500Y-108000000D03*
D14*
X160002500Y-108000000D03*
D13*
X160502500Y-108000000D03*
X159502500Y-107500000D03*
X160002500Y-107500000D03*
X160502500Y-107500000D03*
G04 #@! TD*
D15*
G04 #@! TO.C,R7*
X105280000Y-117820000D03*
X106300000Y-117820000D03*
G04 #@! TD*
D16*
G04 #@! TO.C,U6*
X203979000Y-105615000D03*
X203979000Y-106885000D03*
X203979000Y-108155000D03*
X203979000Y-109425000D03*
X203979000Y-110695000D03*
X203979000Y-111965000D03*
X203979000Y-113235000D03*
X203979000Y-114505000D03*
X203979000Y-115775000D03*
X203979000Y-117045000D03*
X205499000Y-117045000D03*
X206769000Y-117045000D03*
X208039000Y-117045000D03*
X209309000Y-117045000D03*
X210579000Y-117045000D03*
X211849000Y-117045000D03*
X213369000Y-117045000D03*
X213369000Y-115775000D03*
X213369000Y-114505000D03*
X213369000Y-113235000D03*
X213369000Y-111965000D03*
X213369000Y-110695000D03*
X213369000Y-109425000D03*
X213369000Y-108155000D03*
X213369000Y-106885000D03*
X213369000Y-105615000D03*
X209019000Y-102505000D03*
X206069000Y-102505000D03*
X203979000Y-100905000D03*
X213369000Y-100905000D03*
G04 #@! TD*
D17*
G04 #@! TO.C,C9*
X125000000Y-115500000D03*
X124040000Y-115500000D03*
G04 #@! TD*
D18*
G04 #@! TO.C,C28*
X120550000Y-122550002D03*
X120550000Y-123510002D03*
G04 #@! TD*
D19*
G04 #@! TO.C,C31*
X115500000Y-116900000D03*
X115500000Y-118800000D03*
G04 #@! TD*
D20*
G04 #@! TO.C,C26*
X107740000Y-115800000D03*
X108700000Y-115800000D03*
G04 #@! TD*
D21*
G04 #@! TO.C,L1*
X108065000Y-123000000D03*
X110435000Y-123000000D03*
G04 #@! TD*
D22*
G04 #@! TO.C,C3*
X118550000Y-114560000D03*
X118550000Y-113600000D03*
G04 #@! TD*
D23*
G04 #@! TO.C,R6*
X162620000Y-105000000D03*
X161600000Y-105000000D03*
G04 #@! TD*
D24*
G04 #@! TO.C,C24*
X102025000Y-119050000D03*
X102025000Y-120600000D03*
G04 #@! TD*
D18*
G04 #@! TO.C,C18*
X129000000Y-109000000D03*
X129000000Y-109960000D03*
G04 #@! TD*
D24*
G04 #@! TO.C,C22*
X105050000Y-119050000D03*
X105050000Y-120600000D03*
G04 #@! TD*
D25*
G04 #@! TO.C,J6*
X188730000Y-100000000D03*
D26*
X193810000Y-101500000D03*
D27*
X190000000Y-100000000D03*
D28*
X190425010Y-100750000D03*
D27*
X191270000Y-100000000D03*
D28*
X191695010Y-100750000D03*
D27*
X192540000Y-100000000D03*
D28*
X192965010Y-100750000D03*
D27*
X195080000Y-100000000D03*
D28*
X195505010Y-100750000D03*
D27*
X196350000Y-100000000D03*
D28*
X196775010Y-100750000D03*
D27*
X197620000Y-100000000D03*
D28*
X198045010Y-100750000D03*
G04 #@! TD*
D29*
G04 #@! TO.C,U4*
X107730000Y-117000000D03*
X107730000Y-117499999D03*
X107730000Y-118000001D03*
X107730000Y-118500000D03*
X107730000Y-119000002D03*
X107730000Y-119500001D03*
X107730000Y-120000000D03*
X110750000Y-120000000D03*
X110750000Y-119500001D03*
X110750000Y-118999999D03*
X110750000Y-118500000D03*
X110750000Y-117999998D03*
X110750000Y-117499999D03*
X110750000Y-117000000D03*
D13*
X108846300Y-117712600D03*
X108846300Y-118500000D03*
X108846300Y-119287400D03*
X109633700Y-117712600D03*
X109633700Y-118500000D03*
X109633700Y-119287400D03*
G04 #@! TD*
D30*
G04 #@! TO.C,C15*
X160775000Y-103800000D03*
X159225000Y-103800000D03*
G04 #@! TD*
D20*
G04 #@! TO.C,C2*
X117600000Y-110650000D03*
X118560000Y-110650000D03*
G04 #@! TD*
D22*
G04 #@! TO.C,C1*
X139500000Y-125060000D03*
X139500000Y-124100000D03*
G04 #@! TD*
G04 #@! TO.C,C14*
X128900000Y-114560000D03*
X128900000Y-113600000D03*
G04 #@! TD*
D31*
G04 #@! TO.C,R12*
X125100000Y-103640000D03*
X125100000Y-102620000D03*
G04 #@! TD*
D24*
G04 #@! TO.C,C32*
X216185000Y-106870000D03*
X216185000Y-108420000D03*
G04 #@! TD*
D20*
G04 #@! TO.C,C21*
X159540000Y-124750000D03*
X160500000Y-124750000D03*
G04 #@! TD*
D25*
G04 #@! TO.C,J3*
X143900000Y-121350000D03*
D32*
X152350000Y-121350000D03*
D33*
X150150000Y-120100000D03*
X148150000Y-120100000D03*
X146150000Y-120100000D03*
D34*
X143800000Y-124750000D03*
X152500000Y-124750000D03*
G04 #@! TD*
D20*
G04 #@! TO.C,C5*
X120000000Y-105250000D03*
X120960000Y-105250000D03*
G04 #@! TD*
D35*
G04 #@! TO.C,U5*
X124700000Y-123500002D03*
X124700000Y-122550001D03*
X124700000Y-121600000D03*
X121994900Y-121600000D03*
X121994900Y-123500002D03*
G04 #@! TD*
D22*
G04 #@! TO.C,C33*
X214935000Y-107830000D03*
X214935000Y-106870000D03*
G04 #@! TD*
D19*
G04 #@! TO.C,C30*
X113500000Y-116900000D03*
X113500000Y-118800000D03*
G04 #@! TD*
D36*
G04 #@! TO.C,Q1*
X131731200Y-122195000D03*
X131731200Y-123465000D03*
X131731200Y-124735000D03*
X131731200Y-126005000D03*
D37*
X136100000Y-124100000D03*
G04 #@! TD*
D20*
G04 #@! TO.C,C11*
X123220000Y-103200000D03*
X124180000Y-103200000D03*
G04 #@! TD*
G04 #@! TO.C,C6*
X122040000Y-116500000D03*
X123000000Y-116500000D03*
G04 #@! TD*
D17*
G04 #@! TO.C,C17*
X160480000Y-105000000D03*
X159520000Y-105000000D03*
G04 #@! TD*
D38*
G04 #@! TO.C,R4*
X126400000Y-102600000D03*
X126400000Y-103620000D03*
G04 #@! TD*
G04 #@! TO.C,R11*
X125900000Y-115480000D03*
X125900000Y-116500000D03*
G04 #@! TD*
D19*
G04 #@! TO.C,C4*
X129500000Y-123500000D03*
X129500000Y-125400000D03*
G04 #@! TD*
D15*
G04 #@! TO.C,R8*
X160500000Y-126200000D03*
X161520000Y-126200000D03*
G04 #@! TD*
D24*
G04 #@! TO.C,C23*
X103550000Y-119050000D03*
X103550000Y-120600000D03*
G04 #@! TD*
D39*
G04 #@! TO.C,J4*
X137500000Y-114000000D03*
G04 #@! TD*
D22*
G04 #@! TO.C,C16*
X130000000Y-109960000D03*
X130000000Y-109000000D03*
G04 #@! TD*
D15*
G04 #@! TO.C,R2*
X115990000Y-106500000D03*
X117010000Y-106500000D03*
G04 #@! TD*
D18*
G04 #@! TO.C,C29*
X112000000Y-118750000D03*
X112000000Y-119710000D03*
G04 #@! TD*
D23*
G04 #@! TO.C,R9*
X159500000Y-126200000D03*
X158480000Y-126200000D03*
G04 #@! TD*
D25*
G04 #@! TO.C,J2*
X127500000Y-100000000D03*
D26*
X132580000Y-101500000D03*
D27*
X128770000Y-100000000D03*
D28*
X129195010Y-100750000D03*
D27*
X130040000Y-100000000D03*
D28*
X130465010Y-100750000D03*
D27*
X131310000Y-100000000D03*
D28*
X131735010Y-100750000D03*
D27*
X133850000Y-100000000D03*
D28*
X134275010Y-100750000D03*
D27*
X135120000Y-100000000D03*
D28*
X135545010Y-100750000D03*
D27*
X136390000Y-100000000D03*
D28*
X136815010Y-100750000D03*
G04 #@! TD*
D17*
G04 #@! TO.C,C13*
X128250000Y-105100000D03*
X127290000Y-105100000D03*
G04 #@! TD*
D20*
G04 #@! TO.C,C7*
X122040000Y-115500000D03*
X123000000Y-115500000D03*
G04 #@! TD*
D22*
G04 #@! TO.C,C20*
X129000000Y-107610000D03*
X129000000Y-106650000D03*
G04 #@! TD*
D40*
G04 #@! TO.C,JP1*
X115350000Y-125650000D03*
D41*
X116650000Y-125650000D03*
D42*
X117950000Y-125650000D03*
G04 #@! TD*
D43*
G04 #@! TO.C,C27*
X126700000Y-123500000D03*
X126700000Y-121600000D03*
G04 #@! TD*
D25*
G04 #@! TO.C,J1*
X110784990Y-100000000D03*
D26*
X115864990Y-101500000D03*
D27*
X112054990Y-100000000D03*
D28*
X112480000Y-100750000D03*
D27*
X113324990Y-100000000D03*
D28*
X113750000Y-100750000D03*
D27*
X114594990Y-100000000D03*
D28*
X115020000Y-100750000D03*
D27*
X117134990Y-100000000D03*
D28*
X117560000Y-100750000D03*
D27*
X118404990Y-100000000D03*
D28*
X118830000Y-100750000D03*
D27*
X119674990Y-100000000D03*
D28*
X120100000Y-100750000D03*
G04 #@! TD*
D15*
G04 #@! TO.C,R10*
X105280000Y-116820000D03*
X106300000Y-116820000D03*
G04 #@! TD*
D44*
G04 #@! TO.C,D1*
X111625000Y-106500000D03*
X113500000Y-106500000D03*
G04 #@! TD*
D20*
G04 #@! TO.C,C12*
X125440000Y-104570000D03*
X126400000Y-104570000D03*
G04 #@! TD*
G04 #@! TO.C,C10*
X123220000Y-104150000D03*
X124180000Y-104150000D03*
G04 #@! TD*
D39*
G04 #@! TO.C,J5*
X182505000Y-114000000D03*
G04 #@! TD*
D22*
G04 #@! TO.C,C25*
X106300000Y-119810000D03*
X106300000Y-118850000D03*
G04 #@! TD*
D17*
G04 #@! TO.C,C8*
X125000000Y-116500000D03*
X124040000Y-116500000D03*
G04 #@! TD*
G04 #@! TO.C,C19*
X129950000Y-110900000D03*
X128990000Y-110900000D03*
G04 #@! TD*
D31*
G04 #@! TO.C,R3*
X158000000Y-105310000D03*
X158000000Y-104290000D03*
G04 #@! TD*
D45*
G04 #@! TO.C,U1*
X119830000Y-107200000D03*
X119830000Y-107600000D03*
X119830000Y-108000000D03*
X119830000Y-108400000D03*
X119830000Y-108800000D03*
X119830000Y-109200000D03*
X119830000Y-109600000D03*
X119830000Y-110000000D03*
X119830000Y-110400000D03*
X119830000Y-110800000D03*
X119830000Y-111200000D03*
X119830000Y-111600000D03*
X119830000Y-112000000D03*
X119830000Y-112400000D03*
X119830000Y-112800000D03*
X119830000Y-113200000D03*
X119830000Y-113600000D03*
D46*
X120565000Y-114335000D03*
X120965000Y-114335000D03*
X121365000Y-114335000D03*
X121765000Y-114335000D03*
X122165000Y-114335000D03*
X122565000Y-114335000D03*
X122965000Y-114335000D03*
X123365000Y-114335000D03*
X123765000Y-114335000D03*
X124165000Y-114335000D03*
X124565000Y-114335000D03*
X124965000Y-114335000D03*
X125365000Y-114335000D03*
X125765000Y-114335000D03*
X126165000Y-114335000D03*
X126565000Y-114335000D03*
X126965000Y-114335000D03*
D45*
X127700000Y-113600000D03*
X127700000Y-113200000D03*
X127700000Y-112800000D03*
X127700000Y-112400000D03*
X127700000Y-112000000D03*
X127700000Y-111600000D03*
X127700000Y-111200000D03*
X127700000Y-110800000D03*
X127700000Y-110400000D03*
X127700000Y-110000000D03*
X127700000Y-109600000D03*
X127700000Y-109200000D03*
X127700000Y-108800000D03*
X127700000Y-108400000D03*
X127700000Y-108000000D03*
X127700000Y-107600000D03*
X127700000Y-107200000D03*
D46*
X126965000Y-106465000D03*
X126565000Y-106465000D03*
X126165000Y-106465000D03*
X125765000Y-106465000D03*
X125365000Y-106465000D03*
X124965000Y-106465000D03*
X124565000Y-106465000D03*
X124165000Y-106465000D03*
X123765000Y-106465000D03*
X123365000Y-106465000D03*
X122965000Y-106465000D03*
X122565000Y-106465000D03*
X122165000Y-106465000D03*
X121765000Y-106465000D03*
X121365000Y-106465000D03*
X120965000Y-106465000D03*
X120565000Y-106465000D03*
D47*
X122665000Y-110400000D03*
D48*
X125865000Y-110400000D03*
G04 #@! TD*
D38*
G04 #@! TO.C,R1*
X118500000Y-108750000D03*
X118500000Y-109770000D03*
G04 #@! TD*
G04 #@! TO.C,R5*
X130000000Y-106600000D03*
X130000000Y-107620000D03*
G04 #@! TD*
M02*
