%TF.GenerationSoftware,KiCad,Pcbnew,9.0.6*%
%TF.CreationDate,2026-01-30T18:58:32+13:00*%
%TF.ProjectId,Gateway_PCB_Argon_One_V5,47617465-7761-4795-9f50-43425f417267,rev?*%
%TF.SameCoordinates,Original*%
%TF.FileFunction,Drillmap*%
%TF.FilePolarity,Positive*%
%FSLAX45Y45*%
G04 Gerber Fmt 4.5, Leading zero omitted, Abs format (unit mm)*
G04 Created by KiCad (PCBNEW 9.0.6) date 2026-01-30 18:58:32*
%MOMM*%
%LPD*%
G01*
G04 APERTURE LIST*
%ADD10C,0.050000*%
%ADD11C,0.100000*%
%ADD12C,0.200000*%
%ADD13C,0.110000*%
G04 APERTURE END LIST*
D10*
X5142000Y-8993000D02*
X6767000Y-8993000D01*
X10710000Y-6691000D02*
X10710000Y-10293000D01*
X5142000Y-6193000D02*
X5142000Y-8993000D01*
X5142000Y-6193000D02*
X10209996Y-6193000D01*
X6767000Y-7093000D02*
X9892000Y-7093000D01*
X6767000Y-7093000D02*
X6767000Y-8993000D01*
X9892000Y-10293000D02*
X9892000Y-7093000D01*
X9892000Y-10293000D02*
X10710000Y-10293000D01*
X10710000Y-6691000D02*
X10209996Y-6193000D01*
D11*
X5532000Y-6743000D02*
G75*
G02*
X5252000Y-6743000I-140000J0D01*
G01*
X5252000Y-6743000D02*
G75*
G02*
X5532000Y-6743000I140000J0D01*
G01*
D12*
D11*
X6717000Y-8280501D02*
X6817000Y-8380501D01*
X6817000Y-8280501D02*
X6717000Y-8380501D01*
D13*
X6672000Y-7822501D02*
G75*
G02*
X6562000Y-7822501I-55000J0D01*
G01*
X6562000Y-7822501D02*
G75*
G02*
X6672000Y-7822501I55000J0D01*
G01*
D12*
X5400277Y-10606984D02*
X5400277Y-10406984D01*
X5400277Y-10406984D02*
X5447896Y-10406984D01*
X5447896Y-10406984D02*
X5476467Y-10416508D01*
X5476467Y-10416508D02*
X5495515Y-10435555D01*
X5495515Y-10435555D02*
X5505039Y-10454603D01*
X5505039Y-10454603D02*
X5514563Y-10492698D01*
X5514563Y-10492698D02*
X5514563Y-10521270D01*
X5514563Y-10521270D02*
X5505039Y-10559365D01*
X5505039Y-10559365D02*
X5495515Y-10578412D01*
X5495515Y-10578412D02*
X5476467Y-10597460D01*
X5476467Y-10597460D02*
X5447896Y-10606984D01*
X5447896Y-10606984D02*
X5400277Y-10606984D01*
X5600277Y-10606984D02*
X5600277Y-10473650D01*
X5600277Y-10511746D02*
X5609801Y-10492698D01*
X5609801Y-10492698D02*
X5619324Y-10483174D01*
X5619324Y-10483174D02*
X5638372Y-10473650D01*
X5638372Y-10473650D02*
X5657420Y-10473650D01*
X5724086Y-10606984D02*
X5724086Y-10473650D01*
X5724086Y-10406984D02*
X5714562Y-10416508D01*
X5714562Y-10416508D02*
X5724086Y-10426031D01*
X5724086Y-10426031D02*
X5733610Y-10416508D01*
X5733610Y-10416508D02*
X5724086Y-10406984D01*
X5724086Y-10406984D02*
X5724086Y-10426031D01*
X5847896Y-10606984D02*
X5828848Y-10597460D01*
X5828848Y-10597460D02*
X5819324Y-10578412D01*
X5819324Y-10578412D02*
X5819324Y-10406984D01*
X5952658Y-10606984D02*
X5933610Y-10597460D01*
X5933610Y-10597460D02*
X5924086Y-10578412D01*
X5924086Y-10578412D02*
X5924086Y-10406984D01*
X6181229Y-10606984D02*
X6181229Y-10406984D01*
X6181229Y-10406984D02*
X6247896Y-10549841D01*
X6247896Y-10549841D02*
X6314562Y-10406984D01*
X6314562Y-10406984D02*
X6314562Y-10606984D01*
X6495515Y-10606984D02*
X6495515Y-10502222D01*
X6495515Y-10502222D02*
X6485991Y-10483174D01*
X6485991Y-10483174D02*
X6466943Y-10473650D01*
X6466943Y-10473650D02*
X6428848Y-10473650D01*
X6428848Y-10473650D02*
X6409801Y-10483174D01*
X6495515Y-10597460D02*
X6476467Y-10606984D01*
X6476467Y-10606984D02*
X6428848Y-10606984D01*
X6428848Y-10606984D02*
X6409801Y-10597460D01*
X6409801Y-10597460D02*
X6400277Y-10578412D01*
X6400277Y-10578412D02*
X6400277Y-10559365D01*
X6400277Y-10559365D02*
X6409801Y-10540317D01*
X6409801Y-10540317D02*
X6428848Y-10530793D01*
X6428848Y-10530793D02*
X6476467Y-10530793D01*
X6476467Y-10530793D02*
X6495515Y-10521270D01*
X6590753Y-10473650D02*
X6590753Y-10673650D01*
X6590753Y-10483174D02*
X6609801Y-10473650D01*
X6609801Y-10473650D02*
X6647896Y-10473650D01*
X6647896Y-10473650D02*
X6666943Y-10483174D01*
X6666943Y-10483174D02*
X6676467Y-10492698D01*
X6676467Y-10492698D02*
X6685991Y-10511746D01*
X6685991Y-10511746D02*
X6685991Y-10568889D01*
X6685991Y-10568889D02*
X6676467Y-10587936D01*
X6676467Y-10587936D02*
X6666943Y-10597460D01*
X6666943Y-10597460D02*
X6647896Y-10606984D01*
X6647896Y-10606984D02*
X6609801Y-10606984D01*
X6609801Y-10606984D02*
X6590753Y-10597460D01*
X6771705Y-10587936D02*
X6781229Y-10597460D01*
X6781229Y-10597460D02*
X6771705Y-10606984D01*
X6771705Y-10606984D02*
X6762182Y-10597460D01*
X6762182Y-10597460D02*
X6771705Y-10587936D01*
X6771705Y-10587936D02*
X6771705Y-10606984D01*
X6771705Y-10483174D02*
X6781229Y-10492698D01*
X6781229Y-10492698D02*
X6771705Y-10502222D01*
X6771705Y-10502222D02*
X6762182Y-10492698D01*
X6762182Y-10492698D02*
X6771705Y-10483174D01*
X6771705Y-10483174D02*
X6771705Y-10502222D01*
D11*
X5039500Y-10885500D02*
X5139500Y-10985500D01*
X5139500Y-10885500D02*
X5039500Y-10985500D01*
D12*
X5505039Y-11026984D02*
X5390753Y-11026984D01*
X5447896Y-11026984D02*
X5447896Y-10826984D01*
X5447896Y-10826984D02*
X5428848Y-10855555D01*
X5428848Y-10855555D02*
X5409801Y-10874603D01*
X5409801Y-10874603D02*
X5390753Y-10884127D01*
X5590753Y-11007936D02*
X5600277Y-11017460D01*
X5600277Y-11017460D02*
X5590753Y-11026984D01*
X5590753Y-11026984D02*
X5581229Y-11017460D01*
X5581229Y-11017460D02*
X5590753Y-11007936D01*
X5590753Y-11007936D02*
X5590753Y-11026984D01*
X5724086Y-10826984D02*
X5743134Y-10826984D01*
X5743134Y-10826984D02*
X5762182Y-10836508D01*
X5762182Y-10836508D02*
X5771705Y-10846031D01*
X5771705Y-10846031D02*
X5781229Y-10865079D01*
X5781229Y-10865079D02*
X5790753Y-10903174D01*
X5790753Y-10903174D02*
X5790753Y-10950793D01*
X5790753Y-10950793D02*
X5781229Y-10988889D01*
X5781229Y-10988889D02*
X5771705Y-11007936D01*
X5771705Y-11007936D02*
X5762182Y-11017460D01*
X5762182Y-11017460D02*
X5743134Y-11026984D01*
X5743134Y-11026984D02*
X5724086Y-11026984D01*
X5724086Y-11026984D02*
X5705039Y-11017460D01*
X5705039Y-11017460D02*
X5695515Y-11007936D01*
X5695515Y-11007936D02*
X5685991Y-10988889D01*
X5685991Y-10988889D02*
X5676467Y-10950793D01*
X5676467Y-10950793D02*
X5676467Y-10903174D01*
X5676467Y-10903174D02*
X5685991Y-10865079D01*
X5685991Y-10865079D02*
X5695515Y-10846031D01*
X5695515Y-10846031D02*
X5705039Y-10836508D01*
X5705039Y-10836508D02*
X5724086Y-10826984D01*
X5914562Y-10826984D02*
X5933610Y-10826984D01*
X5933610Y-10826984D02*
X5952658Y-10836508D01*
X5952658Y-10836508D02*
X5962182Y-10846031D01*
X5962182Y-10846031D02*
X5971705Y-10865079D01*
X5971705Y-10865079D02*
X5981229Y-10903174D01*
X5981229Y-10903174D02*
X5981229Y-10950793D01*
X5981229Y-10950793D02*
X5971705Y-10988889D01*
X5971705Y-10988889D02*
X5962182Y-11007936D01*
X5962182Y-11007936D02*
X5952658Y-11017460D01*
X5952658Y-11017460D02*
X5933610Y-11026984D01*
X5933610Y-11026984D02*
X5914562Y-11026984D01*
X5914562Y-11026984D02*
X5895515Y-11017460D01*
X5895515Y-11017460D02*
X5885991Y-11007936D01*
X5885991Y-11007936D02*
X5876467Y-10988889D01*
X5876467Y-10988889D02*
X5866943Y-10950793D01*
X5866943Y-10950793D02*
X5866943Y-10903174D01*
X5866943Y-10903174D02*
X5876467Y-10865079D01*
X5876467Y-10865079D02*
X5885991Y-10846031D01*
X5885991Y-10846031D02*
X5895515Y-10836508D01*
X5895515Y-10836508D02*
X5914562Y-10826984D01*
X6105039Y-10826984D02*
X6124086Y-10826984D01*
X6124086Y-10826984D02*
X6143134Y-10836508D01*
X6143134Y-10836508D02*
X6152658Y-10846031D01*
X6152658Y-10846031D02*
X6162182Y-10865079D01*
X6162182Y-10865079D02*
X6171705Y-10903174D01*
X6171705Y-10903174D02*
X6171705Y-10950793D01*
X6171705Y-10950793D02*
X6162182Y-10988889D01*
X6162182Y-10988889D02*
X6152658Y-11007936D01*
X6152658Y-11007936D02*
X6143134Y-11017460D01*
X6143134Y-11017460D02*
X6124086Y-11026984D01*
X6124086Y-11026984D02*
X6105039Y-11026984D01*
X6105039Y-11026984D02*
X6085991Y-11017460D01*
X6085991Y-11017460D02*
X6076467Y-11007936D01*
X6076467Y-11007936D02*
X6066943Y-10988889D01*
X6066943Y-10988889D02*
X6057420Y-10950793D01*
X6057420Y-10950793D02*
X6057420Y-10903174D01*
X6057420Y-10903174D02*
X6066943Y-10865079D01*
X6066943Y-10865079D02*
X6076467Y-10846031D01*
X6076467Y-10846031D02*
X6085991Y-10836508D01*
X6085991Y-10836508D02*
X6105039Y-10826984D01*
X6257420Y-11026984D02*
X6257420Y-10893650D01*
X6257420Y-10912698D02*
X6266943Y-10903174D01*
X6266943Y-10903174D02*
X6285991Y-10893650D01*
X6285991Y-10893650D02*
X6314563Y-10893650D01*
X6314563Y-10893650D02*
X6333610Y-10903174D01*
X6333610Y-10903174D02*
X6343134Y-10922222D01*
X6343134Y-10922222D02*
X6343134Y-11026984D01*
X6343134Y-10922222D02*
X6352658Y-10903174D01*
X6352658Y-10903174D02*
X6371705Y-10893650D01*
X6371705Y-10893650D02*
X6400277Y-10893650D01*
X6400277Y-10893650D02*
X6419324Y-10903174D01*
X6419324Y-10903174D02*
X6428848Y-10922222D01*
X6428848Y-10922222D02*
X6428848Y-11026984D01*
X6524086Y-11026984D02*
X6524086Y-10893650D01*
X6524086Y-10912698D02*
X6533610Y-10903174D01*
X6533610Y-10903174D02*
X6552658Y-10893650D01*
X6552658Y-10893650D02*
X6581229Y-10893650D01*
X6581229Y-10893650D02*
X6600277Y-10903174D01*
X6600277Y-10903174D02*
X6609801Y-10922222D01*
X6609801Y-10922222D02*
X6609801Y-11026984D01*
X6609801Y-10922222D02*
X6619324Y-10903174D01*
X6619324Y-10903174D02*
X6638372Y-10893650D01*
X6638372Y-10893650D02*
X6666943Y-10893650D01*
X6666943Y-10893650D02*
X6685991Y-10903174D01*
X6685991Y-10903174D02*
X6695515Y-10922222D01*
X6695515Y-10922222D02*
X6695515Y-11026984D01*
X7085991Y-10817460D02*
X6914563Y-11074603D01*
X7343134Y-10826984D02*
X7362182Y-10826984D01*
X7362182Y-10826984D02*
X7381229Y-10836508D01*
X7381229Y-10836508D02*
X7390753Y-10846031D01*
X7390753Y-10846031D02*
X7400277Y-10865079D01*
X7400277Y-10865079D02*
X7409801Y-10903174D01*
X7409801Y-10903174D02*
X7409801Y-10950793D01*
X7409801Y-10950793D02*
X7400277Y-10988889D01*
X7400277Y-10988889D02*
X7390753Y-11007936D01*
X7390753Y-11007936D02*
X7381229Y-11017460D01*
X7381229Y-11017460D02*
X7362182Y-11026984D01*
X7362182Y-11026984D02*
X7343134Y-11026984D01*
X7343134Y-11026984D02*
X7324086Y-11017460D01*
X7324086Y-11017460D02*
X7314563Y-11007936D01*
X7314563Y-11007936D02*
X7305039Y-10988889D01*
X7305039Y-10988889D02*
X7295515Y-10950793D01*
X7295515Y-10950793D02*
X7295515Y-10903174D01*
X7295515Y-10903174D02*
X7305039Y-10865079D01*
X7305039Y-10865079D02*
X7314563Y-10846031D01*
X7314563Y-10846031D02*
X7324086Y-10836508D01*
X7324086Y-10836508D02*
X7343134Y-10826984D01*
X7495515Y-11007936D02*
X7505039Y-11017460D01*
X7505039Y-11017460D02*
X7495515Y-11026984D01*
X7495515Y-11026984D02*
X7485991Y-11017460D01*
X7485991Y-11017460D02*
X7495515Y-11007936D01*
X7495515Y-11007936D02*
X7495515Y-11026984D01*
X7628848Y-10826984D02*
X7647896Y-10826984D01*
X7647896Y-10826984D02*
X7666944Y-10836508D01*
X7666944Y-10836508D02*
X7676467Y-10846031D01*
X7676467Y-10846031D02*
X7685991Y-10865079D01*
X7685991Y-10865079D02*
X7695515Y-10903174D01*
X7695515Y-10903174D02*
X7695515Y-10950793D01*
X7695515Y-10950793D02*
X7685991Y-10988889D01*
X7685991Y-10988889D02*
X7676467Y-11007936D01*
X7676467Y-11007936D02*
X7666944Y-11017460D01*
X7666944Y-11017460D02*
X7647896Y-11026984D01*
X7647896Y-11026984D02*
X7628848Y-11026984D01*
X7628848Y-11026984D02*
X7609801Y-11017460D01*
X7609801Y-11017460D02*
X7600277Y-11007936D01*
X7600277Y-11007936D02*
X7590753Y-10988889D01*
X7590753Y-10988889D02*
X7581229Y-10950793D01*
X7581229Y-10950793D02*
X7581229Y-10903174D01*
X7581229Y-10903174D02*
X7590753Y-10865079D01*
X7590753Y-10865079D02*
X7600277Y-10846031D01*
X7600277Y-10846031D02*
X7609801Y-10836508D01*
X7609801Y-10836508D02*
X7628848Y-10826984D01*
X7762182Y-10826984D02*
X7885991Y-10826984D01*
X7885991Y-10826984D02*
X7819325Y-10903174D01*
X7819325Y-10903174D02*
X7847896Y-10903174D01*
X7847896Y-10903174D02*
X7866944Y-10912698D01*
X7866944Y-10912698D02*
X7876467Y-10922222D01*
X7876467Y-10922222D02*
X7885991Y-10941270D01*
X7885991Y-10941270D02*
X7885991Y-10988889D01*
X7885991Y-10988889D02*
X7876467Y-11007936D01*
X7876467Y-11007936D02*
X7866944Y-11017460D01*
X7866944Y-11017460D02*
X7847896Y-11026984D01*
X7847896Y-11026984D02*
X7790753Y-11026984D01*
X7790753Y-11026984D02*
X7771706Y-11017460D01*
X7771706Y-11017460D02*
X7762182Y-11007936D01*
X7981229Y-11026984D02*
X8019325Y-11026984D01*
X8019325Y-11026984D02*
X8038372Y-11017460D01*
X8038372Y-11017460D02*
X8047896Y-11007936D01*
X8047896Y-11007936D02*
X8066944Y-10979365D01*
X8066944Y-10979365D02*
X8076467Y-10941270D01*
X8076467Y-10941270D02*
X8076467Y-10865079D01*
X8076467Y-10865079D02*
X8066944Y-10846031D01*
X8066944Y-10846031D02*
X8057420Y-10836508D01*
X8057420Y-10836508D02*
X8038372Y-10826984D01*
X8038372Y-10826984D02*
X8000277Y-10826984D01*
X8000277Y-10826984D02*
X7981229Y-10836508D01*
X7981229Y-10836508D02*
X7971706Y-10846031D01*
X7971706Y-10846031D02*
X7962182Y-10865079D01*
X7962182Y-10865079D02*
X7962182Y-10912698D01*
X7962182Y-10912698D02*
X7971706Y-10931746D01*
X7971706Y-10931746D02*
X7981229Y-10941270D01*
X7981229Y-10941270D02*
X8000277Y-10950793D01*
X8000277Y-10950793D02*
X8038372Y-10950793D01*
X8038372Y-10950793D02*
X8057420Y-10941270D01*
X8057420Y-10941270D02*
X8066944Y-10931746D01*
X8066944Y-10931746D02*
X8076467Y-10912698D01*
X8247896Y-10893650D02*
X8247896Y-11026984D01*
X8200277Y-10817460D02*
X8152658Y-10960317D01*
X8152658Y-10960317D02*
X8276467Y-10960317D01*
X8343134Y-10826984D02*
X8343134Y-10865079D01*
X8419325Y-10826984D02*
X8419325Y-10865079D01*
X8714563Y-11103174D02*
X8705039Y-11093650D01*
X8705039Y-11093650D02*
X8685991Y-11065079D01*
X8685991Y-11065079D02*
X8676468Y-11046031D01*
X8676468Y-11046031D02*
X8666944Y-11017460D01*
X8666944Y-11017460D02*
X8657420Y-10969841D01*
X8657420Y-10969841D02*
X8657420Y-10931746D01*
X8657420Y-10931746D02*
X8666944Y-10884127D01*
X8666944Y-10884127D02*
X8676468Y-10855555D01*
X8676468Y-10855555D02*
X8685991Y-10836508D01*
X8685991Y-10836508D02*
X8705039Y-10807936D01*
X8705039Y-10807936D02*
X8714563Y-10798412D01*
X8895515Y-11026984D02*
X8781230Y-11026984D01*
X8838372Y-11026984D02*
X8838372Y-10826984D01*
X8838372Y-10826984D02*
X8819325Y-10855555D01*
X8819325Y-10855555D02*
X8800277Y-10874603D01*
X8800277Y-10874603D02*
X8781230Y-10884127D01*
X9133611Y-11026984D02*
X9133611Y-10826984D01*
X9219325Y-11026984D02*
X9219325Y-10922222D01*
X9219325Y-10922222D02*
X9209801Y-10903174D01*
X9209801Y-10903174D02*
X9190753Y-10893650D01*
X9190753Y-10893650D02*
X9162182Y-10893650D01*
X9162182Y-10893650D02*
X9143134Y-10903174D01*
X9143134Y-10903174D02*
X9133611Y-10912698D01*
X9343134Y-11026984D02*
X9324087Y-11017460D01*
X9324087Y-11017460D02*
X9314563Y-11007936D01*
X9314563Y-11007936D02*
X9305039Y-10988889D01*
X9305039Y-10988889D02*
X9305039Y-10931746D01*
X9305039Y-10931746D02*
X9314563Y-10912698D01*
X9314563Y-10912698D02*
X9324087Y-10903174D01*
X9324087Y-10903174D02*
X9343134Y-10893650D01*
X9343134Y-10893650D02*
X9371706Y-10893650D01*
X9371706Y-10893650D02*
X9390753Y-10903174D01*
X9390753Y-10903174D02*
X9400277Y-10912698D01*
X9400277Y-10912698D02*
X9409801Y-10931746D01*
X9409801Y-10931746D02*
X9409801Y-10988889D01*
X9409801Y-10988889D02*
X9400277Y-11007936D01*
X9400277Y-11007936D02*
X9390753Y-11017460D01*
X9390753Y-11017460D02*
X9371706Y-11026984D01*
X9371706Y-11026984D02*
X9343134Y-11026984D01*
X9524087Y-11026984D02*
X9505039Y-11017460D01*
X9505039Y-11017460D02*
X9495515Y-10998412D01*
X9495515Y-10998412D02*
X9495515Y-10826984D01*
X9676468Y-11017460D02*
X9657420Y-11026984D01*
X9657420Y-11026984D02*
X9619325Y-11026984D01*
X9619325Y-11026984D02*
X9600277Y-11017460D01*
X9600277Y-11017460D02*
X9590753Y-10998412D01*
X9590753Y-10998412D02*
X9590753Y-10922222D01*
X9590753Y-10922222D02*
X9600277Y-10903174D01*
X9600277Y-10903174D02*
X9619325Y-10893650D01*
X9619325Y-10893650D02*
X9657420Y-10893650D01*
X9657420Y-10893650D02*
X9676468Y-10903174D01*
X9676468Y-10903174D02*
X9685992Y-10922222D01*
X9685992Y-10922222D02*
X9685992Y-10941270D01*
X9685992Y-10941270D02*
X9590753Y-10960317D01*
X9752658Y-11103174D02*
X9762182Y-11093650D01*
X9762182Y-11093650D02*
X9781230Y-11065079D01*
X9781230Y-11065079D02*
X9790753Y-11046031D01*
X9790753Y-11046031D02*
X9800277Y-11017460D01*
X9800277Y-11017460D02*
X9809801Y-10969841D01*
X9809801Y-10969841D02*
X9809801Y-10931746D01*
X9809801Y-10931746D02*
X9800277Y-10884127D01*
X9800277Y-10884127D02*
X9790753Y-10855555D01*
X9790753Y-10855555D02*
X9781230Y-10836508D01*
X9781230Y-10836508D02*
X9762182Y-10807936D01*
X9762182Y-10807936D02*
X9752658Y-10798412D01*
X10114563Y-11103174D02*
X10105039Y-11093650D01*
X10105039Y-11093650D02*
X10085992Y-11065079D01*
X10085992Y-11065079D02*
X10076468Y-11046031D01*
X10076468Y-11046031D02*
X10066944Y-11017460D01*
X10066944Y-11017460D02*
X10057420Y-10969841D01*
X10057420Y-10969841D02*
X10057420Y-10931746D01*
X10057420Y-10931746D02*
X10066944Y-10884127D01*
X10066944Y-10884127D02*
X10076468Y-10855555D01*
X10076468Y-10855555D02*
X10085992Y-10836508D01*
X10085992Y-10836508D02*
X10105039Y-10807936D01*
X10105039Y-10807936D02*
X10114563Y-10798412D01*
X10190753Y-10893650D02*
X10190753Y-11026984D01*
X10190753Y-10912698D02*
X10200277Y-10903174D01*
X10200277Y-10903174D02*
X10219325Y-10893650D01*
X10219325Y-10893650D02*
X10247896Y-10893650D01*
X10247896Y-10893650D02*
X10266944Y-10903174D01*
X10266944Y-10903174D02*
X10276468Y-10922222D01*
X10276468Y-10922222D02*
X10276468Y-11026984D01*
X10400277Y-11026984D02*
X10381230Y-11017460D01*
X10381230Y-11017460D02*
X10371706Y-11007936D01*
X10371706Y-11007936D02*
X10362182Y-10988889D01*
X10362182Y-10988889D02*
X10362182Y-10931746D01*
X10362182Y-10931746D02*
X10371706Y-10912698D01*
X10371706Y-10912698D02*
X10381230Y-10903174D01*
X10381230Y-10903174D02*
X10400277Y-10893650D01*
X10400277Y-10893650D02*
X10428849Y-10893650D01*
X10428849Y-10893650D02*
X10447896Y-10903174D01*
X10447896Y-10903174D02*
X10457420Y-10912698D01*
X10457420Y-10912698D02*
X10466944Y-10931746D01*
X10466944Y-10931746D02*
X10466944Y-10988889D01*
X10466944Y-10988889D02*
X10457420Y-11007936D01*
X10457420Y-11007936D02*
X10447896Y-11017460D01*
X10447896Y-11017460D02*
X10428849Y-11026984D01*
X10428849Y-11026984D02*
X10400277Y-11026984D01*
X10524087Y-10893650D02*
X10600277Y-10893650D01*
X10552658Y-10826984D02*
X10552658Y-10998412D01*
X10552658Y-10998412D02*
X10562182Y-11017460D01*
X10562182Y-11017460D02*
X10581230Y-11026984D01*
X10581230Y-11026984D02*
X10600277Y-11026984D01*
X10819325Y-10893650D02*
X10819325Y-11093650D01*
X10819325Y-10903174D02*
X10838373Y-10893650D01*
X10838373Y-10893650D02*
X10876468Y-10893650D01*
X10876468Y-10893650D02*
X10895515Y-10903174D01*
X10895515Y-10903174D02*
X10905039Y-10912698D01*
X10905039Y-10912698D02*
X10914563Y-10931746D01*
X10914563Y-10931746D02*
X10914563Y-10988889D01*
X10914563Y-10988889D02*
X10905039Y-11007936D01*
X10905039Y-11007936D02*
X10895515Y-11017460D01*
X10895515Y-11017460D02*
X10876468Y-11026984D01*
X10876468Y-11026984D02*
X10838373Y-11026984D01*
X10838373Y-11026984D02*
X10819325Y-11017460D01*
X11028849Y-11026984D02*
X11009801Y-11017460D01*
X11009801Y-11017460D02*
X11000277Y-10998412D01*
X11000277Y-10998412D02*
X11000277Y-10826984D01*
X11190753Y-11026984D02*
X11190753Y-10922222D01*
X11190753Y-10922222D02*
X11181230Y-10903174D01*
X11181230Y-10903174D02*
X11162182Y-10893650D01*
X11162182Y-10893650D02*
X11124087Y-10893650D01*
X11124087Y-10893650D02*
X11105039Y-10903174D01*
X11190753Y-11017460D02*
X11171706Y-11026984D01*
X11171706Y-11026984D02*
X11124087Y-11026984D01*
X11124087Y-11026984D02*
X11105039Y-11017460D01*
X11105039Y-11017460D02*
X11095515Y-10998412D01*
X11095515Y-10998412D02*
X11095515Y-10979365D01*
X11095515Y-10979365D02*
X11105039Y-10960317D01*
X11105039Y-10960317D02*
X11124087Y-10950793D01*
X11124087Y-10950793D02*
X11171706Y-10950793D01*
X11171706Y-10950793D02*
X11190753Y-10941270D01*
X11257420Y-10893650D02*
X11333611Y-10893650D01*
X11285992Y-10826984D02*
X11285992Y-10998412D01*
X11285992Y-10998412D02*
X11295515Y-11017460D01*
X11295515Y-11017460D02*
X11314563Y-11026984D01*
X11314563Y-11026984D02*
X11333611Y-11026984D01*
X11476468Y-11017460D02*
X11457420Y-11026984D01*
X11457420Y-11026984D02*
X11419325Y-11026984D01*
X11419325Y-11026984D02*
X11400277Y-11017460D01*
X11400277Y-11017460D02*
X11390753Y-10998412D01*
X11390753Y-10998412D02*
X11390753Y-10922222D01*
X11390753Y-10922222D02*
X11400277Y-10903174D01*
X11400277Y-10903174D02*
X11419325Y-10893650D01*
X11419325Y-10893650D02*
X11457420Y-10893650D01*
X11457420Y-10893650D02*
X11476468Y-10903174D01*
X11476468Y-10903174D02*
X11485992Y-10922222D01*
X11485992Y-10922222D02*
X11485992Y-10941270D01*
X11485992Y-10941270D02*
X11390753Y-10960317D01*
X11657420Y-11026984D02*
X11657420Y-10826984D01*
X11657420Y-11017460D02*
X11638373Y-11026984D01*
X11638373Y-11026984D02*
X11600277Y-11026984D01*
X11600277Y-11026984D02*
X11581230Y-11017460D01*
X11581230Y-11017460D02*
X11571706Y-11007936D01*
X11571706Y-11007936D02*
X11562182Y-10988889D01*
X11562182Y-10988889D02*
X11562182Y-10931746D01*
X11562182Y-10931746D02*
X11571706Y-10912698D01*
X11571706Y-10912698D02*
X11581230Y-10903174D01*
X11581230Y-10903174D02*
X11600277Y-10893650D01*
X11600277Y-10893650D02*
X11638373Y-10893650D01*
X11638373Y-10893650D02*
X11657420Y-10903174D01*
X11733611Y-11103174D02*
X11743134Y-11093650D01*
X11743134Y-11093650D02*
X11762182Y-11065079D01*
X11762182Y-11065079D02*
X11771706Y-11046031D01*
X11771706Y-11046031D02*
X11781230Y-11017460D01*
X11781230Y-11017460D02*
X11790753Y-10969841D01*
X11790753Y-10969841D02*
X11790753Y-10931746D01*
X11790753Y-10931746D02*
X11781230Y-10884127D01*
X11781230Y-10884127D02*
X11771706Y-10855555D01*
X11771706Y-10855555D02*
X11762182Y-10836508D01*
X11762182Y-10836508D02*
X11743134Y-10807936D01*
X11743134Y-10807936D02*
X11733611Y-10798412D01*
D13*
X5139500Y-11199500D02*
G75*
G02*
X5029500Y-11199500I-55000J0D01*
G01*
X5029500Y-11199500D02*
G75*
G02*
X5139500Y-11199500I55000J0D01*
G01*
D12*
X5505039Y-11290984D02*
X5390753Y-11290984D01*
X5447896Y-11290984D02*
X5447896Y-11090984D01*
X5447896Y-11090984D02*
X5428848Y-11119555D01*
X5428848Y-11119555D02*
X5409801Y-11138603D01*
X5409801Y-11138603D02*
X5390753Y-11148127D01*
X5590753Y-11271936D02*
X5600277Y-11281460D01*
X5600277Y-11281460D02*
X5590753Y-11290984D01*
X5590753Y-11290984D02*
X5581229Y-11281460D01*
X5581229Y-11281460D02*
X5590753Y-11271936D01*
X5590753Y-11271936D02*
X5590753Y-11290984D01*
X5790753Y-11290984D02*
X5676467Y-11290984D01*
X5733610Y-11290984D02*
X5733610Y-11090984D01*
X5733610Y-11090984D02*
X5714562Y-11119555D01*
X5714562Y-11119555D02*
X5695515Y-11138603D01*
X5695515Y-11138603D02*
X5676467Y-11148127D01*
X5914562Y-11090984D02*
X5933610Y-11090984D01*
X5933610Y-11090984D02*
X5952658Y-11100508D01*
X5952658Y-11100508D02*
X5962182Y-11110031D01*
X5962182Y-11110031D02*
X5971705Y-11129079D01*
X5971705Y-11129079D02*
X5981229Y-11167174D01*
X5981229Y-11167174D02*
X5981229Y-11214793D01*
X5981229Y-11214793D02*
X5971705Y-11252888D01*
X5971705Y-11252888D02*
X5962182Y-11271936D01*
X5962182Y-11271936D02*
X5952658Y-11281460D01*
X5952658Y-11281460D02*
X5933610Y-11290984D01*
X5933610Y-11290984D02*
X5914562Y-11290984D01*
X5914562Y-11290984D02*
X5895515Y-11281460D01*
X5895515Y-11281460D02*
X5885991Y-11271936D01*
X5885991Y-11271936D02*
X5876467Y-11252888D01*
X5876467Y-11252888D02*
X5866943Y-11214793D01*
X5866943Y-11214793D02*
X5866943Y-11167174D01*
X5866943Y-11167174D02*
X5876467Y-11129079D01*
X5876467Y-11129079D02*
X5885991Y-11110031D01*
X5885991Y-11110031D02*
X5895515Y-11100508D01*
X5895515Y-11100508D02*
X5914562Y-11090984D01*
X6105039Y-11090984D02*
X6124086Y-11090984D01*
X6124086Y-11090984D02*
X6143134Y-11100508D01*
X6143134Y-11100508D02*
X6152658Y-11110031D01*
X6152658Y-11110031D02*
X6162182Y-11129079D01*
X6162182Y-11129079D02*
X6171705Y-11167174D01*
X6171705Y-11167174D02*
X6171705Y-11214793D01*
X6171705Y-11214793D02*
X6162182Y-11252888D01*
X6162182Y-11252888D02*
X6152658Y-11271936D01*
X6152658Y-11271936D02*
X6143134Y-11281460D01*
X6143134Y-11281460D02*
X6124086Y-11290984D01*
X6124086Y-11290984D02*
X6105039Y-11290984D01*
X6105039Y-11290984D02*
X6085991Y-11281460D01*
X6085991Y-11281460D02*
X6076467Y-11271936D01*
X6076467Y-11271936D02*
X6066943Y-11252888D01*
X6066943Y-11252888D02*
X6057420Y-11214793D01*
X6057420Y-11214793D02*
X6057420Y-11167174D01*
X6057420Y-11167174D02*
X6066943Y-11129079D01*
X6066943Y-11129079D02*
X6076467Y-11110031D01*
X6076467Y-11110031D02*
X6085991Y-11100508D01*
X6085991Y-11100508D02*
X6105039Y-11090984D01*
X6257420Y-11290984D02*
X6257420Y-11157650D01*
X6257420Y-11176698D02*
X6266943Y-11167174D01*
X6266943Y-11167174D02*
X6285991Y-11157650D01*
X6285991Y-11157650D02*
X6314563Y-11157650D01*
X6314563Y-11157650D02*
X6333610Y-11167174D01*
X6333610Y-11167174D02*
X6343134Y-11186222D01*
X6343134Y-11186222D02*
X6343134Y-11290984D01*
X6343134Y-11186222D02*
X6352658Y-11167174D01*
X6352658Y-11167174D02*
X6371705Y-11157650D01*
X6371705Y-11157650D02*
X6400277Y-11157650D01*
X6400277Y-11157650D02*
X6419324Y-11167174D01*
X6419324Y-11167174D02*
X6428848Y-11186222D01*
X6428848Y-11186222D02*
X6428848Y-11290984D01*
X6524086Y-11290984D02*
X6524086Y-11157650D01*
X6524086Y-11176698D02*
X6533610Y-11167174D01*
X6533610Y-11167174D02*
X6552658Y-11157650D01*
X6552658Y-11157650D02*
X6581229Y-11157650D01*
X6581229Y-11157650D02*
X6600277Y-11167174D01*
X6600277Y-11167174D02*
X6609801Y-11186222D01*
X6609801Y-11186222D02*
X6609801Y-11290984D01*
X6609801Y-11186222D02*
X6619324Y-11167174D01*
X6619324Y-11167174D02*
X6638372Y-11157650D01*
X6638372Y-11157650D02*
X6666943Y-11157650D01*
X6666943Y-11157650D02*
X6685991Y-11167174D01*
X6685991Y-11167174D02*
X6695515Y-11186222D01*
X6695515Y-11186222D02*
X6695515Y-11290984D01*
X7085991Y-11081460D02*
X6914563Y-11338603D01*
X7343134Y-11090984D02*
X7362182Y-11090984D01*
X7362182Y-11090984D02*
X7381229Y-11100508D01*
X7381229Y-11100508D02*
X7390753Y-11110031D01*
X7390753Y-11110031D02*
X7400277Y-11129079D01*
X7400277Y-11129079D02*
X7409801Y-11167174D01*
X7409801Y-11167174D02*
X7409801Y-11214793D01*
X7409801Y-11214793D02*
X7400277Y-11252888D01*
X7400277Y-11252888D02*
X7390753Y-11271936D01*
X7390753Y-11271936D02*
X7381229Y-11281460D01*
X7381229Y-11281460D02*
X7362182Y-11290984D01*
X7362182Y-11290984D02*
X7343134Y-11290984D01*
X7343134Y-11290984D02*
X7324086Y-11281460D01*
X7324086Y-11281460D02*
X7314563Y-11271936D01*
X7314563Y-11271936D02*
X7305039Y-11252888D01*
X7305039Y-11252888D02*
X7295515Y-11214793D01*
X7295515Y-11214793D02*
X7295515Y-11167174D01*
X7295515Y-11167174D02*
X7305039Y-11129079D01*
X7305039Y-11129079D02*
X7314563Y-11110031D01*
X7314563Y-11110031D02*
X7324086Y-11100508D01*
X7324086Y-11100508D02*
X7343134Y-11090984D01*
X7495515Y-11271936D02*
X7505039Y-11281460D01*
X7505039Y-11281460D02*
X7495515Y-11290984D01*
X7495515Y-11290984D02*
X7485991Y-11281460D01*
X7485991Y-11281460D02*
X7495515Y-11271936D01*
X7495515Y-11271936D02*
X7495515Y-11290984D01*
X7628848Y-11090984D02*
X7647896Y-11090984D01*
X7647896Y-11090984D02*
X7666944Y-11100508D01*
X7666944Y-11100508D02*
X7676467Y-11110031D01*
X7676467Y-11110031D02*
X7685991Y-11129079D01*
X7685991Y-11129079D02*
X7695515Y-11167174D01*
X7695515Y-11167174D02*
X7695515Y-11214793D01*
X7695515Y-11214793D02*
X7685991Y-11252888D01*
X7685991Y-11252888D02*
X7676467Y-11271936D01*
X7676467Y-11271936D02*
X7666944Y-11281460D01*
X7666944Y-11281460D02*
X7647896Y-11290984D01*
X7647896Y-11290984D02*
X7628848Y-11290984D01*
X7628848Y-11290984D02*
X7609801Y-11281460D01*
X7609801Y-11281460D02*
X7600277Y-11271936D01*
X7600277Y-11271936D02*
X7590753Y-11252888D01*
X7590753Y-11252888D02*
X7581229Y-11214793D01*
X7581229Y-11214793D02*
X7581229Y-11167174D01*
X7581229Y-11167174D02*
X7590753Y-11129079D01*
X7590753Y-11129079D02*
X7600277Y-11110031D01*
X7600277Y-11110031D02*
X7609801Y-11100508D01*
X7609801Y-11100508D02*
X7628848Y-11090984D01*
X7866944Y-11157650D02*
X7866944Y-11290984D01*
X7819325Y-11081460D02*
X7771706Y-11224317D01*
X7771706Y-11224317D02*
X7895515Y-11224317D01*
X7952658Y-11090984D02*
X8076467Y-11090984D01*
X8076467Y-11090984D02*
X8009801Y-11167174D01*
X8009801Y-11167174D02*
X8038372Y-11167174D01*
X8038372Y-11167174D02*
X8057420Y-11176698D01*
X8057420Y-11176698D02*
X8066944Y-11186222D01*
X8066944Y-11186222D02*
X8076467Y-11205269D01*
X8076467Y-11205269D02*
X8076467Y-11252888D01*
X8076467Y-11252888D02*
X8066944Y-11271936D01*
X8066944Y-11271936D02*
X8057420Y-11281460D01*
X8057420Y-11281460D02*
X8038372Y-11290984D01*
X8038372Y-11290984D02*
X7981229Y-11290984D01*
X7981229Y-11290984D02*
X7962182Y-11281460D01*
X7962182Y-11281460D02*
X7952658Y-11271936D01*
X8143134Y-11090984D02*
X8266944Y-11090984D01*
X8266944Y-11090984D02*
X8200277Y-11167174D01*
X8200277Y-11167174D02*
X8228848Y-11167174D01*
X8228848Y-11167174D02*
X8247896Y-11176698D01*
X8247896Y-11176698D02*
X8257420Y-11186222D01*
X8257420Y-11186222D02*
X8266944Y-11205269D01*
X8266944Y-11205269D02*
X8266944Y-11252888D01*
X8266944Y-11252888D02*
X8257420Y-11271936D01*
X8257420Y-11271936D02*
X8247896Y-11281460D01*
X8247896Y-11281460D02*
X8228848Y-11290984D01*
X8228848Y-11290984D02*
X8171706Y-11290984D01*
X8171706Y-11290984D02*
X8152658Y-11281460D01*
X8152658Y-11281460D02*
X8143134Y-11271936D01*
X8343134Y-11090984D02*
X8343134Y-11129079D01*
X8419325Y-11090984D02*
X8419325Y-11129079D01*
X8714563Y-11367174D02*
X8705039Y-11357650D01*
X8705039Y-11357650D02*
X8685991Y-11329079D01*
X8685991Y-11329079D02*
X8676468Y-11310031D01*
X8676468Y-11310031D02*
X8666944Y-11281460D01*
X8666944Y-11281460D02*
X8657420Y-11233841D01*
X8657420Y-11233841D02*
X8657420Y-11195746D01*
X8657420Y-11195746D02*
X8666944Y-11148127D01*
X8666944Y-11148127D02*
X8676468Y-11119555D01*
X8676468Y-11119555D02*
X8685991Y-11100508D01*
X8685991Y-11100508D02*
X8705039Y-11071936D01*
X8705039Y-11071936D02*
X8714563Y-11062412D01*
X8895515Y-11290984D02*
X8781230Y-11290984D01*
X8838372Y-11290984D02*
X8838372Y-11090984D01*
X8838372Y-11090984D02*
X8819325Y-11119555D01*
X8819325Y-11119555D02*
X8800277Y-11138603D01*
X8800277Y-11138603D02*
X8781230Y-11148127D01*
X9133611Y-11290984D02*
X9133611Y-11090984D01*
X9219325Y-11290984D02*
X9219325Y-11186222D01*
X9219325Y-11186222D02*
X9209801Y-11167174D01*
X9209801Y-11167174D02*
X9190753Y-11157650D01*
X9190753Y-11157650D02*
X9162182Y-11157650D01*
X9162182Y-11157650D02*
X9143134Y-11167174D01*
X9143134Y-11167174D02*
X9133611Y-11176698D01*
X9343134Y-11290984D02*
X9324087Y-11281460D01*
X9324087Y-11281460D02*
X9314563Y-11271936D01*
X9314563Y-11271936D02*
X9305039Y-11252888D01*
X9305039Y-11252888D02*
X9305039Y-11195746D01*
X9305039Y-11195746D02*
X9314563Y-11176698D01*
X9314563Y-11176698D02*
X9324087Y-11167174D01*
X9324087Y-11167174D02*
X9343134Y-11157650D01*
X9343134Y-11157650D02*
X9371706Y-11157650D01*
X9371706Y-11157650D02*
X9390753Y-11167174D01*
X9390753Y-11167174D02*
X9400277Y-11176698D01*
X9400277Y-11176698D02*
X9409801Y-11195746D01*
X9409801Y-11195746D02*
X9409801Y-11252888D01*
X9409801Y-11252888D02*
X9400277Y-11271936D01*
X9400277Y-11271936D02*
X9390753Y-11281460D01*
X9390753Y-11281460D02*
X9371706Y-11290984D01*
X9371706Y-11290984D02*
X9343134Y-11290984D01*
X9524087Y-11290984D02*
X9505039Y-11281460D01*
X9505039Y-11281460D02*
X9495515Y-11262412D01*
X9495515Y-11262412D02*
X9495515Y-11090984D01*
X9676468Y-11281460D02*
X9657420Y-11290984D01*
X9657420Y-11290984D02*
X9619325Y-11290984D01*
X9619325Y-11290984D02*
X9600277Y-11281460D01*
X9600277Y-11281460D02*
X9590753Y-11262412D01*
X9590753Y-11262412D02*
X9590753Y-11186222D01*
X9590753Y-11186222D02*
X9600277Y-11167174D01*
X9600277Y-11167174D02*
X9619325Y-11157650D01*
X9619325Y-11157650D02*
X9657420Y-11157650D01*
X9657420Y-11157650D02*
X9676468Y-11167174D01*
X9676468Y-11167174D02*
X9685992Y-11186222D01*
X9685992Y-11186222D02*
X9685992Y-11205269D01*
X9685992Y-11205269D02*
X9590753Y-11224317D01*
X9752658Y-11367174D02*
X9762182Y-11357650D01*
X9762182Y-11357650D02*
X9781230Y-11329079D01*
X9781230Y-11329079D02*
X9790753Y-11310031D01*
X9790753Y-11310031D02*
X9800277Y-11281460D01*
X9800277Y-11281460D02*
X9809801Y-11233841D01*
X9809801Y-11233841D02*
X9809801Y-11195746D01*
X9809801Y-11195746D02*
X9800277Y-11148127D01*
X9800277Y-11148127D02*
X9790753Y-11119555D01*
X9790753Y-11119555D02*
X9781230Y-11100508D01*
X9781230Y-11100508D02*
X9762182Y-11071936D01*
X9762182Y-11071936D02*
X9752658Y-11062412D01*
X10114563Y-11367174D02*
X10105039Y-11357650D01*
X10105039Y-11357650D02*
X10085992Y-11329079D01*
X10085992Y-11329079D02*
X10076468Y-11310031D01*
X10076468Y-11310031D02*
X10066944Y-11281460D01*
X10066944Y-11281460D02*
X10057420Y-11233841D01*
X10057420Y-11233841D02*
X10057420Y-11195746D01*
X10057420Y-11195746D02*
X10066944Y-11148127D01*
X10066944Y-11148127D02*
X10076468Y-11119555D01*
X10076468Y-11119555D02*
X10085992Y-11100508D01*
X10085992Y-11100508D02*
X10105039Y-11071936D01*
X10105039Y-11071936D02*
X10114563Y-11062412D01*
X10190753Y-11157650D02*
X10190753Y-11290984D01*
X10190753Y-11176698D02*
X10200277Y-11167174D01*
X10200277Y-11167174D02*
X10219325Y-11157650D01*
X10219325Y-11157650D02*
X10247896Y-11157650D01*
X10247896Y-11157650D02*
X10266944Y-11167174D01*
X10266944Y-11167174D02*
X10276468Y-11186222D01*
X10276468Y-11186222D02*
X10276468Y-11290984D01*
X10400277Y-11290984D02*
X10381230Y-11281460D01*
X10381230Y-11281460D02*
X10371706Y-11271936D01*
X10371706Y-11271936D02*
X10362182Y-11252888D01*
X10362182Y-11252888D02*
X10362182Y-11195746D01*
X10362182Y-11195746D02*
X10371706Y-11176698D01*
X10371706Y-11176698D02*
X10381230Y-11167174D01*
X10381230Y-11167174D02*
X10400277Y-11157650D01*
X10400277Y-11157650D02*
X10428849Y-11157650D01*
X10428849Y-11157650D02*
X10447896Y-11167174D01*
X10447896Y-11167174D02*
X10457420Y-11176698D01*
X10457420Y-11176698D02*
X10466944Y-11195746D01*
X10466944Y-11195746D02*
X10466944Y-11252888D01*
X10466944Y-11252888D02*
X10457420Y-11271936D01*
X10457420Y-11271936D02*
X10447896Y-11281460D01*
X10447896Y-11281460D02*
X10428849Y-11290984D01*
X10428849Y-11290984D02*
X10400277Y-11290984D01*
X10524087Y-11157650D02*
X10600277Y-11157650D01*
X10552658Y-11090984D02*
X10552658Y-11262412D01*
X10552658Y-11262412D02*
X10562182Y-11281460D01*
X10562182Y-11281460D02*
X10581230Y-11290984D01*
X10581230Y-11290984D02*
X10600277Y-11290984D01*
X10819325Y-11157650D02*
X10819325Y-11357650D01*
X10819325Y-11167174D02*
X10838373Y-11157650D01*
X10838373Y-11157650D02*
X10876468Y-11157650D01*
X10876468Y-11157650D02*
X10895515Y-11167174D01*
X10895515Y-11167174D02*
X10905039Y-11176698D01*
X10905039Y-11176698D02*
X10914563Y-11195746D01*
X10914563Y-11195746D02*
X10914563Y-11252888D01*
X10914563Y-11252888D02*
X10905039Y-11271936D01*
X10905039Y-11271936D02*
X10895515Y-11281460D01*
X10895515Y-11281460D02*
X10876468Y-11290984D01*
X10876468Y-11290984D02*
X10838373Y-11290984D01*
X10838373Y-11290984D02*
X10819325Y-11281460D01*
X11028849Y-11290984D02*
X11009801Y-11281460D01*
X11009801Y-11281460D02*
X11000277Y-11262412D01*
X11000277Y-11262412D02*
X11000277Y-11090984D01*
X11190753Y-11290984D02*
X11190753Y-11186222D01*
X11190753Y-11186222D02*
X11181230Y-11167174D01*
X11181230Y-11167174D02*
X11162182Y-11157650D01*
X11162182Y-11157650D02*
X11124087Y-11157650D01*
X11124087Y-11157650D02*
X11105039Y-11167174D01*
X11190753Y-11281460D02*
X11171706Y-11290984D01*
X11171706Y-11290984D02*
X11124087Y-11290984D01*
X11124087Y-11290984D02*
X11105039Y-11281460D01*
X11105039Y-11281460D02*
X11095515Y-11262412D01*
X11095515Y-11262412D02*
X11095515Y-11243365D01*
X11095515Y-11243365D02*
X11105039Y-11224317D01*
X11105039Y-11224317D02*
X11124087Y-11214793D01*
X11124087Y-11214793D02*
X11171706Y-11214793D01*
X11171706Y-11214793D02*
X11190753Y-11205269D01*
X11257420Y-11157650D02*
X11333611Y-11157650D01*
X11285992Y-11090984D02*
X11285992Y-11262412D01*
X11285992Y-11262412D02*
X11295515Y-11281460D01*
X11295515Y-11281460D02*
X11314563Y-11290984D01*
X11314563Y-11290984D02*
X11333611Y-11290984D01*
X11476468Y-11281460D02*
X11457420Y-11290984D01*
X11457420Y-11290984D02*
X11419325Y-11290984D01*
X11419325Y-11290984D02*
X11400277Y-11281460D01*
X11400277Y-11281460D02*
X11390753Y-11262412D01*
X11390753Y-11262412D02*
X11390753Y-11186222D01*
X11390753Y-11186222D02*
X11400277Y-11167174D01*
X11400277Y-11167174D02*
X11419325Y-11157650D01*
X11419325Y-11157650D02*
X11457420Y-11157650D01*
X11457420Y-11157650D02*
X11476468Y-11167174D01*
X11476468Y-11167174D02*
X11485992Y-11186222D01*
X11485992Y-11186222D02*
X11485992Y-11205269D01*
X11485992Y-11205269D02*
X11390753Y-11224317D01*
X11657420Y-11290984D02*
X11657420Y-11090984D01*
X11657420Y-11281460D02*
X11638373Y-11290984D01*
X11638373Y-11290984D02*
X11600277Y-11290984D01*
X11600277Y-11290984D02*
X11581230Y-11281460D01*
X11581230Y-11281460D02*
X11571706Y-11271936D01*
X11571706Y-11271936D02*
X11562182Y-11252888D01*
X11562182Y-11252888D02*
X11562182Y-11195746D01*
X11562182Y-11195746D02*
X11571706Y-11176698D01*
X11571706Y-11176698D02*
X11581230Y-11167174D01*
X11581230Y-11167174D02*
X11600277Y-11157650D01*
X11600277Y-11157650D02*
X11638373Y-11157650D01*
X11638373Y-11157650D02*
X11657420Y-11167174D01*
X11733611Y-11367174D02*
X11743134Y-11357650D01*
X11743134Y-11357650D02*
X11762182Y-11329079D01*
X11762182Y-11329079D02*
X11771706Y-11310031D01*
X11771706Y-11310031D02*
X11781230Y-11281460D01*
X11781230Y-11281460D02*
X11790753Y-11233841D01*
X11790753Y-11233841D02*
X11790753Y-11195746D01*
X11790753Y-11195746D02*
X11781230Y-11148127D01*
X11781230Y-11148127D02*
X11771706Y-11119555D01*
X11771706Y-11119555D02*
X11762182Y-11100508D01*
X11762182Y-11100508D02*
X11743134Y-11071936D01*
X11743134Y-11071936D02*
X11733611Y-11062412D01*
M02*
