G04 #@! TF.GenerationSoftware,KiCad,Pcbnew,9.0.6*
G04 #@! TF.CreationDate,2026-01-30T18:58:32+13:00*
G04 #@! TF.ProjectId,Gateway_PCB_Argon_One_V5,47617465-7761-4795-9f50-43425f417267,rev?*
G04 #@! TF.SameCoordinates,Original*
G04 #@! TF.FileFunction,Legend,Top*
G04 #@! TF.FilePolarity,Positive*
%FSLAX46Y46*%
G04 Gerber Fmt 4.6, Leading zero omitted, Abs format (unit mm)*
G04 Created by KiCad (PCBNEW 9.0.6) date 2026-01-30 18:58:32*
%MOMM*%
%LPD*%
G01*
G04 APERTURE LIST*
G04 Aperture macros list*
%AMRoundRect*
0 Rectangle with rounded corners*
0 $1 Rounding radius*
0 $2 $3 $4 $5 $6 $7 $8 $9 X,Y pos of 4 corners*
0 Add a 4 corners polygon primitive as box body*
4,1,4,$2,$3,$4,$5,$6,$7,$8,$9,$2,$3,0*
0 Add four circle primitives for the rounded corners*
1,1,$1+$1,$2,$3*
1,1,$1+$1,$4,$5*
1,1,$1+$1,$6,$7*
1,1,$1+$1,$8,$9*
0 Add four rect primitives between the rounded corners*
20,1,$1+$1,$2,$3,$4,$5,0*
20,1,$1+$1,$4,$5,$6,$7,0*
20,1,$1+$1,$6,$7,$8,$9,0*
20,1,$1+$1,$8,$9,$2,$3,0*%
%AMFreePoly0*
4,1,13,0.056640,-0.015230,0.084770,-0.043360,0.099990,-0.080110,0.099980,-0.100000,0.099990,-0.100010,0.099990,-0.750000,-0.950010,-0.750000,-0.950010,-0.080110,-0.934790,-0.043350,-0.906660,-0.015220,-0.869910,0.000000,0.019890,0.000000,0.056640,-0.015230,0.056640,-0.015230,$1*%
G04 Aperture macros list end*
%ADD10C,0.100000*%
%ADD11C,0.150000*%
%ADD12C,0.120000*%
%ADD13C,0.800000*%
%ADD14RoundRect,0.140000X-0.170000X0.140000X-0.170000X-0.140000X0.170000X-0.140000X0.170000X0.140000X0*%
%ADD15RoundRect,0.225000X0.250000X-0.225000X0.250000X0.225000X-0.250000X0.225000X-0.250000X-0.225000X0*%
%ADD16RoundRect,0.135000X0.185000X-0.135000X0.185000X0.135000X-0.185000X0.135000X-0.185000X-0.135000X0*%
%ADD17RoundRect,0.135000X0.135000X0.185000X-0.135000X0.185000X-0.135000X-0.185000X0.135000X-0.185000X0*%
%ADD18RoundRect,0.243750X-0.243750X-0.456250X0.243750X-0.456250X0.243750X0.456250X-0.243750X0.456250X0*%
%ADD19R,1.700000X1.700000*%
%ADD20C,1.700000*%
%ADD21C,1.000000*%
%ADD22C,1.100000*%
%ADD23C,1.045000*%
%ADD24FreePoly0,90.000000*%
G04 APERTURE END LIST*
D10*
X52176265Y-82522133D02*
X52785789Y-82522133D01*
X52481027Y-82826895D02*
X52481027Y-82217371D01*
X73263884Y-64228609D02*
X73597217Y-64228609D01*
X73740074Y-64752419D02*
X73263884Y-64752419D01*
X73263884Y-64752419D02*
X73263884Y-63752419D01*
X73263884Y-63752419D02*
X73740074Y-63752419D01*
X74168646Y-64085752D02*
X74168646Y-64752419D01*
X74168646Y-64180990D02*
X74216265Y-64133371D01*
X74216265Y-64133371D02*
X74311503Y-64085752D01*
X74311503Y-64085752D02*
X74454360Y-64085752D01*
X74454360Y-64085752D02*
X74549598Y-64133371D01*
X74549598Y-64133371D02*
X74597217Y-64228609D01*
X74597217Y-64228609D02*
X74597217Y-64752419D01*
X75454360Y-64704800D02*
X75359122Y-64752419D01*
X75359122Y-64752419D02*
X75168646Y-64752419D01*
X75168646Y-64752419D02*
X75073408Y-64704800D01*
X75073408Y-64704800D02*
X75025789Y-64609561D01*
X75025789Y-64609561D02*
X75025789Y-64228609D01*
X75025789Y-64228609D02*
X75073408Y-64133371D01*
X75073408Y-64133371D02*
X75168646Y-64085752D01*
X75168646Y-64085752D02*
X75359122Y-64085752D01*
X75359122Y-64085752D02*
X75454360Y-64133371D01*
X75454360Y-64133371D02*
X75501979Y-64228609D01*
X75501979Y-64228609D02*
X75501979Y-64323847D01*
X75501979Y-64323847D02*
X75025789Y-64419085D01*
X75930551Y-64752419D02*
X75930551Y-64085752D01*
X75930551Y-64276228D02*
X75978170Y-64180990D01*
X75978170Y-64180990D02*
X76025789Y-64133371D01*
X76025789Y-64133371D02*
X76121027Y-64085752D01*
X76121027Y-64085752D02*
X76216265Y-64085752D01*
X76978170Y-64085752D02*
X76978170Y-64895276D01*
X76978170Y-64895276D02*
X76930551Y-64990514D01*
X76930551Y-64990514D02*
X76882932Y-65038133D01*
X76882932Y-65038133D02*
X76787694Y-65085752D01*
X76787694Y-65085752D02*
X76644837Y-65085752D01*
X76644837Y-65085752D02*
X76549599Y-65038133D01*
X76978170Y-64704800D02*
X76882932Y-64752419D01*
X76882932Y-64752419D02*
X76692456Y-64752419D01*
X76692456Y-64752419D02*
X76597218Y-64704800D01*
X76597218Y-64704800D02*
X76549599Y-64657180D01*
X76549599Y-64657180D02*
X76501980Y-64561942D01*
X76501980Y-64561942D02*
X76501980Y-64276228D01*
X76501980Y-64276228D02*
X76549599Y-64180990D01*
X76549599Y-64180990D02*
X76597218Y-64133371D01*
X76597218Y-64133371D02*
X76692456Y-64085752D01*
X76692456Y-64085752D02*
X76882932Y-64085752D01*
X76882932Y-64085752D02*
X76978170Y-64133371D01*
X77359123Y-64085752D02*
X77597218Y-64752419D01*
X77835313Y-64085752D02*
X77597218Y-64752419D01*
X77597218Y-64752419D02*
X77501980Y-64990514D01*
X77501980Y-64990514D02*
X77454361Y-65038133D01*
X77454361Y-65038133D02*
X77359123Y-65085752D01*
X79311504Y-64228609D02*
X78978171Y-64228609D01*
X78978171Y-64752419D02*
X78978171Y-63752419D01*
X78978171Y-63752419D02*
X79454361Y-63752419D01*
X79978171Y-64752419D02*
X79882933Y-64704800D01*
X79882933Y-64704800D02*
X79835314Y-64609561D01*
X79835314Y-64609561D02*
X79835314Y-63752419D01*
X80501981Y-64752419D02*
X80406743Y-64704800D01*
X80406743Y-64704800D02*
X80359124Y-64657180D01*
X80359124Y-64657180D02*
X80311505Y-64561942D01*
X80311505Y-64561942D02*
X80311505Y-64276228D01*
X80311505Y-64276228D02*
X80359124Y-64180990D01*
X80359124Y-64180990D02*
X80406743Y-64133371D01*
X80406743Y-64133371D02*
X80501981Y-64085752D01*
X80501981Y-64085752D02*
X80644838Y-64085752D01*
X80644838Y-64085752D02*
X80740076Y-64133371D01*
X80740076Y-64133371D02*
X80787695Y-64180990D01*
X80787695Y-64180990D02*
X80835314Y-64276228D01*
X80835314Y-64276228D02*
X80835314Y-64561942D01*
X80835314Y-64561942D02*
X80787695Y-64657180D01*
X80787695Y-64657180D02*
X80740076Y-64704800D01*
X80740076Y-64704800D02*
X80644838Y-64752419D01*
X80644838Y-64752419D02*
X80501981Y-64752419D01*
X81168648Y-64085752D02*
X81359124Y-64752419D01*
X81359124Y-64752419D02*
X81549600Y-64276228D01*
X81549600Y-64276228D02*
X81740076Y-64752419D01*
X81740076Y-64752419D02*
X81930552Y-64085752D01*
X82978172Y-63752419D02*
X83216267Y-64752419D01*
X83216267Y-64752419D02*
X83406743Y-64038133D01*
X83406743Y-64038133D02*
X83597219Y-64752419D01*
X83597219Y-64752419D02*
X83835315Y-63752419D01*
X84644838Y-64752419D02*
X84644838Y-64228609D01*
X84644838Y-64228609D02*
X84597219Y-64133371D01*
X84597219Y-64133371D02*
X84501981Y-64085752D01*
X84501981Y-64085752D02*
X84311505Y-64085752D01*
X84311505Y-64085752D02*
X84216267Y-64133371D01*
X84644838Y-64704800D02*
X84549600Y-64752419D01*
X84549600Y-64752419D02*
X84311505Y-64752419D01*
X84311505Y-64752419D02*
X84216267Y-64704800D01*
X84216267Y-64704800D02*
X84168648Y-64609561D01*
X84168648Y-64609561D02*
X84168648Y-64514323D01*
X84168648Y-64514323D02*
X84216267Y-64419085D01*
X84216267Y-64419085D02*
X84311505Y-64371466D01*
X84311505Y-64371466D02*
X84549600Y-64371466D01*
X84549600Y-64371466D02*
X84644838Y-64323847D01*
X85263886Y-64752419D02*
X85168648Y-64704800D01*
X85168648Y-64704800D02*
X85121029Y-64609561D01*
X85121029Y-64609561D02*
X85121029Y-63752419D01*
X85787696Y-64752419D02*
X85692458Y-64704800D01*
X85692458Y-64704800D02*
X85644839Y-64609561D01*
X85644839Y-64609561D02*
X85644839Y-63752419D01*
X86930554Y-64752419D02*
X86930554Y-63752419D01*
X86930554Y-63752419D02*
X87311506Y-63752419D01*
X87311506Y-63752419D02*
X87406744Y-63800038D01*
X87406744Y-63800038D02*
X87454363Y-63847657D01*
X87454363Y-63847657D02*
X87501982Y-63942895D01*
X87501982Y-63942895D02*
X87501982Y-64085752D01*
X87501982Y-64085752D02*
X87454363Y-64180990D01*
X87454363Y-64180990D02*
X87406744Y-64228609D01*
X87406744Y-64228609D02*
X87311506Y-64276228D01*
X87311506Y-64276228D02*
X86930554Y-64276228D01*
X87930554Y-64752419D02*
X87930554Y-64085752D01*
X87930554Y-64276228D02*
X87978173Y-64180990D01*
X87978173Y-64180990D02*
X88025792Y-64133371D01*
X88025792Y-64133371D02*
X88121030Y-64085752D01*
X88121030Y-64085752D02*
X88216268Y-64085752D01*
X88692459Y-64752419D02*
X88597221Y-64704800D01*
X88597221Y-64704800D02*
X88549602Y-64657180D01*
X88549602Y-64657180D02*
X88501983Y-64561942D01*
X88501983Y-64561942D02*
X88501983Y-64276228D01*
X88501983Y-64276228D02*
X88549602Y-64180990D01*
X88549602Y-64180990D02*
X88597221Y-64133371D01*
X88597221Y-64133371D02*
X88692459Y-64085752D01*
X88692459Y-64085752D02*
X88835316Y-64085752D01*
X88835316Y-64085752D02*
X88930554Y-64133371D01*
X88930554Y-64133371D02*
X88978173Y-64180990D01*
X88978173Y-64180990D02*
X89025792Y-64276228D01*
X89025792Y-64276228D02*
X89025792Y-64561942D01*
X89025792Y-64561942D02*
X88978173Y-64657180D01*
X88978173Y-64657180D02*
X88930554Y-64704800D01*
X88930554Y-64704800D02*
X88835316Y-64752419D01*
X88835316Y-64752419D02*
X88692459Y-64752419D01*
X89454364Y-64085752D02*
X89454364Y-64942895D01*
X89454364Y-64942895D02*
X89406745Y-65038133D01*
X89406745Y-65038133D02*
X89311507Y-65085752D01*
X89311507Y-65085752D02*
X89263888Y-65085752D01*
X89454364Y-63752419D02*
X89406745Y-63800038D01*
X89406745Y-63800038D02*
X89454364Y-63847657D01*
X89454364Y-63847657D02*
X89501983Y-63800038D01*
X89501983Y-63800038D02*
X89454364Y-63752419D01*
X89454364Y-63752419D02*
X89454364Y-63847657D01*
X90311506Y-64704800D02*
X90216268Y-64752419D01*
X90216268Y-64752419D02*
X90025792Y-64752419D01*
X90025792Y-64752419D02*
X89930554Y-64704800D01*
X89930554Y-64704800D02*
X89882935Y-64609561D01*
X89882935Y-64609561D02*
X89882935Y-64228609D01*
X89882935Y-64228609D02*
X89930554Y-64133371D01*
X89930554Y-64133371D02*
X90025792Y-64085752D01*
X90025792Y-64085752D02*
X90216268Y-64085752D01*
X90216268Y-64085752D02*
X90311506Y-64133371D01*
X90311506Y-64133371D02*
X90359125Y-64228609D01*
X90359125Y-64228609D02*
X90359125Y-64323847D01*
X90359125Y-64323847D02*
X89882935Y-64419085D01*
X91216268Y-64704800D02*
X91121030Y-64752419D01*
X91121030Y-64752419D02*
X90930554Y-64752419D01*
X90930554Y-64752419D02*
X90835316Y-64704800D01*
X90835316Y-64704800D02*
X90787697Y-64657180D01*
X90787697Y-64657180D02*
X90740078Y-64561942D01*
X90740078Y-64561942D02*
X90740078Y-64276228D01*
X90740078Y-64276228D02*
X90787697Y-64180990D01*
X90787697Y-64180990D02*
X90835316Y-64133371D01*
X90835316Y-64133371D02*
X90930554Y-64085752D01*
X90930554Y-64085752D02*
X91121030Y-64085752D01*
X91121030Y-64085752D02*
X91216268Y-64133371D01*
X91501983Y-64085752D02*
X91882935Y-64085752D01*
X91644840Y-63752419D02*
X91644840Y-64609561D01*
X91644840Y-64609561D02*
X91692459Y-64704800D01*
X91692459Y-64704800D02*
X91787697Y-64752419D01*
X91787697Y-64752419D02*
X91882935Y-64752419D01*
X64656265Y-66022133D02*
X65265789Y-66022133D01*
X64961027Y-66326895D02*
X64961027Y-65717371D01*
X53810476Y-70744895D02*
X53810476Y-71392514D01*
X53810476Y-71392514D02*
X53848571Y-71468704D01*
X53848571Y-71468704D02*
X53886666Y-71506800D01*
X53886666Y-71506800D02*
X53962857Y-71544895D01*
X53962857Y-71544895D02*
X54115238Y-71544895D01*
X54115238Y-71544895D02*
X54191428Y-71506800D01*
X54191428Y-71506800D02*
X54229523Y-71468704D01*
X54229523Y-71468704D02*
X54267619Y-71392514D01*
X54267619Y-71392514D02*
X54267619Y-70744895D01*
X55067618Y-71544895D02*
X54610475Y-71544895D01*
X54839047Y-71544895D02*
X54839047Y-70744895D01*
X54839047Y-70744895D02*
X54762856Y-70859180D01*
X54762856Y-70859180D02*
X54686666Y-70935371D01*
X54686666Y-70935371D02*
X54610475Y-70973466D01*
X52758704Y-86443332D02*
X52796800Y-86481428D01*
X52796800Y-86481428D02*
X52834895Y-86595713D01*
X52834895Y-86595713D02*
X52834895Y-86671904D01*
X52834895Y-86671904D02*
X52796800Y-86786190D01*
X52796800Y-86786190D02*
X52720609Y-86862380D01*
X52720609Y-86862380D02*
X52644419Y-86900475D01*
X52644419Y-86900475D02*
X52492038Y-86938571D01*
X52492038Y-86938571D02*
X52377752Y-86938571D01*
X52377752Y-86938571D02*
X52225371Y-86900475D01*
X52225371Y-86900475D02*
X52149180Y-86862380D01*
X52149180Y-86862380D02*
X52072990Y-86786190D01*
X52072990Y-86786190D02*
X52034895Y-86671904D01*
X52034895Y-86671904D02*
X52034895Y-86595713D01*
X52034895Y-86595713D02*
X52072990Y-86481428D01*
X52072990Y-86481428D02*
X52111085Y-86443332D01*
X52834895Y-85681428D02*
X52834895Y-86138571D01*
X52834895Y-85909999D02*
X52034895Y-85909999D01*
X52034895Y-85909999D02*
X52149180Y-85986190D01*
X52149180Y-85986190D02*
X52225371Y-86062380D01*
X52225371Y-86062380D02*
X52263466Y-86138571D01*
X58078704Y-64743332D02*
X58116800Y-64781428D01*
X58116800Y-64781428D02*
X58154895Y-64895713D01*
X58154895Y-64895713D02*
X58154895Y-64971904D01*
X58154895Y-64971904D02*
X58116800Y-65086190D01*
X58116800Y-65086190D02*
X58040609Y-65162380D01*
X58040609Y-65162380D02*
X57964419Y-65200475D01*
X57964419Y-65200475D02*
X57812038Y-65238571D01*
X57812038Y-65238571D02*
X57697752Y-65238571D01*
X57697752Y-65238571D02*
X57545371Y-65200475D01*
X57545371Y-65200475D02*
X57469180Y-65162380D01*
X57469180Y-65162380D02*
X57392990Y-65086190D01*
X57392990Y-65086190D02*
X57354895Y-64971904D01*
X57354895Y-64971904D02*
X57354895Y-64895713D01*
X57354895Y-64895713D02*
X57392990Y-64781428D01*
X57392990Y-64781428D02*
X57431085Y-64743332D01*
X57431085Y-64438571D02*
X57392990Y-64400475D01*
X57392990Y-64400475D02*
X57354895Y-64324285D01*
X57354895Y-64324285D02*
X57354895Y-64133809D01*
X57354895Y-64133809D02*
X57392990Y-64057618D01*
X57392990Y-64057618D02*
X57431085Y-64019523D01*
X57431085Y-64019523D02*
X57507276Y-63981428D01*
X57507276Y-63981428D02*
X57583466Y-63981428D01*
X57583466Y-63981428D02*
X57697752Y-64019523D01*
X57697752Y-64019523D02*
X58154895Y-64476666D01*
X58154895Y-64476666D02*
X58154895Y-63981428D01*
X65844895Y-83853332D02*
X65463942Y-84119999D01*
X65844895Y-84310475D02*
X65044895Y-84310475D01*
X65044895Y-84310475D02*
X65044895Y-84005713D01*
X65044895Y-84005713D02*
X65082990Y-83929523D01*
X65082990Y-83929523D02*
X65121085Y-83891428D01*
X65121085Y-83891428D02*
X65197276Y-83853332D01*
X65197276Y-83853332D02*
X65311561Y-83853332D01*
X65311561Y-83853332D02*
X65387752Y-83891428D01*
X65387752Y-83891428D02*
X65425847Y-83929523D01*
X65425847Y-83929523D02*
X65463942Y-84005713D01*
X65463942Y-84005713D02*
X65463942Y-84310475D01*
X65844895Y-83091428D02*
X65844895Y-83548571D01*
X65844895Y-83319999D02*
X65044895Y-83319999D01*
X65044895Y-83319999D02*
X65159180Y-83396190D01*
X65159180Y-83396190D02*
X65235371Y-83472380D01*
X65235371Y-83472380D02*
X65273466Y-83548571D01*
X59556667Y-65274895D02*
X59290000Y-64893942D01*
X59099524Y-65274895D02*
X59099524Y-64474895D01*
X59099524Y-64474895D02*
X59404286Y-64474895D01*
X59404286Y-64474895D02*
X59480476Y-64512990D01*
X59480476Y-64512990D02*
X59518571Y-64551085D01*
X59518571Y-64551085D02*
X59556667Y-64627276D01*
X59556667Y-64627276D02*
X59556667Y-64741561D01*
X59556667Y-64741561D02*
X59518571Y-64817752D01*
X59518571Y-64817752D02*
X59480476Y-64855847D01*
X59480476Y-64855847D02*
X59404286Y-64893942D01*
X59404286Y-64893942D02*
X59099524Y-64893942D01*
X59861428Y-64551085D02*
X59899524Y-64512990D01*
X59899524Y-64512990D02*
X59975714Y-64474895D01*
X59975714Y-64474895D02*
X60166190Y-64474895D01*
X60166190Y-64474895D02*
X60242381Y-64512990D01*
X60242381Y-64512990D02*
X60280476Y-64551085D01*
X60280476Y-64551085D02*
X60318571Y-64627276D01*
X60318571Y-64627276D02*
X60318571Y-64703466D01*
X60318571Y-64703466D02*
X60280476Y-64817752D01*
X60280476Y-64817752D02*
X59823333Y-65274895D01*
X59823333Y-65274895D02*
X60318571Y-65274895D01*
X62209524Y-64774895D02*
X62209524Y-63974895D01*
X62209524Y-63974895D02*
X62400000Y-63974895D01*
X62400000Y-63974895D02*
X62514286Y-64012990D01*
X62514286Y-64012990D02*
X62590476Y-64089180D01*
X62590476Y-64089180D02*
X62628571Y-64165371D01*
X62628571Y-64165371D02*
X62666667Y-64317752D01*
X62666667Y-64317752D02*
X62666667Y-64432038D01*
X62666667Y-64432038D02*
X62628571Y-64584419D01*
X62628571Y-64584419D02*
X62590476Y-64660609D01*
X62590476Y-64660609D02*
X62514286Y-64736800D01*
X62514286Y-64736800D02*
X62400000Y-64774895D01*
X62400000Y-64774895D02*
X62209524Y-64774895D01*
X63428571Y-64774895D02*
X62971428Y-64774895D01*
X63200000Y-64774895D02*
X63200000Y-63974895D01*
X63200000Y-63974895D02*
X63123809Y-64089180D01*
X63123809Y-64089180D02*
X63047619Y-64165371D01*
X63047619Y-64165371D02*
X62971428Y-64203466D01*
D11*
X103366666Y-69404819D02*
X103366666Y-70119104D01*
X103366666Y-70119104D02*
X103319047Y-70261961D01*
X103319047Y-70261961D02*
X103223809Y-70357200D01*
X103223809Y-70357200D02*
X103080952Y-70404819D01*
X103080952Y-70404819D02*
X102985714Y-70404819D01*
X103795238Y-69500057D02*
X103842857Y-69452438D01*
X103842857Y-69452438D02*
X103938095Y-69404819D01*
X103938095Y-69404819D02*
X104176190Y-69404819D01*
X104176190Y-69404819D02*
X104271428Y-69452438D01*
X104271428Y-69452438D02*
X104319047Y-69500057D01*
X104319047Y-69500057D02*
X104366666Y-69595295D01*
X104366666Y-69595295D02*
X104366666Y-69690533D01*
X104366666Y-69690533D02*
X104319047Y-69833390D01*
X104319047Y-69833390D02*
X103747619Y-70404819D01*
X103747619Y-70404819D02*
X104366666Y-70404819D01*
G04 #@! TO.C,U1*
X53220000Y-89945000D02*
X53220000Y-71945000D01*
X64220000Y-71945000D02*
X53220000Y-71945000D01*
X64220000Y-71945000D02*
X64220000Y-89945000D01*
X64220000Y-89945000D02*
X53220000Y-89945000D01*
D12*
G04 #@! TO.C,C1*
X52060000Y-84572164D02*
X52060000Y-84787836D01*
X52780000Y-84572164D02*
X52780000Y-84787836D01*
G04 #@! TO.C,C2*
X57260000Y-67055580D02*
X57260000Y-66774420D01*
X58280000Y-67055580D02*
X58280000Y-66774420D01*
G04 #@! TO.C,R1*
X65160000Y-85513641D02*
X65160000Y-85206359D01*
X65920000Y-85513641D02*
X65920000Y-85206359D01*
G04 #@! TO.C,R2*
X59823641Y-65550000D02*
X59516359Y-65550000D01*
X59823641Y-66310000D02*
X59516359Y-66310000D01*
G04 #@! TO.C,D1*
X61095000Y-64960000D02*
X61095000Y-66880000D01*
X61095000Y-66880000D02*
X63780000Y-66880000D01*
X63780000Y-64960000D02*
X61095000Y-64960000D01*
G04 #@! TO.C,J2*
X101050000Y-70950000D02*
X102430000Y-70950000D01*
X101050000Y-72330000D02*
X101050000Y-70950000D01*
X101050000Y-73600000D02*
X101050000Y-101650000D01*
X101050000Y-73600000D02*
X103700000Y-73600000D01*
X101050000Y-101650000D02*
X106350000Y-101650000D01*
X103700000Y-70950000D02*
X106350000Y-70950000D01*
X103700000Y-73600000D02*
X103700000Y-70950000D01*
X106350000Y-70950000D02*
X106350000Y-101650000D01*
G04 #@! TD*
%LPC*%
G04 #@! TO.C,J1*
G36*
X66920000Y-74010010D02*
G01*
X67670000Y-74010010D01*
X67670000Y-73560010D01*
X66920000Y-73560010D01*
X66920000Y-74010010D01*
G37*
G36*
X66920000Y-75280010D02*
G01*
X67670000Y-75280010D01*
X67670000Y-74830010D01*
X66920000Y-74830010D01*
X66920000Y-75280010D01*
G37*
G36*
X66920000Y-76550010D02*
G01*
X67670000Y-76550010D01*
X67670000Y-76100010D01*
X66920000Y-76100010D01*
X66920000Y-76550010D01*
G37*
G36*
X66920000Y-77820010D02*
G01*
X67670000Y-77820010D01*
X67670000Y-77370010D01*
X66920000Y-77370010D01*
X66920000Y-77820010D01*
G37*
G36*
X66920000Y-79090010D02*
G01*
X67670000Y-79090010D01*
X67670000Y-78640010D01*
X66920000Y-78640010D01*
X66920000Y-79090010D01*
G37*
G36*
X66920000Y-80360010D02*
G01*
X67670000Y-80360010D01*
X67670000Y-79910010D01*
X66920000Y-79910010D01*
X66920000Y-80360010D01*
G37*
G36*
X66920000Y-81630010D02*
G01*
X67670000Y-81630010D01*
X67670000Y-81180010D01*
X66920000Y-81180010D01*
X66920000Y-81630010D01*
G37*
G36*
X66920000Y-82975010D02*
G01*
X67670000Y-82975010D01*
X67670000Y-82435010D01*
X66920000Y-82435010D01*
X66920000Y-82975010D01*
G37*
G04 #@! TD*
D13*
G04 #@! TO.C,U1*
X63420000Y-84430000D03*
X63420000Y-83160000D03*
X63420000Y-81890000D03*
X63420000Y-80620000D03*
X63420000Y-79350000D03*
X63420000Y-78080000D03*
X63420000Y-76810000D03*
X63420000Y-75540000D03*
X63420000Y-74270000D03*
X63420000Y-73000000D03*
X61900000Y-73000000D03*
X60630000Y-73000000D03*
X59360000Y-73000000D03*
X58090000Y-73000000D03*
X56820000Y-73000000D03*
X55550000Y-73000000D03*
X54030000Y-73000000D03*
X54030000Y-74270000D03*
X54030000Y-75540000D03*
X54030000Y-76810000D03*
X54030000Y-78080000D03*
X54030000Y-79350000D03*
X54030000Y-80620000D03*
X54030000Y-81890000D03*
X54030000Y-83160000D03*
X54030000Y-84430000D03*
X58380000Y-87540000D03*
X61330000Y-87540000D03*
X63420000Y-89140000D03*
X54030000Y-89140000D03*
G04 #@! TD*
D14*
G04 #@! TO.C,C1*
X52420000Y-84200000D03*
X52420000Y-85160000D03*
G04 #@! TD*
D15*
G04 #@! TO.C,C2*
X57770000Y-67690000D03*
X57770000Y-66140000D03*
G04 #@! TD*
D16*
G04 #@! TO.C,R1*
X65540000Y-85870000D03*
X65540000Y-84850000D03*
G04 #@! TD*
D17*
G04 #@! TO.C,R2*
X60180000Y-65930000D03*
X59160000Y-65930000D03*
G04 #@! TD*
D18*
G04 #@! TO.C,D1*
X61842500Y-65920000D03*
X63717500Y-65920000D03*
G04 #@! TD*
D19*
G04 #@! TO.C,J2*
X102430000Y-72330000D03*
D20*
X104970000Y-72330000D03*
X102430000Y-74870000D03*
X104970000Y-74870000D03*
X102430000Y-77410000D03*
X104970000Y-77410000D03*
X102430000Y-79950000D03*
X104970000Y-79950000D03*
X102430000Y-82490000D03*
X104970000Y-82490000D03*
X102430000Y-85030000D03*
X104970000Y-85030000D03*
D19*
X102430000Y-87570000D03*
D20*
X104970000Y-87570000D03*
X102430000Y-90110000D03*
X104970000Y-90110000D03*
X102430000Y-92650000D03*
X104970000Y-92650000D03*
X102430000Y-95190000D03*
X104970000Y-95190000D03*
X102430000Y-97730000D03*
X104970000Y-97730000D03*
X102430000Y-100270000D03*
X104970000Y-100270000D03*
G04 #@! TD*
D21*
G04 #@! TO.C,J1*
X67670000Y-83305010D03*
D22*
X66170000Y-78225010D03*
D23*
X67670000Y-82035010D03*
D24*
X66920000Y-81610000D03*
D23*
X67670000Y-80765010D03*
D24*
X66920000Y-80340000D03*
D23*
X67670000Y-79495010D03*
D24*
X66920000Y-79070000D03*
D23*
X67670000Y-76955010D03*
D24*
X66920000Y-76530000D03*
D23*
X67670000Y-75685010D03*
D24*
X66920000Y-75260000D03*
D23*
X67670000Y-74415010D03*
D24*
X66920000Y-73990000D03*
G04 #@! TD*
%LPD*%
M02*
