G04 #@! TF.GenerationSoftware,KiCad,Pcbnew,9.0.6*
G04 #@! TF.CreationDate,2026-01-30T18:58:32+13:00*
G04 #@! TF.ProjectId,Gateway_PCB_Argon_One_V5,47617465-7761-4795-9f50-43425f417267,rev?*
G04 #@! TF.SameCoordinates,Original*
G04 #@! TF.FileFunction,AssemblyDrawing,Bot*
%FSLAX46Y46*%
G04 Gerber Fmt 4.6, Leading zero omitted, Abs format (unit mm)*
G04 Created by KiCad (PCBNEW 9.0.6) date 2026-01-30 18:58:32*
%MOMM*%
%LPD*%
G01*
G04 APERTURE LIST*
%ADD10C,0.150000*%
G04 APERTURE END LIST*
D10*
X64738990Y-85225485D02*
X64738990Y-84892152D01*
X64215180Y-84749295D02*
X64215180Y-85225485D01*
X64215180Y-85225485D02*
X65215180Y-85225485D01*
X65215180Y-85225485D02*
X65215180Y-84749295D01*
X64310419Y-83749295D02*
X64262800Y-83796914D01*
X64262800Y-83796914D02*
X64215180Y-83939771D01*
X64215180Y-83939771D02*
X64215180Y-84035009D01*
X64215180Y-84035009D02*
X64262800Y-84177866D01*
X64262800Y-84177866D02*
X64358038Y-84273104D01*
X64358038Y-84273104D02*
X64453276Y-84320723D01*
X64453276Y-84320723D02*
X64643752Y-84368342D01*
X64643752Y-84368342D02*
X64786609Y-84368342D01*
X64786609Y-84368342D02*
X64977085Y-84320723D01*
X64977085Y-84320723D02*
X65072323Y-84273104D01*
X65072323Y-84273104D02*
X65167561Y-84177866D01*
X65167561Y-84177866D02*
X65215180Y-84035009D01*
X65215180Y-84035009D02*
X65215180Y-83939771D01*
X65215180Y-83939771D02*
X65167561Y-83796914D01*
X65167561Y-83796914D02*
X65119942Y-83749295D01*
X65215180Y-83463580D02*
X64215180Y-83130247D01*
X64215180Y-83130247D02*
X65215180Y-82796914D01*
X65215180Y-82558818D02*
X65215180Y-81939771D01*
X65215180Y-81939771D02*
X64834228Y-82273104D01*
X64834228Y-82273104D02*
X64834228Y-82130247D01*
X64834228Y-82130247D02*
X64786609Y-82035009D01*
X64786609Y-82035009D02*
X64738990Y-81987390D01*
X64738990Y-81987390D02*
X64643752Y-81939771D01*
X64643752Y-81939771D02*
X64405657Y-81939771D01*
X64405657Y-81939771D02*
X64310419Y-81987390D01*
X64310419Y-81987390D02*
X64262800Y-82035009D01*
X64262800Y-82035009D02*
X64215180Y-82130247D01*
X64215180Y-82130247D02*
X64215180Y-82415961D01*
X64215180Y-82415961D02*
X64262800Y-82511199D01*
X64262800Y-82511199D02*
X64310419Y-82558818D01*
X64596133Y-81511199D02*
X64596133Y-80749295D01*
X65215180Y-80082628D02*
X65215180Y-79987390D01*
X65215180Y-79987390D02*
X65167561Y-79892152D01*
X65167561Y-79892152D02*
X65119942Y-79844533D01*
X65119942Y-79844533D02*
X65024704Y-79796914D01*
X65024704Y-79796914D02*
X64834228Y-79749295D01*
X64834228Y-79749295D02*
X64596133Y-79749295D01*
X64596133Y-79749295D02*
X64405657Y-79796914D01*
X64405657Y-79796914D02*
X64310419Y-79844533D01*
X64310419Y-79844533D02*
X64262800Y-79892152D01*
X64262800Y-79892152D02*
X64215180Y-79987390D01*
X64215180Y-79987390D02*
X64215180Y-80082628D01*
X64215180Y-80082628D02*
X64262800Y-80177866D01*
X64262800Y-80177866D02*
X64310419Y-80225485D01*
X64310419Y-80225485D02*
X64405657Y-80273104D01*
X64405657Y-80273104D02*
X64596133Y-80320723D01*
X64596133Y-80320723D02*
X64834228Y-80320723D01*
X64834228Y-80320723D02*
X65024704Y-80273104D01*
X65024704Y-80273104D02*
X65119942Y-80225485D01*
X65119942Y-80225485D02*
X65167561Y-80177866D01*
X65167561Y-80177866D02*
X65215180Y-80082628D01*
X65215180Y-78892152D02*
X65215180Y-79082628D01*
X65215180Y-79082628D02*
X65167561Y-79177866D01*
X65167561Y-79177866D02*
X65119942Y-79225485D01*
X65119942Y-79225485D02*
X64977085Y-79320723D01*
X64977085Y-79320723D02*
X64786609Y-79368342D01*
X64786609Y-79368342D02*
X64405657Y-79368342D01*
X64405657Y-79368342D02*
X64310419Y-79320723D01*
X64310419Y-79320723D02*
X64262800Y-79273104D01*
X64262800Y-79273104D02*
X64215180Y-79177866D01*
X64215180Y-79177866D02*
X64215180Y-78987390D01*
X64215180Y-78987390D02*
X64262800Y-78892152D01*
X64262800Y-78892152D02*
X64310419Y-78844533D01*
X64310419Y-78844533D02*
X64405657Y-78796914D01*
X64405657Y-78796914D02*
X64643752Y-78796914D01*
X64643752Y-78796914D02*
X64738990Y-78844533D01*
X64738990Y-78844533D02*
X64786609Y-78892152D01*
X64786609Y-78892152D02*
X64834228Y-78987390D01*
X64834228Y-78987390D02*
X64834228Y-79177866D01*
X64834228Y-79177866D02*
X64786609Y-79273104D01*
X64786609Y-79273104D02*
X64738990Y-79320723D01*
X64738990Y-79320723D02*
X64643752Y-79368342D01*
M02*
