M48
; DRILL file {KiCad 9.0.6} date 2026-01-30T18:58:32+1300
; FORMAT={-:-/ absolute / metric / decimal}
; #@! TF.CreationDate,2026-01-30T18:58:32+13:00
; #@! TF.GenerationSoftware,Kicad,Pcbnew,9.0.6
; #@! TF.FileFunction,Plated,1,2,PTH
FMAT,2
METRIC
; #@! TA.AperFunction,Plated,PTH,ViaDrill
T1C0.300
; #@! TA.AperFunction,Plated,PTH,ComponentDrill
T2C0.750
; #@! TA.AperFunction,Plated,PTH,ComponentDrill
T3C1.000
%
G90
G05
T1
X52.42Y-63.93
X52.42Y-88.18
X55.39Y-81.89
X55.54Y-84.38
X56.85Y-74.28
X59.59Y-67.85
X61.94Y-78.08
X61.95Y-84.35
X63.745Y-70.925
X64.68Y-85.87
X64.795Y-83.805
X65.16Y-81.35
X65.92Y-88.18
X66.72Y-70.93
X69.84Y-68.14
X72.92Y-63.68
X72.92Y-65.18
X72.94Y-69.96
X87.17Y-64.01
X92.56Y-69.92
X92.59Y-65.1
X92.62Y-63.68
X97.94Y-69.95
X99.79Y-102.05
X103.34Y-68.61
X105.29Y-69.41
X105.48Y-67.6
X106.15Y-102.05
T2
X67.67Y-74.415
X67.67Y-75.685
X67.67Y-76.955
X67.67Y-79.495
X67.67Y-80.765
X67.67Y-82.035
T3
X102.43Y-72.33
X102.43Y-74.87
X102.43Y-77.41
X102.43Y-79.95
X102.43Y-82.49
X102.43Y-85.03
X102.43Y-87.57
X102.43Y-90.11
X102.43Y-92.65
X102.43Y-95.19
X102.43Y-97.73
X102.43Y-100.27
X104.97Y-72.33
X104.97Y-74.87
X104.97Y-77.41
X104.97Y-79.95
X104.97Y-82.49
X104.97Y-85.03
X104.97Y-87.57
X104.97Y-90.11
X104.97Y-92.65
X104.97Y-95.19
X104.97Y-97.73
X104.97Y-100.27
M30
