G04 #@! TF.GenerationSoftware,KiCad,Pcbnew,9.0.6*
G04 #@! TF.CreationDate,2026-01-30T18:58:32+13:00*
G04 #@! TF.ProjectId,Gateway_PCB_Argon_One_V5,47617465-7761-4795-9f50-43425f417267,rev?*
G04 #@! TF.SameCoordinates,Original*
G04 #@! TF.FileFunction,Legend,Bot*
G04 #@! TF.FilePolarity,Positive*
%FSLAX46Y46*%
G04 Gerber Fmt 4.6, Leading zero omitted, Abs format (unit mm)*
G04 Created by KiCad (PCBNEW 9.0.6) date 2026-01-30 18:58:32*
%MOMM*%
%LPD*%
G01*
G04 APERTURE LIST*
G04 Aperture macros list*
%AMFreePoly0*
4,1,13,0.056640,-0.015230,0.084770,-0.043360,0.099990,-0.080110,0.099980,-0.100000,0.099990,-0.100010,0.099990,-0.750000,-0.950010,-0.750000,-0.950010,-0.080110,-0.934790,-0.043350,-0.906660,-0.015220,-0.869910,0.000000,0.019890,0.000000,0.056640,-0.015230,0.056640,-0.015230,$1*%
G04 Aperture macros list end*
%ADD10C,0.100000*%
%ADD11C,0.150000*%
%ADD12C,0.120000*%
%ADD13C,0.300000*%
%ADD14R,1.700000X1.700000*%
%ADD15C,1.700000*%
%ADD16C,1.000000*%
%ADD17C,1.100000*%
%ADD18C,1.045000*%
%ADD19FreePoly0,90.000000*%
G04 APERTURE END LIST*
D10*
X91782782Y-63688609D02*
X91639925Y-63736228D01*
X91639925Y-63736228D02*
X91592306Y-63783847D01*
X91592306Y-63783847D02*
X91544687Y-63879085D01*
X91544687Y-63879085D02*
X91544687Y-64021942D01*
X91544687Y-64021942D02*
X91592306Y-64117180D01*
X91592306Y-64117180D02*
X91639925Y-64164800D01*
X91639925Y-64164800D02*
X91735163Y-64212419D01*
X91735163Y-64212419D02*
X92116115Y-64212419D01*
X92116115Y-64212419D02*
X92116115Y-63212419D01*
X92116115Y-63212419D02*
X91782782Y-63212419D01*
X91782782Y-63212419D02*
X91687544Y-63260038D01*
X91687544Y-63260038D02*
X91639925Y-63307657D01*
X91639925Y-63307657D02*
X91592306Y-63402895D01*
X91592306Y-63402895D02*
X91592306Y-63498133D01*
X91592306Y-63498133D02*
X91639925Y-63593371D01*
X91639925Y-63593371D02*
X91687544Y-63640990D01*
X91687544Y-63640990D02*
X91782782Y-63688609D01*
X91782782Y-63688609D02*
X92116115Y-63688609D01*
X91211353Y-63545752D02*
X90973258Y-64212419D01*
X90735163Y-63545752D02*
X90973258Y-64212419D01*
X90973258Y-64212419D02*
X91068496Y-64450514D01*
X91068496Y-64450514D02*
X91116115Y-64498133D01*
X91116115Y-64498133D02*
X91211353Y-64545752D01*
X89639924Y-63926704D02*
X89163734Y-63926704D01*
X89735162Y-64212419D02*
X89401829Y-63212419D01*
X89401829Y-63212419D02*
X89068496Y-64212419D01*
X88735162Y-64212419D02*
X88735162Y-63545752D01*
X88735162Y-63212419D02*
X88782781Y-63260038D01*
X88782781Y-63260038D02*
X88735162Y-63307657D01*
X88735162Y-63307657D02*
X88687543Y-63260038D01*
X88687543Y-63260038D02*
X88735162Y-63212419D01*
X88735162Y-63212419D02*
X88735162Y-63307657D01*
X87830401Y-64212419D02*
X87830401Y-63212419D01*
X87830401Y-64164800D02*
X87925639Y-64212419D01*
X87925639Y-64212419D02*
X88116115Y-64212419D01*
X88116115Y-64212419D02*
X88211353Y-64164800D01*
X88211353Y-64164800D02*
X88258972Y-64117180D01*
X88258972Y-64117180D02*
X88306591Y-64021942D01*
X88306591Y-64021942D02*
X88306591Y-63736228D01*
X88306591Y-63736228D02*
X88258972Y-63640990D01*
X88258972Y-63640990D02*
X88211353Y-63593371D01*
X88211353Y-63593371D02*
X88116115Y-63545752D01*
X88116115Y-63545752D02*
X87925639Y-63545752D01*
X87925639Y-63545752D02*
X87830401Y-63593371D01*
X86925639Y-64212419D02*
X86925639Y-63688609D01*
X86925639Y-63688609D02*
X86973258Y-63593371D01*
X86973258Y-63593371D02*
X87068496Y-63545752D01*
X87068496Y-63545752D02*
X87258972Y-63545752D01*
X87258972Y-63545752D02*
X87354210Y-63593371D01*
X86925639Y-64164800D02*
X87020877Y-64212419D01*
X87020877Y-64212419D02*
X87258972Y-64212419D01*
X87258972Y-64212419D02*
X87354210Y-64164800D01*
X87354210Y-64164800D02*
X87401829Y-64069561D01*
X87401829Y-64069561D02*
X87401829Y-63974323D01*
X87401829Y-63974323D02*
X87354210Y-63879085D01*
X87354210Y-63879085D02*
X87258972Y-63831466D01*
X87258972Y-63831466D02*
X87020877Y-63831466D01*
X87020877Y-63831466D02*
X86925639Y-63783847D01*
X86497067Y-64164800D02*
X86401829Y-64212419D01*
X86401829Y-64212419D02*
X86211353Y-64212419D01*
X86211353Y-64212419D02*
X86116115Y-64164800D01*
X86116115Y-64164800D02*
X86068496Y-64069561D01*
X86068496Y-64069561D02*
X86068496Y-64021942D01*
X86068496Y-64021942D02*
X86116115Y-63926704D01*
X86116115Y-63926704D02*
X86211353Y-63879085D01*
X86211353Y-63879085D02*
X86354210Y-63879085D01*
X86354210Y-63879085D02*
X86449448Y-63831466D01*
X86449448Y-63831466D02*
X86497067Y-63736228D01*
X86497067Y-63736228D02*
X86497067Y-63688609D01*
X86497067Y-63688609D02*
X86449448Y-63593371D01*
X86449448Y-63593371D02*
X86354210Y-63545752D01*
X86354210Y-63545752D02*
X86211353Y-63545752D01*
X86211353Y-63545752D02*
X86116115Y-63593371D01*
X84925638Y-63307657D02*
X84878019Y-63260038D01*
X84878019Y-63260038D02*
X84782781Y-63212419D01*
X84782781Y-63212419D02*
X84544686Y-63212419D01*
X84544686Y-63212419D02*
X84449448Y-63260038D01*
X84449448Y-63260038D02*
X84401829Y-63307657D01*
X84401829Y-63307657D02*
X84354210Y-63402895D01*
X84354210Y-63402895D02*
X84354210Y-63498133D01*
X84354210Y-63498133D02*
X84401829Y-63640990D01*
X84401829Y-63640990D02*
X84973257Y-64212419D01*
X84973257Y-64212419D02*
X84354210Y-64212419D01*
X83735162Y-63212419D02*
X83639924Y-63212419D01*
X83639924Y-63212419D02*
X83544686Y-63260038D01*
X83544686Y-63260038D02*
X83497067Y-63307657D01*
X83497067Y-63307657D02*
X83449448Y-63402895D01*
X83449448Y-63402895D02*
X83401829Y-63593371D01*
X83401829Y-63593371D02*
X83401829Y-63831466D01*
X83401829Y-63831466D02*
X83449448Y-64021942D01*
X83449448Y-64021942D02*
X83497067Y-64117180D01*
X83497067Y-64117180D02*
X83544686Y-64164800D01*
X83544686Y-64164800D02*
X83639924Y-64212419D01*
X83639924Y-64212419D02*
X83735162Y-64212419D01*
X83735162Y-64212419D02*
X83830400Y-64164800D01*
X83830400Y-64164800D02*
X83878019Y-64117180D01*
X83878019Y-64117180D02*
X83925638Y-64021942D01*
X83925638Y-64021942D02*
X83973257Y-63831466D01*
X83973257Y-63831466D02*
X83973257Y-63593371D01*
X83973257Y-63593371D02*
X83925638Y-63402895D01*
X83925638Y-63402895D02*
X83878019Y-63307657D01*
X83878019Y-63307657D02*
X83830400Y-63260038D01*
X83830400Y-63260038D02*
X83735162Y-63212419D01*
X83020876Y-63307657D02*
X82973257Y-63260038D01*
X82973257Y-63260038D02*
X82878019Y-63212419D01*
X82878019Y-63212419D02*
X82639924Y-63212419D01*
X82639924Y-63212419D02*
X82544686Y-63260038D01*
X82544686Y-63260038D02*
X82497067Y-63307657D01*
X82497067Y-63307657D02*
X82449448Y-63402895D01*
X82449448Y-63402895D02*
X82449448Y-63498133D01*
X82449448Y-63498133D02*
X82497067Y-63640990D01*
X82497067Y-63640990D02*
X83068495Y-64212419D01*
X83068495Y-64212419D02*
X82449448Y-64212419D01*
X81592305Y-63212419D02*
X81782781Y-63212419D01*
X81782781Y-63212419D02*
X81878019Y-63260038D01*
X81878019Y-63260038D02*
X81925638Y-63307657D01*
X81925638Y-63307657D02*
X82020876Y-63450514D01*
X82020876Y-63450514D02*
X82068495Y-63640990D01*
X82068495Y-63640990D02*
X82068495Y-64021942D01*
X82068495Y-64021942D02*
X82020876Y-64117180D01*
X82020876Y-64117180D02*
X81973257Y-64164800D01*
X81973257Y-64164800D02*
X81878019Y-64212419D01*
X81878019Y-64212419D02*
X81687543Y-64212419D01*
X81687543Y-64212419D02*
X81592305Y-64164800D01*
X81592305Y-64164800D02*
X81544686Y-64117180D01*
X81544686Y-64117180D02*
X81497067Y-64021942D01*
X81497067Y-64021942D02*
X81497067Y-63783847D01*
X81497067Y-63783847D02*
X81544686Y-63688609D01*
X81544686Y-63688609D02*
X81592305Y-63640990D01*
X81592305Y-63640990D02*
X81687543Y-63593371D01*
X81687543Y-63593371D02*
X81878019Y-63593371D01*
X81878019Y-63593371D02*
X81973257Y-63640990D01*
X81973257Y-63640990D02*
X82020876Y-63688609D01*
X82020876Y-63688609D02*
X82068495Y-63783847D01*
X81306591Y-64307657D02*
X80544686Y-64307657D01*
X80116114Y-63212419D02*
X80020876Y-63212419D01*
X80020876Y-63212419D02*
X79925638Y-63260038D01*
X79925638Y-63260038D02*
X79878019Y-63307657D01*
X79878019Y-63307657D02*
X79830400Y-63402895D01*
X79830400Y-63402895D02*
X79782781Y-63593371D01*
X79782781Y-63593371D02*
X79782781Y-63831466D01*
X79782781Y-63831466D02*
X79830400Y-64021942D01*
X79830400Y-64021942D02*
X79878019Y-64117180D01*
X79878019Y-64117180D02*
X79925638Y-64164800D01*
X79925638Y-64164800D02*
X80020876Y-64212419D01*
X80020876Y-64212419D02*
X80116114Y-64212419D01*
X80116114Y-64212419D02*
X80211352Y-64164800D01*
X80211352Y-64164800D02*
X80258971Y-64117180D01*
X80258971Y-64117180D02*
X80306590Y-64021942D01*
X80306590Y-64021942D02*
X80354209Y-63831466D01*
X80354209Y-63831466D02*
X80354209Y-63593371D01*
X80354209Y-63593371D02*
X80306590Y-63402895D01*
X80306590Y-63402895D02*
X80258971Y-63307657D01*
X80258971Y-63307657D02*
X80211352Y-63260038D01*
X80211352Y-63260038D02*
X80116114Y-63212419D01*
X78830400Y-64212419D02*
X79401828Y-64212419D01*
X79116114Y-64212419D02*
X79116114Y-63212419D01*
X79116114Y-63212419D02*
X79211352Y-63355276D01*
X79211352Y-63355276D02*
X79306590Y-63450514D01*
X79306590Y-63450514D02*
X79401828Y-63498133D01*
X78639924Y-64307657D02*
X77878019Y-64307657D01*
X77687542Y-63307657D02*
X77639923Y-63260038D01*
X77639923Y-63260038D02*
X77544685Y-63212419D01*
X77544685Y-63212419D02*
X77306590Y-63212419D01*
X77306590Y-63212419D02*
X77211352Y-63260038D01*
X77211352Y-63260038D02*
X77163733Y-63307657D01*
X77163733Y-63307657D02*
X77116114Y-63402895D01*
X77116114Y-63402895D02*
X77116114Y-63498133D01*
X77116114Y-63498133D02*
X77163733Y-63640990D01*
X77163733Y-63640990D02*
X77735161Y-64212419D01*
X77735161Y-64212419D02*
X77116114Y-64212419D01*
X76639923Y-64212419D02*
X76449447Y-64212419D01*
X76449447Y-64212419D02*
X76354209Y-64164800D01*
X76354209Y-64164800D02*
X76306590Y-64117180D01*
X76306590Y-64117180D02*
X76211352Y-63974323D01*
X76211352Y-63974323D02*
X76163733Y-63783847D01*
X76163733Y-63783847D02*
X76163733Y-63402895D01*
X76163733Y-63402895D02*
X76211352Y-63307657D01*
X76211352Y-63307657D02*
X76258971Y-63260038D01*
X76258971Y-63260038D02*
X76354209Y-63212419D01*
X76354209Y-63212419D02*
X76544685Y-63212419D01*
X76544685Y-63212419D02*
X76639923Y-63260038D01*
X76639923Y-63260038D02*
X76687542Y-63307657D01*
X76687542Y-63307657D02*
X76735161Y-63402895D01*
X76735161Y-63402895D02*
X76735161Y-63640990D01*
X76735161Y-63640990D02*
X76687542Y-63736228D01*
X76687542Y-63736228D02*
X76639923Y-63783847D01*
X76639923Y-63783847D02*
X76544685Y-63831466D01*
X76544685Y-63831466D02*
X76354209Y-63831466D01*
X76354209Y-63831466D02*
X76258971Y-63783847D01*
X76258971Y-63783847D02*
X76211352Y-63736228D01*
X76211352Y-63736228D02*
X76163733Y-63640990D01*
X75973257Y-64307657D02*
X75211352Y-64307657D01*
X74973256Y-64212419D02*
X74973256Y-63212419D01*
X74973256Y-63212419D02*
X74401828Y-64212419D01*
X74401828Y-64212419D02*
X74401828Y-63212419D01*
X74020875Y-63212419D02*
X73354209Y-63212419D01*
X73354209Y-63212419D02*
X74020875Y-64212419D01*
X74020875Y-64212419D02*
X73354209Y-64212419D01*
D11*
X66795180Y-83513333D02*
X66080895Y-83513333D01*
X66080895Y-83513333D02*
X65938038Y-83560952D01*
X65938038Y-83560952D02*
X65842800Y-83656190D01*
X65842800Y-83656190D02*
X65795180Y-83799047D01*
X65795180Y-83799047D02*
X65795180Y-83894285D01*
X65795180Y-82513333D02*
X65795180Y-83084761D01*
X65795180Y-82799047D02*
X66795180Y-82799047D01*
X66795180Y-82799047D02*
X66652323Y-82894285D01*
X66652323Y-82894285D02*
X66557085Y-82989523D01*
X66557085Y-82989523D02*
X66509466Y-83084761D01*
D12*
G04 #@! TO.C,J2*
X101050000Y-73600000D02*
X101050000Y-86280000D01*
X101050000Y-73600000D02*
X103700000Y-73600000D01*
X101050000Y-86217500D02*
X106350000Y-86217500D01*
X101050000Y-88805000D02*
X101050000Y-101485000D01*
X101050000Y-88805000D02*
X103700000Y-88805000D01*
X101050000Y-101480000D02*
X106350000Y-101480000D01*
X103700000Y-70950000D02*
X106350000Y-70950000D01*
X103700000Y-73600000D02*
X103700000Y-70950000D01*
X103700000Y-88805000D02*
X103700000Y-86217500D01*
X106350000Y-70950000D02*
X106350000Y-86280000D01*
X106350000Y-86155000D02*
X106350000Y-101485000D01*
D13*
G04 #@! TO.C,J1*
X66295000Y-82035010D02*
G75*
G02*
X66045000Y-82035010I-125000J0D01*
G01*
X66045000Y-82035010D02*
G75*
G02*
X66295000Y-82035010I125000J0D01*
G01*
G04 #@! TD*
%LPC*%
G04 #@! TO.C,J1*
G36*
X66920000Y-74010010D02*
G01*
X67670000Y-74010010D01*
X67670000Y-73560010D01*
X66920000Y-73560010D01*
X66920000Y-74010010D01*
G37*
G36*
X66920000Y-75280010D02*
G01*
X67670000Y-75280010D01*
X67670000Y-74830010D01*
X66920000Y-74830010D01*
X66920000Y-75280010D01*
G37*
G36*
X66920000Y-76550010D02*
G01*
X67670000Y-76550010D01*
X67670000Y-76100010D01*
X66920000Y-76100010D01*
X66920000Y-76550010D01*
G37*
G36*
X66920000Y-77820010D02*
G01*
X67670000Y-77820010D01*
X67670000Y-77370010D01*
X66920000Y-77370010D01*
X66920000Y-77820010D01*
G37*
G36*
X66920000Y-79090010D02*
G01*
X67670000Y-79090010D01*
X67670000Y-78640010D01*
X66920000Y-78640010D01*
X66920000Y-79090010D01*
G37*
G36*
X66920000Y-80360010D02*
G01*
X67670000Y-80360010D01*
X67670000Y-79910010D01*
X66920000Y-79910010D01*
X66920000Y-80360010D01*
G37*
G36*
X66920000Y-81630010D02*
G01*
X67670000Y-81630010D01*
X67670000Y-81180010D01*
X66920000Y-81180010D01*
X66920000Y-81630010D01*
G37*
G36*
X66920000Y-82975010D02*
G01*
X67670000Y-82975010D01*
X67670000Y-82625010D01*
X66920000Y-82625010D01*
X66920000Y-82975010D01*
G37*
G36*
X67670000Y-82440010D02*
G01*
X66920000Y-82440010D01*
X66920000Y-82655010D01*
X67670000Y-82655010D01*
X67670000Y-82440010D01*
G37*
G04 #@! TD*
D14*
G04 #@! TO.C,J2*
X102430000Y-72330000D03*
D15*
X104970000Y-72330000D03*
X102430000Y-74870000D03*
X104970000Y-74870000D03*
X102430000Y-77410000D03*
X104970000Y-77410000D03*
X102430000Y-79950000D03*
X104970000Y-79950000D03*
X102430000Y-82490000D03*
X104970000Y-82490000D03*
X102430000Y-85030000D03*
X104970000Y-85030000D03*
D14*
X102430000Y-87570000D03*
D15*
X104970000Y-87570000D03*
X102430000Y-90110000D03*
X104970000Y-90110000D03*
X102430000Y-92650000D03*
X104970000Y-92650000D03*
X102430000Y-95190000D03*
X104970000Y-95190000D03*
X102430000Y-97730000D03*
X104970000Y-97730000D03*
X102430000Y-100270000D03*
X104970000Y-100270000D03*
G04 #@! TD*
D16*
G04 #@! TO.C,J1*
X67670000Y-83305010D03*
D17*
X66170000Y-78225010D03*
D18*
X67670000Y-82035010D03*
D19*
X66920000Y-81610000D03*
D18*
X67670000Y-80765010D03*
D19*
X66920000Y-80340000D03*
D18*
X67670000Y-79495010D03*
D19*
X66920000Y-79070000D03*
D18*
X67670000Y-76955010D03*
D19*
X66920000Y-76530000D03*
D18*
X67670000Y-75685010D03*
D19*
X66920000Y-75260000D03*
D18*
X67670000Y-74415010D03*
D19*
X66920000Y-73990000D03*
G04 #@! TD*
%LPD*%
M02*
