G04 #@! TF.GenerationSoftware,KiCad,Pcbnew,9.0.5*
G04 #@! TF.CreationDate,2025-10-23T20:31:54+13:00*
G04 #@! TF.ProjectId,Gateway_PCB,47617465-7761-4795-9f50-43422e6b6963,rev?*
G04 #@! TF.SameCoordinates,Original*
G04 #@! TF.FileFunction,AssemblyDrawing,Top*
%FSLAX46Y46*%
G04 Gerber Fmt 4.6, Leading zero omitted, Abs format (unit mm)*
G04 Created by KiCad (PCBNEW 9.0.5) date 2025-10-23 20:31:54*
%MOMM*%
%LPD*%
G01*
G04 APERTURE LIST*
%ADD10C,0.100000*%
%ADD11C,0.060000*%
%ADD12C,0.150000*%
G04 APERTURE END LIST*
D10*
X57321428Y-56614895D02*
X57321428Y-55814895D01*
X57321428Y-55814895D02*
X57778571Y-56614895D01*
X57778571Y-56614895D02*
X57778571Y-55814895D01*
X58616666Y-56538704D02*
X58578570Y-56576800D01*
X58578570Y-56576800D02*
X58464285Y-56614895D01*
X58464285Y-56614895D02*
X58388094Y-56614895D01*
X58388094Y-56614895D02*
X58273808Y-56576800D01*
X58273808Y-56576800D02*
X58197618Y-56500609D01*
X58197618Y-56500609D02*
X58159523Y-56424419D01*
X58159523Y-56424419D02*
X58121427Y-56272038D01*
X58121427Y-56272038D02*
X58121427Y-56157752D01*
X58121427Y-56157752D02*
X58159523Y-56005371D01*
X58159523Y-56005371D02*
X58197618Y-55929180D01*
X58197618Y-55929180D02*
X58273808Y-55852990D01*
X58273808Y-55852990D02*
X58388094Y-55814895D01*
X58388094Y-55814895D02*
X58464285Y-55814895D01*
X58464285Y-55814895D02*
X58578570Y-55852990D01*
X58578570Y-55852990D02*
X58616666Y-55891085D01*
X59378570Y-56614895D02*
X58921427Y-56614895D01*
X59149999Y-56614895D02*
X59149999Y-55814895D01*
X59149999Y-55814895D02*
X59073808Y-55929180D01*
X59073808Y-55929180D02*
X58997618Y-56005371D01*
X58997618Y-56005371D02*
X58921427Y-56043466D01*
X59873809Y-55814895D02*
X59949999Y-55814895D01*
X59949999Y-55814895D02*
X60026190Y-55852990D01*
X60026190Y-55852990D02*
X60064285Y-55891085D01*
X60064285Y-55891085D02*
X60102380Y-55967276D01*
X60102380Y-55967276D02*
X60140475Y-56119657D01*
X60140475Y-56119657D02*
X60140475Y-56310133D01*
X60140475Y-56310133D02*
X60102380Y-56462514D01*
X60102380Y-56462514D02*
X60064285Y-56538704D01*
X60064285Y-56538704D02*
X60026190Y-56576800D01*
X60026190Y-56576800D02*
X59949999Y-56614895D01*
X59949999Y-56614895D02*
X59873809Y-56614895D01*
X59873809Y-56614895D02*
X59797618Y-56576800D01*
X59797618Y-56576800D02*
X59759523Y-56538704D01*
X59759523Y-56538704D02*
X59721428Y-56462514D01*
X59721428Y-56462514D02*
X59683332Y-56310133D01*
X59683332Y-56310133D02*
X59683332Y-56119657D01*
X59683332Y-56119657D02*
X59721428Y-55967276D01*
X59721428Y-55967276D02*
X59759523Y-55891085D01*
X59759523Y-55891085D02*
X59797618Y-55852990D01*
X59797618Y-55852990D02*
X59873809Y-55814895D01*
X60635714Y-55814895D02*
X60711904Y-55814895D01*
X60711904Y-55814895D02*
X60788095Y-55852990D01*
X60788095Y-55852990D02*
X60826190Y-55891085D01*
X60826190Y-55891085D02*
X60864285Y-55967276D01*
X60864285Y-55967276D02*
X60902380Y-56119657D01*
X60902380Y-56119657D02*
X60902380Y-56310133D01*
X60902380Y-56310133D02*
X60864285Y-56462514D01*
X60864285Y-56462514D02*
X60826190Y-56538704D01*
X60826190Y-56538704D02*
X60788095Y-56576800D01*
X60788095Y-56576800D02*
X60711904Y-56614895D01*
X60711904Y-56614895D02*
X60635714Y-56614895D01*
X60635714Y-56614895D02*
X60559523Y-56576800D01*
X60559523Y-56576800D02*
X60521428Y-56538704D01*
X60521428Y-56538704D02*
X60483333Y-56462514D01*
X60483333Y-56462514D02*
X60445237Y-56310133D01*
X60445237Y-56310133D02*
X60445237Y-56119657D01*
X60445237Y-56119657D02*
X60483333Y-55967276D01*
X60483333Y-55967276D02*
X60521428Y-55891085D01*
X60521428Y-55891085D02*
X60559523Y-55852990D01*
X60559523Y-55852990D02*
X60635714Y-55814895D01*
X61397619Y-55814895D02*
X61473809Y-55814895D01*
X61473809Y-55814895D02*
X61550000Y-55852990D01*
X61550000Y-55852990D02*
X61588095Y-55891085D01*
X61588095Y-55891085D02*
X61626190Y-55967276D01*
X61626190Y-55967276D02*
X61664285Y-56119657D01*
X61664285Y-56119657D02*
X61664285Y-56310133D01*
X61664285Y-56310133D02*
X61626190Y-56462514D01*
X61626190Y-56462514D02*
X61588095Y-56538704D01*
X61588095Y-56538704D02*
X61550000Y-56576800D01*
X61550000Y-56576800D02*
X61473809Y-56614895D01*
X61473809Y-56614895D02*
X61397619Y-56614895D01*
X61397619Y-56614895D02*
X61321428Y-56576800D01*
X61321428Y-56576800D02*
X61283333Y-56538704D01*
X61283333Y-56538704D02*
X61245238Y-56462514D01*
X61245238Y-56462514D02*
X61207142Y-56310133D01*
X61207142Y-56310133D02*
X61207142Y-56119657D01*
X61207142Y-56119657D02*
X61245238Y-55967276D01*
X61245238Y-55967276D02*
X61283333Y-55891085D01*
X61283333Y-55891085D02*
X61321428Y-55852990D01*
X61321428Y-55852990D02*
X61397619Y-55814895D01*
X62464286Y-56538704D02*
X62426190Y-56576800D01*
X62426190Y-56576800D02*
X62311905Y-56614895D01*
X62311905Y-56614895D02*
X62235714Y-56614895D01*
X62235714Y-56614895D02*
X62121428Y-56576800D01*
X62121428Y-56576800D02*
X62045238Y-56500609D01*
X62045238Y-56500609D02*
X62007143Y-56424419D01*
X62007143Y-56424419D02*
X61969047Y-56272038D01*
X61969047Y-56272038D02*
X61969047Y-56157752D01*
X61969047Y-56157752D02*
X62007143Y-56005371D01*
X62007143Y-56005371D02*
X62045238Y-55929180D01*
X62045238Y-55929180D02*
X62121428Y-55852990D01*
X62121428Y-55852990D02*
X62235714Y-55814895D01*
X62235714Y-55814895D02*
X62311905Y-55814895D01*
X62311905Y-55814895D02*
X62426190Y-55852990D01*
X62426190Y-55852990D02*
X62464286Y-55891085D01*
X62807143Y-56310133D02*
X63416667Y-56310133D01*
X63911904Y-56157752D02*
X63835714Y-56119657D01*
X63835714Y-56119657D02*
X63797619Y-56081561D01*
X63797619Y-56081561D02*
X63759523Y-56005371D01*
X63759523Y-56005371D02*
X63759523Y-55967276D01*
X63759523Y-55967276D02*
X63797619Y-55891085D01*
X63797619Y-55891085D02*
X63835714Y-55852990D01*
X63835714Y-55852990D02*
X63911904Y-55814895D01*
X63911904Y-55814895D02*
X64064285Y-55814895D01*
X64064285Y-55814895D02*
X64140476Y-55852990D01*
X64140476Y-55852990D02*
X64178571Y-55891085D01*
X64178571Y-55891085D02*
X64216666Y-55967276D01*
X64216666Y-55967276D02*
X64216666Y-56005371D01*
X64216666Y-56005371D02*
X64178571Y-56081561D01*
X64178571Y-56081561D02*
X64140476Y-56119657D01*
X64140476Y-56119657D02*
X64064285Y-56157752D01*
X64064285Y-56157752D02*
X63911904Y-56157752D01*
X63911904Y-56157752D02*
X63835714Y-56195847D01*
X63835714Y-56195847D02*
X63797619Y-56233942D01*
X63797619Y-56233942D02*
X63759523Y-56310133D01*
X63759523Y-56310133D02*
X63759523Y-56462514D01*
X63759523Y-56462514D02*
X63797619Y-56538704D01*
X63797619Y-56538704D02*
X63835714Y-56576800D01*
X63835714Y-56576800D02*
X63911904Y-56614895D01*
X63911904Y-56614895D02*
X64064285Y-56614895D01*
X64064285Y-56614895D02*
X64140476Y-56576800D01*
X64140476Y-56576800D02*
X64178571Y-56538704D01*
X64178571Y-56538704D02*
X64216666Y-56462514D01*
X64216666Y-56462514D02*
X64216666Y-56310133D01*
X64216666Y-56310133D02*
X64178571Y-56233942D01*
X64178571Y-56233942D02*
X64140476Y-56195847D01*
X64140476Y-56195847D02*
X64064285Y-56157752D01*
X52064895Y-67919048D02*
X52064895Y-67423810D01*
X52064895Y-67423810D02*
X52369657Y-67690476D01*
X52369657Y-67690476D02*
X52369657Y-67576191D01*
X52369657Y-67576191D02*
X52407752Y-67500000D01*
X52407752Y-67500000D02*
X52445847Y-67461905D01*
X52445847Y-67461905D02*
X52522038Y-67423810D01*
X52522038Y-67423810D02*
X52712514Y-67423810D01*
X52712514Y-67423810D02*
X52788704Y-67461905D01*
X52788704Y-67461905D02*
X52826800Y-67500000D01*
X52826800Y-67500000D02*
X52864895Y-67576191D01*
X52864895Y-67576191D02*
X52864895Y-67804762D01*
X52864895Y-67804762D02*
X52826800Y-67880953D01*
X52826800Y-67880953D02*
X52788704Y-67919048D01*
X52331561Y-66738095D02*
X52864895Y-66738095D01*
X52331561Y-67080952D02*
X52750609Y-67080952D01*
X52750609Y-67080952D02*
X52826800Y-67042857D01*
X52826800Y-67042857D02*
X52864895Y-66966667D01*
X52864895Y-66966667D02*
X52864895Y-66852381D01*
X52864895Y-66852381D02*
X52826800Y-66776190D01*
X52826800Y-66776190D02*
X52788704Y-66738095D01*
X52064895Y-66433333D02*
X52064895Y-65938095D01*
X52064895Y-65938095D02*
X52369657Y-66204761D01*
X52369657Y-66204761D02*
X52369657Y-66090476D01*
X52369657Y-66090476D02*
X52407752Y-66014285D01*
X52407752Y-66014285D02*
X52445847Y-65976190D01*
X52445847Y-65976190D02*
X52522038Y-65938095D01*
X52522038Y-65938095D02*
X52712514Y-65938095D01*
X52712514Y-65938095D02*
X52788704Y-65976190D01*
X52788704Y-65976190D02*
X52826800Y-66014285D01*
X52826800Y-66014285D02*
X52864895Y-66090476D01*
X52864895Y-66090476D02*
X52864895Y-66319047D01*
X52864895Y-66319047D02*
X52826800Y-66395238D01*
X52826800Y-66395238D02*
X52788704Y-66433333D01*
X52864895Y-64566666D02*
X52864895Y-65023809D01*
X52864895Y-64795237D02*
X52064895Y-64795237D01*
X52064895Y-64795237D02*
X52179180Y-64871428D01*
X52179180Y-64871428D02*
X52255371Y-64947618D01*
X52255371Y-64947618D02*
X52293466Y-65023809D01*
X52064895Y-63880951D02*
X52064895Y-64033332D01*
X52064895Y-64033332D02*
X52102990Y-64109523D01*
X52102990Y-64109523D02*
X52141085Y-64147618D01*
X52141085Y-64147618D02*
X52255371Y-64223808D01*
X52255371Y-64223808D02*
X52407752Y-64261904D01*
X52407752Y-64261904D02*
X52712514Y-64261904D01*
X52712514Y-64261904D02*
X52788704Y-64223808D01*
X52788704Y-64223808D02*
X52826800Y-64185713D01*
X52826800Y-64185713D02*
X52864895Y-64109523D01*
X52864895Y-64109523D02*
X52864895Y-63957142D01*
X52864895Y-63957142D02*
X52826800Y-63880951D01*
X52826800Y-63880951D02*
X52788704Y-63842856D01*
X52788704Y-63842856D02*
X52712514Y-63804761D01*
X52712514Y-63804761D02*
X52522038Y-63804761D01*
X52522038Y-63804761D02*
X52445847Y-63842856D01*
X52445847Y-63842856D02*
X52407752Y-63880951D01*
X52407752Y-63880951D02*
X52369657Y-63957142D01*
X52369657Y-63957142D02*
X52369657Y-64109523D01*
X52369657Y-64109523D02*
X52407752Y-64185713D01*
X52407752Y-64185713D02*
X52445847Y-64223808D01*
X52445847Y-64223808D02*
X52522038Y-64261904D01*
X52064895Y-63576189D02*
X52864895Y-63309522D01*
X52864895Y-63309522D02*
X52064895Y-63042856D01*
D11*
X52643832Y-69816666D02*
X52662880Y-69835714D01*
X52662880Y-69835714D02*
X52681927Y-69892856D01*
X52681927Y-69892856D02*
X52681927Y-69930952D01*
X52681927Y-69930952D02*
X52662880Y-69988095D01*
X52662880Y-69988095D02*
X52624784Y-70026190D01*
X52624784Y-70026190D02*
X52586689Y-70045237D01*
X52586689Y-70045237D02*
X52510499Y-70064285D01*
X52510499Y-70064285D02*
X52453356Y-70064285D01*
X52453356Y-70064285D02*
X52377165Y-70045237D01*
X52377165Y-70045237D02*
X52339070Y-70026190D01*
X52339070Y-70026190D02*
X52300975Y-69988095D01*
X52300975Y-69988095D02*
X52281927Y-69930952D01*
X52281927Y-69930952D02*
X52281927Y-69892856D01*
X52281927Y-69892856D02*
X52300975Y-69835714D01*
X52300975Y-69835714D02*
X52320022Y-69816666D01*
X52681927Y-69435714D02*
X52681927Y-69664285D01*
X52681927Y-69549999D02*
X52281927Y-69549999D01*
X52281927Y-69549999D02*
X52339070Y-69588095D01*
X52339070Y-69588095D02*
X52377165Y-69626190D01*
X52377165Y-69626190D02*
X52396213Y-69664285D01*
D10*
X57154761Y-51364895D02*
X56697618Y-51364895D01*
X56926190Y-51364895D02*
X56926190Y-50564895D01*
X56926190Y-50564895D02*
X56849999Y-50679180D01*
X56849999Y-50679180D02*
X56773809Y-50755371D01*
X56773809Y-50755371D02*
X56697618Y-50793466D01*
X57497619Y-51364895D02*
X57497619Y-50564895D01*
X57573809Y-51060133D02*
X57802381Y-51364895D01*
X57802381Y-50831561D02*
X57497619Y-51136323D01*
D11*
X59683333Y-51181927D02*
X59550000Y-50991451D01*
X59454762Y-51181927D02*
X59454762Y-50781927D01*
X59454762Y-50781927D02*
X59607143Y-50781927D01*
X59607143Y-50781927D02*
X59645238Y-50800975D01*
X59645238Y-50800975D02*
X59664285Y-50820022D01*
X59664285Y-50820022D02*
X59683333Y-50858118D01*
X59683333Y-50858118D02*
X59683333Y-50915260D01*
X59683333Y-50915260D02*
X59664285Y-50953356D01*
X59664285Y-50953356D02*
X59645238Y-50972403D01*
X59645238Y-50972403D02*
X59607143Y-50991451D01*
X59607143Y-50991451D02*
X59454762Y-50991451D01*
X60064285Y-51181927D02*
X59835714Y-51181927D01*
X59950000Y-51181927D02*
X59950000Y-50781927D01*
X59950000Y-50781927D02*
X59911904Y-50839070D01*
X59911904Y-50839070D02*
X59873809Y-50877165D01*
X59873809Y-50877165D02*
X59835714Y-50896213D01*
D12*
X96127141Y-72839580D02*
X96079522Y-72887200D01*
X96079522Y-72887200D02*
X95936665Y-72934819D01*
X95936665Y-72934819D02*
X95841427Y-72934819D01*
X95841427Y-72934819D02*
X95698570Y-72887200D01*
X95698570Y-72887200D02*
X95603332Y-72791961D01*
X95603332Y-72791961D02*
X95555713Y-72696723D01*
X95555713Y-72696723D02*
X95508094Y-72506247D01*
X95508094Y-72506247D02*
X95508094Y-72363390D01*
X95508094Y-72363390D02*
X95555713Y-72172914D01*
X95555713Y-72172914D02*
X95603332Y-72077676D01*
X95603332Y-72077676D02*
X95698570Y-71982438D01*
X95698570Y-71982438D02*
X95841427Y-71934819D01*
X95841427Y-71934819D02*
X95936665Y-71934819D01*
X95936665Y-71934819D02*
X96079522Y-71982438D01*
X96079522Y-71982438D02*
X96127141Y-72030057D01*
X96698570Y-72934819D02*
X96603332Y-72887200D01*
X96603332Y-72887200D02*
X96555713Y-72839580D01*
X96555713Y-72839580D02*
X96508094Y-72744342D01*
X96508094Y-72744342D02*
X96508094Y-72458628D01*
X96508094Y-72458628D02*
X96555713Y-72363390D01*
X96555713Y-72363390D02*
X96603332Y-72315771D01*
X96603332Y-72315771D02*
X96698570Y-72268152D01*
X96698570Y-72268152D02*
X96841427Y-72268152D01*
X96841427Y-72268152D02*
X96936665Y-72315771D01*
X96936665Y-72315771D02*
X96984284Y-72363390D01*
X96984284Y-72363390D02*
X97031903Y-72458628D01*
X97031903Y-72458628D02*
X97031903Y-72744342D01*
X97031903Y-72744342D02*
X96984284Y-72839580D01*
X96984284Y-72839580D02*
X96936665Y-72887200D01*
X96936665Y-72887200D02*
X96841427Y-72934819D01*
X96841427Y-72934819D02*
X96698570Y-72934819D01*
X97460475Y-72268152D02*
X97460475Y-72934819D01*
X97460475Y-72363390D02*
X97508094Y-72315771D01*
X97508094Y-72315771D02*
X97603332Y-72268152D01*
X97603332Y-72268152D02*
X97746189Y-72268152D01*
X97746189Y-72268152D02*
X97841427Y-72315771D01*
X97841427Y-72315771D02*
X97889046Y-72411009D01*
X97889046Y-72411009D02*
X97889046Y-72934819D01*
X98365237Y-72268152D02*
X98365237Y-72934819D01*
X98365237Y-72363390D02*
X98412856Y-72315771D01*
X98412856Y-72315771D02*
X98508094Y-72268152D01*
X98508094Y-72268152D02*
X98650951Y-72268152D01*
X98650951Y-72268152D02*
X98746189Y-72315771D01*
X98746189Y-72315771D02*
X98793808Y-72411009D01*
X98793808Y-72411009D02*
X98793808Y-72934819D01*
X99031904Y-73030057D02*
X99793808Y-73030057D01*
X100222380Y-71934819D02*
X100317618Y-71934819D01*
X100317618Y-71934819D02*
X100412856Y-71982438D01*
X100412856Y-71982438D02*
X100460475Y-72030057D01*
X100460475Y-72030057D02*
X100508094Y-72125295D01*
X100508094Y-72125295D02*
X100555713Y-72315771D01*
X100555713Y-72315771D02*
X100555713Y-72553866D01*
X100555713Y-72553866D02*
X100508094Y-72744342D01*
X100508094Y-72744342D02*
X100460475Y-72839580D01*
X100460475Y-72839580D02*
X100412856Y-72887200D01*
X100412856Y-72887200D02*
X100317618Y-72934819D01*
X100317618Y-72934819D02*
X100222380Y-72934819D01*
X100222380Y-72934819D02*
X100127142Y-72887200D01*
X100127142Y-72887200D02*
X100079523Y-72839580D01*
X100079523Y-72839580D02*
X100031904Y-72744342D01*
X100031904Y-72744342D02*
X99984285Y-72553866D01*
X99984285Y-72553866D02*
X99984285Y-72315771D01*
X99984285Y-72315771D02*
X100031904Y-72125295D01*
X100031904Y-72125295D02*
X100079523Y-72030057D01*
X100079523Y-72030057D02*
X100127142Y-71982438D01*
X100127142Y-71982438D02*
X100222380Y-71934819D01*
X100936666Y-72030057D02*
X100984285Y-71982438D01*
X100984285Y-71982438D02*
X101079523Y-71934819D01*
X101079523Y-71934819D02*
X101317618Y-71934819D01*
X101317618Y-71934819D02*
X101412856Y-71982438D01*
X101412856Y-71982438D02*
X101460475Y-72030057D01*
X101460475Y-72030057D02*
X101508094Y-72125295D01*
X101508094Y-72125295D02*
X101508094Y-72220533D01*
X101508094Y-72220533D02*
X101460475Y-72363390D01*
X101460475Y-72363390D02*
X100889047Y-72934819D01*
X100889047Y-72934819D02*
X101508094Y-72934819D01*
X101841428Y-72934819D02*
X102365237Y-72268152D01*
X101841428Y-72268152D02*
X102365237Y-72934819D01*
X102936666Y-71934819D02*
X103031904Y-71934819D01*
X103031904Y-71934819D02*
X103127142Y-71982438D01*
X103127142Y-71982438D02*
X103174761Y-72030057D01*
X103174761Y-72030057D02*
X103222380Y-72125295D01*
X103222380Y-72125295D02*
X103269999Y-72315771D01*
X103269999Y-72315771D02*
X103269999Y-72553866D01*
X103269999Y-72553866D02*
X103222380Y-72744342D01*
X103222380Y-72744342D02*
X103174761Y-72839580D01*
X103174761Y-72839580D02*
X103127142Y-72887200D01*
X103127142Y-72887200D02*
X103031904Y-72934819D01*
X103031904Y-72934819D02*
X102936666Y-72934819D01*
X102936666Y-72934819D02*
X102841428Y-72887200D01*
X102841428Y-72887200D02*
X102793809Y-72839580D01*
X102793809Y-72839580D02*
X102746190Y-72744342D01*
X102746190Y-72744342D02*
X102698571Y-72553866D01*
X102698571Y-72553866D02*
X102698571Y-72315771D01*
X102698571Y-72315771D02*
X102746190Y-72125295D01*
X102746190Y-72125295D02*
X102793809Y-72030057D01*
X102793809Y-72030057D02*
X102841428Y-71982438D01*
X102841428Y-71982438D02*
X102936666Y-71934819D01*
X104127142Y-71934819D02*
X103936666Y-71934819D01*
X103936666Y-71934819D02*
X103841428Y-71982438D01*
X103841428Y-71982438D02*
X103793809Y-72030057D01*
X103793809Y-72030057D02*
X103698571Y-72172914D01*
X103698571Y-72172914D02*
X103650952Y-72363390D01*
X103650952Y-72363390D02*
X103650952Y-72744342D01*
X103650952Y-72744342D02*
X103698571Y-72839580D01*
X103698571Y-72839580D02*
X103746190Y-72887200D01*
X103746190Y-72887200D02*
X103841428Y-72934819D01*
X103841428Y-72934819D02*
X104031904Y-72934819D01*
X104031904Y-72934819D02*
X104127142Y-72887200D01*
X104127142Y-72887200D02*
X104174761Y-72839580D01*
X104174761Y-72839580D02*
X104222380Y-72744342D01*
X104222380Y-72744342D02*
X104222380Y-72506247D01*
X104222380Y-72506247D02*
X104174761Y-72411009D01*
X104174761Y-72411009D02*
X104127142Y-72363390D01*
X104127142Y-72363390D02*
X104031904Y-72315771D01*
X104031904Y-72315771D02*
X103841428Y-72315771D01*
X103841428Y-72315771D02*
X103746190Y-72363390D01*
X103746190Y-72363390D02*
X103698571Y-72411009D01*
X103698571Y-72411009D02*
X103650952Y-72506247D01*
X104412857Y-73030057D02*
X105174761Y-73030057D01*
X105603333Y-71934819D02*
X105793809Y-71934819D01*
X105793809Y-71934819D02*
X105889047Y-71982438D01*
X105889047Y-71982438D02*
X105984285Y-72077676D01*
X105984285Y-72077676D02*
X106031904Y-72268152D01*
X106031904Y-72268152D02*
X106031904Y-72601485D01*
X106031904Y-72601485D02*
X105984285Y-72791961D01*
X105984285Y-72791961D02*
X105889047Y-72887200D01*
X105889047Y-72887200D02*
X105793809Y-72934819D01*
X105793809Y-72934819D02*
X105603333Y-72934819D01*
X105603333Y-72934819D02*
X105508095Y-72887200D01*
X105508095Y-72887200D02*
X105412857Y-72791961D01*
X105412857Y-72791961D02*
X105365238Y-72601485D01*
X105365238Y-72601485D02*
X105365238Y-72268152D01*
X105365238Y-72268152D02*
X105412857Y-72077676D01*
X105412857Y-72077676D02*
X105508095Y-71982438D01*
X105508095Y-71982438D02*
X105603333Y-71934819D01*
X106889047Y-72934819D02*
X106889047Y-71934819D01*
X106889047Y-72887200D02*
X106793809Y-72934819D01*
X106793809Y-72934819D02*
X106603333Y-72934819D01*
X106603333Y-72934819D02*
X106508095Y-72887200D01*
X106508095Y-72887200D02*
X106460476Y-72839580D01*
X106460476Y-72839580D02*
X106412857Y-72744342D01*
X106412857Y-72744342D02*
X106412857Y-72458628D01*
X106412857Y-72458628D02*
X106460476Y-72363390D01*
X106460476Y-72363390D02*
X106508095Y-72315771D01*
X106508095Y-72315771D02*
X106603333Y-72268152D01*
X106603333Y-72268152D02*
X106793809Y-72268152D01*
X106793809Y-72268152D02*
X106889047Y-72315771D01*
X107793809Y-72934819D02*
X107793809Y-71934819D01*
X107793809Y-72887200D02*
X107698571Y-72934819D01*
X107698571Y-72934819D02*
X107508095Y-72934819D01*
X107508095Y-72934819D02*
X107412857Y-72887200D01*
X107412857Y-72887200D02*
X107365238Y-72839580D01*
X107365238Y-72839580D02*
X107317619Y-72744342D01*
X107317619Y-72744342D02*
X107317619Y-72458628D01*
X107317619Y-72458628D02*
X107365238Y-72363390D01*
X107365238Y-72363390D02*
X107412857Y-72315771D01*
X107412857Y-72315771D02*
X107508095Y-72268152D01*
X107508095Y-72268152D02*
X107698571Y-72268152D01*
X107698571Y-72268152D02*
X107793809Y-72315771D01*
X108031905Y-73030057D02*
X108793809Y-73030057D01*
X109031905Y-72411009D02*
X109365238Y-72411009D01*
X109508095Y-72934819D02*
X109031905Y-72934819D01*
X109031905Y-72934819D02*
X109031905Y-71934819D01*
X109031905Y-71934819D02*
X109508095Y-71934819D01*
X109841429Y-72268152D02*
X110079524Y-72934819D01*
X110079524Y-72934819D02*
X110317619Y-72268152D01*
X111079524Y-72887200D02*
X110984286Y-72934819D01*
X110984286Y-72934819D02*
X110793810Y-72934819D01*
X110793810Y-72934819D02*
X110698572Y-72887200D01*
X110698572Y-72887200D02*
X110650953Y-72791961D01*
X110650953Y-72791961D02*
X110650953Y-72411009D01*
X110650953Y-72411009D02*
X110698572Y-72315771D01*
X110698572Y-72315771D02*
X110793810Y-72268152D01*
X110793810Y-72268152D02*
X110984286Y-72268152D01*
X110984286Y-72268152D02*
X111079524Y-72315771D01*
X111079524Y-72315771D02*
X111127143Y-72411009D01*
X111127143Y-72411009D02*
X111127143Y-72506247D01*
X111127143Y-72506247D02*
X110650953Y-72601485D01*
X111555715Y-72268152D02*
X111555715Y-72934819D01*
X111555715Y-72363390D02*
X111603334Y-72315771D01*
X111603334Y-72315771D02*
X111698572Y-72268152D01*
X111698572Y-72268152D02*
X111841429Y-72268152D01*
X111841429Y-72268152D02*
X111936667Y-72315771D01*
X111936667Y-72315771D02*
X111984286Y-72411009D01*
X111984286Y-72411009D02*
X111984286Y-72934819D01*
X103224819Y-64083333D02*
X103939104Y-64083333D01*
X103939104Y-64083333D02*
X104081961Y-64130952D01*
X104081961Y-64130952D02*
X104177200Y-64226190D01*
X104177200Y-64226190D02*
X104224819Y-64369047D01*
X104224819Y-64369047D02*
X104224819Y-64464285D01*
X103320057Y-63654761D02*
X103272438Y-63607142D01*
X103272438Y-63607142D02*
X103224819Y-63511904D01*
X103224819Y-63511904D02*
X103224819Y-63273809D01*
X103224819Y-63273809D02*
X103272438Y-63178571D01*
X103272438Y-63178571D02*
X103320057Y-63130952D01*
X103320057Y-63130952D02*
X103415295Y-63083333D01*
X103415295Y-63083333D02*
X103510533Y-63083333D01*
X103510533Y-63083333D02*
X103653390Y-63130952D01*
X103653390Y-63130952D02*
X104224819Y-63702380D01*
X104224819Y-63702380D02*
X104224819Y-63083333D01*
D10*
X65330952Y-51364895D02*
X64950000Y-51364895D01*
X64950000Y-51364895D02*
X64950000Y-50564895D01*
X65902381Y-51326800D02*
X65826190Y-51364895D01*
X65826190Y-51364895D02*
X65673809Y-51364895D01*
X65673809Y-51364895D02*
X65597619Y-51326800D01*
X65597619Y-51326800D02*
X65559523Y-51250609D01*
X65559523Y-51250609D02*
X65559523Y-50945847D01*
X65559523Y-50945847D02*
X65597619Y-50869657D01*
X65597619Y-50869657D02*
X65673809Y-50831561D01*
X65673809Y-50831561D02*
X65826190Y-50831561D01*
X65826190Y-50831561D02*
X65902381Y-50869657D01*
X65902381Y-50869657D02*
X65940476Y-50945847D01*
X65940476Y-50945847D02*
X65940476Y-51022038D01*
X65940476Y-51022038D02*
X65559523Y-51098228D01*
X66626190Y-51364895D02*
X66626190Y-50564895D01*
X66626190Y-51326800D02*
X66549999Y-51364895D01*
X66549999Y-51364895D02*
X66397618Y-51364895D01*
X66397618Y-51364895D02*
X66321428Y-51326800D01*
X66321428Y-51326800D02*
X66283333Y-51288704D01*
X66283333Y-51288704D02*
X66245237Y-51212514D01*
X66245237Y-51212514D02*
X66245237Y-50983942D01*
X66245237Y-50983942D02*
X66283333Y-50907752D01*
X66283333Y-50907752D02*
X66321428Y-50869657D01*
X66321428Y-50869657D02*
X66397618Y-50831561D01*
X66397618Y-50831561D02*
X66549999Y-50831561D01*
X66549999Y-50831561D02*
X66626190Y-50869657D01*
X66816667Y-51441085D02*
X67426190Y-51441085D01*
X67959524Y-50831561D02*
X67959524Y-51479180D01*
X67959524Y-51479180D02*
X67921429Y-51555371D01*
X67921429Y-51555371D02*
X67883333Y-51593466D01*
X67883333Y-51593466D02*
X67807143Y-51631561D01*
X67807143Y-51631561D02*
X67692857Y-51631561D01*
X67692857Y-51631561D02*
X67616667Y-51593466D01*
X67959524Y-51326800D02*
X67883333Y-51364895D01*
X67883333Y-51364895D02*
X67730952Y-51364895D01*
X67730952Y-51364895D02*
X67654762Y-51326800D01*
X67654762Y-51326800D02*
X67616667Y-51288704D01*
X67616667Y-51288704D02*
X67578571Y-51212514D01*
X67578571Y-51212514D02*
X67578571Y-50983942D01*
X67578571Y-50983942D02*
X67616667Y-50907752D01*
X67616667Y-50907752D02*
X67654762Y-50869657D01*
X67654762Y-50869657D02*
X67730952Y-50831561D01*
X67730952Y-50831561D02*
X67883333Y-50831561D01*
X67883333Y-50831561D02*
X67959524Y-50869657D01*
X68340477Y-51364895D02*
X68340477Y-50831561D01*
X68340477Y-50983942D02*
X68378572Y-50907752D01*
X68378572Y-50907752D02*
X68416667Y-50869657D01*
X68416667Y-50869657D02*
X68492858Y-50831561D01*
X68492858Y-50831561D02*
X68569048Y-50831561D01*
X69140477Y-51326800D02*
X69064286Y-51364895D01*
X69064286Y-51364895D02*
X68911905Y-51364895D01*
X68911905Y-51364895D02*
X68835715Y-51326800D01*
X68835715Y-51326800D02*
X68797619Y-51250609D01*
X68797619Y-51250609D02*
X68797619Y-50945847D01*
X68797619Y-50945847D02*
X68835715Y-50869657D01*
X68835715Y-50869657D02*
X68911905Y-50831561D01*
X68911905Y-50831561D02*
X69064286Y-50831561D01*
X69064286Y-50831561D02*
X69140477Y-50869657D01*
X69140477Y-50869657D02*
X69178572Y-50945847D01*
X69178572Y-50945847D02*
X69178572Y-51022038D01*
X69178572Y-51022038D02*
X68797619Y-51098228D01*
X69826191Y-51326800D02*
X69750000Y-51364895D01*
X69750000Y-51364895D02*
X69597619Y-51364895D01*
X69597619Y-51364895D02*
X69521429Y-51326800D01*
X69521429Y-51326800D02*
X69483333Y-51250609D01*
X69483333Y-51250609D02*
X69483333Y-50945847D01*
X69483333Y-50945847D02*
X69521429Y-50869657D01*
X69521429Y-50869657D02*
X69597619Y-50831561D01*
X69597619Y-50831561D02*
X69750000Y-50831561D01*
X69750000Y-50831561D02*
X69826191Y-50869657D01*
X69826191Y-50869657D02*
X69864286Y-50945847D01*
X69864286Y-50945847D02*
X69864286Y-51022038D01*
X69864286Y-51022038D02*
X69483333Y-51098228D01*
X70207143Y-50831561D02*
X70207143Y-51364895D01*
X70207143Y-50907752D02*
X70245238Y-50869657D01*
X70245238Y-50869657D02*
X70321428Y-50831561D01*
X70321428Y-50831561D02*
X70435714Y-50831561D01*
X70435714Y-50831561D02*
X70511905Y-50869657D01*
X70511905Y-50869657D02*
X70550000Y-50945847D01*
X70550000Y-50945847D02*
X70550000Y-51364895D01*
D11*
X62704762Y-51181927D02*
X62704762Y-50781927D01*
X62704762Y-50781927D02*
X62800000Y-50781927D01*
X62800000Y-50781927D02*
X62857143Y-50800975D01*
X62857143Y-50800975D02*
X62895238Y-50839070D01*
X62895238Y-50839070D02*
X62914285Y-50877165D01*
X62914285Y-50877165D02*
X62933333Y-50953356D01*
X62933333Y-50953356D02*
X62933333Y-51010499D01*
X62933333Y-51010499D02*
X62914285Y-51086689D01*
X62914285Y-51086689D02*
X62895238Y-51124784D01*
X62895238Y-51124784D02*
X62857143Y-51162880D01*
X62857143Y-51162880D02*
X62800000Y-51181927D01*
X62800000Y-51181927D02*
X62704762Y-51181927D01*
X63314285Y-51181927D02*
X63085714Y-51181927D01*
X63200000Y-51181927D02*
X63200000Y-50781927D01*
X63200000Y-50781927D02*
X63161904Y-50839070D01*
X63161904Y-50839070D02*
X63123809Y-50877165D01*
X63123809Y-50877165D02*
X63085714Y-50896213D01*
D10*
X66114895Y-68726190D02*
X66114895Y-69183333D01*
X66114895Y-68954761D02*
X65314895Y-68954761D01*
X65314895Y-68954761D02*
X65429180Y-69030952D01*
X65429180Y-69030952D02*
X65505371Y-69107142D01*
X65505371Y-69107142D02*
X65543466Y-69183333D01*
X65314895Y-68230951D02*
X65314895Y-68154761D01*
X65314895Y-68154761D02*
X65352990Y-68078570D01*
X65352990Y-68078570D02*
X65391085Y-68040475D01*
X65391085Y-68040475D02*
X65467276Y-68002380D01*
X65467276Y-68002380D02*
X65619657Y-67964285D01*
X65619657Y-67964285D02*
X65810133Y-67964285D01*
X65810133Y-67964285D02*
X65962514Y-68002380D01*
X65962514Y-68002380D02*
X66038704Y-68040475D01*
X66038704Y-68040475D02*
X66076800Y-68078570D01*
X66076800Y-68078570D02*
X66114895Y-68154761D01*
X66114895Y-68154761D02*
X66114895Y-68230951D01*
X66114895Y-68230951D02*
X66076800Y-68307142D01*
X66076800Y-68307142D02*
X66038704Y-68345237D01*
X66038704Y-68345237D02*
X65962514Y-68383332D01*
X65962514Y-68383332D02*
X65810133Y-68421428D01*
X65810133Y-68421428D02*
X65619657Y-68421428D01*
X65619657Y-68421428D02*
X65467276Y-68383332D01*
X65467276Y-68383332D02*
X65391085Y-68345237D01*
X65391085Y-68345237D02*
X65352990Y-68307142D01*
X65352990Y-68307142D02*
X65314895Y-68230951D01*
X66114895Y-67621427D02*
X65314895Y-67621427D01*
X65810133Y-67545237D02*
X66114895Y-67316665D01*
X65581561Y-67316665D02*
X65886323Y-67621427D01*
D11*
X65931927Y-71066666D02*
X65741451Y-71199999D01*
X65931927Y-71295237D02*
X65531927Y-71295237D01*
X65531927Y-71295237D02*
X65531927Y-71142856D01*
X65531927Y-71142856D02*
X65550975Y-71104761D01*
X65550975Y-71104761D02*
X65570022Y-71085714D01*
X65570022Y-71085714D02*
X65608118Y-71066666D01*
X65608118Y-71066666D02*
X65665260Y-71066666D01*
X65665260Y-71066666D02*
X65703356Y-71085714D01*
X65703356Y-71085714D02*
X65722403Y-71104761D01*
X65722403Y-71104761D02*
X65741451Y-71142856D01*
X65741451Y-71142856D02*
X65741451Y-71295237D01*
X65570022Y-70914285D02*
X65550975Y-70895237D01*
X65550975Y-70895237D02*
X65531927Y-70857142D01*
X65531927Y-70857142D02*
X65531927Y-70761904D01*
X65531927Y-70761904D02*
X65550975Y-70723809D01*
X65550975Y-70723809D02*
X65570022Y-70704761D01*
X65570022Y-70704761D02*
X65608118Y-70685714D01*
X65608118Y-70685714D02*
X65646213Y-70685714D01*
X65646213Y-70685714D02*
X65703356Y-70704761D01*
X65703356Y-70704761D02*
X65931927Y-70933333D01*
X65931927Y-70933333D02*
X65931927Y-70685714D01*
D10*
G04 #@! TO.C,C1*
X52100000Y-68950000D02*
X52900000Y-68950000D01*
X52100000Y-70550000D02*
X52100000Y-68950000D01*
X52900000Y-68950000D02*
X52900000Y-70550000D01*
X52900000Y-70550000D02*
X52100000Y-70550000D01*
G04 #@! TO.C,R1*
X58950000Y-50587500D02*
X60550000Y-50587500D01*
X58950000Y-51412500D02*
X58950000Y-50587500D01*
X60550000Y-50587500D02*
X60550000Y-51412500D01*
X60550000Y-51412500D02*
X58950000Y-51412500D01*
G04 #@! TO.C,J2*
X101230000Y-57400000D02*
X102500000Y-56130000D01*
X101230000Y-71370000D02*
X101230000Y-57400000D01*
X102500000Y-56130000D02*
X106310000Y-56130000D01*
X106310000Y-56130000D02*
X106310000Y-71370000D01*
X106310000Y-71370000D02*
X101230000Y-71370000D01*
G04 #@! TO.C,D1*
X62200000Y-50900000D02*
X62200000Y-51400000D01*
X62200000Y-51400000D02*
X63800000Y-51400000D01*
X62500000Y-50600000D02*
X62200000Y-50900000D01*
X63800000Y-50600000D02*
X62500000Y-50600000D01*
X63800000Y-51400000D02*
X63800000Y-50600000D01*
G04 #@! TO.C,R2*
X65337500Y-70200000D02*
X66162500Y-70200000D01*
X65337500Y-71800000D02*
X65337500Y-70200000D01*
X66162500Y-70200000D02*
X66162500Y-71800000D01*
X66162500Y-71800000D02*
X65337500Y-71800000D01*
G04 #@! TD*
M02*
