G04 #@! TF.GenerationSoftware,KiCad,Pcbnew,9.0.5*
G04 #@! TF.CreationDate,2025-10-23T20:31:54+13:00*
G04 #@! TF.ProjectId,Gateway_PCB,47617465-7761-4795-9f50-43422e6b6963,rev?*
G04 #@! TF.SameCoordinates,Original*
G04 #@! TF.FileFunction,Copper,L2,Bot*
G04 #@! TF.FilePolarity,Positive*
%FSLAX46Y46*%
G04 Gerber Fmt 4.6, Leading zero omitted, Abs format (unit mm)*
G04 Created by KiCad (PCBNEW 9.0.5) date 2025-10-23 20:31:54*
%MOMM*%
%LPD*%
G01*
G04 APERTURE LIST*
G04 Aperture macros list*
%AMFreePoly0*
4,1,13,0.099990,0.100010,0.099980,0.100000,0.099990,0.080110,0.084770,0.043360,0.056640,0.015230,0.019890,0.000000,-0.869910,0.000000,-0.906660,0.015220,-0.934790,0.043350,-0.950010,0.080110,-0.950010,0.750000,0.099990,0.750000,0.099990,0.100010,0.099990,0.100010,$1*%
G04 Aperture macros list end*
G04 #@! TA.AperFunction,ComponentPad*
%ADD10C,1.045000*%
G04 #@! TD*
G04 #@! TA.AperFunction,SMDPad,CuDef*
%ADD11FreePoly0,270.000000*%
G04 #@! TD*
G04 #@! TA.AperFunction,ComponentPad*
%ADD12R,1.700000X1.700000*%
G04 #@! TD*
G04 #@! TA.AperFunction,ComponentPad*
%ADD13C,1.700000*%
G04 #@! TD*
G04 #@! TA.AperFunction,ViaPad*
%ADD14C,0.800000*%
G04 #@! TD*
G04 #@! TA.AperFunction,ViaPad*
%ADD15C,0.600000*%
G04 #@! TD*
G04 #@! TA.AperFunction,Conductor*
%ADD16C,0.500000*%
G04 #@! TD*
G04 #@! TA.AperFunction,Conductor*
%ADD17C,0.200000*%
G04 #@! TD*
G04 APERTURE END LIST*
D10*
G04 #@! TO.P,J1,1,Pin_1*
G04 #@! TO.N,+3V3*
X67813750Y-61897500D03*
D11*
X67063750Y-62322510D03*
D10*
G04 #@! TO.P,J1,2,Pin_2*
G04 #@! TO.N,GND*
X67813750Y-63167500D03*
D11*
X67063750Y-63592510D03*
D10*
G04 #@! TO.P,J1,3,Pin_3*
G04 #@! TO.N,Net-(J1-Pin_3)*
X67813750Y-64437500D03*
D11*
X67063750Y-64862510D03*
D10*
G04 #@! TO.P,J1,4,Pin_4*
G04 #@! TO.N,Net-(J1-Pin_4)*
X67813750Y-66977500D03*
D11*
X67063750Y-67402510D03*
D10*
G04 #@! TO.P,J1,5,Pin_5*
G04 #@! TO.N,Net-(J1-Pin_5)*
X67813750Y-68247500D03*
D11*
X67063750Y-68672510D03*
D10*
G04 #@! TO.P,J1,6,Pin_6*
G04 #@! TO.N,unconnected-(J1-Pin_6-Pad6)_1*
X67813750Y-69517500D03*
D11*
G04 #@! TO.N,unconnected-(J1-Pin_6-Pad6)*
X67063750Y-69942510D03*
G04 #@! TD*
D12*
G04 #@! TO.P,J2,1,Pin_1*
G04 #@! TO.N,+3V3*
X102500000Y-57400000D03*
D13*
G04 #@! TO.P,J2,2,Pin_2*
G04 #@! TO.N,unconnected-(J2-Pin_2-Pad2)*
X105040000Y-57400000D03*
G04 #@! TO.P,J2,3,Pin_3*
G04 #@! TO.N,unconnected-(J2-Pin_3-Pad3)*
X102500000Y-59940000D03*
G04 #@! TO.P,J2,4,Pin_4*
G04 #@! TO.N,unconnected-(J2-Pin_4-Pad4)*
X105040000Y-59940000D03*
G04 #@! TO.P,J2,5,Pin_5*
G04 #@! TO.N,unconnected-(J2-Pin_5-Pad5)*
X102500000Y-62480000D03*
G04 #@! TO.P,J2,6,Pin_6*
G04 #@! TO.N,GND*
X105040000Y-62480000D03*
G04 #@! TO.P,J2,7,Pin_7*
G04 #@! TO.N,unconnected-(J2-Pin_7-Pad7)*
X102500000Y-65020000D03*
G04 #@! TO.P,J2,8,Pin_8*
G04 #@! TO.N,Net-(J2-Pin_8)*
X105040000Y-65020000D03*
G04 #@! TO.P,J2,9,Pin_9*
G04 #@! TO.N,GND*
X102500000Y-67560000D03*
G04 #@! TO.P,J2,10,Pin_10*
G04 #@! TO.N,Net-(J2-Pin_10)*
X105040000Y-67560000D03*
G04 #@! TO.P,J2,11,Pin_11*
G04 #@! TO.N,Net-(J2-Pin_11)*
X102500000Y-70100000D03*
G04 #@! TO.P,J2,12,Pin_12*
G04 #@! TO.N,Net-(J2-Pin_12)*
X105040000Y-70100000D03*
G04 #@! TD*
D14*
G04 #@! TO.N,+3V3*
X67000000Y-52300000D03*
X64500000Y-54900000D03*
D15*
G04 #@! TO.N,GND*
X66800000Y-56000000D03*
X109250000Y-48750000D03*
X87250000Y-49700000D03*
X92700000Y-50250000D03*
X109500000Y-69750000D03*
X52500000Y-49000000D03*
X92700000Y-48750000D03*
X73000000Y-50250000D03*
X73000000Y-48750000D03*
X99900000Y-55300000D03*
X61700000Y-54300000D03*
X66250000Y-63150000D03*
X52500000Y-73250000D03*
X66000000Y-73250000D03*
G04 #@! TO.N,Net-(J2-Pin_10)*
X108750000Y-65750000D03*
X60200000Y-55700000D03*
G04 #@! TO.N,Net-(J2-Pin_12)*
X103750000Y-54400000D03*
X64875000Y-68875000D03*
G04 #@! TO.N,Net-(J2-Pin_8)*
X58400000Y-56300000D03*
X108000000Y-64000000D03*
G04 #@! TD*
D16*
G04 #@! TO.N,+3V3*
X66800000Y-52600000D02*
X64500000Y-54900000D01*
X67000000Y-52300000D02*
X66800000Y-52500000D01*
X66800000Y-52500000D02*
X66800000Y-52600000D01*
D17*
G04 #@! TO.N,GND*
X66267500Y-63167500D02*
X66250000Y-63150000D01*
X67813750Y-63167500D02*
X66267500Y-63167500D01*
G04 #@! TO.N,Net-(J2-Pin_10)*
X64600000Y-55700000D02*
X67050000Y-53250000D01*
X108750000Y-55250000D02*
X108750000Y-65750000D01*
X67050000Y-53250000D02*
X106750000Y-53250000D01*
X60200000Y-55700000D02*
X64600000Y-55700000D01*
X106750000Y-53250000D02*
X108750000Y-55250000D01*
G04 #@! TO.N,Net-(J2-Pin_12)*
X103600000Y-54250000D02*
X103750000Y-54400000D01*
X67250000Y-54250000D02*
X103600000Y-54250000D01*
X65250000Y-56250000D02*
X67250000Y-54250000D01*
X65250000Y-68500000D02*
X65250000Y-56250000D01*
X64875000Y-68875000D02*
X65250000Y-68500000D01*
G04 #@! TO.N,Net-(J2-Pin_8)*
X64600000Y-56300000D02*
X67150000Y-53750000D01*
X58400000Y-56300000D02*
X64600000Y-56300000D01*
X106450000Y-53750000D02*
X108000000Y-55300000D01*
X108000000Y-55300000D02*
X108000000Y-64000000D01*
X67150000Y-53750000D02*
X106450000Y-53750000D01*
G04 #@! TD*
G04 #@! TA.AperFunction,Conductor*
G04 #@! TO.N,GND*
G36*
X67249500Y-63478901D02*
G01*
X66778790Y-63267500D01*
X66778790Y-63067500D01*
X67249500Y-62856098D01*
X67249500Y-63478901D01*
G37*
G04 #@! TD.AperFunction*
G04 #@! TD*
G04 #@! TA.AperFunction,Conductor*
G04 #@! TO.N,GND*
G36*
X110442539Y-47520185D02*
G01*
X110488294Y-47572989D01*
X110499500Y-47624500D01*
X110499500Y-70875500D01*
X110479815Y-70942539D01*
X110427011Y-70988294D01*
X110375500Y-70999500D01*
X106299005Y-70999500D01*
X106231966Y-70979815D01*
X106186211Y-70927011D01*
X106176267Y-70857853D01*
X106193277Y-70810710D01*
X106195037Y-70807834D01*
X106195051Y-70807816D01*
X106291557Y-70618412D01*
X106357246Y-70416243D01*
X106390500Y-70206287D01*
X106390500Y-69993713D01*
X106357246Y-69783757D01*
X106291557Y-69581588D01*
X106195051Y-69392184D01*
X106195049Y-69392181D01*
X106195048Y-69392179D01*
X106070109Y-69220213D01*
X105919786Y-69069890D01*
X105747820Y-68944951D01*
X105747115Y-68944591D01*
X105739054Y-68940485D01*
X105688259Y-68892512D01*
X105671463Y-68824692D01*
X105693999Y-68758556D01*
X105739054Y-68719515D01*
X105747816Y-68715051D01*
X105802572Y-68675269D01*
X105919786Y-68590109D01*
X105919788Y-68590106D01*
X105919792Y-68590104D01*
X106070104Y-68439792D01*
X106070106Y-68439788D01*
X106070109Y-68439786D01*
X106195048Y-68267820D01*
X106195050Y-68267817D01*
X106195051Y-68267816D01*
X106291557Y-68078412D01*
X106357246Y-67876243D01*
X106390500Y-67666287D01*
X106390500Y-67453713D01*
X106357246Y-67243757D01*
X106291557Y-67041588D01*
X106195051Y-66852184D01*
X106195049Y-66852181D01*
X106195048Y-66852179D01*
X106070109Y-66680213D01*
X105919786Y-66529890D01*
X105747820Y-66404951D01*
X105739600Y-66400763D01*
X105739054Y-66400485D01*
X105688259Y-66352512D01*
X105671463Y-66284692D01*
X105693999Y-66218556D01*
X105739054Y-66179515D01*
X105747816Y-66175051D01*
X105810954Y-66129179D01*
X105919786Y-66050109D01*
X105919788Y-66050106D01*
X105919792Y-66050104D01*
X106070104Y-65899792D01*
X106070106Y-65899788D01*
X106070109Y-65899786D01*
X106195048Y-65727820D01*
X106195047Y-65727820D01*
X106195051Y-65727816D01*
X106291557Y-65538412D01*
X106357246Y-65336243D01*
X106390500Y-65126287D01*
X106390500Y-64913713D01*
X106357246Y-64703757D01*
X106291557Y-64501588D01*
X106195051Y-64312184D01*
X106195049Y-64312181D01*
X106195048Y-64312179D01*
X106070109Y-64140213D01*
X105919786Y-63989890D01*
X105747817Y-63864949D01*
X105738504Y-63860204D01*
X105687707Y-63812230D01*
X105670912Y-63744409D01*
X105693449Y-63678274D01*
X105738507Y-63639232D01*
X105747555Y-63634622D01*
X105801716Y-63595270D01*
X105801717Y-63595270D01*
X105061446Y-62855000D01*
X105089370Y-62855000D01*
X105184745Y-62829444D01*
X105270255Y-62780075D01*
X105340075Y-62710255D01*
X105389444Y-62624745D01*
X105415000Y-62529370D01*
X105415000Y-62501447D01*
X106155270Y-63241717D01*
X106155270Y-63241716D01*
X106194622Y-63187554D01*
X106291095Y-62998217D01*
X106356757Y-62796130D01*
X106356757Y-62796127D01*
X106390000Y-62586243D01*
X106390000Y-62373753D01*
X106356757Y-62163872D01*
X106356757Y-62163869D01*
X106291095Y-61961782D01*
X106194624Y-61772449D01*
X106155270Y-61718282D01*
X106155269Y-61718282D01*
X105415000Y-62458552D01*
X105415000Y-62430630D01*
X105389444Y-62335255D01*
X105340075Y-62249745D01*
X105270255Y-62179925D01*
X105184745Y-62130556D01*
X105089370Y-62105000D01*
X105061447Y-62105000D01*
X105801716Y-61364728D01*
X105747547Y-61325373D01*
X105747547Y-61325372D01*
X105738500Y-61320763D01*
X105687706Y-61272788D01*
X105670912Y-61204966D01*
X105693451Y-61138832D01*
X105738508Y-61099793D01*
X105747816Y-61095051D01*
X105836970Y-61030277D01*
X105919786Y-60970109D01*
X105919788Y-60970106D01*
X105919792Y-60970104D01*
X106070104Y-60819792D01*
X106070106Y-60819788D01*
X106070109Y-60819786D01*
X106195048Y-60647820D01*
X106195047Y-60647820D01*
X106195051Y-60647816D01*
X106291557Y-60458412D01*
X106357246Y-60256243D01*
X106390500Y-60046287D01*
X106390500Y-59833713D01*
X106357246Y-59623757D01*
X106291557Y-59421588D01*
X106195051Y-59232184D01*
X106195049Y-59232181D01*
X106195048Y-59232179D01*
X106070109Y-59060213D01*
X105919786Y-58909890D01*
X105747820Y-58784951D01*
X105747115Y-58784591D01*
X105739054Y-58780485D01*
X105688259Y-58732512D01*
X105671463Y-58664692D01*
X105693999Y-58598556D01*
X105739054Y-58559515D01*
X105747816Y-58555051D01*
X105834138Y-58492335D01*
X105919786Y-58430109D01*
X105919788Y-58430106D01*
X105919792Y-58430104D01*
X106070104Y-58279792D01*
X106070106Y-58279788D01*
X106070109Y-58279786D01*
X106195048Y-58107820D01*
X106195047Y-58107820D01*
X106195051Y-58107816D01*
X106291557Y-57918412D01*
X106357246Y-57716243D01*
X106390500Y-57506287D01*
X106390500Y-57293713D01*
X106357246Y-57083757D01*
X106291557Y-56881588D01*
X106195051Y-56692184D01*
X106195049Y-56692181D01*
X106195048Y-56692179D01*
X106070109Y-56520213D01*
X105919786Y-56369890D01*
X105747820Y-56244951D01*
X105558414Y-56148444D01*
X105558413Y-56148443D01*
X105558412Y-56148443D01*
X105356243Y-56082754D01*
X105356241Y-56082753D01*
X105356240Y-56082753D01*
X105194957Y-56057208D01*
X105146287Y-56049500D01*
X104933713Y-56049500D01*
X104885042Y-56057208D01*
X104723760Y-56082753D01*
X104521585Y-56148444D01*
X104332179Y-56244951D01*
X104160215Y-56369889D01*
X104046673Y-56483431D01*
X103985350Y-56516915D01*
X103915658Y-56511931D01*
X103859725Y-56470059D01*
X103842810Y-56439082D01*
X103793797Y-56307671D01*
X103793793Y-56307664D01*
X103707547Y-56192455D01*
X103707544Y-56192452D01*
X103592335Y-56106206D01*
X103592328Y-56106202D01*
X103457482Y-56055908D01*
X103457483Y-56055908D01*
X103397883Y-56049501D01*
X103397881Y-56049500D01*
X103397873Y-56049500D01*
X103397864Y-56049500D01*
X101602129Y-56049500D01*
X101602123Y-56049501D01*
X101542516Y-56055908D01*
X101407671Y-56106202D01*
X101407664Y-56106206D01*
X101292455Y-56192452D01*
X101292452Y-56192455D01*
X101206206Y-56307664D01*
X101206202Y-56307671D01*
X101155908Y-56442517D01*
X101149501Y-56502116D01*
X101149500Y-56502135D01*
X101149500Y-58297870D01*
X101149501Y-58297876D01*
X101155908Y-58357483D01*
X101206202Y-58492328D01*
X101206206Y-58492335D01*
X101292452Y-58607544D01*
X101292455Y-58607547D01*
X101407664Y-58693793D01*
X101407671Y-58693797D01*
X101539082Y-58742810D01*
X101595016Y-58784681D01*
X101619433Y-58850145D01*
X101604582Y-58918418D01*
X101583431Y-58946673D01*
X101469889Y-59060215D01*
X101344951Y-59232179D01*
X101248444Y-59421585D01*
X101182753Y-59623760D01*
X101149500Y-59833713D01*
X101149500Y-60046286D01*
X101165781Y-60149084D01*
X101182754Y-60256243D01*
X101232255Y-60408592D01*
X101248444Y-60458414D01*
X101344951Y-60647820D01*
X101469890Y-60819786D01*
X101620213Y-60970109D01*
X101792182Y-61095050D01*
X101800946Y-61099516D01*
X101851742Y-61147491D01*
X101868536Y-61215312D01*
X101845998Y-61281447D01*
X101800946Y-61320484D01*
X101792182Y-61324949D01*
X101620213Y-61449890D01*
X101469890Y-61600213D01*
X101344951Y-61772179D01*
X101248444Y-61961585D01*
X101182753Y-62163760D01*
X101149500Y-62373713D01*
X101149500Y-62586286D01*
X101182735Y-62796127D01*
X101182754Y-62796243D01*
X101225561Y-62927990D01*
X101248444Y-62998414D01*
X101344951Y-63187820D01*
X101469890Y-63359786D01*
X101620213Y-63510109D01*
X101792182Y-63635050D01*
X101800946Y-63639516D01*
X101851742Y-63687491D01*
X101868536Y-63755312D01*
X101845998Y-63821447D01*
X101800946Y-63860484D01*
X101792182Y-63864949D01*
X101620213Y-63989890D01*
X101469890Y-64140213D01*
X101344951Y-64312179D01*
X101248444Y-64501585D01*
X101182753Y-64703760D01*
X101149500Y-64913713D01*
X101149500Y-65126286D01*
X101167078Y-65237273D01*
X101182754Y-65336243D01*
X101241324Y-65516503D01*
X101248444Y-65538414D01*
X101344951Y-65727820D01*
X101469890Y-65899786D01*
X101620213Y-66050109D01*
X101792179Y-66175048D01*
X101792181Y-66175049D01*
X101792184Y-66175051D01*
X101801493Y-66179794D01*
X101852290Y-66227766D01*
X101869087Y-66295587D01*
X101846552Y-66361722D01*
X101801505Y-66400760D01*
X101792446Y-66405376D01*
X101792440Y-66405380D01*
X101738282Y-66444727D01*
X101738282Y-66444728D01*
X102478554Y-67185000D01*
X102450630Y-67185000D01*
X102355255Y-67210556D01*
X102269745Y-67259925D01*
X102199925Y-67329745D01*
X102150556Y-67415255D01*
X102125000Y-67510630D01*
X102125000Y-67538554D01*
X101384728Y-66798282D01*
X101384727Y-66798282D01*
X101345380Y-66852439D01*
X101248904Y-67041782D01*
X101183242Y-67243869D01*
X101183242Y-67243872D01*
X101150000Y-67453753D01*
X101150000Y-67666246D01*
X101183242Y-67876127D01*
X101183242Y-67876130D01*
X101248904Y-68078217D01*
X101345375Y-68267550D01*
X101384728Y-68321716D01*
X102125000Y-67581445D01*
X102125000Y-67609370D01*
X102150556Y-67704745D01*
X102199925Y-67790255D01*
X102269745Y-67860075D01*
X102355255Y-67909444D01*
X102450630Y-67935000D01*
X102478554Y-67935000D01*
X101738282Y-68675269D01*
X101738282Y-68675270D01*
X101792452Y-68714626D01*
X101792451Y-68714626D01*
X101801495Y-68719234D01*
X101852292Y-68767208D01*
X101869087Y-68835029D01*
X101846550Y-68901164D01*
X101801499Y-68940202D01*
X101792182Y-68944949D01*
X101620213Y-69069890D01*
X101469890Y-69220213D01*
X101344951Y-69392179D01*
X101248444Y-69581585D01*
X101182753Y-69783760D01*
X101149500Y-69993713D01*
X101149500Y-70206286D01*
X101177761Y-70384722D01*
X101182754Y-70416243D01*
X101248443Y-70618412D01*
X101344949Y-70807816D01*
X101344955Y-70807825D01*
X101346723Y-70810710D01*
X101347061Y-70811962D01*
X101347161Y-70812157D01*
X101347120Y-70812177D01*
X101364967Y-70878156D01*
X101343850Y-70944759D01*
X101290079Y-70989372D01*
X101240995Y-70999500D01*
X99624500Y-70999500D01*
X99557461Y-70979815D01*
X99511706Y-70927011D01*
X99500500Y-70875500D01*
X99500500Y-55934110D01*
X99500500Y-55934108D01*
X99466392Y-55806814D01*
X99400500Y-55692686D01*
X99307314Y-55599500D01*
X99219387Y-55548735D01*
X99193187Y-55533608D01*
X99129539Y-55516554D01*
X99065892Y-55499500D01*
X67815892Y-55499500D01*
X67684108Y-55499500D01*
X67556812Y-55533608D01*
X67442686Y-55599500D01*
X67442683Y-55599502D01*
X67349502Y-55692683D01*
X67349500Y-55692686D01*
X67283608Y-55806812D01*
X67249500Y-55934108D01*
X67249500Y-60083480D01*
X67229815Y-60150519D01*
X67228602Y-60152371D01*
X67148669Y-60271998D01*
X67148662Y-60272011D01*
X67092093Y-60408582D01*
X67092090Y-60408592D01*
X67063250Y-60553579D01*
X67063250Y-60701422D01*
X67073496Y-60752932D01*
X67067269Y-60822524D01*
X67024406Y-60877701D01*
X66982530Y-60897275D01*
X66950486Y-60905449D01*
X66913717Y-60920673D01*
X66913686Y-60920686D01*
X66864844Y-60944049D01*
X66749659Y-61030277D01*
X66749655Y-61030280D01*
X66721524Y-61058412D01*
X66721510Y-61058426D01*
X66685350Y-61098684D01*
X66611937Y-61222428D01*
X66611937Y-61222429D01*
X66596729Y-61259148D01*
X66596709Y-61259200D01*
X66578727Y-61310179D01*
X66578726Y-61310184D01*
X66558250Y-61452601D01*
X66558250Y-62342406D01*
X66561156Y-62396524D01*
X66561156Y-62396525D01*
X66586655Y-62496356D01*
X66584173Y-62566182D01*
X66583452Y-62568286D01*
X66579207Y-62580322D01*
X66579206Y-62580325D01*
X66558750Y-62722601D01*
X66558750Y-63612405D01*
X66561653Y-63666471D01*
X66586729Y-63764646D01*
X66584247Y-63834472D01*
X66583524Y-63836581D01*
X66578726Y-63850180D01*
X66578726Y-63850183D01*
X66558250Y-63992601D01*
X66558250Y-64788856D01*
X66538565Y-64855895D01*
X66485761Y-64901650D01*
X66416603Y-64911594D01*
X66410062Y-64910474D01*
X66392594Y-64907000D01*
X66392592Y-64907000D01*
X66234908Y-64907000D01*
X66234905Y-64907000D01*
X66080260Y-64937761D01*
X66080253Y-64937763D01*
X66021951Y-64961912D01*
X65952482Y-64969380D01*
X65890003Y-64938104D01*
X65854351Y-64878015D01*
X65850500Y-64847350D01*
X65850500Y-56550097D01*
X65870185Y-56483058D01*
X65886819Y-56462416D01*
X67462416Y-54886819D01*
X67523739Y-54853334D01*
X67550097Y-54850500D01*
X103021982Y-54850500D01*
X103089021Y-54870185D01*
X103125086Y-54905612D01*
X103128211Y-54910290D01*
X103239707Y-55021786D01*
X103239711Y-55021789D01*
X103370814Y-55109390D01*
X103370827Y-55109397D01*
X103516498Y-55169735D01*
X103516503Y-55169737D01*
X103671153Y-55200499D01*
X103671156Y-55200500D01*
X103671158Y-55200500D01*
X103828844Y-55200500D01*
X103828845Y-55200499D01*
X103983497Y-55169737D01*
X104129179Y-55109394D01*
X104260289Y-55021789D01*
X104371789Y-54910289D01*
X104459394Y-54779179D01*
X104519737Y-54633497D01*
X104550500Y-54478842D01*
X104550500Y-54474500D01*
X104570185Y-54407461D01*
X104622989Y-54361706D01*
X104674500Y-54350500D01*
X106149903Y-54350500D01*
X106216942Y-54370185D01*
X106237584Y-54386819D01*
X107363181Y-55512416D01*
X107396666Y-55573739D01*
X107399500Y-55600097D01*
X107399500Y-63420234D01*
X107379815Y-63487273D01*
X107378602Y-63489125D01*
X107290609Y-63620814D01*
X107290602Y-63620827D01*
X107230264Y-63766498D01*
X107230261Y-63766510D01*
X107199500Y-63921153D01*
X107199500Y-64078846D01*
X107230261Y-64233489D01*
X107230264Y-64233501D01*
X107290602Y-64379172D01*
X107290609Y-64379185D01*
X107378210Y-64510288D01*
X107378213Y-64510292D01*
X107489707Y-64621786D01*
X107489711Y-64621789D01*
X107620814Y-64709390D01*
X107620827Y-64709397D01*
X107766498Y-64769735D01*
X107766503Y-64769737D01*
X107921153Y-64800499D01*
X107921156Y-64800500D01*
X108025500Y-64800500D01*
X108034185Y-64803050D01*
X108043147Y-64801762D01*
X108067187Y-64812740D01*
X108092539Y-64820185D01*
X108098466Y-64827025D01*
X108106703Y-64830787D01*
X108120992Y-64853021D01*
X108138294Y-64872989D01*
X108140581Y-64883503D01*
X108144477Y-64889565D01*
X108149500Y-64924500D01*
X108149500Y-65170234D01*
X108129815Y-65237273D01*
X108128602Y-65239125D01*
X108040609Y-65370814D01*
X108040602Y-65370827D01*
X107980264Y-65516498D01*
X107980261Y-65516510D01*
X107949500Y-65671153D01*
X107949500Y-65828846D01*
X107980261Y-65983489D01*
X107980264Y-65983501D01*
X108040602Y-66129172D01*
X108040609Y-66129185D01*
X108128210Y-66260288D01*
X108128213Y-66260292D01*
X108239707Y-66371786D01*
X108239711Y-66371789D01*
X108370814Y-66459390D01*
X108370827Y-66459397D01*
X108516498Y-66519735D01*
X108516503Y-66519737D01*
X108671153Y-66550499D01*
X108671156Y-66550500D01*
X108671158Y-66550500D01*
X108828844Y-66550500D01*
X108828845Y-66550499D01*
X108983497Y-66519737D01*
X109129179Y-66459394D01*
X109260289Y-66371789D01*
X109371789Y-66260289D01*
X109459394Y-66129179D01*
X109519737Y-65983497D01*
X109550500Y-65828842D01*
X109550500Y-65671158D01*
X109550500Y-65671155D01*
X109550499Y-65671153D01*
X109519738Y-65516510D01*
X109519737Y-65516503D01*
X109499647Y-65468000D01*
X109459397Y-65370827D01*
X109459390Y-65370814D01*
X109371398Y-65239125D01*
X109350520Y-65172447D01*
X109350500Y-65170234D01*
X109350500Y-55170945D01*
X109350500Y-55170943D01*
X109324658Y-55074499D01*
X109309577Y-55018215D01*
X109259387Y-54931284D01*
X109230520Y-54881284D01*
X109118716Y-54769480D01*
X109118715Y-54769479D01*
X109114385Y-54765149D01*
X109114374Y-54765139D01*
X107237590Y-52888355D01*
X107237588Y-52888352D01*
X107118717Y-52769481D01*
X107118716Y-52769480D01*
X107031129Y-52718912D01*
X107031128Y-52718911D01*
X106981790Y-52690425D01*
X106981789Y-52690424D01*
X106969263Y-52687067D01*
X106829057Y-52649499D01*
X106670943Y-52649499D01*
X106663347Y-52649499D01*
X106663331Y-52649500D01*
X67999716Y-52649500D01*
X67932677Y-52629815D01*
X67886922Y-52577011D01*
X67876978Y-52507853D01*
X67878099Y-52501308D01*
X67900500Y-52388693D01*
X67900500Y-52211306D01*
X67900499Y-52211304D01*
X67865896Y-52037341D01*
X67865893Y-52037332D01*
X67798016Y-51873459D01*
X67798009Y-51873446D01*
X67699464Y-51725965D01*
X67699461Y-51725961D01*
X67574038Y-51600538D01*
X67574034Y-51600535D01*
X67426553Y-51501990D01*
X67426540Y-51501983D01*
X67262667Y-51434106D01*
X67262658Y-51434103D01*
X67088694Y-51399500D01*
X67088691Y-51399500D01*
X66911309Y-51399500D01*
X66911306Y-51399500D01*
X66737341Y-51434103D01*
X66737332Y-51434106D01*
X66573459Y-51501983D01*
X66573446Y-51501990D01*
X66425965Y-51600535D01*
X66425961Y-51600538D01*
X66300538Y-51725961D01*
X66300535Y-51725965D01*
X66201990Y-51873446D01*
X66201983Y-51873459D01*
X66134106Y-52037332D01*
X66134104Y-52037340D01*
X66099928Y-52209150D01*
X66067543Y-52271061D01*
X66065992Y-52272639D01*
X64347807Y-53990823D01*
X64286484Y-54024308D01*
X64284319Y-54024759D01*
X64237337Y-54034104D01*
X64237331Y-54034106D01*
X64073459Y-54101983D01*
X64073446Y-54101990D01*
X63925965Y-54200535D01*
X63925961Y-54200538D01*
X63800538Y-54325961D01*
X63800535Y-54325965D01*
X63701990Y-54473446D01*
X63701983Y-54473459D01*
X63634106Y-54637332D01*
X63634103Y-54637341D01*
X63599500Y-54811304D01*
X63599500Y-54975500D01*
X63579815Y-55042539D01*
X63527011Y-55088294D01*
X63475500Y-55099500D01*
X60779766Y-55099500D01*
X60712727Y-55079815D01*
X60710875Y-55078602D01*
X60579185Y-54990609D01*
X60579172Y-54990602D01*
X60433501Y-54930264D01*
X60433489Y-54930261D01*
X60278845Y-54899500D01*
X60278842Y-54899500D01*
X60121158Y-54899500D01*
X60121155Y-54899500D01*
X59966510Y-54930261D01*
X59966498Y-54930264D01*
X59820827Y-54990602D01*
X59820814Y-54990609D01*
X59689711Y-55078210D01*
X59689707Y-55078213D01*
X59578213Y-55189707D01*
X59578210Y-55189711D01*
X59490609Y-55320814D01*
X59490602Y-55320827D01*
X59430264Y-55466498D01*
X59430261Y-55466508D01*
X59403769Y-55599692D01*
X59371384Y-55661603D01*
X59310668Y-55696177D01*
X59282152Y-55699500D01*
X58979766Y-55699500D01*
X58912727Y-55679815D01*
X58910875Y-55678602D01*
X58779185Y-55590609D01*
X58779172Y-55590602D01*
X58633501Y-55530264D01*
X58633489Y-55530261D01*
X58478845Y-55499500D01*
X58478842Y-55499500D01*
X58321158Y-55499500D01*
X58321155Y-55499500D01*
X58166510Y-55530261D01*
X58166498Y-55530264D01*
X58020827Y-55590602D01*
X58020814Y-55590609D01*
X57889711Y-55678210D01*
X57889707Y-55678213D01*
X57778213Y-55789707D01*
X57778210Y-55789711D01*
X57690609Y-55920814D01*
X57690602Y-55920827D01*
X57630264Y-56066498D01*
X57630261Y-56066510D01*
X57599500Y-56221153D01*
X57599500Y-56378846D01*
X57630261Y-56533489D01*
X57630264Y-56533501D01*
X57690602Y-56679172D01*
X57690609Y-56679185D01*
X57778210Y-56810288D01*
X57778213Y-56810292D01*
X57889707Y-56921786D01*
X57889711Y-56921789D01*
X58020814Y-57009390D01*
X58020827Y-57009397D01*
X58166498Y-57069735D01*
X58166503Y-57069737D01*
X58321153Y-57100499D01*
X58321156Y-57100500D01*
X58321158Y-57100500D01*
X58478844Y-57100500D01*
X58478845Y-57100499D01*
X58633497Y-57069737D01*
X58779179Y-57009394D01*
X58833648Y-56972999D01*
X58910875Y-56921398D01*
X58977553Y-56900520D01*
X58979766Y-56900500D01*
X64513341Y-56900500D01*
X64520941Y-56900500D01*
X64520943Y-56900501D01*
X64525510Y-56900501D01*
X64562695Y-56911422D01*
X64592539Y-56920186D01*
X64592541Y-56920189D01*
X64592548Y-56920191D01*
X64621149Y-56953204D01*
X64638294Y-56972990D01*
X64638294Y-56972994D01*
X64638299Y-56972999D01*
X64638304Y-56973040D01*
X64649500Y-57024501D01*
X64649500Y-68019095D01*
X64629815Y-68086134D01*
X64577011Y-68131889D01*
X64572954Y-68133656D01*
X64495820Y-68165606D01*
X64495814Y-68165609D01*
X64364711Y-68253210D01*
X64364707Y-68253213D01*
X64253213Y-68364707D01*
X64253210Y-68364711D01*
X64165609Y-68495814D01*
X64165602Y-68495827D01*
X64105264Y-68641498D01*
X64105261Y-68641510D01*
X64074500Y-68796153D01*
X64074500Y-68953846D01*
X64105261Y-69108489D01*
X64105264Y-69108501D01*
X64165602Y-69254172D01*
X64165609Y-69254185D01*
X64253210Y-69385288D01*
X64253213Y-69385292D01*
X64364707Y-69496786D01*
X64364711Y-69496789D01*
X64495814Y-69584390D01*
X64495827Y-69584397D01*
X64626081Y-69638349D01*
X64641503Y-69644737D01*
X64796153Y-69675499D01*
X64796156Y-69675500D01*
X64796158Y-69675500D01*
X64953844Y-69675500D01*
X64953845Y-69675499D01*
X65108497Y-69644737D01*
X65254179Y-69584394D01*
X65385289Y-69496789D01*
X65496789Y-69385289D01*
X65584394Y-69254179D01*
X65644737Y-69108497D01*
X65675500Y-68953842D01*
X65675500Y-68953840D01*
X65675637Y-68953152D01*
X65693769Y-68909028D01*
X65700685Y-68898550D01*
X65730520Y-68868716D01*
X65799349Y-68749500D01*
X65809577Y-68731785D01*
X65850500Y-68579057D01*
X65850500Y-68420943D01*
X65850500Y-66567649D01*
X65870185Y-66500610D01*
X65922989Y-66454855D01*
X65992147Y-66444911D01*
X66021949Y-66453086D01*
X66080253Y-66477237D01*
X66217443Y-66504526D01*
X66234903Y-66507999D01*
X66234906Y-66508000D01*
X66234908Y-66508000D01*
X66392593Y-66508000D01*
X66410057Y-66504526D01*
X66479649Y-66510753D01*
X66534827Y-66553615D01*
X66558072Y-66619504D01*
X66558250Y-66626143D01*
X66558250Y-67422406D01*
X66561156Y-67476524D01*
X66561156Y-67476528D01*
X66586432Y-67575486D01*
X66583950Y-67645311D01*
X66583229Y-67647414D01*
X66578729Y-67660172D01*
X66578726Y-67660182D01*
X66578726Y-67660184D01*
X66577855Y-67666246D01*
X66558250Y-67802601D01*
X66558250Y-68692406D01*
X66561156Y-68746524D01*
X66561156Y-68746528D01*
X66586432Y-68845486D01*
X66583950Y-68915311D01*
X66583229Y-68917414D01*
X66578729Y-68930172D01*
X66578726Y-68930182D01*
X66578726Y-68930184D01*
X66558250Y-69072600D01*
X66558250Y-69962400D01*
X66561156Y-70016525D01*
X66596763Y-70155929D01*
X66611993Y-70192679D01*
X66611996Y-70192685D01*
X66612005Y-70192706D01*
X66635307Y-70241400D01*
X66635313Y-70241410D01*
X66721538Y-70356592D01*
X66749668Y-70384722D01*
X66749677Y-70384730D01*
X66749686Y-70384739D01*
X66782029Y-70413790D01*
X66789946Y-70420901D01*
X66890608Y-70480619D01*
X66913687Y-70494311D01*
X66950416Y-70509523D01*
X66950425Y-70509526D01*
X66950439Y-70509532D01*
X66980513Y-70520131D01*
X67001684Y-70527594D01*
X67001685Y-70527594D01*
X67001688Y-70527595D01*
X67143086Y-70547852D01*
X67206656Y-70576845D01*
X67244460Y-70635604D01*
X67249500Y-70670599D01*
X67249500Y-74375500D01*
X67229815Y-74442539D01*
X67177011Y-74488294D01*
X67125500Y-74499500D01*
X52124500Y-74499500D01*
X52057461Y-74479815D01*
X52011706Y-74427011D01*
X52000500Y-74375500D01*
X52000500Y-53262415D01*
X52020185Y-53195376D01*
X52072989Y-53149621D01*
X52142147Y-53139677D01*
X52205703Y-53168702D01*
X52239061Y-53214963D01*
X52291830Y-53342361D01*
X52291837Y-53342376D01*
X52416400Y-53558126D01*
X52568060Y-53755774D01*
X52568066Y-53755781D01*
X52744218Y-53931933D01*
X52744225Y-53931939D01*
X52941873Y-54083599D01*
X53157623Y-54208162D01*
X53157638Y-54208169D01*
X53256825Y-54249253D01*
X53387793Y-54303502D01*
X53628435Y-54367982D01*
X53875435Y-54400500D01*
X53875442Y-54400500D01*
X54124558Y-54400500D01*
X54124565Y-54400500D01*
X54371565Y-54367982D01*
X54612207Y-54303502D01*
X54842373Y-54208164D01*
X55058127Y-54083599D01*
X55255776Y-53931938D01*
X55431938Y-53755776D01*
X55583599Y-53558127D01*
X55708164Y-53342373D01*
X55803502Y-53112207D01*
X55867982Y-52871565D01*
X55900500Y-52624565D01*
X55900500Y-52375435D01*
X55867982Y-52128435D01*
X55803502Y-51887793D01*
X55708166Y-51657633D01*
X55708162Y-51657623D01*
X55583599Y-51441873D01*
X55431939Y-51244225D01*
X55431933Y-51244218D01*
X55255781Y-51068066D01*
X55255774Y-51068060D01*
X55058126Y-50916400D01*
X54842376Y-50791837D01*
X54842361Y-50791830D01*
X54612207Y-50696498D01*
X54371561Y-50632017D01*
X54124575Y-50599501D01*
X54124570Y-50599500D01*
X54124565Y-50599500D01*
X53875435Y-50599500D01*
X53875429Y-50599500D01*
X53875424Y-50599501D01*
X53628438Y-50632017D01*
X53387792Y-50696498D01*
X53157638Y-50791830D01*
X53157623Y-50791837D01*
X52941873Y-50916400D01*
X52744225Y-51068060D01*
X52744218Y-51068066D01*
X52568066Y-51244218D01*
X52568060Y-51244225D01*
X52416400Y-51441873D01*
X52291837Y-51657623D01*
X52291833Y-51657633D01*
X52239061Y-51785037D01*
X52195220Y-51839440D01*
X52128926Y-51861505D01*
X52061227Y-51844226D01*
X52013616Y-51793089D01*
X52000500Y-51737584D01*
X52000500Y-47624500D01*
X52020185Y-47557461D01*
X52072989Y-47511706D01*
X52124500Y-47500500D01*
X110375500Y-47500500D01*
X110442539Y-47520185D01*
G37*
G04 #@! TD.AperFunction*
G04 #@! TA.AperFunction,Conductor*
G36*
X103615270Y-68321717D02*
G01*
X103615270Y-68321716D01*
X103654622Y-68267555D01*
X103659232Y-68258507D01*
X103707205Y-68207709D01*
X103775025Y-68190912D01*
X103841161Y-68213447D01*
X103880204Y-68258504D01*
X103884949Y-68267817D01*
X104009890Y-68439786D01*
X104160213Y-68590109D01*
X104332182Y-68715050D01*
X104340946Y-68719516D01*
X104391742Y-68767491D01*
X104408536Y-68835312D01*
X104385998Y-68901447D01*
X104340946Y-68940484D01*
X104332182Y-68944949D01*
X104160213Y-69069890D01*
X104009890Y-69220213D01*
X103884949Y-69392182D01*
X103880484Y-69400946D01*
X103832509Y-69451742D01*
X103764688Y-69468536D01*
X103698553Y-69445998D01*
X103659516Y-69400946D01*
X103655050Y-69392182D01*
X103530109Y-69220213D01*
X103379786Y-69069890D01*
X103207817Y-68944949D01*
X103198504Y-68940204D01*
X103147707Y-68892230D01*
X103130912Y-68824409D01*
X103153449Y-68758274D01*
X103198507Y-68719232D01*
X103207555Y-68714622D01*
X103261716Y-68675270D01*
X103261717Y-68675270D01*
X102521446Y-67935000D01*
X102549370Y-67935000D01*
X102644745Y-67909444D01*
X102730255Y-67860075D01*
X102800075Y-67790255D01*
X102849444Y-67704745D01*
X102875000Y-67609370D01*
X102875000Y-67581446D01*
X103615270Y-68321717D01*
G37*
G04 #@! TD.AperFunction*
G04 #@! TA.AperFunction,Conductor*
G36*
X103841444Y-65673999D02*
G01*
X103880486Y-65719056D01*
X103884951Y-65727820D01*
X104009890Y-65899786D01*
X104160213Y-66050109D01*
X104332182Y-66175050D01*
X104340946Y-66179516D01*
X104391742Y-66227491D01*
X104408536Y-66295312D01*
X104385998Y-66361447D01*
X104340946Y-66400484D01*
X104332182Y-66404949D01*
X104160213Y-66529890D01*
X104009890Y-66680213D01*
X103884949Y-66852182D01*
X103880202Y-66861499D01*
X103832227Y-66912293D01*
X103764405Y-66929087D01*
X103698271Y-66906548D01*
X103659234Y-66861495D01*
X103654626Y-66852452D01*
X103615270Y-66798282D01*
X103615269Y-66798282D01*
X102875000Y-67538552D01*
X102875000Y-67510630D01*
X102849444Y-67415255D01*
X102800075Y-67329745D01*
X102730255Y-67259925D01*
X102644745Y-67210556D01*
X102549370Y-67185000D01*
X102521447Y-67185000D01*
X103261716Y-66444728D01*
X103207547Y-66405373D01*
X103207547Y-66405372D01*
X103198500Y-66400763D01*
X103147706Y-66352788D01*
X103130912Y-66284966D01*
X103153451Y-66218832D01*
X103198508Y-66179793D01*
X103207816Y-66175051D01*
X103378394Y-66051120D01*
X103379786Y-66050109D01*
X103379788Y-66050106D01*
X103379792Y-66050104D01*
X103530104Y-65899792D01*
X103530106Y-65899788D01*
X103530109Y-65899786D01*
X103655048Y-65727820D01*
X103655047Y-65727820D01*
X103655051Y-65727816D01*
X103659514Y-65719054D01*
X103707488Y-65668259D01*
X103775308Y-65651463D01*
X103841444Y-65673999D01*
G37*
G04 #@! TD.AperFunction*
G04 #@! TA.AperFunction,Conductor*
G36*
X104665000Y-62529370D02*
G01*
X104690556Y-62624745D01*
X104739925Y-62710255D01*
X104809745Y-62780075D01*
X104895255Y-62829444D01*
X104990630Y-62855000D01*
X105018554Y-62855000D01*
X104278282Y-63595269D01*
X104278282Y-63595270D01*
X104332452Y-63634626D01*
X104332451Y-63634626D01*
X104341495Y-63639234D01*
X104392292Y-63687208D01*
X104409087Y-63755029D01*
X104386550Y-63821164D01*
X104341499Y-63860202D01*
X104332182Y-63864949D01*
X104160213Y-63989890D01*
X104009890Y-64140213D01*
X103884949Y-64312182D01*
X103880484Y-64320946D01*
X103832509Y-64371742D01*
X103764688Y-64388536D01*
X103698553Y-64365998D01*
X103659516Y-64320946D01*
X103655050Y-64312182D01*
X103530109Y-64140213D01*
X103379786Y-63989890D01*
X103207820Y-63864951D01*
X103207115Y-63864591D01*
X103199054Y-63860485D01*
X103148259Y-63812512D01*
X103131463Y-63744692D01*
X103153999Y-63678556D01*
X103199054Y-63639515D01*
X103207816Y-63635051D01*
X103378394Y-63511120D01*
X103379786Y-63510109D01*
X103379788Y-63510106D01*
X103379792Y-63510104D01*
X103530104Y-63359792D01*
X103530106Y-63359788D01*
X103530109Y-63359786D01*
X103615890Y-63241717D01*
X103655051Y-63187816D01*
X103659793Y-63178508D01*
X103707763Y-63127711D01*
X103775583Y-63110911D01*
X103841719Y-63133445D01*
X103880763Y-63178500D01*
X103885373Y-63187547D01*
X103924728Y-63241716D01*
X104665000Y-62501445D01*
X104665000Y-62529370D01*
G37*
G04 #@! TD.AperFunction*
G04 #@! TA.AperFunction,Conductor*
G36*
X103841444Y-60593999D02*
G01*
X103880486Y-60639056D01*
X103884951Y-60647820D01*
X104009890Y-60819786D01*
X104160213Y-60970109D01*
X104332179Y-61095048D01*
X104332181Y-61095049D01*
X104332184Y-61095051D01*
X104341493Y-61099794D01*
X104392290Y-61147766D01*
X104409087Y-61215587D01*
X104386552Y-61281722D01*
X104341505Y-61320760D01*
X104332446Y-61325376D01*
X104332440Y-61325380D01*
X104278282Y-61364727D01*
X104278282Y-61364728D01*
X105018554Y-62105000D01*
X104990630Y-62105000D01*
X104895255Y-62130556D01*
X104809745Y-62179925D01*
X104739925Y-62249745D01*
X104690556Y-62335255D01*
X104665000Y-62430630D01*
X104665000Y-62458554D01*
X103924728Y-61718282D01*
X103924727Y-61718282D01*
X103885380Y-61772440D01*
X103885376Y-61772446D01*
X103880760Y-61781505D01*
X103832781Y-61832297D01*
X103764959Y-61849087D01*
X103698826Y-61826543D01*
X103659794Y-61781493D01*
X103655051Y-61772184D01*
X103655049Y-61772181D01*
X103655048Y-61772179D01*
X103530109Y-61600213D01*
X103379786Y-61449890D01*
X103207820Y-61324951D01*
X103199600Y-61320763D01*
X103199054Y-61320485D01*
X103148259Y-61272512D01*
X103131463Y-61204692D01*
X103153999Y-61138556D01*
X103199054Y-61099515D01*
X103207816Y-61095051D01*
X103239729Y-61071865D01*
X103379786Y-60970109D01*
X103379788Y-60970106D01*
X103379792Y-60970104D01*
X103530104Y-60819792D01*
X103530106Y-60819788D01*
X103530109Y-60819786D01*
X103655048Y-60647820D01*
X103655047Y-60647820D01*
X103655051Y-60647816D01*
X103659514Y-60639054D01*
X103707488Y-60588259D01*
X103775308Y-60571463D01*
X103841444Y-60593999D01*
G37*
G04 #@! TD.AperFunction*
G04 #@! TD*
M02*
