G04 #@! TF.GenerationSoftware,KiCad,Pcbnew,9.0.5*
G04 #@! TF.CreationDate,2025-10-23T20:31:54+13:00*
G04 #@! TF.ProjectId,Gateway_PCB,47617465-7761-4795-9f50-43422e6b6963,rev?*
G04 #@! TF.SameCoordinates,Original*
G04 #@! TF.FileFunction,Legend,Top*
G04 #@! TF.FilePolarity,Positive*
%FSLAX46Y46*%
G04 Gerber Fmt 4.6, Leading zero omitted, Abs format (unit mm)*
G04 Created by KiCad (PCBNEW 9.0.5) date 2025-10-23 20:31:54*
%MOMM*%
%LPD*%
G01*
G04 APERTURE LIST*
G04 Aperture macros list*
%AMRoundRect*
0 Rectangle with rounded corners*
0 $1 Rounding radius*
0 $2 $3 $4 $5 $6 $7 $8 $9 X,Y pos of 4 corners*
0 Add a 4 corners polygon primitive as box body*
4,1,4,$2,$3,$4,$5,$6,$7,$8,$9,$2,$3,0*
0 Add four circle primitives for the rounded corners*
1,1,$1+$1,$2,$3*
1,1,$1+$1,$4,$5*
1,1,$1+$1,$6,$7*
1,1,$1+$1,$8,$9*
0 Add four rect primitives between the rounded corners*
20,1,$1+$1,$2,$3,$4,$5,0*
20,1,$1+$1,$4,$5,$6,$7,0*
20,1,$1+$1,$6,$7,$8,$9,0*
20,1,$1+$1,$8,$9,$2,$3,0*%
%AMFreePoly0*
4,1,19,0.099991,0.750000,0.099991,0.100009,0.099981,0.099999,0.099991,0.080110,0.084771,0.043360,0.084771,0.043359,0.056641,0.015229,0.056640,0.015229,0.019890,-0.000001,-0.869910,-0.000001,-0.906660,0.015219,-0.906661,0.015219,-0.934791,0.043349,-0.934791,0.043350,-0.950011,0.080110,-0.950011,0.750000,-0.950010,0.750001,0.099990,0.750001,0.099991,0.750000,0.099991,0.750000,
$1*%
G04 Aperture macros list end*
%ADD10C,0.100000*%
%ADD11C,0.150000*%
%ADD12C,0.300000*%
%ADD13C,0.120000*%
%ADD14C,0.800000*%
%ADD15C,1.000000*%
%ADD16C,1.100000*%
%ADD17C,1.045000*%
%ADD18FreePoly0,270.000000*%
%ADD19RoundRect,0.225000X-0.250000X0.225000X-0.250000X-0.225000X0.250000X-0.225000X0.250000X0.225000X0*%
%ADD20RoundRect,0.200000X0.200000X0.275000X-0.200000X0.275000X-0.200000X-0.275000X0.200000X-0.275000X0*%
%ADD21R,1.700000X1.700000*%
%ADD22C,1.700000*%
%ADD23RoundRect,0.218750X-0.218750X-0.256250X0.218750X-0.256250X0.218750X0.256250X-0.218750X0.256250X0*%
%ADD24RoundRect,0.200000X0.275000X-0.200000X0.275000X0.200000X-0.275000X0.200000X-0.275000X-0.200000X0*%
G04 APERTURE END LIST*
D10*
X52256265Y-67592133D02*
X52865789Y-67592133D01*
X52561027Y-67896895D02*
X52561027Y-67287371D01*
X73603884Y-49248609D02*
X73937217Y-49248609D01*
X74080074Y-49772419D02*
X73603884Y-49772419D01*
X73603884Y-49772419D02*
X73603884Y-48772419D01*
X73603884Y-48772419D02*
X74080074Y-48772419D01*
X74508646Y-49105752D02*
X74508646Y-49772419D01*
X74508646Y-49200990D02*
X74556265Y-49153371D01*
X74556265Y-49153371D02*
X74651503Y-49105752D01*
X74651503Y-49105752D02*
X74794360Y-49105752D01*
X74794360Y-49105752D02*
X74889598Y-49153371D01*
X74889598Y-49153371D02*
X74937217Y-49248609D01*
X74937217Y-49248609D02*
X74937217Y-49772419D01*
X75794360Y-49724800D02*
X75699122Y-49772419D01*
X75699122Y-49772419D02*
X75508646Y-49772419D01*
X75508646Y-49772419D02*
X75413408Y-49724800D01*
X75413408Y-49724800D02*
X75365789Y-49629561D01*
X75365789Y-49629561D02*
X75365789Y-49248609D01*
X75365789Y-49248609D02*
X75413408Y-49153371D01*
X75413408Y-49153371D02*
X75508646Y-49105752D01*
X75508646Y-49105752D02*
X75699122Y-49105752D01*
X75699122Y-49105752D02*
X75794360Y-49153371D01*
X75794360Y-49153371D02*
X75841979Y-49248609D01*
X75841979Y-49248609D02*
X75841979Y-49343847D01*
X75841979Y-49343847D02*
X75365789Y-49439085D01*
X76270551Y-49772419D02*
X76270551Y-49105752D01*
X76270551Y-49296228D02*
X76318170Y-49200990D01*
X76318170Y-49200990D02*
X76365789Y-49153371D01*
X76365789Y-49153371D02*
X76461027Y-49105752D01*
X76461027Y-49105752D02*
X76556265Y-49105752D01*
X77318170Y-49105752D02*
X77318170Y-49915276D01*
X77318170Y-49915276D02*
X77270551Y-50010514D01*
X77270551Y-50010514D02*
X77222932Y-50058133D01*
X77222932Y-50058133D02*
X77127694Y-50105752D01*
X77127694Y-50105752D02*
X76984837Y-50105752D01*
X76984837Y-50105752D02*
X76889599Y-50058133D01*
X77318170Y-49724800D02*
X77222932Y-49772419D01*
X77222932Y-49772419D02*
X77032456Y-49772419D01*
X77032456Y-49772419D02*
X76937218Y-49724800D01*
X76937218Y-49724800D02*
X76889599Y-49677180D01*
X76889599Y-49677180D02*
X76841980Y-49581942D01*
X76841980Y-49581942D02*
X76841980Y-49296228D01*
X76841980Y-49296228D02*
X76889599Y-49200990D01*
X76889599Y-49200990D02*
X76937218Y-49153371D01*
X76937218Y-49153371D02*
X77032456Y-49105752D01*
X77032456Y-49105752D02*
X77222932Y-49105752D01*
X77222932Y-49105752D02*
X77318170Y-49153371D01*
X77699123Y-49105752D02*
X77937218Y-49772419D01*
X78175313Y-49105752D02*
X77937218Y-49772419D01*
X77937218Y-49772419D02*
X77841980Y-50010514D01*
X77841980Y-50010514D02*
X77794361Y-50058133D01*
X77794361Y-50058133D02*
X77699123Y-50105752D01*
X79651504Y-49248609D02*
X79318171Y-49248609D01*
X79318171Y-49772419D02*
X79318171Y-48772419D01*
X79318171Y-48772419D02*
X79794361Y-48772419D01*
X80318171Y-49772419D02*
X80222933Y-49724800D01*
X80222933Y-49724800D02*
X80175314Y-49629561D01*
X80175314Y-49629561D02*
X80175314Y-48772419D01*
X80841981Y-49772419D02*
X80746743Y-49724800D01*
X80746743Y-49724800D02*
X80699124Y-49677180D01*
X80699124Y-49677180D02*
X80651505Y-49581942D01*
X80651505Y-49581942D02*
X80651505Y-49296228D01*
X80651505Y-49296228D02*
X80699124Y-49200990D01*
X80699124Y-49200990D02*
X80746743Y-49153371D01*
X80746743Y-49153371D02*
X80841981Y-49105752D01*
X80841981Y-49105752D02*
X80984838Y-49105752D01*
X80984838Y-49105752D02*
X81080076Y-49153371D01*
X81080076Y-49153371D02*
X81127695Y-49200990D01*
X81127695Y-49200990D02*
X81175314Y-49296228D01*
X81175314Y-49296228D02*
X81175314Y-49581942D01*
X81175314Y-49581942D02*
X81127695Y-49677180D01*
X81127695Y-49677180D02*
X81080076Y-49724800D01*
X81080076Y-49724800D02*
X80984838Y-49772419D01*
X80984838Y-49772419D02*
X80841981Y-49772419D01*
X81508648Y-49105752D02*
X81699124Y-49772419D01*
X81699124Y-49772419D02*
X81889600Y-49296228D01*
X81889600Y-49296228D02*
X82080076Y-49772419D01*
X82080076Y-49772419D02*
X82270552Y-49105752D01*
X83318172Y-48772419D02*
X83556267Y-49772419D01*
X83556267Y-49772419D02*
X83746743Y-49058133D01*
X83746743Y-49058133D02*
X83937219Y-49772419D01*
X83937219Y-49772419D02*
X84175315Y-48772419D01*
X84984838Y-49772419D02*
X84984838Y-49248609D01*
X84984838Y-49248609D02*
X84937219Y-49153371D01*
X84937219Y-49153371D02*
X84841981Y-49105752D01*
X84841981Y-49105752D02*
X84651505Y-49105752D01*
X84651505Y-49105752D02*
X84556267Y-49153371D01*
X84984838Y-49724800D02*
X84889600Y-49772419D01*
X84889600Y-49772419D02*
X84651505Y-49772419D01*
X84651505Y-49772419D02*
X84556267Y-49724800D01*
X84556267Y-49724800D02*
X84508648Y-49629561D01*
X84508648Y-49629561D02*
X84508648Y-49534323D01*
X84508648Y-49534323D02*
X84556267Y-49439085D01*
X84556267Y-49439085D02*
X84651505Y-49391466D01*
X84651505Y-49391466D02*
X84889600Y-49391466D01*
X84889600Y-49391466D02*
X84984838Y-49343847D01*
X85603886Y-49772419D02*
X85508648Y-49724800D01*
X85508648Y-49724800D02*
X85461029Y-49629561D01*
X85461029Y-49629561D02*
X85461029Y-48772419D01*
X86127696Y-49772419D02*
X86032458Y-49724800D01*
X86032458Y-49724800D02*
X85984839Y-49629561D01*
X85984839Y-49629561D02*
X85984839Y-48772419D01*
X87270554Y-49772419D02*
X87270554Y-48772419D01*
X87270554Y-48772419D02*
X87651506Y-48772419D01*
X87651506Y-48772419D02*
X87746744Y-48820038D01*
X87746744Y-48820038D02*
X87794363Y-48867657D01*
X87794363Y-48867657D02*
X87841982Y-48962895D01*
X87841982Y-48962895D02*
X87841982Y-49105752D01*
X87841982Y-49105752D02*
X87794363Y-49200990D01*
X87794363Y-49200990D02*
X87746744Y-49248609D01*
X87746744Y-49248609D02*
X87651506Y-49296228D01*
X87651506Y-49296228D02*
X87270554Y-49296228D01*
X88270554Y-49772419D02*
X88270554Y-49105752D01*
X88270554Y-49296228D02*
X88318173Y-49200990D01*
X88318173Y-49200990D02*
X88365792Y-49153371D01*
X88365792Y-49153371D02*
X88461030Y-49105752D01*
X88461030Y-49105752D02*
X88556268Y-49105752D01*
X89032459Y-49772419D02*
X88937221Y-49724800D01*
X88937221Y-49724800D02*
X88889602Y-49677180D01*
X88889602Y-49677180D02*
X88841983Y-49581942D01*
X88841983Y-49581942D02*
X88841983Y-49296228D01*
X88841983Y-49296228D02*
X88889602Y-49200990D01*
X88889602Y-49200990D02*
X88937221Y-49153371D01*
X88937221Y-49153371D02*
X89032459Y-49105752D01*
X89032459Y-49105752D02*
X89175316Y-49105752D01*
X89175316Y-49105752D02*
X89270554Y-49153371D01*
X89270554Y-49153371D02*
X89318173Y-49200990D01*
X89318173Y-49200990D02*
X89365792Y-49296228D01*
X89365792Y-49296228D02*
X89365792Y-49581942D01*
X89365792Y-49581942D02*
X89318173Y-49677180D01*
X89318173Y-49677180D02*
X89270554Y-49724800D01*
X89270554Y-49724800D02*
X89175316Y-49772419D01*
X89175316Y-49772419D02*
X89032459Y-49772419D01*
X89794364Y-49105752D02*
X89794364Y-49962895D01*
X89794364Y-49962895D02*
X89746745Y-50058133D01*
X89746745Y-50058133D02*
X89651507Y-50105752D01*
X89651507Y-50105752D02*
X89603888Y-50105752D01*
X89794364Y-48772419D02*
X89746745Y-48820038D01*
X89746745Y-48820038D02*
X89794364Y-48867657D01*
X89794364Y-48867657D02*
X89841983Y-48820038D01*
X89841983Y-48820038D02*
X89794364Y-48772419D01*
X89794364Y-48772419D02*
X89794364Y-48867657D01*
X90651506Y-49724800D02*
X90556268Y-49772419D01*
X90556268Y-49772419D02*
X90365792Y-49772419D01*
X90365792Y-49772419D02*
X90270554Y-49724800D01*
X90270554Y-49724800D02*
X90222935Y-49629561D01*
X90222935Y-49629561D02*
X90222935Y-49248609D01*
X90222935Y-49248609D02*
X90270554Y-49153371D01*
X90270554Y-49153371D02*
X90365792Y-49105752D01*
X90365792Y-49105752D02*
X90556268Y-49105752D01*
X90556268Y-49105752D02*
X90651506Y-49153371D01*
X90651506Y-49153371D02*
X90699125Y-49248609D01*
X90699125Y-49248609D02*
X90699125Y-49343847D01*
X90699125Y-49343847D02*
X90222935Y-49439085D01*
X91556268Y-49724800D02*
X91461030Y-49772419D01*
X91461030Y-49772419D02*
X91270554Y-49772419D01*
X91270554Y-49772419D02*
X91175316Y-49724800D01*
X91175316Y-49724800D02*
X91127697Y-49677180D01*
X91127697Y-49677180D02*
X91080078Y-49581942D01*
X91080078Y-49581942D02*
X91080078Y-49296228D01*
X91080078Y-49296228D02*
X91127697Y-49200990D01*
X91127697Y-49200990D02*
X91175316Y-49153371D01*
X91175316Y-49153371D02*
X91270554Y-49105752D01*
X91270554Y-49105752D02*
X91461030Y-49105752D01*
X91461030Y-49105752D02*
X91556268Y-49153371D01*
X91841983Y-49105752D02*
X92222935Y-49105752D01*
X91984840Y-48772419D02*
X91984840Y-49629561D01*
X91984840Y-49629561D02*
X92032459Y-49724800D01*
X92032459Y-49724800D02*
X92127697Y-49772419D01*
X92127697Y-49772419D02*
X92222935Y-49772419D01*
X64736265Y-51092133D02*
X65345789Y-51092133D01*
X65041027Y-51396895D02*
X65041027Y-50787371D01*
X42952657Y-61761904D02*
X42905038Y-61714285D01*
X42905038Y-61714285D02*
X42857419Y-61619047D01*
X42857419Y-61619047D02*
X42857419Y-61380952D01*
X42857419Y-61380952D02*
X42905038Y-61285714D01*
X42905038Y-61285714D02*
X42952657Y-61238095D01*
X42952657Y-61238095D02*
X43047895Y-61190476D01*
X43047895Y-61190476D02*
X43143133Y-61190476D01*
X43143133Y-61190476D02*
X43285990Y-61238095D01*
X43285990Y-61238095D02*
X43857419Y-61809523D01*
X43857419Y-61809523D02*
X43857419Y-61190476D01*
X43285990Y-60619047D02*
X43238371Y-60714285D01*
X43238371Y-60714285D02*
X43190752Y-60761904D01*
X43190752Y-60761904D02*
X43095514Y-60809523D01*
X43095514Y-60809523D02*
X43047895Y-60809523D01*
X43047895Y-60809523D02*
X42952657Y-60761904D01*
X42952657Y-60761904D02*
X42905038Y-60714285D01*
X42905038Y-60714285D02*
X42857419Y-60619047D01*
X42857419Y-60619047D02*
X42857419Y-60428571D01*
X42857419Y-60428571D02*
X42905038Y-60333333D01*
X42905038Y-60333333D02*
X42952657Y-60285714D01*
X42952657Y-60285714D02*
X43047895Y-60238095D01*
X43047895Y-60238095D02*
X43095514Y-60238095D01*
X43095514Y-60238095D02*
X43190752Y-60285714D01*
X43190752Y-60285714D02*
X43238371Y-60333333D01*
X43238371Y-60333333D02*
X43285990Y-60428571D01*
X43285990Y-60428571D02*
X43285990Y-60619047D01*
X43285990Y-60619047D02*
X43333609Y-60714285D01*
X43333609Y-60714285D02*
X43381228Y-60761904D01*
X43381228Y-60761904D02*
X43476466Y-60809523D01*
X43476466Y-60809523D02*
X43666942Y-60809523D01*
X43666942Y-60809523D02*
X43762180Y-60761904D01*
X43762180Y-60761904D02*
X43809800Y-60714285D01*
X43809800Y-60714285D02*
X43857419Y-60619047D01*
X43857419Y-60619047D02*
X43857419Y-60428571D01*
X43857419Y-60428571D02*
X43809800Y-60333333D01*
X43809800Y-60333333D02*
X43762180Y-60285714D01*
X43762180Y-60285714D02*
X43666942Y-60238095D01*
X43666942Y-60238095D02*
X43476466Y-60238095D01*
X43476466Y-60238095D02*
X43381228Y-60285714D01*
X43381228Y-60285714D02*
X43333609Y-60333333D01*
X43333609Y-60333333D02*
X43285990Y-60428571D01*
X51000000Y-47000000D02*
X43913580Y-47000000D01*
X43913580Y-75000000D02*
X51000000Y-75000000D01*
X44500000Y-47000000D02*
X44500000Y-75000000D01*
X44500000Y-47000000D02*
X45086421Y-48126504D01*
X44500000Y-47000000D02*
X43913579Y-48126504D01*
X44500000Y-75000000D02*
X43913579Y-73873496D01*
X44500000Y-75000000D02*
X45086421Y-73873496D01*
X80297619Y-77357419D02*
X79821429Y-77357419D01*
X79821429Y-77357419D02*
X79773810Y-77833609D01*
X79773810Y-77833609D02*
X79821429Y-77785990D01*
X79821429Y-77785990D02*
X79916667Y-77738371D01*
X79916667Y-77738371D02*
X80154762Y-77738371D01*
X80154762Y-77738371D02*
X80250000Y-77785990D01*
X80250000Y-77785990D02*
X80297619Y-77833609D01*
X80297619Y-77833609D02*
X80345238Y-77928847D01*
X80345238Y-77928847D02*
X80345238Y-78166942D01*
X80345238Y-78166942D02*
X80297619Y-78262180D01*
X80297619Y-78262180D02*
X80250000Y-78309800D01*
X80250000Y-78309800D02*
X80154762Y-78357419D01*
X80154762Y-78357419D02*
X79916667Y-78357419D01*
X79916667Y-78357419D02*
X79821429Y-78309800D01*
X79821429Y-78309800D02*
X79773810Y-78262180D01*
X80821429Y-78357419D02*
X81011905Y-78357419D01*
X81011905Y-78357419D02*
X81107143Y-78309800D01*
X81107143Y-78309800D02*
X81154762Y-78262180D01*
X81154762Y-78262180D02*
X81250000Y-78119323D01*
X81250000Y-78119323D02*
X81297619Y-77928847D01*
X81297619Y-77928847D02*
X81297619Y-77547895D01*
X81297619Y-77547895D02*
X81250000Y-77452657D01*
X81250000Y-77452657D02*
X81202381Y-77405038D01*
X81202381Y-77405038D02*
X81107143Y-77357419D01*
X81107143Y-77357419D02*
X80916667Y-77357419D01*
X80916667Y-77357419D02*
X80821429Y-77405038D01*
X80821429Y-77405038D02*
X80773810Y-77452657D01*
X80773810Y-77452657D02*
X80726191Y-77547895D01*
X80726191Y-77547895D02*
X80726191Y-77785990D01*
X80726191Y-77785990D02*
X80773810Y-77881228D01*
X80773810Y-77881228D02*
X80821429Y-77928847D01*
X80821429Y-77928847D02*
X80916667Y-77976466D01*
X80916667Y-77976466D02*
X81107143Y-77976466D01*
X81107143Y-77976466D02*
X81202381Y-77928847D01*
X81202381Y-77928847D02*
X81250000Y-77881228D01*
X81250000Y-77881228D02*
X81297619Y-77785990D01*
X81726191Y-78262180D02*
X81773810Y-78309800D01*
X81773810Y-78309800D02*
X81726191Y-78357419D01*
X81726191Y-78357419D02*
X81678572Y-78309800D01*
X81678572Y-78309800D02*
X81726191Y-78262180D01*
X81726191Y-78262180D02*
X81726191Y-78357419D01*
X82678571Y-77357419D02*
X82202381Y-77357419D01*
X82202381Y-77357419D02*
X82154762Y-77833609D01*
X82154762Y-77833609D02*
X82202381Y-77785990D01*
X82202381Y-77785990D02*
X82297619Y-77738371D01*
X82297619Y-77738371D02*
X82535714Y-77738371D01*
X82535714Y-77738371D02*
X82630952Y-77785990D01*
X82630952Y-77785990D02*
X82678571Y-77833609D01*
X82678571Y-77833609D02*
X82726190Y-77928847D01*
X82726190Y-77928847D02*
X82726190Y-78166942D01*
X82726190Y-78166942D02*
X82678571Y-78262180D01*
X82678571Y-78262180D02*
X82630952Y-78309800D01*
X82630952Y-78309800D02*
X82535714Y-78357419D01*
X82535714Y-78357419D02*
X82297619Y-78357419D01*
X82297619Y-78357419D02*
X82202381Y-78309800D01*
X82202381Y-78309800D02*
X82154762Y-78262180D01*
X51500000Y-75500000D02*
X51500000Y-79586420D01*
X111000000Y-79586420D02*
X111000000Y-72000000D01*
X51500000Y-79000000D02*
X111000000Y-79000000D01*
X51500000Y-79000000D02*
X52626504Y-78413579D01*
X51500000Y-79000000D02*
X52626504Y-79586421D01*
X111000000Y-79000000D02*
X109873496Y-79586421D01*
X111000000Y-79000000D02*
X109873496Y-78413579D01*
X53890476Y-55814895D02*
X53890476Y-56462514D01*
X53890476Y-56462514D02*
X53928571Y-56538704D01*
X53928571Y-56538704D02*
X53966666Y-56576800D01*
X53966666Y-56576800D02*
X54042857Y-56614895D01*
X54042857Y-56614895D02*
X54195238Y-56614895D01*
X54195238Y-56614895D02*
X54271428Y-56576800D01*
X54271428Y-56576800D02*
X54309523Y-56538704D01*
X54309523Y-56538704D02*
X54347619Y-56462514D01*
X54347619Y-56462514D02*
X54347619Y-55814895D01*
X55147618Y-56614895D02*
X54690475Y-56614895D01*
X54919047Y-56614895D02*
X54919047Y-55814895D01*
X54919047Y-55814895D02*
X54842856Y-55929180D01*
X54842856Y-55929180D02*
X54766666Y-56005371D01*
X54766666Y-56005371D02*
X54690475Y-56043466D01*
D11*
X66795180Y-59916666D02*
X66080895Y-59916666D01*
X66080895Y-59916666D02*
X65938038Y-59869047D01*
X65938038Y-59869047D02*
X65842800Y-59773809D01*
X65842800Y-59773809D02*
X65795180Y-59630952D01*
X65795180Y-59630952D02*
X65795180Y-59535714D01*
X65795180Y-60916666D02*
X65795180Y-60345238D01*
X65795180Y-60630952D02*
X66795180Y-60630952D01*
X66795180Y-60630952D02*
X66652323Y-60535714D01*
X66652323Y-60535714D02*
X66557085Y-60440476D01*
X66557085Y-60440476D02*
X66509466Y-60345238D01*
D10*
X52788704Y-72133332D02*
X52826800Y-72171428D01*
X52826800Y-72171428D02*
X52864895Y-72285713D01*
X52864895Y-72285713D02*
X52864895Y-72361904D01*
X52864895Y-72361904D02*
X52826800Y-72476190D01*
X52826800Y-72476190D02*
X52750609Y-72552380D01*
X52750609Y-72552380D02*
X52674419Y-72590475D01*
X52674419Y-72590475D02*
X52522038Y-72628571D01*
X52522038Y-72628571D02*
X52407752Y-72628571D01*
X52407752Y-72628571D02*
X52255371Y-72590475D01*
X52255371Y-72590475D02*
X52179180Y-72552380D01*
X52179180Y-72552380D02*
X52102990Y-72476190D01*
X52102990Y-72476190D02*
X52064895Y-72361904D01*
X52064895Y-72361904D02*
X52064895Y-72285713D01*
X52064895Y-72285713D02*
X52102990Y-72171428D01*
X52102990Y-72171428D02*
X52141085Y-72133332D01*
X52864895Y-71371428D02*
X52864895Y-71828571D01*
X52864895Y-71599999D02*
X52064895Y-71599999D01*
X52064895Y-71599999D02*
X52179180Y-71676190D01*
X52179180Y-71676190D02*
X52255371Y-71752380D01*
X52255371Y-71752380D02*
X52293466Y-71828571D01*
X59616667Y-49614895D02*
X59350000Y-49233942D01*
X59159524Y-49614895D02*
X59159524Y-48814895D01*
X59159524Y-48814895D02*
X59464286Y-48814895D01*
X59464286Y-48814895D02*
X59540476Y-48852990D01*
X59540476Y-48852990D02*
X59578571Y-48891085D01*
X59578571Y-48891085D02*
X59616667Y-48967276D01*
X59616667Y-48967276D02*
X59616667Y-49081561D01*
X59616667Y-49081561D02*
X59578571Y-49157752D01*
X59578571Y-49157752D02*
X59540476Y-49195847D01*
X59540476Y-49195847D02*
X59464286Y-49233942D01*
X59464286Y-49233942D02*
X59159524Y-49233942D01*
X60378571Y-49614895D02*
X59921428Y-49614895D01*
X60150000Y-49614895D02*
X60150000Y-48814895D01*
X60150000Y-48814895D02*
X60073809Y-48929180D01*
X60073809Y-48929180D02*
X59997619Y-49005371D01*
X59997619Y-49005371D02*
X59921428Y-49043466D01*
D11*
X103436666Y-54474819D02*
X103436666Y-55189104D01*
X103436666Y-55189104D02*
X103389047Y-55331961D01*
X103389047Y-55331961D02*
X103293809Y-55427200D01*
X103293809Y-55427200D02*
X103150952Y-55474819D01*
X103150952Y-55474819D02*
X103055714Y-55474819D01*
X103865238Y-54570057D02*
X103912857Y-54522438D01*
X103912857Y-54522438D02*
X104008095Y-54474819D01*
X104008095Y-54474819D02*
X104246190Y-54474819D01*
X104246190Y-54474819D02*
X104341428Y-54522438D01*
X104341428Y-54522438D02*
X104389047Y-54570057D01*
X104389047Y-54570057D02*
X104436666Y-54665295D01*
X104436666Y-54665295D02*
X104436666Y-54760533D01*
X104436666Y-54760533D02*
X104389047Y-54903390D01*
X104389047Y-54903390D02*
X103817619Y-55474819D01*
X103817619Y-55474819D02*
X104436666Y-55474819D01*
D10*
X62409524Y-49614895D02*
X62409524Y-48814895D01*
X62409524Y-48814895D02*
X62600000Y-48814895D01*
X62600000Y-48814895D02*
X62714286Y-48852990D01*
X62714286Y-48852990D02*
X62790476Y-48929180D01*
X62790476Y-48929180D02*
X62828571Y-49005371D01*
X62828571Y-49005371D02*
X62866667Y-49157752D01*
X62866667Y-49157752D02*
X62866667Y-49272038D01*
X62866667Y-49272038D02*
X62828571Y-49424419D01*
X62828571Y-49424419D02*
X62790476Y-49500609D01*
X62790476Y-49500609D02*
X62714286Y-49576800D01*
X62714286Y-49576800D02*
X62600000Y-49614895D01*
X62600000Y-49614895D02*
X62409524Y-49614895D01*
X63628571Y-49614895D02*
X63171428Y-49614895D01*
X63400000Y-49614895D02*
X63400000Y-48814895D01*
X63400000Y-48814895D02*
X63323809Y-48929180D01*
X63323809Y-48929180D02*
X63247619Y-49005371D01*
X63247619Y-49005371D02*
X63171428Y-49043466D01*
X66114895Y-73383332D02*
X65733942Y-73649999D01*
X66114895Y-73840475D02*
X65314895Y-73840475D01*
X65314895Y-73840475D02*
X65314895Y-73535713D01*
X65314895Y-73535713D02*
X65352990Y-73459523D01*
X65352990Y-73459523D02*
X65391085Y-73421428D01*
X65391085Y-73421428D02*
X65467276Y-73383332D01*
X65467276Y-73383332D02*
X65581561Y-73383332D01*
X65581561Y-73383332D02*
X65657752Y-73421428D01*
X65657752Y-73421428D02*
X65695847Y-73459523D01*
X65695847Y-73459523D02*
X65733942Y-73535713D01*
X65733942Y-73535713D02*
X65733942Y-73840475D01*
X65391085Y-73078571D02*
X65352990Y-73040475D01*
X65352990Y-73040475D02*
X65314895Y-72964285D01*
X65314895Y-72964285D02*
X65314895Y-72773809D01*
X65314895Y-72773809D02*
X65352990Y-72697618D01*
X65352990Y-72697618D02*
X65391085Y-72659523D01*
X65391085Y-72659523D02*
X65467276Y-72621428D01*
X65467276Y-72621428D02*
X65543466Y-72621428D01*
X65543466Y-72621428D02*
X65657752Y-72659523D01*
X65657752Y-72659523D02*
X66114895Y-73116666D01*
X66114895Y-73116666D02*
X66114895Y-72621428D01*
D11*
G04 #@! TO.C,U1*
X53300000Y-75015000D02*
X53300000Y-57015000D01*
X64300000Y-57015000D02*
X53300000Y-57015000D01*
X64300000Y-57015000D02*
X64300000Y-75015000D01*
X64300000Y-75015000D02*
X53300000Y-75015000D01*
D12*
G04 #@! TO.C,J1*
X66438750Y-61897500D02*
G75*
G02*
X66188750Y-61897500I-125000J0D01*
G01*
X66188750Y-61897500D02*
G75*
G02*
X66438750Y-61897500I125000J0D01*
G01*
D13*
G04 #@! TO.C,C1*
X51990000Y-69609420D02*
X51990000Y-69890580D01*
X53010000Y-69609420D02*
X53010000Y-69890580D01*
G04 #@! TO.C,R1*
X59987258Y-50477500D02*
X59512742Y-50477500D01*
X59987258Y-51522500D02*
X59512742Y-51522500D01*
G04 #@! TO.C,J2*
X101120000Y-56020000D02*
X102500000Y-56020000D01*
X101120000Y-57400000D02*
X101120000Y-56020000D01*
X101120000Y-58670000D02*
X101120000Y-71480000D01*
X101120000Y-58670000D02*
X103770000Y-58670000D01*
X101120000Y-71480000D02*
X106420000Y-71480000D01*
X103770000Y-56020000D02*
X106420000Y-56020000D01*
X103770000Y-58670000D02*
X103770000Y-56020000D01*
X106420000Y-56020000D02*
X106420000Y-71480000D01*
G04 #@! TO.C,D1*
X61515000Y-50265000D02*
X61515000Y-51735000D01*
X61515000Y-51735000D02*
X63800000Y-51735000D01*
X63800000Y-50265000D02*
X61515000Y-50265000D01*
G04 #@! TO.C,R2*
X65227500Y-71237258D02*
X65227500Y-70762742D01*
X66272500Y-71237258D02*
X66272500Y-70762742D01*
G04 #@! TD*
%LPC*%
G04 #@! TO.C,J1*
G36*
X67063750Y-60957500D02*
G01*
X67813750Y-60957500D01*
X67813750Y-61307500D01*
X67063750Y-61307500D01*
X67063750Y-60957500D01*
G37*
G36*
X67063750Y-62302500D02*
G01*
X67813750Y-62302500D01*
X67813750Y-62752500D01*
X67063750Y-62752500D01*
X67063750Y-62302500D01*
G37*
G36*
X67063750Y-63572500D02*
G01*
X67813750Y-63572500D01*
X67813750Y-64022500D01*
X67063750Y-64022500D01*
X67063750Y-63572500D01*
G37*
G36*
X67063750Y-64842500D02*
G01*
X67813750Y-64842500D01*
X67813750Y-65292500D01*
X67063750Y-65292500D01*
X67063750Y-64842500D01*
G37*
G36*
X67063750Y-66112500D02*
G01*
X67813750Y-66112500D01*
X67813750Y-66562500D01*
X67063750Y-66562500D01*
X67063750Y-66112500D01*
G37*
G36*
X67063750Y-67382500D02*
G01*
X67813750Y-67382500D01*
X67813750Y-67832500D01*
X67063750Y-67832500D01*
X67063750Y-67382500D01*
G37*
G36*
X67063750Y-68652500D02*
G01*
X67813750Y-68652500D01*
X67813750Y-69102500D01*
X67063750Y-69102500D01*
X67063750Y-68652500D01*
G37*
G36*
X67063750Y-69922500D02*
G01*
X67813750Y-69922500D01*
X67813750Y-70372500D01*
X67063750Y-70372500D01*
X67063750Y-69922500D01*
G37*
G36*
X67813750Y-61492500D02*
G01*
X67063750Y-61492500D01*
X67063750Y-61277500D01*
X67813750Y-61277500D01*
X67813750Y-61492500D01*
G37*
G04 #@! TD*
D14*
G04 #@! TO.C,U1*
X63500000Y-69500000D03*
X63500000Y-68230000D03*
X63500000Y-66960000D03*
X63500000Y-65690000D03*
X63500000Y-64420000D03*
X63500000Y-63150000D03*
X63500000Y-61880000D03*
X63500000Y-60610000D03*
X63500000Y-59340000D03*
X63500000Y-58070000D03*
X61980000Y-58070000D03*
X60710000Y-58070000D03*
X59440000Y-58070000D03*
X58170000Y-58070000D03*
X56900000Y-58070000D03*
X55630000Y-58070000D03*
X54110000Y-58070000D03*
X54110000Y-59340000D03*
X54110000Y-60610000D03*
X54110000Y-61880000D03*
X54110000Y-63150000D03*
X54110000Y-64420000D03*
X54110000Y-65690000D03*
X54110000Y-66960000D03*
X54110000Y-68230000D03*
X54110000Y-69500000D03*
X58460000Y-72610000D03*
X61410000Y-72610000D03*
X63500000Y-74210000D03*
X54110000Y-74210000D03*
G04 #@! TD*
D15*
G04 #@! TO.C,J1*
X67813750Y-60627500D03*
D16*
X66313750Y-65707500D03*
D17*
X67813750Y-61897500D03*
D18*
X67063750Y-62322510D03*
D17*
X67813750Y-63167500D03*
D18*
X67063750Y-63592510D03*
D17*
X67813750Y-64437500D03*
D18*
X67063750Y-64862510D03*
D17*
X67813750Y-66977500D03*
D18*
X67063750Y-67402510D03*
D17*
X67813750Y-68247500D03*
D18*
X67063750Y-68672510D03*
D17*
X67813750Y-69517500D03*
D18*
X67063750Y-69942510D03*
G04 #@! TD*
D19*
G04 #@! TO.C,C1*
X52500000Y-68975000D03*
X52500000Y-70525000D03*
G04 #@! TD*
D20*
G04 #@! TO.C,R1*
X60575000Y-51000000D03*
X58925000Y-51000000D03*
G04 #@! TD*
D21*
G04 #@! TO.C,J2*
X102500000Y-57400000D03*
D22*
X105040000Y-57400000D03*
X102500000Y-59940000D03*
X105040000Y-59940000D03*
X102500000Y-62480000D03*
X105040000Y-62480000D03*
X102500000Y-65020000D03*
X105040000Y-65020000D03*
X102500000Y-67560000D03*
X105040000Y-67560000D03*
X102500000Y-70100000D03*
X105040000Y-70100000D03*
G04 #@! TD*
D23*
G04 #@! TO.C,D1*
X62212500Y-51000000D03*
X63787500Y-51000000D03*
G04 #@! TD*
D24*
G04 #@! TO.C,R2*
X65750000Y-71825000D03*
X65750000Y-70175000D03*
G04 #@! TD*
%LPD*%
M02*
