0
SECTION
2
HEADER
9
$INSUNITS
70
4
9
$ACADVER
1
AC1014
9
$HANDSEED
5
FFFF
0
ENDSEC
0
SECTION
2
TABLES
0
TABLE
2
VPORT
5
8
100
AcDbSymbolTable
0
ENDTAB
0
TABLE
2
LTYPE
5
5
100
AcDbSymbolTable
0
LTYPE
5
14
100
AcDbSymbolTableRecord
100
AcDbLinetypeTableRecord
2
BYBLOCK
70
0
0
LTYPE
5
15
100
AcDbSymbolTableRecord
100
AcDbLinetypeTableRecord
2
BYLAYER
70
0
0
LTYPE
5
16
100
AcDbSymbolTableRecord
100
AcDbLinetypeTableRecord
2
DASHED
70
0
3
Dashed __ __ __ __ __ __ __ __ __ __ __ __ __ _
72
65
73
2
40
0.75
49
0.5
74
0
49
-0.25
74
0
0
ENDTAB
0
TABLE
2
LAYER
5
2
100
AcDbSymbolTable
70
2
0
LAYER
5
50
100
AcDbSymbolTableRecord
100
AcDbLayerTableRecord
2
0
70
0
62
7
6
CONTINUOUS
0
ENDTAB
0
TABLE
2
STYLE
5
3
100
AcDbSymbolTable
70
1
0
STYLE
5
11
100
AcDbSymbolTableRecord
100
AcDbTextStyleTableRecord
2
STANDARD
70
0
0
ENDTAB
0
TABLE
2
VIEW
5
6
100
AcDbSymbolTable
70
0
0
ENDTAB
0
TABLE
2
UCS
5
7
100
AcDbSymbolTable
70
0
0
ENDTAB
0
TABLE
2
APPID
5
9
100
AcDbSymbolTable
70
2
0
APPID
5
12
100
AcDbSymbolTableRecord
100
AcDbRegAppTableRecord
2
ACAD
70
0
0
ENDTAB
0
TABLE
2
DIMSTYLE
5
A
100
AcDbSymbolTable
70
1
0
ENDTAB
0
TABLE
2
BLOCK_RECORD
5
1
100
AcDbSymbolTable
70
1
0
BLOCK_RECORD
5
1F
100
AcDbSymbolTableRecord
100
AcDbBlockTableRecord
2
*MODEL_SPACE
0
BLOCK_RECORD
5
1B
100
AcDbSymbolTableRecord
100
AcDbBlockTableRecord
2
*PAPER_SPACE
0
ENDTAB
0
ENDSEC
0
SECTION
2
BLOCKS
0
BLOCK
5
20
100
AcDbEntity
100
AcDbBlockBegin
2
*MODEL_SPACE
0
ENDBLK
5
21
100
AcDbEntity
100
AcDbBlockEnd
0
BLOCK
5
1C
100
AcDbEntity
100
AcDbBlockBegin
2
*PAPER_SPACE
0
ENDBLK
5
1D
100
AcDbEntity
100
AcDbBlockEnd
0
ENDSEC
0
SECTION
2
ENTITIES
0
LINE
5
100
100
AcDbEntity
8
0
100
AcDbLine
10
-7.0000000000000027
20
-13.344566384354914
30
0
11
13.346237369318468
21
-13.344566384354904
31
1.0353799381025779e-29
0
ARC
5
101
100
AcDbEntity
8
0
100
AcDbCircle
10
15.000000000000004
20
-10.780165484355706
30
0
40
1.5000000000000009
210
-1.7804152374779766e-32
220
1.7050762268715478e-32
230
1
100
AcDbArc
50
-43.761742692679761
51
223.76174269268003
0
LINE
5
102
100
AcDbEntity
8
0
100
AcDbLine
10
16.653762630681548
20
-13.344566384354899
30
4.276423536147513e-49
11
18.800000000000004
21
-13.344566384354914
31
6.1629758220391985e-32
0
ARC
5
103
100
AcDbEntity
8
0
100
AcDbCircle
10
18.800000000000011
20
-13.144566384354917
30
1.6934637203144152e-46
40
0.19999999999999796
210
-3.5707495841837701e-32
220
3.0814879110196304e-31
230
1
100
AcDbArc
50
-90.000000000002032
51
0
0
LINE
5
104
100
AcDbEntity
8
0
100
AcDbLine
10
19.000000000000007
20
-13.144566384354913
30
7.1414991683688406e-33
11
19.000000000000011
21
15.455433615645102
31
0
0
ARC
5
105
100
AcDbEntity
8
0
100
AcDbCircle
10
18.800000000000004
20
15.455433615645104
30
1.2829270608442539e-47
40
0.20000000000000462
210
6.1152856566906932e-46
220
4.9303806576312253e-32
230
1
100
AcDbArc
50
0
51
90
0
LINE
5
106
100
AcDbEntity
8
0
100
AcDbLine
10
18.800000000000004
20
15.655433615645107
30
-9.8607613152626344e-33
11
16.653762630681555
21
15.655433615645109
31
-6.1629758220392204e-32
0
ARC
5
107
100
AcDbEntity
8
0
100
AcDbCircle
10
15.000000000000004
20
13.091032715645889
30
0
40
1.5000000000000016
210
-5.2324664084766652e-32
220
-1.7341026701423002e-32
230
1
100
AcDbArc
50
-225.09912784402658
51
45.099127844025908
0
ARC
5
108
100
AcDbEntity
8
0
100
AcDbCircle
10
-15.000000000000004
20
13.091032715645889
30
0
40
1.5
210
-5.2264347288667177e-32
220
1.7521977089721502e-32
230
1
100
AcDbArc
50
-225.09912784402638
51
45.099127844026199
0
LINE
5
109
100
AcDbEntity
8
0
100
AcDbLine
10
-16.653762630681545
20
15.655433615645091
30
-3.2073176521106348e-49
11
-18.800000000000022
21
15.655433615645107
31
-6.1629758220391985e-32
0
ARC
5
110
100
AcDbEntity
8
0
100
AcDbCircle
10
-18.800000000000029
20
15.455433615645109
30
-1.6934637203144152e-46
40
0.19999999999999796
210
-3.5707495841834554e-32
220
3.0814879110196343e-31
230
1
100
AcDbArc
50
89.999999999997954
51
180
0
LINE
5
111
100
AcDbEntity
8
0
100
AcDbLine
10
-19.000000000000025
20
15.455433615645106
30
-7.1414991683688406e-33
11
-19.000000000000025
21
-13.14456638435491
31
0
0
ARC
5
112
100
AcDbEntity
8
0
100
AcDbCircle
10
-18.800000000000029
20
-13.144566384354917
30
-9.6647171916933795e-47
40
0.19999999999999796
210
1.304309178524944e-45
220
2.4651903288154793e-32
230
1
100
AcDbArc
50
180
51
270.00000000000102
0
LINE
5
113
100
AcDbEntity
8
0
100
AcDbLine
10
-18.800000000000026
20
-13.344566384354914
30
4.930380657631348e-33
11
-16.653762630681548
21
-13.344566384354916
31
6.1629758220392204e-32
0
ARC
5
114
100
AcDbEntity
8
0
100
AcDbCircle
10
-15.000000000000004
20
-10.780165484355706
30
0
40
1.5000000000000009
210
-0
220
0
230
1
100
AcDbArc
50
-43.761742692679661
51
223.76174269268034
0
LINE
5
115
100
AcDbEntity
8
0
100
AcDbLine
10
-13.346237369318462
20
-13.344566384354916
30
7.3955709864469649e-33
11
-13.000000000000005
21
-13.344566384354914
31
5.4542336025046519e-30
0
CIRCLE
5
116
100
AcDbEntity
8
0
100
AcDbCircle
10
-2.0969650525258702e-15
20
5.7509552675582948e-15
30
0
40
2.2000000000000015
210
-4.9303806576313249e-32
220
-1.8231490071858803e-63
230
1
0
CIRCLE
5
117
100
AcDbEntity
8
0
100
AcDbCircle
10
-2.0969650525258702e-15
20
5.7509552675582948e-15
30
0
40
2.2000000000000015
210
-4.9303806576313249e-32
220
-1.8231490071858803e-63
230
1
0
CIRCLE
5
118
100
AcDbEntity
8
0
100
AcDbCircle
10
15.000000000000009
20
-10.78016548435571
30
0
40
1.5000000000000013
210
-8.2107331894032068e-48
220
-2.4651903288156619e-32
230
1
0
CIRCLE
5
119
100
AcDbEntity
8
0
100
AcDbCircle
10
-15.000000000000009
20
13.091032715645925
30
0
40
1.4999999999999971
210
-2.4651903288156624e-32
220
-2.4651903288156619e-32
230
1
0
CIRCLE
5
120
100
AcDbEntity
8
0
100
AcDbCircle
10
15.000000000000009
20
13.09103271564592
30
0
40
1.5000000000000009
210
-2.4651903288156624e-32
220
-2.4651903288156619e-32
230
1
0
CIRCLE
5
121
100
AcDbEntity
8
0
100
AcDbCircle
10
-15.000000000000009
20
-10.78016548435571
30
0
40
1.4999999999999989
210
-2.4651903288156624e-32
220
-2.4651903288156619e-32
230
1
0
LINE
5
122
100
AcDbEntity
8
0
100
AcDbLine
10
-18.800000000000022
20
15.655433615645107
30
-6.1629758220391985e-32
11
-11.971873051589622
21
15.655433615645094
31
-1.2775833321343845e-30
0
LINE
5
123
100
AcDbEntity
8
0
100
AcDbLine
10
11.963854914474897
20
15.655433615645107
30
-9.2549130888138339e-32
11
18.800000000000004
21
15.655433615645107
31
-9.8607613152626344e-33
0
LINE
5
124
100
AcDbEntity
8
0
100
AcDbLine
10
-7.0000001043081292
20
-13.344566384354914
30
0
11
18.800000000000004
21
-13.344566384354914
31
6.1629758220391985e-32
0
LINE
5
125
100
AcDbEntity
8
0
100
AcDbLine
10
-18.800000000000026
20
-13.344566384354914
30
4.930380657631348e-33
11
-13.000000000000005
21
-13.344566384354914
31
5.4542336025046519e-30
0
LINE
5
126
100
AcDbEntity
8
0
100
AcDbLine
10
-7.0000000000000027
20
-11.844566384354916
30
0
11
-13.000000000000005
21
-11.844566384354916
31
2.7271168012523298e-30
0
ARC
5
127
100
AcDbEntity
8
0
100
AcDbCircle
10
-9.4718730515896237
20
9.6153491792090549
30
-6.2948954452091392e-46
40
2.4999999999999964
210
7.0888452658054439e-33
220
-1.0873204351233322e-33
230
1
100
AcDbArc
50
180
51
241.80844669345137
0
LINE
5
128
100
AcDbEntity
8
0
100
AcDbLine
10
-10.652925140784387
20
7.4119164113196696
30
7.3046238368726728e-32
11
-2.4396814251911048
21
3.0095725818508541
31
-7.7899755760616892e-32
0
ARC
5
129
100
AcDbEntity
8
0
100
AcDbCircle
10
-1.9428902930940239e-15
20
0.500000000000006
30
2.7369110631344083e-47
40
3.5000000000000036
210
1.9215720321654672e-32
220
1.8987838679956637e-32
230
1
100
AcDbArc
50
44.658238609475966
51
134.1909483449472
0
LINE
5
130
100
AcDbEntity
8
0
100
AcDbLine
10
2.4895918983748313
20
2.9600675152414917
30
-9.4550666755435192e-32
11
10.603322134025607
21
7.1148566668779623
31
0
0
ARC
5
131
100
AcDbEntity
8
0
100
AcDbCircle
10
9.4638549144748936
20
9.3400790053352623
30
0
40
2.5000000000000022
210
0
220
0
230
1
100
AcDbArc
50
297.11557541168349
51
360
0
LINE
5
132
100
AcDbEntity
8
0
100
AcDbLine
10
11.963854914474897
20
15.655433615645107
30
-9.2549130888138339e-32
11
11.963854914474897
21
9.3400790053352605
31
0
0
LINE
5
133
100
AcDbEntity
8
0
100
AcDbLine
10
-11.971873051589622
20
15.655433615645094
30
-1.2775833321343845e-30
11
-11.971873051589622
21
9.6153491792090549
31
1.7722113164512957e-32
0
LINE
5
134
100
AcDbEntity
8
0
100
AcDbLine
10
-7.0000000000000027
20
-11.844566384354916
30
0
11
-7.0000000000000027
21
-13.344566384354914
31
0
0
LINE
5
135
100
AcDbEntity
8
0
100
AcDbLine
10
-13.000000000000005
20
-13.344566384354914
30
5.4542336025046519e-30
11
-13.000000000000005
21
-11.844566384354916
31
2.7271168012523298e-30
0
ENDSEC
0
SECTION
2
OBJECTS
0
DICTIONARY
5
C
100
AcDbDictionary
3
ACAD_GROUP
350
D
3
ACAD_MLINESTYLE
350
17
0
DICTIONARY
5
D
100
AcDbDictionary
0
DICTIONARY
5
1A
330
C
100
AcDbDictionary
0
DICTIONARY
5
17
100
AcDbDictionary
0
ENDSEC
0
EOF
